%TF.GenerationSoftware,KiCad,Pcbnew,8.0.1*%
%TF.CreationDate,2024-04-21T18:06:59+02:00*%
%TF.ProjectId,Programmer,50726f67-7261-46d6-9d65-722e6b696361,rev?*%
%TF.SameCoordinates,Original*%
%TF.FileFunction,Copper,L1,Top*%
%TF.FilePolarity,Positive*%
%FSLAX46Y46*%
G04 Gerber Fmt 4.6, Leading zero omitted, Abs format (unit mm)*
G04 Created by KiCad (PCBNEW 8.0.1) date 2024-04-21 18:06:59*
%MOMM*%
%LPD*%
G01*
G04 APERTURE LIST*
G04 Aperture macros list*
%AMRoundRect*
0 Rectangle with rounded corners*
0 $1 Rounding radius*
0 $2 $3 $4 $5 $6 $7 $8 $9 X,Y pos of 4 corners*
0 Add a 4 corners polygon primitive as box body*
4,1,4,$2,$3,$4,$5,$6,$7,$8,$9,$2,$3,0*
0 Add four circle primitives for the rounded corners*
1,1,$1+$1,$2,$3*
1,1,$1+$1,$4,$5*
1,1,$1+$1,$6,$7*
1,1,$1+$1,$8,$9*
0 Add four rect primitives between the rounded corners*
20,1,$1+$1,$2,$3,$4,$5,0*
20,1,$1+$1,$4,$5,$6,$7,0*
20,1,$1+$1,$6,$7,$8,$9,0*
20,1,$1+$1,$8,$9,$2,$3,0*%
G04 Aperture macros list end*
%TA.AperFunction,SMDPad,CuDef*%
%ADD10RoundRect,0.200000X-0.200000X-0.275000X0.200000X-0.275000X0.200000X0.275000X-0.200000X0.275000X0*%
%TD*%
%TA.AperFunction,SMDPad,CuDef*%
%ADD11R,0.600000X1.450000*%
%TD*%
%TA.AperFunction,SMDPad,CuDef*%
%ADD12R,0.300000X1.450000*%
%TD*%
%TA.AperFunction,ComponentPad*%
%ADD13O,1.000000X2.100000*%
%TD*%
%TA.AperFunction,ComponentPad*%
%ADD14O,1.000000X1.600000*%
%TD*%
%TA.AperFunction,SMDPad,CuDef*%
%ADD15RoundRect,0.200000X0.200000X0.275000X-0.200000X0.275000X-0.200000X-0.275000X0.200000X-0.275000X0*%
%TD*%
%TA.AperFunction,ComponentPad*%
%ADD16R,1.700000X1.700000*%
%TD*%
%TA.AperFunction,ComponentPad*%
%ADD17O,1.700000X1.700000*%
%TD*%
%TA.AperFunction,SMDPad,CuDef*%
%ADD18RoundRect,0.250000X0.250000X0.475000X-0.250000X0.475000X-0.250000X-0.475000X0.250000X-0.475000X0*%
%TD*%
%TA.AperFunction,ViaPad*%
%ADD19C,0.600000*%
%TD*%
%TA.AperFunction,Conductor*%
%ADD20C,0.200000*%
%TD*%
%TA.AperFunction,Conductor*%
%ADD21C,0.400000*%
%TD*%
G04 APERTURE END LIST*
D10*
%TO.P,R2,1*%
%TO.N,Net-(J1-CC2)*%
X98925000Y-79000000D03*
%TO.P,R2,2*%
%TO.N,GND*%
X100575000Y-79000000D03*
%TD*%
D11*
%TO.P,J1,A1,GND*%
%TO.N,GND*%
X92770000Y-81467500D03*
%TO.P,J1,A4,VBUS*%
%TO.N,+5V*%
X93570000Y-81467500D03*
D12*
%TO.P,J1,A5,CC1*%
%TO.N,Net-(J1-CC1)*%
X94770000Y-81467500D03*
%TO.P,J1,A6,D+*%
%TO.N,Net-(J1-D+-PadA6)*%
X95770000Y-81467500D03*
%TO.P,J1,A7,D-*%
%TO.N,Net-(J1-D--PadA7)*%
X96270000Y-81467500D03*
%TO.P,J1,A8,SBU1*%
%TO.N,unconnected-(J1-SBU1-PadA8)*%
X97270000Y-81467500D03*
D11*
%TO.P,J1,A9,VBUS*%
%TO.N,+5V*%
X98470000Y-81467500D03*
%TO.P,J1,A12,GND*%
%TO.N,GND*%
X99270000Y-81467500D03*
%TO.P,J1,B1,GND*%
X99270000Y-81467500D03*
%TO.P,J1,B4,VBUS*%
%TO.N,+5V*%
X98470000Y-81467500D03*
D12*
%TO.P,J1,B5,CC2*%
%TO.N,Net-(J1-CC2)*%
X97770000Y-81467500D03*
%TO.P,J1,B6,D+*%
%TO.N,Net-(J1-D+-PadA6)*%
X96770000Y-81467500D03*
%TO.P,J1,B7,D-*%
%TO.N,Net-(J1-D--PadA7)*%
X95270000Y-81467500D03*
%TO.P,J1,B8,SBU2*%
%TO.N,unconnected-(J1-SBU2-PadB8)*%
X94270000Y-81467500D03*
D11*
%TO.P,J1,B9,VBUS*%
%TO.N,+5V*%
X93570000Y-81467500D03*
%TO.P,J1,B12,GND*%
%TO.N,GND*%
X92770000Y-81467500D03*
D13*
%TO.P,J1,S1,SHIELD*%
X91700000Y-82382500D03*
D14*
X91700000Y-86562500D03*
D13*
X100340000Y-82382500D03*
D14*
X100340000Y-86562500D03*
%TD*%
D15*
%TO.P,R1,1*%
%TO.N,Net-(J1-CC1)*%
X93075000Y-79000000D03*
%TO.P,R1,2*%
%TO.N,GND*%
X91425000Y-79000000D03*
%TD*%
D16*
%TO.P,J2,1,Pin_1*%
%TO.N,/UPDI*%
X93467657Y-76250000D03*
D17*
%TO.P,J2,2,Pin_2*%
%TO.N,GND*%
X96007657Y-76250000D03*
%TO.P,J2,3,Pin_3*%
%TO.N,+5V*%
X98547656Y-76250000D03*
%TD*%
D18*
%TO.P,C2,1*%
%TO.N,+5V*%
X96949999Y-79000000D03*
%TO.P,C2,2*%
%TO.N,GND*%
X95050001Y-79000000D03*
%TD*%
D19*
%TO.N,GND*%
X97500000Y-83500000D03*
%TO.N,+5V*%
X94250000Y-88200000D03*
%TO.N,Net-(J1-D+-PadA6)*%
X97750000Y-88200000D03*
%TO.N,Net-(J1-D--PadA7)*%
X95925000Y-88200000D03*
%TO.N,Net-(J1-CC1)*%
X92134043Y-80372183D03*
X94505930Y-82744070D03*
%TD*%
D20*
%TO.N,GND*%
X97500000Y-83500000D02*
X97587500Y-83587500D01*
X99662500Y-83587500D02*
X100340000Y-82910000D01*
D21*
X97257657Y-75000000D02*
X96007657Y-76250000D01*
X92834043Y-80662133D02*
X92834043Y-80570027D01*
X100575000Y-75825000D02*
X99750000Y-75000000D01*
X92834043Y-80570027D02*
X94404070Y-79000000D01*
D20*
X99270000Y-81467500D02*
X99425000Y-81467500D01*
X91425000Y-80925000D02*
X91700000Y-81200000D01*
D21*
X99270000Y-81467500D02*
X100575000Y-80162500D01*
X95050001Y-79000000D02*
X95050001Y-77207656D01*
D20*
X100340000Y-82910000D02*
X100340000Y-82382500D01*
D21*
X94404070Y-79000000D02*
X95050001Y-79000000D01*
X100575000Y-79000000D02*
X100575000Y-75825000D01*
D20*
X99425000Y-81467500D02*
X100340000Y-82382500D01*
X92770000Y-81467500D02*
X92615000Y-81467500D01*
X92615000Y-81467500D02*
X91700000Y-82382500D01*
X97587500Y-83587500D02*
X99662500Y-83587500D01*
D21*
X99750000Y-75000000D02*
X97257657Y-75000000D01*
X95050001Y-77207656D02*
X96007657Y-76250000D01*
D20*
X91425000Y-79000000D02*
X91425000Y-80925000D01*
X91700000Y-81200000D02*
X91700000Y-82382500D01*
D21*
X100575000Y-80162500D02*
X100575000Y-79000000D01*
X92770000Y-80726176D02*
X92834043Y-80662133D01*
X92770000Y-81467500D02*
X92770000Y-80726176D01*
%TO.N,+5V*%
X99725000Y-78198419D02*
X99500000Y-77973419D01*
X93570000Y-80693341D02*
X94013341Y-80250000D01*
X99500000Y-77973419D02*
X98510710Y-77973419D01*
D20*
X94250000Y-88200000D02*
X94250000Y-84750000D01*
X94250000Y-84750000D02*
X93805000Y-84305000D01*
D21*
X94013341Y-80250000D02*
X95451167Y-80250000D01*
X98912500Y-80000000D02*
X99254070Y-80000000D01*
X93570000Y-81467500D02*
X93570000Y-80693341D01*
X98510710Y-77973419D02*
X97484129Y-79000000D01*
X98470000Y-80442500D02*
X98912500Y-80000000D01*
X95451167Y-80250000D02*
X96701167Y-79000000D01*
X99725000Y-79529070D02*
X99725000Y-78198419D01*
D20*
X93805000Y-84305000D02*
X93805000Y-81702500D01*
D21*
X96949999Y-77847657D02*
X98547656Y-76250000D01*
X97484129Y-79000000D02*
X96949999Y-79000000D01*
X96701167Y-79000000D02*
X96949999Y-79000000D01*
X96949999Y-79000000D02*
X96949999Y-77847657D01*
D20*
X93805000Y-81702500D02*
X93570000Y-81467500D01*
D21*
X98470000Y-81467500D02*
X98470000Y-80442500D01*
X99254070Y-80000000D02*
X99725000Y-79529070D01*
D20*
%TO.N,Net-(J1-D+-PadA6)*%
X96750000Y-87200000D02*
X96750000Y-83500000D01*
X95770000Y-81467500D02*
X95770000Y-80654370D01*
X97750000Y-88200000D02*
X96750000Y-87200000D01*
X96750000Y-83500000D02*
X96770000Y-83480000D01*
X96770000Y-80520000D02*
X96770000Y-81467500D01*
X96044918Y-80379452D02*
X96629452Y-80379452D01*
X96770000Y-83480000D02*
X96770000Y-81467500D01*
X95770000Y-80654370D02*
X96044918Y-80379452D01*
X96629452Y-80379452D02*
X96770000Y-80520000D01*
%TO.N,Net-(J1-CC2)*%
X99070000Y-79145000D02*
X98925000Y-79000000D01*
X97770000Y-80155000D02*
X98925000Y-79000000D01*
X97770000Y-81467500D02*
X97770000Y-80155000D01*
%TO.N,Net-(J1-D--PadA7)*%
X95270000Y-82442500D02*
X95327500Y-82500000D01*
X95925000Y-88200000D02*
X95925000Y-87575000D01*
X95327500Y-82500000D02*
X96270000Y-82500000D01*
X96270000Y-82500000D02*
X96270000Y-81467500D01*
X95925000Y-87575000D02*
X96270000Y-87230000D01*
X96270000Y-87230000D02*
X96270000Y-82500000D01*
X95270000Y-81467500D02*
X95270000Y-82442500D01*
%TO.N,Net-(J1-CC1)*%
X93075000Y-79431226D02*
X93075000Y-79000000D01*
X92900000Y-79175000D02*
X93075000Y-79000000D01*
X94505930Y-82744070D02*
X94770000Y-82480000D01*
X92134043Y-80372183D02*
X93075000Y-79431226D01*
X94770000Y-82480000D02*
X94770000Y-81467500D01*
%TD*%
M02*
