%TF.GenerationSoftware,KiCad,Pcbnew,7.0.7*%
%TF.CreationDate,2024-04-20T23:27:06+02:00*%
%TF.ProjectId,Heptachron,48657074-6163-4687-926f-6e2e6b696361,rev?*%
%TF.SameCoordinates,Original*%
%TF.FileFunction,Copper,L1,Top*%
%TF.FilePolarity,Positive*%
%FSLAX46Y46*%
G04 Gerber Fmt 4.6, Leading zero omitted, Abs format (unit mm)*
G04 Created by KiCad (PCBNEW 7.0.7) date 2024-04-20 23:27:06*
%MOMM*%
%LPD*%
G01*
G04 APERTURE LIST*
G04 Aperture macros list*
%AMRoundRect*
0 Rectangle with rounded corners*
0 $1 Rounding radius*
0 $2 $3 $4 $5 $6 $7 $8 $9 X,Y pos of 4 corners*
0 Add a 4 corners polygon primitive as box body*
4,1,4,$2,$3,$4,$5,$6,$7,$8,$9,$2,$3,0*
0 Add four circle primitives for the rounded corners*
1,1,$1+$1,$2,$3*
1,1,$1+$1,$4,$5*
1,1,$1+$1,$6,$7*
1,1,$1+$1,$8,$9*
0 Add four rect primitives between the rounded corners*
20,1,$1+$1,$2,$3,$4,$5,0*
20,1,$1+$1,$4,$5,$6,$7,0*
20,1,$1+$1,$6,$7,$8,$9,0*
20,1,$1+$1,$8,$9,$2,$3,0*%
G04 Aperture macros list end*
%TA.AperFunction,EtchedComponent*%
%ADD10C,0.010000*%
%TD*%
%TA.AperFunction,SMDPad,CuDef*%
%ADD11R,1.100000X0.700000*%
%TD*%
%TA.AperFunction,ComponentPad*%
%ADD12C,0.800000*%
%TD*%
%TA.AperFunction,SMDPad,CuDef*%
%ADD13R,1.100000X1.400000*%
%TD*%
%TA.AperFunction,SMDPad,CuDef*%
%ADD14RoundRect,0.218750X-0.256250X0.218750X-0.256250X-0.218750X0.256250X-0.218750X0.256250X0.218750X0*%
%TD*%
%TA.AperFunction,SMDPad,CuDef*%
%ADD15C,1.000000*%
%TD*%
%TA.AperFunction,SMDPad,CuDef*%
%ADD16RoundRect,0.218750X-0.218750X-0.256250X0.218750X-0.256250X0.218750X0.256250X-0.218750X0.256250X0*%
%TD*%
%TA.AperFunction,SMDPad,CuDef*%
%ADD17RoundRect,0.200000X-0.200000X-0.275000X0.200000X-0.275000X0.200000X0.275000X-0.200000X0.275000X0*%
%TD*%
%TA.AperFunction,ComponentPad*%
%ADD18C,2.750000*%
%TD*%
%TA.AperFunction,SMDPad,CuDef*%
%ADD19RoundRect,0.275000X0.133151X-1.028541X0.411497X0.951995X-0.133151X1.028541X-0.411497X-0.951995X0*%
%TD*%
%TA.AperFunction,SMDPad,CuDef*%
%ADD20RoundRect,0.275000X-1.037062X0.011290X0.885461X-0.539984X1.037062X-0.011290X-0.885461X0.539984X0*%
%TD*%
%TA.AperFunction,SMDPad,CuDef*%
%ADD21RoundRect,0.275000X1.037062X-0.011290X-0.885461X0.539984X-1.037062X0.011290X0.885461X-0.539984X0*%
%TD*%
%TA.AperFunction,SMDPad,CuDef*%
%ADD22RoundRect,0.225000X0.225000X0.250000X-0.225000X0.250000X-0.225000X-0.250000X0.225000X-0.250000X0*%
%TD*%
%TA.AperFunction,SMDPad,CuDef*%
%ADD23RoundRect,0.218750X0.256250X-0.218750X0.256250X0.218750X-0.256250X0.218750X-0.256250X-0.218750X0*%
%TD*%
%TA.AperFunction,ViaPad*%
%ADD24C,0.500000*%
%TD*%
%TA.AperFunction,ViaPad*%
%ADD25C,0.800000*%
%TD*%
%TA.AperFunction,Conductor*%
%ADD26C,0.100000*%
%TD*%
%TA.AperFunction,Conductor*%
%ADD27C,0.150000*%
%TD*%
%TA.AperFunction,Conductor*%
%ADD28C,0.300000*%
%TD*%
G04 APERTURE END LIST*
%TO.C,SW2*%
D10*
X128400000Y-104800000D02*
X128400000Y-105175000D01*
X128399000Y-105196000D01*
X128398000Y-105217000D01*
X128395000Y-105238000D01*
X128391000Y-105258000D01*
X128386000Y-105279000D01*
X128380000Y-105299000D01*
X128373000Y-105318000D01*
X128365000Y-105338000D01*
X128356000Y-105357000D01*
X128346000Y-105375000D01*
X128335000Y-105393000D01*
X128324000Y-105410000D01*
X128311000Y-105427000D01*
X128297000Y-105443000D01*
X128283000Y-105458000D01*
X128268000Y-105472000D01*
X128252000Y-105486000D01*
X128235000Y-105499000D01*
X128218000Y-105510000D01*
X128200000Y-105521000D01*
X128182000Y-105531000D01*
X128163000Y-105540000D01*
X128143000Y-105548000D01*
X128124000Y-105555000D01*
X128104000Y-105561000D01*
X128083000Y-105566000D01*
X128063000Y-105570000D01*
X128042000Y-105573000D01*
X128021000Y-105574000D01*
X128000000Y-105575000D01*
X127700000Y-105575000D01*
X127700000Y-105850000D01*
X127250000Y-105850000D01*
X127250000Y-104900000D01*
X127550000Y-104700000D01*
X128400000Y-104800000D01*
%TA.AperFunction,EtchedComponent*%
G36*
X128400000Y-104800000D02*
G01*
X128400000Y-105175000D01*
X128399000Y-105196000D01*
X128398000Y-105217000D01*
X128395000Y-105238000D01*
X128391000Y-105258000D01*
X128386000Y-105279000D01*
X128380000Y-105299000D01*
X128373000Y-105318000D01*
X128365000Y-105338000D01*
X128356000Y-105357000D01*
X128346000Y-105375000D01*
X128335000Y-105393000D01*
X128324000Y-105410000D01*
X128311000Y-105427000D01*
X128297000Y-105443000D01*
X128283000Y-105458000D01*
X128268000Y-105472000D01*
X128252000Y-105486000D01*
X128235000Y-105499000D01*
X128218000Y-105510000D01*
X128200000Y-105521000D01*
X128182000Y-105531000D01*
X128163000Y-105540000D01*
X128143000Y-105548000D01*
X128124000Y-105555000D01*
X128104000Y-105561000D01*
X128083000Y-105566000D01*
X128063000Y-105570000D01*
X128042000Y-105573000D01*
X128021000Y-105574000D01*
X128000000Y-105575000D01*
X127700000Y-105575000D01*
X127700000Y-105850000D01*
X127250000Y-105850000D01*
X127250000Y-104900000D01*
X127550000Y-104700000D01*
X128400000Y-104800000D01*
G37*
%TD.AperFunction*%
X127700000Y-108425000D02*
X128000000Y-108425000D01*
X128021000Y-108426000D01*
X128042000Y-108427000D01*
X128063000Y-108430000D01*
X128083000Y-108434000D01*
X128104000Y-108439000D01*
X128124000Y-108445000D01*
X128143000Y-108452000D01*
X128163000Y-108460000D01*
X128182000Y-108469000D01*
X128200000Y-108479000D01*
X128218000Y-108490000D01*
X128235000Y-108501000D01*
X128252000Y-108514000D01*
X128268000Y-108528000D01*
X128283000Y-108542000D01*
X128297000Y-108557000D01*
X128311000Y-108573000D01*
X128324000Y-108590000D01*
X128335000Y-108607000D01*
X128346000Y-108625000D01*
X128356000Y-108643000D01*
X128365000Y-108662000D01*
X128373000Y-108682000D01*
X128380000Y-108701000D01*
X128386000Y-108721000D01*
X128391000Y-108742000D01*
X128395000Y-108762000D01*
X128398000Y-108783000D01*
X128399000Y-108804000D01*
X128400000Y-108825000D01*
X128400000Y-109150000D01*
X127700000Y-109300000D01*
X127600000Y-109300000D01*
X127250000Y-109150000D01*
X127250000Y-108150000D01*
X127700000Y-108150000D01*
X127700000Y-108425000D01*
%TA.AperFunction,EtchedComponent*%
G36*
X127700000Y-108425000D02*
G01*
X128000000Y-108425000D01*
X128021000Y-108426000D01*
X128042000Y-108427000D01*
X128063000Y-108430000D01*
X128083000Y-108434000D01*
X128104000Y-108439000D01*
X128124000Y-108445000D01*
X128143000Y-108452000D01*
X128163000Y-108460000D01*
X128182000Y-108469000D01*
X128200000Y-108479000D01*
X128218000Y-108490000D01*
X128235000Y-108501000D01*
X128252000Y-108514000D01*
X128268000Y-108528000D01*
X128283000Y-108542000D01*
X128297000Y-108557000D01*
X128311000Y-108573000D01*
X128324000Y-108590000D01*
X128335000Y-108607000D01*
X128346000Y-108625000D01*
X128356000Y-108643000D01*
X128365000Y-108662000D01*
X128373000Y-108682000D01*
X128380000Y-108701000D01*
X128386000Y-108721000D01*
X128391000Y-108742000D01*
X128395000Y-108762000D01*
X128398000Y-108783000D01*
X128399000Y-108804000D01*
X128400000Y-108825000D01*
X128400000Y-109150000D01*
X127700000Y-109300000D01*
X127600000Y-109300000D01*
X127250000Y-109150000D01*
X127250000Y-108150000D01*
X127700000Y-108150000D01*
X127700000Y-108425000D01*
G37*
%TD.AperFunction*%
%TO.C,SW1*%
X128400000Y-92800000D02*
X128400000Y-93175000D01*
X128399000Y-93196000D01*
X128398000Y-93217000D01*
X128395000Y-93238000D01*
X128391000Y-93258000D01*
X128386000Y-93279000D01*
X128380000Y-93299000D01*
X128373000Y-93318000D01*
X128365000Y-93338000D01*
X128356000Y-93357000D01*
X128346000Y-93375000D01*
X128335000Y-93393000D01*
X128324000Y-93410000D01*
X128311000Y-93427000D01*
X128297000Y-93443000D01*
X128283000Y-93458000D01*
X128268000Y-93472000D01*
X128252000Y-93486000D01*
X128235000Y-93499000D01*
X128218000Y-93510000D01*
X128200000Y-93521000D01*
X128182000Y-93531000D01*
X128163000Y-93540000D01*
X128143000Y-93548000D01*
X128124000Y-93555000D01*
X128104000Y-93561000D01*
X128083000Y-93566000D01*
X128063000Y-93570000D01*
X128042000Y-93573000D01*
X128021000Y-93574000D01*
X128000000Y-93575000D01*
X127700000Y-93575000D01*
X127700000Y-93850000D01*
X127250000Y-93850000D01*
X127250000Y-92900000D01*
X127550000Y-92700000D01*
X128400000Y-92800000D01*
%TA.AperFunction,EtchedComponent*%
G36*
X128400000Y-92800000D02*
G01*
X128400000Y-93175000D01*
X128399000Y-93196000D01*
X128398000Y-93217000D01*
X128395000Y-93238000D01*
X128391000Y-93258000D01*
X128386000Y-93279000D01*
X128380000Y-93299000D01*
X128373000Y-93318000D01*
X128365000Y-93338000D01*
X128356000Y-93357000D01*
X128346000Y-93375000D01*
X128335000Y-93393000D01*
X128324000Y-93410000D01*
X128311000Y-93427000D01*
X128297000Y-93443000D01*
X128283000Y-93458000D01*
X128268000Y-93472000D01*
X128252000Y-93486000D01*
X128235000Y-93499000D01*
X128218000Y-93510000D01*
X128200000Y-93521000D01*
X128182000Y-93531000D01*
X128163000Y-93540000D01*
X128143000Y-93548000D01*
X128124000Y-93555000D01*
X128104000Y-93561000D01*
X128083000Y-93566000D01*
X128063000Y-93570000D01*
X128042000Y-93573000D01*
X128021000Y-93574000D01*
X128000000Y-93575000D01*
X127700000Y-93575000D01*
X127700000Y-93850000D01*
X127250000Y-93850000D01*
X127250000Y-92900000D01*
X127550000Y-92700000D01*
X128400000Y-92800000D01*
G37*
%TD.AperFunction*%
X127700000Y-96425000D02*
X128000000Y-96425000D01*
X128021000Y-96426000D01*
X128042000Y-96427000D01*
X128063000Y-96430000D01*
X128083000Y-96434000D01*
X128104000Y-96439000D01*
X128124000Y-96445000D01*
X128143000Y-96452000D01*
X128163000Y-96460000D01*
X128182000Y-96469000D01*
X128200000Y-96479000D01*
X128218000Y-96490000D01*
X128235000Y-96501000D01*
X128252000Y-96514000D01*
X128268000Y-96528000D01*
X128283000Y-96542000D01*
X128297000Y-96557000D01*
X128311000Y-96573000D01*
X128324000Y-96590000D01*
X128335000Y-96607000D01*
X128346000Y-96625000D01*
X128356000Y-96643000D01*
X128365000Y-96662000D01*
X128373000Y-96682000D01*
X128380000Y-96701000D01*
X128386000Y-96721000D01*
X128391000Y-96742000D01*
X128395000Y-96762000D01*
X128398000Y-96783000D01*
X128399000Y-96804000D01*
X128400000Y-96825000D01*
X128400000Y-97150000D01*
X127700000Y-97300000D01*
X127600000Y-97300000D01*
X127250000Y-97150000D01*
X127250000Y-96150000D01*
X127700000Y-96150000D01*
X127700000Y-96425000D01*
%TA.AperFunction,EtchedComponent*%
G36*
X127700000Y-96425000D02*
G01*
X128000000Y-96425000D01*
X128021000Y-96426000D01*
X128042000Y-96427000D01*
X128063000Y-96430000D01*
X128083000Y-96434000D01*
X128104000Y-96439000D01*
X128124000Y-96445000D01*
X128143000Y-96452000D01*
X128163000Y-96460000D01*
X128182000Y-96469000D01*
X128200000Y-96479000D01*
X128218000Y-96490000D01*
X128235000Y-96501000D01*
X128252000Y-96514000D01*
X128268000Y-96528000D01*
X128283000Y-96542000D01*
X128297000Y-96557000D01*
X128311000Y-96573000D01*
X128324000Y-96590000D01*
X128335000Y-96607000D01*
X128346000Y-96625000D01*
X128356000Y-96643000D01*
X128365000Y-96662000D01*
X128373000Y-96682000D01*
X128380000Y-96701000D01*
X128386000Y-96721000D01*
X128391000Y-96742000D01*
X128395000Y-96762000D01*
X128398000Y-96783000D01*
X128399000Y-96804000D01*
X128400000Y-96825000D01*
X128400000Y-97150000D01*
X127700000Y-97300000D01*
X127600000Y-97300000D01*
X127250000Y-97150000D01*
X127250000Y-96150000D01*
X127700000Y-96150000D01*
X127700000Y-96425000D01*
G37*
%TD.AperFunction*%
%TD*%
D11*
%TO.P,SW2,1,1*%
%TO.N,/BU2*%
X129350000Y-108400000D03*
%TO.P,SW2,2,2*%
%TO.N,GND*%
X129350000Y-105600000D03*
D12*
%TO.P,SW2,SH1*%
%TO.N,N/C*%
X128000000Y-108825000D03*
%TO.P,SW2,SH2*%
X128000000Y-105175000D03*
D13*
%TO.P,SW2,SH3*%
X129500000Y-107000000D03*
%TD*%
D14*
%TO.P,D40,1,K*%
%TO.N,/CS3*%
X147000000Y-106462500D03*
%TO.P,D40,2,A*%
%TO.N,/SW5*%
X147000000Y-108037500D03*
%TD*%
D15*
%TO.P,TP6,1,1*%
%TO.N,GND*%
X156625000Y-107525000D03*
%TD*%
%TO.P,TP2,1,1*%
%TO.N,/STAT2*%
X161025000Y-91525000D03*
%TD*%
D16*
%TO.P,Q1,1,C*%
%TO.N,/LIGHT_EN*%
X147212500Y-89750000D03*
%TO.P,Q1,2,E*%
%TO.N,/LIGHT_IN*%
X148787500Y-89750000D03*
%TD*%
D17*
%TO.P,R16,1*%
%TO.N,GND*%
X151090000Y-91805000D03*
%TO.P,R16,2*%
%TO.N,/LIGHT_IN*%
X152740000Y-91805000D03*
%TD*%
D18*
%TO.P,H1,1*%
%TO.N,N/C*%
X164000000Y-109000000D03*
%TD*%
D14*
%TO.P,D37,1,K*%
%TO.N,/CS6*%
X148000000Y-101812500D03*
%TO.P,D37,2,A*%
%TO.N,/SW5*%
X148000000Y-103387500D03*
%TD*%
D19*
%TO.P,U3,1,A_A*%
%TO.N,/SW2*%
X153446431Y-97118254D03*
D20*
%TO.P,U3,2,A_B*%
X157565536Y-98433565D03*
%TO.P,U3,3,A_C*%
X157099536Y-101751565D03*
D19*
%TO.P,U3,4,A_D*%
X152514431Y-103752254D03*
D21*
%TO.P,U3,5,A_E*%
X150295326Y-103486943D03*
%TO.P,U3,6,A_F*%
X150761326Y-100168943D03*
D19*
%TO.P,U3,7,A_G*%
X152980431Y-100435254D03*
%TO.P,U3,8,K_A*%
%TO.N,/CS1*%
X155446431Y-97118254D03*
D20*
%TO.P,U3,9,K_B*%
%TO.N,/CS2*%
X157287190Y-100414101D03*
%TO.P,U3,10,K_C*%
%TO.N,/CS3*%
X156821190Y-103732101D03*
D19*
%TO.P,U3,11,K_D*%
%TO.N,/CS4*%
X154514431Y-103752254D03*
D21*
%TO.P,U3,12,K_E*%
%TO.N,/CS5*%
X150573672Y-101506407D03*
%TO.P,U3,13,K_F*%
%TO.N,/CS6*%
X151039672Y-98188407D03*
D19*
%TO.P,U3,14,K_G*%
%TO.N,/CS7*%
X154980431Y-100435254D03*
%TD*%
D14*
%TO.P,D39,1,K*%
%TO.N,/CS2*%
X149000001Y-106462500D03*
%TO.P,D39,2,A*%
%TO.N,/SW5*%
X149000001Y-108037500D03*
%TD*%
D18*
%TO.P,H4,1*%
%TO.N,N/C*%
X132000000Y-93000000D03*
%TD*%
D19*
%TO.P,U2,1,A_A*%
%TO.N,/SW3*%
X141446431Y-97118254D03*
D20*
%TO.P,U2,2,A_B*%
X145565536Y-98433565D03*
%TO.P,U2,3,A_C*%
X145099536Y-101751565D03*
D19*
%TO.P,U2,4,A_D*%
X140514431Y-103752254D03*
D21*
%TO.P,U2,5,A_E*%
X138295326Y-103486943D03*
%TO.P,U2,6,A_F*%
X138761326Y-100168943D03*
D19*
%TO.P,U2,7,A_G*%
X140980431Y-100435254D03*
%TO.P,U2,8,K_A*%
%TO.N,/CS1*%
X143446431Y-97118254D03*
D20*
%TO.P,U2,9,K_B*%
%TO.N,/CS2*%
X145287190Y-100414101D03*
%TO.P,U2,10,K_C*%
%TO.N,/CS3*%
X144821190Y-103732101D03*
D19*
%TO.P,U2,11,K_D*%
%TO.N,/CS4*%
X142514431Y-103752254D03*
D21*
%TO.P,U2,12,K_E*%
%TO.N,/CS5*%
X138573672Y-101506407D03*
%TO.P,U2,13,K_F*%
%TO.N,/CS6*%
X139039672Y-98188407D03*
D19*
%TO.P,U2,14,K_G*%
%TO.N,/CS7*%
X142980431Y-100435254D03*
%TD*%
D18*
%TO.P,H3,1*%
%TO.N,N/C*%
X132000000Y-109000000D03*
%TD*%
D19*
%TO.P,U4,1,A_A*%
%TO.N,/SW1*%
X162946431Y-97118254D03*
D20*
%TO.P,U4,2,A_B*%
X167065536Y-98433565D03*
%TO.P,U4,3,A_C*%
X166599536Y-101751565D03*
D19*
%TO.P,U4,4,A_D*%
X162014431Y-103752254D03*
D21*
%TO.P,U4,5,A_E*%
X159795326Y-103486943D03*
%TO.P,U4,6,A_F*%
X160261326Y-100168943D03*
D19*
%TO.P,U4,7,A_G*%
X162480431Y-100435254D03*
%TO.P,U4,8,K_A*%
%TO.N,/CS1*%
X164946431Y-97118254D03*
D20*
%TO.P,U4,9,K_B*%
%TO.N,/CS2*%
X166787190Y-100414101D03*
%TO.P,U4,10,K_C*%
%TO.N,/CS3*%
X166321190Y-103732101D03*
D19*
%TO.P,U4,11,K_D*%
%TO.N,/CS4*%
X164014431Y-103752254D03*
D21*
%TO.P,U4,12,K_E*%
%TO.N,/CS5*%
X160073672Y-101506407D03*
%TO.P,U4,13,K_F*%
%TO.N,/CS6*%
X160539672Y-98188407D03*
D19*
%TO.P,U4,14,K_G*%
%TO.N,/CS7*%
X164480431Y-100435254D03*
%TD*%
D14*
%TO.P,D42,1,K*%
%TO.N,/CS5*%
X143000000Y-106462500D03*
%TO.P,D42,2,A*%
%TO.N,/SW5*%
X143000000Y-108037500D03*
%TD*%
D22*
%TO.P,C6,1*%
%TO.N,/LIGHT_IN*%
X152690000Y-89825000D03*
%TO.P,C6,2*%
%TO.N,GND*%
X151140000Y-89825000D03*
%TD*%
D14*
%TO.P,D41,1,K*%
%TO.N,/CS4*%
X144999999Y-106462500D03*
%TO.P,D41,2,A*%
%TO.N,/SW5*%
X144999999Y-108037500D03*
%TD*%
D23*
%TO.P,D36,1,K*%
%TO.N,/CS7*%
X148000000Y-100187500D03*
%TO.P,D36,2,A*%
%TO.N,/SW5*%
X148000000Y-98612500D03*
%TD*%
D18*
%TO.P,H2,1*%
%TO.N,N/C*%
X164000000Y-93000000D03*
%TD*%
D14*
%TO.P,D38,1,K*%
%TO.N,/CS1*%
X151000000Y-106462500D03*
%TO.P,D38,2,A*%
%TO.N,/SW5*%
X151000000Y-108037500D03*
%TD*%
D11*
%TO.P,SW1,1,1*%
%TO.N,/BU1*%
X129350000Y-96400000D03*
%TO.P,SW1,2,2*%
%TO.N,GND*%
X129350000Y-93600000D03*
D12*
%TO.P,SW1,SH1*%
%TO.N,N/C*%
X128000000Y-96825000D03*
%TO.P,SW1,SH2*%
X128000000Y-93175000D03*
D13*
%TO.P,SW1,SH3*%
X129500000Y-95000000D03*
%TD*%
D19*
%TO.P,U1,1,A_A*%
%TO.N,/SW4*%
X131946431Y-97118254D03*
D20*
%TO.P,U1,2,A_B*%
X136065536Y-98433565D03*
%TO.P,U1,3,A_C*%
X135599536Y-101751565D03*
D19*
%TO.P,U1,4,A_D*%
X131014431Y-103752254D03*
D21*
%TO.P,U1,5,A_E*%
X128795326Y-103486943D03*
%TO.P,U1,6,A_F*%
X129261326Y-100168943D03*
D19*
%TO.P,U1,7,A_G*%
X131480431Y-100435254D03*
%TO.P,U1,8,K_A*%
%TO.N,/CS1*%
X133946431Y-97118254D03*
D20*
%TO.P,U1,9,K_B*%
%TO.N,/CS2*%
X135787190Y-100414101D03*
%TO.P,U1,10,K_C*%
%TO.N,/CS3*%
X135321190Y-103732101D03*
D19*
%TO.P,U1,11,K_D*%
%TO.N,/CS4*%
X133014431Y-103752254D03*
D21*
%TO.P,U1,12,K_E*%
%TO.N,/CS5*%
X129073672Y-101506407D03*
%TO.P,U1,13,K_F*%
%TO.N,/CS6*%
X129539672Y-98188407D03*
D19*
%TO.P,U1,14,K_G*%
%TO.N,/CS7*%
X133480431Y-100435254D03*
%TD*%
D15*
%TO.P,TP4,1,1*%
%TO.N,VCC*%
X138575000Y-107325000D03*
%TD*%
D14*
%TO.P,D43,1,K*%
%TO.N,/CS6*%
X153005000Y-106447500D03*
%TO.P,D43,2,A*%
%TO.N,/SW5*%
X153005000Y-108022500D03*
%TD*%
D15*
%TO.P,TP1,1,1*%
%TO.N,/STAT1*%
X158625000Y-91525000D03*
%TD*%
D24*
%TO.N,GND*%
X132350203Y-98890503D03*
X166490000Y-107690000D03*
X166540000Y-106180000D03*
%TO.N,VCC*%
X168449692Y-108512772D03*
X168020000Y-95550000D03*
X134120000Y-106840000D03*
X129710000Y-91420000D03*
%TO.N,GND*%
X145270000Y-94940000D03*
X146870000Y-94910000D03*
%TO.N,VCC*%
X160470000Y-89840000D03*
X152200000Y-90930000D03*
X150151906Y-94198619D03*
X151550000Y-96480000D03*
X147166274Y-97989696D03*
%TO.N,GND*%
X137590000Y-94590000D03*
X136170000Y-93755000D03*
%TO.N,VCC*%
X138410000Y-94590000D03*
X140401283Y-97373153D03*
X138160000Y-96380000D03*
%TO.N,GND*%
X158080200Y-107663776D03*
X157312282Y-105910000D03*
X154454213Y-109145969D03*
X149190000Y-109270000D03*
X144920000Y-109450000D03*
X144930000Y-112180000D03*
%TO.N,/CS3*%
X146464500Y-103100000D03*
X146010501Y-106939499D03*
X138655000Y-105200516D03*
X158012109Y-108703776D03*
X157889083Y-104986080D03*
%TO.N,/CS2*%
X158550000Y-99700000D03*
X139254119Y-94065000D03*
X134670002Y-99110000D03*
X165850000Y-106950000D03*
X157950500Y-109480000D03*
X167950000Y-106050000D03*
X146836193Y-100736193D03*
X148006455Y-107143599D03*
X149260613Y-95385000D03*
%TO.N,/CS1*%
X148469379Y-95335000D03*
X156930000Y-97060000D03*
X151852805Y-105719630D03*
%TO.N,/SW1*%
X141263807Y-107436193D03*
%TO.N,/SW2*%
X152117789Y-106858294D03*
%TO.N,/SW3*%
X145121378Y-102706879D03*
%TO.N,/SW4*%
X142085500Y-106570445D03*
%TO.N,/SW5*%
X147191710Y-99414096D03*
X144000000Y-106571340D03*
X147252746Y-104016479D03*
%TO.N,GND*%
X130400000Y-112250000D03*
X150051632Y-89450000D03*
X155400000Y-108350000D03*
X161350000Y-108900000D03*
X137250000Y-110010000D03*
X129450000Y-104800000D03*
X132500000Y-111200000D03*
X127900000Y-94700000D03*
X156000000Y-105199998D03*
X133900000Y-91550000D03*
X136700000Y-108500000D03*
X155744808Y-89146344D03*
X128300000Y-98900000D03*
X159700000Y-108000000D03*
X129050142Y-92548069D03*
X133000000Y-90050000D03*
X162600000Y-110900000D03*
X153500000Y-105300000D03*
X137200000Y-106700000D03*
X136900000Y-91250000D03*
X142050000Y-91300000D03*
X135100000Y-110200000D03*
%TO.N,VCC*%
X149778977Y-90094719D03*
X140300000Y-107350000D03*
X150565000Y-90792987D03*
X134300000Y-92800000D03*
X135300000Y-94250000D03*
X134000000Y-95300000D03*
%TO.N,/CS5*%
X154000000Y-111700000D03*
X131925000Y-105775000D03*
X158785839Y-102185839D03*
X160000000Y-105810500D03*
X149264500Y-100704042D03*
X139775000Y-106037116D03*
X129070000Y-102520000D03*
X139641380Y-102854479D03*
X159830927Y-102467775D03*
%TO.N,/CS4*%
X152614500Y-95936075D03*
X154635130Y-95517666D03*
X156748971Y-104962623D03*
X159576301Y-105263217D03*
%TO.N,+BATT*%
X140050000Y-89190000D03*
X148060000Y-89049500D03*
D25*
%TO.N,+5V*%
X135838813Y-107566703D03*
X145950000Y-89615000D03*
X139650000Y-90700000D03*
X141700000Y-109845000D03*
D24*
%TO.N,/STAT2*%
X159606555Y-92432212D03*
%TO.N,/{slash}CE*%
X167025500Y-96000000D03*
X159480000Y-93110000D03*
%TO.N,/STAT1*%
X143950000Y-91000000D03*
%TO.N,/CS7*%
X133854189Y-99186046D03*
X166179122Y-95920878D03*
X148024618Y-100897062D03*
X155259133Y-93685000D03*
X138600000Y-93400000D03*
X165450000Y-99300000D03*
X153843216Y-101406074D03*
X154100000Y-99335000D03*
%TO.N,/CS6*%
X154878462Y-94794021D03*
X142900000Y-94800000D03*
X135025077Y-95675769D03*
X154882734Y-106222678D03*
X130914500Y-96150000D03*
X144100000Y-94800000D03*
X149445152Y-102212187D03*
X156200000Y-94800000D03*
%TO.N,/LIGHT_EN*%
X157155409Y-91555409D03*
X157021776Y-89775000D03*
X158610126Y-93410409D03*
%TO.N,/RTC_INT*%
X141200000Y-90975000D03*
X166900000Y-93250000D03*
%TO.N,/SDA*%
X145894946Y-92885932D03*
X132976900Y-96895943D03*
%TO.N,/SCL*%
X146582710Y-92837001D03*
X140099994Y-109050000D03*
X130578245Y-97300000D03*
X137311894Y-107740000D03*
%TO.N,/BU1*%
X165709769Y-102527402D03*
X128241116Y-95658884D03*
X167210000Y-110440000D03*
%TO.N,/BU2*%
X129465000Y-109450000D03*
%TO.N,/LED_EN*%
X163800056Y-98498699D03*
X157025000Y-94715000D03*
%TO.N,/RTC_CLK*%
X141140551Y-90287563D03*
X167025500Y-94945628D03*
%TO.N,/LIGHT_IN*%
X157923067Y-93344500D03*
X154655000Y-90455000D03*
X156610409Y-92040409D03*
%TD*%
D26*
%TO.N,VCC*%
X168650000Y-108312464D02*
X168449692Y-108512772D01*
X168020000Y-95550000D02*
X168650000Y-96180000D01*
X168650000Y-96180000D02*
X168650000Y-108312464D01*
D27*
%TO.N,/BU1*%
X167210000Y-106061680D02*
X167210000Y-110440000D01*
X167950000Y-105321680D02*
X167210000Y-106061680D01*
X167950000Y-103250000D02*
X167950000Y-105321680D01*
X167700000Y-103000000D02*
X167950000Y-103250000D01*
X166750000Y-103000000D02*
X167700000Y-103000000D01*
X166277402Y-102527402D02*
X166750000Y-103000000D01*
X165709769Y-102527402D02*
X166277402Y-102527402D01*
%TO.N,/CS5*%
X129073672Y-102516328D02*
X129070000Y-102520000D01*
X129073672Y-101506407D02*
X129073672Y-102516328D01*
%TO.N,/CS1*%
X155446431Y-97118254D02*
X156871746Y-97118254D01*
X156871746Y-97118254D02*
X156930000Y-97060000D01*
%TO.N,/LED_EN*%
X157834168Y-94715000D02*
X157025000Y-94715000D01*
X158659168Y-95540000D02*
X157834168Y-94715000D01*
X163540000Y-95540000D02*
X158659168Y-95540000D01*
X163923803Y-95923803D02*
X163540000Y-95540000D01*
X163923803Y-98374952D02*
X163923803Y-95923803D01*
X163800056Y-98498699D02*
X163923803Y-98374952D01*
D26*
%TO.N,/SW4*%
X131946431Y-97686431D02*
X133106863Y-98846863D01*
X131946431Y-97118254D02*
X131946431Y-97686431D01*
D27*
X132843665Y-99110061D02*
X133106863Y-98846863D01*
X133106863Y-98846863D02*
X133282680Y-98671046D01*
X134207204Y-98693947D02*
X134225927Y-98712670D01*
X133929763Y-98671046D02*
X134092705Y-98693947D01*
X133282680Y-98671046D02*
X133929763Y-98671046D01*
X134092705Y-98693947D02*
X134207204Y-98693947D01*
%TO.N,/CS7*%
X133480431Y-99559804D02*
X133854189Y-99186046D01*
X133480431Y-100435254D02*
X133480431Y-99559804D01*
%TO.N,/SW4*%
X135904101Y-98595000D02*
X136065536Y-98433565D01*
X134382080Y-98595000D02*
X135904101Y-98595000D01*
X134225927Y-98712670D02*
X134264410Y-98712670D01*
X134264410Y-98712670D02*
X134382080Y-98595000D01*
X132801758Y-99408242D02*
X132843665Y-99110061D01*
X131774746Y-100435254D02*
X132801758Y-99408242D01*
X131480431Y-100435254D02*
X131774746Y-100435254D01*
%TO.N,GND*%
X128489330Y-99089330D02*
X128300000Y-98900000D01*
X129688502Y-99089330D02*
X128489330Y-99089330D01*
X129886178Y-99287006D02*
X129688502Y-99089330D01*
X130651900Y-99287006D02*
X129886178Y-99287006D01*
X131626165Y-98890503D02*
X131198225Y-98830360D01*
X132350203Y-98890503D02*
X131626165Y-98890503D01*
X131108546Y-98830360D02*
X130651900Y-99287006D01*
X131198225Y-98830360D02*
X131108546Y-98830360D01*
%TO.N,+BATT*%
X148060000Y-89049500D02*
X147950500Y-88940000D01*
X147950500Y-88940000D02*
X140300000Y-88940000D01*
X140300000Y-88940000D02*
X140050000Y-89190000D01*
D28*
%TO.N,+5V*%
X139650000Y-90700000D02*
X140865000Y-89485000D01*
D27*
%TO.N,/STAT1*%
X146331709Y-90990000D02*
X148431709Y-93090000D01*
%TO.N,/RTC_INT*%
X165755000Y-90705000D02*
X160111705Y-90705000D01*
D28*
%TO.N,+5V*%
X140865000Y-89485000D02*
X145820000Y-89485000D01*
D27*
%TO.N,/RTC_CLK*%
X156175424Y-90845409D02*
X156115423Y-90845409D01*
%TO.N,/RTC_INT*%
X155755409Y-91686257D02*
X155755409Y-91996256D01*
D28*
%TO.N,+5V*%
X145820000Y-89485000D02*
X145950000Y-89615000D01*
D27*
%TO.N,/RTC_INT*%
X148572541Y-92750000D02*
X146472541Y-90650000D01*
%TO.N,/RTC_CLK*%
X165891241Y-90360409D02*
X160692054Y-90360409D01*
X167025500Y-94945628D02*
X167529372Y-94441756D01*
X160692054Y-90360409D02*
X160687463Y-90365000D01*
X167529372Y-94441756D02*
X167529372Y-91998540D01*
X167529372Y-91998540D02*
X165891241Y-90360409D01*
%TO.N,/RTC_INT*%
X160107113Y-90700409D02*
X156801256Y-90700409D01*
%TO.N,/RTC_CLK*%
X160687463Y-90365000D02*
X160252537Y-90365000D01*
%TO.N,GND*%
X141850000Y-91500000D02*
X137150000Y-91500000D01*
%TO.N,/RTC_CLK*%
X160252537Y-90365000D02*
X160247946Y-90360409D01*
%TO.N,/RTC_INT*%
X154904980Y-92830000D02*
X154475959Y-93259021D01*
%TO.N,/RTC_CLK*%
X160247946Y-90360409D02*
X156660424Y-90360409D01*
X156660424Y-90360409D02*
X156175424Y-90845409D01*
X156115423Y-90845409D02*
X155415409Y-91545424D01*
%TO.N,/RTC_INT*%
X154242642Y-93259021D02*
X153721664Y-93780000D01*
%TO.N,/RTC_CLK*%
X155415409Y-91545424D02*
X155415409Y-91605422D01*
X155415409Y-91605422D02*
X153580831Y-93440000D01*
X153580831Y-93440000D02*
X151097416Y-93440000D01*
X151097416Y-93440000D02*
X150067414Y-92410000D01*
X150067414Y-92410000D02*
X148713373Y-92410000D01*
%TO.N,/RTC_INT*%
X156801256Y-90700409D02*
X156316256Y-91185409D01*
%TO.N,/RTC_CLK*%
X148713373Y-92410000D02*
X146613373Y-90310000D01*
X146613373Y-90310000D02*
X145040832Y-90310000D01*
%TO.N,/STAT1*%
X150815751Y-94120001D02*
X153862498Y-94120000D01*
%TO.N,/RTC_CLK*%
X145040832Y-90310000D02*
X144640833Y-89910000D01*
X144640833Y-89910000D02*
X141518114Y-89910000D01*
X141518114Y-89910000D02*
X141140551Y-90287563D01*
%TO.N,/RTC_INT*%
X149926582Y-92750000D02*
X148572541Y-92750000D01*
X166900000Y-93250000D02*
X166900000Y-91850000D01*
X154475959Y-93259021D02*
X154242642Y-93259021D01*
X166900000Y-91850000D02*
X165755000Y-90705000D01*
X160111705Y-90705000D02*
X160107113Y-90700409D01*
X156316256Y-91185409D02*
X156256256Y-91185409D01*
X156256256Y-91185409D02*
X155755409Y-91686257D01*
X155755409Y-91996256D02*
X154921665Y-92830000D01*
X154921665Y-92830000D02*
X154904980Y-92830000D01*
X153721664Y-93780000D02*
X150956583Y-93780000D01*
X150956583Y-93780000D02*
X149926582Y-92750000D01*
X146472541Y-90650000D02*
X144899999Y-90650000D01*
X144899999Y-90650000D02*
X144500000Y-90250000D01*
%TO.N,/STAT1*%
X143950000Y-91000000D02*
X143960000Y-90990000D01*
%TO.N,/RTC_INT*%
X144500000Y-90250000D02*
X141925000Y-90250000D01*
%TO.N,/STAT1*%
X155045813Y-93170000D02*
X155062498Y-93170000D01*
%TO.N,/RTC_INT*%
X141925000Y-90250000D02*
X141200000Y-90975000D01*
%TO.N,/STAT1*%
X149785750Y-93090000D02*
X150815751Y-94120001D01*
%TO.N,GND*%
X142050000Y-91300000D02*
X141850000Y-91500000D01*
%TO.N,/STAT1*%
X143960000Y-90990000D02*
X146331709Y-90990000D01*
%TO.N,GND*%
X137150000Y-91500000D02*
X136900000Y-91250000D01*
%TO.N,/STAT1*%
X158140409Y-91040409D02*
X158625000Y-91525000D01*
X156942089Y-91040409D02*
X158140409Y-91040409D01*
X156457089Y-91525409D02*
X156942089Y-91040409D01*
X156397089Y-91525409D02*
X156457089Y-91525409D01*
X156095409Y-91827089D02*
X156397089Y-91525409D01*
X156095409Y-92137088D02*
X156095409Y-91827089D01*
X155062498Y-93170000D02*
X156095409Y-92137088D01*
X154616792Y-93599021D02*
X155045813Y-93170000D01*
X154383476Y-93599021D02*
X154616792Y-93599021D01*
X153862498Y-94120000D02*
X154383476Y-93599021D01*
X148431709Y-93090000D02*
X149785750Y-93090000D01*
D26*
%TO.N,GND*%
X166540000Y-106180000D02*
X166540000Y-107640000D01*
X166540000Y-107640000D02*
X166490000Y-107690000D01*
D27*
%TO.N,/LIGHT_IN*%
X151745000Y-88880000D02*
X152690000Y-89825000D01*
X149182500Y-88880000D02*
X151745000Y-88880000D01*
X148787500Y-89275000D02*
X149182500Y-88880000D01*
X148787500Y-89750000D02*
X148787500Y-89275000D01*
%TO.N,/CS5*%
X139641380Y-102854479D02*
X139641380Y-102574115D01*
X139641380Y-102574115D02*
X138573672Y-101506407D01*
%TO.N,GND*%
X150426632Y-89825000D02*
X151140000Y-89825000D01*
D26*
X158080200Y-106677918D02*
X157312282Y-105910000D01*
D27*
%TO.N,/SW1*%
X157729745Y-105555000D02*
X158545002Y-105555000D01*
X157529745Y-105355000D02*
X157729745Y-105555000D01*
X157082537Y-105355000D02*
X157529745Y-105355000D01*
X153697537Y-108740000D02*
X157082537Y-105355000D01*
X142543374Y-108740000D02*
X153697537Y-108740000D01*
X141263807Y-107460433D02*
X142543374Y-108740000D01*
X141263807Y-107436193D02*
X141263807Y-107460433D01*
X160347748Y-103752254D02*
X162014431Y-103752254D01*
%TO.N,/CS3*%
X157889083Y-104799994D02*
X157889083Y-104986080D01*
%TO.N,/CS4*%
X152718374Y-107150000D02*
X154806705Y-107150000D01*
X152368374Y-107500000D02*
X152718374Y-107150000D01*
X148543375Y-107335000D02*
X151868436Y-107335000D01*
X148180875Y-107697500D02*
X148543375Y-107335000D01*
%TO.N,/SW1*%
X158545002Y-105555000D02*
X160347748Y-103752254D01*
%TO.N,/CS4*%
X147819126Y-107697500D02*
X148180875Y-107697500D01*
X147456626Y-107335000D02*
X147819126Y-107697500D01*
X146343320Y-107335000D02*
X147456626Y-107335000D01*
X146223821Y-107454499D02*
X146343320Y-107335000D01*
X145797181Y-107454499D02*
X146223821Y-107454499D01*
X154806705Y-107150000D02*
X156748971Y-105207734D01*
X144999999Y-106657319D02*
X145797181Y-107454499D01*
X144999999Y-106462500D02*
X144999999Y-106657319D01*
X156311348Y-104525000D02*
X156748971Y-104962623D01*
%TO.N,/CS3*%
X156821190Y-103732101D02*
X157889083Y-104799994D01*
%TO.N,/CS4*%
X152033436Y-107500000D02*
X152368374Y-107500000D01*
X151868436Y-107335000D02*
X152033436Y-107500000D01*
X156748971Y-105207734D02*
X156748971Y-104962623D01*
X154514431Y-103752254D02*
X155287177Y-104525000D01*
X155287177Y-104525000D02*
X156311348Y-104525000D01*
D26*
%TO.N,GND*%
X158080200Y-107663776D02*
X158080200Y-106677918D01*
D27*
%TO.N,/CS2*%
X162050000Y-106950000D02*
X165850000Y-106950000D01*
X157950500Y-109480000D02*
X159520000Y-109480000D01*
%TO.N,/CS5*%
X157511224Y-108188776D02*
X154000000Y-111700000D01*
X158531224Y-108188776D02*
X157511224Y-108188776D01*
X160000000Y-106720000D02*
X158531224Y-108188776D01*
X160000000Y-105810500D02*
X160000000Y-106720000D01*
%TO.N,/CS3*%
X161850000Y-106600000D02*
X159746224Y-108703776D01*
X163453291Y-106600000D02*
X161850000Y-106600000D01*
%TO.N,/CS2*%
X159520000Y-109480000D02*
X162050000Y-106950000D01*
%TO.N,/CS3*%
X166321190Y-103732101D02*
X163453291Y-106600000D01*
X159746224Y-108703776D02*
X158012109Y-108703776D01*
%TO.N,/SW1*%
X166816043Y-98785000D02*
X167085105Y-98515938D01*
X164256774Y-98785000D02*
X166816043Y-98785000D01*
X162966000Y-98832373D02*
X163178627Y-99045000D01*
X164200936Y-98840838D02*
X164256774Y-98785000D01*
X163930004Y-99045000D02*
X164200936Y-98840838D01*
X163178627Y-99045000D02*
X163930004Y-99045000D01*
%TO.N,/CS5*%
X150066865Y-101506407D02*
X150573672Y-101506407D01*
X149264500Y-100704042D02*
X150066865Y-101506407D01*
%TO.N,GND*%
X137060000Y-110200000D02*
X137250000Y-110010000D01*
X135100000Y-110200000D02*
X137060000Y-110200000D01*
%TO.N,VCC*%
X151440000Y-96590000D02*
X151550000Y-96480000D01*
X148565970Y-96590000D02*
X151440000Y-96590000D01*
X147166274Y-97989696D02*
X148565970Y-96590000D01*
%TO.N,/CS1*%
X151742870Y-105719630D02*
X151852805Y-105719630D01*
%TO.N,/SW2*%
X152265000Y-106711083D02*
X152117789Y-106858294D01*
X152514431Y-105778943D02*
X152265000Y-106028374D01*
X152514431Y-103752254D02*
X152514431Y-105778943D01*
X152265000Y-106028374D02*
X152265000Y-106711083D01*
%TO.N,/CS1*%
X151000000Y-106462500D02*
X151742870Y-105719630D01*
%TO.N,/CS2*%
X134670002Y-99296913D02*
X134670002Y-99110000D01*
X135787190Y-100414101D02*
X134670002Y-99296913D01*
D26*
%TO.N,GND*%
X144920000Y-112170000D02*
X144930000Y-112180000D01*
X144920000Y-109450000D02*
X144920000Y-112170000D01*
D27*
%TO.N,/SDA*%
X145869014Y-92860000D02*
X145894946Y-92885932D01*
X137070000Y-92860000D02*
X145869014Y-92860000D01*
X136940000Y-92730000D02*
X137070000Y-92860000D01*
X132976900Y-95453932D02*
X135700832Y-92730000D01*
X135700832Y-92730000D02*
X136940000Y-92730000D01*
X132976900Y-96895943D02*
X132976900Y-95453932D01*
%TO.N,/LIGHT_EN*%
X157155409Y-91555409D02*
X158610126Y-93010126D01*
X158610126Y-93010126D02*
X158610126Y-93410409D01*
%TO.N,/LIGHT_IN*%
X157914500Y-93344500D02*
X156610409Y-92040409D01*
X157923067Y-93344500D02*
X157914500Y-93344500D01*
%TO.N,/CS7*%
X154524309Y-93939021D02*
X154774309Y-93939021D01*
X148847606Y-94243673D02*
X149558933Y-94955000D01*
X147907800Y-94243673D02*
X148847606Y-94243673D01*
X154003331Y-94460000D02*
X154524309Y-93939021D01*
X147369127Y-93705000D02*
X147907800Y-94243673D01*
X146504999Y-93704999D02*
X147369127Y-93705000D01*
X138750000Y-93550000D02*
X146350000Y-93550000D01*
X154774309Y-93939021D02*
X155028330Y-93685000D01*
X138600000Y-93400000D02*
X138750000Y-93550000D01*
X152240016Y-94460000D02*
X154003331Y-94460000D01*
X155028330Y-93685000D02*
X155259133Y-93685000D01*
%TO.N,/CS2*%
X145999169Y-93900000D02*
X139419119Y-93900000D01*
X146144169Y-94045000D02*
X145999169Y-93900000D01*
%TO.N,VCC*%
X135300000Y-93882537D02*
X135952537Y-93230000D01*
%TO.N,/CS2*%
X147228295Y-94045000D02*
X146144169Y-94045000D01*
X147766968Y-94583673D02*
X147228295Y-94045000D01*
X148459286Y-94583673D02*
X147766968Y-94583673D01*
%TO.N,/CS7*%
X149558933Y-94955000D02*
X151745015Y-94955000D01*
%TO.N,/CS2*%
X149260613Y-95385000D02*
X148459286Y-94583673D01*
%TO.N,VCC*%
X137050000Y-93230000D02*
X138410000Y-94590000D01*
X135952537Y-93230000D02*
X137050000Y-93230000D01*
%TO.N,/CS7*%
X146350000Y-93550000D02*
X146504999Y-93704999D01*
X151745015Y-94955000D02*
X152240016Y-94460000D01*
%TO.N,VCC*%
X135300000Y-94250000D02*
X135300000Y-93882537D01*
%TO.N,/CS2*%
X139419119Y-93900000D02*
X139254119Y-94065000D01*
D26*
%TO.N,GND*%
X136755000Y-93755000D02*
X137590000Y-94590000D01*
X136170000Y-93755000D02*
X136755000Y-93755000D01*
D27*
%TO.N,/CS1*%
X147087463Y-94385000D02*
X148037463Y-95335000D01*
X146003337Y-94385000D02*
X147087463Y-94385000D01*
X145858336Y-94240000D02*
X146003337Y-94385000D01*
X148037463Y-95335000D02*
X148469379Y-95335000D01*
X143400000Y-94240000D02*
X145858336Y-94240000D01*
X149775613Y-95598320D02*
X149473933Y-95900000D01*
X151582528Y-95598320D02*
X149775613Y-95598320D01*
X152380848Y-94800000D02*
X151582528Y-95598320D01*
X154144164Y-94800000D02*
X152380848Y-94800000D01*
X154665142Y-94279021D02*
X154144164Y-94800000D01*
X154915141Y-94279021D02*
X154665142Y-94279021D01*
X154994162Y-94200000D02*
X154915141Y-94279021D01*
X155400000Y-94200000D02*
X154994162Y-94200000D01*
X149473933Y-95900000D02*
X149034379Y-95900000D01*
X149034379Y-95900000D02*
X148469379Y-95335000D01*
%TO.N,/CS2*%
X166887708Y-100514619D02*
X166787190Y-100414101D01*
X168004999Y-100514619D02*
X166887708Y-100514619D01*
X168325000Y-100834620D02*
X168004999Y-100514619D01*
X168325000Y-105675000D02*
X168325000Y-100834620D01*
X167950000Y-106050000D02*
X168325000Y-105675000D01*
%TO.N,/CS6*%
X131063753Y-97542812D02*
X130418158Y-98188407D01*
X131093245Y-97332964D02*
X131063753Y-97542812D01*
X131093245Y-97086680D02*
X131093245Y-97332964D01*
X130914500Y-96150000D02*
X130914500Y-96907935D01*
%TO.N,/SCL*%
X130399500Y-97121255D02*
X130578245Y-97300000D01*
X137105808Y-92300000D02*
X135650000Y-92300000D01*
X137175811Y-92370000D02*
X137105808Y-92300000D01*
X146115709Y-92370000D02*
X137175811Y-92370000D01*
X135650000Y-92300000D02*
X132900000Y-95050000D01*
%TO.N,/CS6*%
X130418158Y-98188407D02*
X129539672Y-98188407D01*
%TO.N,/SCL*%
X132900000Y-95050000D02*
X131286180Y-95050000D01*
X130399500Y-95936680D02*
X130399500Y-97121255D01*
X131286180Y-95050000D02*
X130399500Y-95936680D01*
%TO.N,GND*%
X129350000Y-92847927D02*
X129050142Y-92548069D01*
%TO.N,/SCL*%
X146582710Y-92837001D02*
X146115709Y-92370000D01*
%TO.N,GND*%
X129350000Y-93600000D02*
X129350000Y-92847927D01*
%TO.N,/CS6*%
X130914500Y-96907935D02*
X131093245Y-97086680D01*
%TO.N,/LIGHT_EN*%
X151238249Y-93100000D02*
X153439998Y-93100000D01*
X150208246Y-92069999D02*
X151238249Y-93100000D01*
X147212500Y-89750000D02*
X149532500Y-92070000D01*
X156705000Y-89775000D02*
X157021776Y-89775000D01*
X155075409Y-91404591D02*
X156705000Y-89775000D01*
X153439998Y-93100000D02*
X155075409Y-91464589D01*
X155075409Y-91464589D02*
X155075409Y-91404591D01*
X149532500Y-92070000D02*
X150208246Y-92069999D01*
D26*
%TO.N,GND*%
X145300000Y-94910000D02*
X145270000Y-94940000D01*
X146870000Y-94910000D02*
X145300000Y-94910000D01*
D27*
%TO.N,/CS7*%
X157450000Y-93650000D02*
X155450000Y-93650000D01*
X157660000Y-93860000D02*
X157450000Y-93650000D01*
X157940832Y-93860000D02*
X157660000Y-93860000D01*
X158940832Y-94860000D02*
X157940832Y-93860000D01*
X165118244Y-94860000D02*
X158940832Y-94860000D01*
X166179122Y-95920878D02*
X165118244Y-94860000D01*
%TO.N,/CS1*%
X158800000Y-95200000D02*
X157800000Y-94200000D01*
X164350000Y-95200000D02*
X158800000Y-95200000D01*
X164946431Y-97118254D02*
X164946431Y-95796431D01*
X157800000Y-94200000D02*
X155400000Y-94200000D01*
X164946431Y-95796431D02*
X164350000Y-95200000D01*
%TO.N,/{slash}CE*%
X161065000Y-93135000D02*
X159505000Y-93135000D01*
X163150000Y-91050000D02*
X161065000Y-93135000D01*
X164900000Y-91050000D02*
X163150000Y-91050000D01*
X166050000Y-92200000D02*
X164900000Y-91050000D01*
X159505000Y-93135000D02*
X159480000Y-93110000D01*
X167025500Y-96000000D02*
X166050000Y-95024500D01*
X166050000Y-95024500D02*
X166050000Y-92200000D01*
%TO.N,VCC*%
X152065000Y-92325000D02*
X152370000Y-92630000D01*
X152200000Y-90930000D02*
X152065000Y-91065000D01*
X152065000Y-91065000D02*
X152065000Y-92325000D01*
X152370000Y-92630000D02*
X153290000Y-92630000D01*
X153290000Y-92630000D02*
X154490000Y-91430000D01*
X159880000Y-89250000D02*
X160470000Y-89840000D01*
X154490000Y-91430000D02*
X156670000Y-89250000D01*
X156670000Y-89250000D02*
X158260000Y-89250000D01*
X158260000Y-89250000D02*
X159880000Y-89250000D01*
%TO.N,/STAT2*%
X160117788Y-92432212D02*
X161025000Y-91525000D01*
X159606555Y-92432212D02*
X160117788Y-92432212D01*
%TO.N,/LIGHT_IN*%
X154025000Y-89825000D02*
X154655000Y-90455000D01*
X152690000Y-89825000D02*
X154025000Y-89825000D01*
%TO.N,/CS4*%
X153032909Y-95517666D02*
X154635130Y-95517666D01*
%TO.N,/CS6*%
X154630975Y-94794021D02*
X154878462Y-94794021D01*
X154284996Y-95140000D02*
X154630975Y-94794021D01*
X152100000Y-95855000D02*
X152100000Y-95561680D01*
%TO.N,/CS4*%
X152614500Y-95936075D02*
X153032909Y-95517666D01*
%TO.N,/CS6*%
X152100000Y-95561680D02*
X152521680Y-95140000D01*
X152521680Y-95140000D02*
X154284996Y-95140000D01*
X152004501Y-95950499D02*
X152100000Y-95855000D01*
X149614766Y-96240000D02*
X149904266Y-95950499D01*
X144100000Y-94800000D02*
X145540000Y-96240000D01*
X145540000Y-96240000D02*
X149614766Y-96240000D01*
X149904266Y-95950499D02*
X152004501Y-95950499D01*
%TO.N,/CS1*%
X134510077Y-96554608D02*
X133946431Y-97118254D01*
X134510077Y-95462449D02*
X134510077Y-96554608D01*
X139239231Y-95160769D02*
X134811757Y-95160769D01*
X140160000Y-94240000D02*
X139239231Y-95160769D01*
X143400000Y-94240000D02*
X140160000Y-94240000D01*
%TO.N,/CS6*%
X135113808Y-95764500D02*
X135025077Y-95675769D01*
X136615765Y-95764500D02*
X135113808Y-95764500D01*
%TO.N,/CS1*%
X134811757Y-95160769D02*
X134510077Y-95462449D01*
%TO.N,VCC*%
X139138498Y-97358498D02*
X138160000Y-96380000D01*
X140401283Y-97373153D02*
X139189606Y-97373153D01*
X139189606Y-97373153D02*
X139138498Y-97358498D01*
%TO.N,/CS4*%
X161485464Y-105346670D02*
X161402011Y-105263217D01*
X162420015Y-105346670D02*
X161485464Y-105346670D01*
X164014431Y-103752254D02*
X162420015Y-105346670D01*
X161402011Y-105263217D02*
X159576301Y-105263217D01*
%TO.N,/CS6*%
X154882734Y-106222678D02*
X154630056Y-105970000D01*
X154630056Y-105970000D02*
X153482500Y-105970000D01*
X153482500Y-105970000D02*
X153005000Y-106447500D01*
%TO.N,GND*%
X155250182Y-108350000D02*
X154454213Y-109145969D01*
X155400000Y-108350000D02*
X155250182Y-108350000D01*
D26*
X154330182Y-109270000D02*
X154454213Y-109145969D01*
X149190000Y-109270000D02*
X154330182Y-109270000D01*
D27*
%TO.N,/CS3*%
X147000000Y-106462500D02*
X146487500Y-106462500D01*
X144821190Y-103732101D02*
X147000000Y-105910911D01*
X145453291Y-103100000D02*
X144821190Y-103732101D01*
X146464500Y-103100000D02*
X145453291Y-103100000D01*
X138098250Y-105200516D02*
X138655000Y-105200516D01*
X136629835Y-103732101D02*
X138098250Y-105200516D01*
X146487500Y-106462500D02*
X146010501Y-106939499D01*
X135321190Y-103732101D02*
X136629835Y-103732101D01*
X147000000Y-105910911D02*
X147000000Y-106462500D01*
%TO.N,/CS2*%
X157287190Y-100414101D02*
X158001291Y-99700000D01*
X148662500Y-106462500D02*
X149000001Y-106462500D01*
X146979500Y-103320500D02*
X146737746Y-103562254D01*
X149000001Y-106462500D02*
X148687554Y-106462500D01*
X146737746Y-103562254D02*
X146737746Y-104537746D01*
X146979500Y-100879500D02*
X146979500Y-103320500D01*
X146836193Y-100736193D02*
X145609282Y-100736193D01*
X148687554Y-106462500D02*
X148006455Y-107143599D01*
X158001291Y-99700000D02*
X158550000Y-99700000D01*
X146836193Y-100736193D02*
X146979500Y-100879500D01*
X146737746Y-104537746D02*
X148662500Y-106462500D01*
X145609282Y-100736193D02*
X145287190Y-100414101D01*
%TO.N,/CS1*%
X155446431Y-94246431D02*
X155400000Y-94200000D01*
X155446431Y-97118254D02*
X155446431Y-94246431D01*
X143446431Y-94286431D02*
X143400000Y-94240000D01*
X143446431Y-97118254D02*
X143446431Y-94286431D01*
%TO.N,/SW1*%
X162966000Y-98832373D02*
X162966000Y-100051627D01*
X162500000Y-103368627D02*
X162034000Y-103834627D01*
X162966000Y-97200627D02*
X162966000Y-98832373D01*
X160547206Y-100517627D02*
X160280895Y-100251316D01*
X162500000Y-100517627D02*
X160547206Y-100517627D01*
X165426478Y-102082373D02*
X165674913Y-101833938D01*
X162500000Y-100517627D02*
X162500000Y-102082373D01*
X165674913Y-101833938D02*
X166619105Y-101833938D01*
X162034000Y-103834627D02*
X160080206Y-103834627D01*
X160080206Y-103834627D02*
X159814895Y-103569316D01*
X162500000Y-102082373D02*
X162500000Y-103368627D01*
X162966000Y-100051627D02*
X162500000Y-100517627D01*
X162500000Y-102082373D02*
X165426478Y-102082373D01*
%TO.N,/SW2*%
X153478373Y-98820000D02*
X157281043Y-98820000D01*
X150580206Y-103834627D02*
X150314895Y-103569316D01*
X151047206Y-100517627D02*
X150780895Y-100251316D01*
X156869552Y-102083491D02*
X157119105Y-101833938D01*
X153466000Y-98832373D02*
X153478373Y-98820000D01*
X153000000Y-102082373D02*
X153001118Y-102083491D01*
X153466000Y-98832373D02*
X153466000Y-100051627D01*
X153000000Y-103368627D02*
X152534000Y-103834627D01*
X157281043Y-98820000D02*
X157585105Y-98515938D01*
X153001118Y-102083491D02*
X156869552Y-102083491D01*
X153466000Y-97200627D02*
X153466000Y-98832373D01*
X152534000Y-103834627D02*
X150580206Y-103834627D01*
X153000000Y-102082373D02*
X153000000Y-103368627D01*
X153000000Y-100517627D02*
X151047206Y-100517627D01*
X153000000Y-100517627D02*
X153000000Y-102082373D01*
X153466000Y-100051627D02*
X153000000Y-100517627D01*
%TO.N,/SW3*%
X141500000Y-98780746D02*
X141500000Y-100000000D01*
X141034000Y-100466000D02*
X139081206Y-100466000D01*
X139081206Y-100466000D02*
X138814895Y-100199689D01*
X145302670Y-98780746D02*
X145619105Y-98464311D01*
X141035118Y-102031864D02*
X144903552Y-102031864D01*
X141034000Y-102030746D02*
X141035118Y-102031864D01*
X144903552Y-102031864D02*
X145153105Y-101782311D01*
X141500000Y-100000000D02*
X141034000Y-100466000D01*
X141034000Y-103317000D02*
X140568000Y-103783000D01*
X141034000Y-102030746D02*
X141034000Y-103317000D01*
X140568000Y-103783000D02*
X138614206Y-103783000D01*
X141500000Y-97149000D02*
X141500000Y-98780746D01*
X141500000Y-98780746D02*
X145302670Y-98780746D01*
X141034000Y-100466000D02*
X141034000Y-102030746D01*
X145099536Y-102685037D02*
X145121378Y-102706879D01*
X138614206Y-103783000D02*
X138348895Y-103517689D01*
X145099536Y-101751565D02*
X145099536Y-102685037D01*
%TO.N,/SW4*%
X131014431Y-103752254D02*
X129060637Y-103752254D01*
X131480431Y-102000000D02*
X131480431Y-103286254D01*
X129527637Y-100435254D02*
X129261326Y-100168943D01*
X135349983Y-102001118D02*
X135599536Y-101751565D01*
X131480431Y-102000000D02*
X131481549Y-102001118D01*
X131014431Y-103752254D02*
X131014431Y-105592751D01*
X129060637Y-103752254D02*
X128795326Y-103486943D01*
X131014431Y-105592751D02*
X131973796Y-106552116D01*
X137417463Y-106125000D02*
X137844579Y-106552116D01*
X131481549Y-102001118D02*
X135349983Y-102001118D01*
X131973796Y-106552116D02*
X132413320Y-106552116D01*
X142067171Y-106552116D02*
X142085500Y-106570445D01*
X137844579Y-106552116D02*
X142067171Y-106552116D01*
X131480431Y-100435254D02*
X131480431Y-102000000D01*
X131480431Y-100435254D02*
X129527637Y-100435254D01*
X132840436Y-106125000D02*
X137417463Y-106125000D01*
X131480431Y-103286254D02*
X131014431Y-103752254D01*
X132413320Y-106552116D02*
X132840436Y-106125000D01*
%TO.N,/SW5*%
X144000000Y-108037500D02*
X152990000Y-108037500D01*
X152990000Y-108037500D02*
X153005000Y-108022500D01*
X147993306Y-98612500D02*
X147191710Y-99414096D01*
X143000000Y-108037500D02*
X144000000Y-108037500D01*
X148000000Y-98612500D02*
X147993306Y-98612500D01*
X147881725Y-103387500D02*
X148000000Y-103387500D01*
X144000000Y-106571340D02*
X144000000Y-108037500D01*
X147252746Y-104016479D02*
X147881725Y-103387500D01*
%TO.N,GND*%
X151090000Y-91805000D02*
X151090000Y-89875000D01*
X129350000Y-104900000D02*
X129450000Y-104800000D01*
X133900000Y-91550000D02*
X133000000Y-90650000D01*
X153528118Y-105328118D02*
X155871880Y-105328118D01*
X136700000Y-107200000D02*
X136700000Y-108500000D01*
X155871880Y-105328118D02*
X156000000Y-105199998D01*
X150426632Y-89825000D02*
X150051632Y-89450000D01*
X137200000Y-106700000D02*
X136700000Y-107200000D01*
X153500000Y-105300000D02*
X153528118Y-105328118D01*
X131450000Y-111200000D02*
X132500000Y-111200000D01*
X130400000Y-112250000D02*
X131450000Y-111200000D01*
X155800000Y-108350000D02*
X155400000Y-108350000D01*
X161350000Y-109650000D02*
X162600000Y-110900000D01*
X129350000Y-105600000D02*
X129350000Y-104900000D01*
X133000000Y-90650000D02*
X133000000Y-90050000D01*
X156625000Y-107525000D02*
X155800000Y-108350000D01*
X161350000Y-108900000D02*
X161350000Y-109650000D01*
%TO.N,VCC*%
X134000000Y-95300000D02*
X135050000Y-94250000D01*
X150565000Y-90792987D02*
X150477245Y-90792987D01*
X135050000Y-94250000D02*
X135300000Y-94250000D01*
X150477245Y-90792987D02*
X149778977Y-90094719D01*
%TO.N,/CS5*%
X137558295Y-105785000D02*
X131935000Y-105785000D01*
X142592945Y-106055445D02*
X137828740Y-106055445D01*
X159830927Y-101749152D02*
X160073672Y-101506407D01*
X159394240Y-102185839D02*
X158785839Y-102185839D01*
X137828740Y-106055445D02*
X137558295Y-105785000D01*
X160073672Y-101506407D02*
X159394240Y-102185839D01*
X143000000Y-106462500D02*
X142592945Y-106055445D01*
X159830927Y-102467775D02*
X159830927Y-101749152D01*
X131935000Y-105785000D02*
X131925000Y-105775000D01*
%TO.N,/CS4*%
X137969572Y-105715445D02*
X138883014Y-105715445D01*
X144999999Y-106462500D02*
X144999999Y-106237822D01*
X134707177Y-105445000D02*
X137699128Y-105445000D01*
X138883014Y-105715445D02*
X139263459Y-105335000D01*
X139263459Y-105335000D02*
X140931685Y-105335000D01*
X144999999Y-106237822D02*
X142514431Y-103752254D01*
X140931685Y-105335000D02*
X142514431Y-103752254D01*
X137699128Y-105445000D02*
X137969572Y-105715445D01*
X133014431Y-103752254D02*
X134707177Y-105445000D01*
D28*
%TO.N,+5V*%
X137800000Y-109650000D02*
X137250000Y-109100000D01*
X137250000Y-109100000D02*
X136451471Y-109100000D01*
X141700000Y-109845000D02*
X141505000Y-109650000D01*
X136451471Y-109100000D02*
X135838813Y-108487342D01*
X141505000Y-109650000D02*
X137800000Y-109650000D01*
X135838813Y-108487342D02*
X135838813Y-107566703D01*
D27*
%TO.N,/CS7*%
X148000000Y-100187500D02*
X148000000Y-100872444D01*
X146800000Y-99750000D02*
X147237500Y-100187500D01*
X147237500Y-100187500D02*
X148000000Y-100187500D01*
X154100000Y-99554823D02*
X154100000Y-99335000D01*
X148000000Y-100872444D02*
X148024618Y-100897062D01*
X144115685Y-99300000D02*
X145550000Y-99300000D01*
X153843216Y-101406074D02*
X154009611Y-101406074D01*
X165450000Y-99465685D02*
X165450000Y-99300000D01*
X146000000Y-99750000D02*
X146800000Y-99750000D01*
X164480431Y-100435254D02*
X165450000Y-99465685D01*
X142980431Y-100435254D02*
X144115685Y-99300000D01*
X145550000Y-99300000D02*
X146000000Y-99750000D01*
X154980431Y-100435254D02*
X154100000Y-99554823D01*
X154009611Y-101406074D02*
X154980431Y-100435254D01*
%TO.N,/CS6*%
X149731027Y-98188407D02*
X148750000Y-99169434D01*
X139535500Y-95764500D02*
X140500000Y-94800000D01*
X148750000Y-99169434D02*
X148750000Y-100900000D01*
X151039672Y-98188407D02*
X149731027Y-98188407D01*
X152100000Y-97128079D02*
X151039672Y-98188407D01*
X156200000Y-94800000D02*
X159588407Y-98188407D01*
X149445152Y-102212187D02*
X149045465Y-101812500D01*
X148000000Y-101650000D02*
X148000000Y-101812500D01*
X152100000Y-97128079D02*
X152100000Y-95855000D01*
X136615765Y-95764500D02*
X139039672Y-98188407D01*
X140500000Y-94800000D02*
X142900000Y-94800000D01*
X148750000Y-100900000D02*
X148000000Y-101650000D01*
X149045465Y-101812500D02*
X148000000Y-101812500D01*
X136615765Y-95764500D02*
X139535500Y-95764500D01*
X159588407Y-98188407D02*
X160539672Y-98188407D01*
%TO.N,/SCL*%
X137311894Y-107740000D02*
X138621894Y-109050000D01*
X138621894Y-109050000D02*
X140099994Y-109050000D01*
%TO.N,/BU1*%
X129350000Y-96400000D02*
X128982232Y-96400000D01*
X128982232Y-96400000D02*
X128241116Y-95658884D01*
%TO.N,/BU2*%
X129350000Y-108400000D02*
X129350000Y-109335000D01*
X129350000Y-109335000D02*
X129465000Y-109450000D01*
%TO.N,/LIGHT_IN*%
X152740000Y-91805000D02*
X152740000Y-89875000D01*
%TD*%
%TA.AperFunction,Conductor*%
%TO.N,VCC*%
G36*
X130124331Y-104329685D02*
G01*
X130159204Y-104366375D01*
X130164645Y-104406236D01*
X130125733Y-104683106D01*
X130123879Y-104740040D01*
X130153368Y-104873556D01*
X130153369Y-104873558D01*
X130219276Y-104993354D01*
X130316269Y-105089733D01*
X130316270Y-105089735D01*
X130427025Y-105149756D01*
X130436484Y-105154882D01*
X130491715Y-105168792D01*
X130675229Y-105194582D01*
X130719922Y-105218346D01*
X130738885Y-105265279D01*
X130738930Y-105267862D01*
X130738930Y-105558330D01*
X130737509Y-105572764D01*
X130734783Y-105586473D01*
X130733534Y-105592751D01*
X130738931Y-105619883D01*
X130738931Y-105619884D01*
X130748332Y-105667145D01*
X130754916Y-105700246D01*
X130774342Y-105729319D01*
X130798062Y-105764819D01*
X130815806Y-105791374D01*
X130815809Y-105791377D01*
X130832745Y-105802693D01*
X130843960Y-105811896D01*
X131754649Y-106722585D01*
X131763851Y-106733798D01*
X131775171Y-106750739D01*
X131775172Y-106750740D01*
X131795151Y-106764090D01*
X131795152Y-106764090D01*
X131798172Y-106766108D01*
X131798174Y-106766110D01*
X131824330Y-106783587D01*
X131866301Y-106811631D01*
X131946663Y-106827616D01*
X131946664Y-106827616D01*
X131973795Y-106833013D01*
X131973796Y-106833013D01*
X131993779Y-106829037D01*
X132008216Y-106827616D01*
X132378900Y-106827616D01*
X132393336Y-106829037D01*
X132413320Y-106833013D01*
X132413321Y-106833013D01*
X132417942Y-106832093D01*
X132440452Y-106827616D01*
X132440453Y-106827616D01*
X132520815Y-106811631D01*
X132562785Y-106783587D01*
X132588942Y-106766110D01*
X132588942Y-106766109D01*
X132596956Y-106760755D01*
X132596958Y-106760752D01*
X132611944Y-106750740D01*
X132623264Y-106733797D01*
X132632461Y-106722590D01*
X132932877Y-106422174D01*
X132978755Y-106400782D01*
X132985204Y-106400500D01*
X136726375Y-106400500D01*
X136773941Y-106417813D01*
X136799251Y-106461650D01*
X136793688Y-106505241D01*
X136763302Y-106571776D01*
X136745859Y-106693099D01*
X136744867Y-106700000D01*
X136747742Y-106720000D01*
X136747831Y-106720615D01*
X136737463Y-106770161D01*
X136726910Y-106783472D01*
X136529529Y-106980853D01*
X136518319Y-106990053D01*
X136501377Y-107001374D01*
X136501375Y-107001376D01*
X136486005Y-107024379D01*
X136472917Y-107043967D01*
X136440484Y-107092505D01*
X136436209Y-107114003D01*
X136436209Y-107114004D01*
X136430144Y-107144497D01*
X136429400Y-107148235D01*
X136403140Y-107191509D01*
X136355207Y-107207779D01*
X136308030Y-107189433D01*
X136298114Y-107178845D01*
X136267097Y-107138423D01*
X136267092Y-107138418D01*
X136141654Y-107042167D01*
X135995574Y-106981658D01*
X135859450Y-106963737D01*
X135838813Y-106961021D01*
X135838812Y-106961021D01*
X135682052Y-106981658D01*
X135682051Y-106981658D01*
X135535971Y-107042167D01*
X135410533Y-107138418D01*
X135410528Y-107138423D01*
X135314277Y-107263861D01*
X135253768Y-107409941D01*
X135253768Y-107409942D01*
X135233618Y-107563004D01*
X135233131Y-107566703D01*
X135235671Y-107585995D01*
X135253768Y-107723463D01*
X135253768Y-107723464D01*
X135314277Y-107869544D01*
X135410528Y-107994982D01*
X135410529Y-107994983D01*
X135410531Y-107994985D01*
X135459360Y-108032453D01*
X135486559Y-108075143D01*
X135488313Y-108091161D01*
X135488313Y-108443316D01*
X135486738Y-108458501D01*
X135483770Y-108472653D01*
X135483770Y-108472657D01*
X135487178Y-108499999D01*
X135488029Y-108506821D01*
X135488313Y-108511402D01*
X135488313Y-108516389D01*
X135491900Y-108537882D01*
X135495086Y-108563441D01*
X135498240Y-108588735D01*
X135498242Y-108588739D01*
X135499989Y-108594607D01*
X135499647Y-108594708D01*
X135500393Y-108597037D01*
X135500729Y-108596922D01*
X135502720Y-108602722D01*
X135527108Y-108647787D01*
X135549614Y-108693825D01*
X135553179Y-108698818D01*
X135552888Y-108699025D01*
X135554346Y-108700981D01*
X135554629Y-108700762D01*
X135558394Y-108705600D01*
X135571738Y-108717883D01*
X135596088Y-108740299D01*
X135888602Y-109032813D01*
X136172501Y-109316712D01*
X136182123Y-109328561D01*
X136190034Y-109340669D01*
X136217202Y-109361814D01*
X136220637Y-109364848D01*
X136224164Y-109368375D01*
X136241905Y-109381041D01*
X136282345Y-109412517D01*
X136282349Y-109412518D01*
X136287735Y-109415433D01*
X136287564Y-109415748D01*
X136289741Y-109416869D01*
X136289899Y-109416547D01*
X136295402Y-109419237D01*
X136295405Y-109419239D01*
X136344504Y-109433856D01*
X136392983Y-109450500D01*
X136392985Y-109450500D01*
X136399033Y-109451510D01*
X136398974Y-109451861D01*
X136401387Y-109452213D01*
X136401432Y-109451858D01*
X136407510Y-109452615D01*
X136407517Y-109452617D01*
X136458702Y-109450500D01*
X137041762Y-109450500D01*
X137089328Y-109467813D01*
X137114638Y-109511650D01*
X137105848Y-109561500D01*
X137067071Y-109594037D01*
X137062610Y-109595503D01*
X137060931Y-109595995D01*
X136951954Y-109666031D01*
X136951950Y-109666034D01*
X136867119Y-109763935D01*
X136867118Y-109763936D01*
X136867118Y-109763937D01*
X136813545Y-109881242D01*
X136778039Y-109917317D01*
X136746234Y-109924500D01*
X135491170Y-109924500D01*
X135443604Y-109907187D01*
X135435244Y-109898959D01*
X135398052Y-109856036D01*
X135398050Y-109856035D01*
X135398049Y-109856033D01*
X135315025Y-109802677D01*
X135289068Y-109785995D01*
X135164772Y-109749500D01*
X135035228Y-109749500D01*
X134910931Y-109785995D01*
X134801954Y-109856031D01*
X134801950Y-109856034D01*
X134717119Y-109953935D01*
X134663302Y-110071776D01*
X134644867Y-110200000D01*
X134663302Y-110328223D01*
X134663302Y-110328224D01*
X134663303Y-110328226D01*
X134717118Y-110446063D01*
X134801951Y-110543967D01*
X134910931Y-110614004D01*
X135035228Y-110650500D01*
X135164772Y-110650500D01*
X135289069Y-110614004D01*
X135398049Y-110543967D01*
X135435243Y-110501041D01*
X135479477Y-110476430D01*
X135491170Y-110475500D01*
X137025580Y-110475500D01*
X137040016Y-110476921D01*
X137060000Y-110480897D01*
X137060001Y-110480897D01*
X137064622Y-110479977D01*
X137087132Y-110475500D01*
X137087133Y-110475500D01*
X137159637Y-110461077D01*
X137179936Y-110460534D01*
X137179936Y-110460500D01*
X137181244Y-110460500D01*
X137184609Y-110460410D01*
X137185221Y-110460498D01*
X137185228Y-110460500D01*
X137185235Y-110460500D01*
X137314772Y-110460500D01*
X137439069Y-110424004D01*
X137548049Y-110353967D01*
X137632882Y-110256063D01*
X137686697Y-110138226D01*
X137697145Y-110065553D01*
X137721051Y-110020937D01*
X137767333Y-110002150D01*
X137805717Y-110000562D01*
X137807232Y-110000500D01*
X141064988Y-110000500D01*
X141112554Y-110017813D01*
X141133355Y-110046181D01*
X141175464Y-110147841D01*
X141271715Y-110273279D01*
X141271720Y-110273284D01*
X141278582Y-110278549D01*
X141397159Y-110369536D01*
X141543238Y-110430044D01*
X141700000Y-110450682D01*
X141856762Y-110430044D01*
X142002841Y-110369536D01*
X142128282Y-110273282D01*
X142224536Y-110147841D01*
X142285044Y-110001762D01*
X142305682Y-109845000D01*
X142285044Y-109688238D01*
X142224536Y-109542159D01*
X142184464Y-109489936D01*
X142128284Y-109416720D01*
X142128279Y-109416715D01*
X142002841Y-109320464D01*
X141856761Y-109259955D01*
X141700000Y-109239318D01*
X141543238Y-109259955D01*
X141461369Y-109293867D01*
X141433051Y-109299500D01*
X140596453Y-109299500D01*
X140548887Y-109282187D01*
X140523577Y-109238350D01*
X140529139Y-109194760D01*
X140536691Y-109178226D01*
X140555127Y-109050000D01*
X140536691Y-108921774D01*
X140482876Y-108803937D01*
X140398043Y-108706033D01*
X140331026Y-108662964D01*
X140289062Y-108635995D01*
X140164766Y-108599500D01*
X140035222Y-108599500D01*
X139910925Y-108635995D01*
X139801948Y-108706031D01*
X139801941Y-108706036D01*
X139764750Y-108748959D01*
X139720517Y-108773570D01*
X139708824Y-108774500D01*
X138766662Y-108774500D01*
X138719096Y-108757187D01*
X138714336Y-108752826D01*
X138406600Y-108445090D01*
X138385208Y-108399214D01*
X138398309Y-108350319D01*
X138439773Y-108321285D01*
X138466180Y-108319120D01*
X138575000Y-108329838D01*
X138771035Y-108310530D01*
X138959539Y-108253348D01*
X139133252Y-108160496D01*
X139133261Y-108160490D01*
X139169014Y-108131147D01*
X139169015Y-108131147D01*
X138415194Y-107377326D01*
X138393802Y-107331450D01*
X138406903Y-107282555D01*
X138415194Y-107272674D01*
X138522674Y-107165194D01*
X138568550Y-107143802D01*
X138617445Y-107156903D01*
X138627326Y-107165194D01*
X139381147Y-107919015D01*
X139381147Y-107919014D01*
X139410490Y-107883261D01*
X139410496Y-107883252D01*
X139503348Y-107709539D01*
X139560530Y-107521035D01*
X139579838Y-107324999D01*
X139560530Y-107128964D01*
X139503348Y-106940462D01*
X139501232Y-106936503D01*
X139494075Y-106886392D01*
X139520803Y-106843405D01*
X139566492Y-106827616D01*
X141678448Y-106827616D01*
X141726014Y-106844929D01*
X141734374Y-106853157D01*
X141787447Y-106914408D01*
X141787448Y-106914409D01*
X141787451Y-106914412D01*
X141896431Y-106984449D01*
X142020728Y-107020945D01*
X142150272Y-107020945D01*
X142274569Y-106984449D01*
X142333659Y-106946473D01*
X142383034Y-106935322D01*
X142425992Y-106956401D01*
X142494250Y-107024659D01*
X142552038Y-107054103D01*
X142612579Y-107084950D01*
X142612579Y-107084951D01*
X142710753Y-107100500D01*
X142710754Y-107100500D01*
X143289247Y-107100500D01*
X143387420Y-107084951D01*
X143505751Y-107024658D01*
X143598173Y-106932234D01*
X143644050Y-106910843D01*
X143692945Y-106923944D01*
X143721979Y-106965408D01*
X143724500Y-106984561D01*
X143724500Y-107515438D01*
X143707187Y-107563004D01*
X143663350Y-107588314D01*
X143613500Y-107579524D01*
X143598174Y-107567764D01*
X143505750Y-107475341D01*
X143505749Y-107475340D01*
X143387420Y-107415049D01*
X143387420Y-107415048D01*
X143289247Y-107399500D01*
X143289246Y-107399500D01*
X142710754Y-107399500D01*
X142710753Y-107399500D01*
X142612579Y-107415048D01*
X142612579Y-107415049D01*
X142494250Y-107475340D01*
X142400340Y-107569250D01*
X142340049Y-107687579D01*
X142340048Y-107687579D01*
X142324500Y-107785753D01*
X142324500Y-107952858D01*
X142307187Y-108000424D01*
X142263350Y-108025734D01*
X142213500Y-108016944D01*
X142198174Y-108005184D01*
X141733849Y-107540859D01*
X141712457Y-107494983D01*
X141712927Y-107478008D01*
X141718940Y-107436193D01*
X141700504Y-107307967D01*
X141646689Y-107190130D01*
X141561856Y-107092226D01*
X141483994Y-107042187D01*
X141452875Y-107022188D01*
X141328579Y-106985693D01*
X141199035Y-106985693D01*
X141074738Y-107022188D01*
X140965761Y-107092224D01*
X140965757Y-107092227D01*
X140880926Y-107190128D01*
X140880925Y-107190129D01*
X140880925Y-107190130D01*
X140872865Y-107207779D01*
X140827109Y-107307969D01*
X140810546Y-107423174D01*
X140808674Y-107436193D01*
X140812146Y-107460342D01*
X140827109Y-107564416D01*
X140827109Y-107564417D01*
X140827110Y-107564419D01*
X140880925Y-107682256D01*
X140965758Y-107780160D01*
X141074738Y-107850197D01*
X141199035Y-107886693D01*
X141269799Y-107886693D01*
X141317365Y-107904006D01*
X141322125Y-107908367D01*
X142324228Y-108910470D01*
X142333430Y-108921683D01*
X142344750Y-108938624D01*
X142366355Y-108953060D01*
X142366363Y-108953066D01*
X142367752Y-108953994D01*
X142384775Y-108965368D01*
X142435879Y-108999515D01*
X142516241Y-109015500D01*
X142516242Y-109015500D01*
X142543373Y-109020897D01*
X142543374Y-109020897D01*
X142563357Y-109016921D01*
X142577794Y-109015500D01*
X144538361Y-109015500D01*
X144585927Y-109032813D01*
X144611237Y-109076650D01*
X144602447Y-109126500D01*
X144594289Y-109137956D01*
X144571681Y-109164047D01*
X144537119Y-109203935D01*
X144483302Y-109321776D01*
X144464867Y-109449999D01*
X144483302Y-109578223D01*
X144483302Y-109578224D01*
X144483303Y-109578226D01*
X144537118Y-109696063D01*
X144621951Y-109793967D01*
X144635505Y-109802677D01*
X144666162Y-109842956D01*
X144669500Y-109864931D01*
X144669500Y-111771494D01*
X144652187Y-111819060D01*
X144635509Y-111833746D01*
X144631953Y-111836031D01*
X144547119Y-111933935D01*
X144493302Y-112051776D01*
X144474867Y-112180000D01*
X144493302Y-112308223D01*
X144493302Y-112308224D01*
X144493303Y-112308226D01*
X144547118Y-112426063D01*
X144631951Y-112523967D01*
X144740931Y-112594004D01*
X144865228Y-112630500D01*
X144994772Y-112630500D01*
X145119069Y-112594004D01*
X145228049Y-112523967D01*
X145312882Y-112426063D01*
X145366697Y-112308226D01*
X145385133Y-112180000D01*
X145366697Y-112051774D01*
X145312882Y-111933937D01*
X145228049Y-111836033D01*
X145227991Y-111835996D01*
X145204491Y-111820893D01*
X145173837Y-111780612D01*
X145170500Y-111758641D01*
X145170500Y-109864931D01*
X145187813Y-109817365D01*
X145204493Y-109802678D01*
X145218049Y-109793967D01*
X145302882Y-109696063D01*
X145356697Y-109578226D01*
X145375133Y-109450000D01*
X145356697Y-109321774D01*
X145302882Y-109203937D01*
X145245712Y-109137959D01*
X145227648Y-109090674D01*
X145244204Y-109042839D01*
X145287635Y-109016837D01*
X145301639Y-109015500D01*
X148695824Y-109015500D01*
X148743390Y-109032813D01*
X148768700Y-109076650D01*
X148763137Y-109120240D01*
X148753302Y-109141774D01*
X148735162Y-109267945D01*
X148734867Y-109270000D01*
X148736619Y-109282187D01*
X148753302Y-109398223D01*
X148753302Y-109398224D01*
X148753303Y-109398226D01*
X148807118Y-109516063D01*
X148891951Y-109613967D01*
X149000931Y-109684004D01*
X149125228Y-109720500D01*
X149254772Y-109720500D01*
X149379069Y-109684004D01*
X149488049Y-109613967D01*
X149546906Y-109546040D01*
X149591139Y-109521430D01*
X149602832Y-109520500D01*
X154181994Y-109520500D01*
X154222001Y-109532247D01*
X154243465Y-109546041D01*
X154265144Y-109559973D01*
X154389441Y-109596469D01*
X154518985Y-109596469D01*
X154643282Y-109559973D01*
X154752262Y-109489936D01*
X154837095Y-109392032D01*
X154890910Y-109274195D01*
X154909346Y-109145969D01*
X154906381Y-109125350D01*
X154916748Y-109075806D01*
X154927298Y-109062498D01*
X155191374Y-108798422D01*
X155237249Y-108777031D01*
X155264547Y-108779747D01*
X155335224Y-108800499D01*
X155335226Y-108800500D01*
X155335228Y-108800500D01*
X155464772Y-108800500D01*
X155589069Y-108764004D01*
X155698049Y-108693967D01*
X155731482Y-108655382D01*
X155775714Y-108630772D01*
X155792711Y-108631092D01*
X155792711Y-108630897D01*
X155800001Y-108630897D01*
X155804622Y-108629977D01*
X155827132Y-108625500D01*
X155827133Y-108625500D01*
X155907495Y-108609515D01*
X155951721Y-108579964D01*
X155975622Y-108563994D01*
X155975622Y-108563993D01*
X155983636Y-108558639D01*
X155983638Y-108558636D01*
X155998624Y-108548624D01*
X156009944Y-108531681D01*
X156019141Y-108520474D01*
X156329260Y-108210355D01*
X156375134Y-108188964D01*
X156399286Y-108190831D01*
X156539944Y-108225500D01*
X156539948Y-108225500D01*
X156710052Y-108225500D01*
X156710056Y-108225500D01*
X156875225Y-108184790D01*
X156971621Y-108134196D01*
X157021783Y-108127421D01*
X157064566Y-108154474D01*
X157079950Y-108202699D01*
X157060737Y-108249530D01*
X157058336Y-108252046D01*
X154082558Y-111227826D01*
X154036682Y-111249218D01*
X154030232Y-111249500D01*
X153935228Y-111249500D01*
X153810931Y-111285995D01*
X153701954Y-111356031D01*
X153701950Y-111356034D01*
X153617119Y-111453935D01*
X153563302Y-111571776D01*
X153544867Y-111699999D01*
X153563302Y-111828223D01*
X153563302Y-111828224D01*
X153563303Y-111828226D01*
X153617118Y-111946063D01*
X153701951Y-112043967D01*
X153810931Y-112114004D01*
X153935228Y-112150500D01*
X154064772Y-112150500D01*
X154189069Y-112114004D01*
X154298049Y-112043967D01*
X154382882Y-111946063D01*
X154436697Y-111828226D01*
X154455133Y-111700000D01*
X154452168Y-111679381D01*
X154462535Y-111629837D01*
X154473085Y-111616529D01*
X157430930Y-108658685D01*
X157476805Y-108637294D01*
X157525700Y-108650395D01*
X157554734Y-108691859D01*
X157556502Y-108700481D01*
X157575411Y-108831999D01*
X157575411Y-108832000D01*
X157575412Y-108832002D01*
X157623864Y-108938096D01*
X157629228Y-108949841D01*
X157629230Y-108949843D01*
X157685237Y-109014479D01*
X157703303Y-109061765D01*
X157686747Y-109109600D01*
X157669321Y-109125191D01*
X157652453Y-109136031D01*
X157652450Y-109136034D01*
X157567619Y-109233935D01*
X157513802Y-109351776D01*
X157495367Y-109480000D01*
X157513802Y-109608223D01*
X157513802Y-109608224D01*
X157513803Y-109608226D01*
X157567618Y-109726063D01*
X157652451Y-109823967D01*
X157761431Y-109894004D01*
X157885728Y-109930500D01*
X158015272Y-109930500D01*
X158139569Y-109894004D01*
X158248549Y-109823967D01*
X158285743Y-109781041D01*
X158329977Y-109756430D01*
X158341670Y-109755500D01*
X159485580Y-109755500D01*
X159500016Y-109756921D01*
X159520000Y-109760897D01*
X159520001Y-109760897D01*
X159524622Y-109759977D01*
X159547132Y-109755500D01*
X159547133Y-109755500D01*
X159627495Y-109739515D01*
X159692525Y-109696063D01*
X159695622Y-109693994D01*
X159695622Y-109693992D01*
X159703627Y-109688646D01*
X159703634Y-109688638D01*
X159718624Y-109678624D01*
X159729948Y-109661674D01*
X159739141Y-109650473D01*
X160489615Y-108899999D01*
X160894867Y-108899999D01*
X160913302Y-109028223D01*
X160913302Y-109028224D01*
X160913303Y-109028226D01*
X160967118Y-109146063D01*
X161051951Y-109243967D01*
X161051952Y-109243968D01*
X161055417Y-109247966D01*
X161053532Y-109249598D01*
X161073568Y-109285595D01*
X161074500Y-109297300D01*
X161074500Y-109615579D01*
X161073078Y-109630015D01*
X161069103Y-109650000D01*
X161074500Y-109677132D01*
X161074500Y-109677133D01*
X161078266Y-109696064D01*
X161090485Y-109757495D01*
X161118528Y-109799465D01*
X161134900Y-109823967D01*
X161151375Y-109848623D01*
X161151378Y-109848626D01*
X161168314Y-109859942D01*
X161179529Y-109869145D01*
X162126910Y-110816526D01*
X162148302Y-110862402D01*
X162147831Y-110879382D01*
X162144867Y-110899999D01*
X162163302Y-111028223D01*
X162163302Y-111028224D01*
X162163303Y-111028226D01*
X162217118Y-111146063D01*
X162301951Y-111243967D01*
X162410931Y-111314004D01*
X162535228Y-111350500D01*
X162664772Y-111350500D01*
X162789069Y-111314004D01*
X162898049Y-111243967D01*
X162982882Y-111146063D01*
X163036697Y-111028226D01*
X163055133Y-110900000D01*
X163036697Y-110771774D01*
X162982882Y-110653937D01*
X162898049Y-110556033D01*
X162812480Y-110501041D01*
X162789068Y-110485995D01*
X162664772Y-110449500D01*
X162569768Y-110449500D01*
X162522202Y-110432187D01*
X162517442Y-110427826D01*
X161647174Y-109557557D01*
X161625782Y-109511680D01*
X161625500Y-109505231D01*
X161625500Y-109297300D01*
X161642813Y-109249734D01*
X161644801Y-109247714D01*
X161648046Y-109243968D01*
X161648049Y-109243967D01*
X161732882Y-109146063D01*
X161786697Y-109028226D01*
X161790755Y-109000000D01*
X162419628Y-109000000D01*
X162439085Y-109247226D01*
X162496975Y-109488358D01*
X162591876Y-109717470D01*
X162591881Y-109717480D01*
X162714342Y-109917317D01*
X162721452Y-109928919D01*
X162882508Y-110117492D01*
X163071081Y-110278548D01*
X163071083Y-110278549D01*
X163219559Y-110369536D01*
X163282526Y-110408122D01*
X163511638Y-110503023D01*
X163511639Y-110503023D01*
X163511641Y-110503024D01*
X163596007Y-110523278D01*
X163752775Y-110560915D01*
X164000000Y-110580372D01*
X164247225Y-110560915D01*
X164488362Y-110503023D01*
X164717474Y-110408122D01*
X164928919Y-110278548D01*
X165117492Y-110117492D01*
X165278548Y-109928919D01*
X165408122Y-109717474D01*
X165503023Y-109488362D01*
X165560915Y-109247225D01*
X165580372Y-109000000D01*
X165560915Y-108752775D01*
X165507707Y-108531147D01*
X165503024Y-108511641D01*
X165501972Y-108509100D01*
X165408122Y-108282526D01*
X165401903Y-108272378D01*
X165298167Y-108103096D01*
X165278548Y-108071081D01*
X165139161Y-107907879D01*
X165117494Y-107882510D01*
X165117489Y-107882505D01*
X165030880Y-107808535D01*
X164928919Y-107721452D01*
X164928916Y-107721450D01*
X164717480Y-107591881D01*
X164717470Y-107591876D01*
X164488358Y-107496975D01*
X164247226Y-107439085D01*
X164000000Y-107419628D01*
X163752773Y-107439085D01*
X163511641Y-107496975D01*
X163282529Y-107591876D01*
X163282519Y-107591881D01*
X163071083Y-107721450D01*
X163071082Y-107721451D01*
X162882510Y-107882505D01*
X162882505Y-107882510D01*
X162721451Y-108071082D01*
X162721450Y-108071083D01*
X162591881Y-108282519D01*
X162591876Y-108282529D01*
X162496975Y-108511641D01*
X162439085Y-108752773D01*
X162419628Y-109000000D01*
X161790755Y-109000000D01*
X161805133Y-108900000D01*
X161786697Y-108771774D01*
X161732882Y-108653937D01*
X161648049Y-108556033D01*
X161575020Y-108509100D01*
X161539068Y-108485995D01*
X161414772Y-108449500D01*
X161285228Y-108449500D01*
X161160931Y-108485995D01*
X161051954Y-108556031D01*
X161051950Y-108556034D01*
X160967119Y-108653935D01*
X160967118Y-108653936D01*
X160967118Y-108653937D01*
X160945633Y-108700981D01*
X160913302Y-108771776D01*
X160894867Y-108899999D01*
X160489615Y-108899999D01*
X162142441Y-107247174D01*
X162188319Y-107225782D01*
X162194768Y-107225500D01*
X165458830Y-107225500D01*
X165506396Y-107242813D01*
X165514756Y-107251041D01*
X165551947Y-107293963D01*
X165551948Y-107293964D01*
X165551951Y-107293967D01*
X165660931Y-107364004D01*
X165785228Y-107400500D01*
X165914772Y-107400500D01*
X166004340Y-107374201D01*
X166054856Y-107377412D01*
X166091491Y-107412343D01*
X166097101Y-107462650D01*
X166092500Y-107475945D01*
X166053302Y-107561776D01*
X166034867Y-107689999D01*
X166053302Y-107818223D01*
X166053302Y-107818224D01*
X166053303Y-107818226D01*
X166107118Y-107936063D01*
X166191951Y-108033967D01*
X166300931Y-108104004D01*
X166425228Y-108140500D01*
X166554772Y-108140500D01*
X166679069Y-108104004D01*
X166788049Y-108033967D01*
X166804575Y-108014894D01*
X166848808Y-107990285D01*
X166898512Y-107999864D01*
X166930430Y-108039152D01*
X166934500Y-108063355D01*
X166934500Y-110042699D01*
X166917187Y-110090265D01*
X166915198Y-110092286D01*
X166827119Y-110193935D01*
X166773302Y-110311776D01*
X166754867Y-110440000D01*
X166773302Y-110568223D01*
X166773302Y-110568224D01*
X166773303Y-110568226D01*
X166827118Y-110686063D01*
X166911951Y-110783967D01*
X167020931Y-110854004D01*
X167145228Y-110890500D01*
X167274772Y-110890500D01*
X167399069Y-110854004D01*
X167508049Y-110783967D01*
X167592882Y-110686063D01*
X167646697Y-110568226D01*
X167665133Y-110440000D01*
X167646697Y-110311774D01*
X167592882Y-110193937D01*
X167508049Y-110096033D01*
X167508047Y-110096031D01*
X167504583Y-110092034D01*
X167506460Y-110090406D01*
X167486425Y-110054362D01*
X167485500Y-110042699D01*
X167485500Y-106400273D01*
X167502813Y-106352707D01*
X167546650Y-106327397D01*
X167596500Y-106336187D01*
X167615426Y-106351814D01*
X167651947Y-106393963D01*
X167651948Y-106393964D01*
X167651951Y-106393967D01*
X167760931Y-106464004D01*
X167885228Y-106500500D01*
X168014772Y-106500500D01*
X168139069Y-106464004D01*
X168248049Y-106393967D01*
X168332882Y-106296063D01*
X168386697Y-106178226D01*
X168405133Y-106050000D01*
X168402168Y-106029381D01*
X168412535Y-105979837D01*
X168423085Y-105966529D01*
X168495472Y-105894142D01*
X168506676Y-105884947D01*
X168523624Y-105873624D01*
X168539410Y-105850000D01*
X168563969Y-105813242D01*
X168604790Y-105783310D01*
X168655300Y-105786619D01*
X168691867Y-105821622D01*
X168699499Y-105854353D01*
X168699499Y-109467125D01*
X168699500Y-109498232D01*
X168699331Y-109501760D01*
X168698945Y-109505790D01*
X168696544Y-109530833D01*
X168693863Y-109544691D01*
X168687111Y-109567601D01*
X168681844Y-109580705D01*
X168668425Y-109606623D01*
X168666652Y-109609680D01*
X168659568Y-109620654D01*
X166879013Y-112378527D01*
X166851692Y-112420844D01*
X166850381Y-112422742D01*
X166726715Y-112590358D01*
X166723749Y-112593894D01*
X166580991Y-112743994D01*
X166577608Y-112747133D01*
X166417291Y-112878314D01*
X166413545Y-112881008D01*
X166238163Y-112991230D01*
X166234111Y-112993437D01*
X166046378Y-113080994D01*
X166042082Y-113082680D01*
X165863984Y-113140067D01*
X165844921Y-113146209D01*
X165840452Y-113147347D01*
X165636910Y-113185866D01*
X165632340Y-113186438D01*
X165534476Y-113192547D01*
X165424238Y-113199427D01*
X165421932Y-113199499D01*
X165369735Y-113199499D01*
X165369723Y-113199500D01*
X130630277Y-113199500D01*
X130630265Y-113199499D01*
X130577862Y-113199499D01*
X130575557Y-113199427D01*
X130461387Y-113192301D01*
X130367654Y-113186451D01*
X130363087Y-113185879D01*
X130159545Y-113147360D01*
X130155073Y-113146222D01*
X129957912Y-113082693D01*
X129953616Y-113081007D01*
X129765882Y-112993448D01*
X129761830Y-112991241D01*
X129586446Y-112881018D01*
X129582700Y-112878324D01*
X129422382Y-112747142D01*
X129418999Y-112744003D01*
X129276243Y-112593905D01*
X129273277Y-112590369D01*
X129149717Y-112422897D01*
X129148406Y-112420999D01*
X129038004Y-112249999D01*
X129944867Y-112249999D01*
X129963302Y-112378223D01*
X129963302Y-112378224D01*
X129963303Y-112378226D01*
X130017118Y-112496063D01*
X130101951Y-112593967D01*
X130210931Y-112664004D01*
X130335228Y-112700500D01*
X130464772Y-112700500D01*
X130589069Y-112664004D01*
X130698049Y-112593967D01*
X130782882Y-112496063D01*
X130836697Y-112378226D01*
X130855133Y-112250000D01*
X130852168Y-112229381D01*
X130862535Y-112179837D01*
X130873085Y-112166530D01*
X131542441Y-111497174D01*
X131588319Y-111475782D01*
X131594768Y-111475500D01*
X132108830Y-111475500D01*
X132156396Y-111492813D01*
X132164756Y-111501041D01*
X132201947Y-111543963D01*
X132201948Y-111543964D01*
X132201951Y-111543967D01*
X132310931Y-111614004D01*
X132435228Y-111650500D01*
X132564772Y-111650500D01*
X132689069Y-111614004D01*
X132798049Y-111543967D01*
X132882882Y-111446063D01*
X132936697Y-111328226D01*
X132955133Y-111200000D01*
X132936697Y-111071774D01*
X132882882Y-110953937D01*
X132798049Y-110856033D01*
X132731032Y-110812964D01*
X132689068Y-110785995D01*
X132564772Y-110749500D01*
X132435228Y-110749500D01*
X132310931Y-110785995D01*
X132201954Y-110856031D01*
X132201947Y-110856036D01*
X132164756Y-110898959D01*
X132120523Y-110923570D01*
X132108830Y-110924500D01*
X131484420Y-110924500D01*
X131469983Y-110923078D01*
X131450000Y-110919103D01*
X131342504Y-110940485D01*
X131276305Y-110984718D01*
X131251376Y-111001375D01*
X131251374Y-111001377D01*
X131240053Y-111018319D01*
X131230853Y-111029529D01*
X130482558Y-111777826D01*
X130436682Y-111799218D01*
X130430232Y-111799500D01*
X130335228Y-111799500D01*
X130210931Y-111835995D01*
X130101954Y-111906031D01*
X130101950Y-111906034D01*
X130017119Y-112003935D01*
X129963302Y-112121776D01*
X129944867Y-112249999D01*
X129038004Y-112249999D01*
X127340433Y-109620656D01*
X127333357Y-109609695D01*
X127331583Y-109606637D01*
X127331576Y-109606623D01*
X127318154Y-109580699D01*
X127312891Y-109567606D01*
X127306137Y-109544691D01*
X127303456Y-109530832D01*
X127302466Y-109520500D01*
X127301936Y-109514974D01*
X127314630Y-109465975D01*
X127355852Y-109436598D01*
X127404747Y-109439897D01*
X127484380Y-109474026D01*
X127501363Y-109484185D01*
X127508541Y-109489909D01*
X127508544Y-109489911D01*
X127515131Y-109491414D01*
X127529616Y-109494721D01*
X127536324Y-109496903D01*
X127536354Y-109496807D01*
X127540327Y-109498003D01*
X127540333Y-109498006D01*
X127558676Y-109501353D01*
X127576845Y-109505500D01*
X127576850Y-109505500D01*
X127580978Y-109505966D01*
X127580966Y-109506066D01*
X127587988Y-109506701D01*
X127597993Y-109508527D01*
X127609251Y-109510582D01*
X127609251Y-109510581D01*
X127609252Y-109510582D01*
X127618105Y-109508147D01*
X127637723Y-109505500D01*
X127698620Y-109505500D01*
X127705885Y-109505596D01*
X127720415Y-109505790D01*
X127720415Y-109505789D01*
X127720417Y-109505790D01*
X127720418Y-109505789D01*
X127721519Y-109505681D01*
X127721562Y-109505678D01*
X127721774Y-109505655D01*
X127721993Y-109505633D01*
X127722044Y-109505625D01*
X127723147Y-109505500D01*
X127723155Y-109505500D01*
X127744418Y-109500646D01*
X127761885Y-109496903D01*
X128414105Y-109357143D01*
X128429610Y-109355500D01*
X128446905Y-109355500D01*
X128487892Y-109335761D01*
X128487891Y-109335761D01*
X128529218Y-109316533D01*
X128529219Y-109316531D01*
X128529280Y-109316503D01*
X128530273Y-109315712D01*
X128531376Y-109314855D01*
X128531421Y-109314798D01*
X128531422Y-109314798D01*
X128548114Y-109293867D01*
X128559796Y-109279219D01*
X128588723Y-109243919D01*
X128589295Y-109242732D01*
X128589893Y-109241530D01*
X128589909Y-109241457D01*
X128589911Y-109241456D01*
X128600047Y-109197046D01*
X128610766Y-109152805D01*
X128607585Y-109137960D01*
X128607142Y-109135890D01*
X128605500Y-109120388D01*
X128605500Y-108999623D01*
X128622813Y-108952057D01*
X128666650Y-108926747D01*
X128716500Y-108935537D01*
X128720615Y-108938096D01*
X128721769Y-108938867D01*
X128780252Y-108950500D01*
X129000500Y-108950500D01*
X129048066Y-108967813D01*
X129073376Y-109011650D01*
X129074500Y-109024500D01*
X129074500Y-109204518D01*
X129067813Y-109235258D01*
X129028302Y-109321775D01*
X129028302Y-109321777D01*
X129009867Y-109449999D01*
X129028302Y-109578223D01*
X129028302Y-109578224D01*
X129028303Y-109578226D01*
X129082118Y-109696063D01*
X129166951Y-109793967D01*
X129275931Y-109864004D01*
X129400228Y-109900500D01*
X129529772Y-109900500D01*
X129654069Y-109864004D01*
X129763049Y-109793967D01*
X129847882Y-109696063D01*
X129901697Y-109578226D01*
X129920133Y-109450000D01*
X129901697Y-109321774D01*
X129847882Y-109203937D01*
X129763049Y-109106033D01*
X129733047Y-109086752D01*
X129702392Y-109046472D01*
X129704606Y-109000000D01*
X130419628Y-109000000D01*
X130439085Y-109247226D01*
X130496975Y-109488358D01*
X130591876Y-109717470D01*
X130591881Y-109717480D01*
X130714342Y-109917317D01*
X130721452Y-109928919D01*
X130882508Y-110117492D01*
X131071081Y-110278548D01*
X131071083Y-110278549D01*
X131219559Y-110369536D01*
X131282526Y-110408122D01*
X131511638Y-110503023D01*
X131511639Y-110503023D01*
X131511641Y-110503024D01*
X131596007Y-110523278D01*
X131752775Y-110560915D01*
X132000000Y-110580372D01*
X132247225Y-110560915D01*
X132488362Y-110503023D01*
X132717474Y-110408122D01*
X132928919Y-110278548D01*
X133117492Y-110117492D01*
X133278548Y-109928919D01*
X133408122Y-109717474D01*
X133503023Y-109488362D01*
X133560915Y-109247225D01*
X133580372Y-109000000D01*
X133560915Y-108752775D01*
X133507707Y-108531147D01*
X133503024Y-108511641D01*
X133501972Y-108509100D01*
X133408122Y-108282526D01*
X133401903Y-108272378D01*
X133298167Y-108103096D01*
X133278548Y-108071081D01*
X133139161Y-107907879D01*
X133117494Y-107882510D01*
X133117489Y-107882505D01*
X133030880Y-107808535D01*
X132928919Y-107721452D01*
X132928916Y-107721450D01*
X132717480Y-107591881D01*
X132717470Y-107591876D01*
X132488358Y-107496975D01*
X132247226Y-107439085D01*
X132000000Y-107419628D01*
X131752773Y-107439085D01*
X131511641Y-107496975D01*
X131282529Y-107591876D01*
X131282519Y-107591881D01*
X131071083Y-107721450D01*
X131071082Y-107721451D01*
X130882510Y-107882505D01*
X130882505Y-107882510D01*
X130721451Y-108071082D01*
X130721450Y-108071083D01*
X130591881Y-108282519D01*
X130591876Y-108282529D01*
X130496975Y-108511641D01*
X130439085Y-108752773D01*
X130419628Y-109000000D01*
X129704606Y-109000000D01*
X129704801Y-108995911D01*
X129739146Y-108958726D01*
X129773055Y-108950500D01*
X129919746Y-108950500D01*
X129919748Y-108950500D01*
X129978231Y-108938867D01*
X130044552Y-108894552D01*
X130088867Y-108828231D01*
X130100500Y-108769748D01*
X130100500Y-108030252D01*
X130088867Y-107971769D01*
X130088866Y-107971767D01*
X130088476Y-107969805D01*
X130096176Y-107919775D01*
X130123659Y-107895144D01*
X130122171Y-107892917D01*
X130153812Y-107871774D01*
X130194552Y-107844552D01*
X130238867Y-107778231D01*
X130250500Y-107719748D01*
X130250500Y-106280252D01*
X130238867Y-106221769D01*
X130234655Y-106215466D01*
X130215518Y-106186826D01*
X130194552Y-106155448D01*
X130155719Y-106129500D01*
X130122171Y-106107083D01*
X130123730Y-106104749D01*
X130095411Y-106078793D01*
X130088476Y-106030194D01*
X130088866Y-106028232D01*
X130088867Y-106028231D01*
X130100500Y-105969748D01*
X130100500Y-105230252D01*
X130088867Y-105171769D01*
X130086727Y-105168567D01*
X130061004Y-105130070D01*
X130044552Y-105105448D01*
X130005719Y-105079500D01*
X129978232Y-105061133D01*
X129978233Y-105061133D01*
X129930403Y-105051619D01*
X129887129Y-105025359D01*
X129870859Y-104977426D01*
X129877527Y-104948303D01*
X129886697Y-104928226D01*
X129905133Y-104800000D01*
X129886697Y-104671774D01*
X129836066Y-104560910D01*
X129832056Y-104510453D01*
X129861417Y-104469220D01*
X129877080Y-104461003D01*
X129896002Y-104453809D01*
X129913683Y-104447087D01*
X129913683Y-104447086D01*
X129913685Y-104447086D01*
X130022623Y-104364451D01*
X130031845Y-104351966D01*
X130074033Y-104323995D01*
X130124331Y-104329685D01*
G37*
%TD.AperFunction*%
%TA.AperFunction,Conductor*%
G36*
X168678730Y-98563434D02*
G01*
X168699319Y-98609677D01*
X168699499Y-98614839D01*
X168699499Y-100655266D01*
X168682186Y-100702832D01*
X168638349Y-100728142D01*
X168588499Y-100719352D01*
X168563971Y-100696378D01*
X168553023Y-100679994D01*
X168538994Y-100658998D01*
X168538993Y-100658997D01*
X168536974Y-100655975D01*
X168536973Y-100655975D01*
X168536823Y-100655751D01*
X168523624Y-100635996D01*
X168515442Y-100630529D01*
X168506683Y-100624676D01*
X168495470Y-100615474D01*
X168320165Y-100440169D01*
X168298773Y-100394293D01*
X168298729Y-100393777D01*
X168293006Y-100320300D01*
X168244410Y-100192494D01*
X168161776Y-100083555D01*
X168051798Y-100002310D01*
X167999041Y-99980849D01*
X167999035Y-99980847D01*
X167999027Y-99980844D01*
X165989078Y-99404502D01*
X165987009Y-99404142D01*
X165963313Y-99400021D01*
X165919419Y-99374814D01*
X165901995Y-99327289D01*
X165902748Y-99316584D01*
X165902803Y-99316202D01*
X165905133Y-99300000D01*
X165886697Y-99171774D01*
X165883712Y-99165239D01*
X165879702Y-99114781D01*
X165909064Y-99073548D01*
X165951026Y-99060500D01*
X166518740Y-99060500D01*
X166539137Y-99063367D01*
X167731819Y-99405362D01*
X167863654Y-99443165D01*
X167919768Y-99452924D01*
X168056088Y-99442303D01*
X168183895Y-99393708D01*
X168292833Y-99311073D01*
X168374079Y-99201095D01*
X168395540Y-99148338D01*
X168554366Y-98594441D01*
X168584119Y-98553490D01*
X168633234Y-98541244D01*
X168678730Y-98563434D01*
G37*
%TD.AperFunction*%
%TA.AperFunction,Conductor*%
G36*
X143832931Y-95163975D02*
G01*
X143835917Y-95165796D01*
X143910931Y-95214004D01*
X144035228Y-95250500D01*
X144130232Y-95250500D01*
X144177798Y-95267813D01*
X144182558Y-95272174D01*
X145320854Y-96410470D01*
X145330056Y-96421683D01*
X145341375Y-96438623D01*
X145341376Y-96438624D01*
X145361380Y-96451991D01*
X145432506Y-96499516D01*
X145539999Y-96520897D01*
X145540000Y-96520897D01*
X145540001Y-96520897D01*
X145559985Y-96516922D01*
X145574421Y-96515500D01*
X149580346Y-96515500D01*
X149594782Y-96516921D01*
X149614766Y-96520897D01*
X149614767Y-96520897D01*
X149661345Y-96511632D01*
X149722261Y-96499515D01*
X149736501Y-96490000D01*
X149764067Y-96471581D01*
X149798403Y-96448639D01*
X149798407Y-96448635D01*
X149801662Y-96446459D01*
X149813390Y-96438624D01*
X149824712Y-96421677D01*
X149833906Y-96410474D01*
X149996708Y-96247673D01*
X150042585Y-96226281D01*
X150049034Y-96225999D01*
X151750500Y-96225999D01*
X151798066Y-96243312D01*
X151823376Y-96287149D01*
X151824500Y-96299999D01*
X151824500Y-96983310D01*
X151807187Y-97030876D01*
X151802826Y-97035636D01*
X151374459Y-97464002D01*
X151328582Y-97485394D01*
X151301736Y-97482809D01*
X151026785Y-97403968D01*
X150241560Y-97178808D01*
X150185440Y-97169048D01*
X150185433Y-97169048D01*
X150049123Y-97179668D01*
X150049116Y-97179670D01*
X149921312Y-97228264D01*
X149812377Y-97310897D01*
X149812373Y-97310900D01*
X149731130Y-97420874D01*
X149725560Y-97434568D01*
X149716250Y-97457455D01*
X149709669Y-97473632D01*
X149709663Y-97473647D01*
X149576075Y-97939529D01*
X149546322Y-97980481D01*
X149546056Y-97980660D01*
X149532402Y-97989783D01*
X149532401Y-97989784D01*
X149521080Y-98006726D01*
X149511880Y-98017936D01*
X148801826Y-98727991D01*
X148755950Y-98749383D01*
X148707055Y-98736282D01*
X148678022Y-98694818D01*
X148675500Y-98675665D01*
X148675500Y-98360753D01*
X148671410Y-98334931D01*
X148659951Y-98262580D01*
X148599658Y-98144249D01*
X148505751Y-98050342D01*
X148505749Y-98050340D01*
X148387420Y-97990049D01*
X148387420Y-97990048D01*
X148289247Y-97974500D01*
X148289246Y-97974500D01*
X147710754Y-97974500D01*
X147710753Y-97974500D01*
X147612579Y-97990048D01*
X147612579Y-97990049D01*
X147494250Y-98050340D01*
X147400340Y-98144250D01*
X147340049Y-98262579D01*
X147340048Y-98262579D01*
X147324500Y-98360753D01*
X147324500Y-98861037D01*
X147307187Y-98908603D01*
X147302827Y-98913362D01*
X147274269Y-98941921D01*
X147228393Y-98963314D01*
X147221942Y-98963596D01*
X147126938Y-98963596D01*
X147061165Y-98982908D01*
X147010647Y-98979697D01*
X146974013Y-98944765D01*
X146968403Y-98894458D01*
X146969184Y-98891508D01*
X147072211Y-98532211D01*
X147072211Y-98532207D01*
X147072214Y-98532199D01*
X147081972Y-98476085D01*
X147071352Y-98339764D01*
X147022756Y-98211958D01*
X146940122Y-98103019D01*
X146830144Y-98021774D01*
X146777387Y-98000313D01*
X146777381Y-98000311D01*
X146777373Y-98000308D01*
X144767424Y-97423966D01*
X144711304Y-97414206D01*
X144711297Y-97414206D01*
X144574987Y-97424826D01*
X144574980Y-97424828D01*
X144447176Y-97473422D01*
X144338241Y-97556055D01*
X144338240Y-97556055D01*
X144270274Y-97648057D01*
X144228085Y-97676028D01*
X144177787Y-97670337D01*
X144142915Y-97633646D01*
X144137474Y-97593787D01*
X144139463Y-97579640D01*
X144335129Y-96187394D01*
X144336983Y-96130468D01*
X144307494Y-95996952D01*
X144286184Y-95958218D01*
X144241585Y-95877153D01*
X144144592Y-95780774D01*
X144144591Y-95780772D01*
X144024383Y-95715628D01*
X144024379Y-95715626D01*
X144024378Y-95715626D01*
X144024375Y-95715625D01*
X144024369Y-95715623D01*
X143969151Y-95701716D01*
X143785632Y-95675924D01*
X143740938Y-95652159D01*
X143721976Y-95605226D01*
X143721931Y-95602644D01*
X143721931Y-95228061D01*
X143739244Y-95180495D01*
X143783081Y-95155185D01*
X143832931Y-95163975D01*
G37*
%TD.AperFunction*%
%TA.AperFunction,Conductor*%
G36*
X142556396Y-95092813D02*
G01*
X142564756Y-95101041D01*
X142601947Y-95143963D01*
X142601948Y-95143964D01*
X142601951Y-95143967D01*
X142710931Y-95214004D01*
X142835228Y-95250500D01*
X142964775Y-95250500D01*
X142964775Y-95250499D01*
X142989287Y-95243302D01*
X143076083Y-95217817D01*
X143126600Y-95221027D01*
X143163235Y-95255958D01*
X143170931Y-95288819D01*
X143170931Y-95581568D01*
X143153618Y-95629134D01*
X143132601Y-95646403D01*
X143024175Y-95706055D01*
X142927798Y-95803047D01*
X142927791Y-95803057D01*
X142862649Y-95923259D01*
X142862649Y-95923260D01*
X142848738Y-95978492D01*
X142557733Y-98049106D01*
X142555879Y-98106040D01*
X142585368Y-98239556D01*
X142585369Y-98239558D01*
X142651276Y-98359354D01*
X142670801Y-98378755D01*
X142692339Y-98424563D01*
X142679392Y-98473498D01*
X142638020Y-98502663D01*
X142618641Y-98505246D01*
X142050433Y-98505246D01*
X142002867Y-98487933D01*
X141977557Y-98444096D01*
X141985373Y-98395988D01*
X142030212Y-98313248D01*
X142030212Y-98313247D01*
X142030214Y-98313244D01*
X142044124Y-98258014D01*
X142335129Y-96187394D01*
X142336983Y-96130468D01*
X142307494Y-95996952D01*
X142286184Y-95958218D01*
X142241585Y-95877153D01*
X142144592Y-95780774D01*
X142144591Y-95780772D01*
X142024383Y-95715628D01*
X142024379Y-95715626D01*
X142024378Y-95715626D01*
X142024375Y-95715625D01*
X142024369Y-95715623D01*
X141969151Y-95701716D01*
X141334423Y-95612512D01*
X141284605Y-95610889D01*
X141277490Y-95610658D01*
X141277489Y-95610658D01*
X141143968Y-95640148D01*
X141024175Y-95706055D01*
X140927798Y-95803047D01*
X140927791Y-95803057D01*
X140862649Y-95923259D01*
X140862649Y-95923260D01*
X140848738Y-95978492D01*
X140582734Y-97871214D01*
X140558970Y-97915908D01*
X140512037Y-97934870D01*
X140463895Y-97919228D01*
X140450500Y-97905640D01*
X140414258Y-97857861D01*
X140304280Y-97776616D01*
X140251523Y-97755155D01*
X140251517Y-97755153D01*
X140251509Y-97755150D01*
X138509698Y-97255695D01*
X138477769Y-97236888D01*
X137407207Y-96166326D01*
X137385815Y-96120450D01*
X137398916Y-96071555D01*
X137440380Y-96042521D01*
X137459533Y-96040000D01*
X139501080Y-96040000D01*
X139515516Y-96041421D01*
X139535500Y-96045397D01*
X139535501Y-96045397D01*
X139540122Y-96044477D01*
X139562632Y-96040000D01*
X139562633Y-96040000D01*
X139642995Y-96024015D01*
X139698490Y-95986934D01*
X139711122Y-95978494D01*
X139711122Y-95978493D01*
X139719133Y-95973141D01*
X139719141Y-95973135D01*
X139726578Y-95968166D01*
X139734124Y-95963124D01*
X139745444Y-95946181D01*
X139754641Y-95934974D01*
X140592441Y-95097174D01*
X140638319Y-95075782D01*
X140644768Y-95075500D01*
X142508830Y-95075500D01*
X142556396Y-95092813D01*
G37*
%TD.AperFunction*%
%TA.AperFunction,Conductor*%
G36*
X155339914Y-88817813D02*
G01*
X155365224Y-88861650D01*
X155359661Y-88905240D01*
X155354151Y-88917306D01*
X155308110Y-89018120D01*
X155293222Y-89121675D01*
X155289675Y-89146344D01*
X155292398Y-89165280D01*
X155308110Y-89274567D01*
X155308110Y-89274568D01*
X155308111Y-89274570D01*
X155361926Y-89392407D01*
X155446759Y-89490311D01*
X155555739Y-89560348D01*
X155680036Y-89596844D01*
X155809580Y-89596844D01*
X155933877Y-89560348D01*
X156042857Y-89490311D01*
X156127690Y-89392407D01*
X156181505Y-89274570D01*
X156199941Y-89146344D01*
X156181505Y-89018118D01*
X156129954Y-88905240D01*
X156125944Y-88854781D01*
X156155305Y-88813548D01*
X156197268Y-88800500D01*
X165375690Y-88800500D01*
X165375693Y-88800501D01*
X165422136Y-88800500D01*
X165424439Y-88800571D01*
X165632358Y-88813549D01*
X165636899Y-88814118D01*
X165756636Y-88836777D01*
X165840454Y-88852639D01*
X165844918Y-88853775D01*
X166042093Y-88917308D01*
X166046374Y-88918988D01*
X166140250Y-88962771D01*
X166234117Y-89006551D01*
X166238169Y-89008758D01*
X166413553Y-89118981D01*
X166417299Y-89121675D01*
X166577617Y-89252857D01*
X166581000Y-89255996D01*
X166615420Y-89292186D01*
X166710739Y-89392408D01*
X166723759Y-89406097D01*
X166726723Y-89409630D01*
X166850294Y-89577117D01*
X166851571Y-89578966D01*
X166875148Y-89615485D01*
X168641787Y-92351805D01*
X168641788Y-92351806D01*
X168641789Y-92351807D01*
X168666643Y-92390304D01*
X168668416Y-92393362D01*
X168672574Y-92401392D01*
X168681845Y-92419300D01*
X168687110Y-92432398D01*
X168693862Y-92455308D01*
X168696543Y-92469168D01*
X168699330Y-92498244D01*
X168699499Y-92501776D01*
X168699499Y-98273958D01*
X168682186Y-98321524D01*
X168638349Y-98346834D01*
X168588499Y-98338044D01*
X168556330Y-98300259D01*
X168522756Y-98211958D01*
X168440122Y-98103019D01*
X168330144Y-98021774D01*
X168277387Y-98000313D01*
X168277381Y-98000311D01*
X168277373Y-98000308D01*
X166267424Y-97423966D01*
X166211304Y-97414206D01*
X166211297Y-97414206D01*
X166074987Y-97424826D01*
X166074980Y-97424828D01*
X165947176Y-97473422D01*
X165838241Y-97556055D01*
X165838240Y-97556055D01*
X165770274Y-97648057D01*
X165728085Y-97676028D01*
X165677787Y-97670337D01*
X165642915Y-97633646D01*
X165637474Y-97593787D01*
X165639463Y-97579640D01*
X165812870Y-96345770D01*
X165836634Y-96301078D01*
X165883567Y-96282116D01*
X165926154Y-96293817D01*
X165990053Y-96334882D01*
X166114350Y-96371378D01*
X166243894Y-96371378D01*
X166368191Y-96334882D01*
X166477171Y-96264845D01*
X166515729Y-96220345D01*
X166559959Y-96195736D01*
X166609664Y-96205314D01*
X166638964Y-96238063D01*
X166642618Y-96246063D01*
X166727451Y-96343967D01*
X166836431Y-96414004D01*
X166960728Y-96450500D01*
X167090272Y-96450500D01*
X167214569Y-96414004D01*
X167323549Y-96343967D01*
X167408382Y-96246063D01*
X167462197Y-96128226D01*
X167480633Y-96000000D01*
X167462197Y-95871774D01*
X167408382Y-95753937D01*
X167323549Y-95656033D01*
X167239201Y-95601826D01*
X167214568Y-95585995D01*
X167090272Y-95549500D01*
X166995268Y-95549500D01*
X166947702Y-95532187D01*
X166942942Y-95527826D01*
X166937570Y-95522454D01*
X166916178Y-95476578D01*
X166929279Y-95427683D01*
X166970743Y-95398649D01*
X166989896Y-95396128D01*
X167090272Y-95396128D01*
X167214569Y-95359632D01*
X167323549Y-95289595D01*
X167408382Y-95191691D01*
X167462197Y-95073854D01*
X167480633Y-94945628D01*
X167477668Y-94925009D01*
X167488035Y-94875465D01*
X167498585Y-94862157D01*
X167699844Y-94660898D01*
X167711048Y-94651703D01*
X167727996Y-94640380D01*
X167746993Y-94611950D01*
X167788888Y-94549250D01*
X167810269Y-94441756D01*
X167806294Y-94421770D01*
X167804872Y-94407334D01*
X167804872Y-92032960D01*
X167806294Y-92018523D01*
X167810269Y-91998540D01*
X167810269Y-91998539D01*
X167799773Y-91945772D01*
X167799111Y-91942442D01*
X167788887Y-91891045D01*
X167746153Y-91827089D01*
X167743366Y-91822918D01*
X167743364Y-91822916D01*
X167727996Y-91799916D01*
X167722231Y-91796064D01*
X167711055Y-91788596D01*
X167699842Y-91779394D01*
X166110386Y-90189938D01*
X166101183Y-90178723D01*
X166089867Y-90161787D01*
X166089865Y-90161785D01*
X166086201Y-90159337D01*
X166069885Y-90148434D01*
X166069882Y-90148432D01*
X166019781Y-90114956D01*
X165998736Y-90100894D01*
X165918374Y-90084909D01*
X165918373Y-90084909D01*
X165918371Y-90084908D01*
X165891242Y-90079512D01*
X165891241Y-90079512D01*
X165871258Y-90083487D01*
X165856821Y-90084909D01*
X160726475Y-90084909D01*
X160712039Y-90083487D01*
X160692055Y-90079512D01*
X160692053Y-90079512D01*
X160648988Y-90088078D01*
X160634552Y-90089500D01*
X160305447Y-90089500D01*
X160291011Y-90088078D01*
X160290595Y-90087995D01*
X160275079Y-90084909D01*
X160275078Y-90084909D01*
X160247947Y-90079512D01*
X160247946Y-90079512D01*
X160227963Y-90083487D01*
X160213526Y-90084909D01*
X157490647Y-90084909D01*
X157443081Y-90067596D01*
X157417771Y-90023759D01*
X157423334Y-89980168D01*
X157426068Y-89974182D01*
X157458473Y-89903226D01*
X157476909Y-89775000D01*
X157458473Y-89646774D01*
X157404658Y-89528937D01*
X157319825Y-89431033D01*
X157213310Y-89362580D01*
X157210844Y-89360995D01*
X157086548Y-89324500D01*
X156957004Y-89324500D01*
X156832707Y-89360995D01*
X156723726Y-89431033D01*
X156678207Y-89483566D01*
X156636719Y-89507684D01*
X156597503Y-89515485D01*
X156565818Y-89536658D01*
X156531309Y-89559714D01*
X156531305Y-89559718D01*
X156506376Y-89576375D01*
X156506374Y-89576377D01*
X156495053Y-89593319D01*
X156485853Y-89604529D01*
X154904938Y-91185444D01*
X154893728Y-91194644D01*
X154876786Y-91205965D01*
X154876784Y-91205967D01*
X154861415Y-91228969D01*
X154851303Y-91244103D01*
X154815894Y-91297096D01*
X154810988Y-91321757D01*
X154790736Y-91359644D01*
X153347556Y-92802826D01*
X153301680Y-92824218D01*
X153295230Y-92824500D01*
X151383017Y-92824500D01*
X151335451Y-92807187D01*
X151330691Y-92802826D01*
X151235576Y-92707711D01*
X151134688Y-92606824D01*
X151113297Y-92560949D01*
X151126398Y-92512054D01*
X151167862Y-92483021D01*
X151187015Y-92480499D01*
X151321519Y-92480499D01*
X151415304Y-92465646D01*
X151415306Y-92465645D01*
X151437350Y-92454413D01*
X151528342Y-92408050D01*
X151618050Y-92318342D01*
X151675646Y-92205304D01*
X151690500Y-92111519D01*
X151690499Y-91498482D01*
X151690260Y-91496975D01*
X151675646Y-91404695D01*
X151675645Y-91404693D01*
X151633386Y-91321757D01*
X151618050Y-91291658D01*
X151528342Y-91201950D01*
X151528342Y-91201949D01*
X151528340Y-91201948D01*
X151410116Y-91141710D01*
X151410849Y-91140270D01*
X151376738Y-91113611D01*
X151365500Y-91074407D01*
X151365500Y-90568926D01*
X151382813Y-90521360D01*
X151426650Y-90496050D01*
X151427847Y-90495849D01*
X151498126Y-90484719D01*
X151618220Y-90423528D01*
X151713528Y-90328220D01*
X151774719Y-90208126D01*
X151790500Y-90108488D01*
X151790500Y-89541512D01*
X151783521Y-89497454D01*
X151793181Y-89447765D01*
X151832519Y-89415910D01*
X151883130Y-89416793D01*
X151908937Y-89433552D01*
X152017826Y-89542441D01*
X152039218Y-89588317D01*
X152039500Y-89594767D01*
X152039500Y-90108488D01*
X152055280Y-90208125D01*
X152055281Y-90208126D01*
X152113604Y-90322593D01*
X152116472Y-90328220D01*
X152211780Y-90423528D01*
X152331874Y-90484719D01*
X152402076Y-90495837D01*
X152446348Y-90520377D01*
X152464489Y-90567634D01*
X152464500Y-90568926D01*
X152464500Y-91074407D01*
X152447187Y-91121973D01*
X152419385Y-91140730D01*
X152419885Y-91141711D01*
X152414698Y-91144353D01*
X152414696Y-91144354D01*
X152304516Y-91200494D01*
X152301656Y-91201951D01*
X152211951Y-91291656D01*
X152154353Y-91404698D01*
X152139500Y-91498480D01*
X152139500Y-92111519D01*
X152154353Y-92205304D01*
X152154354Y-92205306D01*
X152203625Y-92302004D01*
X152211950Y-92318342D01*
X152301658Y-92408050D01*
X152414696Y-92465646D01*
X152508481Y-92480500D01*
X152971518Y-92480499D01*
X152971519Y-92480499D01*
X153065304Y-92465646D01*
X153065306Y-92465645D01*
X153087350Y-92454413D01*
X153178342Y-92408050D01*
X153268050Y-92318342D01*
X153325646Y-92205304D01*
X153340500Y-92111519D01*
X153340499Y-91498482D01*
X153340260Y-91496975D01*
X153325646Y-91404695D01*
X153325645Y-91404693D01*
X153283386Y-91321757D01*
X153268050Y-91291658D01*
X153178342Y-91201950D01*
X153178340Y-91201948D01*
X153060116Y-91141710D01*
X153060849Y-91140270D01*
X153026738Y-91113611D01*
X153015500Y-91074407D01*
X153015500Y-90546690D01*
X153032813Y-90499124D01*
X153055904Y-90480756D01*
X153062448Y-90477421D01*
X153168220Y-90423528D01*
X153263528Y-90328220D01*
X153324719Y-90208126D01*
X153331878Y-90162923D01*
X153356418Y-90118652D01*
X153403675Y-90100511D01*
X153404967Y-90100500D01*
X153880232Y-90100500D01*
X153927798Y-90117813D01*
X153932558Y-90122174D01*
X154181910Y-90371526D01*
X154203302Y-90417402D01*
X154202831Y-90434382D01*
X154201565Y-90443192D01*
X154199867Y-90455000D01*
X154203570Y-90480756D01*
X154218302Y-90583223D01*
X154218302Y-90583224D01*
X154218303Y-90583226D01*
X154272118Y-90701063D01*
X154356951Y-90798967D01*
X154465931Y-90869004D01*
X154590228Y-90905500D01*
X154719772Y-90905500D01*
X154844069Y-90869004D01*
X154953049Y-90798967D01*
X155037882Y-90701063D01*
X155091697Y-90583226D01*
X155110133Y-90455000D01*
X155091697Y-90326774D01*
X155037882Y-90208937D01*
X154953049Y-90111033D01*
X154858080Y-90050000D01*
X154844068Y-90040995D01*
X154719772Y-90004500D01*
X154624768Y-90004500D01*
X154577202Y-89987187D01*
X154572442Y-89982826D01*
X154244145Y-89654529D01*
X154234942Y-89643314D01*
X154223626Y-89626378D01*
X154223624Y-89626376D01*
X154203644Y-89613026D01*
X154203639Y-89613021D01*
X154174465Y-89593528D01*
X154132495Y-89565485D01*
X154052133Y-89549500D01*
X154052132Y-89549500D01*
X154052130Y-89549499D01*
X154025001Y-89544103D01*
X154025000Y-89544103D01*
X154005017Y-89548078D01*
X153990580Y-89549500D01*
X153404967Y-89549500D01*
X153357401Y-89532187D01*
X153332091Y-89488350D01*
X153331878Y-89487076D01*
X153324719Y-89441874D01*
X153263528Y-89321780D01*
X153168220Y-89226472D01*
X153168219Y-89226472D01*
X153168219Y-89226471D01*
X153048126Y-89165281D01*
X153048125Y-89165280D01*
X152948489Y-89149500D01*
X152948488Y-89149500D01*
X152434768Y-89149500D01*
X152387202Y-89132187D01*
X152382442Y-89127826D01*
X152181442Y-88926826D01*
X152160050Y-88880950D01*
X152173151Y-88832055D01*
X152214615Y-88803021D01*
X152233768Y-88800500D01*
X155292348Y-88800500D01*
X155339914Y-88817813D01*
G37*
%TD.AperFunction*%
%TA.AperFunction,Conductor*%
G36*
X136842798Y-93022813D02*
G01*
X136847558Y-93027174D01*
X136850853Y-93030469D01*
X136860055Y-93041682D01*
X136871375Y-93058623D01*
X136871376Y-93058624D01*
X136891355Y-93071974D01*
X136894377Y-93073993D01*
X136894378Y-93073994D01*
X136917607Y-93089515D01*
X136962505Y-93119515D01*
X137042867Y-93135500D01*
X137042868Y-93135500D01*
X137069999Y-93140897D01*
X137070000Y-93140897D01*
X137089984Y-93136921D01*
X137104420Y-93135500D01*
X138110391Y-93135500D01*
X138157957Y-93152813D01*
X138183267Y-93196650D01*
X138177704Y-93240241D01*
X138163302Y-93271776D01*
X138144867Y-93399999D01*
X138144867Y-93400000D01*
X138146454Y-93411036D01*
X138163302Y-93528223D01*
X138163302Y-93528224D01*
X138163303Y-93528226D01*
X138217118Y-93646063D01*
X138301951Y-93743967D01*
X138410931Y-93814004D01*
X138535228Y-93850500D01*
X138664773Y-93850500D01*
X138689540Y-93843227D01*
X138721541Y-93833830D01*
X138742710Y-93832889D01*
X138742710Y-93830897D01*
X138750628Y-93830897D01*
X138754645Y-93832359D01*
X138756858Y-93832261D01*
X138757179Y-93832325D01*
X138757001Y-93833216D01*
X138798194Y-93848210D01*
X138823504Y-93892047D01*
X138818461Y-93931566D01*
X138818912Y-93931699D01*
X138818084Y-93934515D01*
X138817942Y-93935635D01*
X138817421Y-93936774D01*
X138798986Y-94065000D01*
X138817421Y-94193223D01*
X138817421Y-94193224D01*
X138817422Y-94193226D01*
X138871237Y-94311063D01*
X138956070Y-94408967D01*
X139038240Y-94461774D01*
X139065050Y-94479004D01*
X139189347Y-94515500D01*
X139316232Y-94515500D01*
X139363798Y-94532813D01*
X139389108Y-94576650D01*
X139380318Y-94626500D01*
X139368558Y-94641826D01*
X139146789Y-94863595D01*
X139100913Y-94884987D01*
X139094463Y-94885269D01*
X138065557Y-94885269D01*
X138017991Y-94867956D01*
X137992681Y-94824119D01*
X137998244Y-94780528D01*
X138001126Y-94774218D01*
X138026697Y-94718226D01*
X138045133Y-94590000D01*
X138026697Y-94461774D01*
X137972882Y-94343937D01*
X137888049Y-94246033D01*
X137821032Y-94202964D01*
X137779068Y-94175995D01*
X137654772Y-94139500D01*
X137525228Y-94139500D01*
X137524412Y-94139500D01*
X137476846Y-94122187D01*
X137472086Y-94117826D01*
X136954732Y-93600472D01*
X136945531Y-93589260D01*
X136935601Y-93574399D01*
X136931637Y-93571750D01*
X136877701Y-93535712D01*
X136852741Y-93519034D01*
X136755000Y-93499592D01*
X136737475Y-93503078D01*
X136723038Y-93504500D01*
X136582832Y-93504500D01*
X136535266Y-93487187D01*
X136526906Y-93478959D01*
X136468052Y-93411036D01*
X136468050Y-93411035D01*
X136468049Y-93411033D01*
X136372325Y-93349515D01*
X136359068Y-93340995D01*
X136234772Y-93304500D01*
X136105228Y-93304500D01*
X135980931Y-93340995D01*
X135871954Y-93411031D01*
X135871950Y-93411034D01*
X135787119Y-93508935D01*
X135733302Y-93626776D01*
X135714898Y-93754783D01*
X135714867Y-93755000D01*
X135717894Y-93776050D01*
X135733302Y-93883223D01*
X135733302Y-93883224D01*
X135733303Y-93883226D01*
X135787118Y-94001063D01*
X135871951Y-94098967D01*
X135980931Y-94169004D01*
X136105228Y-94205500D01*
X136234772Y-94205500D01*
X136359069Y-94169004D01*
X136468049Y-94098967D01*
X136526906Y-94031040D01*
X136571139Y-94006430D01*
X136582832Y-94005500D01*
X136620588Y-94005500D01*
X136668154Y-94022813D01*
X136672914Y-94027174D01*
X137121354Y-94475614D01*
X137142746Y-94521490D01*
X137142275Y-94538470D01*
X137135658Y-94584499D01*
X137134867Y-94590000D01*
X137136160Y-94598992D01*
X137153302Y-94718223D01*
X137153302Y-94718224D01*
X137153303Y-94718226D01*
X137178874Y-94774218D01*
X137181756Y-94780528D01*
X137185767Y-94830988D01*
X137156406Y-94872221D01*
X137114443Y-94885269D01*
X134846177Y-94885269D01*
X134831740Y-94883847D01*
X134811757Y-94879872D01*
X134811756Y-94879872D01*
X134784625Y-94885269D01*
X134784624Y-94885269D01*
X134769155Y-94888346D01*
X134704261Y-94901254D01*
X134672844Y-94922247D01*
X134638066Y-94945483D01*
X134638062Y-94945487D01*
X134613133Y-94962144D01*
X134613131Y-94962146D01*
X134601810Y-94979088D01*
X134592610Y-94990298D01*
X134339606Y-95243302D01*
X134328396Y-95252502D01*
X134311454Y-95263823D01*
X134311453Y-95263824D01*
X134296082Y-95286828D01*
X134285835Y-95302164D01*
X134250562Y-95354951D01*
X134250562Y-95354952D01*
X134244257Y-95386650D01*
X134241727Y-95399369D01*
X134229180Y-95462449D01*
X134231990Y-95476578D01*
X134233155Y-95482432D01*
X134234577Y-95496869D01*
X134234577Y-95583622D01*
X134217264Y-95631188D01*
X134173427Y-95656498D01*
X134150278Y-95656902D01*
X134147403Y-95656498D01*
X134116529Y-95652159D01*
X133834423Y-95612512D01*
X133784605Y-95610889D01*
X133777490Y-95610658D01*
X133777489Y-95610658D01*
X133643968Y-95640148D01*
X133524175Y-95706055D01*
X133427798Y-95803047D01*
X133427793Y-95803055D01*
X133391460Y-95870098D01*
X133353575Y-95903669D01*
X133302975Y-95905033D01*
X133263335Y-95873554D01*
X133252400Y-95834839D01*
X133252400Y-95598699D01*
X133269713Y-95551133D01*
X133274063Y-95546384D01*
X135793274Y-93027174D01*
X135839150Y-93005782D01*
X135845600Y-93005500D01*
X136795232Y-93005500D01*
X136842798Y-93022813D01*
G37*
%TD.AperFunction*%
%TA.AperFunction,Conductor*%
G36*
X139676935Y-88817813D02*
G01*
X139702245Y-88861650D01*
X139693455Y-88911500D01*
X139685294Y-88922960D01*
X139667121Y-88943932D01*
X139667119Y-88943934D01*
X139613302Y-89061776D01*
X139594867Y-89189999D01*
X139613302Y-89318223D01*
X139613302Y-89318224D01*
X139613303Y-89318226D01*
X139667118Y-89436063D01*
X139751951Y-89533967D01*
X139844305Y-89593319D01*
X139860931Y-89604004D01*
X139985228Y-89640500D01*
X140035165Y-89640500D01*
X140082731Y-89657813D01*
X140108041Y-89701650D01*
X140099251Y-89751500D01*
X140087491Y-89766826D01*
X139773006Y-90081310D01*
X139727129Y-90102702D01*
X139711022Y-90102351D01*
X139650000Y-90094318D01*
X139493239Y-90114955D01*
X139493238Y-90114955D01*
X139347158Y-90175464D01*
X139221720Y-90271715D01*
X139221715Y-90271720D01*
X139125464Y-90397158D01*
X139064955Y-90543238D01*
X139064955Y-90543239D01*
X139044318Y-90700000D01*
X139064955Y-90856760D01*
X139064955Y-90856761D01*
X139125464Y-91002841D01*
X139204199Y-91105452D01*
X139219421Y-91153728D01*
X139200049Y-91200494D01*
X139155150Y-91223867D01*
X139145491Y-91224500D01*
X137415589Y-91224500D01*
X137368023Y-91207187D01*
X137342713Y-91163350D01*
X137342342Y-91161032D01*
X137337624Y-91128223D01*
X137336697Y-91121774D01*
X137282882Y-91003937D01*
X137198049Y-90906033D01*
X137098340Y-90841954D01*
X137089068Y-90835995D01*
X136964772Y-90799500D01*
X136835228Y-90799500D01*
X136710931Y-90835995D01*
X136601954Y-90906031D01*
X136601950Y-90906034D01*
X136517119Y-91003935D01*
X136517118Y-91003936D01*
X136517118Y-91003937D01*
X136492852Y-91057071D01*
X136463302Y-91121776D01*
X136444867Y-91249999D01*
X136463302Y-91378223D01*
X136463302Y-91378224D01*
X136463303Y-91378226D01*
X136517118Y-91496063D01*
X136601951Y-91593967D01*
X136710931Y-91664004D01*
X136835228Y-91700500D01*
X136931735Y-91700500D01*
X136972847Y-91712971D01*
X136974377Y-91713993D01*
X136974378Y-91713994D01*
X137029013Y-91750500D01*
X137042505Y-91759515D01*
X137122867Y-91775500D01*
X137122871Y-91775500D01*
X137150000Y-91780896D01*
X137169979Y-91776922D01*
X137184416Y-91775500D01*
X141815580Y-91775500D01*
X141830016Y-91776921D01*
X141850000Y-91780897D01*
X141850001Y-91780897D01*
X141854622Y-91779977D01*
X141877132Y-91775500D01*
X141877133Y-91775500D01*
X141957495Y-91759515D01*
X141957497Y-91759513D01*
X141964232Y-91756725D01*
X141965202Y-91759068D01*
X141993435Y-91750500D01*
X142114772Y-91750500D01*
X142239069Y-91714004D01*
X142348049Y-91643967D01*
X142432882Y-91546063D01*
X142486697Y-91428226D01*
X142505133Y-91300000D01*
X142486697Y-91171774D01*
X142432882Y-91053937D01*
X142348049Y-90956033D01*
X142269418Y-90905500D01*
X142239068Y-90885995D01*
X142114772Y-90849500D01*
X141985228Y-90849500D01*
X141881021Y-90880097D01*
X141830504Y-90876886D01*
X141793869Y-90841954D01*
X141788259Y-90791647D01*
X141807847Y-90756768D01*
X141850116Y-90714500D01*
X142017441Y-90547174D01*
X142063319Y-90525782D01*
X142069768Y-90525500D01*
X143604193Y-90525500D01*
X143651759Y-90542813D01*
X143677069Y-90586650D01*
X143668279Y-90636500D01*
X143652651Y-90655427D01*
X143651952Y-90656032D01*
X143567119Y-90753935D01*
X143513302Y-90871776D01*
X143494867Y-91000000D01*
X143513302Y-91128223D01*
X143513302Y-91128224D01*
X143513303Y-91128226D01*
X143567118Y-91246063D01*
X143651951Y-91343967D01*
X143760931Y-91414004D01*
X143885228Y-91450500D01*
X144014772Y-91450500D01*
X144139069Y-91414004D01*
X144248049Y-91343967D01*
X144293908Y-91291041D01*
X144338142Y-91266430D01*
X144349835Y-91265500D01*
X146186941Y-91265500D01*
X146234507Y-91282813D01*
X146239267Y-91287174D01*
X148212562Y-93260469D01*
X148221764Y-93271682D01*
X148233084Y-93288623D01*
X148233085Y-93288624D01*
X148253064Y-93301974D01*
X148253065Y-93301974D01*
X148256085Y-93303992D01*
X148256087Y-93303994D01*
X148281549Y-93321007D01*
X148321920Y-93347983D01*
X148324209Y-93349512D01*
X148324210Y-93349512D01*
X148324214Y-93349515D01*
X148404576Y-93365500D01*
X148404580Y-93365500D01*
X148431709Y-93370896D01*
X148451688Y-93366922D01*
X148466125Y-93365500D01*
X149640982Y-93365500D01*
X149688548Y-93382813D01*
X149693308Y-93387174D01*
X150596605Y-94290471D01*
X150605807Y-94301684D01*
X150617126Y-94318624D01*
X150617127Y-94318625D01*
X150637106Y-94331975D01*
X150640128Y-94333994D01*
X150640129Y-94333995D01*
X150693534Y-94369679D01*
X150708256Y-94379516D01*
X150788618Y-94395501D01*
X150788619Y-94395500D01*
X150796655Y-94397099D01*
X150796660Y-94397099D01*
X150815751Y-94400897D01*
X150835731Y-94396921D01*
X150850170Y-94395500D01*
X151736247Y-94395500D01*
X151783813Y-94412813D01*
X151809123Y-94456650D01*
X151800333Y-94506500D01*
X151788573Y-94521826D01*
X151652573Y-94657826D01*
X151606697Y-94679218D01*
X151600247Y-94679500D01*
X149703701Y-94679500D01*
X149656135Y-94662187D01*
X149651375Y-94657826D01*
X149066751Y-94073202D01*
X149057548Y-94061987D01*
X149046232Y-94045051D01*
X149046230Y-94045049D01*
X149043672Y-94043340D01*
X149026250Y-94031698D01*
X149026247Y-94031696D01*
X149010954Y-94021478D01*
X148987041Y-94005500D01*
X148965383Y-93991028D01*
X148955102Y-93984158D01*
X148955103Y-93984158D01*
X148914920Y-93976165D01*
X148874739Y-93968173D01*
X148874738Y-93968173D01*
X148874736Y-93968172D01*
X148847607Y-93962776D01*
X148847606Y-93962776D01*
X148827623Y-93966751D01*
X148813186Y-93968173D01*
X148052568Y-93968173D01*
X148005002Y-93950860D01*
X148000242Y-93946499D01*
X147588272Y-93534529D01*
X147579069Y-93523314D01*
X147567753Y-93506378D01*
X147567751Y-93506376D01*
X147562815Y-93503078D01*
X147547771Y-93493025D01*
X147547768Y-93493023D01*
X147516304Y-93472000D01*
X147507172Y-93465898D01*
X147476622Y-93445485D01*
X147448433Y-93439878D01*
X147407025Y-93431641D01*
X147407018Y-93431638D01*
X147369129Y-93424103D01*
X147369127Y-93424103D01*
X147349139Y-93428078D01*
X147334706Y-93429499D01*
X146678564Y-93429499D01*
X146630998Y-93412186D01*
X146605688Y-93368349D01*
X146614478Y-93318499D01*
X146653255Y-93285962D01*
X146657716Y-93284496D01*
X146771779Y-93251005D01*
X146880759Y-93180968D01*
X146965592Y-93083064D01*
X147019407Y-92965227D01*
X147037843Y-92837001D01*
X147019407Y-92708775D01*
X146965592Y-92590938D01*
X146880759Y-92493034D01*
X146802184Y-92442537D01*
X146771778Y-92422996D01*
X146647482Y-92386501D01*
X146552478Y-92386501D01*
X146504912Y-92369188D01*
X146500152Y-92364827D01*
X146334854Y-92199529D01*
X146325651Y-92188314D01*
X146314335Y-92171378D01*
X146314333Y-92171376D01*
X146294353Y-92158025D01*
X146294350Y-92158023D01*
X146259145Y-92134500D01*
X146223204Y-92110485D01*
X146199319Y-92105734D01*
X146142842Y-92094500D01*
X146142841Y-92094500D01*
X146142839Y-92094499D01*
X146115710Y-92089103D01*
X146115709Y-92089103D01*
X146098602Y-92092506D01*
X146095726Y-92093078D01*
X146081289Y-92094500D01*
X137316591Y-92094500D01*
X137275480Y-92082030D01*
X137272600Y-92080106D01*
X137246276Y-92062517D01*
X137213299Y-92040482D01*
X137150467Y-92027986D01*
X137130691Y-92024052D01*
X137130675Y-92024050D01*
X137105803Y-92019103D01*
X137105802Y-92019103D01*
X137085820Y-92023078D01*
X137071382Y-92024500D01*
X135684420Y-92024500D01*
X135669983Y-92023078D01*
X135650000Y-92019103D01*
X135649999Y-92019103D01*
X135622867Y-92024500D01*
X135597258Y-92029594D01*
X135542504Y-92040485D01*
X135476305Y-92084718D01*
X135451376Y-92101375D01*
X135451374Y-92101377D01*
X135440053Y-92118319D01*
X135430853Y-92129529D01*
X132807558Y-94752826D01*
X132761682Y-94774218D01*
X132755232Y-94774500D01*
X131320600Y-94774500D01*
X131306163Y-94773078D01*
X131286180Y-94769103D01*
X131286179Y-94769103D01*
X131259048Y-94774500D01*
X131259047Y-94774500D01*
X131232259Y-94779828D01*
X131178683Y-94790485D01*
X131148722Y-94810506D01*
X131112489Y-94834714D01*
X131112485Y-94834718D01*
X131087556Y-94851375D01*
X131087554Y-94851377D01*
X131076233Y-94868319D01*
X131067033Y-94879529D01*
X130376826Y-95569737D01*
X130330950Y-95591129D01*
X130282055Y-95578028D01*
X130253022Y-95536564D01*
X130250500Y-95517411D01*
X130250500Y-94280253D01*
X130244383Y-94249500D01*
X130238867Y-94221769D01*
X130194552Y-94155448D01*
X130155719Y-94129500D01*
X130122171Y-94107083D01*
X130123730Y-94104749D01*
X130095411Y-94078793D01*
X130088476Y-94030194D01*
X130088866Y-94028232D01*
X130088867Y-94028231D01*
X130100500Y-93969748D01*
X130100500Y-93230252D01*
X130088867Y-93171769D01*
X130044552Y-93105448D01*
X130011053Y-93083064D01*
X129978232Y-93061133D01*
X129978233Y-93061133D01*
X129948989Y-93055316D01*
X129919748Y-93049500D01*
X129919746Y-93049500D01*
X129699500Y-93049500D01*
X129651934Y-93032187D01*
X129633350Y-93000000D01*
X130419628Y-93000000D01*
X130439085Y-93247226D01*
X130496975Y-93488358D01*
X130591876Y-93717470D01*
X130591881Y-93717480D01*
X130719926Y-93926429D01*
X130721452Y-93928919D01*
X130806272Y-94028231D01*
X130882505Y-94117489D01*
X130882510Y-94117494D01*
X130926948Y-94155447D01*
X131071081Y-94278548D01*
X131124141Y-94311063D01*
X131270735Y-94400897D01*
X131282526Y-94408122D01*
X131511638Y-94503023D01*
X131511639Y-94503023D01*
X131511641Y-94503024D01*
X131563608Y-94515500D01*
X131752775Y-94560915D01*
X132000000Y-94580372D01*
X132247225Y-94560915D01*
X132488362Y-94503023D01*
X132717474Y-94408122D01*
X132928919Y-94278548D01*
X133117492Y-94117492D01*
X133278548Y-93928919D01*
X133408122Y-93717474D01*
X133503023Y-93488362D01*
X133560915Y-93247225D01*
X133580372Y-93000000D01*
X133560915Y-92752775D01*
X133512654Y-92551753D01*
X133503024Y-92511641D01*
X133502852Y-92511224D01*
X133408122Y-92282526D01*
X133368920Y-92218555D01*
X133309629Y-92121801D01*
X133278548Y-92071081D01*
X133158511Y-91930535D01*
X133117494Y-91882510D01*
X133117489Y-91882505D01*
X133016279Y-91796064D01*
X132928919Y-91721452D01*
X132916749Y-91713994D01*
X132717480Y-91591881D01*
X132717470Y-91591876D01*
X132488358Y-91496975D01*
X132247226Y-91439085D01*
X132000000Y-91419628D01*
X131752773Y-91439085D01*
X131511641Y-91496975D01*
X131282529Y-91591876D01*
X131282519Y-91591881D01*
X131071083Y-91721450D01*
X131071082Y-91721451D01*
X130882510Y-91882505D01*
X130882505Y-91882510D01*
X130721451Y-92071082D01*
X130721450Y-92071083D01*
X130591881Y-92282519D01*
X130591876Y-92282529D01*
X130496975Y-92511641D01*
X130439085Y-92752773D01*
X130419628Y-93000000D01*
X129633350Y-93000000D01*
X129626624Y-92988350D01*
X129625500Y-92975500D01*
X129625500Y-92882347D01*
X129626922Y-92867910D01*
X129628009Y-92862445D01*
X129630897Y-92847927D01*
X129623174Y-92809103D01*
X129609515Y-92740432D01*
X129609515Y-92740431D01*
X129606020Y-92735202D01*
X129588602Y-92709134D01*
X129563994Y-92672305D01*
X129563992Y-92672303D01*
X129560491Y-92667064D01*
X129548624Y-92649303D01*
X129548623Y-92649302D01*
X129534564Y-92639908D01*
X129504633Y-92599087D01*
X129502431Y-92567846D01*
X129503497Y-92560438D01*
X129505275Y-92548069D01*
X129486839Y-92419843D01*
X129433024Y-92302006D01*
X129348191Y-92204102D01*
X129276500Y-92158029D01*
X129239210Y-92134064D01*
X129114914Y-92097569D01*
X128985370Y-92097569D01*
X128861073Y-92134064D01*
X128752096Y-92204100D01*
X128752092Y-92204103D01*
X128667261Y-92302004D01*
X128667260Y-92302005D01*
X128667260Y-92302006D01*
X128659800Y-92318342D01*
X128613444Y-92419845D01*
X128594256Y-92553307D01*
X128592575Y-92553065D01*
X128577696Y-92593946D01*
X128533859Y-92619256D01*
X128496228Y-92616107D01*
X128481096Y-92610729D01*
X128477438Y-92609204D01*
X128446904Y-92594500D01*
X128446903Y-92594500D01*
X128414217Y-92594500D01*
X128409890Y-92594246D01*
X127628239Y-92502286D01*
X127614346Y-92499277D01*
X127614223Y-92499237D01*
X127581626Y-92496453D01*
X127570762Y-92495525D01*
X127567379Y-92495127D01*
X127551012Y-92493201D01*
X127546858Y-92493181D01*
X127546859Y-92492881D01*
X127540600Y-92492949D01*
X127520752Y-92491254D01*
X127510573Y-92495127D01*
X127492185Y-92499537D01*
X127481363Y-92500702D01*
X127481359Y-92500704D01*
X127464432Y-92511224D01*
X127458830Y-92514003D01*
X127458966Y-92514267D01*
X127455278Y-92516167D01*
X127438742Y-92527191D01*
X127415959Y-92541350D01*
X127366421Y-92551753D01*
X127321785Y-92527880D01*
X127302938Y-92480900D01*
X127303237Y-92471438D01*
X127303456Y-92469153D01*
X127306136Y-92455308D01*
X127309900Y-92442537D01*
X127312891Y-92432390D01*
X127318148Y-92419309D01*
X127331584Y-92393358D01*
X127333340Y-92390329D01*
X127358212Y-92351806D01*
X127358212Y-92351805D01*
X128844317Y-90050000D01*
X132544867Y-90050000D01*
X132563302Y-90178223D01*
X132563302Y-90178224D01*
X132563303Y-90178226D01*
X132617118Y-90296063D01*
X132701951Y-90393967D01*
X132701952Y-90393968D01*
X132705417Y-90397966D01*
X132703532Y-90399598D01*
X132723568Y-90435595D01*
X132724500Y-90447300D01*
X132724499Y-90615579D01*
X132723078Y-90630013D01*
X132719103Y-90650000D01*
X132719102Y-90650000D01*
X132724500Y-90677132D01*
X132740485Y-90757496D01*
X132763124Y-90791376D01*
X132785256Y-90824500D01*
X132801376Y-90848624D01*
X132801378Y-90848626D01*
X132818314Y-90859942D01*
X132829529Y-90869145D01*
X133426910Y-91466526D01*
X133448302Y-91512402D01*
X133447831Y-91529382D01*
X133444867Y-91549999D01*
X133463302Y-91678223D01*
X133463302Y-91678224D01*
X133463303Y-91678226D01*
X133517118Y-91796063D01*
X133601951Y-91893967D01*
X133710931Y-91964004D01*
X133835228Y-92000500D01*
X133964772Y-92000500D01*
X134089069Y-91964004D01*
X134198049Y-91893967D01*
X134282882Y-91796063D01*
X134336697Y-91678226D01*
X134355133Y-91550000D01*
X134336697Y-91421774D01*
X134282882Y-91303937D01*
X134198049Y-91206033D01*
X134116661Y-91153728D01*
X134089068Y-91135995D01*
X133964772Y-91099500D01*
X133869768Y-91099500D01*
X133822202Y-91082187D01*
X133817442Y-91077826D01*
X133297173Y-90557558D01*
X133275781Y-90511682D01*
X133275499Y-90505232D01*
X133275499Y-90480756D01*
X133275499Y-90447298D01*
X133292812Y-90399734D01*
X133294802Y-90397712D01*
X133298044Y-90393969D01*
X133298049Y-90393967D01*
X133382882Y-90296063D01*
X133436697Y-90178226D01*
X133455133Y-90050000D01*
X133436697Y-89921774D01*
X133382882Y-89803937D01*
X133298049Y-89706033D01*
X133200456Y-89643314D01*
X133189068Y-89635995D01*
X133064772Y-89599500D01*
X132935228Y-89599500D01*
X132810931Y-89635995D01*
X132701954Y-89706031D01*
X132701950Y-89706034D01*
X132617119Y-89803935D01*
X132617118Y-89803936D01*
X132617118Y-89803937D01*
X132601990Y-89837063D01*
X132563302Y-89921776D01*
X132544867Y-90050000D01*
X128844317Y-90050000D01*
X129148316Y-89579141D01*
X129149622Y-89577252D01*
X129150268Y-89576377D01*
X129273290Y-89409633D01*
X129276245Y-89406110D01*
X129419015Y-89255997D01*
X129422391Y-89252866D01*
X129454649Y-89226471D01*
X129582708Y-89121684D01*
X129586448Y-89118994D01*
X129761838Y-89008767D01*
X129765888Y-89006562D01*
X129953621Y-88919005D01*
X129957917Y-88917319D01*
X129980891Y-88909916D01*
X130155096Y-88853784D01*
X130159547Y-88852652D01*
X130160994Y-88852378D01*
X130363101Y-88814131D01*
X130367642Y-88813562D01*
X130575773Y-88800571D01*
X130578067Y-88800500D01*
X130624307Y-88800501D01*
X130624310Y-88800500D01*
X139629369Y-88800500D01*
X139676935Y-88817813D01*
G37*
%TD.AperFunction*%
%TA.AperFunction,Conductor*%
G36*
X149623290Y-89172813D02*
G01*
X149648600Y-89216650D01*
X149643037Y-89260239D01*
X149636494Y-89274567D01*
X149614934Y-89321776D01*
X149596499Y-89450000D01*
X149614934Y-89578223D01*
X149614934Y-89578224D01*
X149614935Y-89578226D01*
X149668750Y-89696063D01*
X149753583Y-89793967D01*
X149862563Y-89864004D01*
X149986860Y-89900500D01*
X150081864Y-89900500D01*
X150129430Y-89917813D01*
X150134190Y-89922174D01*
X150207485Y-89995469D01*
X150216687Y-90006682D01*
X150228007Y-90023623D01*
X150228008Y-90023624D01*
X150247987Y-90036974D01*
X150251008Y-90038992D01*
X150251010Y-90038994D01*
X150254761Y-90041500D01*
X150319137Y-90084515D01*
X150399499Y-90100500D01*
X150399500Y-90100500D01*
X150433780Y-90107319D01*
X150433510Y-90108671D01*
X150473453Y-90123210D01*
X150498763Y-90167047D01*
X150498976Y-90168320D01*
X150505281Y-90208126D01*
X150563604Y-90322593D01*
X150566472Y-90328220D01*
X150661780Y-90423528D01*
X150764443Y-90475837D01*
X150774096Y-90480756D01*
X150808618Y-90517776D01*
X150814500Y-90546690D01*
X150814500Y-91074407D01*
X150797187Y-91121973D01*
X150769385Y-91140730D01*
X150769885Y-91141711D01*
X150764698Y-91144353D01*
X150764696Y-91144354D01*
X150654516Y-91200494D01*
X150651656Y-91201951D01*
X150561951Y-91291656D01*
X150504353Y-91404698D01*
X150489500Y-91498480D01*
X150489500Y-91788141D01*
X150472187Y-91835707D01*
X150428350Y-91861017D01*
X150378500Y-91852227D01*
X150374388Y-91849670D01*
X150357711Y-91838527D01*
X150315741Y-91810484D01*
X150315740Y-91810483D01*
X150235379Y-91794499D01*
X150235378Y-91794499D01*
X150235376Y-91794498D01*
X150208247Y-91789102D01*
X150208245Y-91789102D01*
X150188261Y-91793077D01*
X150173825Y-91794499D01*
X149677267Y-91794499D01*
X149629701Y-91777186D01*
X149624941Y-91772825D01*
X148390079Y-90537963D01*
X148368687Y-90492087D01*
X148381788Y-90443192D01*
X148423252Y-90414158D01*
X148453978Y-90412548D01*
X148535754Y-90425500D01*
X149039247Y-90425500D01*
X149137420Y-90409951D01*
X149255751Y-90349658D01*
X149349658Y-90255751D01*
X149409951Y-90137420D01*
X149425500Y-90039246D01*
X149425500Y-89460754D01*
X149409951Y-89362580D01*
X149374083Y-89292186D01*
X149359261Y-89263095D01*
X149353092Y-89212854D01*
X149380661Y-89170401D01*
X149425195Y-89155500D01*
X149575724Y-89155500D01*
X149623290Y-89172813D01*
G37*
%TD.AperFunction*%
%TD*%
M02*
