%TF.GenerationSoftware,KiCad,Pcbnew,7.0.8*%
%TF.CreationDate,2024-03-24T19:28:18+01:00*%
%TF.ProjectId,Heptachron,48657074-6163-4687-926f-6e2e6b696361,rev?*%
%TF.SameCoordinates,Original*%
%TF.FileFunction,Legend,Top*%
%TF.FilePolarity,Positive*%
%FSLAX46Y46*%
G04 Gerber Fmt 4.6, Leading zero omitted, Abs format (unit mm)*
G04 Created by KiCad (PCBNEW 7.0.8) date 2024-03-24 19:28:18*
%MOMM*%
%LPD*%
G01*
G04 APERTURE LIST*
%ADD10C,0.150000*%
%ADD11C,0.120000*%
G04 APERTURE END LIST*
D10*
X145200000Y-116400000D02*
G75*
G03*
X145200000Y-116400000I-300000J0D01*
G01*
X133200000Y-85400000D02*
G75*
G03*
X133200000Y-85400000I-300000J0D01*
G01*
X168600000Y-91400000D02*
G75*
G03*
X168600000Y-91400000I-300000J0D01*
G01*
X157336779Y-107939819D02*
X157336779Y-106939819D01*
X157336779Y-107416009D02*
X157908207Y-107416009D01*
X157908207Y-107939819D02*
X157908207Y-106939819D01*
X158384398Y-107416009D02*
X158717731Y-107416009D01*
X158860588Y-107939819D02*
X158384398Y-107939819D01*
X158384398Y-107939819D02*
X158384398Y-106939819D01*
X158384398Y-106939819D02*
X158860588Y-106939819D01*
X159289160Y-107939819D02*
X159289160Y-106939819D01*
X159289160Y-106939819D02*
X159670112Y-106939819D01*
X159670112Y-106939819D02*
X159765350Y-106987438D01*
X159765350Y-106987438D02*
X159812969Y-107035057D01*
X159812969Y-107035057D02*
X159860588Y-107130295D01*
X159860588Y-107130295D02*
X159860588Y-107273152D01*
X159860588Y-107273152D02*
X159812969Y-107368390D01*
X159812969Y-107368390D02*
X159765350Y-107416009D01*
X159765350Y-107416009D02*
X159670112Y-107463628D01*
X159670112Y-107463628D02*
X159289160Y-107463628D01*
X160146303Y-106939819D02*
X160717731Y-106939819D01*
X160432017Y-107939819D02*
X160432017Y-106939819D01*
X161003446Y-107654104D02*
X161479636Y-107654104D01*
X160908208Y-107939819D02*
X161241541Y-106939819D01*
X161241541Y-106939819D02*
X161574874Y-107939819D01*
X162479636Y-107844580D02*
X162432017Y-107892200D01*
X162432017Y-107892200D02*
X162289160Y-107939819D01*
X162289160Y-107939819D02*
X162193922Y-107939819D01*
X162193922Y-107939819D02*
X162051065Y-107892200D01*
X162051065Y-107892200D02*
X161955827Y-107796961D01*
X161955827Y-107796961D02*
X161908208Y-107701723D01*
X161908208Y-107701723D02*
X161860589Y-107511247D01*
X161860589Y-107511247D02*
X161860589Y-107368390D01*
X161860589Y-107368390D02*
X161908208Y-107177914D01*
X161908208Y-107177914D02*
X161955827Y-107082676D01*
X161955827Y-107082676D02*
X162051065Y-106987438D01*
X162051065Y-106987438D02*
X162193922Y-106939819D01*
X162193922Y-106939819D02*
X162289160Y-106939819D01*
X162289160Y-106939819D02*
X162432017Y-106987438D01*
X162432017Y-106987438D02*
X162479636Y-107035057D01*
X162908208Y-107939819D02*
X162908208Y-106939819D01*
X162908208Y-107416009D02*
X163479636Y-107416009D01*
X163479636Y-107939819D02*
X163479636Y-106939819D01*
X164527255Y-107939819D02*
X164193922Y-107463628D01*
X163955827Y-107939819D02*
X163955827Y-106939819D01*
X163955827Y-106939819D02*
X164336779Y-106939819D01*
X164336779Y-106939819D02*
X164432017Y-106987438D01*
X164432017Y-106987438D02*
X164479636Y-107035057D01*
X164479636Y-107035057D02*
X164527255Y-107130295D01*
X164527255Y-107130295D02*
X164527255Y-107273152D01*
X164527255Y-107273152D02*
X164479636Y-107368390D01*
X164479636Y-107368390D02*
X164432017Y-107416009D01*
X164432017Y-107416009D02*
X164336779Y-107463628D01*
X164336779Y-107463628D02*
X163955827Y-107463628D01*
X165146303Y-106939819D02*
X165336779Y-106939819D01*
X165336779Y-106939819D02*
X165432017Y-106987438D01*
X165432017Y-106987438D02*
X165527255Y-107082676D01*
X165527255Y-107082676D02*
X165574874Y-107273152D01*
X165574874Y-107273152D02*
X165574874Y-107606485D01*
X165574874Y-107606485D02*
X165527255Y-107796961D01*
X165527255Y-107796961D02*
X165432017Y-107892200D01*
X165432017Y-107892200D02*
X165336779Y-107939819D01*
X165336779Y-107939819D02*
X165146303Y-107939819D01*
X165146303Y-107939819D02*
X165051065Y-107892200D01*
X165051065Y-107892200D02*
X164955827Y-107796961D01*
X164955827Y-107796961D02*
X164908208Y-107606485D01*
X164908208Y-107606485D02*
X164908208Y-107273152D01*
X164908208Y-107273152D02*
X164955827Y-107082676D01*
X164955827Y-107082676D02*
X165051065Y-106987438D01*
X165051065Y-106987438D02*
X165146303Y-106939819D01*
X166003446Y-107939819D02*
X166003446Y-106939819D01*
X166003446Y-106939819D02*
X166574874Y-107939819D01*
X166574874Y-107939819D02*
X166574874Y-106939819D01*
X168241541Y-107939819D02*
X168241541Y-107416009D01*
X168241541Y-107416009D02*
X168193922Y-107320771D01*
X168193922Y-107320771D02*
X168098684Y-107273152D01*
X168098684Y-107273152D02*
X167908208Y-107273152D01*
X167908208Y-107273152D02*
X167812970Y-107320771D01*
X168241541Y-107892200D02*
X168146303Y-107939819D01*
X168146303Y-107939819D02*
X167908208Y-107939819D01*
X167908208Y-107939819D02*
X167812970Y-107892200D01*
X167812970Y-107892200D02*
X167765351Y-107796961D01*
X167765351Y-107796961D02*
X167765351Y-107701723D01*
X167765351Y-107701723D02*
X167812970Y-107606485D01*
X167812970Y-107606485D02*
X167908208Y-107558866D01*
X167908208Y-107558866D02*
X168146303Y-107558866D01*
X168146303Y-107558866D02*
X168241541Y-107511247D01*
X168860589Y-107939819D02*
X168765351Y-107892200D01*
X168765351Y-107892200D02*
X168717732Y-107796961D01*
X168717732Y-107796961D02*
X168717732Y-106939819D01*
X169241542Y-107273152D02*
X169241542Y-108273152D01*
X169241542Y-107320771D02*
X169336780Y-107273152D01*
X169336780Y-107273152D02*
X169527256Y-107273152D01*
X169527256Y-107273152D02*
X169622494Y-107320771D01*
X169622494Y-107320771D02*
X169670113Y-107368390D01*
X169670113Y-107368390D02*
X169717732Y-107463628D01*
X169717732Y-107463628D02*
X169717732Y-107749342D01*
X169717732Y-107749342D02*
X169670113Y-107844580D01*
X169670113Y-107844580D02*
X169622494Y-107892200D01*
X169622494Y-107892200D02*
X169527256Y-107939819D01*
X169527256Y-107939819D02*
X169336780Y-107939819D01*
X169336780Y-107939819D02*
X169241542Y-107892200D01*
X170146304Y-107939819D02*
X170146304Y-106939819D01*
X170574875Y-107939819D02*
X170574875Y-107416009D01*
X170574875Y-107416009D02*
X170527256Y-107320771D01*
X170527256Y-107320771D02*
X170432018Y-107273152D01*
X170432018Y-107273152D02*
X170289161Y-107273152D01*
X170289161Y-107273152D02*
X170193923Y-107320771D01*
X170193923Y-107320771D02*
X170146304Y-107368390D01*
X171479637Y-107939819D02*
X171479637Y-107416009D01*
X171479637Y-107416009D02*
X171432018Y-107320771D01*
X171432018Y-107320771D02*
X171336780Y-107273152D01*
X171336780Y-107273152D02*
X171146304Y-107273152D01*
X171146304Y-107273152D02*
X171051066Y-107320771D01*
X171479637Y-107892200D02*
X171384399Y-107939819D01*
X171384399Y-107939819D02*
X171146304Y-107939819D01*
X171146304Y-107939819D02*
X171051066Y-107892200D01*
X171051066Y-107892200D02*
X171003447Y-107796961D01*
X171003447Y-107796961D02*
X171003447Y-107701723D01*
X171003447Y-107701723D02*
X171051066Y-107606485D01*
X171051066Y-107606485D02*
X171146304Y-107558866D01*
X171146304Y-107558866D02*
X171384399Y-107558866D01*
X171384399Y-107558866D02*
X171479637Y-107511247D01*
X172479637Y-107939819D02*
X171908209Y-107939819D01*
X172193923Y-107939819D02*
X172193923Y-106939819D01*
X172193923Y-106939819D02*
X172098685Y-107082676D01*
X172098685Y-107082676D02*
X172003447Y-107177914D01*
X172003447Y-107177914D02*
X171908209Y-107225533D01*
X157289160Y-109264104D02*
X157765350Y-109264104D01*
X157193922Y-109549819D02*
X157527255Y-108549819D01*
X157527255Y-108549819D02*
X157860588Y-109549819D01*
X158622493Y-109549819D02*
X158622493Y-108549819D01*
X158622493Y-109502200D02*
X158527255Y-109549819D01*
X158527255Y-109549819D02*
X158336779Y-109549819D01*
X158336779Y-109549819D02*
X158241541Y-109502200D01*
X158241541Y-109502200D02*
X158193922Y-109454580D01*
X158193922Y-109454580D02*
X158146303Y-109359342D01*
X158146303Y-109359342D02*
X158146303Y-109073628D01*
X158146303Y-109073628D02*
X158193922Y-108978390D01*
X158193922Y-108978390D02*
X158241541Y-108930771D01*
X158241541Y-108930771D02*
X158336779Y-108883152D01*
X158336779Y-108883152D02*
X158527255Y-108883152D01*
X158527255Y-108883152D02*
X158622493Y-108930771D01*
X159527255Y-109549819D02*
X159527255Y-109026009D01*
X159527255Y-109026009D02*
X159479636Y-108930771D01*
X159479636Y-108930771D02*
X159384398Y-108883152D01*
X159384398Y-108883152D02*
X159193922Y-108883152D01*
X159193922Y-108883152D02*
X159098684Y-108930771D01*
X159527255Y-109502200D02*
X159432017Y-109549819D01*
X159432017Y-109549819D02*
X159193922Y-109549819D01*
X159193922Y-109549819D02*
X159098684Y-109502200D01*
X159098684Y-109502200D02*
X159051065Y-109406961D01*
X159051065Y-109406961D02*
X159051065Y-109311723D01*
X159051065Y-109311723D02*
X159098684Y-109216485D01*
X159098684Y-109216485D02*
X159193922Y-109168866D01*
X159193922Y-109168866D02*
X159432017Y-109168866D01*
X159432017Y-109168866D02*
X159527255Y-109121247D01*
X160003446Y-109549819D02*
X160003446Y-108883152D01*
X160003446Y-108978390D02*
X160051065Y-108930771D01*
X160051065Y-108930771D02*
X160146303Y-108883152D01*
X160146303Y-108883152D02*
X160289160Y-108883152D01*
X160289160Y-108883152D02*
X160384398Y-108930771D01*
X160384398Y-108930771D02*
X160432017Y-109026009D01*
X160432017Y-109026009D02*
X160432017Y-109549819D01*
X160432017Y-109026009D02*
X160479636Y-108930771D01*
X160479636Y-108930771D02*
X160574874Y-108883152D01*
X160574874Y-108883152D02*
X160717731Y-108883152D01*
X160717731Y-108883152D02*
X160812970Y-108930771D01*
X160812970Y-108930771D02*
X160860589Y-109026009D01*
X160860589Y-109026009D02*
X160860589Y-109549819D01*
X162051065Y-109264104D02*
X162527255Y-109264104D01*
X161955827Y-109549819D02*
X162289160Y-108549819D01*
X162289160Y-108549819D02*
X162622493Y-109549819D01*
X162955827Y-108883152D02*
X162955827Y-109549819D01*
X162955827Y-108978390D02*
X163003446Y-108930771D01*
X163003446Y-108930771D02*
X163098684Y-108883152D01*
X163098684Y-108883152D02*
X163241541Y-108883152D01*
X163241541Y-108883152D02*
X163336779Y-108930771D01*
X163336779Y-108930771D02*
X163384398Y-109026009D01*
X163384398Y-109026009D02*
X163384398Y-109549819D01*
X164289160Y-109549819D02*
X164289160Y-108549819D01*
X164289160Y-109502200D02*
X164193922Y-109549819D01*
X164193922Y-109549819D02*
X164003446Y-109549819D01*
X164003446Y-109549819D02*
X163908208Y-109502200D01*
X163908208Y-109502200D02*
X163860589Y-109454580D01*
X163860589Y-109454580D02*
X163812970Y-109359342D01*
X163812970Y-109359342D02*
X163812970Y-109073628D01*
X163812970Y-109073628D02*
X163860589Y-108978390D01*
X163860589Y-108978390D02*
X163908208Y-108930771D01*
X163908208Y-108930771D02*
X164003446Y-108883152D01*
X164003446Y-108883152D02*
X164193922Y-108883152D01*
X164193922Y-108883152D02*
X164289160Y-108930771D01*
X165146303Y-109502200D02*
X165051065Y-109549819D01*
X165051065Y-109549819D02*
X164860589Y-109549819D01*
X164860589Y-109549819D02*
X164765351Y-109502200D01*
X164765351Y-109502200D02*
X164717732Y-109406961D01*
X164717732Y-109406961D02*
X164717732Y-109026009D01*
X164717732Y-109026009D02*
X164765351Y-108930771D01*
X164765351Y-108930771D02*
X164860589Y-108883152D01*
X164860589Y-108883152D02*
X165051065Y-108883152D01*
X165051065Y-108883152D02*
X165146303Y-108930771D01*
X165146303Y-108930771D02*
X165193922Y-109026009D01*
X165193922Y-109026009D02*
X165193922Y-109121247D01*
X165193922Y-109121247D02*
X164717732Y-109216485D01*
X165622494Y-109549819D02*
X165622494Y-108883152D01*
X165622494Y-109073628D02*
X165670113Y-108978390D01*
X165670113Y-108978390D02*
X165717732Y-108930771D01*
X165717732Y-108930771D02*
X165812970Y-108883152D01*
X165812970Y-108883152D02*
X165908208Y-108883152D01*
X166193923Y-109502200D02*
X166289161Y-109549819D01*
X166289161Y-109549819D02*
X166479637Y-109549819D01*
X166479637Y-109549819D02*
X166574875Y-109502200D01*
X166574875Y-109502200D02*
X166622494Y-109406961D01*
X166622494Y-109406961D02*
X166622494Y-109359342D01*
X166622494Y-109359342D02*
X166574875Y-109264104D01*
X166574875Y-109264104D02*
X166479637Y-109216485D01*
X166479637Y-109216485D02*
X166336780Y-109216485D01*
X166336780Y-109216485D02*
X166241542Y-109168866D01*
X166241542Y-109168866D02*
X166193923Y-109073628D01*
X166193923Y-109073628D02*
X166193923Y-109026009D01*
X166193923Y-109026009D02*
X166241542Y-108930771D01*
X166241542Y-108930771D02*
X166336780Y-108883152D01*
X166336780Y-108883152D02*
X166479637Y-108883152D01*
X166479637Y-108883152D02*
X166574875Y-108930771D01*
X167193923Y-109549819D02*
X167098685Y-109502200D01*
X167098685Y-109502200D02*
X167051066Y-109454580D01*
X167051066Y-109454580D02*
X167003447Y-109359342D01*
X167003447Y-109359342D02*
X167003447Y-109073628D01*
X167003447Y-109073628D02*
X167051066Y-108978390D01*
X167051066Y-108978390D02*
X167098685Y-108930771D01*
X167098685Y-108930771D02*
X167193923Y-108883152D01*
X167193923Y-108883152D02*
X167336780Y-108883152D01*
X167336780Y-108883152D02*
X167432018Y-108930771D01*
X167432018Y-108930771D02*
X167479637Y-108978390D01*
X167479637Y-108978390D02*
X167527256Y-109073628D01*
X167527256Y-109073628D02*
X167527256Y-109359342D01*
X167527256Y-109359342D02*
X167479637Y-109454580D01*
X167479637Y-109454580D02*
X167432018Y-109502200D01*
X167432018Y-109502200D02*
X167336780Y-109549819D01*
X167336780Y-109549819D02*
X167193923Y-109549819D01*
X167955828Y-108883152D02*
X167955828Y-109549819D01*
X167955828Y-108978390D02*
X168003447Y-108930771D01*
X168003447Y-108930771D02*
X168098685Y-108883152D01*
X168098685Y-108883152D02*
X168241542Y-108883152D01*
X168241542Y-108883152D02*
X168336780Y-108930771D01*
X168336780Y-108930771D02*
X168384399Y-109026009D01*
X168384399Y-109026009D02*
X168384399Y-109549819D01*
X157860588Y-110207438D02*
X157765350Y-110159819D01*
X157765350Y-110159819D02*
X157622493Y-110159819D01*
X157622493Y-110159819D02*
X157479636Y-110207438D01*
X157479636Y-110207438D02*
X157384398Y-110302676D01*
X157384398Y-110302676D02*
X157336779Y-110397914D01*
X157336779Y-110397914D02*
X157289160Y-110588390D01*
X157289160Y-110588390D02*
X157289160Y-110731247D01*
X157289160Y-110731247D02*
X157336779Y-110921723D01*
X157336779Y-110921723D02*
X157384398Y-111016961D01*
X157384398Y-111016961D02*
X157479636Y-111112200D01*
X157479636Y-111112200D02*
X157622493Y-111159819D01*
X157622493Y-111159819D02*
X157717731Y-111159819D01*
X157717731Y-111159819D02*
X157860588Y-111112200D01*
X157860588Y-111112200D02*
X157908207Y-111064580D01*
X157908207Y-111064580D02*
X157908207Y-110731247D01*
X157908207Y-110731247D02*
X157717731Y-110731247D01*
X158765350Y-110493152D02*
X158765350Y-111159819D01*
X158336779Y-110493152D02*
X158336779Y-111016961D01*
X158336779Y-111016961D02*
X158384398Y-111112200D01*
X158384398Y-111112200D02*
X158479636Y-111159819D01*
X158479636Y-111159819D02*
X158622493Y-111159819D01*
X158622493Y-111159819D02*
X158717731Y-111112200D01*
X158717731Y-111112200D02*
X158765350Y-111064580D01*
X159193922Y-111112200D02*
X159289160Y-111159819D01*
X159289160Y-111159819D02*
X159479636Y-111159819D01*
X159479636Y-111159819D02*
X159574874Y-111112200D01*
X159574874Y-111112200D02*
X159622493Y-111016961D01*
X159622493Y-111016961D02*
X159622493Y-110969342D01*
X159622493Y-110969342D02*
X159574874Y-110874104D01*
X159574874Y-110874104D02*
X159479636Y-110826485D01*
X159479636Y-110826485D02*
X159336779Y-110826485D01*
X159336779Y-110826485D02*
X159241541Y-110778866D01*
X159241541Y-110778866D02*
X159193922Y-110683628D01*
X159193922Y-110683628D02*
X159193922Y-110636009D01*
X159193922Y-110636009D02*
X159241541Y-110540771D01*
X159241541Y-110540771D02*
X159336779Y-110493152D01*
X159336779Y-110493152D02*
X159479636Y-110493152D01*
X159479636Y-110493152D02*
X159574874Y-110540771D01*
X159908208Y-110493152D02*
X160289160Y-110493152D01*
X160051065Y-110159819D02*
X160051065Y-111016961D01*
X160051065Y-111016961D02*
X160098684Y-111112200D01*
X160098684Y-111112200D02*
X160193922Y-111159819D01*
X160193922Y-111159819D02*
X160289160Y-111159819D01*
X161051065Y-111159819D02*
X161051065Y-110636009D01*
X161051065Y-110636009D02*
X161003446Y-110540771D01*
X161003446Y-110540771D02*
X160908208Y-110493152D01*
X160908208Y-110493152D02*
X160717732Y-110493152D01*
X160717732Y-110493152D02*
X160622494Y-110540771D01*
X161051065Y-111112200D02*
X160955827Y-111159819D01*
X160955827Y-111159819D02*
X160717732Y-111159819D01*
X160717732Y-111159819D02*
X160622494Y-111112200D01*
X160622494Y-111112200D02*
X160574875Y-111016961D01*
X160574875Y-111016961D02*
X160574875Y-110921723D01*
X160574875Y-110921723D02*
X160622494Y-110826485D01*
X160622494Y-110826485D02*
X160717732Y-110778866D01*
X160717732Y-110778866D02*
X160955827Y-110778866D01*
X160955827Y-110778866D02*
X161051065Y-110731247D01*
X161432018Y-110493152D02*
X161670113Y-111159819D01*
X161670113Y-111159819D02*
X161908208Y-110493152D01*
X163003447Y-110874104D02*
X163479637Y-110874104D01*
X162908209Y-111159819D02*
X163241542Y-110159819D01*
X163241542Y-110159819D02*
X163574875Y-111159819D01*
X163908209Y-111159819D02*
X163908209Y-110159819D01*
X163908209Y-110540771D02*
X164003447Y-110493152D01*
X164003447Y-110493152D02*
X164193923Y-110493152D01*
X164193923Y-110493152D02*
X164289161Y-110540771D01*
X164289161Y-110540771D02*
X164336780Y-110588390D01*
X164336780Y-110588390D02*
X164384399Y-110683628D01*
X164384399Y-110683628D02*
X164384399Y-110969342D01*
X164384399Y-110969342D02*
X164336780Y-111064580D01*
X164336780Y-111064580D02*
X164289161Y-111112200D01*
X164289161Y-111112200D02*
X164193923Y-111159819D01*
X164193923Y-111159819D02*
X164003447Y-111159819D01*
X164003447Y-111159819D02*
X163908209Y-111112200D01*
X164812971Y-111159819D02*
X164812971Y-110493152D01*
X164812971Y-110683628D02*
X164860590Y-110588390D01*
X164860590Y-110588390D02*
X164908209Y-110540771D01*
X164908209Y-110540771D02*
X165003447Y-110493152D01*
X165003447Y-110493152D02*
X165098685Y-110493152D01*
X165860590Y-111159819D02*
X165860590Y-110636009D01*
X165860590Y-110636009D02*
X165812971Y-110540771D01*
X165812971Y-110540771D02*
X165717733Y-110493152D01*
X165717733Y-110493152D02*
X165527257Y-110493152D01*
X165527257Y-110493152D02*
X165432019Y-110540771D01*
X165860590Y-111112200D02*
X165765352Y-111159819D01*
X165765352Y-111159819D02*
X165527257Y-111159819D01*
X165527257Y-111159819D02*
X165432019Y-111112200D01*
X165432019Y-111112200D02*
X165384400Y-111016961D01*
X165384400Y-111016961D02*
X165384400Y-110921723D01*
X165384400Y-110921723D02*
X165432019Y-110826485D01*
X165432019Y-110826485D02*
X165527257Y-110778866D01*
X165527257Y-110778866D02*
X165765352Y-110778866D01*
X165765352Y-110778866D02*
X165860590Y-110731247D01*
X166336781Y-111159819D02*
X166336781Y-110159819D01*
X166765352Y-111159819D02*
X166765352Y-110636009D01*
X166765352Y-110636009D02*
X166717733Y-110540771D01*
X166717733Y-110540771D02*
X166622495Y-110493152D01*
X166622495Y-110493152D02*
X166479638Y-110493152D01*
X166479638Y-110493152D02*
X166384400Y-110540771D01*
X166384400Y-110540771D02*
X166336781Y-110588390D01*
X167670114Y-111159819D02*
X167670114Y-110636009D01*
X167670114Y-110636009D02*
X167622495Y-110540771D01*
X167622495Y-110540771D02*
X167527257Y-110493152D01*
X167527257Y-110493152D02*
X167336781Y-110493152D01*
X167336781Y-110493152D02*
X167241543Y-110540771D01*
X167670114Y-111112200D02*
X167574876Y-111159819D01*
X167574876Y-111159819D02*
X167336781Y-111159819D01*
X167336781Y-111159819D02*
X167241543Y-111112200D01*
X167241543Y-111112200D02*
X167193924Y-111016961D01*
X167193924Y-111016961D02*
X167193924Y-110921723D01*
X167193924Y-110921723D02*
X167241543Y-110826485D01*
X167241543Y-110826485D02*
X167336781Y-110778866D01*
X167336781Y-110778866D02*
X167574876Y-110778866D01*
X167574876Y-110778866D02*
X167670114Y-110731247D01*
X168146305Y-111159819D02*
X168146305Y-110493152D01*
X168146305Y-110588390D02*
X168193924Y-110540771D01*
X168193924Y-110540771D02*
X168289162Y-110493152D01*
X168289162Y-110493152D02*
X168432019Y-110493152D01*
X168432019Y-110493152D02*
X168527257Y-110540771D01*
X168527257Y-110540771D02*
X168574876Y-110636009D01*
X168574876Y-110636009D02*
X168574876Y-111159819D01*
X168574876Y-110636009D02*
X168622495Y-110540771D01*
X168622495Y-110540771D02*
X168717733Y-110493152D01*
X168717733Y-110493152D02*
X168860590Y-110493152D01*
X168860590Y-110493152D02*
X168955829Y-110540771D01*
X168955829Y-110540771D02*
X169003448Y-110636009D01*
X169003448Y-110636009D02*
X169003448Y-111159819D01*
X169432019Y-111112200D02*
X169527257Y-111159819D01*
X169527257Y-111159819D02*
X169717733Y-111159819D01*
X169717733Y-111159819D02*
X169812971Y-111112200D01*
X169812971Y-111112200D02*
X169860590Y-111016961D01*
X169860590Y-111016961D02*
X169860590Y-110969342D01*
X169860590Y-110969342D02*
X169812971Y-110874104D01*
X169812971Y-110874104D02*
X169717733Y-110826485D01*
X169717733Y-110826485D02*
X169574876Y-110826485D01*
X169574876Y-110826485D02*
X169479638Y-110778866D01*
X169479638Y-110778866D02*
X169432019Y-110683628D01*
X169432019Y-110683628D02*
X169432019Y-110636009D01*
X169432019Y-110636009D02*
X169479638Y-110540771D01*
X169479638Y-110540771D02*
X169574876Y-110493152D01*
X169574876Y-110493152D02*
X169717733Y-110493152D01*
X169717733Y-110493152D02*
X169812971Y-110540771D01*
X170241543Y-111112200D02*
X170336781Y-111159819D01*
X170336781Y-111159819D02*
X170527257Y-111159819D01*
X170527257Y-111159819D02*
X170622495Y-111112200D01*
X170622495Y-111112200D02*
X170670114Y-111016961D01*
X170670114Y-111016961D02*
X170670114Y-110969342D01*
X170670114Y-110969342D02*
X170622495Y-110874104D01*
X170622495Y-110874104D02*
X170527257Y-110826485D01*
X170527257Y-110826485D02*
X170384400Y-110826485D01*
X170384400Y-110826485D02*
X170289162Y-110778866D01*
X170289162Y-110778866D02*
X170241543Y-110683628D01*
X170241543Y-110683628D02*
X170241543Y-110636009D01*
X170241543Y-110636009D02*
X170289162Y-110540771D01*
X170289162Y-110540771D02*
X170384400Y-110493152D01*
X170384400Y-110493152D02*
X170527257Y-110493152D01*
X170527257Y-110493152D02*
X170622495Y-110540771D01*
X171241543Y-111159819D02*
X171146305Y-111112200D01*
X171146305Y-111112200D02*
X171098686Y-111064580D01*
X171098686Y-111064580D02*
X171051067Y-110969342D01*
X171051067Y-110969342D02*
X171051067Y-110683628D01*
X171051067Y-110683628D02*
X171098686Y-110588390D01*
X171098686Y-110588390D02*
X171146305Y-110540771D01*
X171146305Y-110540771D02*
X171241543Y-110493152D01*
X171241543Y-110493152D02*
X171384400Y-110493152D01*
X171384400Y-110493152D02*
X171479638Y-110540771D01*
X171479638Y-110540771D02*
X171527257Y-110588390D01*
X171527257Y-110588390D02*
X171574876Y-110683628D01*
X171574876Y-110683628D02*
X171574876Y-110969342D01*
X171574876Y-110969342D02*
X171527257Y-111064580D01*
X171527257Y-111064580D02*
X171479638Y-111112200D01*
X171479638Y-111112200D02*
X171384400Y-111159819D01*
X171384400Y-111159819D02*
X171241543Y-111159819D01*
X172003448Y-110493152D02*
X172003448Y-111159819D01*
X172003448Y-110588390D02*
X172051067Y-110540771D01*
X172051067Y-110540771D02*
X172146305Y-110493152D01*
X172146305Y-110493152D02*
X172289162Y-110493152D01*
X172289162Y-110493152D02*
X172384400Y-110540771D01*
X172384400Y-110540771D02*
X172432019Y-110636009D01*
X172432019Y-110636009D02*
X172432019Y-111159819D01*
X157289160Y-111865057D02*
X157336779Y-111817438D01*
X157336779Y-111817438D02*
X157432017Y-111769819D01*
X157432017Y-111769819D02*
X157670112Y-111769819D01*
X157670112Y-111769819D02*
X157765350Y-111817438D01*
X157765350Y-111817438D02*
X157812969Y-111865057D01*
X157812969Y-111865057D02*
X157860588Y-111960295D01*
X157860588Y-111960295D02*
X157860588Y-112055533D01*
X157860588Y-112055533D02*
X157812969Y-112198390D01*
X157812969Y-112198390D02*
X157241541Y-112769819D01*
X157241541Y-112769819D02*
X157860588Y-112769819D01*
X158479636Y-111769819D02*
X158574874Y-111769819D01*
X158574874Y-111769819D02*
X158670112Y-111817438D01*
X158670112Y-111817438D02*
X158717731Y-111865057D01*
X158717731Y-111865057D02*
X158765350Y-111960295D01*
X158765350Y-111960295D02*
X158812969Y-112150771D01*
X158812969Y-112150771D02*
X158812969Y-112388866D01*
X158812969Y-112388866D02*
X158765350Y-112579342D01*
X158765350Y-112579342D02*
X158717731Y-112674580D01*
X158717731Y-112674580D02*
X158670112Y-112722200D01*
X158670112Y-112722200D02*
X158574874Y-112769819D01*
X158574874Y-112769819D02*
X158479636Y-112769819D01*
X158479636Y-112769819D02*
X158384398Y-112722200D01*
X158384398Y-112722200D02*
X158336779Y-112674580D01*
X158336779Y-112674580D02*
X158289160Y-112579342D01*
X158289160Y-112579342D02*
X158241541Y-112388866D01*
X158241541Y-112388866D02*
X158241541Y-112150771D01*
X158241541Y-112150771D02*
X158289160Y-111960295D01*
X158289160Y-111960295D02*
X158336779Y-111865057D01*
X158336779Y-111865057D02*
X158384398Y-111817438D01*
X158384398Y-111817438D02*
X158479636Y-111769819D01*
X159193922Y-111865057D02*
X159241541Y-111817438D01*
X159241541Y-111817438D02*
X159336779Y-111769819D01*
X159336779Y-111769819D02*
X159574874Y-111769819D01*
X159574874Y-111769819D02*
X159670112Y-111817438D01*
X159670112Y-111817438D02*
X159717731Y-111865057D01*
X159717731Y-111865057D02*
X159765350Y-111960295D01*
X159765350Y-111960295D02*
X159765350Y-112055533D01*
X159765350Y-112055533D02*
X159717731Y-112198390D01*
X159717731Y-112198390D02*
X159146303Y-112769819D01*
X159146303Y-112769819D02*
X159765350Y-112769819D01*
X160622493Y-112103152D02*
X160622493Y-112769819D01*
X160384398Y-111722200D02*
X160146303Y-112436485D01*
X160146303Y-112436485D02*
X160765350Y-112436485D01*
X123336779Y-120388866D02*
X124098684Y-120388866D01*
X123717731Y-120769819D02*
X123717731Y-120007914D01*
X124908207Y-120246009D02*
X125051064Y-120293628D01*
X125051064Y-120293628D02*
X125098683Y-120341247D01*
X125098683Y-120341247D02*
X125146302Y-120436485D01*
X125146302Y-120436485D02*
X125146302Y-120579342D01*
X125146302Y-120579342D02*
X125098683Y-120674580D01*
X125098683Y-120674580D02*
X125051064Y-120722200D01*
X125051064Y-120722200D02*
X124955826Y-120769819D01*
X124955826Y-120769819D02*
X124574874Y-120769819D01*
X124574874Y-120769819D02*
X124574874Y-119769819D01*
X124574874Y-119769819D02*
X124908207Y-119769819D01*
X124908207Y-119769819D02*
X125003445Y-119817438D01*
X125003445Y-119817438D02*
X125051064Y-119865057D01*
X125051064Y-119865057D02*
X125098683Y-119960295D01*
X125098683Y-119960295D02*
X125098683Y-120055533D01*
X125098683Y-120055533D02*
X125051064Y-120150771D01*
X125051064Y-120150771D02*
X125003445Y-120198390D01*
X125003445Y-120198390D02*
X124908207Y-120246009D01*
X124908207Y-120246009D02*
X124574874Y-120246009D01*
X125527255Y-120484104D02*
X126003445Y-120484104D01*
X125432017Y-120769819D02*
X125765350Y-119769819D01*
X125765350Y-119769819D02*
X126098683Y-120769819D01*
X126289160Y-119769819D02*
X126860588Y-119769819D01*
X126574874Y-120769819D02*
X126574874Y-119769819D01*
X124136779Y-117788866D02*
X124898684Y-117788866D01*
X124517731Y-118169819D02*
X124517731Y-117407914D01*
X125851064Y-117169819D02*
X125374874Y-117169819D01*
X125374874Y-117169819D02*
X125327255Y-117646009D01*
X125327255Y-117646009D02*
X125374874Y-117598390D01*
X125374874Y-117598390D02*
X125470112Y-117550771D01*
X125470112Y-117550771D02*
X125708207Y-117550771D01*
X125708207Y-117550771D02*
X125803445Y-117598390D01*
X125803445Y-117598390D02*
X125851064Y-117646009D01*
X125851064Y-117646009D02*
X125898683Y-117741247D01*
X125898683Y-117741247D02*
X125898683Y-117979342D01*
X125898683Y-117979342D02*
X125851064Y-118074580D01*
X125851064Y-118074580D02*
X125803445Y-118122200D01*
X125803445Y-118122200D02*
X125708207Y-118169819D01*
X125708207Y-118169819D02*
X125470112Y-118169819D01*
X125470112Y-118169819D02*
X125374874Y-118122200D01*
X125374874Y-118122200D02*
X125327255Y-118074580D01*
X126184398Y-117169819D02*
X126517731Y-118169819D01*
X126517731Y-118169819D02*
X126851064Y-117169819D01*
X124760588Y-114817438D02*
X124665350Y-114769819D01*
X124665350Y-114769819D02*
X124522493Y-114769819D01*
X124522493Y-114769819D02*
X124379636Y-114817438D01*
X124379636Y-114817438D02*
X124284398Y-114912676D01*
X124284398Y-114912676D02*
X124236779Y-115007914D01*
X124236779Y-115007914D02*
X124189160Y-115198390D01*
X124189160Y-115198390D02*
X124189160Y-115341247D01*
X124189160Y-115341247D02*
X124236779Y-115531723D01*
X124236779Y-115531723D02*
X124284398Y-115626961D01*
X124284398Y-115626961D02*
X124379636Y-115722200D01*
X124379636Y-115722200D02*
X124522493Y-115769819D01*
X124522493Y-115769819D02*
X124617731Y-115769819D01*
X124617731Y-115769819D02*
X124760588Y-115722200D01*
X124760588Y-115722200D02*
X124808207Y-115674580D01*
X124808207Y-115674580D02*
X124808207Y-115341247D01*
X124808207Y-115341247D02*
X124617731Y-115341247D01*
X125236779Y-115769819D02*
X125236779Y-114769819D01*
X125236779Y-114769819D02*
X125808207Y-115769819D01*
X125808207Y-115769819D02*
X125808207Y-114769819D01*
X126284398Y-115769819D02*
X126284398Y-114769819D01*
X126284398Y-114769819D02*
X126522493Y-114769819D01*
X126522493Y-114769819D02*
X126665350Y-114817438D01*
X126665350Y-114817438D02*
X126760588Y-114912676D01*
X126760588Y-114912676D02*
X126808207Y-115007914D01*
X126808207Y-115007914D02*
X126855826Y-115198390D01*
X126855826Y-115198390D02*
X126855826Y-115341247D01*
X126855826Y-115341247D02*
X126808207Y-115531723D01*
X126808207Y-115531723D02*
X126760588Y-115626961D01*
X126760588Y-115626961D02*
X126665350Y-115722200D01*
X126665350Y-115722200D02*
X126522493Y-115769819D01*
X126522493Y-115769819D02*
X126284398Y-115769819D01*
X133908207Y-115669819D02*
X133574874Y-115193628D01*
X133336779Y-115669819D02*
X133336779Y-114669819D01*
X133336779Y-114669819D02*
X133717731Y-114669819D01*
X133717731Y-114669819D02*
X133812969Y-114717438D01*
X133812969Y-114717438D02*
X133860588Y-114765057D01*
X133860588Y-114765057D02*
X133908207Y-114860295D01*
X133908207Y-114860295D02*
X133908207Y-115003152D01*
X133908207Y-115003152D02*
X133860588Y-115098390D01*
X133860588Y-115098390D02*
X133812969Y-115146009D01*
X133812969Y-115146009D02*
X133717731Y-115193628D01*
X133717731Y-115193628D02*
X133336779Y-115193628D01*
X134241541Y-114669819D02*
X134908207Y-115669819D01*
X134908207Y-114669819D02*
X134241541Y-115669819D01*
X133193922Y-117269819D02*
X133765350Y-117269819D01*
X133479636Y-118269819D02*
X133479636Y-117269819D01*
X134003446Y-117269819D02*
X134670112Y-118269819D01*
X134670112Y-117269819D02*
X134003446Y-118269819D01*
X133336779Y-119769819D02*
X133336779Y-120579342D01*
X133336779Y-120579342D02*
X133384398Y-120674580D01*
X133384398Y-120674580D02*
X133432017Y-120722200D01*
X133432017Y-120722200D02*
X133527255Y-120769819D01*
X133527255Y-120769819D02*
X133717731Y-120769819D01*
X133717731Y-120769819D02*
X133812969Y-120722200D01*
X133812969Y-120722200D02*
X133860588Y-120674580D01*
X133860588Y-120674580D02*
X133908207Y-120579342D01*
X133908207Y-120579342D02*
X133908207Y-119769819D01*
X134384398Y-120769819D02*
X134384398Y-119769819D01*
X134384398Y-119769819D02*
X134765350Y-119769819D01*
X134765350Y-119769819D02*
X134860588Y-119817438D01*
X134860588Y-119817438D02*
X134908207Y-119865057D01*
X134908207Y-119865057D02*
X134955826Y-119960295D01*
X134955826Y-119960295D02*
X134955826Y-120103152D01*
X134955826Y-120103152D02*
X134908207Y-120198390D01*
X134908207Y-120198390D02*
X134860588Y-120246009D01*
X134860588Y-120246009D02*
X134765350Y-120293628D01*
X134765350Y-120293628D02*
X134384398Y-120293628D01*
X135384398Y-120769819D02*
X135384398Y-119769819D01*
X135384398Y-119769819D02*
X135622493Y-119769819D01*
X135622493Y-119769819D02*
X135765350Y-119817438D01*
X135765350Y-119817438D02*
X135860588Y-119912676D01*
X135860588Y-119912676D02*
X135908207Y-120007914D01*
X135908207Y-120007914D02*
X135955826Y-120198390D01*
X135955826Y-120198390D02*
X135955826Y-120341247D01*
X135955826Y-120341247D02*
X135908207Y-120531723D01*
X135908207Y-120531723D02*
X135860588Y-120626961D01*
X135860588Y-120626961D02*
X135765350Y-120722200D01*
X135765350Y-120722200D02*
X135622493Y-120769819D01*
X135622493Y-120769819D02*
X135384398Y-120769819D01*
X136384398Y-120769819D02*
X136384398Y-119769819D01*
X164422493Y-128069819D02*
X164422493Y-128784104D01*
X164422493Y-128784104D02*
X164374874Y-128926961D01*
X164374874Y-128926961D02*
X164279636Y-129022200D01*
X164279636Y-129022200D02*
X164136779Y-129069819D01*
X164136779Y-129069819D02*
X164041541Y-129069819D01*
X165374874Y-129069819D02*
X164898684Y-129069819D01*
X164898684Y-129069819D02*
X164898684Y-128069819D01*
X166279636Y-128974580D02*
X166232017Y-129022200D01*
X166232017Y-129022200D02*
X166089160Y-129069819D01*
X166089160Y-129069819D02*
X165993922Y-129069819D01*
X165993922Y-129069819D02*
X165851065Y-129022200D01*
X165851065Y-129022200D02*
X165755827Y-128926961D01*
X165755827Y-128926961D02*
X165708208Y-128831723D01*
X165708208Y-128831723D02*
X165660589Y-128641247D01*
X165660589Y-128641247D02*
X165660589Y-128498390D01*
X165660589Y-128498390D02*
X165708208Y-128307914D01*
X165708208Y-128307914D02*
X165755827Y-128212676D01*
X165755827Y-128212676D02*
X165851065Y-128117438D01*
X165851065Y-128117438D02*
X165993922Y-128069819D01*
X165993922Y-128069819D02*
X166089160Y-128069819D01*
X166089160Y-128069819D02*
X166232017Y-128117438D01*
X166232017Y-128117438D02*
X166279636Y-128165057D01*
X166993922Y-128069819D02*
X166993922Y-128784104D01*
X166993922Y-128784104D02*
X166946303Y-128926961D01*
X166946303Y-128926961D02*
X166851065Y-129022200D01*
X166851065Y-129022200D02*
X166708208Y-129069819D01*
X166708208Y-129069819D02*
X166612970Y-129069819D01*
X167946303Y-129069819D02*
X167470113Y-129069819D01*
X167470113Y-129069819D02*
X167470113Y-128069819D01*
X168851065Y-128974580D02*
X168803446Y-129022200D01*
X168803446Y-129022200D02*
X168660589Y-129069819D01*
X168660589Y-129069819D02*
X168565351Y-129069819D01*
X168565351Y-129069819D02*
X168422494Y-129022200D01*
X168422494Y-129022200D02*
X168327256Y-128926961D01*
X168327256Y-128926961D02*
X168279637Y-128831723D01*
X168279637Y-128831723D02*
X168232018Y-128641247D01*
X168232018Y-128641247D02*
X168232018Y-128498390D01*
X168232018Y-128498390D02*
X168279637Y-128307914D01*
X168279637Y-128307914D02*
X168327256Y-128212676D01*
X168327256Y-128212676D02*
X168422494Y-128117438D01*
X168422494Y-128117438D02*
X168565351Y-128069819D01*
X168565351Y-128069819D02*
X168660589Y-128069819D01*
X168660589Y-128069819D02*
X168803446Y-128117438D01*
X168803446Y-128117438D02*
X168851065Y-128165057D01*
X169565351Y-128069819D02*
X169565351Y-128784104D01*
X169565351Y-128784104D02*
X169517732Y-128926961D01*
X169517732Y-128926961D02*
X169422494Y-129022200D01*
X169422494Y-129022200D02*
X169279637Y-129069819D01*
X169279637Y-129069819D02*
X169184399Y-129069819D01*
X170517732Y-129069819D02*
X170041542Y-129069819D01*
X170041542Y-129069819D02*
X170041542Y-128069819D01*
X171422494Y-128974580D02*
X171374875Y-129022200D01*
X171374875Y-129022200D02*
X171232018Y-129069819D01*
X171232018Y-129069819D02*
X171136780Y-129069819D01*
X171136780Y-129069819D02*
X170993923Y-129022200D01*
X170993923Y-129022200D02*
X170898685Y-128926961D01*
X170898685Y-128926961D02*
X170851066Y-128831723D01*
X170851066Y-128831723D02*
X170803447Y-128641247D01*
X170803447Y-128641247D02*
X170803447Y-128498390D01*
X170803447Y-128498390D02*
X170851066Y-128307914D01*
X170851066Y-128307914D02*
X170898685Y-128212676D01*
X170898685Y-128212676D02*
X170993923Y-128117438D01*
X170993923Y-128117438D02*
X171136780Y-128069819D01*
X171136780Y-128069819D02*
X171232018Y-128069819D01*
X171232018Y-128069819D02*
X171374875Y-128117438D01*
X171374875Y-128117438D02*
X171422494Y-128165057D01*
X172136780Y-128069819D02*
X172136780Y-128784104D01*
X172136780Y-128784104D02*
X172089161Y-128926961D01*
X172089161Y-128926961D02*
X171993923Y-129022200D01*
X171993923Y-129022200D02*
X171851066Y-129069819D01*
X171851066Y-129069819D02*
X171755828Y-129069819D01*
X173089161Y-129069819D02*
X172612971Y-129069819D01*
X172612971Y-129069819D02*
X172612971Y-128069819D01*
X173993923Y-128974580D02*
X173946304Y-129022200D01*
X173946304Y-129022200D02*
X173803447Y-129069819D01*
X173803447Y-129069819D02*
X173708209Y-129069819D01*
X173708209Y-129069819D02*
X173565352Y-129022200D01*
X173565352Y-129022200D02*
X173470114Y-128926961D01*
X173470114Y-128926961D02*
X173422495Y-128831723D01*
X173422495Y-128831723D02*
X173374876Y-128641247D01*
X173374876Y-128641247D02*
X173374876Y-128498390D01*
X173374876Y-128498390D02*
X173422495Y-128307914D01*
X173422495Y-128307914D02*
X173470114Y-128212676D01*
X173470114Y-128212676D02*
X173565352Y-128117438D01*
X173565352Y-128117438D02*
X173708209Y-128069819D01*
X173708209Y-128069819D02*
X173803447Y-128069819D01*
X173803447Y-128069819D02*
X173946304Y-128117438D01*
X173946304Y-128117438D02*
X173993923Y-128165057D01*
X126488866Y-92463220D02*
X126488866Y-91701316D01*
X126869819Y-92082268D02*
X126107914Y-92082268D01*
X126346009Y-90891792D02*
X126393628Y-90748935D01*
X126393628Y-90748935D02*
X126441247Y-90701316D01*
X126441247Y-90701316D02*
X126536485Y-90653697D01*
X126536485Y-90653697D02*
X126679342Y-90653697D01*
X126679342Y-90653697D02*
X126774580Y-90701316D01*
X126774580Y-90701316D02*
X126822200Y-90748935D01*
X126822200Y-90748935D02*
X126869819Y-90844173D01*
X126869819Y-90844173D02*
X126869819Y-91225125D01*
X126869819Y-91225125D02*
X125869819Y-91225125D01*
X125869819Y-91225125D02*
X125869819Y-90891792D01*
X125869819Y-90891792D02*
X125917438Y-90796554D01*
X125917438Y-90796554D02*
X125965057Y-90748935D01*
X125965057Y-90748935D02*
X126060295Y-90701316D01*
X126060295Y-90701316D02*
X126155533Y-90701316D01*
X126155533Y-90701316D02*
X126250771Y-90748935D01*
X126250771Y-90748935D02*
X126298390Y-90796554D01*
X126298390Y-90796554D02*
X126346009Y-90891792D01*
X126346009Y-90891792D02*
X126346009Y-91225125D01*
X126584104Y-90272744D02*
X126584104Y-89796554D01*
X126869819Y-90367982D02*
X125869819Y-90034649D01*
X125869819Y-90034649D02*
X126869819Y-89701316D01*
X125869819Y-89510839D02*
X125869819Y-88939411D01*
X126869819Y-89225125D02*
X125869819Y-89225125D01*
X122736779Y-94288866D02*
X123498684Y-94288866D01*
X123117731Y-94669819D02*
X123117731Y-93907914D01*
X124451064Y-93669819D02*
X123974874Y-93669819D01*
X123974874Y-93669819D02*
X123927255Y-94146009D01*
X123927255Y-94146009D02*
X123974874Y-94098390D01*
X123974874Y-94098390D02*
X124070112Y-94050771D01*
X124070112Y-94050771D02*
X124308207Y-94050771D01*
X124308207Y-94050771D02*
X124403445Y-94098390D01*
X124403445Y-94098390D02*
X124451064Y-94146009D01*
X124451064Y-94146009D02*
X124498683Y-94241247D01*
X124498683Y-94241247D02*
X124498683Y-94479342D01*
X124498683Y-94479342D02*
X124451064Y-94574580D01*
X124451064Y-94574580D02*
X124403445Y-94622200D01*
X124403445Y-94622200D02*
X124308207Y-94669819D01*
X124308207Y-94669819D02*
X124070112Y-94669819D01*
X124070112Y-94669819D02*
X123974874Y-94622200D01*
X123974874Y-94622200D02*
X123927255Y-94574580D01*
X124784398Y-93669819D02*
X125117731Y-94669819D01*
X125117731Y-94669819D02*
X125451064Y-93669819D01*
X123136779Y-86988866D02*
X123898684Y-86988866D01*
X123517731Y-87369819D02*
X123517731Y-86607914D01*
X124708207Y-86846009D02*
X124851064Y-86893628D01*
X124851064Y-86893628D02*
X124898683Y-86941247D01*
X124898683Y-86941247D02*
X124946302Y-87036485D01*
X124946302Y-87036485D02*
X124946302Y-87179342D01*
X124946302Y-87179342D02*
X124898683Y-87274580D01*
X124898683Y-87274580D02*
X124851064Y-87322200D01*
X124851064Y-87322200D02*
X124755826Y-87369819D01*
X124755826Y-87369819D02*
X124374874Y-87369819D01*
X124374874Y-87369819D02*
X124374874Y-86369819D01*
X124374874Y-86369819D02*
X124708207Y-86369819D01*
X124708207Y-86369819D02*
X124803445Y-86417438D01*
X124803445Y-86417438D02*
X124851064Y-86465057D01*
X124851064Y-86465057D02*
X124898683Y-86560295D01*
X124898683Y-86560295D02*
X124898683Y-86655533D01*
X124898683Y-86655533D02*
X124851064Y-86750771D01*
X124851064Y-86750771D02*
X124803445Y-86798390D01*
X124803445Y-86798390D02*
X124708207Y-86846009D01*
X124708207Y-86846009D02*
X124374874Y-86846009D01*
X125374874Y-87369819D02*
X125374874Y-86369819D01*
X125374874Y-86369819D02*
X125708207Y-87084104D01*
X125708207Y-87084104D02*
X126041540Y-86369819D01*
X126041540Y-86369819D02*
X126041540Y-87369819D01*
X126470112Y-87322200D02*
X126612969Y-87369819D01*
X126612969Y-87369819D02*
X126851064Y-87369819D01*
X126851064Y-87369819D02*
X126946302Y-87322200D01*
X126946302Y-87322200D02*
X126993921Y-87274580D01*
X126993921Y-87274580D02*
X127041540Y-87179342D01*
X127041540Y-87179342D02*
X127041540Y-87084104D01*
X127041540Y-87084104D02*
X126993921Y-86988866D01*
X126993921Y-86988866D02*
X126946302Y-86941247D01*
X126946302Y-86941247D02*
X126851064Y-86893628D01*
X126851064Y-86893628D02*
X126660588Y-86846009D01*
X126660588Y-86846009D02*
X126565350Y-86798390D01*
X126565350Y-86798390D02*
X126517731Y-86750771D01*
X126517731Y-86750771D02*
X126470112Y-86655533D01*
X126470112Y-86655533D02*
X126470112Y-86560295D01*
X126470112Y-86560295D02*
X126517731Y-86465057D01*
X126517731Y-86465057D02*
X126565350Y-86417438D01*
X126565350Y-86417438D02*
X126660588Y-86369819D01*
X126660588Y-86369819D02*
X126898683Y-86369819D01*
X126898683Y-86369819D02*
X127041540Y-86417438D01*
X126735713Y-79331009D02*
X126878570Y-79378628D01*
X126878570Y-79378628D02*
X126926189Y-79426247D01*
X126926189Y-79426247D02*
X126973808Y-79521485D01*
X126973808Y-79521485D02*
X126973808Y-79664342D01*
X126973808Y-79664342D02*
X126926189Y-79759580D01*
X126926189Y-79759580D02*
X126878570Y-79807200D01*
X126878570Y-79807200D02*
X126783332Y-79854819D01*
X126783332Y-79854819D02*
X126402380Y-79854819D01*
X126402380Y-79854819D02*
X126402380Y-78854819D01*
X126402380Y-78854819D02*
X126735713Y-78854819D01*
X126735713Y-78854819D02*
X126830951Y-78902438D01*
X126830951Y-78902438D02*
X126878570Y-78950057D01*
X126878570Y-78950057D02*
X126926189Y-79045295D01*
X126926189Y-79045295D02*
X126926189Y-79140533D01*
X126926189Y-79140533D02*
X126878570Y-79235771D01*
X126878570Y-79235771D02*
X126830951Y-79283390D01*
X126830951Y-79283390D02*
X126735713Y-79331009D01*
X126735713Y-79331009D02*
X126402380Y-79331009D01*
X128069046Y-79950057D02*
X127973808Y-79902438D01*
X127973808Y-79902438D02*
X127878570Y-79807200D01*
X127878570Y-79807200D02*
X127735713Y-79664342D01*
X127735713Y-79664342D02*
X127640475Y-79616723D01*
X127640475Y-79616723D02*
X127545237Y-79616723D01*
X127592856Y-79854819D02*
X127497618Y-79807200D01*
X127497618Y-79807200D02*
X127402380Y-79711961D01*
X127402380Y-79711961D02*
X127354761Y-79521485D01*
X127354761Y-79521485D02*
X127354761Y-79188152D01*
X127354761Y-79188152D02*
X127402380Y-78997676D01*
X127402380Y-78997676D02*
X127497618Y-78902438D01*
X127497618Y-78902438D02*
X127592856Y-78854819D01*
X127592856Y-78854819D02*
X127783332Y-78854819D01*
X127783332Y-78854819D02*
X127878570Y-78902438D01*
X127878570Y-78902438D02*
X127973808Y-78997676D01*
X127973808Y-78997676D02*
X128021427Y-79188152D01*
X128021427Y-79188152D02*
X128021427Y-79521485D01*
X128021427Y-79521485D02*
X127973808Y-79711961D01*
X127973808Y-79711961D02*
X127878570Y-79807200D01*
X127878570Y-79807200D02*
X127783332Y-79854819D01*
X127783332Y-79854819D02*
X127592856Y-79854819D01*
X128402380Y-78950057D02*
X128449999Y-78902438D01*
X128449999Y-78902438D02*
X128545237Y-78854819D01*
X128545237Y-78854819D02*
X128783332Y-78854819D01*
X128783332Y-78854819D02*
X128878570Y-78902438D01*
X128878570Y-78902438D02*
X128926189Y-78950057D01*
X128926189Y-78950057D02*
X128973808Y-79045295D01*
X128973808Y-79045295D02*
X128973808Y-79140533D01*
X128973808Y-79140533D02*
X128926189Y-79283390D01*
X128926189Y-79283390D02*
X128354761Y-79854819D01*
X128354761Y-79854819D02*
X128973808Y-79854819D01*
X129830951Y-79188152D02*
X129830951Y-79854819D01*
X129592856Y-78807200D02*
X129354761Y-79521485D01*
X129354761Y-79521485D02*
X129973808Y-79521485D01*
X130307142Y-78950057D02*
X130354761Y-78902438D01*
X130354761Y-78902438D02*
X130449999Y-78854819D01*
X130449999Y-78854819D02*
X130688094Y-78854819D01*
X130688094Y-78854819D02*
X130783332Y-78902438D01*
X130783332Y-78902438D02*
X130830951Y-78950057D01*
X130830951Y-78950057D02*
X130878570Y-79045295D01*
X130878570Y-79045295D02*
X130878570Y-79140533D01*
X130878570Y-79140533D02*
X130830951Y-79283390D01*
X130830951Y-79283390D02*
X130259523Y-79854819D01*
X130259523Y-79854819D02*
X130878570Y-79854819D01*
X131211904Y-78854819D02*
X131830951Y-78854819D01*
X131830951Y-78854819D02*
X131497618Y-79235771D01*
X131497618Y-79235771D02*
X131640475Y-79235771D01*
X131640475Y-79235771D02*
X131735713Y-79283390D01*
X131735713Y-79283390D02*
X131783332Y-79331009D01*
X131783332Y-79331009D02*
X131830951Y-79426247D01*
X131830951Y-79426247D02*
X131830951Y-79664342D01*
X131830951Y-79664342D02*
X131783332Y-79759580D01*
X131783332Y-79759580D02*
X131735713Y-79807200D01*
X131735713Y-79807200D02*
X131640475Y-79854819D01*
X131640475Y-79854819D02*
X131354761Y-79854819D01*
X131354761Y-79854819D02*
X131259523Y-79807200D01*
X131259523Y-79807200D02*
X131211904Y-79759580D01*
X132449999Y-78854819D02*
X132545237Y-78854819D01*
X132545237Y-78854819D02*
X132640475Y-78902438D01*
X132640475Y-78902438D02*
X132688094Y-78950057D01*
X132688094Y-78950057D02*
X132735713Y-79045295D01*
X132735713Y-79045295D02*
X132783332Y-79235771D01*
X132783332Y-79235771D02*
X132783332Y-79473866D01*
X132783332Y-79473866D02*
X132735713Y-79664342D01*
X132735713Y-79664342D02*
X132688094Y-79759580D01*
X132688094Y-79759580D02*
X132640475Y-79807200D01*
X132640475Y-79807200D02*
X132545237Y-79854819D01*
X132545237Y-79854819D02*
X132449999Y-79854819D01*
X132449999Y-79854819D02*
X132354761Y-79807200D01*
X132354761Y-79807200D02*
X132307142Y-79759580D01*
X132307142Y-79759580D02*
X132259523Y-79664342D01*
X132259523Y-79664342D02*
X132211904Y-79473866D01*
X132211904Y-79473866D02*
X132211904Y-79235771D01*
X132211904Y-79235771D02*
X132259523Y-79045295D01*
X132259523Y-79045295D02*
X132307142Y-78950057D01*
X132307142Y-78950057D02*
X132354761Y-78902438D01*
X132354761Y-78902438D02*
X132449999Y-78854819D01*
X133783332Y-79854819D02*
X133449999Y-79378628D01*
X133211904Y-79854819D02*
X133211904Y-78854819D01*
X133211904Y-78854819D02*
X133592856Y-78854819D01*
X133592856Y-78854819D02*
X133688094Y-78902438D01*
X133688094Y-78902438D02*
X133735713Y-78950057D01*
X133735713Y-78950057D02*
X133783332Y-79045295D01*
X133783332Y-79045295D02*
X133783332Y-79188152D01*
X133783332Y-79188152D02*
X133735713Y-79283390D01*
X133735713Y-79283390D02*
X133688094Y-79331009D01*
X133688094Y-79331009D02*
X133592856Y-79378628D01*
X133592856Y-79378628D02*
X133211904Y-79378628D01*
X134735713Y-78902438D02*
X134640475Y-78854819D01*
X134640475Y-78854819D02*
X134497618Y-78854819D01*
X134497618Y-78854819D02*
X134354761Y-78902438D01*
X134354761Y-78902438D02*
X134259523Y-78997676D01*
X134259523Y-78997676D02*
X134211904Y-79092914D01*
X134211904Y-79092914D02*
X134164285Y-79283390D01*
X134164285Y-79283390D02*
X134164285Y-79426247D01*
X134164285Y-79426247D02*
X134211904Y-79616723D01*
X134211904Y-79616723D02*
X134259523Y-79711961D01*
X134259523Y-79711961D02*
X134354761Y-79807200D01*
X134354761Y-79807200D02*
X134497618Y-79854819D01*
X134497618Y-79854819D02*
X134592856Y-79854819D01*
X134592856Y-79854819D02*
X134735713Y-79807200D01*
X134735713Y-79807200D02*
X134783332Y-79759580D01*
X134783332Y-79759580D02*
X134783332Y-79426247D01*
X134783332Y-79426247D02*
X134592856Y-79426247D01*
X135069047Y-78854819D02*
X135640475Y-78854819D01*
X135354761Y-79854819D02*
X135354761Y-78854819D01*
X155824819Y-91819047D02*
X155824819Y-92390475D01*
X155824819Y-92104761D02*
X154824819Y-92104761D01*
X154824819Y-92104761D02*
X154967676Y-92199999D01*
X154967676Y-92199999D02*
X155062914Y-92295237D01*
X155062914Y-92295237D02*
X155110533Y-92390475D01*
X154824819Y-91199999D02*
X154824819Y-91104761D01*
X154824819Y-91104761D02*
X154872438Y-91009523D01*
X154872438Y-91009523D02*
X154920057Y-90961904D01*
X154920057Y-90961904D02*
X155015295Y-90914285D01*
X155015295Y-90914285D02*
X155205771Y-90866666D01*
X155205771Y-90866666D02*
X155443866Y-90866666D01*
X155443866Y-90866666D02*
X155634342Y-90914285D01*
X155634342Y-90914285D02*
X155729580Y-90961904D01*
X155729580Y-90961904D02*
X155777200Y-91009523D01*
X155777200Y-91009523D02*
X155824819Y-91104761D01*
X155824819Y-91104761D02*
X155824819Y-91199999D01*
X155824819Y-91199999D02*
X155777200Y-91295237D01*
X155777200Y-91295237D02*
X155729580Y-91342856D01*
X155729580Y-91342856D02*
X155634342Y-91390475D01*
X155634342Y-91390475D02*
X155443866Y-91438094D01*
X155443866Y-91438094D02*
X155205771Y-91438094D01*
X155205771Y-91438094D02*
X155015295Y-91390475D01*
X155015295Y-91390475D02*
X154920057Y-91342856D01*
X154920057Y-91342856D02*
X154872438Y-91295237D01*
X154872438Y-91295237D02*
X154824819Y-91199999D01*
X154824819Y-90247618D02*
X154824819Y-90152380D01*
X154824819Y-90152380D02*
X154872438Y-90057142D01*
X154872438Y-90057142D02*
X154920057Y-90009523D01*
X154920057Y-90009523D02*
X155015295Y-89961904D01*
X155015295Y-89961904D02*
X155205771Y-89914285D01*
X155205771Y-89914285D02*
X155443866Y-89914285D01*
X155443866Y-89914285D02*
X155634342Y-89961904D01*
X155634342Y-89961904D02*
X155729580Y-90009523D01*
X155729580Y-90009523D02*
X155777200Y-90057142D01*
X155777200Y-90057142D02*
X155824819Y-90152380D01*
X155824819Y-90152380D02*
X155824819Y-90247618D01*
X155824819Y-90247618D02*
X155777200Y-90342856D01*
X155777200Y-90342856D02*
X155729580Y-90390475D01*
X155729580Y-90390475D02*
X155634342Y-90438094D01*
X155634342Y-90438094D02*
X155443866Y-90485713D01*
X155443866Y-90485713D02*
X155205771Y-90485713D01*
X155205771Y-90485713D02*
X155015295Y-90438094D01*
X155015295Y-90438094D02*
X154920057Y-90390475D01*
X154920057Y-90390475D02*
X154872438Y-90342856D01*
X154872438Y-90342856D02*
X154824819Y-90247618D01*
X155158152Y-89485713D02*
X155824819Y-89485713D01*
X155253390Y-89485713D02*
X155205771Y-89438094D01*
X155205771Y-89438094D02*
X155158152Y-89342856D01*
X155158152Y-89342856D02*
X155158152Y-89199999D01*
X155158152Y-89199999D02*
X155205771Y-89104761D01*
X155205771Y-89104761D02*
X155301009Y-89057142D01*
X155301009Y-89057142D02*
X155824819Y-89057142D01*
X163879819Y-123788095D02*
X163403628Y-124121428D01*
X163879819Y-124359523D02*
X162879819Y-124359523D01*
X162879819Y-124359523D02*
X162879819Y-123978571D01*
X162879819Y-123978571D02*
X162927438Y-123883333D01*
X162927438Y-123883333D02*
X162975057Y-123835714D01*
X162975057Y-123835714D02*
X163070295Y-123788095D01*
X163070295Y-123788095D02*
X163213152Y-123788095D01*
X163213152Y-123788095D02*
X163308390Y-123835714D01*
X163308390Y-123835714D02*
X163356009Y-123883333D01*
X163356009Y-123883333D02*
X163403628Y-123978571D01*
X163403628Y-123978571D02*
X163403628Y-124359523D01*
X162879819Y-123502380D02*
X163879819Y-123169047D01*
X163879819Y-123169047D02*
X162879819Y-122835714D01*
X163498866Y-122502380D02*
X163498866Y-121740476D01*
X162879819Y-121359523D02*
X162879819Y-120740476D01*
X162879819Y-120740476D02*
X163260771Y-121073809D01*
X163260771Y-121073809D02*
X163260771Y-120930952D01*
X163260771Y-120930952D02*
X163308390Y-120835714D01*
X163308390Y-120835714D02*
X163356009Y-120788095D01*
X163356009Y-120788095D02*
X163451247Y-120740476D01*
X163451247Y-120740476D02*
X163689342Y-120740476D01*
X163689342Y-120740476D02*
X163784580Y-120788095D01*
X163784580Y-120788095D02*
X163832200Y-120835714D01*
X163832200Y-120835714D02*
X163879819Y-120930952D01*
X163879819Y-120930952D02*
X163879819Y-121216666D01*
X163879819Y-121216666D02*
X163832200Y-121311904D01*
X163832200Y-121311904D02*
X163784580Y-121359523D01*
X162879819Y-120121428D02*
X162879819Y-120026190D01*
X162879819Y-120026190D02*
X162927438Y-119930952D01*
X162927438Y-119930952D02*
X162975057Y-119883333D01*
X162975057Y-119883333D02*
X163070295Y-119835714D01*
X163070295Y-119835714D02*
X163260771Y-119788095D01*
X163260771Y-119788095D02*
X163498866Y-119788095D01*
X163498866Y-119788095D02*
X163689342Y-119835714D01*
X163689342Y-119835714D02*
X163784580Y-119883333D01*
X163784580Y-119883333D02*
X163832200Y-119930952D01*
X163832200Y-119930952D02*
X163879819Y-120026190D01*
X163879819Y-120026190D02*
X163879819Y-120121428D01*
X163879819Y-120121428D02*
X163832200Y-120216666D01*
X163832200Y-120216666D02*
X163784580Y-120264285D01*
X163784580Y-120264285D02*
X163689342Y-120311904D01*
X163689342Y-120311904D02*
X163498866Y-120359523D01*
X163498866Y-120359523D02*
X163260771Y-120359523D01*
X163260771Y-120359523D02*
X163070295Y-120311904D01*
X163070295Y-120311904D02*
X162975057Y-120264285D01*
X162975057Y-120264285D02*
X162927438Y-120216666D01*
X162927438Y-120216666D02*
X162879819Y-120121428D01*
X162975057Y-119407142D02*
X162927438Y-119359523D01*
X162927438Y-119359523D02*
X162879819Y-119264285D01*
X162879819Y-119264285D02*
X162879819Y-119026190D01*
X162879819Y-119026190D02*
X162927438Y-118930952D01*
X162927438Y-118930952D02*
X162975057Y-118883333D01*
X162975057Y-118883333D02*
X163070295Y-118835714D01*
X163070295Y-118835714D02*
X163165533Y-118835714D01*
X163165533Y-118835714D02*
X163308390Y-118883333D01*
X163308390Y-118883333D02*
X163879819Y-119454761D01*
X163879819Y-119454761D02*
X163879819Y-118835714D01*
X163308390Y-118264285D02*
X163260771Y-118359523D01*
X163260771Y-118359523D02*
X163213152Y-118407142D01*
X163213152Y-118407142D02*
X163117914Y-118454761D01*
X163117914Y-118454761D02*
X163070295Y-118454761D01*
X163070295Y-118454761D02*
X162975057Y-118407142D01*
X162975057Y-118407142D02*
X162927438Y-118359523D01*
X162927438Y-118359523D02*
X162879819Y-118264285D01*
X162879819Y-118264285D02*
X162879819Y-118073809D01*
X162879819Y-118073809D02*
X162927438Y-117978571D01*
X162927438Y-117978571D02*
X162975057Y-117930952D01*
X162975057Y-117930952D02*
X163070295Y-117883333D01*
X163070295Y-117883333D02*
X163117914Y-117883333D01*
X163117914Y-117883333D02*
X163213152Y-117930952D01*
X163213152Y-117930952D02*
X163260771Y-117978571D01*
X163260771Y-117978571D02*
X163308390Y-118073809D01*
X163308390Y-118073809D02*
X163308390Y-118264285D01*
X163308390Y-118264285D02*
X163356009Y-118359523D01*
X163356009Y-118359523D02*
X163403628Y-118407142D01*
X163403628Y-118407142D02*
X163498866Y-118454761D01*
X163498866Y-118454761D02*
X163689342Y-118454761D01*
X163689342Y-118454761D02*
X163784580Y-118407142D01*
X163784580Y-118407142D02*
X163832200Y-118359523D01*
X163832200Y-118359523D02*
X163879819Y-118264285D01*
X163879819Y-118264285D02*
X163879819Y-118073809D01*
X163879819Y-118073809D02*
X163832200Y-117978571D01*
X163832200Y-117978571D02*
X163784580Y-117930952D01*
X163784580Y-117930952D02*
X163689342Y-117883333D01*
X163689342Y-117883333D02*
X163498866Y-117883333D01*
X163498866Y-117883333D02*
X163403628Y-117930952D01*
X163403628Y-117930952D02*
X163356009Y-117978571D01*
X163356009Y-117978571D02*
X163308390Y-118073809D01*
X163498866Y-117454761D02*
X163498866Y-116692857D01*
X163784580Y-115645238D02*
X163832200Y-115692857D01*
X163832200Y-115692857D02*
X163879819Y-115835714D01*
X163879819Y-115835714D02*
X163879819Y-115930952D01*
X163879819Y-115930952D02*
X163832200Y-116073809D01*
X163832200Y-116073809D02*
X163736961Y-116169047D01*
X163736961Y-116169047D02*
X163641723Y-116216666D01*
X163641723Y-116216666D02*
X163451247Y-116264285D01*
X163451247Y-116264285D02*
X163308390Y-116264285D01*
X163308390Y-116264285D02*
X163117914Y-116216666D01*
X163117914Y-116216666D02*
X163022676Y-116169047D01*
X163022676Y-116169047D02*
X162927438Y-116073809D01*
X162927438Y-116073809D02*
X162879819Y-115930952D01*
X162879819Y-115930952D02*
X162879819Y-115835714D01*
X162879819Y-115835714D02*
X162927438Y-115692857D01*
X162927438Y-115692857D02*
X162975057Y-115645238D01*
X162879819Y-115311904D02*
X162879819Y-114645238D01*
X162879819Y-114645238D02*
X163879819Y-115073809D01*
X142523809Y-126949104D02*
X142999999Y-126949104D01*
X142428571Y-127234819D02*
X142761904Y-126234819D01*
X142761904Y-126234819D02*
X143095237Y-127234819D01*
X143285714Y-126234819D02*
X143857142Y-126234819D01*
X143571428Y-127234819D02*
X143571428Y-126234819D01*
X144047619Y-126568152D02*
X144428571Y-126568152D01*
X144190476Y-126234819D02*
X144190476Y-127091961D01*
X144190476Y-127091961D02*
X144238095Y-127187200D01*
X144238095Y-127187200D02*
X144333333Y-127234819D01*
X144333333Y-127234819D02*
X144428571Y-127234819D01*
X144761905Y-127234819D02*
X144761905Y-126568152D01*
X144761905Y-126234819D02*
X144714286Y-126282438D01*
X144714286Y-126282438D02*
X144761905Y-126330057D01*
X144761905Y-126330057D02*
X144809524Y-126282438D01*
X144809524Y-126282438D02*
X144761905Y-126234819D01*
X144761905Y-126234819D02*
X144761905Y-126330057D01*
X145238095Y-126568152D02*
X145238095Y-127234819D01*
X145238095Y-126663390D02*
X145285714Y-126615771D01*
X145285714Y-126615771D02*
X145380952Y-126568152D01*
X145380952Y-126568152D02*
X145523809Y-126568152D01*
X145523809Y-126568152D02*
X145619047Y-126615771D01*
X145619047Y-126615771D02*
X145666666Y-126711009D01*
X145666666Y-126711009D02*
X145666666Y-127234819D01*
X146047619Y-126568152D02*
X146285714Y-127234819D01*
X146523809Y-126568152D02*
X146285714Y-127234819D01*
X146285714Y-127234819D02*
X146190476Y-127472914D01*
X146190476Y-127472914D02*
X146142857Y-127520533D01*
X146142857Y-127520533D02*
X146047619Y-127568152D01*
X147333333Y-126568152D02*
X147333333Y-127234819D01*
X147095238Y-126187200D02*
X146857143Y-126901485D01*
X146857143Y-126901485D02*
X147476190Y-126901485D01*
X147809524Y-126330057D02*
X147857143Y-126282438D01*
X147857143Y-126282438D02*
X147952381Y-126234819D01*
X147952381Y-126234819D02*
X148190476Y-126234819D01*
X148190476Y-126234819D02*
X148285714Y-126282438D01*
X148285714Y-126282438D02*
X148333333Y-126330057D01*
X148333333Y-126330057D02*
X148380952Y-126425295D01*
X148380952Y-126425295D02*
X148380952Y-126520533D01*
X148380952Y-126520533D02*
X148333333Y-126663390D01*
X148333333Y-126663390D02*
X147761905Y-127234819D01*
X147761905Y-127234819D02*
X148380952Y-127234819D01*
X149238095Y-126568152D02*
X149238095Y-127234819D01*
X149000000Y-126187200D02*
X148761905Y-126901485D01*
X148761905Y-126901485D02*
X149380952Y-126901485D01*
X149761905Y-126853866D02*
X150523810Y-126853866D01*
X150952381Y-127187200D02*
X151095238Y-127234819D01*
X151095238Y-127234819D02*
X151333333Y-127234819D01*
X151333333Y-127234819D02*
X151428571Y-127187200D01*
X151428571Y-127187200D02*
X151476190Y-127139580D01*
X151476190Y-127139580D02*
X151523809Y-127044342D01*
X151523809Y-127044342D02*
X151523809Y-126949104D01*
X151523809Y-126949104D02*
X151476190Y-126853866D01*
X151476190Y-126853866D02*
X151428571Y-126806247D01*
X151428571Y-126806247D02*
X151333333Y-126758628D01*
X151333333Y-126758628D02*
X151142857Y-126711009D01*
X151142857Y-126711009D02*
X151047619Y-126663390D01*
X151047619Y-126663390D02*
X151000000Y-126615771D01*
X151000000Y-126615771D02*
X150952381Y-126520533D01*
X150952381Y-126520533D02*
X150952381Y-126425295D01*
X150952381Y-126425295D02*
X151000000Y-126330057D01*
X151000000Y-126330057D02*
X151047619Y-126282438D01*
X151047619Y-126282438D02*
X151142857Y-126234819D01*
X151142857Y-126234819D02*
X151380952Y-126234819D01*
X151380952Y-126234819D02*
X151523809Y-126282438D01*
X151904762Y-127187200D02*
X152047619Y-127234819D01*
X152047619Y-127234819D02*
X152285714Y-127234819D01*
X152285714Y-127234819D02*
X152380952Y-127187200D01*
X152380952Y-127187200D02*
X152428571Y-127139580D01*
X152428571Y-127139580D02*
X152476190Y-127044342D01*
X152476190Y-127044342D02*
X152476190Y-126949104D01*
X152476190Y-126949104D02*
X152428571Y-126853866D01*
X152428571Y-126853866D02*
X152380952Y-126806247D01*
X152380952Y-126806247D02*
X152285714Y-126758628D01*
X152285714Y-126758628D02*
X152095238Y-126711009D01*
X152095238Y-126711009D02*
X152000000Y-126663390D01*
X152000000Y-126663390D02*
X151952381Y-126615771D01*
X151952381Y-126615771D02*
X151904762Y-126520533D01*
X151904762Y-126520533D02*
X151904762Y-126425295D01*
X151904762Y-126425295D02*
X151952381Y-126330057D01*
X151952381Y-126330057D02*
X152000000Y-126282438D01*
X152000000Y-126282438D02*
X152095238Y-126234819D01*
X152095238Y-126234819D02*
X152333333Y-126234819D01*
X152333333Y-126234819D02*
X152476190Y-126282438D01*
X159333333Y-81304819D02*
X159333333Y-80304819D01*
X159761904Y-81257200D02*
X159904761Y-81304819D01*
X159904761Y-81304819D02*
X160142856Y-81304819D01*
X160142856Y-81304819D02*
X160238094Y-81257200D01*
X160238094Y-81257200D02*
X160285713Y-81209580D01*
X160285713Y-81209580D02*
X160333332Y-81114342D01*
X160333332Y-81114342D02*
X160333332Y-81019104D01*
X160333332Y-81019104D02*
X160285713Y-80923866D01*
X160285713Y-80923866D02*
X160238094Y-80876247D01*
X160238094Y-80876247D02*
X160142856Y-80828628D01*
X160142856Y-80828628D02*
X159952380Y-80781009D01*
X159952380Y-80781009D02*
X159857142Y-80733390D01*
X159857142Y-80733390D02*
X159809523Y-80685771D01*
X159809523Y-80685771D02*
X159761904Y-80590533D01*
X159761904Y-80590533D02*
X159761904Y-80495295D01*
X159761904Y-80495295D02*
X159809523Y-80400057D01*
X159809523Y-80400057D02*
X159857142Y-80352438D01*
X159857142Y-80352438D02*
X159952380Y-80304819D01*
X159952380Y-80304819D02*
X160190475Y-80304819D01*
X160190475Y-80304819D02*
X160333332Y-80352438D01*
X160666666Y-80304819D02*
X161285713Y-80304819D01*
X161285713Y-80304819D02*
X160952380Y-80685771D01*
X160952380Y-80685771D02*
X161095237Y-80685771D01*
X161095237Y-80685771D02*
X161190475Y-80733390D01*
X161190475Y-80733390D02*
X161238094Y-80781009D01*
X161238094Y-80781009D02*
X161285713Y-80876247D01*
X161285713Y-80876247D02*
X161285713Y-81114342D01*
X161285713Y-81114342D02*
X161238094Y-81209580D01*
X161238094Y-81209580D02*
X161190475Y-81257200D01*
X161190475Y-81257200D02*
X161095237Y-81304819D01*
X161095237Y-81304819D02*
X160809523Y-81304819D01*
X160809523Y-81304819D02*
X160714285Y-81257200D01*
X160714285Y-81257200D02*
X160666666Y-81209580D01*
X162238094Y-81304819D02*
X161666666Y-81304819D01*
X161952380Y-81304819D02*
X161952380Y-80304819D01*
X161952380Y-80304819D02*
X161857142Y-80447676D01*
X161857142Y-80447676D02*
X161761904Y-80542914D01*
X161761904Y-80542914D02*
X161666666Y-80590533D01*
X162999999Y-80781009D02*
X162666666Y-80781009D01*
X162666666Y-81304819D02*
X162666666Y-80304819D01*
X162666666Y-80304819D02*
X163142856Y-80304819D01*
X163999999Y-81304819D02*
X163523809Y-81304819D01*
X163523809Y-81304819D02*
X163523809Y-80304819D01*
X164238095Y-80304819D02*
X164857142Y-80304819D01*
X164857142Y-80304819D02*
X164523809Y-80685771D01*
X164523809Y-80685771D02*
X164666666Y-80685771D01*
X164666666Y-80685771D02*
X164761904Y-80733390D01*
X164761904Y-80733390D02*
X164809523Y-80781009D01*
X164809523Y-80781009D02*
X164857142Y-80876247D01*
X164857142Y-80876247D02*
X164857142Y-81114342D01*
X164857142Y-81114342D02*
X164809523Y-81209580D01*
X164809523Y-81209580D02*
X164761904Y-81257200D01*
X164761904Y-81257200D02*
X164666666Y-81304819D01*
X164666666Y-81304819D02*
X164380952Y-81304819D01*
X164380952Y-81304819D02*
X164285714Y-81257200D01*
X164285714Y-81257200D02*
X164238095Y-81209580D01*
X165190476Y-80304819D02*
X165857142Y-80304819D01*
X165857142Y-80304819D02*
X165428571Y-81304819D01*
X166190476Y-80400057D02*
X166238095Y-80352438D01*
X166238095Y-80352438D02*
X166333333Y-80304819D01*
X166333333Y-80304819D02*
X166571428Y-80304819D01*
X166571428Y-80304819D02*
X166666666Y-80352438D01*
X166666666Y-80352438D02*
X166714285Y-80400057D01*
X166714285Y-80400057D02*
X166761904Y-80495295D01*
X166761904Y-80495295D02*
X166761904Y-80590533D01*
X166761904Y-80590533D02*
X166714285Y-80733390D01*
X166714285Y-80733390D02*
X166142857Y-81304819D01*
X166142857Y-81304819D02*
X166761904Y-81304819D01*
X167238095Y-81304819D02*
X167428571Y-81304819D01*
X167428571Y-81304819D02*
X167523809Y-81257200D01*
X167523809Y-81257200D02*
X167571428Y-81209580D01*
X167571428Y-81209580D02*
X167666666Y-81066723D01*
X167666666Y-81066723D02*
X167714285Y-80876247D01*
X167714285Y-80876247D02*
X167714285Y-80495295D01*
X167714285Y-80495295D02*
X167666666Y-80400057D01*
X167666666Y-80400057D02*
X167619047Y-80352438D01*
X167619047Y-80352438D02*
X167523809Y-80304819D01*
X167523809Y-80304819D02*
X167333333Y-80304819D01*
X167333333Y-80304819D02*
X167238095Y-80352438D01*
X167238095Y-80352438D02*
X167190476Y-80400057D01*
X167190476Y-80400057D02*
X167142857Y-80495295D01*
X167142857Y-80495295D02*
X167142857Y-80733390D01*
X167142857Y-80733390D02*
X167190476Y-80828628D01*
X167190476Y-80828628D02*
X167238095Y-80876247D01*
X167238095Y-80876247D02*
X167333333Y-80923866D01*
X167333333Y-80923866D02*
X167523809Y-80923866D01*
X167523809Y-80923866D02*
X167619047Y-80876247D01*
X167619047Y-80876247D02*
X167666666Y-80828628D01*
X167666666Y-80828628D02*
X167714285Y-80733390D01*
X131984819Y-109890476D02*
X131984819Y-110461904D01*
X131984819Y-110176190D02*
X130984819Y-110176190D01*
X130984819Y-110176190D02*
X131127676Y-110271428D01*
X131127676Y-110271428D02*
X131222914Y-110366666D01*
X131222914Y-110366666D02*
X131270533Y-110461904D01*
X130984819Y-109271428D02*
X130984819Y-109176190D01*
X130984819Y-109176190D02*
X131032438Y-109080952D01*
X131032438Y-109080952D02*
X131080057Y-109033333D01*
X131080057Y-109033333D02*
X131175295Y-108985714D01*
X131175295Y-108985714D02*
X131365771Y-108938095D01*
X131365771Y-108938095D02*
X131603866Y-108938095D01*
X131603866Y-108938095D02*
X131794342Y-108985714D01*
X131794342Y-108985714D02*
X131889580Y-109033333D01*
X131889580Y-109033333D02*
X131937200Y-109080952D01*
X131937200Y-109080952D02*
X131984819Y-109176190D01*
X131984819Y-109176190D02*
X131984819Y-109271428D01*
X131984819Y-109271428D02*
X131937200Y-109366666D01*
X131937200Y-109366666D02*
X131889580Y-109414285D01*
X131889580Y-109414285D02*
X131794342Y-109461904D01*
X131794342Y-109461904D02*
X131603866Y-109509523D01*
X131603866Y-109509523D02*
X131365771Y-109509523D01*
X131365771Y-109509523D02*
X131175295Y-109461904D01*
X131175295Y-109461904D02*
X131080057Y-109414285D01*
X131080057Y-109414285D02*
X131032438Y-109366666D01*
X131032438Y-109366666D02*
X130984819Y-109271428D01*
X131984819Y-108509523D02*
X130984819Y-108509523D01*
X131984819Y-107938095D02*
X131413390Y-108366666D01*
X130984819Y-107938095D02*
X131556247Y-108509523D01*
X159009523Y-95484819D02*
X158438095Y-95484819D01*
X158723809Y-95484819D02*
X158723809Y-94484819D01*
X158723809Y-94484819D02*
X158628571Y-94627676D01*
X158628571Y-94627676D02*
X158533333Y-94722914D01*
X158533333Y-94722914D02*
X158438095Y-94770533D01*
X159628571Y-94484819D02*
X159723809Y-94484819D01*
X159723809Y-94484819D02*
X159819047Y-94532438D01*
X159819047Y-94532438D02*
X159866666Y-94580057D01*
X159866666Y-94580057D02*
X159914285Y-94675295D01*
X159914285Y-94675295D02*
X159961904Y-94865771D01*
X159961904Y-94865771D02*
X159961904Y-95103866D01*
X159961904Y-95103866D02*
X159914285Y-95294342D01*
X159914285Y-95294342D02*
X159866666Y-95389580D01*
X159866666Y-95389580D02*
X159819047Y-95437200D01*
X159819047Y-95437200D02*
X159723809Y-95484819D01*
X159723809Y-95484819D02*
X159628571Y-95484819D01*
X159628571Y-95484819D02*
X159533333Y-95437200D01*
X159533333Y-95437200D02*
X159485714Y-95389580D01*
X159485714Y-95389580D02*
X159438095Y-95294342D01*
X159438095Y-95294342D02*
X159390476Y-95103866D01*
X159390476Y-95103866D02*
X159390476Y-94865771D01*
X159390476Y-94865771D02*
X159438095Y-94675295D01*
X159438095Y-94675295D02*
X159485714Y-94580057D01*
X159485714Y-94580057D02*
X159533333Y-94532438D01*
X159533333Y-94532438D02*
X159628571Y-94484819D01*
X160390476Y-95484819D02*
X160390476Y-94484819D01*
X160961904Y-95484819D02*
X160533333Y-94913390D01*
X160961904Y-94484819D02*
X160390476Y-95056247D01*
X154950057Y-123810713D02*
X154902438Y-123763094D01*
X154902438Y-123763094D02*
X154854819Y-123667856D01*
X154854819Y-123667856D02*
X154854819Y-123429761D01*
X154854819Y-123429761D02*
X154902438Y-123334523D01*
X154902438Y-123334523D02*
X154950057Y-123286904D01*
X154950057Y-123286904D02*
X155045295Y-123239285D01*
X155045295Y-123239285D02*
X155140533Y-123239285D01*
X155140533Y-123239285D02*
X155283390Y-123286904D01*
X155283390Y-123286904D02*
X155854819Y-123858332D01*
X155854819Y-123858332D02*
X155854819Y-123239285D01*
X155854819Y-122810713D02*
X154854819Y-122810713D01*
X155854819Y-122239285D02*
X155283390Y-122667856D01*
X154854819Y-122239285D02*
X155426247Y-122810713D01*
X155150057Y-126985713D02*
X155102438Y-126938094D01*
X155102438Y-126938094D02*
X155054819Y-126842856D01*
X155054819Y-126842856D02*
X155054819Y-126604761D01*
X155054819Y-126604761D02*
X155102438Y-126509523D01*
X155102438Y-126509523D02*
X155150057Y-126461904D01*
X155150057Y-126461904D02*
X155245295Y-126414285D01*
X155245295Y-126414285D02*
X155340533Y-126414285D01*
X155340533Y-126414285D02*
X155483390Y-126461904D01*
X155483390Y-126461904D02*
X156054819Y-127033332D01*
X156054819Y-127033332D02*
X156054819Y-126414285D01*
X156054819Y-125985713D02*
X155054819Y-125985713D01*
X156054819Y-125414285D02*
X155483390Y-125842856D01*
X155054819Y-125414285D02*
X155626247Y-125985713D01*
X149885714Y-76624819D02*
X149314286Y-76624819D01*
X149600000Y-76624819D02*
X149600000Y-75624819D01*
X149600000Y-75624819D02*
X149504762Y-75767676D01*
X149504762Y-75767676D02*
X149409524Y-75862914D01*
X149409524Y-75862914D02*
X149314286Y-75910533D01*
X150314286Y-76624819D02*
X150314286Y-75624819D01*
X150885714Y-76624819D02*
X150457143Y-76053390D01*
X150885714Y-75624819D02*
X150314286Y-76196247D01*
X153785714Y-76624819D02*
X153214286Y-76624819D01*
X153500000Y-76624819D02*
X153500000Y-75624819D01*
X153500000Y-75624819D02*
X153404762Y-75767676D01*
X153404762Y-75767676D02*
X153309524Y-75862914D01*
X153309524Y-75862914D02*
X153214286Y-75910533D01*
X154214286Y-76624819D02*
X154214286Y-75624819D01*
X154785714Y-76624819D02*
X154357143Y-76053390D01*
X154785714Y-75624819D02*
X154214286Y-76196247D01*
X141985714Y-76624819D02*
X141414286Y-76624819D01*
X141700000Y-76624819D02*
X141700000Y-75624819D01*
X141700000Y-75624819D02*
X141604762Y-75767676D01*
X141604762Y-75767676D02*
X141509524Y-75862914D01*
X141509524Y-75862914D02*
X141414286Y-75910533D01*
X142414286Y-76624819D02*
X142414286Y-75624819D01*
X142985714Y-76624819D02*
X142557143Y-76053390D01*
X142985714Y-75624819D02*
X142414286Y-76196247D01*
X145885714Y-76624819D02*
X145314286Y-76624819D01*
X145600000Y-76624819D02*
X145600000Y-75624819D01*
X145600000Y-75624819D02*
X145504762Y-75767676D01*
X145504762Y-75767676D02*
X145409524Y-75862914D01*
X145409524Y-75862914D02*
X145314286Y-75910533D01*
X146314286Y-76624819D02*
X146314286Y-75624819D01*
X146885714Y-76624819D02*
X146457143Y-76053390D01*
X146885714Y-75624819D02*
X146314286Y-76196247D01*
X138009523Y-83954818D02*
X137438095Y-83954818D01*
X137723809Y-83954818D02*
X137723809Y-82954818D01*
X137723809Y-82954818D02*
X137628571Y-83097675D01*
X137628571Y-83097675D02*
X137533333Y-83192913D01*
X137533333Y-83192913D02*
X137438095Y-83240532D01*
X138628571Y-82954818D02*
X138723809Y-82954818D01*
X138723809Y-82954818D02*
X138819047Y-83002437D01*
X138819047Y-83002437D02*
X138866666Y-83050056D01*
X138866666Y-83050056D02*
X138914285Y-83145294D01*
X138914285Y-83145294D02*
X138961904Y-83335770D01*
X138961904Y-83335770D02*
X138961904Y-83573865D01*
X138961904Y-83573865D02*
X138914285Y-83764341D01*
X138914285Y-83764341D02*
X138866666Y-83859579D01*
X138866666Y-83859579D02*
X138819047Y-83907199D01*
X138819047Y-83907199D02*
X138723809Y-83954818D01*
X138723809Y-83954818D02*
X138628571Y-83954818D01*
X138628571Y-83954818D02*
X138533333Y-83907199D01*
X138533333Y-83907199D02*
X138485714Y-83859579D01*
X138485714Y-83859579D02*
X138438095Y-83764341D01*
X138438095Y-83764341D02*
X138390476Y-83573865D01*
X138390476Y-83573865D02*
X138390476Y-83335770D01*
X138390476Y-83335770D02*
X138438095Y-83145294D01*
X138438095Y-83145294D02*
X138485714Y-83050056D01*
X138485714Y-83050056D02*
X138533333Y-83002437D01*
X138533333Y-83002437D02*
X138628571Y-82954818D01*
X139390476Y-83954818D02*
X139390476Y-82954818D01*
X139961904Y-83954818D02*
X139533333Y-83383389D01*
X139961904Y-82954818D02*
X139390476Y-83526246D01*
X133104819Y-92735712D02*
X132104819Y-92735712D01*
X132104819Y-92735712D02*
X132104819Y-92497617D01*
X132104819Y-92497617D02*
X132152438Y-92354760D01*
X132152438Y-92354760D02*
X132247676Y-92259522D01*
X132247676Y-92259522D02*
X132342914Y-92211903D01*
X132342914Y-92211903D02*
X132533390Y-92164284D01*
X132533390Y-92164284D02*
X132676247Y-92164284D01*
X132676247Y-92164284D02*
X132866723Y-92211903D01*
X132866723Y-92211903D02*
X132961961Y-92259522D01*
X132961961Y-92259522D02*
X133057200Y-92354760D01*
X133057200Y-92354760D02*
X133104819Y-92497617D01*
X133104819Y-92497617D02*
X133104819Y-92735712D01*
X133104819Y-91735712D02*
X132104819Y-91735712D01*
X132104819Y-91735712D02*
X133104819Y-91164284D01*
X133104819Y-91164284D02*
X132104819Y-91164284D01*
X133104819Y-90688093D02*
X132104819Y-90688093D01*
X132104819Y-90688093D02*
X132104819Y-90307141D01*
X132104819Y-90307141D02*
X132152438Y-90211903D01*
X132152438Y-90211903D02*
X132200057Y-90164284D01*
X132200057Y-90164284D02*
X132295295Y-90116665D01*
X132295295Y-90116665D02*
X132438152Y-90116665D01*
X132438152Y-90116665D02*
X132533390Y-90164284D01*
X132533390Y-90164284D02*
X132581009Y-90211903D01*
X132581009Y-90211903D02*
X132628628Y-90307141D01*
X132628628Y-90307141D02*
X132628628Y-90688093D01*
X137976190Y-84988150D02*
X137976190Y-85654817D01*
X137738095Y-84607198D02*
X137500000Y-85321483D01*
X137500000Y-85321483D02*
X138119047Y-85321483D01*
X138500000Y-85559578D02*
X138547619Y-85607198D01*
X138547619Y-85607198D02*
X138500000Y-85654817D01*
X138500000Y-85654817D02*
X138452381Y-85607198D01*
X138452381Y-85607198D02*
X138500000Y-85559578D01*
X138500000Y-85559578D02*
X138500000Y-85654817D01*
X138880952Y-84654817D02*
X139547618Y-84654817D01*
X139547618Y-84654817D02*
X139119047Y-85654817D01*
X139928571Y-85654817D02*
X139928571Y-84654817D01*
X140499999Y-85654817D02*
X140071428Y-85083388D01*
X140499999Y-84654817D02*
X139928571Y-85226245D01*
X128304819Y-93197617D02*
X128304819Y-92578570D01*
X128304819Y-92578570D02*
X128685771Y-92911903D01*
X128685771Y-92911903D02*
X128685771Y-92769046D01*
X128685771Y-92769046D02*
X128733390Y-92673808D01*
X128733390Y-92673808D02*
X128781009Y-92626189D01*
X128781009Y-92626189D02*
X128876247Y-92578570D01*
X128876247Y-92578570D02*
X129114342Y-92578570D01*
X129114342Y-92578570D02*
X129209580Y-92626189D01*
X129209580Y-92626189D02*
X129257200Y-92673808D01*
X129257200Y-92673808D02*
X129304819Y-92769046D01*
X129304819Y-92769046D02*
X129304819Y-93054760D01*
X129304819Y-93054760D02*
X129257200Y-93149998D01*
X129257200Y-93149998D02*
X129209580Y-93197617D01*
X129209580Y-92149998D02*
X129257200Y-92102379D01*
X129257200Y-92102379D02*
X129304819Y-92149998D01*
X129304819Y-92149998D02*
X129257200Y-92197617D01*
X129257200Y-92197617D02*
X129209580Y-92149998D01*
X129209580Y-92149998D02*
X129304819Y-92149998D01*
X128304819Y-91769046D02*
X128304819Y-91149999D01*
X128304819Y-91149999D02*
X128685771Y-91483332D01*
X128685771Y-91483332D02*
X128685771Y-91340475D01*
X128685771Y-91340475D02*
X128733390Y-91245237D01*
X128733390Y-91245237D02*
X128781009Y-91197618D01*
X128781009Y-91197618D02*
X128876247Y-91149999D01*
X128876247Y-91149999D02*
X129114342Y-91149999D01*
X129114342Y-91149999D02*
X129209580Y-91197618D01*
X129209580Y-91197618D02*
X129257200Y-91245237D01*
X129257200Y-91245237D02*
X129304819Y-91340475D01*
X129304819Y-91340475D02*
X129304819Y-91626189D01*
X129304819Y-91626189D02*
X129257200Y-91721427D01*
X129257200Y-91721427D02*
X129209580Y-91769046D01*
X129304819Y-90721427D02*
X128304819Y-90721427D01*
X129304819Y-90149999D02*
X128733390Y-90578570D01*
X128304819Y-90149999D02*
X128876247Y-90721427D01*
X121784523Y-83354819D02*
X121213095Y-83354819D01*
X121498809Y-83354819D02*
X121498809Y-82354819D01*
X121498809Y-82354819D02*
X121403571Y-82497676D01*
X121403571Y-82497676D02*
X121308333Y-82592914D01*
X121308333Y-82592914D02*
X121213095Y-82640533D01*
X122403571Y-82354819D02*
X122498809Y-82354819D01*
X122498809Y-82354819D02*
X122594047Y-82402438D01*
X122594047Y-82402438D02*
X122641666Y-82450057D01*
X122641666Y-82450057D02*
X122689285Y-82545295D01*
X122689285Y-82545295D02*
X122736904Y-82735771D01*
X122736904Y-82735771D02*
X122736904Y-82973866D01*
X122736904Y-82973866D02*
X122689285Y-83164342D01*
X122689285Y-83164342D02*
X122641666Y-83259580D01*
X122641666Y-83259580D02*
X122594047Y-83307200D01*
X122594047Y-83307200D02*
X122498809Y-83354819D01*
X122498809Y-83354819D02*
X122403571Y-83354819D01*
X122403571Y-83354819D02*
X122308333Y-83307200D01*
X122308333Y-83307200D02*
X122260714Y-83259580D01*
X122260714Y-83259580D02*
X122213095Y-83164342D01*
X122213095Y-83164342D02*
X122165476Y-82973866D01*
X122165476Y-82973866D02*
X122165476Y-82735771D01*
X122165476Y-82735771D02*
X122213095Y-82545295D01*
X122213095Y-82545295D02*
X122260714Y-82450057D01*
X122260714Y-82450057D02*
X122308333Y-82402438D01*
X122308333Y-82402438D02*
X122403571Y-82354819D01*
X123165476Y-83354819D02*
X123165476Y-82354819D01*
X123736904Y-83354819D02*
X123308333Y-82783390D01*
X123736904Y-82354819D02*
X123165476Y-82926247D01*
X121784523Y-81654819D02*
X121213095Y-81654819D01*
X121498809Y-81654819D02*
X121498809Y-80654819D01*
X121498809Y-80654819D02*
X121403571Y-80797676D01*
X121403571Y-80797676D02*
X121308333Y-80892914D01*
X121308333Y-80892914D02*
X121213095Y-80940533D01*
X122403571Y-80654819D02*
X122498809Y-80654819D01*
X122498809Y-80654819D02*
X122594047Y-80702438D01*
X122594047Y-80702438D02*
X122641666Y-80750057D01*
X122641666Y-80750057D02*
X122689285Y-80845295D01*
X122689285Y-80845295D02*
X122736904Y-81035771D01*
X122736904Y-81035771D02*
X122736904Y-81273866D01*
X122736904Y-81273866D02*
X122689285Y-81464342D01*
X122689285Y-81464342D02*
X122641666Y-81559580D01*
X122641666Y-81559580D02*
X122594047Y-81607200D01*
X122594047Y-81607200D02*
X122498809Y-81654819D01*
X122498809Y-81654819D02*
X122403571Y-81654819D01*
X122403571Y-81654819D02*
X122308333Y-81607200D01*
X122308333Y-81607200D02*
X122260714Y-81559580D01*
X122260714Y-81559580D02*
X122213095Y-81464342D01*
X122213095Y-81464342D02*
X122165476Y-81273866D01*
X122165476Y-81273866D02*
X122165476Y-81035771D01*
X122165476Y-81035771D02*
X122213095Y-80845295D01*
X122213095Y-80845295D02*
X122260714Y-80750057D01*
X122260714Y-80750057D02*
X122308333Y-80702438D01*
X122308333Y-80702438D02*
X122403571Y-80654819D01*
X123165476Y-81654819D02*
X123165476Y-80654819D01*
X123736904Y-81654819D02*
X123308333Y-81083390D01*
X123736904Y-80654819D02*
X123165476Y-81226247D01*
X165034523Y-115504819D02*
X164463095Y-115504819D01*
X164748809Y-115504819D02*
X164748809Y-114504819D01*
X164748809Y-114504819D02*
X164653571Y-114647676D01*
X164653571Y-114647676D02*
X164558333Y-114742914D01*
X164558333Y-114742914D02*
X164463095Y-114790533D01*
X165653571Y-114504819D02*
X165748809Y-114504819D01*
X165748809Y-114504819D02*
X165844047Y-114552438D01*
X165844047Y-114552438D02*
X165891666Y-114600057D01*
X165891666Y-114600057D02*
X165939285Y-114695295D01*
X165939285Y-114695295D02*
X165986904Y-114885771D01*
X165986904Y-114885771D02*
X165986904Y-115123866D01*
X165986904Y-115123866D02*
X165939285Y-115314342D01*
X165939285Y-115314342D02*
X165891666Y-115409580D01*
X165891666Y-115409580D02*
X165844047Y-115457200D01*
X165844047Y-115457200D02*
X165748809Y-115504819D01*
X165748809Y-115504819D02*
X165653571Y-115504819D01*
X165653571Y-115504819D02*
X165558333Y-115457200D01*
X165558333Y-115457200D02*
X165510714Y-115409580D01*
X165510714Y-115409580D02*
X165463095Y-115314342D01*
X165463095Y-115314342D02*
X165415476Y-115123866D01*
X165415476Y-115123866D02*
X165415476Y-114885771D01*
X165415476Y-114885771D02*
X165463095Y-114695295D01*
X165463095Y-114695295D02*
X165510714Y-114600057D01*
X165510714Y-114600057D02*
X165558333Y-114552438D01*
X165558333Y-114552438D02*
X165653571Y-114504819D01*
X166415476Y-115504819D02*
X166415476Y-114504819D01*
X166986904Y-115504819D02*
X166558333Y-114933390D01*
X166986904Y-114504819D02*
X166415476Y-115076247D01*
X165059523Y-124604819D02*
X164488095Y-124604819D01*
X164773809Y-124604819D02*
X164773809Y-123604819D01*
X164773809Y-123604819D02*
X164678571Y-123747676D01*
X164678571Y-123747676D02*
X164583333Y-123842914D01*
X164583333Y-123842914D02*
X164488095Y-123890533D01*
X165678571Y-123604819D02*
X165773809Y-123604819D01*
X165773809Y-123604819D02*
X165869047Y-123652438D01*
X165869047Y-123652438D02*
X165916666Y-123700057D01*
X165916666Y-123700057D02*
X165964285Y-123795295D01*
X165964285Y-123795295D02*
X166011904Y-123985771D01*
X166011904Y-123985771D02*
X166011904Y-124223866D01*
X166011904Y-124223866D02*
X165964285Y-124414342D01*
X165964285Y-124414342D02*
X165916666Y-124509580D01*
X165916666Y-124509580D02*
X165869047Y-124557200D01*
X165869047Y-124557200D02*
X165773809Y-124604819D01*
X165773809Y-124604819D02*
X165678571Y-124604819D01*
X165678571Y-124604819D02*
X165583333Y-124557200D01*
X165583333Y-124557200D02*
X165535714Y-124509580D01*
X165535714Y-124509580D02*
X165488095Y-124414342D01*
X165488095Y-124414342D02*
X165440476Y-124223866D01*
X165440476Y-124223866D02*
X165440476Y-123985771D01*
X165440476Y-123985771D02*
X165488095Y-123795295D01*
X165488095Y-123795295D02*
X165535714Y-123700057D01*
X165535714Y-123700057D02*
X165583333Y-123652438D01*
X165583333Y-123652438D02*
X165678571Y-123604819D01*
X166440476Y-124604819D02*
X166440476Y-123604819D01*
X167011904Y-124604819D02*
X166583333Y-124033390D01*
X167011904Y-123604819D02*
X166440476Y-124176247D01*
X135450057Y-111642857D02*
X135402438Y-111738095D01*
X135402438Y-111738095D02*
X135307200Y-111833333D01*
X135307200Y-111833333D02*
X135164342Y-111976190D01*
X135164342Y-111976190D02*
X135116723Y-112071428D01*
X135116723Y-112071428D02*
X135116723Y-112166666D01*
X135354819Y-112119047D02*
X135307200Y-112214285D01*
X135307200Y-112214285D02*
X135211961Y-112309523D01*
X135211961Y-112309523D02*
X135021485Y-112357142D01*
X135021485Y-112357142D02*
X134688152Y-112357142D01*
X134688152Y-112357142D02*
X134497676Y-112309523D01*
X134497676Y-112309523D02*
X134402438Y-112214285D01*
X134402438Y-112214285D02*
X134354819Y-112119047D01*
X134354819Y-112119047D02*
X134354819Y-111928571D01*
X134354819Y-111928571D02*
X134402438Y-111833333D01*
X134402438Y-111833333D02*
X134497676Y-111738095D01*
X134497676Y-111738095D02*
X134688152Y-111690476D01*
X134688152Y-111690476D02*
X135021485Y-111690476D01*
X135021485Y-111690476D02*
X135211961Y-111738095D01*
X135211961Y-111738095D02*
X135307200Y-111833333D01*
X135307200Y-111833333D02*
X135354819Y-111928571D01*
X135354819Y-111928571D02*
X135354819Y-112119047D01*
X135450057Y-111500000D02*
X135450057Y-110738095D01*
X135354819Y-110499999D02*
X134354819Y-110499999D01*
X134354819Y-110499999D02*
X134354819Y-110119047D01*
X134354819Y-110119047D02*
X134402438Y-110023809D01*
X134402438Y-110023809D02*
X134450057Y-109976190D01*
X134450057Y-109976190D02*
X134545295Y-109928571D01*
X134545295Y-109928571D02*
X134688152Y-109928571D01*
X134688152Y-109928571D02*
X134783390Y-109976190D01*
X134783390Y-109976190D02*
X134831009Y-110023809D01*
X134831009Y-110023809D02*
X134878628Y-110119047D01*
X134878628Y-110119047D02*
X134878628Y-110499999D01*
X135354819Y-109499999D02*
X134354819Y-109499999D01*
X135354819Y-109071428D02*
X134831009Y-109071428D01*
X134831009Y-109071428D02*
X134735771Y-109119047D01*
X134735771Y-109119047D02*
X134688152Y-109214285D01*
X134688152Y-109214285D02*
X134688152Y-109357142D01*
X134688152Y-109357142D02*
X134735771Y-109452380D01*
X134735771Y-109452380D02*
X134783390Y-109499999D01*
X135354819Y-108452380D02*
X135307200Y-108547618D01*
X135307200Y-108547618D02*
X135259580Y-108595237D01*
X135259580Y-108595237D02*
X135164342Y-108642856D01*
X135164342Y-108642856D02*
X134878628Y-108642856D01*
X134878628Y-108642856D02*
X134783390Y-108595237D01*
X134783390Y-108595237D02*
X134735771Y-108547618D01*
X134735771Y-108547618D02*
X134688152Y-108452380D01*
X134688152Y-108452380D02*
X134688152Y-108309523D01*
X134688152Y-108309523D02*
X134735771Y-108214285D01*
X134735771Y-108214285D02*
X134783390Y-108166666D01*
X134783390Y-108166666D02*
X134878628Y-108119047D01*
X134878628Y-108119047D02*
X135164342Y-108119047D01*
X135164342Y-108119047D02*
X135259580Y-108166666D01*
X135259580Y-108166666D02*
X135307200Y-108214285D01*
X135307200Y-108214285D02*
X135354819Y-108309523D01*
X135354819Y-108309523D02*
X135354819Y-108452380D01*
X134688152Y-107833332D02*
X134688152Y-107452380D01*
X134354819Y-107690475D02*
X135211961Y-107690475D01*
X135211961Y-107690475D02*
X135307200Y-107642856D01*
X135307200Y-107642856D02*
X135354819Y-107547618D01*
X135354819Y-107547618D02*
X135354819Y-107452380D01*
X135354819Y-106976189D02*
X135307200Y-107071427D01*
X135307200Y-107071427D02*
X135259580Y-107119046D01*
X135259580Y-107119046D02*
X135164342Y-107166665D01*
X135164342Y-107166665D02*
X134878628Y-107166665D01*
X134878628Y-107166665D02*
X134783390Y-107119046D01*
X134783390Y-107119046D02*
X134735771Y-107071427D01*
X134735771Y-107071427D02*
X134688152Y-106976189D01*
X134688152Y-106976189D02*
X134688152Y-106833332D01*
X134688152Y-106833332D02*
X134735771Y-106738094D01*
X134735771Y-106738094D02*
X134783390Y-106690475D01*
X134783390Y-106690475D02*
X134878628Y-106642856D01*
X134878628Y-106642856D02*
X135164342Y-106642856D01*
X135164342Y-106642856D02*
X135259580Y-106690475D01*
X135259580Y-106690475D02*
X135307200Y-106738094D01*
X135307200Y-106738094D02*
X135354819Y-106833332D01*
X135354819Y-106833332D02*
X135354819Y-106976189D01*
X148766667Y-80454819D02*
X149100000Y-81454819D01*
X149100000Y-81454819D02*
X149433333Y-80454819D01*
X150338095Y-81359580D02*
X150290476Y-81407200D01*
X150290476Y-81407200D02*
X150147619Y-81454819D01*
X150147619Y-81454819D02*
X150052381Y-81454819D01*
X150052381Y-81454819D02*
X149909524Y-81407200D01*
X149909524Y-81407200D02*
X149814286Y-81311961D01*
X149814286Y-81311961D02*
X149766667Y-81216723D01*
X149766667Y-81216723D02*
X149719048Y-81026247D01*
X149719048Y-81026247D02*
X149719048Y-80883390D01*
X149719048Y-80883390D02*
X149766667Y-80692914D01*
X149766667Y-80692914D02*
X149814286Y-80597676D01*
X149814286Y-80597676D02*
X149909524Y-80502438D01*
X149909524Y-80502438D02*
X150052381Y-80454819D01*
X150052381Y-80454819D02*
X150147619Y-80454819D01*
X150147619Y-80454819D02*
X150290476Y-80502438D01*
X150290476Y-80502438D02*
X150338095Y-80550057D01*
X151338095Y-81359580D02*
X151290476Y-81407200D01*
X151290476Y-81407200D02*
X151147619Y-81454819D01*
X151147619Y-81454819D02*
X151052381Y-81454819D01*
X151052381Y-81454819D02*
X150909524Y-81407200D01*
X150909524Y-81407200D02*
X150814286Y-81311961D01*
X150814286Y-81311961D02*
X150766667Y-81216723D01*
X150766667Y-81216723D02*
X150719048Y-81026247D01*
X150719048Y-81026247D02*
X150719048Y-80883390D01*
X150719048Y-80883390D02*
X150766667Y-80692914D01*
X150766667Y-80692914D02*
X150814286Y-80597676D01*
X150814286Y-80597676D02*
X150909524Y-80502438D01*
X150909524Y-80502438D02*
X151052381Y-80454819D01*
X151052381Y-80454819D02*
X151147619Y-80454819D01*
X151147619Y-80454819D02*
X151290476Y-80502438D01*
X151290476Y-80502438D02*
X151338095Y-80550057D01*
X153261904Y-80931009D02*
X153404761Y-80978628D01*
X153404761Y-80978628D02*
X153452380Y-81026247D01*
X153452380Y-81026247D02*
X153499999Y-81121485D01*
X153499999Y-81121485D02*
X153499999Y-81264342D01*
X153499999Y-81264342D02*
X153452380Y-81359580D01*
X153452380Y-81359580D02*
X153404761Y-81407200D01*
X153404761Y-81407200D02*
X153309523Y-81454819D01*
X153309523Y-81454819D02*
X152928571Y-81454819D01*
X152928571Y-81454819D02*
X152928571Y-80454819D01*
X152928571Y-80454819D02*
X153261904Y-80454819D01*
X153261904Y-80454819D02*
X153357142Y-80502438D01*
X153357142Y-80502438D02*
X153404761Y-80550057D01*
X153404761Y-80550057D02*
X153452380Y-80645295D01*
X153452380Y-80645295D02*
X153452380Y-80740533D01*
X153452380Y-80740533D02*
X153404761Y-80835771D01*
X153404761Y-80835771D02*
X153357142Y-80883390D01*
X153357142Y-80883390D02*
X153261904Y-80931009D01*
X153261904Y-80931009D02*
X152928571Y-80931009D01*
X153880952Y-81169104D02*
X154357142Y-81169104D01*
X153785714Y-81454819D02*
X154119047Y-80454819D01*
X154119047Y-80454819D02*
X154452380Y-81454819D01*
X154642857Y-80454819D02*
X155214285Y-80454819D01*
X154928571Y-81454819D02*
X154928571Y-80454819D01*
X141485714Y-81359580D02*
X141438095Y-81407200D01*
X141438095Y-81407200D02*
X141295238Y-81454819D01*
X141295238Y-81454819D02*
X141200000Y-81454819D01*
X141200000Y-81454819D02*
X141057143Y-81407200D01*
X141057143Y-81407200D02*
X140961905Y-81311961D01*
X140961905Y-81311961D02*
X140914286Y-81216723D01*
X140914286Y-81216723D02*
X140866667Y-81026247D01*
X140866667Y-81026247D02*
X140866667Y-80883390D01*
X140866667Y-80883390D02*
X140914286Y-80692914D01*
X140914286Y-80692914D02*
X140961905Y-80597676D01*
X140961905Y-80597676D02*
X141057143Y-80502438D01*
X141057143Y-80502438D02*
X141200000Y-80454819D01*
X141200000Y-80454819D02*
X141295238Y-80454819D01*
X141295238Y-80454819D02*
X141438095Y-80502438D01*
X141438095Y-80502438D02*
X141485714Y-80550057D01*
X141914286Y-81454819D02*
X141914286Y-80454819D01*
X141914286Y-80931009D02*
X142485714Y-80931009D01*
X142485714Y-81454819D02*
X142485714Y-80454819D01*
X143485714Y-80502438D02*
X143390476Y-80454819D01*
X143390476Y-80454819D02*
X143247619Y-80454819D01*
X143247619Y-80454819D02*
X143104762Y-80502438D01*
X143104762Y-80502438D02*
X143009524Y-80597676D01*
X143009524Y-80597676D02*
X142961905Y-80692914D01*
X142961905Y-80692914D02*
X142914286Y-80883390D01*
X142914286Y-80883390D02*
X142914286Y-81026247D01*
X142914286Y-81026247D02*
X142961905Y-81216723D01*
X142961905Y-81216723D02*
X143009524Y-81311961D01*
X143009524Y-81311961D02*
X143104762Y-81407200D01*
X143104762Y-81407200D02*
X143247619Y-81454819D01*
X143247619Y-81454819D02*
X143342857Y-81454819D01*
X143342857Y-81454819D02*
X143485714Y-81407200D01*
X143485714Y-81407200D02*
X143533333Y-81359580D01*
X143533333Y-81359580D02*
X143533333Y-81026247D01*
X143533333Y-81026247D02*
X143342857Y-81026247D01*
X144838095Y-81454819D02*
X144838095Y-80454819D01*
X144838095Y-80454819D02*
X145219047Y-80454819D01*
X145219047Y-80454819D02*
X145314285Y-80502438D01*
X145314285Y-80502438D02*
X145361904Y-80550057D01*
X145361904Y-80550057D02*
X145409523Y-80645295D01*
X145409523Y-80645295D02*
X145409523Y-80788152D01*
X145409523Y-80788152D02*
X145361904Y-80883390D01*
X145361904Y-80883390D02*
X145314285Y-80931009D01*
X145314285Y-80931009D02*
X145219047Y-80978628D01*
X145219047Y-80978628D02*
X144838095Y-80978628D01*
X146361904Y-80502438D02*
X146266666Y-80454819D01*
X146266666Y-80454819D02*
X146123809Y-80454819D01*
X146123809Y-80454819D02*
X145980952Y-80502438D01*
X145980952Y-80502438D02*
X145885714Y-80597676D01*
X145885714Y-80597676D02*
X145838095Y-80692914D01*
X145838095Y-80692914D02*
X145790476Y-80883390D01*
X145790476Y-80883390D02*
X145790476Y-81026247D01*
X145790476Y-81026247D02*
X145838095Y-81216723D01*
X145838095Y-81216723D02*
X145885714Y-81311961D01*
X145885714Y-81311961D02*
X145980952Y-81407200D01*
X145980952Y-81407200D02*
X146123809Y-81454819D01*
X146123809Y-81454819D02*
X146219047Y-81454819D01*
X146219047Y-81454819D02*
X146361904Y-81407200D01*
X146361904Y-81407200D02*
X146409523Y-81359580D01*
X146409523Y-81359580D02*
X146409523Y-81026247D01*
X146409523Y-81026247D02*
X146219047Y-81026247D01*
X146838095Y-81454819D02*
X146838095Y-80454819D01*
X146838095Y-80454819D02*
X147076190Y-80454819D01*
X147076190Y-80454819D02*
X147219047Y-80502438D01*
X147219047Y-80502438D02*
X147314285Y-80597676D01*
X147314285Y-80597676D02*
X147361904Y-80692914D01*
X147361904Y-80692914D02*
X147409523Y-80883390D01*
X147409523Y-80883390D02*
X147409523Y-81026247D01*
X147409523Y-81026247D02*
X147361904Y-81216723D01*
X147361904Y-81216723D02*
X147314285Y-81311961D01*
X147314285Y-81311961D02*
X147219047Y-81407200D01*
X147219047Y-81407200D02*
X147076190Y-81454819D01*
X147076190Y-81454819D02*
X146838095Y-81454819D01*
X128954819Y-110419047D02*
X128954819Y-110990475D01*
X128954819Y-110704761D02*
X127954819Y-110704761D01*
X127954819Y-110704761D02*
X128097676Y-110799999D01*
X128097676Y-110799999D02*
X128192914Y-110895237D01*
X128192914Y-110895237D02*
X128240533Y-110990475D01*
X127954819Y-109799999D02*
X127954819Y-109704761D01*
X127954819Y-109704761D02*
X128002438Y-109609523D01*
X128002438Y-109609523D02*
X128050057Y-109561904D01*
X128050057Y-109561904D02*
X128145295Y-109514285D01*
X128145295Y-109514285D02*
X128335771Y-109466666D01*
X128335771Y-109466666D02*
X128573866Y-109466666D01*
X128573866Y-109466666D02*
X128764342Y-109514285D01*
X128764342Y-109514285D02*
X128859580Y-109561904D01*
X128859580Y-109561904D02*
X128907200Y-109609523D01*
X128907200Y-109609523D02*
X128954819Y-109704761D01*
X128954819Y-109704761D02*
X128954819Y-109799999D01*
X128954819Y-109799999D02*
X128907200Y-109895237D01*
X128907200Y-109895237D02*
X128859580Y-109942856D01*
X128859580Y-109942856D02*
X128764342Y-109990475D01*
X128764342Y-109990475D02*
X128573866Y-110038094D01*
X128573866Y-110038094D02*
X128335771Y-110038094D01*
X128335771Y-110038094D02*
X128145295Y-109990475D01*
X128145295Y-109990475D02*
X128050057Y-109942856D01*
X128050057Y-109942856D02*
X128002438Y-109895237D01*
X128002438Y-109895237D02*
X127954819Y-109799999D01*
X127954819Y-108847618D02*
X127954819Y-108752380D01*
X127954819Y-108752380D02*
X128002438Y-108657142D01*
X128002438Y-108657142D02*
X128050057Y-108609523D01*
X128050057Y-108609523D02*
X128145295Y-108561904D01*
X128145295Y-108561904D02*
X128335771Y-108514285D01*
X128335771Y-108514285D02*
X128573866Y-108514285D01*
X128573866Y-108514285D02*
X128764342Y-108561904D01*
X128764342Y-108561904D02*
X128859580Y-108609523D01*
X128859580Y-108609523D02*
X128907200Y-108657142D01*
X128907200Y-108657142D02*
X128954819Y-108752380D01*
X128954819Y-108752380D02*
X128954819Y-108847618D01*
X128954819Y-108847618D02*
X128907200Y-108942856D01*
X128907200Y-108942856D02*
X128859580Y-108990475D01*
X128859580Y-108990475D02*
X128764342Y-109038094D01*
X128764342Y-109038094D02*
X128573866Y-109085713D01*
X128573866Y-109085713D02*
X128335771Y-109085713D01*
X128335771Y-109085713D02*
X128145295Y-109038094D01*
X128145295Y-109038094D02*
X128050057Y-108990475D01*
X128050057Y-108990475D02*
X128002438Y-108942856D01*
X128002438Y-108942856D02*
X127954819Y-108847618D01*
X128288152Y-108085713D02*
X128954819Y-108085713D01*
X128383390Y-108085713D02*
X128335771Y-108038094D01*
X128335771Y-108038094D02*
X128288152Y-107942856D01*
X128288152Y-107942856D02*
X128288152Y-107799999D01*
X128288152Y-107799999D02*
X128335771Y-107704761D01*
X128335771Y-107704761D02*
X128431009Y-107657142D01*
X128431009Y-107657142D02*
X128954819Y-107657142D01*
X130538153Y-92826190D02*
X131204820Y-92826190D01*
X130157201Y-93064285D02*
X130871486Y-93302380D01*
X130871486Y-93302380D02*
X130871486Y-92683333D01*
X131109581Y-92302380D02*
X131157201Y-92254761D01*
X131157201Y-92254761D02*
X131204820Y-92302380D01*
X131204820Y-92302380D02*
X131157201Y-92349999D01*
X131157201Y-92349999D02*
X131109581Y-92302380D01*
X131109581Y-92302380D02*
X131204820Y-92302380D01*
X130204820Y-91921428D02*
X130204820Y-91254762D01*
X130204820Y-91254762D02*
X131204820Y-91683333D01*
X130538153Y-90445238D02*
X131204820Y-90445238D01*
X130538153Y-90873809D02*
X131061962Y-90873809D01*
X131061962Y-90873809D02*
X131157201Y-90826190D01*
X131157201Y-90826190D02*
X131204820Y-90730952D01*
X131204820Y-90730952D02*
X131204820Y-90588095D01*
X131204820Y-90588095D02*
X131157201Y-90492857D01*
X131157201Y-90492857D02*
X131109581Y-90445238D01*
X146405952Y-114484821D02*
X145834524Y-114484821D01*
X146120238Y-114484821D02*
X146120238Y-113484821D01*
X146120238Y-113484821D02*
X146025000Y-113627678D01*
X146025000Y-113627678D02*
X145929762Y-113722916D01*
X145929762Y-113722916D02*
X145834524Y-113770535D01*
X147025000Y-113484821D02*
X147120238Y-113484821D01*
X147120238Y-113484821D02*
X147215476Y-113532440D01*
X147215476Y-113532440D02*
X147263095Y-113580059D01*
X147263095Y-113580059D02*
X147310714Y-113675297D01*
X147310714Y-113675297D02*
X147358333Y-113865773D01*
X147358333Y-113865773D02*
X147358333Y-114103868D01*
X147358333Y-114103868D02*
X147310714Y-114294344D01*
X147310714Y-114294344D02*
X147263095Y-114389582D01*
X147263095Y-114389582D02*
X147215476Y-114437202D01*
X147215476Y-114437202D02*
X147120238Y-114484821D01*
X147120238Y-114484821D02*
X147025000Y-114484821D01*
X147025000Y-114484821D02*
X146929762Y-114437202D01*
X146929762Y-114437202D02*
X146882143Y-114389582D01*
X146882143Y-114389582D02*
X146834524Y-114294344D01*
X146834524Y-114294344D02*
X146786905Y-114103868D01*
X146786905Y-114103868D02*
X146786905Y-113865773D01*
X146786905Y-113865773D02*
X146834524Y-113675297D01*
X146834524Y-113675297D02*
X146882143Y-113580059D01*
X146882143Y-113580059D02*
X146929762Y-113532440D01*
X146929762Y-113532440D02*
X147025000Y-113484821D01*
X147977381Y-113484821D02*
X148072619Y-113484821D01*
X148072619Y-113484821D02*
X148167857Y-113532440D01*
X148167857Y-113532440D02*
X148215476Y-113580059D01*
X148215476Y-113580059D02*
X148263095Y-113675297D01*
X148263095Y-113675297D02*
X148310714Y-113865773D01*
X148310714Y-113865773D02*
X148310714Y-114103868D01*
X148310714Y-114103868D02*
X148263095Y-114294344D01*
X148263095Y-114294344D02*
X148215476Y-114389582D01*
X148215476Y-114389582D02*
X148167857Y-114437202D01*
X148167857Y-114437202D02*
X148072619Y-114484821D01*
X148072619Y-114484821D02*
X147977381Y-114484821D01*
X147977381Y-114484821D02*
X147882143Y-114437202D01*
X147882143Y-114437202D02*
X147834524Y-114389582D01*
X147834524Y-114389582D02*
X147786905Y-114294344D01*
X147786905Y-114294344D02*
X147739286Y-114103868D01*
X147739286Y-114103868D02*
X147739286Y-113865773D01*
X147739286Y-113865773D02*
X147786905Y-113675297D01*
X147786905Y-113675297D02*
X147834524Y-113580059D01*
X147834524Y-113580059D02*
X147882143Y-113532440D01*
X147882143Y-113532440D02*
X147977381Y-113484821D01*
X148739286Y-113818154D02*
X148739286Y-114484821D01*
X148739286Y-113913392D02*
X148786905Y-113865773D01*
X148786905Y-113865773D02*
X148882143Y-113818154D01*
X148882143Y-113818154D02*
X149025000Y-113818154D01*
X149025000Y-113818154D02*
X149120238Y-113865773D01*
X149120238Y-113865773D02*
X149167857Y-113961011D01*
X149167857Y-113961011D02*
X149167857Y-114484821D01*
X138023809Y-81288152D02*
X138023809Y-81954819D01*
X137785714Y-80907200D02*
X137547619Y-81621485D01*
X137547619Y-81621485D02*
X138166666Y-81621485D01*
X138547619Y-81859580D02*
X138595238Y-81907200D01*
X138595238Y-81907200D02*
X138547619Y-81954819D01*
X138547619Y-81954819D02*
X138500000Y-81907200D01*
X138500000Y-81907200D02*
X138547619Y-81859580D01*
X138547619Y-81859580D02*
X138547619Y-81954819D01*
X138928571Y-80954819D02*
X139595237Y-80954819D01*
X139595237Y-80954819D02*
X139166666Y-81954819D01*
X140404761Y-81288152D02*
X140404761Y-81954819D01*
X139976190Y-81288152D02*
X139976190Y-81811961D01*
X139976190Y-81811961D02*
X140023809Y-81907200D01*
X140023809Y-81907200D02*
X140119047Y-81954819D01*
X140119047Y-81954819D02*
X140261904Y-81954819D01*
X140261904Y-81954819D02*
X140357142Y-81907200D01*
X140357142Y-81907200D02*
X140404761Y-81859580D01*
X121198809Y-84588152D02*
X121198809Y-85254819D01*
X120960714Y-84207200D02*
X120722619Y-84921485D01*
X120722619Y-84921485D02*
X121341666Y-84921485D01*
X121722619Y-85159580D02*
X121770238Y-85207200D01*
X121770238Y-85207200D02*
X121722619Y-85254819D01*
X121722619Y-85254819D02*
X121675000Y-85207200D01*
X121675000Y-85207200D02*
X121722619Y-85159580D01*
X121722619Y-85159580D02*
X121722619Y-85254819D01*
X122103571Y-84254819D02*
X122770237Y-84254819D01*
X122770237Y-84254819D02*
X122341666Y-85254819D01*
X123579761Y-84588152D02*
X123579761Y-85254819D01*
X123151190Y-84588152D02*
X123151190Y-85111961D01*
X123151190Y-85111961D02*
X123198809Y-85207200D01*
X123198809Y-85207200D02*
X123294047Y-85254819D01*
X123294047Y-85254819D02*
X123436904Y-85254819D01*
X123436904Y-85254819D02*
X123532142Y-85207200D01*
X123532142Y-85207200D02*
X123579761Y-85159580D01*
X170529819Y-120669047D02*
X170529819Y-121240475D01*
X170529819Y-120954761D02*
X169529819Y-120954761D01*
X169529819Y-120954761D02*
X169672676Y-121049999D01*
X169672676Y-121049999D02*
X169767914Y-121145237D01*
X169767914Y-121145237D02*
X169815533Y-121240475D01*
X169529819Y-120049999D02*
X169529819Y-119954761D01*
X169529819Y-119954761D02*
X169577438Y-119859523D01*
X169577438Y-119859523D02*
X169625057Y-119811904D01*
X169625057Y-119811904D02*
X169720295Y-119764285D01*
X169720295Y-119764285D02*
X169910771Y-119716666D01*
X169910771Y-119716666D02*
X170148866Y-119716666D01*
X170148866Y-119716666D02*
X170339342Y-119764285D01*
X170339342Y-119764285D02*
X170434580Y-119811904D01*
X170434580Y-119811904D02*
X170482200Y-119859523D01*
X170482200Y-119859523D02*
X170529819Y-119954761D01*
X170529819Y-119954761D02*
X170529819Y-120049999D01*
X170529819Y-120049999D02*
X170482200Y-120145237D01*
X170482200Y-120145237D02*
X170434580Y-120192856D01*
X170434580Y-120192856D02*
X170339342Y-120240475D01*
X170339342Y-120240475D02*
X170148866Y-120288094D01*
X170148866Y-120288094D02*
X169910771Y-120288094D01*
X169910771Y-120288094D02*
X169720295Y-120240475D01*
X169720295Y-120240475D02*
X169625057Y-120192856D01*
X169625057Y-120192856D02*
X169577438Y-120145237D01*
X169577438Y-120145237D02*
X169529819Y-120049999D01*
X169529819Y-119097618D02*
X169529819Y-119002380D01*
X169529819Y-119002380D02*
X169577438Y-118907142D01*
X169577438Y-118907142D02*
X169625057Y-118859523D01*
X169625057Y-118859523D02*
X169720295Y-118811904D01*
X169720295Y-118811904D02*
X169910771Y-118764285D01*
X169910771Y-118764285D02*
X170148866Y-118764285D01*
X170148866Y-118764285D02*
X170339342Y-118811904D01*
X170339342Y-118811904D02*
X170434580Y-118859523D01*
X170434580Y-118859523D02*
X170482200Y-118907142D01*
X170482200Y-118907142D02*
X170529819Y-119002380D01*
X170529819Y-119002380D02*
X170529819Y-119097618D01*
X170529819Y-119097618D02*
X170482200Y-119192856D01*
X170482200Y-119192856D02*
X170434580Y-119240475D01*
X170434580Y-119240475D02*
X170339342Y-119288094D01*
X170339342Y-119288094D02*
X170148866Y-119335713D01*
X170148866Y-119335713D02*
X169910771Y-119335713D01*
X169910771Y-119335713D02*
X169720295Y-119288094D01*
X169720295Y-119288094D02*
X169625057Y-119240475D01*
X169625057Y-119240475D02*
X169577438Y-119192856D01*
X169577438Y-119192856D02*
X169529819Y-119097618D01*
X169863152Y-118335713D02*
X170529819Y-118335713D01*
X169958390Y-118335713D02*
X169910771Y-118288094D01*
X169910771Y-118288094D02*
X169863152Y-118192856D01*
X169863152Y-118192856D02*
X169863152Y-118049999D01*
X169863152Y-118049999D02*
X169910771Y-117954761D01*
X169910771Y-117954761D02*
X170006009Y-117907142D01*
X170006009Y-117907142D02*
X170529819Y-117907142D01*
D11*
%TO.C,U6*%
X132410000Y-81690000D02*
X132410000Y-82165000D01*
X129190000Y-81690000D02*
X129190000Y-82165000D01*
X129665000Y-81690000D02*
X129190000Y-81690000D01*
X129665000Y-84910000D02*
X129190000Y-84910000D01*
X131935000Y-81690000D02*
X132410000Y-81690000D01*
X129190000Y-84910000D02*
X129190000Y-84435000D01*
X131935000Y-84910000D02*
X132410000Y-84910000D01*
%TO.C,C7*%
X156290000Y-90559420D02*
X156290000Y-90840580D01*
X157310000Y-90559420D02*
X157310000Y-90840580D01*
%TO.C,X1*%
X164325000Y-117350000D02*
G75*
G03*
X164325000Y-117350000I-200000J0D01*
G01*
X166325000Y-121350000D02*
X165125000Y-121350000D01*
X166325000Y-117750000D02*
X164525000Y-117750000D01*
%TO.C,U8*%
X147500000Y-117065000D02*
X149450000Y-117065000D01*
X147500000Y-125935000D02*
X149450000Y-125935000D01*
X147500000Y-117065000D02*
X144050000Y-117065000D01*
X147500000Y-125935000D02*
X145550000Y-125935000D01*
D10*
%TO.C,U7*%
X167125000Y-83275000D02*
X166800000Y-83275000D01*
X167125000Y-90525000D02*
X167125000Y-90300000D01*
X167125000Y-90525000D02*
X166800000Y-90525000D01*
X159875000Y-90525000D02*
X160200000Y-90525000D01*
X159875000Y-90525000D02*
X159875000Y-90200000D01*
X159875000Y-83275000D02*
X159875000Y-83600000D01*
X159875000Y-83275000D02*
X160200000Y-83275000D01*
X167125000Y-83275000D02*
X167125000Y-83600000D01*
X167125000Y-90300000D02*
X168550000Y-90300000D01*
D11*
%TO.C,SW2*%
X122270000Y-123270000D02*
X128730000Y-123270000D01*
X122270000Y-129730000D02*
X122270000Y-129700000D01*
X122270000Y-125200000D02*
X122270000Y-127800000D01*
X128730000Y-123270000D02*
X128730000Y-123300000D01*
X122270000Y-129730000D02*
X128730000Y-129730000D01*
X122270000Y-123300000D02*
X122270000Y-123270000D01*
X128730000Y-129730000D02*
X128730000Y-129700000D01*
X128730000Y-125200000D02*
X128730000Y-127800000D01*
%TO.C,SW1*%
X132970000Y-123270000D02*
X139430000Y-123270000D01*
X132970000Y-129730000D02*
X132970000Y-129700000D01*
X132970000Y-125200000D02*
X132970000Y-127800000D01*
X139430000Y-123270000D02*
X139430000Y-123300000D01*
X132970000Y-129730000D02*
X139430000Y-129730000D01*
X132970000Y-123300000D02*
X132970000Y-123270000D01*
X139430000Y-129730000D02*
X139430000Y-129700000D01*
X139430000Y-125200000D02*
X139430000Y-127800000D01*
%TO.C,R16*%
X130622500Y-109437258D02*
X130622500Y-108962742D01*
X129577500Y-109437258D02*
X129577500Y-108962742D01*
%TO.C,R15*%
X159462742Y-94122500D02*
X159937258Y-94122500D01*
X159462742Y-93077500D02*
X159937258Y-93077500D01*
%TO.C,R14*%
X153377500Y-122862742D02*
X153377500Y-123337258D01*
X154422500Y-122862742D02*
X154422500Y-123337258D01*
%TO.C,R13*%
X154422500Y-126537258D02*
X154422500Y-126062742D01*
X153377500Y-126537258D02*
X153377500Y-126062742D01*
%TO.C,R12*%
X150337258Y-77077500D02*
X149862742Y-77077500D01*
X150337258Y-78122500D02*
X149862742Y-78122500D01*
%TO.C,R11*%
X154237258Y-77077500D02*
X153762742Y-77077500D01*
X154237258Y-78122500D02*
X153762742Y-78122500D01*
%TO.C,R10*%
X142437258Y-77077500D02*
X141962742Y-77077500D01*
X142437258Y-78122500D02*
X141962742Y-78122500D01*
%TO.C,R9*%
X146337258Y-77077500D02*
X145862742Y-77077500D01*
X146337258Y-78122500D02*
X145862742Y-78122500D01*
%TO.C,R8*%
X135937258Y-82977499D02*
X135462742Y-82977499D01*
X135937258Y-84022499D02*
X135462742Y-84022499D01*
%TO.C,R7*%
X132127500Y-88212741D02*
X132127500Y-88687257D01*
X133172500Y-88212741D02*
X133172500Y-88687257D01*
%TO.C,R6*%
X135937258Y-84677498D02*
X135462742Y-84677498D01*
X135937258Y-85722498D02*
X135462742Y-85722498D01*
%TO.C,R5*%
X129372500Y-88587257D02*
X129372500Y-88112741D01*
X128327500Y-88587257D02*
X128327500Y-88112741D01*
%TO.C,R4*%
X125712258Y-82377500D02*
X125237742Y-82377500D01*
X125712258Y-83422500D02*
X125237742Y-83422500D01*
%TO.C,R3*%
X125237742Y-81722500D02*
X125712258Y-81722500D01*
X125237742Y-80677500D02*
X125712258Y-80677500D01*
%TO.C,R2*%
X165487742Y-115927500D02*
X165962258Y-115927500D01*
X165487742Y-116972500D02*
X165962258Y-116972500D01*
%TO.C,R1*%
X165487742Y-123172500D02*
X165962258Y-123172500D01*
X165487742Y-122127500D02*
X165962258Y-122127500D01*
%TO.C,Q1*%
X133935000Y-110685000D02*
X133935000Y-108400000D01*
X132465000Y-110685000D02*
X133935000Y-110685000D01*
X132465000Y-108400000D02*
X132465000Y-110685000D01*
%TO.C,J1*%
X130030000Y-121630000D02*
X127430000Y-121630000D01*
X132630000Y-120300000D02*
X132630000Y-121630000D01*
X132630000Y-119030000D02*
X130030000Y-119030000D01*
X132630000Y-119030000D02*
X132630000Y-113890000D01*
X132630000Y-121630000D02*
X131300000Y-121630000D01*
X127430000Y-121630000D02*
X127430000Y-113890000D01*
X132630000Y-113890000D02*
X127430000Y-113890000D01*
X130030000Y-119030000D02*
X130030000Y-121630000D01*
%TO.C,D4*%
X148615000Y-80235000D02*
X150900000Y-80235000D01*
X148615000Y-78765000D02*
X148615000Y-80235000D01*
X150900000Y-78765000D02*
X148615000Y-78765000D01*
%TO.C,D3*%
X152515000Y-80235000D02*
X154800000Y-80235000D01*
X152515000Y-78765000D02*
X152515000Y-80235000D01*
X154800000Y-78765000D02*
X152515000Y-78765000D01*
%TO.C,D2*%
X140715000Y-80235000D02*
X143000000Y-80235000D01*
X140715000Y-78765000D02*
X140715000Y-80235000D01*
X143000000Y-78765000D02*
X140715000Y-78765000D01*
%TO.C,D1*%
X144615000Y-80235000D02*
X146900000Y-80235000D01*
X144615000Y-78765000D02*
X144615000Y-80235000D01*
X146900000Y-78765000D02*
X144615000Y-78765000D01*
%TO.C,C6*%
X126590000Y-109159420D02*
X126590000Y-109440580D01*
X127610000Y-109159420D02*
X127610000Y-109440580D01*
%TO.C,C5*%
X130015001Y-88188748D02*
X130015001Y-88711252D01*
X131485001Y-88188748D02*
X131485001Y-88711252D01*
%TO.C,C4*%
X147665580Y-114950002D02*
X147384420Y-114950002D01*
X147665580Y-115970002D02*
X147384420Y-115970002D01*
%TO.C,C3*%
X135961252Y-80765000D02*
X135438748Y-80765000D01*
X135961252Y-82235000D02*
X135438748Y-82235000D01*
%TO.C,C2*%
X125213748Y-85535000D02*
X125736252Y-85535000D01*
X125213748Y-84065000D02*
X125736252Y-84065000D01*
%TO.C,C1*%
X168040000Y-119690580D02*
X168040000Y-119409420D01*
X169060000Y-119690580D02*
X169060000Y-119409420D01*
%TO.C,D40*%
X148735000Y-106515000D02*
X147265000Y-106515000D01*
X147265000Y-106515000D02*
X147265000Y-108800000D01*
X148735000Y-108800000D02*
X148735000Y-106515000D01*
%TO.C,D37*%
X148735000Y-101115000D02*
X147265000Y-101115000D01*
X147265000Y-101115000D02*
X147265000Y-103400000D01*
X148735000Y-103400000D02*
X148735000Y-101115000D01*
%TO.C,U3*%
X150044563Y-102192056D02*
X149957966Y-102833633D01*
X150044563Y-102192056D02*
X151975586Y-102463443D01*
X150510563Y-98874056D02*
X150423966Y-99515633D01*
X150510563Y-98874056D02*
X152441586Y-99145443D01*
X150560209Y-102666747D02*
X151010074Y-102327749D01*
X151014068Y-102324740D02*
X151352423Y-102778086D01*
X151026209Y-99348747D02*
X151476074Y-99009749D01*
X151352423Y-102778086D02*
X150560209Y-102666747D01*
X151480068Y-99006740D02*
X151818423Y-99460086D01*
X151728939Y-104243829D02*
X151431859Y-104202077D01*
X151818423Y-99460086D02*
X151026209Y-99348747D01*
X151882030Y-103154534D02*
X151728939Y-104243829D01*
X151964431Y-105277254D02*
X151964431Y-104977254D01*
X151982416Y-102414843D02*
X151882030Y-103154534D01*
X151982416Y-102414843D02*
X152146459Y-101273025D01*
X152146459Y-101273025D02*
X151849378Y-101231273D01*
X152194939Y-100925829D02*
X151897859Y-100884077D01*
X152348030Y-99836534D02*
X152194939Y-100925829D01*
X152430431Y-101960254D02*
X152430431Y-101660254D01*
X152448416Y-99096843D02*
X152348030Y-99836534D01*
X152448416Y-99096843D02*
X152612459Y-97955025D01*
X152612459Y-97955025D02*
X152315378Y-97913273D01*
X152896431Y-98643254D02*
X152896431Y-98343254D01*
X153064431Y-105277254D02*
X151964431Y-105277254D01*
X153363509Y-103900410D02*
X153761817Y-104298718D01*
X153363509Y-104700410D02*
X153363509Y-103900410D01*
X153530431Y-101960254D02*
X152430431Y-101960254D01*
X153761817Y-103323718D02*
X153114431Y-103327254D01*
X153761817Y-103323718D02*
X153761817Y-105273718D01*
X153765353Y-104302254D02*
X153363509Y-104700410D01*
X153810895Y-105273718D02*
X153064431Y-105277254D01*
X153810895Y-105273718D02*
X154964431Y-105277254D01*
X153829509Y-100583410D02*
X154227817Y-100981718D01*
X153829509Y-101383410D02*
X153829509Y-100583410D01*
X153996431Y-98643254D02*
X152896431Y-98643254D01*
X154227817Y-100006718D02*
X153580431Y-100010254D01*
X154227817Y-100006718D02*
X154227817Y-101956718D01*
X154231353Y-100985254D02*
X153829509Y-101383410D01*
X154276895Y-101956718D02*
X153530431Y-101960254D01*
X154276895Y-101956718D02*
X155430431Y-101960254D01*
X154295509Y-97266410D02*
X154693817Y-97664718D01*
X154295509Y-98066410D02*
X154295509Y-97266410D01*
X154693817Y-96689718D02*
X154046431Y-96693254D01*
X154693817Y-96689718D02*
X154693817Y-98639718D01*
X154697353Y-97668254D02*
X154295509Y-98066410D01*
X154742895Y-98639718D02*
X153996431Y-98643254D01*
X154742895Y-98639718D02*
X155896431Y-98643254D01*
X154964431Y-105277254D02*
X154964431Y-104977254D01*
X155248403Y-103965483D02*
X155545484Y-104007235D01*
X155412446Y-102823665D02*
X155248403Y-103965483D01*
X155412446Y-102823665D02*
X155512832Y-102083974D01*
X155430431Y-101960254D02*
X155430431Y-101660254D01*
X155512832Y-102083974D02*
X155665923Y-100994679D01*
X155665923Y-100994679D02*
X155963003Y-101036431D01*
X155714403Y-100647483D02*
X156011484Y-100689235D01*
X155878446Y-99505665D02*
X155714403Y-100647483D01*
X155878446Y-99505665D02*
X155978832Y-98765974D01*
X155896431Y-98643254D02*
X155896431Y-98343254D01*
X155978832Y-98765974D02*
X156131923Y-97676679D01*
X156042439Y-102460422D02*
X156834653Y-102571761D01*
X156131923Y-97676679D02*
X156429003Y-97718431D01*
X156380794Y-102913768D02*
X156042439Y-102460422D01*
X156508439Y-99142422D02*
X157300653Y-99253761D01*
X156834653Y-102571761D02*
X156384788Y-102910759D01*
X156846794Y-99595768D02*
X156508439Y-99142422D01*
X157300653Y-99253761D02*
X156850788Y-99592759D01*
X157350299Y-103046452D02*
X155419276Y-102775065D01*
X157350299Y-103046452D02*
X157436896Y-102404875D01*
X157816299Y-99728452D02*
X155885276Y-99457065D01*
X157816299Y-99728452D02*
X157902896Y-99086875D01*
%TO.C,D39*%
X150735001Y-106515000D02*
X149265001Y-106515000D01*
X149265001Y-106515000D02*
X149265001Y-108800000D01*
X150735001Y-108800000D02*
X150735001Y-106515000D01*
%TO.C,U2*%
X138044563Y-102192056D02*
X137957966Y-102833633D01*
X138044563Y-102192056D02*
X139975586Y-102463443D01*
X138510563Y-98874056D02*
X138423966Y-99515633D01*
X138510563Y-98874056D02*
X140441586Y-99145443D01*
X138560209Y-102666747D02*
X139010074Y-102327749D01*
X139014068Y-102324740D02*
X139352423Y-102778086D01*
X139026209Y-99348747D02*
X139476074Y-99009749D01*
X139352423Y-102778086D02*
X138560209Y-102666747D01*
X139480068Y-99006740D02*
X139818423Y-99460086D01*
X139728939Y-104243829D02*
X139431859Y-104202077D01*
X139818423Y-99460086D02*
X139026209Y-99348747D01*
X139882030Y-103154534D02*
X139728939Y-104243829D01*
X139964431Y-105277254D02*
X139964431Y-104977254D01*
X139982416Y-102414843D02*
X139882030Y-103154534D01*
X139982416Y-102414843D02*
X140146459Y-101273025D01*
X140146459Y-101273025D02*
X139849378Y-101231273D01*
X140194939Y-100925829D02*
X139897859Y-100884077D01*
X140348030Y-99836534D02*
X140194939Y-100925829D01*
X140430431Y-101960254D02*
X140430431Y-101660254D01*
X140448416Y-99096843D02*
X140348030Y-99836534D01*
X140448416Y-99096843D02*
X140612459Y-97955025D01*
X140612459Y-97955025D02*
X140315378Y-97913273D01*
X140896431Y-98643254D02*
X140896431Y-98343254D01*
X141064431Y-105277254D02*
X139964431Y-105277254D01*
X141363509Y-103900410D02*
X141761817Y-104298718D01*
X141363509Y-104700410D02*
X141363509Y-103900410D01*
X141530431Y-101960254D02*
X140430431Y-101960254D01*
X141761817Y-103323718D02*
X141114431Y-103327254D01*
X141761817Y-103323718D02*
X141761817Y-105273718D01*
X141765353Y-104302254D02*
X141363509Y-104700410D01*
X141810895Y-105273718D02*
X141064431Y-105277254D01*
X141810895Y-105273718D02*
X142964431Y-105277254D01*
X141829509Y-100583410D02*
X142227817Y-100981718D01*
X141829509Y-101383410D02*
X141829509Y-100583410D01*
X141996431Y-98643254D02*
X140896431Y-98643254D01*
X142227817Y-100006718D02*
X141580431Y-100010254D01*
X142227817Y-100006718D02*
X142227817Y-101956718D01*
X142231353Y-100985254D02*
X141829509Y-101383410D01*
X142276895Y-101956718D02*
X141530431Y-101960254D01*
X142276895Y-101956718D02*
X143430431Y-101960254D01*
X142295509Y-97266410D02*
X142693817Y-97664718D01*
X142295509Y-98066410D02*
X142295509Y-97266410D01*
X142693817Y-96689718D02*
X142046431Y-96693254D01*
X142693817Y-96689718D02*
X142693817Y-98639718D01*
X142697353Y-97668254D02*
X142295509Y-98066410D01*
X142742895Y-98639718D02*
X141996431Y-98643254D01*
X142742895Y-98639718D02*
X143896431Y-98643254D01*
X142964431Y-105277254D02*
X142964431Y-104977254D01*
X143248403Y-103965483D02*
X143545484Y-104007235D01*
X143412446Y-102823665D02*
X143248403Y-103965483D01*
X143412446Y-102823665D02*
X143512832Y-102083974D01*
X143430431Y-101960254D02*
X143430431Y-101660254D01*
X143512832Y-102083974D02*
X143665923Y-100994679D01*
X143665923Y-100994679D02*
X143963003Y-101036431D01*
X143714403Y-100647483D02*
X144011484Y-100689235D01*
X143878446Y-99505665D02*
X143714403Y-100647483D01*
X143878446Y-99505665D02*
X143978832Y-98765974D01*
X143896431Y-98643254D02*
X143896431Y-98343254D01*
X143978832Y-98765974D02*
X144131923Y-97676679D01*
X144042439Y-102460422D02*
X144834653Y-102571761D01*
X144131923Y-97676679D02*
X144429003Y-97718431D01*
X144380794Y-102913768D02*
X144042439Y-102460422D01*
X144508439Y-99142422D02*
X145300653Y-99253761D01*
X144834653Y-102571761D02*
X144384788Y-102910759D01*
X144846794Y-99595768D02*
X144508439Y-99142422D01*
X145300653Y-99253761D02*
X144850788Y-99592759D01*
X145350299Y-103046452D02*
X143419276Y-102775065D01*
X145350299Y-103046452D02*
X145436896Y-102404875D01*
X145816299Y-99728452D02*
X143885276Y-99457065D01*
X145816299Y-99728452D02*
X145902896Y-99086875D01*
%TO.C,U4*%
X159544563Y-102192056D02*
X159457966Y-102833633D01*
X159544563Y-102192056D02*
X161475586Y-102463443D01*
X160010563Y-98874056D02*
X159923966Y-99515633D01*
X160010563Y-98874056D02*
X161941586Y-99145443D01*
X160060209Y-102666747D02*
X160510074Y-102327749D01*
X160514068Y-102324740D02*
X160852423Y-102778086D01*
X160526209Y-99348747D02*
X160976074Y-99009749D01*
X160852423Y-102778086D02*
X160060209Y-102666747D01*
X160980068Y-99006740D02*
X161318423Y-99460086D01*
X161228939Y-104243829D02*
X160931859Y-104202077D01*
X161318423Y-99460086D02*
X160526209Y-99348747D01*
X161382030Y-103154534D02*
X161228939Y-104243829D01*
X161464431Y-105277254D02*
X161464431Y-104977254D01*
X161482416Y-102414843D02*
X161382030Y-103154534D01*
X161482416Y-102414843D02*
X161646459Y-101273025D01*
X161646459Y-101273025D02*
X161349378Y-101231273D01*
X161694939Y-100925829D02*
X161397859Y-100884077D01*
X161848030Y-99836534D02*
X161694939Y-100925829D01*
X161930431Y-101960254D02*
X161930431Y-101660254D01*
X161948416Y-99096843D02*
X161848030Y-99836534D01*
X161948416Y-99096843D02*
X162112459Y-97955025D01*
X162112459Y-97955025D02*
X161815378Y-97913273D01*
X162396431Y-98643254D02*
X162396431Y-98343254D01*
X162564431Y-105277254D02*
X161464431Y-105277254D01*
X162863509Y-103900410D02*
X163261817Y-104298718D01*
X162863509Y-104700410D02*
X162863509Y-103900410D01*
X163030431Y-101960254D02*
X161930431Y-101960254D01*
X163261817Y-103323718D02*
X162614431Y-103327254D01*
X163261817Y-103323718D02*
X163261817Y-105273718D01*
X163265353Y-104302254D02*
X162863509Y-104700410D01*
X163310895Y-105273718D02*
X162564431Y-105277254D01*
X163310895Y-105273718D02*
X164464431Y-105277254D01*
X163329509Y-100583410D02*
X163727817Y-100981718D01*
X163329509Y-101383410D02*
X163329509Y-100583410D01*
X163496431Y-98643254D02*
X162396431Y-98643254D01*
X163727817Y-100006718D02*
X163080431Y-100010254D01*
X163727817Y-100006718D02*
X163727817Y-101956718D01*
X163731353Y-100985254D02*
X163329509Y-101383410D01*
X163776895Y-101956718D02*
X163030431Y-101960254D01*
X163776895Y-101956718D02*
X164930431Y-101960254D01*
X163795509Y-97266410D02*
X164193817Y-97664718D01*
X163795509Y-98066410D02*
X163795509Y-97266410D01*
X164193817Y-96689718D02*
X163546431Y-96693254D01*
X164193817Y-96689718D02*
X164193817Y-98639718D01*
X164197353Y-97668254D02*
X163795509Y-98066410D01*
X164242895Y-98639718D02*
X163496431Y-98643254D01*
X164242895Y-98639718D02*
X165396431Y-98643254D01*
X164464431Y-105277254D02*
X164464431Y-104977254D01*
X164748403Y-103965483D02*
X165045484Y-104007235D01*
X164912446Y-102823665D02*
X164748403Y-103965483D01*
X164912446Y-102823665D02*
X165012832Y-102083974D01*
X164930431Y-101960254D02*
X164930431Y-101660254D01*
X165012832Y-102083974D02*
X165165923Y-100994679D01*
X165165923Y-100994679D02*
X165463003Y-101036431D01*
X165214403Y-100647483D02*
X165511484Y-100689235D01*
X165378446Y-99505665D02*
X165214403Y-100647483D01*
X165378446Y-99505665D02*
X165478832Y-98765974D01*
X165396431Y-98643254D02*
X165396431Y-98343254D01*
X165478832Y-98765974D02*
X165631923Y-97676679D01*
X165542439Y-102460422D02*
X166334653Y-102571761D01*
X165631923Y-97676679D02*
X165929003Y-97718431D01*
X165880794Y-102913768D02*
X165542439Y-102460422D01*
X166008439Y-99142422D02*
X166800653Y-99253761D01*
X166334653Y-102571761D02*
X165884788Y-102910759D01*
X166346794Y-99595768D02*
X166008439Y-99142422D01*
X166800653Y-99253761D02*
X166350788Y-99592759D01*
X166850299Y-103046452D02*
X164919276Y-102775065D01*
X166850299Y-103046452D02*
X166936896Y-102404875D01*
X167316299Y-99728452D02*
X165385276Y-99457065D01*
X167316299Y-99728452D02*
X167402896Y-99086875D01*
%TO.C,D42*%
X144735000Y-106515000D02*
X143265000Y-106515000D01*
X143265000Y-106515000D02*
X143265000Y-108800000D01*
X144735000Y-108800000D02*
X144735000Y-106515000D01*
%TO.C,D41*%
X146734999Y-106515000D02*
X145264999Y-106515000D01*
X145264999Y-106515000D02*
X145264999Y-108800000D01*
X146734999Y-108800000D02*
X146734999Y-106515000D01*
%TO.C,D36*%
X147265000Y-100885000D02*
X148735000Y-100885000D01*
X148735000Y-100885000D02*
X148735000Y-98600000D01*
X147265000Y-98600000D02*
X147265000Y-100885000D01*
%TO.C,D38*%
X152735000Y-106515000D02*
X151265000Y-106515000D01*
X151265000Y-106515000D02*
X151265000Y-108800000D01*
X152735000Y-108800000D02*
X152735000Y-106515000D01*
%TO.C,U1*%
X128544563Y-102192056D02*
X128457966Y-102833633D01*
X128544563Y-102192056D02*
X130475586Y-102463443D01*
X129010563Y-98874056D02*
X128923966Y-99515633D01*
X129010563Y-98874056D02*
X130941586Y-99145443D01*
X129060209Y-102666747D02*
X129510074Y-102327749D01*
X129514068Y-102324740D02*
X129852423Y-102778086D01*
X129526209Y-99348747D02*
X129976074Y-99009749D01*
X129852423Y-102778086D02*
X129060209Y-102666747D01*
X129980068Y-99006740D02*
X130318423Y-99460086D01*
X130228939Y-104243829D02*
X129931859Y-104202077D01*
X130318423Y-99460086D02*
X129526209Y-99348747D01*
X130382030Y-103154534D02*
X130228939Y-104243829D01*
X130464431Y-105277254D02*
X130464431Y-104977254D01*
X130482416Y-102414843D02*
X130382030Y-103154534D01*
X130482416Y-102414843D02*
X130646459Y-101273025D01*
X130646459Y-101273025D02*
X130349378Y-101231273D01*
X130694939Y-100925829D02*
X130397859Y-100884077D01*
X130848030Y-99836534D02*
X130694939Y-100925829D01*
X130930431Y-101960254D02*
X130930431Y-101660254D01*
X130948416Y-99096843D02*
X130848030Y-99836534D01*
X130948416Y-99096843D02*
X131112459Y-97955025D01*
X131112459Y-97955025D02*
X130815378Y-97913273D01*
X131396431Y-98643254D02*
X131396431Y-98343254D01*
X131564431Y-105277254D02*
X130464431Y-105277254D01*
X131863509Y-103900410D02*
X132261817Y-104298718D01*
X131863509Y-104700410D02*
X131863509Y-103900410D01*
X132030431Y-101960254D02*
X130930431Y-101960254D01*
X132261817Y-103323718D02*
X131614431Y-103327254D01*
X132261817Y-103323718D02*
X132261817Y-105273718D01*
X132265353Y-104302254D02*
X131863509Y-104700410D01*
X132310895Y-105273718D02*
X131564431Y-105277254D01*
X132310895Y-105273718D02*
X133464431Y-105277254D01*
X132329509Y-100583410D02*
X132727817Y-100981718D01*
X132329509Y-101383410D02*
X132329509Y-100583410D01*
X132496431Y-98643254D02*
X131396431Y-98643254D01*
X132727817Y-100006718D02*
X132080431Y-100010254D01*
X132727817Y-100006718D02*
X132727817Y-101956718D01*
X132731353Y-100985254D02*
X132329509Y-101383410D01*
X132776895Y-101956718D02*
X132030431Y-101960254D01*
X132776895Y-101956718D02*
X133930431Y-101960254D01*
X132795509Y-97266410D02*
X133193817Y-97664718D01*
X132795509Y-98066410D02*
X132795509Y-97266410D01*
X133193817Y-96689718D02*
X132546431Y-96693254D01*
X133193817Y-96689718D02*
X133193817Y-98639718D01*
X133197353Y-97668254D02*
X132795509Y-98066410D01*
X133242895Y-98639718D02*
X132496431Y-98643254D01*
X133242895Y-98639718D02*
X134396431Y-98643254D01*
X133464431Y-105277254D02*
X133464431Y-104977254D01*
X133748403Y-103965483D02*
X134045484Y-104007235D01*
X133912446Y-102823665D02*
X133748403Y-103965483D01*
X133912446Y-102823665D02*
X134012832Y-102083974D01*
X133930431Y-101960254D02*
X133930431Y-101660254D01*
X134012832Y-102083974D02*
X134165923Y-100994679D01*
X134165923Y-100994679D02*
X134463003Y-101036431D01*
X134214403Y-100647483D02*
X134511484Y-100689235D01*
X134378446Y-99505665D02*
X134214403Y-100647483D01*
X134378446Y-99505665D02*
X134478832Y-98765974D01*
X134396431Y-98643254D02*
X134396431Y-98343254D01*
X134478832Y-98765974D02*
X134631923Y-97676679D01*
X134542439Y-102460422D02*
X135334653Y-102571761D01*
X134631923Y-97676679D02*
X134929003Y-97718431D01*
X134880794Y-102913768D02*
X134542439Y-102460422D01*
X135008439Y-99142422D02*
X135800653Y-99253761D01*
X135334653Y-102571761D02*
X134884788Y-102910759D01*
X135346794Y-99595768D02*
X135008439Y-99142422D01*
X135800653Y-99253761D02*
X135350788Y-99592759D01*
X135850299Y-103046452D02*
X133919276Y-102775065D01*
X135850299Y-103046452D02*
X135936896Y-102404875D01*
X136316299Y-99728452D02*
X134385276Y-99457065D01*
X136316299Y-99728452D02*
X136402896Y-99086875D01*
%TD*%
M02*
