%TF.GenerationSoftware,KiCad,Pcbnew,7.0.8*%
%TF.CreationDate,2024-05-11T17:50:23+02:00*%
%TF.ProjectId,Heptachron,48657074-6163-4687-926f-6e2e6b696361,rev?*%
%TF.SameCoordinates,Original*%
%TF.FileFunction,Legend,Top*%
%TF.FilePolarity,Positive*%
%FSLAX46Y46*%
G04 Gerber Fmt 4.6, Leading zero omitted, Abs format (unit mm)*
G04 Created by KiCad (PCBNEW 7.0.8) date 2024-05-11 17:50:23*
%MOMM*%
%LPD*%
G01*
G04 APERTURE LIST*
%ADD10C,0.000000*%
%ADD11C,0.125000*%
%ADD12C,0.120000*%
%ADD13C,0.127000*%
%ADD14C,0.254000*%
G04 APERTURE END LIST*
D10*
G36*
X145289151Y-110788241D02*
G01*
X145328006Y-110789809D01*
X145345142Y-110791055D01*
X145360248Y-110792613D01*
X145372948Y-110794483D01*
X145382865Y-110796670D01*
X145387955Y-110798167D01*
X145390293Y-110798939D01*
X145392504Y-110799751D01*
X145394597Y-110800620D01*
X145396580Y-110801565D01*
X145398464Y-110802604D01*
X145400255Y-110803755D01*
X145401963Y-110805037D01*
X145403596Y-110806466D01*
X145405164Y-110808062D01*
X145406675Y-110809843D01*
X145408137Y-110811826D01*
X145409560Y-110814030D01*
X145410952Y-110816473D01*
X145412321Y-110819173D01*
X145413677Y-110822148D01*
X145415028Y-110825416D01*
X145416383Y-110828996D01*
X145417750Y-110832905D01*
X145419138Y-110837162D01*
X145420557Y-110841784D01*
X145422014Y-110846790D01*
X145423518Y-110852199D01*
X145426704Y-110864293D01*
X145430183Y-110878213D01*
X145434026Y-110894103D01*
X145438301Y-110912109D01*
X145448517Y-110954023D01*
X145457640Y-110989032D01*
X145461480Y-111002803D01*
X145464675Y-111013475D01*
X145467098Y-111020589D01*
X145467982Y-111022670D01*
X145468627Y-111023689D01*
X145468938Y-111023931D01*
X145469349Y-111024184D01*
X145470462Y-111024726D01*
X145471941Y-111025308D01*
X145473765Y-111025927D01*
X145475908Y-111026575D01*
X145478349Y-111027249D01*
X145484029Y-111028650D01*
X145490619Y-111030086D01*
X145497932Y-111031514D01*
X145505782Y-111032891D01*
X145513984Y-111034175D01*
X145538896Y-111037978D01*
X145560332Y-111041621D01*
X145579321Y-111045369D01*
X145596895Y-111049483D01*
X145614085Y-111054226D01*
X145631921Y-111059862D01*
X145651435Y-111066652D01*
X145673658Y-111074860D01*
X145736446Y-111098493D01*
X145804935Y-111034242D01*
X145818905Y-111021336D01*
X145832347Y-111009295D01*
X145844937Y-110998384D01*
X145856353Y-110988865D01*
X145866271Y-110981004D01*
X145874367Y-110975062D01*
X145877631Y-110972893D01*
X145880318Y-110971303D01*
X145882388Y-110970325D01*
X145883801Y-110969992D01*
X145889442Y-110970483D01*
X145895897Y-110971926D01*
X145903108Y-110974274D01*
X145911021Y-110977479D01*
X145928723Y-110986275D01*
X145948553Y-110997937D01*
X145970062Y-111012091D01*
X145992800Y-111028361D01*
X146016317Y-111046371D01*
X146040164Y-111065745D01*
X146063891Y-111086109D01*
X146087047Y-111107085D01*
X146109184Y-111128299D01*
X146129851Y-111149374D01*
X146148599Y-111169936D01*
X146164978Y-111189608D01*
X146178538Y-111208015D01*
X146188831Y-111224782D01*
X146208519Y-111261392D01*
X146174206Y-111304680D01*
X146110243Y-111385456D01*
X146080592Y-111422944D01*
X146108691Y-111506408D01*
X146116180Y-111529684D01*
X146119442Y-111540726D01*
X146122401Y-111551488D01*
X146125073Y-111562057D01*
X146127472Y-111572520D01*
X146129613Y-111582965D01*
X146131510Y-111593479D01*
X146133179Y-111604149D01*
X146134633Y-111615062D01*
X146135888Y-111626307D01*
X146136958Y-111637969D01*
X146138604Y-111662898D01*
X146139687Y-111690547D01*
X146142583Y-111791220D01*
X146235133Y-111834105D01*
X146327683Y-111876990D01*
X146320957Y-111924939D01*
X146317827Y-111944260D01*
X146313869Y-111963519D01*
X146309093Y-111982701D01*
X146303507Y-112001788D01*
X146297119Y-112020761D01*
X146289939Y-112039605D01*
X146281973Y-112058302D01*
X146273233Y-112076834D01*
X146263725Y-112095183D01*
X146253458Y-112113333D01*
X146242442Y-112131267D01*
X146230684Y-112148966D01*
X146218193Y-112166414D01*
X146204978Y-112183593D01*
X146191047Y-112200485D01*
X146176410Y-112217074D01*
X146146747Y-112249592D01*
X146039933Y-112218040D01*
X145933120Y-112186489D01*
X145891424Y-112224158D01*
X145882019Y-112232373D01*
X145871435Y-112241117D01*
X145847510Y-112259675D01*
X145821200Y-112278797D01*
X145794058Y-112297446D01*
X145767635Y-112314583D01*
X145743484Y-112329174D01*
X145732745Y-112335190D01*
X145723156Y-112340180D01*
X145714911Y-112344014D01*
X145708205Y-112346564D01*
X145706516Y-112347118D01*
X145704927Y-112347683D01*
X145703434Y-112348267D01*
X145702038Y-112348879D01*
X145700734Y-112349527D01*
X145699522Y-112350220D01*
X145698400Y-112350968D01*
X145697366Y-112351777D01*
X145696417Y-112352658D01*
X145695553Y-112353619D01*
X145694772Y-112354668D01*
X145694070Y-112355814D01*
X145693448Y-112357065D01*
X145692902Y-112358431D01*
X145692431Y-112359921D01*
X145692033Y-112361541D01*
X145691707Y-112363302D01*
X145691449Y-112365212D01*
X145691259Y-112367280D01*
X145691135Y-112369514D01*
X145691075Y-112371923D01*
X145691076Y-112374515D01*
X145691138Y-112377300D01*
X145691258Y-112380286D01*
X145691434Y-112383481D01*
X145691665Y-112386894D01*
X145692283Y-112394410D01*
X145693096Y-112402902D01*
X145694091Y-112412440D01*
X145706838Y-112531441D01*
X145713225Y-112591065D01*
X145663832Y-112616095D01*
X145653009Y-112621365D01*
X145641169Y-112626751D01*
X145628696Y-112632102D01*
X145615974Y-112637265D01*
X145603387Y-112642090D01*
X145591319Y-112646424D01*
X145580152Y-112650117D01*
X145570272Y-112653017D01*
X145559681Y-112655483D01*
X145547105Y-112657754D01*
X145532808Y-112659819D01*
X145517051Y-112661668D01*
X145482216Y-112664676D01*
X145444706Y-112666695D01*
X145406629Y-112667642D01*
X145370092Y-112667435D01*
X145337201Y-112665991D01*
X145322782Y-112664779D01*
X145310064Y-112663228D01*
X145301418Y-112661883D01*
X145293199Y-112660456D01*
X145285599Y-112658989D01*
X145278808Y-112657527D01*
X145273016Y-112656112D01*
X145268416Y-112654790D01*
X145266622Y-112654176D01*
X145265197Y-112653602D01*
X145264165Y-112653073D01*
X145263551Y-112652593D01*
X145263022Y-112651631D01*
X145262242Y-112649682D01*
X145259993Y-112643042D01*
X145256927Y-112633099D01*
X145253165Y-112620279D01*
X145248830Y-112605008D01*
X145244046Y-112587712D01*
X145238935Y-112568817D01*
X145233620Y-112548748D01*
X145223170Y-112509801D01*
X145213985Y-112477280D01*
X145207059Y-112454586D01*
X145204752Y-112447986D01*
X145203383Y-112445118D01*
X145202921Y-112444700D01*
X145202373Y-112444284D01*
X145201732Y-112443867D01*
X145200994Y-112443450D01*
X145199208Y-112442609D01*
X145196979Y-112441753D01*
X145194267Y-112440874D01*
X145191036Y-112439963D01*
X145187248Y-112439012D01*
X145182865Y-112438012D01*
X145177850Y-112436956D01*
X145172164Y-112435836D01*
X145165771Y-112434642D01*
X145158632Y-112433368D01*
X145141969Y-112430542D01*
X145121872Y-112427293D01*
X145112669Y-112425631D01*
X145102350Y-112423408D01*
X145078913Y-112417465D01*
X145052664Y-112409832D01*
X145024705Y-112400876D01*
X144996138Y-112390966D01*
X144968065Y-112380469D01*
X144941589Y-112369753D01*
X144917810Y-112359185D01*
X144873346Y-112338284D01*
X144810649Y-112381707D01*
X144784415Y-112400006D01*
X144759334Y-112417731D01*
X144738249Y-112432858D01*
X144724003Y-112443364D01*
X144719875Y-112446478D01*
X144716164Y-112449167D01*
X144712785Y-112451426D01*
X144711192Y-112452392D01*
X144709650Y-112453249D01*
X144708147Y-112453995D01*
X144706673Y-112454630D01*
X144705217Y-112455154D01*
X144703768Y-112455564D01*
X144702315Y-112455861D01*
X144700848Y-112456044D01*
X144699356Y-112456113D01*
X144697828Y-112456065D01*
X144696253Y-112455902D01*
X144694621Y-112455621D01*
X144692920Y-112455222D01*
X144691140Y-112454705D01*
X144689270Y-112454069D01*
X144687300Y-112453313D01*
X144685218Y-112452436D01*
X144683013Y-112451437D01*
X144678195Y-112449073D01*
X144672757Y-112446215D01*
X144666615Y-112442855D01*
X144659682Y-112438990D01*
X144648248Y-112431928D01*
X144635949Y-112423121D01*
X144622935Y-112412738D01*
X144609356Y-112400948D01*
X144595363Y-112387921D01*
X144581106Y-112373826D01*
X144566737Y-112358832D01*
X144552406Y-112343108D01*
X144538264Y-112326825D01*
X144524461Y-112310152D01*
X144511149Y-112293257D01*
X144498477Y-112276311D01*
X144486597Y-112259482D01*
X144475659Y-112242940D01*
X144465814Y-112226855D01*
X144457212Y-112211395D01*
X144420703Y-112141919D01*
X144492751Y-112073353D01*
X144564799Y-112004786D01*
X144546674Y-111938440D01*
X144542931Y-111923016D01*
X144539243Y-111904572D01*
X144535704Y-111883803D01*
X144532408Y-111861402D01*
X144529451Y-111838062D01*
X144526928Y-111814478D01*
X144524933Y-111791342D01*
X144523562Y-111769348D01*
X144521391Y-111724629D01*
X144730486Y-111724629D01*
X144730669Y-111741308D01*
X144731189Y-111757259D01*
X144732064Y-111772559D01*
X144733312Y-111787287D01*
X144734953Y-111801521D01*
X144737006Y-111815340D01*
X144739489Y-111828821D01*
X144742422Y-111842044D01*
X144745822Y-111855086D01*
X144749710Y-111868025D01*
X144754104Y-111880941D01*
X144759023Y-111893910D01*
X144764485Y-111907012D01*
X144770511Y-111920325D01*
X144777117Y-111933926D01*
X144784324Y-111947895D01*
X144791692Y-111961242D01*
X144799527Y-111974365D01*
X144807817Y-111987256D01*
X144816551Y-111999907D01*
X144835308Y-112024459D01*
X144855709Y-112047963D01*
X144877665Y-112070358D01*
X144901088Y-112091584D01*
X144925889Y-112111582D01*
X144951980Y-112130291D01*
X144979271Y-112147652D01*
X145007675Y-112163604D01*
X145037101Y-112178089D01*
X145067463Y-112191045D01*
X145098671Y-112202413D01*
X145130636Y-112212134D01*
X145163270Y-112220146D01*
X145196484Y-112226391D01*
X145203651Y-112227598D01*
X145210492Y-112228870D01*
X145216847Y-112230170D01*
X145222555Y-112231459D01*
X145227455Y-112232700D01*
X145231386Y-112233852D01*
X145234187Y-112234879D01*
X145235113Y-112235333D01*
X145235697Y-112235741D01*
X145236973Y-112236418D01*
X145239208Y-112236982D01*
X145246333Y-112237783D01*
X145256622Y-112238175D01*
X145269626Y-112238188D01*
X145301977Y-112237197D01*
X145339787Y-112235054D01*
X145379460Y-112231998D01*
X145417396Y-112228271D01*
X145449998Y-112224116D01*
X145463174Y-112221952D01*
X145473667Y-112219772D01*
X145473666Y-112219772D01*
X145485689Y-112216416D01*
X145500575Y-112211534D01*
X145517738Y-112205357D01*
X145536587Y-112198118D01*
X145556536Y-112190049D01*
X145576996Y-112181381D01*
X145597378Y-112172348D01*
X145617095Y-112163182D01*
X145646187Y-112148314D01*
X145674388Y-112131936D01*
X145701621Y-112114141D01*
X145727806Y-112095019D01*
X145752865Y-112074665D01*
X145776718Y-112053169D01*
X145799287Y-112030625D01*
X145820492Y-112007124D01*
X145840256Y-111982758D01*
X145858498Y-111957620D01*
X145875140Y-111931802D01*
X145890103Y-111905396D01*
X145903308Y-111878495D01*
X145914676Y-111851190D01*
X145924128Y-111823574D01*
X145931585Y-111795739D01*
X145934250Y-111782752D01*
X145936501Y-111768809D01*
X145938342Y-111754053D01*
X145939776Y-111738628D01*
X145940807Y-111722680D01*
X145941436Y-111706351D01*
X145941668Y-111689787D01*
X145941506Y-111673132D01*
X145940952Y-111656529D01*
X145940010Y-111640123D01*
X145938682Y-111624059D01*
X145936973Y-111608480D01*
X145934885Y-111593531D01*
X145932420Y-111579356D01*
X145929583Y-111566099D01*
X145926377Y-111553905D01*
X145921165Y-111537275D01*
X145915313Y-111520878D01*
X145908831Y-111504723D01*
X145901732Y-111488821D01*
X145894025Y-111473181D01*
X145885724Y-111457812D01*
X145876838Y-111442725D01*
X145867379Y-111427930D01*
X145846790Y-111399252D01*
X145824046Y-111371856D01*
X145799238Y-111345821D01*
X145772458Y-111321225D01*
X145743795Y-111298145D01*
X145713340Y-111276659D01*
X145681186Y-111256846D01*
X145647421Y-111238784D01*
X145612137Y-111222551D01*
X145575425Y-111208225D01*
X145537375Y-111195884D01*
X145498079Y-111185605D01*
X145487145Y-111183506D01*
X145474044Y-111181714D01*
X145459069Y-111180228D01*
X145442512Y-111179047D01*
X145405819Y-111177585D01*
X145366302Y-111177310D01*
X145326297Y-111178204D01*
X145288141Y-111180250D01*
X145254171Y-111183428D01*
X145239485Y-111185436D01*
X145226722Y-111187721D01*
X145199858Y-111193808D01*
X145173496Y-111200834D01*
X145147659Y-111208775D01*
X145122370Y-111217606D01*
X145097653Y-111227301D01*
X145073529Y-111237835D01*
X145050023Y-111249184D01*
X145027157Y-111261323D01*
X144983439Y-111287869D01*
X144942560Y-111317274D01*
X144904703Y-111349339D01*
X144886966Y-111366306D01*
X144870054Y-111383862D01*
X144853990Y-111401984D01*
X144838798Y-111420646D01*
X144824499Y-111439823D01*
X144811118Y-111459490D01*
X144798677Y-111479622D01*
X144787199Y-111500194D01*
X144776708Y-111521181D01*
X144767226Y-111542558D01*
X144758777Y-111564301D01*
X144751384Y-111586384D01*
X144745070Y-111608782D01*
X144739857Y-111631471D01*
X144735769Y-111654425D01*
X144732829Y-111677619D01*
X144731061Y-111701029D01*
X144730486Y-111724629D01*
X144521391Y-111724629D01*
X144518574Y-111666601D01*
X144461914Y-111629481D01*
X144421269Y-111602789D01*
X144404943Y-111591871D01*
X144391052Y-111582296D01*
X144379426Y-111573858D01*
X144369892Y-111566351D01*
X144362280Y-111559567D01*
X144356417Y-111553300D01*
X144354088Y-111550296D01*
X144352132Y-111547344D01*
X144350528Y-111544418D01*
X144349255Y-111541492D01*
X144348290Y-111538540D01*
X144347612Y-111535538D01*
X144347201Y-111532457D01*
X144347034Y-111529274D01*
X144347347Y-111522495D01*
X144348382Y-111514994D01*
X144351928Y-111496999D01*
X144356746Y-111477648D01*
X144363551Y-111456361D01*
X144372103Y-111433551D01*
X144382160Y-111409632D01*
X144393482Y-111385018D01*
X144405827Y-111360121D01*
X144418956Y-111335355D01*
X144432627Y-111311135D01*
X144446600Y-111287873D01*
X144460634Y-111265983D01*
X144474487Y-111245879D01*
X144487920Y-111227974D01*
X144500692Y-111212682D01*
X144512561Y-111200417D01*
X144523287Y-111191592D01*
X144528146Y-111188598D01*
X144532629Y-111186620D01*
X144533598Y-111186390D01*
X144534800Y-111186278D01*
X144537870Y-111186396D01*
X144541784Y-111186952D01*
X144546483Y-111187928D01*
X144551912Y-111189303D01*
X144558013Y-111191058D01*
X144564730Y-111193173D01*
X144572005Y-111195629D01*
X144579783Y-111198404D01*
X144588005Y-111201481D01*
X144596616Y-111204838D01*
X144605558Y-111208457D01*
X144614774Y-111212317D01*
X144624208Y-111216399D01*
X144633803Y-111220683D01*
X144643502Y-111225149D01*
X144737873Y-111269277D01*
X144783230Y-111229333D01*
X144793945Y-111220374D01*
X144807040Y-111210209D01*
X144822008Y-111199190D01*
X144838340Y-111187668D01*
X144855529Y-111175995D01*
X144873065Y-111164523D01*
X144890440Y-111153603D01*
X144907147Y-111143587D01*
X144930884Y-111129577D01*
X144940696Y-111123598D01*
X144949239Y-111118203D01*
X144956591Y-111113316D01*
X144962827Y-111108863D01*
X144968025Y-111104768D01*
X144972262Y-111100957D01*
X144975614Y-111097355D01*
X144978157Y-111093887D01*
X144979970Y-111090478D01*
X144981128Y-111087052D01*
X144981708Y-111083535D01*
X144981788Y-111079851D01*
X144981443Y-111075927D01*
X144980751Y-111071686D01*
X144979627Y-111064901D01*
X144978330Y-111055587D01*
X144976907Y-111044164D01*
X144975403Y-111031048D01*
X144972337Y-111001403D01*
X144969503Y-110969992D01*
X144966709Y-110939380D01*
X144963749Y-110911915D01*
X144960979Y-110890600D01*
X144959775Y-110883187D01*
X144958750Y-110878439D01*
X144958463Y-110876477D01*
X144958650Y-110874387D01*
X144959293Y-110872176D01*
X144960377Y-110869854D01*
X144961883Y-110867431D01*
X144963796Y-110864917D01*
X144966099Y-110862320D01*
X144968775Y-110859650D01*
X144971807Y-110856918D01*
X144975178Y-110854131D01*
X144982870Y-110848433D01*
X144991717Y-110842634D01*
X145001586Y-110836807D01*
X145012340Y-110831030D01*
X145023847Y-110825378D01*
X145035972Y-110819926D01*
X145048579Y-110814750D01*
X145061535Y-110809926D01*
X145074705Y-110805529D01*
X145087956Y-110801635D01*
X145101151Y-110798320D01*
X145113266Y-110796004D01*
X145127871Y-110793974D01*
X145163044Y-110790775D01*
X145203657Y-110788742D01*
X145246697Y-110787891D01*
X145289151Y-110788241D01*
G37*
G36*
X145444843Y-111383577D02*
G01*
X145458489Y-111384573D01*
X145471994Y-111386236D01*
X145485361Y-111388570D01*
X145498594Y-111391576D01*
X145511695Y-111395259D01*
X145524667Y-111399620D01*
X145537514Y-111404664D01*
X145550239Y-111410392D01*
X145562845Y-111416807D01*
X145575335Y-111423913D01*
X145587713Y-111431712D01*
X145599980Y-111440207D01*
X145612141Y-111449401D01*
X145624199Y-111459297D01*
X145636156Y-111469898D01*
X145648017Y-111481207D01*
X145659783Y-111493226D01*
X145671458Y-111505958D01*
X145683046Y-111519407D01*
X145705970Y-111548464D01*
X145728580Y-111580422D01*
X145750902Y-111615301D01*
X145772960Y-111653126D01*
X145794780Y-111693920D01*
X145816386Y-111737706D01*
X145826279Y-111758974D01*
X145834005Y-111776715D01*
X145837098Y-111784430D01*
X145839702Y-111791464D01*
X145841833Y-111797884D01*
X145843509Y-111803757D01*
X145844747Y-111809151D01*
X145845564Y-111814132D01*
X145845979Y-111818767D01*
X145846007Y-111823123D01*
X145845668Y-111827268D01*
X145844977Y-111831268D01*
X145843952Y-111835191D01*
X145842611Y-111839103D01*
X145840090Y-111844643D01*
X145836552Y-111850822D01*
X145832133Y-111857502D01*
X145826966Y-111864547D01*
X145821188Y-111871817D01*
X145814932Y-111879177D01*
X145808334Y-111886490D01*
X145801529Y-111893616D01*
X145794651Y-111900421D01*
X145787835Y-111906765D01*
X145781216Y-111912512D01*
X145774930Y-111917525D01*
X145769110Y-111921666D01*
X145763891Y-111924798D01*
X145761550Y-111925942D01*
X145759409Y-111926783D01*
X145757486Y-111927303D01*
X145755798Y-111927485D01*
X145755247Y-111927403D01*
X145754641Y-111927153D01*
X145753985Y-111926740D01*
X145753279Y-111926167D01*
X145752527Y-111925440D01*
X145751729Y-111924562D01*
X145750008Y-111922370D01*
X145748134Y-111919625D01*
X145746123Y-111916360D01*
X145743993Y-111912609D01*
X145741761Y-111908404D01*
X145739444Y-111903780D01*
X145737059Y-111898769D01*
X145734624Y-111893405D01*
X145732155Y-111887721D01*
X145729670Y-111881751D01*
X145727186Y-111875528D01*
X145724721Y-111869086D01*
X145722291Y-111862457D01*
X145717687Y-111850022D01*
X145713231Y-111838884D01*
X145708859Y-111828993D01*
X145704505Y-111820301D01*
X145700106Y-111812757D01*
X145697870Y-111809400D01*
X145695598Y-111806312D01*
X145693283Y-111803486D01*
X145690916Y-111800915D01*
X145688490Y-111798595D01*
X145685996Y-111796519D01*
X145683427Y-111794679D01*
X145680774Y-111793071D01*
X145678030Y-111791688D01*
X145675186Y-111790524D01*
X145672234Y-111789572D01*
X145669167Y-111788827D01*
X145665976Y-111788282D01*
X145662654Y-111787930D01*
X145659191Y-111787767D01*
X145655581Y-111787785D01*
X145647885Y-111788340D01*
X145639501Y-111789548D01*
X145630366Y-111791357D01*
X145621416Y-111793497D01*
X145617347Y-111794624D01*
X145613545Y-111795803D01*
X145610008Y-111797044D01*
X145606732Y-111798359D01*
X145603715Y-111799757D01*
X145600954Y-111801250D01*
X145598447Y-111802847D01*
X145596191Y-111804560D01*
X145594183Y-111806400D01*
X145592421Y-111808376D01*
X145590901Y-111810499D01*
X145589622Y-111812781D01*
X145588580Y-111815231D01*
X145587773Y-111817860D01*
X145587198Y-111820679D01*
X145586852Y-111823699D01*
X145586733Y-111826929D01*
X145586839Y-111830381D01*
X145587165Y-111834065D01*
X145587710Y-111837993D01*
X145588471Y-111842173D01*
X145589446Y-111846618D01*
X145590631Y-111851337D01*
X145592024Y-111856341D01*
X145595422Y-111867248D01*
X145599620Y-111879424D01*
X145604596Y-111892952D01*
X145609603Y-111906858D01*
X145613954Y-111920150D01*
X145617578Y-111932515D01*
X145620402Y-111943640D01*
X145622353Y-111953209D01*
X145622979Y-111957312D01*
X145623360Y-111960909D01*
X145623486Y-111963961D01*
X145623349Y-111966428D01*
X145622939Y-111968270D01*
X145622630Y-111968945D01*
X145622248Y-111969450D01*
X145621203Y-111970317D01*
X145619828Y-111971167D01*
X145616161Y-111972812D01*
X145611387Y-111974370D01*
X145605647Y-111975826D01*
X145599080Y-111977168D01*
X145591829Y-111978381D01*
X145584032Y-111979451D01*
X145575830Y-111980364D01*
X145567364Y-111981106D01*
X145558773Y-111981664D01*
X145550199Y-111982023D01*
X145541782Y-111982169D01*
X145533662Y-111982089D01*
X145525979Y-111981769D01*
X145518874Y-111981194D01*
X145512487Y-111980350D01*
X145512487Y-111980351D01*
X145510849Y-111980031D01*
X145509254Y-111979612D01*
X145507699Y-111979086D01*
X145506178Y-111978444D01*
X145504688Y-111977678D01*
X145503225Y-111976779D01*
X145501783Y-111975738D01*
X145500359Y-111974548D01*
X145498948Y-111973199D01*
X145497546Y-111971684D01*
X145496148Y-111969994D01*
X145494750Y-111968120D01*
X145493348Y-111966055D01*
X145491937Y-111963788D01*
X145490513Y-111961313D01*
X145489071Y-111958621D01*
X145487607Y-111955703D01*
X145486117Y-111952550D01*
X145484597Y-111949155D01*
X145483042Y-111945509D01*
X145481447Y-111941603D01*
X145479808Y-111937429D01*
X145476382Y-111928243D01*
X145472728Y-111917884D01*
X145468812Y-111906283D01*
X145464599Y-111893374D01*
X145460052Y-111879088D01*
X145438994Y-111808078D01*
X145418894Y-111732667D01*
X145400524Y-111656609D01*
X145384651Y-111583659D01*
X145381542Y-111567360D01*
X145495145Y-111567360D01*
X145495193Y-111573875D01*
X145495375Y-111581309D01*
X145495661Y-111589730D01*
X145496020Y-111596646D01*
X145496581Y-111603266D01*
X145497344Y-111609589D01*
X145498310Y-111615616D01*
X145499478Y-111621346D01*
X145500849Y-111626780D01*
X145502423Y-111631919D01*
X145504201Y-111636761D01*
X145506181Y-111641307D01*
X145508365Y-111645558D01*
X145510752Y-111649513D01*
X145513344Y-111653172D01*
X145516139Y-111656536D01*
X145519138Y-111659605D01*
X145522342Y-111662378D01*
X145525750Y-111664857D01*
X145529363Y-111667041D01*
X145533181Y-111668930D01*
X145537204Y-111670524D01*
X145541431Y-111671823D01*
X145545865Y-111672828D01*
X145550504Y-111673539D01*
X145555348Y-111673956D01*
X145560398Y-111674078D01*
X145565655Y-111673906D01*
X145571117Y-111673441D01*
X145576787Y-111672681D01*
X145582662Y-111671628D01*
X145588744Y-111670282D01*
X145595034Y-111668642D01*
X145601530Y-111666709D01*
X145608234Y-111664482D01*
X145612225Y-111663017D01*
X145615936Y-111661501D01*
X145619366Y-111659930D01*
X145622514Y-111658301D01*
X145625381Y-111656611D01*
X145627964Y-111654856D01*
X145630264Y-111653033D01*
X145632281Y-111651138D01*
X145634013Y-111649168D01*
X145635460Y-111647120D01*
X145636622Y-111644990D01*
X145637499Y-111642775D01*
X145638088Y-111640472D01*
X145638391Y-111638076D01*
X145638406Y-111635586D01*
X145638134Y-111632997D01*
X145637573Y-111630306D01*
X145636722Y-111627510D01*
X145635582Y-111624605D01*
X145634152Y-111621588D01*
X145632431Y-111618455D01*
X145630419Y-111615204D01*
X145628116Y-111611830D01*
X145625520Y-111608331D01*
X145622631Y-111604703D01*
X145619448Y-111600943D01*
X145615972Y-111597047D01*
X145612202Y-111593011D01*
X145608136Y-111588834D01*
X145603776Y-111584510D01*
X145599119Y-111580037D01*
X145594165Y-111575412D01*
X145587896Y-111569717D01*
X145581981Y-111564524D01*
X145576392Y-111559818D01*
X145571104Y-111555585D01*
X145566088Y-111551809D01*
X145561317Y-111548477D01*
X145556763Y-111545573D01*
X145552401Y-111543084D01*
X145548201Y-111540994D01*
X145544138Y-111539290D01*
X145540184Y-111537955D01*
X145536311Y-111536977D01*
X145532492Y-111536340D01*
X145528701Y-111536029D01*
X145524909Y-111536031D01*
X145521090Y-111536331D01*
X145516524Y-111536898D01*
X145512502Y-111537527D01*
X145510685Y-111537885D01*
X145508992Y-111538282D01*
X145507420Y-111538728D01*
X145505963Y-111539231D01*
X145504619Y-111539798D01*
X145503384Y-111540438D01*
X145502253Y-111541160D01*
X145501222Y-111541971D01*
X145500288Y-111542880D01*
X145499447Y-111543895D01*
X145498694Y-111545025D01*
X145498026Y-111546277D01*
X145497439Y-111547660D01*
X145496929Y-111549182D01*
X145496492Y-111550852D01*
X145496124Y-111552677D01*
X145495821Y-111554666D01*
X145495579Y-111556827D01*
X145495395Y-111559169D01*
X145495264Y-111561700D01*
X145495145Y-111567360D01*
X145381542Y-111567360D01*
X145372045Y-111517573D01*
X145363475Y-111462105D01*
X145360944Y-111439527D01*
X145359711Y-111421012D01*
X145359871Y-111407029D01*
X145361521Y-111398047D01*
X145361954Y-111397049D01*
X145362473Y-111396091D01*
X145363082Y-111395173D01*
X145363783Y-111394293D01*
X145364578Y-111393452D01*
X145365470Y-111392649D01*
X145366461Y-111391882D01*
X145367555Y-111391153D01*
X145368753Y-111390460D01*
X145370058Y-111389802D01*
X145371472Y-111389180D01*
X145372999Y-111388592D01*
X145374641Y-111388038D01*
X145376400Y-111387517D01*
X145378279Y-111387029D01*
X145380281Y-111386574D01*
X145382407Y-111386151D01*
X145384661Y-111385758D01*
X145387046Y-111385397D01*
X145389563Y-111385066D01*
X145395005Y-111384491D01*
X145401010Y-111384031D01*
X145407596Y-111383681D01*
X145414785Y-111383436D01*
X145422598Y-111383293D01*
X145431054Y-111383246D01*
X145444843Y-111383577D01*
G37*
G36*
X145200000Y-111400000D02*
G01*
X145206602Y-111401126D01*
X145212516Y-111402750D01*
X145217695Y-111404887D01*
X145222094Y-111407552D01*
X145224154Y-111409405D01*
X145226159Y-111411874D01*
X145228105Y-111414917D01*
X145229987Y-111418494D01*
X145233545Y-111427088D01*
X145236797Y-111437330D01*
X145239709Y-111448896D01*
X145242247Y-111461462D01*
X145244376Y-111474703D01*
X145246061Y-111488294D01*
X145247268Y-111501910D01*
X145247963Y-111515228D01*
X145248110Y-111527922D01*
X145247677Y-111539668D01*
X145246627Y-111550141D01*
X145244926Y-111559018D01*
X145243821Y-111562755D01*
X145242541Y-111565972D01*
X145241080Y-111568627D01*
X145239436Y-111570680D01*
X145237932Y-111572125D01*
X145236350Y-111573538D01*
X145234702Y-111574911D01*
X145233003Y-111576236D01*
X145231264Y-111577505D01*
X145229501Y-111578711D01*
X145227725Y-111579846D01*
X145225950Y-111580902D01*
X145224190Y-111581872D01*
X145222459Y-111582748D01*
X145220768Y-111583523D01*
X145219132Y-111584188D01*
X145217564Y-111584736D01*
X145216078Y-111585160D01*
X145214686Y-111585452D01*
X145213403Y-111585604D01*
X145210625Y-111585833D01*
X145207278Y-111586188D01*
X145203488Y-111586652D01*
X145199382Y-111587207D01*
X145195088Y-111587835D01*
X145190734Y-111588518D01*
X145186447Y-111589238D01*
X145182354Y-111589977D01*
X145177557Y-111590748D01*
X145171253Y-111591560D01*
X145163711Y-111592389D01*
X145155201Y-111593210D01*
X145145989Y-111593998D01*
X145136345Y-111594730D01*
X145126539Y-111595380D01*
X145116838Y-111595925D01*
X145103401Y-111596967D01*
X145090527Y-111598685D01*
X145078227Y-111601052D01*
X145066513Y-111604041D01*
X145055395Y-111607624D01*
X145044885Y-111611774D01*
X145034994Y-111616463D01*
X145025733Y-111621663D01*
X145017114Y-111627348D01*
X145009147Y-111633490D01*
X145001844Y-111640061D01*
X144995216Y-111647034D01*
X144989275Y-111654381D01*
X144984031Y-111662076D01*
X144979495Y-111670090D01*
X144975680Y-111678396D01*
X144972596Y-111686967D01*
X144970255Y-111695775D01*
X144968667Y-111704792D01*
X144967844Y-111713992D01*
X144967797Y-111723347D01*
X144968538Y-111732829D01*
X144970077Y-111742411D01*
X144972425Y-111752066D01*
X144975595Y-111761765D01*
X144979597Y-111771483D01*
X144984443Y-111781190D01*
X144990143Y-111790860D01*
X144996709Y-111800465D01*
X145004152Y-111809977D01*
X145012484Y-111819370D01*
X145021715Y-111828616D01*
X145032364Y-111838140D01*
X145042945Y-111846532D01*
X145053393Y-111853785D01*
X145063645Y-111859893D01*
X145073634Y-111864849D01*
X145078511Y-111866893D01*
X145083298Y-111868647D01*
X145087987Y-111870110D01*
X145092570Y-111871280D01*
X145097040Y-111872158D01*
X145101388Y-111872742D01*
X145105605Y-111873031D01*
X145109685Y-111873026D01*
X145113618Y-111872724D01*
X145117398Y-111872125D01*
X145121015Y-111871228D01*
X145124462Y-111870033D01*
X145127730Y-111868538D01*
X145130812Y-111866743D01*
X145133699Y-111864647D01*
X145136384Y-111862249D01*
X145138858Y-111859548D01*
X145141114Y-111856543D01*
X145143142Y-111853235D01*
X145144936Y-111849621D01*
X145146487Y-111845701D01*
X145147786Y-111841474D01*
X145149406Y-111835267D01*
X145150703Y-111829770D01*
X145151619Y-111824919D01*
X145151917Y-111822716D01*
X145152098Y-111820651D01*
X145152154Y-111818715D01*
X145152079Y-111816900D01*
X145151866Y-111815199D01*
X145151507Y-111813603D01*
X145150994Y-111812105D01*
X145150321Y-111810696D01*
X145149480Y-111809369D01*
X145148464Y-111808115D01*
X145147266Y-111806926D01*
X145145879Y-111805795D01*
X145144294Y-111804712D01*
X145142506Y-111803672D01*
X145140506Y-111802664D01*
X145138288Y-111801682D01*
X145135844Y-111800717D01*
X145133166Y-111799761D01*
X145127083Y-111797845D01*
X145119981Y-111795869D01*
X145111800Y-111793770D01*
X145102484Y-111791484D01*
X145060413Y-111781281D01*
X145062775Y-111726556D01*
X145063332Y-111715386D01*
X145064017Y-111705407D01*
X145064873Y-111696550D01*
X145065946Y-111688751D01*
X145067279Y-111681943D01*
X145068918Y-111676060D01*
X145069866Y-111673444D01*
X145070908Y-111671035D01*
X145072047Y-111668824D01*
X145073292Y-111666802D01*
X145074645Y-111664962D01*
X145076115Y-111663295D01*
X145077705Y-111661794D01*
X145079422Y-111660448D01*
X145081271Y-111659252D01*
X145083257Y-111658195D01*
X145085387Y-111657270D01*
X145087666Y-111656468D01*
X145092692Y-111655202D01*
X145098380Y-111654331D01*
X145104775Y-111653788D01*
X145111922Y-111653508D01*
X145134682Y-111653172D01*
X145155104Y-111653314D01*
X145173324Y-111654021D01*
X145189479Y-111655376D01*
X145203707Y-111657467D01*
X145210140Y-111658814D01*
X145216143Y-111660377D01*
X145221732Y-111662166D01*
X145226925Y-111664192D01*
X145231739Y-111666466D01*
X145236190Y-111668998D01*
X145240297Y-111671799D01*
X145244075Y-111674880D01*
X145247543Y-111678251D01*
X145250717Y-111681922D01*
X145253614Y-111685906D01*
X145256252Y-111690212D01*
X145258647Y-111694850D01*
X145260817Y-111699833D01*
X145264550Y-111710871D01*
X145267587Y-111723412D01*
X145270066Y-111737540D01*
X145272122Y-111753342D01*
X145275855Y-111783525D01*
X145281128Y-111822627D01*
X145287242Y-111865594D01*
X145293494Y-111907372D01*
X145298178Y-111938232D01*
X145301446Y-111961881D01*
X145302530Y-111971377D01*
X145303237Y-111979520D01*
X145303561Y-111986461D01*
X145303493Y-111992350D01*
X145303028Y-111997336D01*
X145302156Y-112001570D01*
X145300871Y-112005202D01*
X145299166Y-112008382D01*
X145297033Y-112011259D01*
X145294465Y-112013985D01*
X145287994Y-112019579D01*
X145285279Y-112021598D01*
X145282270Y-112023481D01*
X145278965Y-112025230D01*
X145275359Y-112026845D01*
X145271450Y-112028327D01*
X145267233Y-112029676D01*
X145262705Y-112030893D01*
X145257864Y-112031979D01*
X145252704Y-112032935D01*
X145247224Y-112033761D01*
X145241419Y-112034458D01*
X145235286Y-112035027D01*
X145228822Y-112035468D01*
X145222022Y-112035782D01*
X145214885Y-112035970D01*
X145207405Y-112036032D01*
X145183743Y-112035812D01*
X145163912Y-112035211D01*
X145156083Y-112034797D01*
X145149992Y-112034322D01*
X145145898Y-112033799D01*
X145144682Y-112033522D01*
X145144061Y-112033237D01*
X145144061Y-112033238D01*
X145143499Y-112032919D01*
X145142452Y-112032543D01*
X145140947Y-112032113D01*
X145139011Y-112031635D01*
X145133951Y-112030554D01*
X145127486Y-112029337D01*
X145119832Y-112028024D01*
X145111201Y-112026652D01*
X145101808Y-112025259D01*
X145091868Y-112023885D01*
X145073315Y-112020829D01*
X145055262Y-112016687D01*
X145037731Y-112011476D01*
X145020748Y-112005215D01*
X145004335Y-111997922D01*
X144988518Y-111989614D01*
X144973318Y-111980311D01*
X144958762Y-111970029D01*
X144944871Y-111958787D01*
X144931671Y-111946603D01*
X144919185Y-111933494D01*
X144907437Y-111919481D01*
X144896451Y-111904579D01*
X144886251Y-111888807D01*
X144876860Y-111872184D01*
X144868303Y-111854727D01*
X144858843Y-111831725D01*
X144851174Y-111808327D01*
X144845276Y-111784658D01*
X144841131Y-111760840D01*
X144838720Y-111736997D01*
X144838024Y-111713252D01*
X144839024Y-111689727D01*
X144841702Y-111666547D01*
X144846038Y-111643834D01*
X144852014Y-111621712D01*
X144859611Y-111600303D01*
X144868810Y-111579731D01*
X144879592Y-111560119D01*
X144891939Y-111541590D01*
X144905831Y-111524267D01*
X144921251Y-111508274D01*
X144936464Y-111495172D01*
X144953864Y-111482406D01*
X144973086Y-111470098D01*
X144993762Y-111458371D01*
X145015527Y-111447347D01*
X145038015Y-111437148D01*
X145060860Y-111427899D01*
X145083694Y-111419720D01*
X145106154Y-111412734D01*
X145127871Y-111407065D01*
X145148480Y-111402834D01*
X145167616Y-111400165D01*
X145184911Y-111399179D01*
X145200000Y-111400000D01*
G37*
D11*
X158939378Y-91776547D02*
X159053664Y-91814642D01*
X159053664Y-91814642D02*
X159091759Y-91852738D01*
X159091759Y-91852738D02*
X159129855Y-91928928D01*
X159129855Y-91928928D02*
X159129855Y-92043214D01*
X159129855Y-92043214D02*
X159091759Y-92119404D01*
X159091759Y-92119404D02*
X159053664Y-92157500D01*
X159053664Y-92157500D02*
X158977474Y-92195595D01*
X158977474Y-92195595D02*
X158672712Y-92195595D01*
X158672712Y-92195595D02*
X158672712Y-91395595D01*
X158672712Y-91395595D02*
X158939378Y-91395595D01*
X158939378Y-91395595D02*
X159015569Y-91433690D01*
X159015569Y-91433690D02*
X159053664Y-91471785D01*
X159053664Y-91471785D02*
X159091759Y-91547976D01*
X159091759Y-91547976D02*
X159091759Y-91624166D01*
X159091759Y-91624166D02*
X159053664Y-91700357D01*
X159053664Y-91700357D02*
X159015569Y-91738452D01*
X159015569Y-91738452D02*
X158939378Y-91776547D01*
X158939378Y-91776547D02*
X158672712Y-91776547D01*
X159472712Y-92195595D02*
X159472712Y-91395595D01*
X159472712Y-91395595D02*
X159739378Y-91967023D01*
X159739378Y-91967023D02*
X160006045Y-91395595D01*
X160006045Y-91395595D02*
X160006045Y-92195595D01*
X160348902Y-92157500D02*
X160463188Y-92195595D01*
X160463188Y-92195595D02*
X160653664Y-92195595D01*
X160653664Y-92195595D02*
X160729855Y-92157500D01*
X160729855Y-92157500D02*
X160767950Y-92119404D01*
X160767950Y-92119404D02*
X160806045Y-92043214D01*
X160806045Y-92043214D02*
X160806045Y-91967023D01*
X160806045Y-91967023D02*
X160767950Y-91890833D01*
X160767950Y-91890833D02*
X160729855Y-91852738D01*
X160729855Y-91852738D02*
X160653664Y-91814642D01*
X160653664Y-91814642D02*
X160501283Y-91776547D01*
X160501283Y-91776547D02*
X160425093Y-91738452D01*
X160425093Y-91738452D02*
X160386998Y-91700357D01*
X160386998Y-91700357D02*
X160348902Y-91624166D01*
X160348902Y-91624166D02*
X160348902Y-91547976D01*
X160348902Y-91547976D02*
X160386998Y-91471785D01*
X160386998Y-91471785D02*
X160425093Y-91433690D01*
X160425093Y-91433690D02*
X160501283Y-91395595D01*
X160501283Y-91395595D02*
X160691760Y-91395595D01*
X160691760Y-91395595D02*
X160806045Y-91433690D01*
X130567950Y-89757595D02*
X130667950Y-88957595D01*
X130620331Y-89338547D02*
X131077474Y-89338547D01*
X131025093Y-89757595D02*
X131125093Y-88957595D01*
X131715569Y-89719500D02*
X131634616Y-89757595D01*
X131634616Y-89757595D02*
X131482235Y-89757595D01*
X131482235Y-89757595D02*
X131410807Y-89719500D01*
X131410807Y-89719500D02*
X131382235Y-89643309D01*
X131382235Y-89643309D02*
X131420331Y-89338547D01*
X131420331Y-89338547D02*
X131467950Y-89262357D01*
X131467950Y-89262357D02*
X131548902Y-89224261D01*
X131548902Y-89224261D02*
X131701283Y-89224261D01*
X131701283Y-89224261D02*
X131772711Y-89262357D01*
X131772711Y-89262357D02*
X131801283Y-89338547D01*
X131801283Y-89338547D02*
X131791759Y-89414738D01*
X131791759Y-89414738D02*
X131401283Y-89490928D01*
X132158425Y-89224261D02*
X132058425Y-90024261D01*
X132153664Y-89262357D02*
X132234616Y-89224261D01*
X132234616Y-89224261D02*
X132386997Y-89224261D01*
X132386997Y-89224261D02*
X132458425Y-89262357D01*
X132458425Y-89262357D02*
X132491759Y-89300452D01*
X132491759Y-89300452D02*
X132520330Y-89376642D01*
X132520330Y-89376642D02*
X132491759Y-89605214D01*
X132491759Y-89605214D02*
X132444140Y-89681404D01*
X132444140Y-89681404D02*
X132401283Y-89719500D01*
X132401283Y-89719500D02*
X132320330Y-89757595D01*
X132320330Y-89757595D02*
X132167949Y-89757595D01*
X132167949Y-89757595D02*
X132096521Y-89719500D01*
X132767950Y-89224261D02*
X133072712Y-89224261D01*
X132915569Y-88957595D02*
X132829855Y-89643309D01*
X132829855Y-89643309D02*
X132858426Y-89719500D01*
X132858426Y-89719500D02*
X132929855Y-89757595D01*
X132929855Y-89757595D02*
X133006045Y-89757595D01*
X133615569Y-89757595D02*
X133667950Y-89338547D01*
X133667950Y-89338547D02*
X133639378Y-89262357D01*
X133639378Y-89262357D02*
X133567950Y-89224261D01*
X133567950Y-89224261D02*
X133415569Y-89224261D01*
X133415569Y-89224261D02*
X133334617Y-89262357D01*
X133620331Y-89719500D02*
X133539378Y-89757595D01*
X133539378Y-89757595D02*
X133348902Y-89757595D01*
X133348902Y-89757595D02*
X133277474Y-89719500D01*
X133277474Y-89719500D02*
X133248902Y-89643309D01*
X133248902Y-89643309D02*
X133258426Y-89567119D01*
X133258426Y-89567119D02*
X133306045Y-89490928D01*
X133306045Y-89490928D02*
X133386998Y-89452833D01*
X133386998Y-89452833D02*
X133577474Y-89452833D01*
X133577474Y-89452833D02*
X133658426Y-89414738D01*
X134344141Y-89719500D02*
X134263188Y-89757595D01*
X134263188Y-89757595D02*
X134110808Y-89757595D01*
X134110808Y-89757595D02*
X134039379Y-89719500D01*
X134039379Y-89719500D02*
X134006046Y-89681404D01*
X134006046Y-89681404D02*
X133977474Y-89605214D01*
X133977474Y-89605214D02*
X134006046Y-89376642D01*
X134006046Y-89376642D02*
X134053665Y-89300452D01*
X134053665Y-89300452D02*
X134096522Y-89262357D01*
X134096522Y-89262357D02*
X134177474Y-89224261D01*
X134177474Y-89224261D02*
X134329855Y-89224261D01*
X134329855Y-89224261D02*
X134401284Y-89262357D01*
X134682236Y-89757595D02*
X134782236Y-88957595D01*
X135025093Y-89757595D02*
X135077474Y-89338547D01*
X135077474Y-89338547D02*
X135048902Y-89262357D01*
X135048902Y-89262357D02*
X134977474Y-89224261D01*
X134977474Y-89224261D02*
X134863188Y-89224261D01*
X134863188Y-89224261D02*
X134782236Y-89262357D01*
X134782236Y-89262357D02*
X134739379Y-89300452D01*
X135406046Y-89757595D02*
X135472712Y-89224261D01*
X135453665Y-89376642D02*
X135501284Y-89300452D01*
X135501284Y-89300452D02*
X135544141Y-89262357D01*
X135544141Y-89262357D02*
X135625093Y-89224261D01*
X135625093Y-89224261D02*
X135701284Y-89224261D01*
X136015570Y-89757595D02*
X135944141Y-89719500D01*
X135944141Y-89719500D02*
X135910808Y-89681404D01*
X135910808Y-89681404D02*
X135882236Y-89605214D01*
X135882236Y-89605214D02*
X135910808Y-89376642D01*
X135910808Y-89376642D02*
X135958427Y-89300452D01*
X135958427Y-89300452D02*
X136001284Y-89262357D01*
X136001284Y-89262357D02*
X136082236Y-89224261D01*
X136082236Y-89224261D02*
X136196522Y-89224261D01*
X136196522Y-89224261D02*
X136267950Y-89262357D01*
X136267950Y-89262357D02*
X136301284Y-89300452D01*
X136301284Y-89300452D02*
X136329855Y-89376642D01*
X136329855Y-89376642D02*
X136301284Y-89605214D01*
X136301284Y-89605214D02*
X136253665Y-89681404D01*
X136253665Y-89681404D02*
X136210808Y-89719500D01*
X136210808Y-89719500D02*
X136129855Y-89757595D01*
X136129855Y-89757595D02*
X136015570Y-89757595D01*
X136691760Y-89224261D02*
X136625094Y-89757595D01*
X136682237Y-89300452D02*
X136725094Y-89262357D01*
X136725094Y-89262357D02*
X136806046Y-89224261D01*
X136806046Y-89224261D02*
X136920332Y-89224261D01*
X136920332Y-89224261D02*
X136991760Y-89262357D01*
X136991760Y-89262357D02*
X137020332Y-89338547D01*
X137020332Y-89338547D02*
X136967951Y-89757595D01*
X137948904Y-89224261D02*
X138072714Y-89757595D01*
X138072714Y-89757595D02*
X138329856Y-89224261D01*
X138820333Y-88957595D02*
X138896523Y-88957595D01*
X138896523Y-88957595D02*
X138967952Y-88995690D01*
X138967952Y-88995690D02*
X139001285Y-89033785D01*
X139001285Y-89033785D02*
X139029857Y-89109976D01*
X139029857Y-89109976D02*
X139048904Y-89262357D01*
X139048904Y-89262357D02*
X139025095Y-89452833D01*
X139025095Y-89452833D02*
X138967952Y-89605214D01*
X138967952Y-89605214D02*
X138920333Y-89681404D01*
X138920333Y-89681404D02*
X138877476Y-89719500D01*
X138877476Y-89719500D02*
X138796523Y-89757595D01*
X138796523Y-89757595D02*
X138720333Y-89757595D01*
X138720333Y-89757595D02*
X138648904Y-89719500D01*
X138648904Y-89719500D02*
X138615571Y-89681404D01*
X138615571Y-89681404D02*
X138586999Y-89605214D01*
X138586999Y-89605214D02*
X138567952Y-89452833D01*
X138567952Y-89452833D02*
X138591761Y-89262357D01*
X138591761Y-89262357D02*
X138648904Y-89109976D01*
X138648904Y-89109976D02*
X138696523Y-89033785D01*
X138696523Y-89033785D02*
X138739380Y-88995690D01*
X138739380Y-88995690D02*
X138820333Y-88957595D01*
X139339381Y-89681404D02*
X139372714Y-89719500D01*
X139372714Y-89719500D02*
X139329857Y-89757595D01*
X139329857Y-89757595D02*
X139296523Y-89719500D01*
X139296523Y-89719500D02*
X139339381Y-89681404D01*
X139339381Y-89681404D02*
X139329857Y-89757595D01*
X139763190Y-89033785D02*
X139806047Y-88995690D01*
X139806047Y-88995690D02*
X139886999Y-88957595D01*
X139886999Y-88957595D02*
X140077475Y-88957595D01*
X140077475Y-88957595D02*
X140148904Y-88995690D01*
X140148904Y-88995690D02*
X140182237Y-89033785D01*
X140182237Y-89033785D02*
X140210809Y-89109976D01*
X140210809Y-89109976D02*
X140201285Y-89186166D01*
X140201285Y-89186166D02*
X140148904Y-89300452D01*
X140148904Y-89300452D02*
X139634618Y-89757595D01*
X139634618Y-89757595D02*
X140129856Y-89757595D01*
X130620331Y-90321785D02*
X130663188Y-90283690D01*
X130663188Y-90283690D02*
X130744140Y-90245595D01*
X130744140Y-90245595D02*
X130934616Y-90245595D01*
X130934616Y-90245595D02*
X131006045Y-90283690D01*
X131006045Y-90283690D02*
X131039378Y-90321785D01*
X131039378Y-90321785D02*
X131067950Y-90397976D01*
X131067950Y-90397976D02*
X131058426Y-90474166D01*
X131058426Y-90474166D02*
X131006045Y-90588452D01*
X131006045Y-90588452D02*
X130491759Y-91045595D01*
X130491759Y-91045595D02*
X130986997Y-91045595D01*
X131582236Y-90245595D02*
X131658426Y-90245595D01*
X131658426Y-90245595D02*
X131729855Y-90283690D01*
X131729855Y-90283690D02*
X131763188Y-90321785D01*
X131763188Y-90321785D02*
X131791760Y-90397976D01*
X131791760Y-90397976D02*
X131810807Y-90550357D01*
X131810807Y-90550357D02*
X131786998Y-90740833D01*
X131786998Y-90740833D02*
X131729855Y-90893214D01*
X131729855Y-90893214D02*
X131682236Y-90969404D01*
X131682236Y-90969404D02*
X131639379Y-91007500D01*
X131639379Y-91007500D02*
X131558426Y-91045595D01*
X131558426Y-91045595D02*
X131482236Y-91045595D01*
X131482236Y-91045595D02*
X131410807Y-91007500D01*
X131410807Y-91007500D02*
X131377474Y-90969404D01*
X131377474Y-90969404D02*
X131348902Y-90893214D01*
X131348902Y-90893214D02*
X131329855Y-90740833D01*
X131329855Y-90740833D02*
X131353664Y-90550357D01*
X131353664Y-90550357D02*
X131410807Y-90397976D01*
X131410807Y-90397976D02*
X131458426Y-90321785D01*
X131458426Y-90321785D02*
X131501283Y-90283690D01*
X131501283Y-90283690D02*
X131582236Y-90245595D01*
X132144141Y-90321785D02*
X132186998Y-90283690D01*
X132186998Y-90283690D02*
X132267950Y-90245595D01*
X132267950Y-90245595D02*
X132458426Y-90245595D01*
X132458426Y-90245595D02*
X132529855Y-90283690D01*
X132529855Y-90283690D02*
X132563188Y-90321785D01*
X132563188Y-90321785D02*
X132591760Y-90397976D01*
X132591760Y-90397976D02*
X132582236Y-90474166D01*
X132582236Y-90474166D02*
X132529855Y-90588452D01*
X132529855Y-90588452D02*
X132015569Y-91045595D01*
X132015569Y-91045595D02*
X132510807Y-91045595D01*
X133263189Y-90512261D02*
X133196522Y-91045595D01*
X133110808Y-90207500D02*
X132848903Y-90778928D01*
X132848903Y-90778928D02*
X133344141Y-90778928D01*
X134208426Y-110529023D02*
X134589378Y-110529023D01*
X134103664Y-110757595D02*
X134470331Y-109957595D01*
X134470331Y-109957595D02*
X134636997Y-110757595D01*
X134913188Y-110681404D02*
X134946521Y-110719500D01*
X134946521Y-110719500D02*
X134903664Y-110757595D01*
X134903664Y-110757595D02*
X134870330Y-110719500D01*
X134870330Y-110719500D02*
X134913188Y-110681404D01*
X134913188Y-110681404D02*
X134903664Y-110757595D01*
X135884616Y-110529023D02*
X136265568Y-110529023D01*
X135779854Y-110757595D02*
X136146521Y-109957595D01*
X136146521Y-109957595D02*
X136313187Y-110757595D01*
X136646520Y-110224261D02*
X136579854Y-110757595D01*
X136636997Y-110300452D02*
X136679854Y-110262357D01*
X136679854Y-110262357D02*
X136760806Y-110224261D01*
X136760806Y-110224261D02*
X136875092Y-110224261D01*
X136875092Y-110224261D02*
X136946520Y-110262357D01*
X136946520Y-110262357D02*
X136975092Y-110338547D01*
X136975092Y-110338547D02*
X136922711Y-110757595D01*
X137646521Y-110757595D02*
X137746521Y-109957595D01*
X137651283Y-110719500D02*
X137570330Y-110757595D01*
X137570330Y-110757595D02*
X137417950Y-110757595D01*
X137417950Y-110757595D02*
X137346521Y-110719500D01*
X137346521Y-110719500D02*
X137313188Y-110681404D01*
X137313188Y-110681404D02*
X137284616Y-110605214D01*
X137284616Y-110605214D02*
X137313188Y-110376642D01*
X137313188Y-110376642D02*
X137360807Y-110300452D01*
X137360807Y-110300452D02*
X137403664Y-110262357D01*
X137403664Y-110262357D02*
X137484616Y-110224261D01*
X137484616Y-110224261D02*
X137636997Y-110224261D01*
X137636997Y-110224261D02*
X137708426Y-110262357D01*
X138336998Y-110719500D02*
X138256045Y-110757595D01*
X138256045Y-110757595D02*
X138103664Y-110757595D01*
X138103664Y-110757595D02*
X138032236Y-110719500D01*
X138032236Y-110719500D02*
X138003664Y-110643309D01*
X138003664Y-110643309D02*
X138041760Y-110338547D01*
X138041760Y-110338547D02*
X138089379Y-110262357D01*
X138089379Y-110262357D02*
X138170331Y-110224261D01*
X138170331Y-110224261D02*
X138322712Y-110224261D01*
X138322712Y-110224261D02*
X138394140Y-110262357D01*
X138394140Y-110262357D02*
X138422712Y-110338547D01*
X138422712Y-110338547D02*
X138413188Y-110414738D01*
X138413188Y-110414738D02*
X138022712Y-110490928D01*
X138713188Y-110757595D02*
X138779854Y-110224261D01*
X138760807Y-110376642D02*
X138808426Y-110300452D01*
X138808426Y-110300452D02*
X138851283Y-110262357D01*
X138851283Y-110262357D02*
X138932235Y-110224261D01*
X138932235Y-110224261D02*
X139008426Y-110224261D01*
X139175092Y-110719500D02*
X139246521Y-110757595D01*
X139246521Y-110757595D02*
X139398902Y-110757595D01*
X139398902Y-110757595D02*
X139479854Y-110719500D01*
X139479854Y-110719500D02*
X139527473Y-110643309D01*
X139527473Y-110643309D02*
X139532235Y-110605214D01*
X139532235Y-110605214D02*
X139503664Y-110529023D01*
X139503664Y-110529023D02*
X139432235Y-110490928D01*
X139432235Y-110490928D02*
X139317950Y-110490928D01*
X139317950Y-110490928D02*
X139246521Y-110452833D01*
X139246521Y-110452833D02*
X139217950Y-110376642D01*
X139217950Y-110376642D02*
X139222712Y-110338547D01*
X139222712Y-110338547D02*
X139270331Y-110262357D01*
X139270331Y-110262357D02*
X139351283Y-110224261D01*
X139351283Y-110224261D02*
X139465569Y-110224261D01*
X139465569Y-110224261D02*
X139536997Y-110262357D01*
X139970331Y-110757595D02*
X139898902Y-110719500D01*
X139898902Y-110719500D02*
X139865569Y-110681404D01*
X139865569Y-110681404D02*
X139836997Y-110605214D01*
X139836997Y-110605214D02*
X139865569Y-110376642D01*
X139865569Y-110376642D02*
X139913188Y-110300452D01*
X139913188Y-110300452D02*
X139956045Y-110262357D01*
X139956045Y-110262357D02*
X140036997Y-110224261D01*
X140036997Y-110224261D02*
X140151283Y-110224261D01*
X140151283Y-110224261D02*
X140222711Y-110262357D01*
X140222711Y-110262357D02*
X140256045Y-110300452D01*
X140256045Y-110300452D02*
X140284616Y-110376642D01*
X140284616Y-110376642D02*
X140256045Y-110605214D01*
X140256045Y-110605214D02*
X140208426Y-110681404D01*
X140208426Y-110681404D02*
X140165569Y-110719500D01*
X140165569Y-110719500D02*
X140084616Y-110757595D01*
X140084616Y-110757595D02*
X139970331Y-110757595D01*
X140646521Y-110224261D02*
X140579855Y-110757595D01*
X140636998Y-110300452D02*
X140679855Y-110262357D01*
X140679855Y-110262357D02*
X140760807Y-110224261D01*
X140760807Y-110224261D02*
X140875093Y-110224261D01*
X140875093Y-110224261D02*
X140946521Y-110262357D01*
X140946521Y-110262357D02*
X140975093Y-110338547D01*
X140975093Y-110338547D02*
X140922712Y-110757595D01*
X134732236Y-111283690D02*
X134660807Y-111245595D01*
X134660807Y-111245595D02*
X134546521Y-111245595D01*
X134546521Y-111245595D02*
X134427474Y-111283690D01*
X134427474Y-111283690D02*
X134341759Y-111359880D01*
X134341759Y-111359880D02*
X134294140Y-111436071D01*
X134294140Y-111436071D02*
X134236997Y-111588452D01*
X134236997Y-111588452D02*
X134222712Y-111702738D01*
X134222712Y-111702738D02*
X134241759Y-111855119D01*
X134241759Y-111855119D02*
X134270331Y-111931309D01*
X134270331Y-111931309D02*
X134336997Y-112007500D01*
X134336997Y-112007500D02*
X134446521Y-112045595D01*
X134446521Y-112045595D02*
X134522712Y-112045595D01*
X134522712Y-112045595D02*
X134641759Y-112007500D01*
X134641759Y-112007500D02*
X134684616Y-111969404D01*
X134684616Y-111969404D02*
X134717950Y-111702738D01*
X134717950Y-111702738D02*
X134565569Y-111702738D01*
X135027474Y-111969404D02*
X135060807Y-112007500D01*
X135060807Y-112007500D02*
X135017950Y-112045595D01*
X135017950Y-112045595D02*
X134984616Y-112007500D01*
X134984616Y-112007500D02*
X135027474Y-111969404D01*
X135027474Y-111969404D02*
X135017950Y-112045595D01*
X135998902Y-111817023D02*
X136379854Y-111817023D01*
X135894140Y-112045595D02*
X136260807Y-111245595D01*
X136260807Y-111245595D02*
X136427473Y-112045595D01*
X136694140Y-112045595D02*
X136794140Y-111245595D01*
X136756045Y-111550357D02*
X136836997Y-111512261D01*
X136836997Y-111512261D02*
X136989378Y-111512261D01*
X136989378Y-111512261D02*
X137060806Y-111550357D01*
X137060806Y-111550357D02*
X137094140Y-111588452D01*
X137094140Y-111588452D02*
X137122711Y-111664642D01*
X137122711Y-111664642D02*
X137094140Y-111893214D01*
X137094140Y-111893214D02*
X137046521Y-111969404D01*
X137046521Y-111969404D02*
X137003664Y-112007500D01*
X137003664Y-112007500D02*
X136922711Y-112045595D01*
X136922711Y-112045595D02*
X136770330Y-112045595D01*
X136770330Y-112045595D02*
X136698902Y-112007500D01*
X137417950Y-112045595D02*
X137484616Y-111512261D01*
X137465569Y-111664642D02*
X137513188Y-111588452D01*
X137513188Y-111588452D02*
X137556045Y-111550357D01*
X137556045Y-111550357D02*
X137636997Y-111512261D01*
X137636997Y-111512261D02*
X137713188Y-111512261D01*
X138256045Y-112045595D02*
X138308426Y-111626547D01*
X138308426Y-111626547D02*
X138279854Y-111550357D01*
X138279854Y-111550357D02*
X138208426Y-111512261D01*
X138208426Y-111512261D02*
X138056045Y-111512261D01*
X138056045Y-111512261D02*
X137975093Y-111550357D01*
X138260807Y-112007500D02*
X138179854Y-112045595D01*
X138179854Y-112045595D02*
X137989378Y-112045595D01*
X137989378Y-112045595D02*
X137917950Y-112007500D01*
X137917950Y-112007500D02*
X137889378Y-111931309D01*
X137889378Y-111931309D02*
X137898902Y-111855119D01*
X137898902Y-111855119D02*
X137946521Y-111778928D01*
X137946521Y-111778928D02*
X138027474Y-111740833D01*
X138027474Y-111740833D02*
X138217950Y-111740833D01*
X138217950Y-111740833D02*
X138298902Y-111702738D01*
X138636998Y-112045595D02*
X138736998Y-111245595D01*
X138979855Y-112045595D02*
X139032236Y-111626547D01*
X139032236Y-111626547D02*
X139003664Y-111550357D01*
X139003664Y-111550357D02*
X138932236Y-111512261D01*
X138932236Y-111512261D02*
X138817950Y-111512261D01*
X138817950Y-111512261D02*
X138736998Y-111550357D01*
X138736998Y-111550357D02*
X138694141Y-111588452D01*
X139703665Y-112045595D02*
X139756046Y-111626547D01*
X139756046Y-111626547D02*
X139727474Y-111550357D01*
X139727474Y-111550357D02*
X139656046Y-111512261D01*
X139656046Y-111512261D02*
X139503665Y-111512261D01*
X139503665Y-111512261D02*
X139422713Y-111550357D01*
X139708427Y-112007500D02*
X139627474Y-112045595D01*
X139627474Y-112045595D02*
X139436998Y-112045595D01*
X139436998Y-112045595D02*
X139365570Y-112007500D01*
X139365570Y-112007500D02*
X139336998Y-111931309D01*
X139336998Y-111931309D02*
X139346522Y-111855119D01*
X139346522Y-111855119D02*
X139394141Y-111778928D01*
X139394141Y-111778928D02*
X139475094Y-111740833D01*
X139475094Y-111740833D02*
X139665570Y-111740833D01*
X139665570Y-111740833D02*
X139746522Y-111702738D01*
X140084618Y-112045595D02*
X140151284Y-111512261D01*
X140141761Y-111588452D02*
X140184618Y-111550357D01*
X140184618Y-111550357D02*
X140265570Y-111512261D01*
X140265570Y-111512261D02*
X140379856Y-111512261D01*
X140379856Y-111512261D02*
X140451284Y-111550357D01*
X140451284Y-111550357D02*
X140479856Y-111626547D01*
X140479856Y-111626547D02*
X140427475Y-112045595D01*
X140479856Y-111626547D02*
X140527475Y-111550357D01*
X140527475Y-111550357D02*
X140608427Y-111512261D01*
X140608427Y-111512261D02*
X140722713Y-111512261D01*
X140722713Y-111512261D02*
X140794142Y-111550357D01*
X140794142Y-111550357D02*
X140822713Y-111626547D01*
X140822713Y-111626547D02*
X140770332Y-112045595D01*
X141117951Y-112007500D02*
X141189380Y-112045595D01*
X141189380Y-112045595D02*
X141341761Y-112045595D01*
X141341761Y-112045595D02*
X141422713Y-112007500D01*
X141422713Y-112007500D02*
X141470332Y-111931309D01*
X141470332Y-111931309D02*
X141475094Y-111893214D01*
X141475094Y-111893214D02*
X141446523Y-111817023D01*
X141446523Y-111817023D02*
X141375094Y-111778928D01*
X141375094Y-111778928D02*
X141260809Y-111778928D01*
X141260809Y-111778928D02*
X141189380Y-111740833D01*
X141189380Y-111740833D02*
X141160809Y-111664642D01*
X141160809Y-111664642D02*
X141165571Y-111626547D01*
X141165571Y-111626547D02*
X141213190Y-111550357D01*
X141213190Y-111550357D02*
X141294142Y-111512261D01*
X141294142Y-111512261D02*
X141408428Y-111512261D01*
X141408428Y-111512261D02*
X141479856Y-111550357D01*
X141765570Y-112007500D02*
X141836999Y-112045595D01*
X141836999Y-112045595D02*
X141989380Y-112045595D01*
X141989380Y-112045595D02*
X142070332Y-112007500D01*
X142070332Y-112007500D02*
X142117951Y-111931309D01*
X142117951Y-111931309D02*
X142122713Y-111893214D01*
X142122713Y-111893214D02*
X142094142Y-111817023D01*
X142094142Y-111817023D02*
X142022713Y-111778928D01*
X142022713Y-111778928D02*
X141908428Y-111778928D01*
X141908428Y-111778928D02*
X141836999Y-111740833D01*
X141836999Y-111740833D02*
X141808428Y-111664642D01*
X141808428Y-111664642D02*
X141813190Y-111626547D01*
X141813190Y-111626547D02*
X141860809Y-111550357D01*
X141860809Y-111550357D02*
X141941761Y-111512261D01*
X141941761Y-111512261D02*
X142056047Y-111512261D01*
X142056047Y-111512261D02*
X142127475Y-111550357D01*
X142560809Y-112045595D02*
X142489380Y-112007500D01*
X142489380Y-112007500D02*
X142456047Y-111969404D01*
X142456047Y-111969404D02*
X142427475Y-111893214D01*
X142427475Y-111893214D02*
X142456047Y-111664642D01*
X142456047Y-111664642D02*
X142503666Y-111588452D01*
X142503666Y-111588452D02*
X142546523Y-111550357D01*
X142546523Y-111550357D02*
X142627475Y-111512261D01*
X142627475Y-111512261D02*
X142741761Y-111512261D01*
X142741761Y-111512261D02*
X142813189Y-111550357D01*
X142813189Y-111550357D02*
X142846523Y-111588452D01*
X142846523Y-111588452D02*
X142875094Y-111664642D01*
X142875094Y-111664642D02*
X142846523Y-111893214D01*
X142846523Y-111893214D02*
X142798904Y-111969404D01*
X142798904Y-111969404D02*
X142756047Y-112007500D01*
X142756047Y-112007500D02*
X142675094Y-112045595D01*
X142675094Y-112045595D02*
X142560809Y-112045595D01*
X143236999Y-111512261D02*
X143170333Y-112045595D01*
X143227476Y-111588452D02*
X143270333Y-111550357D01*
X143270333Y-111550357D02*
X143351285Y-111512261D01*
X143351285Y-111512261D02*
X143465571Y-111512261D01*
X143465571Y-111512261D02*
X143536999Y-111550357D01*
X143536999Y-111550357D02*
X143565571Y-111626547D01*
X143565571Y-111626547D02*
X143513190Y-112045595D01*
X135215476Y-107976690D02*
X135139286Y-107938595D01*
X135139286Y-107938595D02*
X135025000Y-107938595D01*
X135025000Y-107938595D02*
X134910714Y-107976690D01*
X134910714Y-107976690D02*
X134834524Y-108052880D01*
X134834524Y-108052880D02*
X134796429Y-108129071D01*
X134796429Y-108129071D02*
X134758333Y-108281452D01*
X134758333Y-108281452D02*
X134758333Y-108395738D01*
X134758333Y-108395738D02*
X134796429Y-108548119D01*
X134796429Y-108548119D02*
X134834524Y-108624309D01*
X134834524Y-108624309D02*
X134910714Y-108700500D01*
X134910714Y-108700500D02*
X135025000Y-108738595D01*
X135025000Y-108738595D02*
X135101191Y-108738595D01*
X135101191Y-108738595D02*
X135215476Y-108700500D01*
X135215476Y-108700500D02*
X135253572Y-108662404D01*
X135253572Y-108662404D02*
X135253572Y-108395738D01*
X135253572Y-108395738D02*
X135101191Y-108395738D01*
X135596429Y-108738595D02*
X135596429Y-107938595D01*
X135596429Y-107938595D02*
X136053572Y-108738595D01*
X136053572Y-108738595D02*
X136053572Y-107938595D01*
X136434524Y-108738595D02*
X136434524Y-107938595D01*
X136434524Y-107938595D02*
X136625000Y-107938595D01*
X136625000Y-107938595D02*
X136739286Y-107976690D01*
X136739286Y-107976690D02*
X136815476Y-108052880D01*
X136815476Y-108052880D02*
X136853571Y-108129071D01*
X136853571Y-108129071D02*
X136891667Y-108281452D01*
X136891667Y-108281452D02*
X136891667Y-108395738D01*
X136891667Y-108395738D02*
X136853571Y-108548119D01*
X136853571Y-108548119D02*
X136815476Y-108624309D01*
X136815476Y-108624309D02*
X136739286Y-108700500D01*
X136739286Y-108700500D02*
X136625000Y-108738595D01*
X136625000Y-108738595D02*
X136434524Y-108738595D01*
X134313094Y-92000500D02*
X134427380Y-92038595D01*
X134427380Y-92038595D02*
X134617856Y-92038595D01*
X134617856Y-92038595D02*
X134694047Y-92000500D01*
X134694047Y-92000500D02*
X134732142Y-91962404D01*
X134732142Y-91962404D02*
X134770237Y-91886214D01*
X134770237Y-91886214D02*
X134770237Y-91810023D01*
X134770237Y-91810023D02*
X134732142Y-91733833D01*
X134732142Y-91733833D02*
X134694047Y-91695738D01*
X134694047Y-91695738D02*
X134617856Y-91657642D01*
X134617856Y-91657642D02*
X134465475Y-91619547D01*
X134465475Y-91619547D02*
X134389285Y-91581452D01*
X134389285Y-91581452D02*
X134351190Y-91543357D01*
X134351190Y-91543357D02*
X134313094Y-91467166D01*
X134313094Y-91467166D02*
X134313094Y-91390976D01*
X134313094Y-91390976D02*
X134351190Y-91314785D01*
X134351190Y-91314785D02*
X134389285Y-91276690D01*
X134389285Y-91276690D02*
X134465475Y-91238595D01*
X134465475Y-91238595D02*
X134655952Y-91238595D01*
X134655952Y-91238595D02*
X134770237Y-91276690D01*
X134998809Y-91238595D02*
X135455952Y-91238595D01*
X135227380Y-92038595D02*
X135227380Y-91238595D01*
X135684523Y-91810023D02*
X136065476Y-91810023D01*
X135608333Y-92038595D02*
X135875000Y-91238595D01*
X135875000Y-91238595D02*
X136141666Y-92038595D01*
X136294047Y-91238595D02*
X136751190Y-91238595D01*
X136522618Y-92038595D02*
X136522618Y-91238595D01*
X136979761Y-91314785D02*
X137017857Y-91276690D01*
X137017857Y-91276690D02*
X137094047Y-91238595D01*
X137094047Y-91238595D02*
X137284523Y-91238595D01*
X137284523Y-91238595D02*
X137360714Y-91276690D01*
X137360714Y-91276690D02*
X137398809Y-91314785D01*
X137398809Y-91314785D02*
X137436904Y-91390976D01*
X137436904Y-91390976D02*
X137436904Y-91467166D01*
X137436904Y-91467166D02*
X137398809Y-91581452D01*
X137398809Y-91581452D02*
X136941666Y-92038595D01*
X136941666Y-92038595D02*
X137436904Y-92038595D01*
X147180952Y-91619785D02*
X147104762Y-91581690D01*
X147104762Y-91581690D02*
X147028571Y-91505500D01*
X147028571Y-91505500D02*
X146914285Y-91391214D01*
X146914285Y-91391214D02*
X146838095Y-91353119D01*
X146838095Y-91353119D02*
X146761904Y-91353119D01*
X146800000Y-91543595D02*
X146723809Y-91505500D01*
X146723809Y-91505500D02*
X146647619Y-91429309D01*
X146647619Y-91429309D02*
X146609523Y-91276928D01*
X146609523Y-91276928D02*
X146609523Y-91010261D01*
X146609523Y-91010261D02*
X146647619Y-90857880D01*
X146647619Y-90857880D02*
X146723809Y-90781690D01*
X146723809Y-90781690D02*
X146800000Y-90743595D01*
X146800000Y-90743595D02*
X146952381Y-90743595D01*
X146952381Y-90743595D02*
X147028571Y-90781690D01*
X147028571Y-90781690D02*
X147104762Y-90857880D01*
X147104762Y-90857880D02*
X147142857Y-91010261D01*
X147142857Y-91010261D02*
X147142857Y-91276928D01*
X147142857Y-91276928D02*
X147104762Y-91429309D01*
X147104762Y-91429309D02*
X147028571Y-91505500D01*
X147028571Y-91505500D02*
X146952381Y-91543595D01*
X146952381Y-91543595D02*
X146800000Y-91543595D01*
X147295238Y-91619785D02*
X147904761Y-91619785D01*
X148095238Y-91543595D02*
X148095238Y-90743595D01*
X148095238Y-90743595D02*
X148400000Y-90743595D01*
X148400000Y-90743595D02*
X148476190Y-90781690D01*
X148476190Y-90781690D02*
X148514285Y-90819785D01*
X148514285Y-90819785D02*
X148552381Y-90895976D01*
X148552381Y-90895976D02*
X148552381Y-91010261D01*
X148552381Y-91010261D02*
X148514285Y-91086452D01*
X148514285Y-91086452D02*
X148476190Y-91124547D01*
X148476190Y-91124547D02*
X148400000Y-91162642D01*
X148400000Y-91162642D02*
X148095238Y-91162642D01*
X148895238Y-91543595D02*
X148895238Y-90743595D01*
X148895238Y-91124547D02*
X149352381Y-91124547D01*
X149352381Y-91543595D02*
X149352381Y-90743595D01*
X144712618Y-94288595D02*
X144255475Y-94288595D01*
X144484047Y-94288595D02*
X144484047Y-93488595D01*
X144484047Y-93488595D02*
X144407856Y-93602880D01*
X144407856Y-93602880D02*
X144331666Y-93679071D01*
X144331666Y-93679071D02*
X144255475Y-93717166D01*
X145207857Y-93488595D02*
X145284047Y-93488595D01*
X145284047Y-93488595D02*
X145360238Y-93526690D01*
X145360238Y-93526690D02*
X145398333Y-93564785D01*
X145398333Y-93564785D02*
X145436428Y-93640976D01*
X145436428Y-93640976D02*
X145474523Y-93793357D01*
X145474523Y-93793357D02*
X145474523Y-93983833D01*
X145474523Y-93983833D02*
X145436428Y-94136214D01*
X145436428Y-94136214D02*
X145398333Y-94212404D01*
X145398333Y-94212404D02*
X145360238Y-94250500D01*
X145360238Y-94250500D02*
X145284047Y-94288595D01*
X145284047Y-94288595D02*
X145207857Y-94288595D01*
X145207857Y-94288595D02*
X145131666Y-94250500D01*
X145131666Y-94250500D02*
X145093571Y-94212404D01*
X145093571Y-94212404D02*
X145055476Y-94136214D01*
X145055476Y-94136214D02*
X145017380Y-93983833D01*
X145017380Y-93983833D02*
X145017380Y-93793357D01*
X145017380Y-93793357D02*
X145055476Y-93640976D01*
X145055476Y-93640976D02*
X145093571Y-93564785D01*
X145093571Y-93564785D02*
X145131666Y-93526690D01*
X145131666Y-93526690D02*
X145207857Y-93488595D01*
X145817381Y-94288595D02*
X145817381Y-93488595D01*
X146274524Y-94288595D02*
X145931666Y-93831452D01*
X146274524Y-93488595D02*
X145817381Y-93945738D01*
X143593623Y-91536049D02*
X143136480Y-91536049D01*
X143365052Y-91536049D02*
X143365052Y-90736049D01*
X143365052Y-90736049D02*
X143288861Y-90850334D01*
X143288861Y-90850334D02*
X143212671Y-90926525D01*
X143212671Y-90926525D02*
X143136480Y-90964620D01*
X144088862Y-90736049D02*
X144165052Y-90736049D01*
X144165052Y-90736049D02*
X144241243Y-90774144D01*
X144241243Y-90774144D02*
X144279338Y-90812239D01*
X144279338Y-90812239D02*
X144317433Y-90888430D01*
X144317433Y-90888430D02*
X144355528Y-91040811D01*
X144355528Y-91040811D02*
X144355528Y-91231287D01*
X144355528Y-91231287D02*
X144317433Y-91383668D01*
X144317433Y-91383668D02*
X144279338Y-91459858D01*
X144279338Y-91459858D02*
X144241243Y-91497954D01*
X144241243Y-91497954D02*
X144165052Y-91536049D01*
X144165052Y-91536049D02*
X144088862Y-91536049D01*
X144088862Y-91536049D02*
X144012671Y-91497954D01*
X144012671Y-91497954D02*
X143974576Y-91459858D01*
X143974576Y-91459858D02*
X143936481Y-91383668D01*
X143936481Y-91383668D02*
X143898385Y-91231287D01*
X143898385Y-91231287D02*
X143898385Y-91040811D01*
X143898385Y-91040811D02*
X143936481Y-90888430D01*
X143936481Y-90888430D02*
X143974576Y-90812239D01*
X143974576Y-90812239D02*
X144012671Y-90774144D01*
X144012671Y-90774144D02*
X144088862Y-90736049D01*
X144850767Y-90736049D02*
X144926957Y-90736049D01*
X144926957Y-90736049D02*
X145003148Y-90774144D01*
X145003148Y-90774144D02*
X145041243Y-90812239D01*
X145041243Y-90812239D02*
X145079338Y-90888430D01*
X145079338Y-90888430D02*
X145117433Y-91040811D01*
X145117433Y-91040811D02*
X145117433Y-91231287D01*
X145117433Y-91231287D02*
X145079338Y-91383668D01*
X145079338Y-91383668D02*
X145041243Y-91459858D01*
X145041243Y-91459858D02*
X145003148Y-91497954D01*
X145003148Y-91497954D02*
X144926957Y-91536049D01*
X144926957Y-91536049D02*
X144850767Y-91536049D01*
X144850767Y-91536049D02*
X144774576Y-91497954D01*
X144774576Y-91497954D02*
X144736481Y-91459858D01*
X144736481Y-91459858D02*
X144698386Y-91383668D01*
X144698386Y-91383668D02*
X144660290Y-91231287D01*
X144660290Y-91231287D02*
X144660290Y-91040811D01*
X144660290Y-91040811D02*
X144698386Y-90888430D01*
X144698386Y-90888430D02*
X144736481Y-90812239D01*
X144736481Y-90812239D02*
X144774576Y-90774144D01*
X144774576Y-90774144D02*
X144850767Y-90736049D01*
X145460291Y-91002715D02*
X145460291Y-91536049D01*
X145460291Y-91078906D02*
X145498386Y-91040811D01*
X145498386Y-91040811D02*
X145574576Y-91002715D01*
X145574576Y-91002715D02*
X145688862Y-91002715D01*
X145688862Y-91002715D02*
X145765053Y-91040811D01*
X145765053Y-91040811D02*
X145803148Y-91117001D01*
X145803148Y-91117001D02*
X145803148Y-91536049D01*
X138708333Y-107938595D02*
X138975000Y-108738595D01*
X138975000Y-108738595D02*
X139241666Y-107938595D01*
X139965476Y-108662404D02*
X139927380Y-108700500D01*
X139927380Y-108700500D02*
X139813095Y-108738595D01*
X139813095Y-108738595D02*
X139736904Y-108738595D01*
X139736904Y-108738595D02*
X139622618Y-108700500D01*
X139622618Y-108700500D02*
X139546428Y-108624309D01*
X139546428Y-108624309D02*
X139508333Y-108548119D01*
X139508333Y-108548119D02*
X139470237Y-108395738D01*
X139470237Y-108395738D02*
X139470237Y-108281452D01*
X139470237Y-108281452D02*
X139508333Y-108129071D01*
X139508333Y-108129071D02*
X139546428Y-108052880D01*
X139546428Y-108052880D02*
X139622618Y-107976690D01*
X139622618Y-107976690D02*
X139736904Y-107938595D01*
X139736904Y-107938595D02*
X139813095Y-107938595D01*
X139813095Y-107938595D02*
X139927380Y-107976690D01*
X139927380Y-107976690D02*
X139965476Y-108014785D01*
X140765476Y-108662404D02*
X140727380Y-108700500D01*
X140727380Y-108700500D02*
X140613095Y-108738595D01*
X140613095Y-108738595D02*
X140536904Y-108738595D01*
X140536904Y-108738595D02*
X140422618Y-108700500D01*
X140422618Y-108700500D02*
X140346428Y-108624309D01*
X140346428Y-108624309D02*
X140308333Y-108548119D01*
X140308333Y-108548119D02*
X140270237Y-108395738D01*
X140270237Y-108395738D02*
X140270237Y-108281452D01*
X140270237Y-108281452D02*
X140308333Y-108129071D01*
X140308333Y-108129071D02*
X140346428Y-108052880D01*
X140346428Y-108052880D02*
X140422618Y-107976690D01*
X140422618Y-107976690D02*
X140536904Y-107938595D01*
X140536904Y-107938595D02*
X140613095Y-107938595D01*
X140613095Y-107938595D02*
X140727380Y-107976690D01*
X140727380Y-107976690D02*
X140765476Y-108014785D01*
X138263094Y-92000500D02*
X138377380Y-92038595D01*
X138377380Y-92038595D02*
X138567856Y-92038595D01*
X138567856Y-92038595D02*
X138644047Y-92000500D01*
X138644047Y-92000500D02*
X138682142Y-91962404D01*
X138682142Y-91962404D02*
X138720237Y-91886214D01*
X138720237Y-91886214D02*
X138720237Y-91810023D01*
X138720237Y-91810023D02*
X138682142Y-91733833D01*
X138682142Y-91733833D02*
X138644047Y-91695738D01*
X138644047Y-91695738D02*
X138567856Y-91657642D01*
X138567856Y-91657642D02*
X138415475Y-91619547D01*
X138415475Y-91619547D02*
X138339285Y-91581452D01*
X138339285Y-91581452D02*
X138301190Y-91543357D01*
X138301190Y-91543357D02*
X138263094Y-91467166D01*
X138263094Y-91467166D02*
X138263094Y-91390976D01*
X138263094Y-91390976D02*
X138301190Y-91314785D01*
X138301190Y-91314785D02*
X138339285Y-91276690D01*
X138339285Y-91276690D02*
X138415475Y-91238595D01*
X138415475Y-91238595D02*
X138605952Y-91238595D01*
X138605952Y-91238595D02*
X138720237Y-91276690D01*
X138948809Y-91238595D02*
X139405952Y-91238595D01*
X139177380Y-92038595D02*
X139177380Y-91238595D01*
X139634523Y-91810023D02*
X140015476Y-91810023D01*
X139558333Y-92038595D02*
X139825000Y-91238595D01*
X139825000Y-91238595D02*
X140091666Y-92038595D01*
X140244047Y-91238595D02*
X140701190Y-91238595D01*
X140472618Y-92038595D02*
X140472618Y-91238595D01*
X141386904Y-92038595D02*
X140929761Y-92038595D01*
X141158333Y-92038595D02*
X141158333Y-91238595D01*
X141158333Y-91238595D02*
X141082142Y-91352880D01*
X141082142Y-91352880D02*
X141005952Y-91429071D01*
X141005952Y-91429071D02*
X140929761Y-91467166D01*
X161470713Y-90198595D02*
X161013570Y-90198595D01*
X161242142Y-90198595D02*
X161242142Y-89398595D01*
X161242142Y-89398595D02*
X161165951Y-89512880D01*
X161165951Y-89512880D02*
X161089761Y-89589071D01*
X161089761Y-89589071D02*
X161013570Y-89627166D01*
X161965952Y-89398595D02*
X162042142Y-89398595D01*
X162042142Y-89398595D02*
X162118333Y-89436690D01*
X162118333Y-89436690D02*
X162156428Y-89474785D01*
X162156428Y-89474785D02*
X162194523Y-89550976D01*
X162194523Y-89550976D02*
X162232618Y-89703357D01*
X162232618Y-89703357D02*
X162232618Y-89893833D01*
X162232618Y-89893833D02*
X162194523Y-90046214D01*
X162194523Y-90046214D02*
X162156428Y-90122404D01*
X162156428Y-90122404D02*
X162118333Y-90160500D01*
X162118333Y-90160500D02*
X162042142Y-90198595D01*
X162042142Y-90198595D02*
X161965952Y-90198595D01*
X161965952Y-90198595D02*
X161889761Y-90160500D01*
X161889761Y-90160500D02*
X161851666Y-90122404D01*
X161851666Y-90122404D02*
X161813571Y-90046214D01*
X161813571Y-90046214D02*
X161775475Y-89893833D01*
X161775475Y-89893833D02*
X161775475Y-89703357D01*
X161775475Y-89703357D02*
X161813571Y-89550976D01*
X161813571Y-89550976D02*
X161851666Y-89474785D01*
X161851666Y-89474785D02*
X161889761Y-89436690D01*
X161889761Y-89436690D02*
X161965952Y-89398595D01*
X162918333Y-89665261D02*
X162918333Y-90198595D01*
X162575476Y-89665261D02*
X162575476Y-90084309D01*
X162575476Y-90084309D02*
X162613571Y-90160500D01*
X162613571Y-90160500D02*
X162689761Y-90198595D01*
X162689761Y-90198595D02*
X162804047Y-90198595D01*
X162804047Y-90198595D02*
X162880238Y-90160500D01*
X162880238Y-90160500D02*
X162918333Y-90122404D01*
X150338696Y-112313595D02*
X149881553Y-112313595D01*
X150110125Y-112313595D02*
X150110125Y-111513595D01*
X150110125Y-111513595D02*
X150033934Y-111627880D01*
X150033934Y-111627880D02*
X149957744Y-111704071D01*
X149957744Y-111704071D02*
X149881553Y-111742166D01*
X150833935Y-111513595D02*
X150910125Y-111513595D01*
X150910125Y-111513595D02*
X150986316Y-111551690D01*
X150986316Y-111551690D02*
X151024411Y-111589785D01*
X151024411Y-111589785D02*
X151062506Y-111665976D01*
X151062506Y-111665976D02*
X151100601Y-111818357D01*
X151100601Y-111818357D02*
X151100601Y-112008833D01*
X151100601Y-112008833D02*
X151062506Y-112161214D01*
X151062506Y-112161214D02*
X151024411Y-112237404D01*
X151024411Y-112237404D02*
X150986316Y-112275500D01*
X150986316Y-112275500D02*
X150910125Y-112313595D01*
X150910125Y-112313595D02*
X150833935Y-112313595D01*
X150833935Y-112313595D02*
X150757744Y-112275500D01*
X150757744Y-112275500D02*
X150719649Y-112237404D01*
X150719649Y-112237404D02*
X150681554Y-112161214D01*
X150681554Y-112161214D02*
X150643458Y-112008833D01*
X150643458Y-112008833D02*
X150643458Y-111818357D01*
X150643458Y-111818357D02*
X150681554Y-111665976D01*
X150681554Y-111665976D02*
X150719649Y-111589785D01*
X150719649Y-111589785D02*
X150757744Y-111551690D01*
X150757744Y-111551690D02*
X150833935Y-111513595D01*
X151443459Y-112313595D02*
X151443459Y-111513595D01*
X151900602Y-112313595D02*
X151557744Y-111856452D01*
X151900602Y-111513595D02*
X151443459Y-111970738D01*
X150313696Y-110563595D02*
X149856553Y-110563595D01*
X150085125Y-110563595D02*
X150085125Y-109763595D01*
X150085125Y-109763595D02*
X150008934Y-109877880D01*
X150008934Y-109877880D02*
X149932744Y-109954071D01*
X149932744Y-109954071D02*
X149856553Y-109992166D01*
X150808935Y-109763595D02*
X150885125Y-109763595D01*
X150885125Y-109763595D02*
X150961316Y-109801690D01*
X150961316Y-109801690D02*
X150999411Y-109839785D01*
X150999411Y-109839785D02*
X151037506Y-109915976D01*
X151037506Y-109915976D02*
X151075601Y-110068357D01*
X151075601Y-110068357D02*
X151075601Y-110258833D01*
X151075601Y-110258833D02*
X151037506Y-110411214D01*
X151037506Y-110411214D02*
X150999411Y-110487404D01*
X150999411Y-110487404D02*
X150961316Y-110525500D01*
X150961316Y-110525500D02*
X150885125Y-110563595D01*
X150885125Y-110563595D02*
X150808935Y-110563595D01*
X150808935Y-110563595D02*
X150732744Y-110525500D01*
X150732744Y-110525500D02*
X150694649Y-110487404D01*
X150694649Y-110487404D02*
X150656554Y-110411214D01*
X150656554Y-110411214D02*
X150618458Y-110258833D01*
X150618458Y-110258833D02*
X150618458Y-110068357D01*
X150618458Y-110068357D02*
X150656554Y-109915976D01*
X150656554Y-109915976D02*
X150694649Y-109839785D01*
X150694649Y-109839785D02*
X150732744Y-109801690D01*
X150732744Y-109801690D02*
X150808935Y-109763595D01*
X151418459Y-110563595D02*
X151418459Y-109763595D01*
X151875602Y-110563595D02*
X151532744Y-110106452D01*
X151875602Y-109763595D02*
X151418459Y-110220738D01*
X160170839Y-106663595D02*
X159713696Y-106663595D01*
X159942268Y-106663595D02*
X159942268Y-105863595D01*
X159942268Y-105863595D02*
X159866077Y-105977880D01*
X159866077Y-105977880D02*
X159789887Y-106054071D01*
X159789887Y-106054071D02*
X159713696Y-106092166D01*
X160666078Y-105863595D02*
X160742268Y-105863595D01*
X160742268Y-105863595D02*
X160818459Y-105901690D01*
X160818459Y-105901690D02*
X160856554Y-105939785D01*
X160856554Y-105939785D02*
X160894649Y-106015976D01*
X160894649Y-106015976D02*
X160932744Y-106168357D01*
X160932744Y-106168357D02*
X160932744Y-106358833D01*
X160932744Y-106358833D02*
X160894649Y-106511214D01*
X160894649Y-106511214D02*
X160856554Y-106587404D01*
X160856554Y-106587404D02*
X160818459Y-106625500D01*
X160818459Y-106625500D02*
X160742268Y-106663595D01*
X160742268Y-106663595D02*
X160666078Y-106663595D01*
X160666078Y-106663595D02*
X160589887Y-106625500D01*
X160589887Y-106625500D02*
X160551792Y-106587404D01*
X160551792Y-106587404D02*
X160513697Y-106511214D01*
X160513697Y-106511214D02*
X160475601Y-106358833D01*
X160475601Y-106358833D02*
X160475601Y-106168357D01*
X160475601Y-106168357D02*
X160513697Y-106015976D01*
X160513697Y-106015976D02*
X160551792Y-105939785D01*
X160551792Y-105939785D02*
X160589887Y-105901690D01*
X160589887Y-105901690D02*
X160666078Y-105863595D01*
X161427983Y-105863595D02*
X161504173Y-105863595D01*
X161504173Y-105863595D02*
X161580364Y-105901690D01*
X161580364Y-105901690D02*
X161618459Y-105939785D01*
X161618459Y-105939785D02*
X161656554Y-106015976D01*
X161656554Y-106015976D02*
X161694649Y-106168357D01*
X161694649Y-106168357D02*
X161694649Y-106358833D01*
X161694649Y-106358833D02*
X161656554Y-106511214D01*
X161656554Y-106511214D02*
X161618459Y-106587404D01*
X161618459Y-106587404D02*
X161580364Y-106625500D01*
X161580364Y-106625500D02*
X161504173Y-106663595D01*
X161504173Y-106663595D02*
X161427983Y-106663595D01*
X161427983Y-106663595D02*
X161351792Y-106625500D01*
X161351792Y-106625500D02*
X161313697Y-106587404D01*
X161313697Y-106587404D02*
X161275602Y-106511214D01*
X161275602Y-106511214D02*
X161237506Y-106358833D01*
X161237506Y-106358833D02*
X161237506Y-106168357D01*
X161237506Y-106168357D02*
X161275602Y-106015976D01*
X161275602Y-106015976D02*
X161313697Y-105939785D01*
X161313697Y-105939785D02*
X161351792Y-105901690D01*
X161351792Y-105901690D02*
X161427983Y-105863595D01*
X162037507Y-106130261D02*
X162037507Y-106663595D01*
X162037507Y-106206452D02*
X162075602Y-106168357D01*
X162075602Y-106168357D02*
X162151792Y-106130261D01*
X162151792Y-106130261D02*
X162266078Y-106130261D01*
X162266078Y-106130261D02*
X162342269Y-106168357D01*
X162342269Y-106168357D02*
X162380364Y-106244547D01*
X162380364Y-106244547D02*
X162380364Y-106663595D01*
X154105333Y-91646051D02*
X154143429Y-91607956D01*
X154143429Y-91607956D02*
X154219619Y-91569861D01*
X154219619Y-91569861D02*
X154410095Y-91569861D01*
X154410095Y-91569861D02*
X154486286Y-91607956D01*
X154486286Y-91607956D02*
X154524381Y-91646051D01*
X154524381Y-91646051D02*
X154562476Y-91722242D01*
X154562476Y-91722242D02*
X154562476Y-91798432D01*
X154562476Y-91798432D02*
X154524381Y-91912718D01*
X154524381Y-91912718D02*
X154067238Y-92369861D01*
X154067238Y-92369861D02*
X154562476Y-92369861D01*
X154905334Y-92369861D02*
X154905334Y-91569861D01*
X155362477Y-92369861D02*
X155019619Y-91912718D01*
X155362477Y-91569861D02*
X154905334Y-92027004D01*
X154812195Y-90292485D02*
X154355052Y-90292485D01*
X154583624Y-90292485D02*
X154583624Y-89492485D01*
X154583624Y-89492485D02*
X154507433Y-89606770D01*
X154507433Y-89606770D02*
X154431243Y-89682961D01*
X154431243Y-89682961D02*
X154355052Y-89721056D01*
X155497910Y-89759151D02*
X155497910Y-90292485D01*
X155155053Y-89759151D02*
X155155053Y-90178199D01*
X155155053Y-90178199D02*
X155193148Y-90254390D01*
X155193148Y-90254390D02*
X155269338Y-90292485D01*
X155269338Y-90292485D02*
X155383624Y-90292485D01*
X155383624Y-90292485D02*
X155459815Y-90254390D01*
X155459815Y-90254390D02*
X155497910Y-90216294D01*
X154438747Y-94282658D02*
X153981604Y-94282658D01*
X154210176Y-94282658D02*
X154210176Y-93482658D01*
X154210176Y-93482658D02*
X154133985Y-93596943D01*
X154133985Y-93596943D02*
X154057795Y-93673134D01*
X154057795Y-93673134D02*
X153981604Y-93711229D01*
X154895890Y-93825515D02*
X154819700Y-93787420D01*
X154819700Y-93787420D02*
X154781605Y-93749324D01*
X154781605Y-93749324D02*
X154743509Y-93673134D01*
X154743509Y-93673134D02*
X154743509Y-93635039D01*
X154743509Y-93635039D02*
X154781605Y-93558848D01*
X154781605Y-93558848D02*
X154819700Y-93520753D01*
X154819700Y-93520753D02*
X154895890Y-93482658D01*
X154895890Y-93482658D02*
X155048271Y-93482658D01*
X155048271Y-93482658D02*
X155124462Y-93520753D01*
X155124462Y-93520753D02*
X155162557Y-93558848D01*
X155162557Y-93558848D02*
X155200652Y-93635039D01*
X155200652Y-93635039D02*
X155200652Y-93673134D01*
X155200652Y-93673134D02*
X155162557Y-93749324D01*
X155162557Y-93749324D02*
X155124462Y-93787420D01*
X155124462Y-93787420D02*
X155048271Y-93825515D01*
X155048271Y-93825515D02*
X154895890Y-93825515D01*
X154895890Y-93825515D02*
X154819700Y-93863610D01*
X154819700Y-93863610D02*
X154781605Y-93901705D01*
X154781605Y-93901705D02*
X154743509Y-93977896D01*
X154743509Y-93977896D02*
X154743509Y-94130277D01*
X154743509Y-94130277D02*
X154781605Y-94206467D01*
X154781605Y-94206467D02*
X154819700Y-94244563D01*
X154819700Y-94244563D02*
X154895890Y-94282658D01*
X154895890Y-94282658D02*
X155048271Y-94282658D01*
X155048271Y-94282658D02*
X155124462Y-94244563D01*
X155124462Y-94244563D02*
X155162557Y-94206467D01*
X155162557Y-94206467D02*
X155200652Y-94130277D01*
X155200652Y-94130277D02*
X155200652Y-93977896D01*
X155200652Y-93977896D02*
X155162557Y-93901705D01*
X155162557Y-93901705D02*
X155124462Y-93863610D01*
X155124462Y-93863610D02*
X155048271Y-93825515D01*
X155543510Y-94282658D02*
X155543510Y-93482658D01*
X156000653Y-94282658D02*
X155657795Y-93825515D01*
X156000653Y-93482658D02*
X155543510Y-93939801D01*
D12*
%TO.C,U1*%
X128690098Y-101069682D02*
X128564842Y-101960923D01*
X129160098Y-97759682D02*
X129034842Y-98650923D01*
X130769661Y-101361945D02*
X130644405Y-102253187D01*
X131239661Y-98051945D02*
X131114405Y-98943187D01*
X133480000Y-103270000D02*
X132580000Y-103270000D01*
X133480000Y-105370000D02*
X132580000Y-105370000D01*
X133758417Y-103969757D02*
X133883673Y-103078515D01*
X133950000Y-99950000D02*
X133050000Y-99950000D01*
X133950000Y-102050000D02*
X133050000Y-102050000D01*
X134228417Y-100659757D02*
X134353673Y-99768515D01*
X134420000Y-96640000D02*
X133520000Y-96640000D01*
X134420000Y-98740000D02*
X133520000Y-98740000D01*
X135837980Y-104262020D02*
X135963236Y-103370779D01*
X136307980Y-100952020D02*
X136433236Y-100060779D01*
X129528078Y-102651702D02*
G75*
G03*
X129528078Y-102651702I0J0D01*
G01*
X129998078Y-99341702D02*
G75*
G03*
X129998078Y-99341702I0J0D01*
G01*
X132030000Y-104320000D02*
G75*
G03*
X132030000Y-104320000I0J0D01*
G01*
X132500000Y-101000000D02*
G75*
G03*
X132500000Y-101000000I0J0D01*
G01*
X132970000Y-97690000D02*
G75*
G03*
X132970000Y-97690000I0J0D01*
G01*
X135000000Y-102680000D02*
G75*
G03*
X135000000Y-102680000I0J0D01*
G01*
X135470000Y-99370000D02*
G75*
G03*
X135470000Y-99370000I0J0D01*
G01*
%TO.C,U2*%
X138190098Y-101069682D02*
X138064842Y-101960923D01*
X138660098Y-97759682D02*
X138534842Y-98650923D01*
X140269661Y-101361945D02*
X140144405Y-102253187D01*
X140739661Y-98051945D02*
X140614405Y-98943187D01*
X142980000Y-103270000D02*
X142080000Y-103270000D01*
X142980000Y-105370000D02*
X142080000Y-105370000D01*
X143258417Y-103969757D02*
X143383673Y-103078515D01*
X143450000Y-99950000D02*
X142550000Y-99950000D01*
X143450000Y-102050000D02*
X142550000Y-102050000D01*
X143728417Y-100659757D02*
X143853673Y-99768515D01*
X143920000Y-96640000D02*
X143020000Y-96640000D01*
X143920000Y-98740000D02*
X143020000Y-98740000D01*
X145337980Y-104262020D02*
X145463236Y-103370779D01*
X145807980Y-100952020D02*
X145933236Y-100060779D01*
X139028078Y-102651702D02*
G75*
G03*
X139028078Y-102651702I0J0D01*
G01*
X139498078Y-99341702D02*
G75*
G03*
X139498078Y-99341702I0J0D01*
G01*
X141530000Y-104320000D02*
G75*
G03*
X141530000Y-104320000I0J0D01*
G01*
X142000000Y-101000000D02*
G75*
G03*
X142000000Y-101000000I0J0D01*
G01*
X142470000Y-97690000D02*
G75*
G03*
X142470000Y-97690000I0J0D01*
G01*
X144500000Y-102680000D02*
G75*
G03*
X144500000Y-102680000I0J0D01*
G01*
X144970000Y-99370000D02*
G75*
G03*
X144970000Y-99370000I0J0D01*
G01*
%TO.C,U4*%
X159690098Y-101069682D02*
X159564842Y-101960923D01*
X160160098Y-97759682D02*
X160034842Y-98650923D01*
X161769661Y-101361945D02*
X161644405Y-102253187D01*
X162239661Y-98051945D02*
X162114405Y-98943187D01*
X164480000Y-103270000D02*
X163580000Y-103270000D01*
X164480000Y-105370000D02*
X163580000Y-105370000D01*
X164758417Y-103969757D02*
X164883673Y-103078515D01*
X164950000Y-99950000D02*
X164050000Y-99950000D01*
X164950000Y-102050000D02*
X164050000Y-102050000D01*
X165228417Y-100659757D02*
X165353673Y-99768515D01*
X165420000Y-96640000D02*
X164520000Y-96640000D01*
X165420000Y-98740000D02*
X164520000Y-98740000D01*
X166837980Y-104262020D02*
X166963236Y-103370779D01*
X167307980Y-100952020D02*
X167433236Y-100060779D01*
X160528078Y-102651702D02*
G75*
G03*
X160528078Y-102651702I0J0D01*
G01*
X160998078Y-99341702D02*
G75*
G03*
X160998078Y-99341702I0J0D01*
G01*
X163030000Y-104320000D02*
G75*
G03*
X163030000Y-104320000I0J0D01*
G01*
X163500000Y-101000000D02*
G75*
G03*
X163500000Y-101000000I0J0D01*
G01*
X163970000Y-97690000D02*
G75*
G03*
X163970000Y-97690000I0J0D01*
G01*
X166000000Y-102680000D02*
G75*
G03*
X166000000Y-102680000I0J0D01*
G01*
X166470000Y-99370000D02*
G75*
G03*
X166470000Y-99370000I0J0D01*
G01*
%TO.C,U3*%
X150190098Y-101069682D02*
X150064842Y-101960923D01*
X150660098Y-97759682D02*
X150534842Y-98650923D01*
X152269661Y-101361945D02*
X152144405Y-102253187D01*
X152739661Y-98051945D02*
X152614405Y-98943187D01*
X154980000Y-103270000D02*
X154080000Y-103270000D01*
X154980000Y-105370000D02*
X154080000Y-105370000D01*
X155258417Y-103969757D02*
X155383673Y-103078515D01*
X155450000Y-99950000D02*
X154550000Y-99950000D01*
X155450000Y-102050000D02*
X154550000Y-102050000D01*
X155728417Y-100659757D02*
X155853673Y-99768515D01*
X155920000Y-96640000D02*
X155020000Y-96640000D01*
X155920000Y-98740000D02*
X155020000Y-98740000D01*
X157337980Y-104262020D02*
X157463236Y-103370779D01*
X157807980Y-100952020D02*
X157933236Y-100060779D01*
X151028078Y-102651702D02*
G75*
G03*
X151028078Y-102651702I0J0D01*
G01*
X151498078Y-99341702D02*
G75*
G03*
X151498078Y-99341702I0J0D01*
G01*
X153530000Y-104320000D02*
G75*
G03*
X153530000Y-104320000I0J0D01*
G01*
X154000000Y-101000000D02*
G75*
G03*
X154000000Y-101000000I0J0D01*
G01*
X154470000Y-97690000D02*
G75*
G03*
X154470000Y-97690000I0J0D01*
G01*
X156500000Y-102680000D02*
G75*
G03*
X156500000Y-102680000I0J0D01*
G01*
X156970000Y-99370000D02*
G75*
G03*
X156970000Y-99370000I0J0D01*
G01*
D13*
%TO.C,SW1*%
X127350000Y-94250000D02*
X127350000Y-95750000D01*
%TO.C,SW2*%
X127350000Y-106250000D02*
X127350000Y-107750000D01*
D12*
%TO.C,D40*%
X147735000Y-108050000D02*
X147735000Y-105765000D01*
X146265000Y-105765000D02*
X146265000Y-108050000D01*
X147735000Y-105765000D02*
X146265000Y-105765000D01*
%TO.C,TP6*%
X136525000Y-106825000D02*
G75*
G03*
X136525000Y-106825000I-700000J0D01*
G01*
%TO.C,TP2*%
X136525000Y-93275000D02*
G75*
G03*
X136525000Y-93275000I-700000J0D01*
G01*
%TO.C,Q1*%
X146515000Y-89015000D02*
X146515000Y-90485000D01*
X146515000Y-90485000D02*
X148800000Y-90485000D01*
X148800000Y-89015000D02*
X146515000Y-89015000D01*
%TO.C,R16*%
X148252258Y-94377500D02*
X147777742Y-94377500D01*
X148252258Y-93332500D02*
X147777742Y-93332500D01*
%TO.C,D37*%
X148735000Y-101115000D02*
X147265000Y-101115000D01*
X147265000Y-101115000D02*
X147265000Y-103400000D01*
X148735000Y-103400000D02*
X148735000Y-101115000D01*
%TO.C,D39*%
X145735001Y-105765000D02*
X144265001Y-105765000D01*
X144265001Y-105765000D02*
X144265001Y-108050000D01*
X145735001Y-108050000D02*
X145735001Y-105765000D01*
%TO.C,D42*%
X151735000Y-105765000D02*
X150265000Y-105765000D01*
X150265000Y-105765000D02*
X150265000Y-108050000D01*
X151735000Y-108050000D02*
X151735000Y-105765000D01*
%TO.C,C6*%
X144579442Y-90262454D02*
X144298282Y-90262454D01*
X144579442Y-89242454D02*
X144298282Y-89242454D01*
%TO.C,D41*%
X149734999Y-105765000D02*
X148264999Y-105765000D01*
X148264999Y-105765000D02*
X148264999Y-108050000D01*
X149734999Y-108050000D02*
X149734999Y-105765000D01*
%TO.C,D36*%
X147265000Y-100885000D02*
X148735000Y-100885000D01*
X148735000Y-100885000D02*
X148735000Y-98600000D01*
X147265000Y-98600000D02*
X147265000Y-100885000D01*
%TO.C,D38*%
X143735000Y-105765000D02*
X142265000Y-105765000D01*
X142265000Y-105765000D02*
X142265000Y-108050000D01*
X143735000Y-108050000D02*
X143735000Y-105765000D01*
%TO.C,TP4*%
X140475000Y-106825000D02*
G75*
G03*
X140475000Y-106825000I-700000J0D01*
G01*
%TO.C,D43*%
X153740000Y-105750000D02*
X152270000Y-105750000D01*
X152270000Y-105750000D02*
X152270000Y-108035000D01*
X153740000Y-108035000D02*
X153740000Y-105750000D01*
%TO.C,TP1*%
X140475000Y-93275000D02*
G75*
G03*
X140475000Y-93275000I-700000J0D01*
G01*
%TO.C,C9*%
X158773748Y-90640000D02*
X159296252Y-90640000D01*
X158773748Y-89170000D02*
X159296252Y-89170000D01*
%TO.C,R1*%
X153378820Y-112472500D02*
X153853336Y-112472500D01*
X153378820Y-111427500D02*
X153853336Y-111427500D01*
%TO.C,R2*%
X153378820Y-110622500D02*
X153853336Y-110622500D01*
X153378820Y-109577500D02*
X153853336Y-109577500D01*
%TO.C,C1*%
X161551078Y-108440580D02*
X161551078Y-108159420D01*
X160531078Y-108440580D02*
X160531078Y-108159420D01*
%TO.C,X1*%
X158066078Y-106750000D02*
X156266078Y-106750000D01*
X158066078Y-110350000D02*
X156866078Y-110350000D01*
X156066078Y-106350000D02*
G75*
G03*
X156066078Y-106350000I-200000J0D01*
G01*
%TO.C,R18*%
X152246647Y-92598766D02*
X152721163Y-92598766D01*
X152246647Y-91553766D02*
X152721163Y-91553766D01*
%TO.C,C8*%
X152706781Y-89123890D02*
X152184277Y-89123890D01*
X152706781Y-90593890D02*
X152184277Y-90593890D01*
D14*
%TO.C,IC1*%
X156725000Y-91750000D02*
G75*
G03*
X156725000Y-91750000I-125000J0D01*
G01*
D12*
%TO.C,R17*%
X152253871Y-94511563D02*
X152728387Y-94511563D01*
X152253871Y-93466563D02*
X152728387Y-93466563D01*
%TD*%
M02*
