%TF.GenerationSoftware,KiCad,Pcbnew,7.0.7*%
%TF.CreationDate,2024-04-07T18:23:59+02:00*%
%TF.ProjectId,Heptachron,48657074-6163-4687-926f-6e2e6b696361,rev?*%
%TF.SameCoordinates,Original*%
%TF.FileFunction,Legend,Top*%
%TF.FilePolarity,Positive*%
%FSLAX46Y46*%
G04 Gerber Fmt 4.6, Leading zero omitted, Abs format (unit mm)*
G04 Created by KiCad (PCBNEW 7.0.7) date 2024-04-07 18:23:59*
%MOMM*%
%LPD*%
G01*
G04 APERTURE LIST*
%ADD10C,0.150000*%
%ADD11C,0.127000*%
%ADD12C,0.120000*%
%ADD13C,0.254000*%
G04 APERTURE END LIST*
D10*
X146150000Y-93637500D02*
G75*
G03*
X146150000Y-93637500I-300000J0D01*
G01*
X158524819Y-109119047D02*
X158524819Y-109690475D01*
X158524819Y-109404761D02*
X157524819Y-109404761D01*
X157524819Y-109404761D02*
X157667676Y-109499999D01*
X157667676Y-109499999D02*
X157762914Y-109595237D01*
X157762914Y-109595237D02*
X157810533Y-109690475D01*
X157524819Y-108499999D02*
X157524819Y-108404761D01*
X157524819Y-108404761D02*
X157572438Y-108309523D01*
X157572438Y-108309523D02*
X157620057Y-108261904D01*
X157620057Y-108261904D02*
X157715295Y-108214285D01*
X157715295Y-108214285D02*
X157905771Y-108166666D01*
X157905771Y-108166666D02*
X158143866Y-108166666D01*
X158143866Y-108166666D02*
X158334342Y-108214285D01*
X158334342Y-108214285D02*
X158429580Y-108261904D01*
X158429580Y-108261904D02*
X158477200Y-108309523D01*
X158477200Y-108309523D02*
X158524819Y-108404761D01*
X158524819Y-108404761D02*
X158524819Y-108499999D01*
X158524819Y-108499999D02*
X158477200Y-108595237D01*
X158477200Y-108595237D02*
X158429580Y-108642856D01*
X158429580Y-108642856D02*
X158334342Y-108690475D01*
X158334342Y-108690475D02*
X158143866Y-108738094D01*
X158143866Y-108738094D02*
X157905771Y-108738094D01*
X157905771Y-108738094D02*
X157715295Y-108690475D01*
X157715295Y-108690475D02*
X157620057Y-108642856D01*
X157620057Y-108642856D02*
X157572438Y-108595237D01*
X157572438Y-108595237D02*
X157524819Y-108499999D01*
X157524819Y-107547618D02*
X157524819Y-107452380D01*
X157524819Y-107452380D02*
X157572438Y-107357142D01*
X157572438Y-107357142D02*
X157620057Y-107309523D01*
X157620057Y-107309523D02*
X157715295Y-107261904D01*
X157715295Y-107261904D02*
X157905771Y-107214285D01*
X157905771Y-107214285D02*
X158143866Y-107214285D01*
X158143866Y-107214285D02*
X158334342Y-107261904D01*
X158334342Y-107261904D02*
X158429580Y-107309523D01*
X158429580Y-107309523D02*
X158477200Y-107357142D01*
X158477200Y-107357142D02*
X158524819Y-107452380D01*
X158524819Y-107452380D02*
X158524819Y-107547618D01*
X158524819Y-107547618D02*
X158477200Y-107642856D01*
X158477200Y-107642856D02*
X158429580Y-107690475D01*
X158429580Y-107690475D02*
X158334342Y-107738094D01*
X158334342Y-107738094D02*
X158143866Y-107785713D01*
X158143866Y-107785713D02*
X157905771Y-107785713D01*
X157905771Y-107785713D02*
X157715295Y-107738094D01*
X157715295Y-107738094D02*
X157620057Y-107690475D01*
X157620057Y-107690475D02*
X157572438Y-107642856D01*
X157572438Y-107642856D02*
X157524819Y-107547618D01*
X157858152Y-106785713D02*
X158524819Y-106785713D01*
X157953390Y-106785713D02*
X157905771Y-106738094D01*
X157905771Y-106738094D02*
X157858152Y-106642856D01*
X157858152Y-106642856D02*
X157858152Y-106499999D01*
X157858152Y-106499999D02*
X157905771Y-106404761D01*
X157905771Y-106404761D02*
X158001009Y-106357142D01*
X158001009Y-106357142D02*
X158524819Y-106357142D01*
X159309523Y-112384819D02*
X158738095Y-112384819D01*
X159023809Y-112384819D02*
X159023809Y-111384819D01*
X159023809Y-111384819D02*
X158928571Y-111527676D01*
X158928571Y-111527676D02*
X158833333Y-111622914D01*
X158833333Y-111622914D02*
X158738095Y-111670533D01*
X159928571Y-111384819D02*
X160023809Y-111384819D01*
X160023809Y-111384819D02*
X160119047Y-111432438D01*
X160119047Y-111432438D02*
X160166666Y-111480057D01*
X160166666Y-111480057D02*
X160214285Y-111575295D01*
X160214285Y-111575295D02*
X160261904Y-111765771D01*
X160261904Y-111765771D02*
X160261904Y-112003866D01*
X160261904Y-112003866D02*
X160214285Y-112194342D01*
X160214285Y-112194342D02*
X160166666Y-112289580D01*
X160166666Y-112289580D02*
X160119047Y-112337200D01*
X160119047Y-112337200D02*
X160023809Y-112384819D01*
X160023809Y-112384819D02*
X159928571Y-112384819D01*
X159928571Y-112384819D02*
X159833333Y-112337200D01*
X159833333Y-112337200D02*
X159785714Y-112289580D01*
X159785714Y-112289580D02*
X159738095Y-112194342D01*
X159738095Y-112194342D02*
X159690476Y-112003866D01*
X159690476Y-112003866D02*
X159690476Y-111765771D01*
X159690476Y-111765771D02*
X159738095Y-111575295D01*
X159738095Y-111575295D02*
X159785714Y-111480057D01*
X159785714Y-111480057D02*
X159833333Y-111432438D01*
X159833333Y-111432438D02*
X159928571Y-111384819D01*
X160690476Y-112384819D02*
X160690476Y-111384819D01*
X161261904Y-112384819D02*
X160833333Y-111813390D01*
X161261904Y-111384819D02*
X160690476Y-111956247D01*
X150959523Y-92192318D02*
X150388095Y-92192318D01*
X150673809Y-92192318D02*
X150673809Y-91192318D01*
X150673809Y-91192318D02*
X150578571Y-91335175D01*
X150578571Y-91335175D02*
X150483333Y-91430413D01*
X150483333Y-91430413D02*
X150388095Y-91478032D01*
X151578571Y-91192318D02*
X151673809Y-91192318D01*
X151673809Y-91192318D02*
X151769047Y-91239937D01*
X151769047Y-91239937D02*
X151816666Y-91287556D01*
X151816666Y-91287556D02*
X151864285Y-91382794D01*
X151864285Y-91382794D02*
X151911904Y-91573270D01*
X151911904Y-91573270D02*
X151911904Y-91811365D01*
X151911904Y-91811365D02*
X151864285Y-92001841D01*
X151864285Y-92001841D02*
X151816666Y-92097079D01*
X151816666Y-92097079D02*
X151769047Y-92144699D01*
X151769047Y-92144699D02*
X151673809Y-92192318D01*
X151673809Y-92192318D02*
X151578571Y-92192318D01*
X151578571Y-92192318D02*
X151483333Y-92144699D01*
X151483333Y-92144699D02*
X151435714Y-92097079D01*
X151435714Y-92097079D02*
X151388095Y-92001841D01*
X151388095Y-92001841D02*
X151340476Y-91811365D01*
X151340476Y-91811365D02*
X151340476Y-91573270D01*
X151340476Y-91573270D02*
X151388095Y-91382794D01*
X151388095Y-91382794D02*
X151435714Y-91287556D01*
X151435714Y-91287556D02*
X151483333Y-91239937D01*
X151483333Y-91239937D02*
X151578571Y-91192318D01*
X152340476Y-92192318D02*
X152340476Y-91192318D01*
X152911904Y-92192318D02*
X152483333Y-91620889D01*
X152911904Y-91192318D02*
X152340476Y-91763746D01*
X150973809Y-89525652D02*
X150973809Y-90192319D01*
X150735714Y-89144700D02*
X150497619Y-89858985D01*
X150497619Y-89858985D02*
X151116666Y-89858985D01*
X151497619Y-90097080D02*
X151545238Y-90144700D01*
X151545238Y-90144700D02*
X151497619Y-90192319D01*
X151497619Y-90192319D02*
X151450000Y-90144700D01*
X151450000Y-90144700D02*
X151497619Y-90097080D01*
X151497619Y-90097080D02*
X151497619Y-90192319D01*
X151878571Y-89192319D02*
X152545237Y-89192319D01*
X152545237Y-89192319D02*
X152116666Y-90192319D01*
X153354761Y-89525652D02*
X153354761Y-90192319D01*
X152926190Y-89525652D02*
X152926190Y-90049461D01*
X152926190Y-90049461D02*
X152973809Y-90144700D01*
X152973809Y-90144700D02*
X153069047Y-90192319D01*
X153069047Y-90192319D02*
X153211904Y-90192319D01*
X153211904Y-90192319D02*
X153307142Y-90144700D01*
X153307142Y-90144700D02*
X153354761Y-90097080D01*
X138935713Y-89431009D02*
X139078570Y-89478628D01*
X139078570Y-89478628D02*
X139126189Y-89526247D01*
X139126189Y-89526247D02*
X139173808Y-89621485D01*
X139173808Y-89621485D02*
X139173808Y-89764342D01*
X139173808Y-89764342D02*
X139126189Y-89859580D01*
X139126189Y-89859580D02*
X139078570Y-89907200D01*
X139078570Y-89907200D02*
X138983332Y-89954819D01*
X138983332Y-89954819D02*
X138602380Y-89954819D01*
X138602380Y-89954819D02*
X138602380Y-88954819D01*
X138602380Y-88954819D02*
X138935713Y-88954819D01*
X138935713Y-88954819D02*
X139030951Y-89002438D01*
X139030951Y-89002438D02*
X139078570Y-89050057D01*
X139078570Y-89050057D02*
X139126189Y-89145295D01*
X139126189Y-89145295D02*
X139126189Y-89240533D01*
X139126189Y-89240533D02*
X139078570Y-89335771D01*
X139078570Y-89335771D02*
X139030951Y-89383390D01*
X139030951Y-89383390D02*
X138935713Y-89431009D01*
X138935713Y-89431009D02*
X138602380Y-89431009D01*
X140269046Y-90050057D02*
X140173808Y-90002438D01*
X140173808Y-90002438D02*
X140078570Y-89907200D01*
X140078570Y-89907200D02*
X139935713Y-89764342D01*
X139935713Y-89764342D02*
X139840475Y-89716723D01*
X139840475Y-89716723D02*
X139745237Y-89716723D01*
X139792856Y-89954819D02*
X139697618Y-89907200D01*
X139697618Y-89907200D02*
X139602380Y-89811961D01*
X139602380Y-89811961D02*
X139554761Y-89621485D01*
X139554761Y-89621485D02*
X139554761Y-89288152D01*
X139554761Y-89288152D02*
X139602380Y-89097676D01*
X139602380Y-89097676D02*
X139697618Y-89002438D01*
X139697618Y-89002438D02*
X139792856Y-88954819D01*
X139792856Y-88954819D02*
X139983332Y-88954819D01*
X139983332Y-88954819D02*
X140078570Y-89002438D01*
X140078570Y-89002438D02*
X140173808Y-89097676D01*
X140173808Y-89097676D02*
X140221427Y-89288152D01*
X140221427Y-89288152D02*
X140221427Y-89621485D01*
X140221427Y-89621485D02*
X140173808Y-89811961D01*
X140173808Y-89811961D02*
X140078570Y-89907200D01*
X140078570Y-89907200D02*
X139983332Y-89954819D01*
X139983332Y-89954819D02*
X139792856Y-89954819D01*
X140602380Y-89050057D02*
X140649999Y-89002438D01*
X140649999Y-89002438D02*
X140745237Y-88954819D01*
X140745237Y-88954819D02*
X140983332Y-88954819D01*
X140983332Y-88954819D02*
X141078570Y-89002438D01*
X141078570Y-89002438D02*
X141126189Y-89050057D01*
X141126189Y-89050057D02*
X141173808Y-89145295D01*
X141173808Y-89145295D02*
X141173808Y-89240533D01*
X141173808Y-89240533D02*
X141126189Y-89383390D01*
X141126189Y-89383390D02*
X140554761Y-89954819D01*
X140554761Y-89954819D02*
X141173808Y-89954819D01*
X142030951Y-89288152D02*
X142030951Y-89954819D01*
X141792856Y-88907200D02*
X141554761Y-89621485D01*
X141554761Y-89621485D02*
X142173808Y-89621485D01*
X142507142Y-89050057D02*
X142554761Y-89002438D01*
X142554761Y-89002438D02*
X142649999Y-88954819D01*
X142649999Y-88954819D02*
X142888094Y-88954819D01*
X142888094Y-88954819D02*
X142983332Y-89002438D01*
X142983332Y-89002438D02*
X143030951Y-89050057D01*
X143030951Y-89050057D02*
X143078570Y-89145295D01*
X143078570Y-89145295D02*
X143078570Y-89240533D01*
X143078570Y-89240533D02*
X143030951Y-89383390D01*
X143030951Y-89383390D02*
X142459523Y-89954819D01*
X142459523Y-89954819D02*
X143078570Y-89954819D01*
X143411904Y-88954819D02*
X144030951Y-88954819D01*
X144030951Y-88954819D02*
X143697618Y-89335771D01*
X143697618Y-89335771D02*
X143840475Y-89335771D01*
X143840475Y-89335771D02*
X143935713Y-89383390D01*
X143935713Y-89383390D02*
X143983332Y-89431009D01*
X143983332Y-89431009D02*
X144030951Y-89526247D01*
X144030951Y-89526247D02*
X144030951Y-89764342D01*
X144030951Y-89764342D02*
X143983332Y-89859580D01*
X143983332Y-89859580D02*
X143935713Y-89907200D01*
X143935713Y-89907200D02*
X143840475Y-89954819D01*
X143840475Y-89954819D02*
X143554761Y-89954819D01*
X143554761Y-89954819D02*
X143459523Y-89907200D01*
X143459523Y-89907200D02*
X143411904Y-89859580D01*
X144649999Y-88954819D02*
X144745237Y-88954819D01*
X144745237Y-88954819D02*
X144840475Y-89002438D01*
X144840475Y-89002438D02*
X144888094Y-89050057D01*
X144888094Y-89050057D02*
X144935713Y-89145295D01*
X144935713Y-89145295D02*
X144983332Y-89335771D01*
X144983332Y-89335771D02*
X144983332Y-89573866D01*
X144983332Y-89573866D02*
X144935713Y-89764342D01*
X144935713Y-89764342D02*
X144888094Y-89859580D01*
X144888094Y-89859580D02*
X144840475Y-89907200D01*
X144840475Y-89907200D02*
X144745237Y-89954819D01*
X144745237Y-89954819D02*
X144649999Y-89954819D01*
X144649999Y-89954819D02*
X144554761Y-89907200D01*
X144554761Y-89907200D02*
X144507142Y-89859580D01*
X144507142Y-89859580D02*
X144459523Y-89764342D01*
X144459523Y-89764342D02*
X144411904Y-89573866D01*
X144411904Y-89573866D02*
X144411904Y-89335771D01*
X144411904Y-89335771D02*
X144459523Y-89145295D01*
X144459523Y-89145295D02*
X144507142Y-89050057D01*
X144507142Y-89050057D02*
X144554761Y-89002438D01*
X144554761Y-89002438D02*
X144649999Y-88954819D01*
X145983332Y-89954819D02*
X145649999Y-89478628D01*
X145411904Y-89954819D02*
X145411904Y-88954819D01*
X145411904Y-88954819D02*
X145792856Y-88954819D01*
X145792856Y-88954819D02*
X145888094Y-89002438D01*
X145888094Y-89002438D02*
X145935713Y-89050057D01*
X145935713Y-89050057D02*
X145983332Y-89145295D01*
X145983332Y-89145295D02*
X145983332Y-89288152D01*
X145983332Y-89288152D02*
X145935713Y-89383390D01*
X145935713Y-89383390D02*
X145888094Y-89431009D01*
X145888094Y-89431009D02*
X145792856Y-89478628D01*
X145792856Y-89478628D02*
X145411904Y-89478628D01*
X146935713Y-89002438D02*
X146840475Y-88954819D01*
X146840475Y-88954819D02*
X146697618Y-88954819D01*
X146697618Y-88954819D02*
X146554761Y-89002438D01*
X146554761Y-89002438D02*
X146459523Y-89097676D01*
X146459523Y-89097676D02*
X146411904Y-89192914D01*
X146411904Y-89192914D02*
X146364285Y-89383390D01*
X146364285Y-89383390D02*
X146364285Y-89526247D01*
X146364285Y-89526247D02*
X146411904Y-89716723D01*
X146411904Y-89716723D02*
X146459523Y-89811961D01*
X146459523Y-89811961D02*
X146554761Y-89907200D01*
X146554761Y-89907200D02*
X146697618Y-89954819D01*
X146697618Y-89954819D02*
X146792856Y-89954819D01*
X146792856Y-89954819D02*
X146935713Y-89907200D01*
X146935713Y-89907200D02*
X146983332Y-89859580D01*
X146983332Y-89859580D02*
X146983332Y-89526247D01*
X146983332Y-89526247D02*
X146792856Y-89526247D01*
X147269047Y-88954819D02*
X147840475Y-88954819D01*
X147554761Y-89954819D02*
X147554761Y-88954819D01*
X134734523Y-91592319D02*
X134163095Y-91592319D01*
X134448809Y-91592319D02*
X134448809Y-90592319D01*
X134448809Y-90592319D02*
X134353571Y-90735176D01*
X134353571Y-90735176D02*
X134258333Y-90830414D01*
X134258333Y-90830414D02*
X134163095Y-90878033D01*
X135353571Y-90592319D02*
X135448809Y-90592319D01*
X135448809Y-90592319D02*
X135544047Y-90639938D01*
X135544047Y-90639938D02*
X135591666Y-90687557D01*
X135591666Y-90687557D02*
X135639285Y-90782795D01*
X135639285Y-90782795D02*
X135686904Y-90973271D01*
X135686904Y-90973271D02*
X135686904Y-91211366D01*
X135686904Y-91211366D02*
X135639285Y-91401842D01*
X135639285Y-91401842D02*
X135591666Y-91497080D01*
X135591666Y-91497080D02*
X135544047Y-91544700D01*
X135544047Y-91544700D02*
X135448809Y-91592319D01*
X135448809Y-91592319D02*
X135353571Y-91592319D01*
X135353571Y-91592319D02*
X135258333Y-91544700D01*
X135258333Y-91544700D02*
X135210714Y-91497080D01*
X135210714Y-91497080D02*
X135163095Y-91401842D01*
X135163095Y-91401842D02*
X135115476Y-91211366D01*
X135115476Y-91211366D02*
X135115476Y-90973271D01*
X135115476Y-90973271D02*
X135163095Y-90782795D01*
X135163095Y-90782795D02*
X135210714Y-90687557D01*
X135210714Y-90687557D02*
X135258333Y-90639938D01*
X135258333Y-90639938D02*
X135353571Y-90592319D01*
X136115476Y-91592319D02*
X136115476Y-90592319D01*
X136686904Y-91592319D02*
X136258333Y-91020890D01*
X136686904Y-90592319D02*
X136115476Y-91163747D01*
X134885714Y-106124819D02*
X134314286Y-106124819D01*
X134600000Y-106124819D02*
X134600000Y-105124819D01*
X134600000Y-105124819D02*
X134504762Y-105267676D01*
X134504762Y-105267676D02*
X134409524Y-105362914D01*
X134409524Y-105362914D02*
X134314286Y-105410533D01*
X135314286Y-106124819D02*
X135314286Y-105124819D01*
X135885714Y-106124819D02*
X135457143Y-105553390D01*
X135885714Y-105124819D02*
X135314286Y-105696247D01*
X141110714Y-106124819D02*
X140539286Y-106124819D01*
X140825000Y-106124819D02*
X140825000Y-105124819D01*
X140825000Y-105124819D02*
X140729762Y-105267676D01*
X140729762Y-105267676D02*
X140634524Y-105362914D01*
X140634524Y-105362914D02*
X140539286Y-105410533D01*
X141539286Y-106124819D02*
X141539286Y-105124819D01*
X142110714Y-106124819D02*
X141682143Y-105553390D01*
X142110714Y-105124819D02*
X141539286Y-105696247D01*
X154654819Y-95572618D02*
X154654819Y-94953571D01*
X154654819Y-94953571D02*
X155035771Y-95286904D01*
X155035771Y-95286904D02*
X155035771Y-95144047D01*
X155035771Y-95144047D02*
X155083390Y-95048809D01*
X155083390Y-95048809D02*
X155131009Y-95001190D01*
X155131009Y-95001190D02*
X155226247Y-94953571D01*
X155226247Y-94953571D02*
X155464342Y-94953571D01*
X155464342Y-94953571D02*
X155559580Y-95001190D01*
X155559580Y-95001190D02*
X155607200Y-95048809D01*
X155607200Y-95048809D02*
X155654819Y-95144047D01*
X155654819Y-95144047D02*
X155654819Y-95429761D01*
X155654819Y-95429761D02*
X155607200Y-95524999D01*
X155607200Y-95524999D02*
X155559580Y-95572618D01*
X155559580Y-94524999D02*
X155607200Y-94477380D01*
X155607200Y-94477380D02*
X155654819Y-94524999D01*
X155654819Y-94524999D02*
X155607200Y-94572618D01*
X155607200Y-94572618D02*
X155559580Y-94524999D01*
X155559580Y-94524999D02*
X155654819Y-94524999D01*
X154654819Y-94144047D02*
X154654819Y-93525000D01*
X154654819Y-93525000D02*
X155035771Y-93858333D01*
X155035771Y-93858333D02*
X155035771Y-93715476D01*
X155035771Y-93715476D02*
X155083390Y-93620238D01*
X155083390Y-93620238D02*
X155131009Y-93572619D01*
X155131009Y-93572619D02*
X155226247Y-93525000D01*
X155226247Y-93525000D02*
X155464342Y-93525000D01*
X155464342Y-93525000D02*
X155559580Y-93572619D01*
X155559580Y-93572619D02*
X155607200Y-93620238D01*
X155607200Y-93620238D02*
X155654819Y-93715476D01*
X155654819Y-93715476D02*
X155654819Y-94001190D01*
X155654819Y-94001190D02*
X155607200Y-94096428D01*
X155607200Y-94096428D02*
X155559580Y-94144047D01*
X155654819Y-93096428D02*
X154654819Y-93096428D01*
X155654819Y-92525000D02*
X155083390Y-92953571D01*
X154654819Y-92525000D02*
X155226247Y-93096428D01*
X150926190Y-93225650D02*
X150926190Y-93892317D01*
X150688095Y-92844698D02*
X150450000Y-93558983D01*
X150450000Y-93558983D02*
X151069047Y-93558983D01*
X151450000Y-93797078D02*
X151497619Y-93844698D01*
X151497619Y-93844698D02*
X151450000Y-93892317D01*
X151450000Y-93892317D02*
X151402381Y-93844698D01*
X151402381Y-93844698D02*
X151450000Y-93797078D01*
X151450000Y-93797078D02*
X151450000Y-93892317D01*
X151830952Y-92892317D02*
X152497618Y-92892317D01*
X152497618Y-92892317D02*
X152069047Y-93892317D01*
X152878571Y-93892317D02*
X152878571Y-92892317D01*
X153449999Y-93892317D02*
X153021428Y-93320888D01*
X153449999Y-92892317D02*
X152878571Y-93463745D01*
X137063095Y-110954819D02*
X137063095Y-109954819D01*
X137063095Y-109954819D02*
X137444047Y-109954819D01*
X137444047Y-109954819D02*
X137539285Y-110002438D01*
X137539285Y-110002438D02*
X137586904Y-110050057D01*
X137586904Y-110050057D02*
X137634523Y-110145295D01*
X137634523Y-110145295D02*
X137634523Y-110288152D01*
X137634523Y-110288152D02*
X137586904Y-110383390D01*
X137586904Y-110383390D02*
X137539285Y-110431009D01*
X137539285Y-110431009D02*
X137444047Y-110478628D01*
X137444047Y-110478628D02*
X137063095Y-110478628D01*
X138586904Y-110002438D02*
X138491666Y-109954819D01*
X138491666Y-109954819D02*
X138348809Y-109954819D01*
X138348809Y-109954819D02*
X138205952Y-110002438D01*
X138205952Y-110002438D02*
X138110714Y-110097676D01*
X138110714Y-110097676D02*
X138063095Y-110192914D01*
X138063095Y-110192914D02*
X138015476Y-110383390D01*
X138015476Y-110383390D02*
X138015476Y-110526247D01*
X138015476Y-110526247D02*
X138063095Y-110716723D01*
X138063095Y-110716723D02*
X138110714Y-110811961D01*
X138110714Y-110811961D02*
X138205952Y-110907200D01*
X138205952Y-110907200D02*
X138348809Y-110954819D01*
X138348809Y-110954819D02*
X138444047Y-110954819D01*
X138444047Y-110954819D02*
X138586904Y-110907200D01*
X138586904Y-110907200D02*
X138634523Y-110859580D01*
X138634523Y-110859580D02*
X138634523Y-110526247D01*
X138634523Y-110526247D02*
X138444047Y-110526247D01*
X139063095Y-110954819D02*
X139063095Y-109954819D01*
X139063095Y-109954819D02*
X139301190Y-109954819D01*
X139301190Y-109954819D02*
X139444047Y-110002438D01*
X139444047Y-110002438D02*
X139539285Y-110097676D01*
X139539285Y-110097676D02*
X139586904Y-110192914D01*
X139586904Y-110192914D02*
X139634523Y-110383390D01*
X139634523Y-110383390D02*
X139634523Y-110526247D01*
X139634523Y-110526247D02*
X139586904Y-110716723D01*
X139586904Y-110716723D02*
X139539285Y-110811961D01*
X139539285Y-110811961D02*
X139444047Y-110907200D01*
X139444047Y-110907200D02*
X139301190Y-110954819D01*
X139301190Y-110954819D02*
X139063095Y-110954819D01*
X156888153Y-95201191D02*
X157554820Y-95201191D01*
X156507201Y-95439286D02*
X157221486Y-95677381D01*
X157221486Y-95677381D02*
X157221486Y-95058334D01*
X157459581Y-94677381D02*
X157507201Y-94629762D01*
X157507201Y-94629762D02*
X157554820Y-94677381D01*
X157554820Y-94677381D02*
X157507201Y-94725000D01*
X157507201Y-94725000D02*
X157459581Y-94677381D01*
X157459581Y-94677381D02*
X157554820Y-94677381D01*
X156554820Y-94296429D02*
X156554820Y-93629763D01*
X156554820Y-93629763D02*
X157554820Y-94058334D01*
X156888153Y-92820239D02*
X157554820Y-92820239D01*
X156888153Y-93248810D02*
X157411962Y-93248810D01*
X157411962Y-93248810D02*
X157507201Y-93201191D01*
X157507201Y-93201191D02*
X157554820Y-93105953D01*
X157554820Y-93105953D02*
X157554820Y-92963096D01*
X157554820Y-92963096D02*
X157507201Y-92867858D01*
X157507201Y-92867858D02*
X157459581Y-92820239D01*
X154261904Y-110431009D02*
X154404761Y-110478628D01*
X154404761Y-110478628D02*
X154452380Y-110526247D01*
X154452380Y-110526247D02*
X154499999Y-110621485D01*
X154499999Y-110621485D02*
X154499999Y-110764342D01*
X154499999Y-110764342D02*
X154452380Y-110859580D01*
X154452380Y-110859580D02*
X154404761Y-110907200D01*
X154404761Y-110907200D02*
X154309523Y-110954819D01*
X154309523Y-110954819D02*
X153928571Y-110954819D01*
X153928571Y-110954819D02*
X153928571Y-109954819D01*
X153928571Y-109954819D02*
X154261904Y-109954819D01*
X154261904Y-109954819D02*
X154357142Y-110002438D01*
X154357142Y-110002438D02*
X154404761Y-110050057D01*
X154404761Y-110050057D02*
X154452380Y-110145295D01*
X154452380Y-110145295D02*
X154452380Y-110240533D01*
X154452380Y-110240533D02*
X154404761Y-110335771D01*
X154404761Y-110335771D02*
X154357142Y-110383390D01*
X154357142Y-110383390D02*
X154261904Y-110431009D01*
X154261904Y-110431009D02*
X153928571Y-110431009D01*
X154880952Y-110669104D02*
X155357142Y-110669104D01*
X154785714Y-110954819D02*
X155119047Y-109954819D01*
X155119047Y-109954819D02*
X155452380Y-110954819D01*
X155642857Y-109954819D02*
X156214285Y-109954819D01*
X155928571Y-110954819D02*
X155928571Y-109954819D01*
X159454819Y-95110713D02*
X158454819Y-95110713D01*
X158454819Y-95110713D02*
X158454819Y-94872618D01*
X158454819Y-94872618D02*
X158502438Y-94729761D01*
X158502438Y-94729761D02*
X158597676Y-94634523D01*
X158597676Y-94634523D02*
X158692914Y-94586904D01*
X158692914Y-94586904D02*
X158883390Y-94539285D01*
X158883390Y-94539285D02*
X159026247Y-94539285D01*
X159026247Y-94539285D02*
X159216723Y-94586904D01*
X159216723Y-94586904D02*
X159311961Y-94634523D01*
X159311961Y-94634523D02*
X159407200Y-94729761D01*
X159407200Y-94729761D02*
X159454819Y-94872618D01*
X159454819Y-94872618D02*
X159454819Y-95110713D01*
X159454819Y-94110713D02*
X158454819Y-94110713D01*
X158454819Y-94110713D02*
X159454819Y-93539285D01*
X159454819Y-93539285D02*
X158454819Y-93539285D01*
X159454819Y-93063094D02*
X158454819Y-93063094D01*
X158454819Y-93063094D02*
X158454819Y-92682142D01*
X158454819Y-92682142D02*
X158502438Y-92586904D01*
X158502438Y-92586904D02*
X158550057Y-92539285D01*
X158550057Y-92539285D02*
X158645295Y-92491666D01*
X158645295Y-92491666D02*
X158788152Y-92491666D01*
X158788152Y-92491666D02*
X158883390Y-92539285D01*
X158883390Y-92539285D02*
X158931009Y-92586904D01*
X158931009Y-92586904D02*
X158978628Y-92682142D01*
X158978628Y-92682142D02*
X158978628Y-93063094D01*
X138110714Y-106124819D02*
X137539286Y-106124819D01*
X137825000Y-106124819D02*
X137825000Y-105124819D01*
X137825000Y-105124819D02*
X137729762Y-105267676D01*
X137729762Y-105267676D02*
X137634524Y-105362914D01*
X137634524Y-105362914D02*
X137539286Y-105410533D01*
X138539286Y-106124819D02*
X138539286Y-105124819D01*
X139110714Y-106124819D02*
X138682143Y-105553390D01*
X139110714Y-105124819D02*
X138539286Y-105696247D01*
X154785714Y-106124819D02*
X154214286Y-106124819D01*
X154500000Y-106124819D02*
X154500000Y-105124819D01*
X154500000Y-105124819D02*
X154404762Y-105267676D01*
X154404762Y-105267676D02*
X154309524Y-105362914D01*
X154309524Y-105362914D02*
X154214286Y-105410533D01*
X155214286Y-106124819D02*
X155214286Y-105124819D01*
X155785714Y-106124819D02*
X155357143Y-105553390D01*
X155785714Y-105124819D02*
X155214286Y-105696247D01*
X134385714Y-110859580D02*
X134338095Y-110907200D01*
X134338095Y-110907200D02*
X134195238Y-110954819D01*
X134195238Y-110954819D02*
X134100000Y-110954819D01*
X134100000Y-110954819D02*
X133957143Y-110907200D01*
X133957143Y-110907200D02*
X133861905Y-110811961D01*
X133861905Y-110811961D02*
X133814286Y-110716723D01*
X133814286Y-110716723D02*
X133766667Y-110526247D01*
X133766667Y-110526247D02*
X133766667Y-110383390D01*
X133766667Y-110383390D02*
X133814286Y-110192914D01*
X133814286Y-110192914D02*
X133861905Y-110097676D01*
X133861905Y-110097676D02*
X133957143Y-110002438D01*
X133957143Y-110002438D02*
X134100000Y-109954819D01*
X134100000Y-109954819D02*
X134195238Y-109954819D01*
X134195238Y-109954819D02*
X134338095Y-110002438D01*
X134338095Y-110002438D02*
X134385714Y-110050057D01*
X134814286Y-110954819D02*
X134814286Y-109954819D01*
X134814286Y-110431009D02*
X135385714Y-110431009D01*
X135385714Y-110954819D02*
X135385714Y-109954819D01*
X136385714Y-110002438D02*
X136290476Y-109954819D01*
X136290476Y-109954819D02*
X136147619Y-109954819D01*
X136147619Y-109954819D02*
X136004762Y-110002438D01*
X136004762Y-110002438D02*
X135909524Y-110097676D01*
X135909524Y-110097676D02*
X135861905Y-110192914D01*
X135861905Y-110192914D02*
X135814286Y-110383390D01*
X135814286Y-110383390D02*
X135814286Y-110526247D01*
X135814286Y-110526247D02*
X135861905Y-110716723D01*
X135861905Y-110716723D02*
X135909524Y-110811961D01*
X135909524Y-110811961D02*
X136004762Y-110907200D01*
X136004762Y-110907200D02*
X136147619Y-110954819D01*
X136147619Y-110954819D02*
X136242857Y-110954819D01*
X136242857Y-110954819D02*
X136385714Y-110907200D01*
X136385714Y-110907200D02*
X136433333Y-110859580D01*
X136433333Y-110859580D02*
X136433333Y-110526247D01*
X136433333Y-110526247D02*
X136242857Y-110526247D01*
X134734523Y-89892319D02*
X134163095Y-89892319D01*
X134448809Y-89892319D02*
X134448809Y-88892319D01*
X134448809Y-88892319D02*
X134353571Y-89035176D01*
X134353571Y-89035176D02*
X134258333Y-89130414D01*
X134258333Y-89130414D02*
X134163095Y-89178033D01*
X135353571Y-88892319D02*
X135448809Y-88892319D01*
X135448809Y-88892319D02*
X135544047Y-88939938D01*
X135544047Y-88939938D02*
X135591666Y-88987557D01*
X135591666Y-88987557D02*
X135639285Y-89082795D01*
X135639285Y-89082795D02*
X135686904Y-89273271D01*
X135686904Y-89273271D02*
X135686904Y-89511366D01*
X135686904Y-89511366D02*
X135639285Y-89701842D01*
X135639285Y-89701842D02*
X135591666Y-89797080D01*
X135591666Y-89797080D02*
X135544047Y-89844700D01*
X135544047Y-89844700D02*
X135448809Y-89892319D01*
X135448809Y-89892319D02*
X135353571Y-89892319D01*
X135353571Y-89892319D02*
X135258333Y-89844700D01*
X135258333Y-89844700D02*
X135210714Y-89797080D01*
X135210714Y-89797080D02*
X135163095Y-89701842D01*
X135163095Y-89701842D02*
X135115476Y-89511366D01*
X135115476Y-89511366D02*
X135115476Y-89273271D01*
X135115476Y-89273271D02*
X135163095Y-89082795D01*
X135163095Y-89082795D02*
X135210714Y-88987557D01*
X135210714Y-88987557D02*
X135258333Y-88939938D01*
X135258333Y-88939938D02*
X135353571Y-88892319D01*
X136115476Y-89892319D02*
X136115476Y-88892319D01*
X136686904Y-89892319D02*
X136258333Y-89320890D01*
X136686904Y-88892319D02*
X136115476Y-89463747D01*
X134148809Y-92825652D02*
X134148809Y-93492319D01*
X133910714Y-92444700D02*
X133672619Y-93158985D01*
X133672619Y-93158985D02*
X134291666Y-93158985D01*
X134672619Y-93397080D02*
X134720238Y-93444700D01*
X134720238Y-93444700D02*
X134672619Y-93492319D01*
X134672619Y-93492319D02*
X134625000Y-93444700D01*
X134625000Y-93444700D02*
X134672619Y-93397080D01*
X134672619Y-93397080D02*
X134672619Y-93492319D01*
X135053571Y-92492319D02*
X135720237Y-92492319D01*
X135720237Y-92492319D02*
X135291666Y-93492319D01*
X136529761Y-92825652D02*
X136529761Y-93492319D01*
X136101190Y-92825652D02*
X136101190Y-93349461D01*
X136101190Y-93349461D02*
X136148809Y-93444700D01*
X136148809Y-93444700D02*
X136244047Y-93492319D01*
X136244047Y-93492319D02*
X136386904Y-93492319D01*
X136386904Y-93492319D02*
X136482142Y-93444700D01*
X136482142Y-93444700D02*
X136529761Y-93397080D01*
X139991667Y-109954819D02*
X140325000Y-110954819D01*
X140325000Y-110954819D02*
X140658333Y-109954819D01*
X141563095Y-110859580D02*
X141515476Y-110907200D01*
X141515476Y-110907200D02*
X141372619Y-110954819D01*
X141372619Y-110954819D02*
X141277381Y-110954819D01*
X141277381Y-110954819D02*
X141134524Y-110907200D01*
X141134524Y-110907200D02*
X141039286Y-110811961D01*
X141039286Y-110811961D02*
X140991667Y-110716723D01*
X140991667Y-110716723D02*
X140944048Y-110526247D01*
X140944048Y-110526247D02*
X140944048Y-110383390D01*
X140944048Y-110383390D02*
X140991667Y-110192914D01*
X140991667Y-110192914D02*
X141039286Y-110097676D01*
X141039286Y-110097676D02*
X141134524Y-110002438D01*
X141134524Y-110002438D02*
X141277381Y-109954819D01*
X141277381Y-109954819D02*
X141372619Y-109954819D01*
X141372619Y-109954819D02*
X141515476Y-110002438D01*
X141515476Y-110002438D02*
X141563095Y-110050057D01*
X142563095Y-110859580D02*
X142515476Y-110907200D01*
X142515476Y-110907200D02*
X142372619Y-110954819D01*
X142372619Y-110954819D02*
X142277381Y-110954819D01*
X142277381Y-110954819D02*
X142134524Y-110907200D01*
X142134524Y-110907200D02*
X142039286Y-110811961D01*
X142039286Y-110811961D02*
X141991667Y-110716723D01*
X141991667Y-110716723D02*
X141944048Y-110526247D01*
X141944048Y-110526247D02*
X141944048Y-110383390D01*
X141944048Y-110383390D02*
X141991667Y-110192914D01*
X141991667Y-110192914D02*
X142039286Y-110097676D01*
X142039286Y-110097676D02*
X142134524Y-110002438D01*
X142134524Y-110002438D02*
X142277381Y-109954819D01*
X142277381Y-109954819D02*
X142372619Y-109954819D01*
X142372619Y-109954819D02*
X142515476Y-110002438D01*
X142515476Y-110002438D02*
X142563095Y-110050057D01*
D11*
%TO.C,SW2*%
X127350000Y-106250000D02*
X127350000Y-107750000D01*
%TO.C,SW1*%
X127350000Y-94250000D02*
X127350000Y-95750000D01*
D12*
%TO.C,C7*%
X160010000Y-107859420D02*
X160010000Y-108140580D01*
X158990000Y-107859420D02*
X158990000Y-108140580D01*
%TO.C,R15*%
X159762742Y-109977500D02*
X160237258Y-109977500D01*
X159762742Y-111022500D02*
X160237258Y-111022500D01*
D13*
%TO.C,IC1*%
X146625000Y-109750000D02*
G75*
G03*
X146625000Y-109750000I-125000J0D01*
G01*
D12*
%TO.C,D40*%
X148735000Y-105765000D02*
X147265000Y-105765000D01*
X147265000Y-105765000D02*
X147265000Y-108050000D01*
X148735000Y-108050000D02*
X148735000Y-105765000D01*
%TO.C,R8*%
X148887258Y-92259999D02*
X148412742Y-92259999D01*
X148887258Y-91214999D02*
X148412742Y-91214999D01*
%TO.C,C3*%
X148911252Y-90472500D02*
X148388748Y-90472500D01*
X148911252Y-89002500D02*
X148388748Y-89002500D01*
%TO.C,U6*%
X144610000Y-91352500D02*
X144610000Y-91827500D01*
X144135000Y-94572500D02*
X144610000Y-94572500D01*
X144135000Y-91352500D02*
X144610000Y-91352500D01*
X141865000Y-94572500D02*
X141390000Y-94572500D01*
X141865000Y-91352500D02*
X141390000Y-91352500D01*
X141390000Y-94572500D02*
X141390000Y-94097500D01*
X141390000Y-91352500D02*
X141390000Y-91827500D01*
%TO.C,R4*%
X138662258Y-91660000D02*
X138187742Y-91660000D01*
X138662258Y-90615000D02*
X138187742Y-90615000D01*
%TO.C,R10*%
X135337258Y-107622500D02*
X134862742Y-107622500D01*
X135337258Y-106577500D02*
X134862742Y-106577500D01*
%TO.C,D37*%
X148735000Y-101115000D02*
X147265000Y-101115000D01*
X147265000Y-101115000D02*
X147265000Y-103400000D01*
X148735000Y-103400000D02*
X148735000Y-101115000D01*
%TO.C,U3*%
X150044563Y-102192056D02*
X149957966Y-102833633D01*
X150044563Y-102192056D02*
X151975586Y-102463443D01*
X150510563Y-98874056D02*
X150423966Y-99515633D01*
X150510563Y-98874056D02*
X152441586Y-99145443D01*
X150560209Y-102666747D02*
X151010074Y-102327749D01*
X151014068Y-102324740D02*
X151352423Y-102778086D01*
X151026209Y-99348747D02*
X151476074Y-99009749D01*
X151352423Y-102778086D02*
X150560209Y-102666747D01*
X151480068Y-99006740D02*
X151818423Y-99460086D01*
X151728939Y-104243829D02*
X151431859Y-104202077D01*
X151818423Y-99460086D02*
X151026209Y-99348747D01*
X151882030Y-103154534D02*
X151728939Y-104243829D01*
X151964431Y-105277254D02*
X151964431Y-104977254D01*
X151982416Y-102414843D02*
X151882030Y-103154534D01*
X151982416Y-102414843D02*
X152146459Y-101273025D01*
X152146459Y-101273025D02*
X151849378Y-101231273D01*
X152194939Y-100925829D02*
X151897859Y-100884077D01*
X152348030Y-99836534D02*
X152194939Y-100925829D01*
X152430431Y-101960254D02*
X152430431Y-101660254D01*
X152448416Y-99096843D02*
X152348030Y-99836534D01*
X152448416Y-99096843D02*
X152612459Y-97955025D01*
X152612459Y-97955025D02*
X152315378Y-97913273D01*
X152896431Y-98643254D02*
X152896431Y-98343254D01*
X153064431Y-105277254D02*
X151964431Y-105277254D01*
X153363509Y-103900410D02*
X153761817Y-104298718D01*
X153363509Y-104700410D02*
X153363509Y-103900410D01*
X153530431Y-101960254D02*
X152430431Y-101960254D01*
X153761817Y-103323718D02*
X153114431Y-103327254D01*
X153761817Y-103323718D02*
X153761817Y-105273718D01*
X153765353Y-104302254D02*
X153363509Y-104700410D01*
X153810895Y-105273718D02*
X153064431Y-105277254D01*
X153810895Y-105273718D02*
X154964431Y-105277254D01*
X153829509Y-100583410D02*
X154227817Y-100981718D01*
X153829509Y-101383410D02*
X153829509Y-100583410D01*
X153996431Y-98643254D02*
X152896431Y-98643254D01*
X154227817Y-100006718D02*
X153580431Y-100010254D01*
X154227817Y-100006718D02*
X154227817Y-101956718D01*
X154231353Y-100985254D02*
X153829509Y-101383410D01*
X154276895Y-101956718D02*
X153530431Y-101960254D01*
X154276895Y-101956718D02*
X155430431Y-101960254D01*
X154295509Y-97266410D02*
X154693817Y-97664718D01*
X154295509Y-98066410D02*
X154295509Y-97266410D01*
X154693817Y-96689718D02*
X154046431Y-96693254D01*
X154693817Y-96689718D02*
X154693817Y-98639718D01*
X154697353Y-97668254D02*
X154295509Y-98066410D01*
X154742895Y-98639718D02*
X153996431Y-98643254D01*
X154742895Y-98639718D02*
X155896431Y-98643254D01*
X154964431Y-105277254D02*
X154964431Y-104977254D01*
X155248403Y-103965483D02*
X155545484Y-104007235D01*
X155412446Y-102823665D02*
X155248403Y-103965483D01*
X155412446Y-102823665D02*
X155512832Y-102083974D01*
X155430431Y-101960254D02*
X155430431Y-101660254D01*
X155512832Y-102083974D02*
X155665923Y-100994679D01*
X155665923Y-100994679D02*
X155963003Y-101036431D01*
X155714403Y-100647483D02*
X156011484Y-100689235D01*
X155878446Y-99505665D02*
X155714403Y-100647483D01*
X155878446Y-99505665D02*
X155978832Y-98765974D01*
X155896431Y-98643254D02*
X155896431Y-98343254D01*
X155978832Y-98765974D02*
X156131923Y-97676679D01*
X156042439Y-102460422D02*
X156834653Y-102571761D01*
X156131923Y-97676679D02*
X156429003Y-97718431D01*
X156380794Y-102913768D02*
X156042439Y-102460422D01*
X156508439Y-99142422D02*
X157300653Y-99253761D01*
X156834653Y-102571761D02*
X156384788Y-102910759D01*
X156846794Y-99595768D02*
X156508439Y-99142422D01*
X157300653Y-99253761D02*
X156850788Y-99592759D01*
X157350299Y-103046452D02*
X155419276Y-102775065D01*
X157350299Y-103046452D02*
X157436896Y-102404875D01*
X157816299Y-99728452D02*
X155885276Y-99457065D01*
X157816299Y-99728452D02*
X157902896Y-99086875D01*
%TO.C,R12*%
X141562258Y-107622500D02*
X141087742Y-107622500D01*
X141562258Y-106577500D02*
X141087742Y-106577500D01*
%TO.C,R5*%
X154677500Y-90962258D02*
X154677500Y-90487742D01*
X155722500Y-90962258D02*
X155722500Y-90487742D01*
%TO.C,R6*%
X148887258Y-93959998D02*
X148412742Y-93959998D01*
X148887258Y-92914998D02*
X148412742Y-92914998D01*
%TO.C,D39*%
X150735001Y-105765000D02*
X149265001Y-105765000D01*
X149265001Y-105765000D02*
X149265001Y-108050000D01*
X150735001Y-108050000D02*
X150735001Y-105765000D01*
%TO.C,U2*%
X138044563Y-102192056D02*
X137957966Y-102833633D01*
X138044563Y-102192056D02*
X139975586Y-102463443D01*
X138510563Y-98874056D02*
X138423966Y-99515633D01*
X138510563Y-98874056D02*
X140441586Y-99145443D01*
X138560209Y-102666747D02*
X139010074Y-102327749D01*
X139014068Y-102324740D02*
X139352423Y-102778086D01*
X139026209Y-99348747D02*
X139476074Y-99009749D01*
X139352423Y-102778086D02*
X138560209Y-102666747D01*
X139480068Y-99006740D02*
X139818423Y-99460086D01*
X139728939Y-104243829D02*
X139431859Y-104202077D01*
X139818423Y-99460086D02*
X139026209Y-99348747D01*
X139882030Y-103154534D02*
X139728939Y-104243829D01*
X139964431Y-105277254D02*
X139964431Y-104977254D01*
X139982416Y-102414843D02*
X139882030Y-103154534D01*
X139982416Y-102414843D02*
X140146459Y-101273025D01*
X140146459Y-101273025D02*
X139849378Y-101231273D01*
X140194939Y-100925829D02*
X139897859Y-100884077D01*
X140348030Y-99836534D02*
X140194939Y-100925829D01*
X140430431Y-101960254D02*
X140430431Y-101660254D01*
X140448416Y-99096843D02*
X140348030Y-99836534D01*
X140448416Y-99096843D02*
X140612459Y-97955025D01*
X140612459Y-97955025D02*
X140315378Y-97913273D01*
X140896431Y-98643254D02*
X140896431Y-98343254D01*
X141064431Y-105277254D02*
X139964431Y-105277254D01*
X141363509Y-103900410D02*
X141761817Y-104298718D01*
X141363509Y-104700410D02*
X141363509Y-103900410D01*
X141530431Y-101960254D02*
X140430431Y-101960254D01*
X141761817Y-103323718D02*
X141114431Y-103327254D01*
X141761817Y-103323718D02*
X141761817Y-105273718D01*
X141765353Y-104302254D02*
X141363509Y-104700410D01*
X141810895Y-105273718D02*
X141064431Y-105277254D01*
X141810895Y-105273718D02*
X142964431Y-105277254D01*
X141829509Y-100583410D02*
X142227817Y-100981718D01*
X141829509Y-101383410D02*
X141829509Y-100583410D01*
X141996431Y-98643254D02*
X140896431Y-98643254D01*
X142227817Y-100006718D02*
X141580431Y-100010254D01*
X142227817Y-100006718D02*
X142227817Y-101956718D01*
X142231353Y-100985254D02*
X141829509Y-101383410D01*
X142276895Y-101956718D02*
X141530431Y-101960254D01*
X142276895Y-101956718D02*
X143430431Y-101960254D01*
X142295509Y-97266410D02*
X142693817Y-97664718D01*
X142295509Y-98066410D02*
X142295509Y-97266410D01*
X142693817Y-96689718D02*
X142046431Y-96693254D01*
X142693817Y-96689718D02*
X142693817Y-98639718D01*
X142697353Y-97668254D02*
X142295509Y-98066410D01*
X142742895Y-98639718D02*
X141996431Y-98643254D01*
X142742895Y-98639718D02*
X143896431Y-98643254D01*
X142964431Y-105277254D02*
X142964431Y-104977254D01*
X143248403Y-103965483D02*
X143545484Y-104007235D01*
X143412446Y-102823665D02*
X143248403Y-103965483D01*
X143412446Y-102823665D02*
X143512832Y-102083974D01*
X143430431Y-101960254D02*
X143430431Y-101660254D01*
X143512832Y-102083974D02*
X143665923Y-100994679D01*
X143665923Y-100994679D02*
X143963003Y-101036431D01*
X143714403Y-100647483D02*
X144011484Y-100689235D01*
X143878446Y-99505665D02*
X143714403Y-100647483D01*
X143878446Y-99505665D02*
X143978832Y-98765974D01*
X143896431Y-98643254D02*
X143896431Y-98343254D01*
X143978832Y-98765974D02*
X144131923Y-97676679D01*
X144042439Y-102460422D02*
X144834653Y-102571761D01*
X144131923Y-97676679D02*
X144429003Y-97718431D01*
X144380794Y-102913768D02*
X144042439Y-102460422D01*
X144508439Y-99142422D02*
X145300653Y-99253761D01*
X144834653Y-102571761D02*
X144384788Y-102910759D01*
X144846794Y-99595768D02*
X144508439Y-99142422D01*
X145300653Y-99253761D02*
X144850788Y-99592759D01*
X145350299Y-103046452D02*
X143419276Y-102775065D01*
X145350299Y-103046452D02*
X145436896Y-102404875D01*
X145816299Y-99728452D02*
X143885276Y-99457065D01*
X145816299Y-99728452D02*
X145902896Y-99086875D01*
%TO.C,D1*%
X136840000Y-108265000D02*
X136840000Y-109735000D01*
X136840000Y-109735000D02*
X139125000Y-109735000D01*
X139125000Y-108265000D02*
X136840000Y-108265000D01*
%TO.C,C5*%
X157835001Y-90563749D02*
X157835001Y-91086253D01*
X156365001Y-90563749D02*
X156365001Y-91086253D01*
%TO.C,D3*%
X153515000Y-108265000D02*
X153515000Y-109735000D01*
X153515000Y-109735000D02*
X155800000Y-109735000D01*
X155800000Y-108265000D02*
X153515000Y-108265000D01*
%TO.C,R7*%
X159522500Y-90587742D02*
X159522500Y-91062258D01*
X158477500Y-90587742D02*
X158477500Y-91062258D01*
%TO.C,U4*%
X159544563Y-102192056D02*
X159457966Y-102833633D01*
X159544563Y-102192056D02*
X161475586Y-102463443D01*
X160010563Y-98874056D02*
X159923966Y-99515633D01*
X160010563Y-98874056D02*
X161941586Y-99145443D01*
X160060209Y-102666747D02*
X160510074Y-102327749D01*
X160514068Y-102324740D02*
X160852423Y-102778086D01*
X160526209Y-99348747D02*
X160976074Y-99009749D01*
X160852423Y-102778086D02*
X160060209Y-102666747D01*
X160980068Y-99006740D02*
X161318423Y-99460086D01*
X161228939Y-104243829D02*
X160931859Y-104202077D01*
X161318423Y-99460086D02*
X160526209Y-99348747D01*
X161382030Y-103154534D02*
X161228939Y-104243829D01*
X161464431Y-105277254D02*
X161464431Y-104977254D01*
X161482416Y-102414843D02*
X161382030Y-103154534D01*
X161482416Y-102414843D02*
X161646459Y-101273025D01*
X161646459Y-101273025D02*
X161349378Y-101231273D01*
X161694939Y-100925829D02*
X161397859Y-100884077D01*
X161848030Y-99836534D02*
X161694939Y-100925829D01*
X161930431Y-101960254D02*
X161930431Y-101660254D01*
X161948416Y-99096843D02*
X161848030Y-99836534D01*
X161948416Y-99096843D02*
X162112459Y-97955025D01*
X162112459Y-97955025D02*
X161815378Y-97913273D01*
X162396431Y-98643254D02*
X162396431Y-98343254D01*
X162564431Y-105277254D02*
X161464431Y-105277254D01*
X162863509Y-103900410D02*
X163261817Y-104298718D01*
X162863509Y-104700410D02*
X162863509Y-103900410D01*
X163030431Y-101960254D02*
X161930431Y-101960254D01*
X163261817Y-103323718D02*
X162614431Y-103327254D01*
X163261817Y-103323718D02*
X163261817Y-105273718D01*
X163265353Y-104302254D02*
X162863509Y-104700410D01*
X163310895Y-105273718D02*
X162564431Y-105277254D01*
X163310895Y-105273718D02*
X164464431Y-105277254D01*
X163329509Y-100583410D02*
X163727817Y-100981718D01*
X163329509Y-101383410D02*
X163329509Y-100583410D01*
X163496431Y-98643254D02*
X162396431Y-98643254D01*
X163727817Y-100006718D02*
X163080431Y-100010254D01*
X163727817Y-100006718D02*
X163727817Y-101956718D01*
X163731353Y-100985254D02*
X163329509Y-101383410D01*
X163776895Y-101956718D02*
X163030431Y-101960254D01*
X163776895Y-101956718D02*
X164930431Y-101960254D01*
X163795509Y-97266410D02*
X164193817Y-97664718D01*
X163795509Y-98066410D02*
X163795509Y-97266410D01*
X164193817Y-96689718D02*
X163546431Y-96693254D01*
X164193817Y-96689718D02*
X164193817Y-98639718D01*
X164197353Y-97668254D02*
X163795509Y-98066410D01*
X164242895Y-98639718D02*
X163496431Y-98643254D01*
X164242895Y-98639718D02*
X165396431Y-98643254D01*
X164464431Y-105277254D02*
X164464431Y-104977254D01*
X164748403Y-103965483D02*
X165045484Y-104007235D01*
X164912446Y-102823665D02*
X164748403Y-103965483D01*
X164912446Y-102823665D02*
X165012832Y-102083974D01*
X164930431Y-101960254D02*
X164930431Y-101660254D01*
X165012832Y-102083974D02*
X165165923Y-100994679D01*
X165165923Y-100994679D02*
X165463003Y-101036431D01*
X165214403Y-100647483D02*
X165511484Y-100689235D01*
X165378446Y-99505665D02*
X165214403Y-100647483D01*
X165378446Y-99505665D02*
X165478832Y-98765974D01*
X165396431Y-98643254D02*
X165396431Y-98343254D01*
X165478832Y-98765974D02*
X165631923Y-97676679D01*
X165542439Y-102460422D02*
X166334653Y-102571761D01*
X165631923Y-97676679D02*
X165929003Y-97718431D01*
X165880794Y-102913768D02*
X165542439Y-102460422D01*
X166008439Y-99142422D02*
X166800653Y-99253761D01*
X166334653Y-102571761D02*
X165884788Y-102910759D01*
X166346794Y-99595768D02*
X166008439Y-99142422D01*
X166800653Y-99253761D02*
X166350788Y-99592759D01*
X166850299Y-103046452D02*
X164919276Y-102775065D01*
X166850299Y-103046452D02*
X166936896Y-102404875D01*
X167316299Y-99728452D02*
X165385276Y-99457065D01*
X167316299Y-99728452D02*
X167402896Y-99086875D01*
%TO.C,D42*%
X144735000Y-105765000D02*
X143265000Y-105765000D01*
X143265000Y-105765000D02*
X143265000Y-108050000D01*
X144735000Y-108050000D02*
X144735000Y-105765000D01*
%TO.C,R9*%
X138562258Y-107622500D02*
X138087742Y-107622500D01*
X138562258Y-106577500D02*
X138087742Y-106577500D01*
%TO.C,R11*%
X155237258Y-107622500D02*
X154762742Y-107622500D01*
X155237258Y-106577500D02*
X154762742Y-106577500D01*
%TO.C,D41*%
X146734999Y-105765000D02*
X145264999Y-105765000D01*
X145264999Y-105765000D02*
X145264999Y-108050000D01*
X146734999Y-108050000D02*
X146734999Y-105765000D01*
%TO.C,D2*%
X133615000Y-108265000D02*
X133615000Y-109735000D01*
X133615000Y-109735000D02*
X135900000Y-109735000D01*
X135900000Y-108265000D02*
X133615000Y-108265000D01*
%TO.C,R3*%
X138187742Y-88915000D02*
X138662258Y-88915000D01*
X138187742Y-89960000D02*
X138662258Y-89960000D01*
%TO.C,D36*%
X147265000Y-100885000D02*
X148735000Y-100885000D01*
X148735000Y-100885000D02*
X148735000Y-98600000D01*
X147265000Y-98600000D02*
X147265000Y-100885000D01*
%TO.C,C2*%
X138163748Y-92302500D02*
X138686252Y-92302500D01*
X138163748Y-93772500D02*
X138686252Y-93772500D01*
%TO.C,D38*%
X152735000Y-105765000D02*
X151265000Y-105765000D01*
X151265000Y-105765000D02*
X151265000Y-108050000D01*
X152735000Y-108050000D02*
X152735000Y-105765000D01*
%TO.C,U1*%
X128544563Y-102192056D02*
X128457966Y-102833633D01*
X128544563Y-102192056D02*
X130475586Y-102463443D01*
X129010563Y-98874056D02*
X128923966Y-99515633D01*
X129010563Y-98874056D02*
X130941586Y-99145443D01*
X129060209Y-102666747D02*
X129510074Y-102327749D01*
X129514068Y-102324740D02*
X129852423Y-102778086D01*
X129526209Y-99348747D02*
X129976074Y-99009749D01*
X129852423Y-102778086D02*
X129060209Y-102666747D01*
X129980068Y-99006740D02*
X130318423Y-99460086D01*
X130228939Y-104243829D02*
X129931859Y-104202077D01*
X130318423Y-99460086D02*
X129526209Y-99348747D01*
X130382030Y-103154534D02*
X130228939Y-104243829D01*
X130464431Y-105277254D02*
X130464431Y-104977254D01*
X130482416Y-102414843D02*
X130382030Y-103154534D01*
X130482416Y-102414843D02*
X130646459Y-101273025D01*
X130646459Y-101273025D02*
X130349378Y-101231273D01*
X130694939Y-100925829D02*
X130397859Y-100884077D01*
X130848030Y-99836534D02*
X130694939Y-100925829D01*
X130930431Y-101960254D02*
X130930431Y-101660254D01*
X130948416Y-99096843D02*
X130848030Y-99836534D01*
X130948416Y-99096843D02*
X131112459Y-97955025D01*
X131112459Y-97955025D02*
X130815378Y-97913273D01*
X131396431Y-98643254D02*
X131396431Y-98343254D01*
X131564431Y-105277254D02*
X130464431Y-105277254D01*
X131863509Y-103900410D02*
X132261817Y-104298718D01*
X131863509Y-104700410D02*
X131863509Y-103900410D01*
X132030431Y-101960254D02*
X130930431Y-101960254D01*
X132261817Y-103323718D02*
X131614431Y-103327254D01*
X132261817Y-103323718D02*
X132261817Y-105273718D01*
X132265353Y-104302254D02*
X131863509Y-104700410D01*
X132310895Y-105273718D02*
X131564431Y-105277254D01*
X132310895Y-105273718D02*
X133464431Y-105277254D01*
X132329509Y-100583410D02*
X132727817Y-100981718D01*
X132329509Y-101383410D02*
X132329509Y-100583410D01*
X132496431Y-98643254D02*
X131396431Y-98643254D01*
X132727817Y-100006718D02*
X132080431Y-100010254D01*
X132727817Y-100006718D02*
X132727817Y-101956718D01*
X132731353Y-100985254D02*
X132329509Y-101383410D01*
X132776895Y-101956718D02*
X132030431Y-101960254D01*
X132776895Y-101956718D02*
X133930431Y-101960254D01*
X132795509Y-97266410D02*
X133193817Y-97664718D01*
X132795509Y-98066410D02*
X132795509Y-97266410D01*
X133193817Y-96689718D02*
X132546431Y-96693254D01*
X133193817Y-96689718D02*
X133193817Y-98639718D01*
X133197353Y-97668254D02*
X132795509Y-98066410D01*
X133242895Y-98639718D02*
X132496431Y-98643254D01*
X133242895Y-98639718D02*
X134396431Y-98643254D01*
X133464431Y-105277254D02*
X133464431Y-104977254D01*
X133748403Y-103965483D02*
X134045484Y-104007235D01*
X133912446Y-102823665D02*
X133748403Y-103965483D01*
X133912446Y-102823665D02*
X134012832Y-102083974D01*
X133930431Y-101960254D02*
X133930431Y-101660254D01*
X134012832Y-102083974D02*
X134165923Y-100994679D01*
X134165923Y-100994679D02*
X134463003Y-101036431D01*
X134214403Y-100647483D02*
X134511484Y-100689235D01*
X134378446Y-99505665D02*
X134214403Y-100647483D01*
X134378446Y-99505665D02*
X134478832Y-98765974D01*
X134396431Y-98643254D02*
X134396431Y-98343254D01*
X134478832Y-98765974D02*
X134631923Y-97676679D01*
X134542439Y-102460422D02*
X135334653Y-102571761D01*
X134631923Y-97676679D02*
X134929003Y-97718431D01*
X134880794Y-102913768D02*
X134542439Y-102460422D01*
X135008439Y-99142422D02*
X135800653Y-99253761D01*
X135334653Y-102571761D02*
X134884788Y-102910759D01*
X135346794Y-99595768D02*
X135008439Y-99142422D01*
X135800653Y-99253761D02*
X135350788Y-99592759D01*
X135850299Y-103046452D02*
X133919276Y-102775065D01*
X135850299Y-103046452D02*
X135936896Y-102404875D01*
X136316299Y-99728452D02*
X134385276Y-99457065D01*
X136316299Y-99728452D02*
X136402896Y-99086875D01*
%TO.C,D4*%
X139840000Y-108265000D02*
X139840000Y-109735000D01*
X139840000Y-109735000D02*
X142125000Y-109735000D01*
X142125000Y-108265000D02*
X139840000Y-108265000D01*
%TD*%
M02*
