%TF.GenerationSoftware,KiCad,Pcbnew,7.0.8*%
%TF.CreationDate,2024-05-11T17:50:23+02:00*%
%TF.ProjectId,Heptachron,48657074-6163-4687-926f-6e2e6b696361,rev?*%
%TF.SameCoordinates,Original*%
%TF.FileFunction,Copper,L4,Bot*%
%TF.FilePolarity,Positive*%
%FSLAX46Y46*%
G04 Gerber Fmt 4.6, Leading zero omitted, Abs format (unit mm)*
G04 Created by KiCad (PCBNEW 7.0.8) date 2024-05-11 17:50:23*
%MOMM*%
%LPD*%
G01*
G04 APERTURE LIST*
G04 Aperture macros list*
%AMRoundRect*
0 Rectangle with rounded corners*
0 $1 Rounding radius*
0 $2 $3 $4 $5 $6 $7 $8 $9 X,Y pos of 4 corners*
0 Add a 4 corners polygon primitive as box body*
4,1,4,$2,$3,$4,$5,$6,$7,$8,$9,$2,$3,0*
0 Add four circle primitives for the rounded corners*
1,1,$1+$1,$2,$3*
1,1,$1+$1,$4,$5*
1,1,$1+$1,$6,$7*
1,1,$1+$1,$8,$9*
0 Add four rect primitives between the rounded corners*
20,1,$1+$1,$2,$3,$4,$5,0*
20,1,$1+$1,$4,$5,$6,$7,0*
20,1,$1+$1,$6,$7,$8,$9,0*
20,1,$1+$1,$8,$9,$2,$3,0*%
G04 Aperture macros list end*
%TA.AperFunction,ComponentPad*%
%ADD10C,1.200000*%
%TD*%
%TA.AperFunction,ComponentPad*%
%ADD11C,2.750000*%
%TD*%
%TA.AperFunction,SMDPad,CuDef*%
%ADD12RoundRect,0.250000X0.250000X0.475000X-0.250000X0.475000X-0.250000X-0.475000X0.250000X-0.475000X0*%
%TD*%
%TA.AperFunction,SMDPad,CuDef*%
%ADD13RoundRect,0.250000X0.750000X-0.250000X0.750000X0.250000X-0.750000X0.250000X-0.750000X-0.250000X0*%
%TD*%
%TA.AperFunction,SMDPad,CuDef*%
%ADD14RoundRect,0.150000X0.825000X0.150000X-0.825000X0.150000X-0.825000X-0.150000X0.825000X-0.150000X0*%
%TD*%
%TA.AperFunction,SMDPad,CuDef*%
%ADD15RoundRect,0.250000X-0.750000X0.250000X-0.750000X-0.250000X0.750000X-0.250000X0.750000X0.250000X0*%
%TD*%
%TA.AperFunction,SMDPad,CuDef*%
%ADD16RoundRect,0.200000X0.200000X0.275000X-0.200000X0.275000X-0.200000X-0.275000X0.200000X-0.275000X0*%
%TD*%
%TA.AperFunction,SMDPad,CuDef*%
%ADD17R,1.600000X0.550000*%
%TD*%
%TA.AperFunction,SMDPad,CuDef*%
%ADD18R,0.550000X1.600000*%
%TD*%
%TA.AperFunction,SMDPad,CuDef*%
%ADD19RoundRect,0.225000X0.225000X0.250000X-0.225000X0.250000X-0.225000X-0.250000X0.225000X-0.250000X0*%
%TD*%
%TA.AperFunction,SMDPad,CuDef*%
%ADD20RoundRect,0.200000X-0.200000X-0.275000X0.200000X-0.275000X0.200000X0.275000X-0.200000X0.275000X0*%
%TD*%
%TA.AperFunction,SMDPad,CuDef*%
%ADD21RoundRect,0.200000X0.275000X-0.200000X0.275000X0.200000X-0.275000X0.200000X-0.275000X-0.200000X0*%
%TD*%
%TA.AperFunction,ViaPad*%
%ADD22C,0.400000*%
%TD*%
%TA.AperFunction,Conductor*%
%ADD23C,0.100000*%
%TD*%
%TA.AperFunction,Conductor*%
%ADD24C,0.200000*%
%TD*%
G04 APERTURE END LIST*
D10*
%TO.P,SW1,SH1*%
%TO.N,N/C*%
X128000000Y-96825000D03*
%TO.P,SW1,SH2*%
X128000000Y-93175000D03*
%TD*%
%TO.P,SW2,SH1*%
%TO.N,N/C*%
X128000000Y-108825000D03*
%TO.P,SW2,SH2*%
X128000000Y-105175000D03*
%TD*%
D11*
%TO.P,H1,1*%
%TO.N,N/C*%
X164000000Y-109000000D03*
%TD*%
%TO.P,H4,1*%
%TO.N,N/C*%
X132000000Y-93000000D03*
%TD*%
%TO.P,H3,1*%
%TO.N,N/C*%
X132000000Y-109000000D03*
%TD*%
%TO.P,H2,1*%
%TO.N,N/C*%
X164000000Y-93000000D03*
%TD*%
D12*
%TO.P,C10,2*%
%TO.N,+BATT*%
X158035000Y-89865000D03*
%TO.P,C10,1*%
%TO.N,GND*%
X159935000Y-89865000D03*
%TD*%
D13*
%TO.P,J3,1,Pin_1*%
%TO.N,/UPDI*%
X159400000Y-106750000D03*
%TD*%
D14*
%TO.P,U8,1,VCC*%
%TO.N,VCC*%
X167250000Y-97190000D03*
%TO.P,U8,2,PA4*%
%TO.N,/STAT2*%
X167250000Y-98460000D03*
%TO.P,U8,3,PA5*%
%TO.N,/RTC_INT*%
X167250000Y-99730000D03*
%TO.P,U8,4,PA6*%
%TO.N,/BU1*%
X167250000Y-101000000D03*
%TO.P,U8,5,PA7*%
%TO.N,/BU2*%
X167250000Y-102270000D03*
%TO.P,U8,6,PB3*%
%TO.N,/STAT1*%
X167250000Y-103540000D03*
%TO.P,U8,7,PB2*%
%TO.N,/LED_EN*%
X167250000Y-104810000D03*
%TO.P,U8,8,PB1*%
%TO.N,/SDA*%
X162300000Y-104810000D03*
%TO.P,U8,9,PB0*%
%TO.N,/SCL*%
X162300000Y-103540000D03*
%TO.P,U8,10,~{RESET}/PA0*%
%TO.N,/UPDI*%
X162300000Y-102270000D03*
%TO.P,U8,11,PA1*%
%TO.N,/LIGHT_IN*%
X162300000Y-101000000D03*
%TO.P,U8,12,PA2*%
%TO.N,/LIGHT_EN*%
X162300000Y-99730000D03*
%TO.P,U8,13,PA3*%
%TO.N,/RTC_CLK*%
X162300000Y-98460000D03*
%TO.P,U8,14,GND*%
%TO.N,GND*%
X162300000Y-97190000D03*
%TD*%
D15*
%TO.P,J5,1,Pin_1*%
%TO.N,GND*%
X152570000Y-93559338D03*
%TD*%
D13*
%TO.P,J2,1,Pin_1*%
%TO.N,GND*%
X159400000Y-112000000D03*
%TD*%
D16*
%TO.P,R14,2*%
%TO.N,/SCL*%
X163951078Y-111895000D03*
%TO.P,R14,1*%
%TO.N,VCC*%
X165601078Y-111895000D03*
%TD*%
D17*
%TO.P,U7,1,CS4*%
%TO.N,/CS4*%
X152250000Y-98200000D03*
%TO.P,U7,2,CS5*%
%TO.N,/CS5*%
X152250000Y-99000000D03*
%TO.P,U7,3,CS6*%
%TO.N,/CS6*%
X152250000Y-99800000D03*
%TO.P,U7,4,CS7*%
%TO.N,/CS7*%
X152250000Y-100600000D03*
%TO.P,U7,5,CS8*%
%TO.N,/CS8*%
X152250000Y-101400000D03*
%TO.P,U7,6,CS9*%
%TO.N,unconnected-(U7-CS9-Pad6)*%
X152250000Y-102200000D03*
%TO.P,U7,7,CS10*%
%TO.N,unconnected-(U7-CS10-Pad7)*%
X152250000Y-103000000D03*
%TO.P,U7,8,CS11*%
%TO.N,unconnected-(U7-CS11-Pad8)*%
X152250000Y-103800000D03*
D18*
%TO.P,U7,9,GND*%
%TO.N,GND*%
X150800000Y-105250000D03*
%TO.P,U7,10,CS12*%
%TO.N,unconnected-(U7-CS12-Pad10)*%
X150000000Y-105250000D03*
%TO.P,U7,11,CS13*%
%TO.N,unconnected-(U7-CS13-Pad11)*%
X149200000Y-105250000D03*
%TO.P,U7,12,CS14*%
%TO.N,unconnected-(U7-CS14-Pad12)*%
X148400000Y-105250000D03*
%TO.P,U7,13,CS15*%
%TO.N,unconnected-(U7-CS15-Pad13)*%
X147600000Y-105250000D03*
%TO.P,U7,14,CS16*%
%TO.N,unconnected-(U7-CS16-Pad14)*%
X146800000Y-105250000D03*
%TO.P,U7,15,SW8*%
%TO.N,unconnected-(U7-SW8-Pad15)*%
X146000000Y-105250000D03*
%TO.P,U7,16,SW7*%
%TO.N,unconnected-(U7-SW7-Pad16)*%
X145200000Y-105250000D03*
D17*
%TO.P,U7,17,SW6*%
%TO.N,unconnected-(U7-SW6-Pad17)*%
X143750000Y-103800000D03*
%TO.P,U7,18,SW5*%
%TO.N,/SW5*%
X143750000Y-103000000D03*
%TO.P,U7,19,SW4*%
%TO.N,/SW4*%
X143750000Y-102200000D03*
%TO.P,U7,20,SW3*%
%TO.N,/SW3*%
X143750000Y-101400000D03*
%TO.P,U7,21,SW2*%
%TO.N,/SW2*%
X143750000Y-100600000D03*
%TO.P,U7,22,SW1*%
%TO.N,/SW1*%
X143750000Y-99800000D03*
%TO.P,U7,23,VCC*%
%TO.N,VCC*%
X143750000Y-99000000D03*
%TO.P,U7,24,GND*%
%TO.N,GND*%
X143750000Y-98200000D03*
D18*
%TO.P,U7,25,ISET*%
%TO.N,Net-(U7-ISET)*%
X145200000Y-96750000D03*
%TO.P,U7,26,SDA*%
%TO.N,/SDA*%
X146000000Y-96750000D03*
%TO.P,U7,27,SCL*%
%TO.N,/SCL*%
X146800000Y-96750000D03*
%TO.P,U7,28,AD*%
%TO.N,GND*%
X147600000Y-96750000D03*
%TO.P,U7,29,SDB*%
%TO.N,/LED_EN*%
X148400000Y-96750000D03*
%TO.P,U7,30,CS1*%
%TO.N,/CS1*%
X149200000Y-96750000D03*
%TO.P,U7,31,CS2*%
%TO.N,/CS2*%
X150000000Y-96750000D03*
%TO.P,U7,32,CS3*%
%TO.N,/CS3*%
X150800000Y-96750000D03*
%TD*%
D15*
%TO.P,J4,1,Pin_1*%
%TO.N,+BATT*%
X152550662Y-90570000D03*
%TD*%
D19*
%TO.P,C7,1*%
%TO.N,VCC*%
X141775000Y-98450000D03*
%TO.P,C7,2*%
%TO.N,GND*%
X140225000Y-98450000D03*
%TD*%
D20*
%TO.P,R15,1*%
%TO.N,GND*%
X140125000Y-95700000D03*
%TO.P,R15,2*%
%TO.N,Net-(U7-ISET)*%
X141775000Y-95700000D03*
%TD*%
D21*
%TO.P,R13,1*%
%TO.N,VCC*%
X167026078Y-108510000D03*
%TO.P,R13,2*%
%TO.N,/SDA*%
X167026078Y-106860000D03*
%TD*%
D19*
%TO.P,C4,1*%
%TO.N,GND*%
X167740000Y-95465000D03*
%TO.P,C4,2*%
%TO.N,VCC*%
X166190000Y-95465000D03*
%TD*%
D15*
%TO.P,J1,1,Pin_1*%
%TO.N,+5V*%
X162200000Y-89800000D03*
%TD*%
D21*
%TO.P,R19,1*%
%TO.N,GND*%
X158781766Y-98858673D03*
%TO.P,R19,2*%
%TO.N,Net-(IC1-TS{slash}MR)*%
X158781766Y-97208673D03*
%TD*%
D22*
%TO.N,/LIGHT_EN*%
X147600000Y-89700000D03*
%TO.N,/CS2*%
X156800000Y-95444994D03*
%TO.N,/CS4*%
X155000000Y-102800000D03*
%TO.N,GND*%
X157600000Y-97400000D03*
X140000000Y-97300000D03*
%TO.N,/LED_EN*%
X165800000Y-105000000D03*
X135400000Y-95675000D03*
X163500000Y-106700000D03*
X147800000Y-95300000D03*
%TO.N,/STAT1*%
X167900000Y-103000000D03*
%TO.N,/STAT2*%
X168210500Y-98800000D03*
X162282677Y-95217325D03*
X156100000Y-94000000D03*
%TO.N,VCC*%
X157400000Y-92199996D03*
%TO.N,+BATT*%
X157000000Y-89100000D03*
%TO.N,+5V*%
X162700000Y-91100000D03*
%TO.N,/STAT1*%
X160003078Y-93100000D03*
X146600000Y-92525000D03*
%TO.N,/STAT2*%
X137200000Y-93100000D03*
X147700652Y-92060000D03*
%TO.N,/SW5*%
X141900000Y-106800000D03*
X149000000Y-103400000D03*
X150027331Y-99027301D03*
%TO.N,/CS6*%
X153600000Y-99017678D03*
%TO.N,GND*%
X151500000Y-105000000D03*
%TO.N,/CS3*%
X134500000Y-104600000D03*
X134000000Y-105800000D03*
X138300000Y-106700000D03*
%TO.N,GND*%
X130600000Y-105800000D03*
X134500000Y-106500000D03*
%TO.N,VCC*%
X141200000Y-106800000D03*
X142399992Y-99400000D03*
%TO.N,GND*%
X142500000Y-97400000D03*
X147423306Y-97869355D03*
%TO.N,/SCL*%
X155700000Y-111200000D03*
X136000000Y-95675000D03*
X146800000Y-95300000D03*
%TO.N,/SDA*%
X136800000Y-95675000D03*
X146000000Y-95340000D03*
%TO.N,/RTC_INT*%
X157276578Y-108000000D03*
%TO.N,/RTC_CLK*%
X157284576Y-106871471D03*
X159700000Y-98700000D03*
X158300000Y-103400000D03*
%TO.N,/SCL*%
X155800000Y-108800000D03*
%TO.N,/SDA*%
X156800000Y-110700000D03*
%TO.N,/LIGHT_IN*%
X149451015Y-89188837D03*
%TO.N,GND*%
X162000000Y-97500000D03*
%TO.N,VCC*%
X167000000Y-94800000D03*
%TO.N,GND*%
X168300000Y-94900000D03*
%TO.N,VCC*%
X167868101Y-96345846D03*
%TO.N,Net-(IC1-TS{slash}MR)*%
X160200000Y-94600000D03*
%TO.N,Net-(IC1-ILIM{slash}VSET)*%
X160475500Y-94000000D03*
X161194467Y-94772410D03*
%TO.N,+BATT*%
X154285280Y-91325092D03*
%TO.N,+5V*%
X154583811Y-90816189D03*
X158541483Y-91560000D03*
%TO.N,GND*%
X158300000Y-92100000D03*
X159028627Y-90373996D03*
X150600000Y-92000000D03*
X150300000Y-89800000D03*
X142500000Y-89800000D03*
X150800000Y-94000000D03*
X149700000Y-93900000D03*
X139101946Y-96282715D03*
X129600000Y-92700000D03*
X151900000Y-111881922D03*
X151900000Y-110100000D03*
X158300000Y-110600000D03*
X162100000Y-109700000D03*
%TO.N,VCC*%
X162066208Y-107311538D03*
X159150000Y-107950000D03*
%TO.N,/SCL*%
X166000000Y-108600000D03*
X165700000Y-106475000D03*
%TO.N,VCC*%
X168000000Y-108900000D03*
X166500000Y-111700000D03*
%TO.N,GND*%
X161100000Y-111600000D03*
%TO.N,/BU1*%
X129300000Y-109600000D03*
X129400000Y-97300000D03*
X168500000Y-101700000D03*
%TO.N,/BU2*%
X168000000Y-106300000D03*
%TO.N,/CS8*%
X149700000Y-102200000D03*
%TO.N,/CS7*%
X150125000Y-100700000D03*
%TO.N,/CS6*%
X153800000Y-106200000D03*
%TO.N,/SW4*%
X137700000Y-102200000D03*
%TO.N,/SW1*%
X163800000Y-97300000D03*
X163200000Y-96209500D03*
X144300000Y-96600000D03*
%TO.N,/CS1*%
X137883456Y-106182155D03*
X137917681Y-96617674D03*
%TO.N,/CS2*%
X137396071Y-105788927D03*
%TO.N,/CS3*%
X146200000Y-107300000D03*
X144300000Y-104900000D03*
%TO.N,/CS6*%
X151600000Y-95785000D03*
X151900000Y-97100000D03*
%TO.N,/SW2*%
X156315000Y-99185000D03*
X154200000Y-100000000D03*
%TO.N,/CS3*%
X157785000Y-103800000D03*
X157200000Y-105900000D03*
%TO.N,/CS7*%
X163641319Y-99224033D03*
%TO.N,/CS2*%
X136740000Y-100000000D03*
X157000000Y-99390865D03*
%TO.N,/CS7*%
X155200000Y-99624500D03*
%TO.N,/SW2*%
X146500000Y-101000000D03*
%TO.N,/CS5*%
X151900000Y-106100000D03*
X151000000Y-102600000D03*
X149800000Y-101500000D03*
X132000000Y-103000000D03*
%TO.N,/CS7*%
X141982805Y-99817195D03*
X141000000Y-99500000D03*
%TO.N,/CS5*%
X156100000Y-105800008D03*
X131000000Y-102900000D03*
X157100000Y-104900000D03*
X131900000Y-105700000D03*
%TO.N,/CS6*%
X138417678Y-96117678D03*
X138400000Y-97100000D03*
X161140959Y-95884994D03*
X160800000Y-97200000D03*
%TO.N,/CS1*%
X149099996Y-98100000D03*
%TO.N,/SW3*%
X146000000Y-101500000D03*
%TO.N,/CS3*%
X146000000Y-103185006D03*
%TO.N,/CS2*%
X146200000Y-100300000D03*
%TD*%
D23*
%TO.N,/RTC_INT*%
X166275000Y-99730000D02*
X167250000Y-99730000D01*
X164465000Y-101540000D02*
X166275000Y-99730000D01*
X161503456Y-101540000D02*
X164465000Y-101540000D01*
X158600000Y-104443456D02*
X161503456Y-101540000D01*
X158600000Y-105600000D02*
X158600000Y-104443456D01*
X157276578Y-108000000D02*
X158160000Y-107116578D01*
X158160000Y-107116578D02*
X158160000Y-106040000D01*
X158160000Y-106040000D02*
X158600000Y-105600000D01*
%TO.N,/SDA*%
X158669998Y-108830002D02*
X156800000Y-110700000D01*
X159502374Y-108830002D02*
X158669998Y-108830002D01*
X162300000Y-106032376D02*
X159502374Y-108830002D01*
X162300000Y-104810000D02*
X162300000Y-106032376D01*
%TO.N,/SCL*%
X156059998Y-108540002D02*
X155800000Y-108800000D01*
X159382254Y-108540002D02*
X156059998Y-108540002D01*
X160640000Y-104225000D02*
X160640000Y-107282254D01*
X161325000Y-103540000D02*
X160640000Y-104225000D01*
X160640000Y-107282254D02*
X159382254Y-108540002D01*
X162300000Y-103540000D02*
X161325000Y-103540000D01*
%TO.N,GND*%
X168300000Y-94905000D02*
X168300000Y-94900000D01*
X167740000Y-95465000D02*
X168300000Y-94905000D01*
%TO.N,/CS6*%
X151600000Y-96800000D02*
X151900000Y-97100000D01*
X151600000Y-95785000D02*
X151600000Y-96800000D01*
%TO.N,/CS8*%
X149722254Y-102200000D02*
X149700000Y-102200000D01*
X150522254Y-101400000D02*
X149722254Y-102200000D01*
X152250000Y-101400000D02*
X150522254Y-101400000D01*
%TO.N,/CS5*%
X149685000Y-101385000D02*
X149800000Y-101500000D01*
X149685000Y-100037254D02*
X149685000Y-101385000D01*
X150722254Y-99000000D02*
X149685000Y-100037254D01*
X152250000Y-99000000D02*
X150722254Y-99000000D01*
%TO.N,/BU1*%
X129300000Y-109500000D02*
X129300000Y-109600000D01*
X129400000Y-109400000D02*
X129300000Y-109500000D01*
X129400000Y-97300000D02*
X129400000Y-109400000D01*
%TO.N,/CS2*%
X156685000Y-95300000D02*
X156755000Y-95370000D01*
X150100000Y-95300000D02*
X156685000Y-95300000D01*
X150000000Y-95400000D02*
X150100000Y-95300000D01*
%TO.N,GND*%
X162000000Y-97490000D02*
X162000000Y-97500000D01*
X162300000Y-97190000D02*
X162000000Y-97490000D01*
%TO.N,/SW1*%
X163800000Y-96809500D02*
X163800000Y-97300000D01*
%TO.N,/LIGHT_IN*%
X163400000Y-101000000D02*
X162300000Y-101000000D01*
X164630000Y-99770000D02*
X163400000Y-101000000D01*
X164630000Y-96430000D02*
X164630000Y-99770000D01*
X159030000Y-90830000D02*
X164630000Y-96430000D01*
X155629999Y-90830000D02*
X159030000Y-90830000D01*
X153774499Y-88974500D02*
X155629999Y-90830000D01*
X149665352Y-88974500D02*
X153774499Y-88974500D01*
X149451015Y-89188837D02*
X149665352Y-88974500D01*
%TO.N,/LIGHT_EN*%
X163756899Y-99730000D02*
X162300000Y-99730000D01*
X164340000Y-96653101D02*
X164340000Y-99146899D01*
X158806899Y-91120000D02*
X164340000Y-96653101D01*
X149561399Y-89700000D02*
X149961399Y-89300000D01*
X147600000Y-89700000D02*
X149561399Y-89700000D01*
X155509877Y-91120000D02*
X158806899Y-91120000D01*
X153689877Y-89300000D02*
X155509877Y-91120000D01*
X149961399Y-89300000D02*
X153689877Y-89300000D01*
%TO.N,/SW1*%
X163200000Y-96209500D02*
X163800000Y-96809500D01*
%TO.N,/LIGHT_EN*%
X164340000Y-99146899D02*
X163756899Y-99730000D01*
%TO.N,/RTC_CLK*%
X158300000Y-105489878D02*
X158300000Y-103400000D01*
X157284576Y-106505302D02*
X158300000Y-105489878D01*
X157284576Y-106871471D02*
X157284576Y-106505302D01*
%TO.N,GND*%
X142950000Y-97400000D02*
X142500000Y-97400000D01*
X143750000Y-98200000D02*
X142950000Y-97400000D01*
%TO.N,+5V*%
X155327622Y-91560000D02*
X158541483Y-91560000D01*
X154583811Y-90816189D02*
X155327622Y-91560000D01*
%TO.N,/STAT1*%
X157577744Y-93100000D02*
X157002744Y-92525000D01*
X160003078Y-93100000D02*
X157577744Y-93100000D01*
X157002744Y-92525000D02*
X146600000Y-92525000D01*
D24*
%TO.N,+BATT*%
X153305754Y-91325092D02*
X154285280Y-91325092D01*
X152550662Y-90570000D02*
X153305754Y-91325092D01*
D23*
%TO.N,GND*%
X159426004Y-90373996D02*
X159028627Y-90373996D01*
X159935000Y-89865000D02*
X159426004Y-90373996D01*
%TO.N,/CS7*%
X159610000Y-99190000D02*
X158969135Y-99830865D01*
X155406365Y-99830865D02*
X155200000Y-99624500D01*
X163641319Y-99224033D02*
X163607286Y-99190000D01*
X163607286Y-99190000D02*
X159610000Y-99190000D01*
X158969135Y-99830865D02*
X155406365Y-99830865D01*
%TO.N,/STAT2*%
X167250000Y-98460000D02*
X167590000Y-98800000D01*
X167590000Y-98800000D02*
X168210500Y-98800000D01*
%TO.N,Net-(IC1-ILIM{slash}VSET)*%
X160475500Y-94053443D02*
X161194467Y-94772410D01*
X160475500Y-94000000D02*
X160475500Y-94053443D01*
%TO.N,Net-(IC1-TS{slash}MR)*%
X158781766Y-97208673D02*
X158781766Y-96018234D01*
%TO.N,/STAT2*%
X147675652Y-92085000D02*
X147700652Y-92060000D01*
X138215000Y-92085000D02*
X147675652Y-92085000D01*
X160695996Y-93488742D02*
X160268648Y-93488742D01*
X159757390Y-94000000D02*
X156100000Y-94000000D01*
X160268648Y-93488742D02*
X159757390Y-94000000D01*
X162282677Y-95217325D02*
X162282677Y-95075423D01*
%TO.N,Net-(IC1-TS{slash}MR)*%
X158781766Y-96018234D02*
X160200000Y-94600000D01*
%TO.N,/STAT2*%
X162282677Y-95075423D02*
X160695996Y-93488742D01*
X137200000Y-93100000D02*
X138215000Y-92085000D01*
%TO.N,/CS6*%
X160800000Y-97200000D02*
X160800000Y-96225953D01*
X160800000Y-96225953D02*
X161140959Y-95884994D01*
%TO.N,/CS2*%
X157000000Y-99390865D02*
X156800000Y-99190865D01*
X156800000Y-99190865D02*
X156800000Y-95444994D01*
%TO.N,VCC*%
X167868101Y-96571899D02*
X167868101Y-96345846D01*
X167250000Y-97190000D02*
X167868101Y-96571899D01*
%TO.N,/BU1*%
X167250000Y-101000000D02*
X167950000Y-101700000D01*
X167950000Y-101700000D02*
X168500000Y-101700000D01*
%TO.N,/CS3*%
X150800000Y-97632376D02*
X146000000Y-102432376D01*
%TO.N,/SW5*%
X148760000Y-103640000D02*
X149000000Y-103400000D01*
%TO.N,/CS3*%
X146000000Y-102432376D02*
X146000000Y-103185006D01*
%TO.N,/SW5*%
X145817746Y-103640000D02*
X148760000Y-103640000D01*
X145177746Y-103000000D02*
X145817746Y-103640000D01*
X143750000Y-103000000D02*
X145177746Y-103000000D01*
%TO.N,/CS3*%
X150800000Y-96750000D02*
X150800000Y-97632376D01*
%TO.N,/CS7*%
X141665610Y-99500000D02*
X141982805Y-99817195D01*
%TO.N,VCC*%
X142500000Y-99000000D02*
X142500000Y-99299992D01*
%TO.N,/CS7*%
X141000000Y-99500000D02*
X141665610Y-99500000D01*
%TO.N,VCC*%
X142500000Y-99299992D02*
X142399992Y-99400000D01*
%TO.N,/LED_EN*%
X162425000Y-107775000D02*
X163500000Y-106700000D01*
X157278078Y-112321922D02*
X161825000Y-107775000D01*
X142375496Y-112321922D02*
X157278078Y-112321922D01*
X135400000Y-105346426D02*
X142375496Y-112321922D01*
X135400000Y-95675000D02*
X135400000Y-105346426D01*
%TO.N,/SCL*%
X163275000Y-103540000D02*
X165700000Y-105965000D01*
X162300000Y-103540000D02*
X163275000Y-103540000D01*
%TO.N,/LED_EN*%
X161825000Y-107775000D02*
X162425000Y-107775000D01*
%TO.N,/SDA*%
X163275000Y-104810000D02*
X162300000Y-104810000D01*
X165380000Y-106915000D02*
X163275000Y-104810000D01*
X167026078Y-106860000D02*
X166971078Y-106915000D01*
X166971078Y-106915000D02*
X165380000Y-106915000D01*
%TO.N,/SCL*%
X165700000Y-105965000D02*
X165700000Y-106475000D01*
%TO.N,/CS3*%
X138900000Y-107300000D02*
X138300000Y-106700000D01*
%TO.N,/CS1*%
X137883456Y-105654056D02*
X137883456Y-106182155D01*
%TO.N,/CS3*%
X146200000Y-107300000D02*
X138900000Y-107300000D01*
%TO.N,/CS1*%
X137200000Y-104970600D02*
X137883456Y-105654056D01*
X137917681Y-96617674D02*
X137200000Y-97335355D01*
X137200000Y-97335355D02*
X137200000Y-104970600D01*
%TO.N,/CS2*%
X136700000Y-105092856D02*
X137396071Y-105788927D01*
X136740000Y-100000000D02*
X136700000Y-100040000D01*
%TO.N,/SDA*%
X136300000Y-96175000D02*
X136800000Y-95675000D01*
X136300000Y-105426182D02*
X136300000Y-96175000D01*
X141573818Y-110700000D02*
X136300000Y-105426182D01*
%TO.N,/SCL*%
X141663696Y-111200000D02*
X136000000Y-105536304D01*
%TO.N,/CS2*%
X136700000Y-100040000D02*
X136700000Y-105092856D01*
%TO.N,GND*%
X139684661Y-95700000D02*
X139101946Y-96282715D01*
%TO.N,/SCL*%
X155700000Y-111200000D02*
X141663696Y-111200000D01*
%TO.N,/CS2*%
X136740000Y-97173101D02*
X136740000Y-100000000D01*
X150000000Y-95400000D02*
X149400000Y-94800000D01*
%TO.N,GND*%
X140125000Y-95700000D02*
X139684661Y-95700000D01*
%TO.N,/CS6*%
X138400000Y-96135356D02*
X138417678Y-96117678D01*
%TO.N,/SCL*%
X136000000Y-105536304D02*
X136000000Y-95675000D01*
%TO.N,/SDA*%
X156800000Y-110700000D02*
X141573818Y-110700000D01*
%TO.N,/CS2*%
X139113101Y-94800000D02*
X136740000Y-97173101D01*
%TO.N,/SDA*%
X146000000Y-96750000D02*
X146000000Y-95340000D01*
%TO.N,/CS2*%
X149400000Y-94800000D02*
X139113101Y-94800000D01*
%TO.N,/CS6*%
X138400000Y-97100000D02*
X138400000Y-96135356D01*
%TO.N,/CS4*%
X153760000Y-100260000D02*
X155000000Y-101500000D01*
X153760000Y-99762254D02*
X153760000Y-100260000D01*
X154240000Y-98835424D02*
X154240000Y-99282254D01*
X153604576Y-98200000D02*
X154240000Y-98835424D01*
X152250000Y-98200000D02*
X153604576Y-98200000D01*
X155000000Y-101500000D02*
X155000000Y-102800000D01*
X154240000Y-99282254D02*
X153760000Y-99762254D01*
%TO.N,/SW2*%
X154200000Y-99777742D02*
X154200000Y-100000000D01*
X154792742Y-99185000D02*
X154200000Y-99777742D01*
X156315000Y-99185000D02*
X154792742Y-99185000D01*
%TO.N,/CS6*%
X153290000Y-100010000D02*
X153290000Y-99327678D01*
X153275000Y-100025000D02*
X153290000Y-100010000D01*
X153290000Y-99327678D02*
X153600000Y-99017678D01*
%TO.N,GND*%
X150800000Y-105250000D02*
X151250000Y-105250000D01*
X151250000Y-105250000D02*
X151500000Y-105000000D01*
%TO.N,/CS5*%
X152040000Y-105960000D02*
X151900000Y-106100000D01*
X152040000Y-104817746D02*
X152040000Y-105960000D01*
X151782254Y-104560000D02*
X152040000Y-104817746D01*
X151561041Y-104560000D02*
X151782254Y-104560000D01*
X151000000Y-103998959D02*
X151561041Y-104560000D01*
X151000000Y-102600000D02*
X151000000Y-103998959D01*
X156199992Y-105800008D02*
X156100000Y-105800008D01*
X157100000Y-104900000D02*
X156199992Y-105800008D01*
%TO.N,GND*%
X147600000Y-97692661D02*
X147600000Y-96750000D01*
X147423306Y-97869355D02*
X147600000Y-97692661D01*
%TO.N,/CS1*%
X149200000Y-97999996D02*
X149099996Y-98100000D01*
X149200000Y-96750000D02*
X149200000Y-97999996D01*
%TO.N,/SW5*%
X149000000Y-103400000D02*
X149000000Y-100054632D01*
%TO.N,/CS2*%
X150000000Y-98022254D02*
X147722254Y-100300000D01*
X147722254Y-100300000D02*
X146200000Y-100300000D01*
X150000000Y-96750000D02*
X150000000Y-98022254D01*
%TO.N,/SW5*%
X149000000Y-100054632D02*
X150027331Y-99027301D01*
%TO.N,/CS7*%
X150225000Y-100600000D02*
X150125000Y-100700000D01*
X152250000Y-100600000D02*
X150225000Y-100600000D01*
%TO.N,+5V*%
X162700000Y-90300000D02*
X162200000Y-89800000D01*
X162700000Y-91100000D02*
X162700000Y-90300000D01*
%TO.N,/CS6*%
X153800000Y-100710122D02*
X153800000Y-106200000D01*
X153275000Y-100185122D02*
X153800000Y-100710122D01*
X153275000Y-100025000D02*
X153275000Y-100185122D01*
%TO.N,GND*%
X158781766Y-98858673D02*
X158781766Y-98581766D01*
X158781766Y-98581766D02*
X157600000Y-97400000D01*
X140225000Y-98450000D02*
X140225000Y-97525000D01*
X140225000Y-97525000D02*
X140000000Y-97300000D01*
%TO.N,Net-(U7-ISET)*%
X144150000Y-95700000D02*
X141775000Y-95700000D01*
X145200000Y-96750000D02*
X144150000Y-95700000D01*
%TO.N,/LED_EN*%
X165990000Y-104810000D02*
X167250000Y-104810000D01*
X165800000Y-105000000D02*
X165990000Y-104810000D01*
X148400000Y-95900000D02*
X147800000Y-95300000D01*
X148400000Y-96750000D02*
X148400000Y-95900000D01*
%TO.N,/SW3*%
X145900000Y-101400000D02*
X143750000Y-101400000D01*
%TO.N,/SW2*%
X143750000Y-100600000D02*
X144550000Y-100600000D01*
X144550000Y-100600000D02*
X144950000Y-101000000D01*
X144950000Y-101000000D02*
X146500000Y-101000000D01*
%TO.N,/SW3*%
X146000000Y-101500000D02*
X145900000Y-101400000D01*
%TO.N,/STAT1*%
X167900000Y-103000000D02*
X167790000Y-103000000D01*
X167790000Y-103000000D02*
X167250000Y-103540000D01*
%TO.N,/BU2*%
X168618196Y-105681804D02*
X168000000Y-106300000D01*
X168618196Y-102663196D02*
X168618196Y-105681804D01*
X168225000Y-102270000D02*
X168618196Y-102663196D01*
X167250000Y-102270000D02*
X168225000Y-102270000D01*
D24*
%TO.N,+BATT*%
X157270000Y-89100000D02*
X158035000Y-89865000D01*
X157000000Y-89100000D02*
X157270000Y-89100000D01*
D23*
%TO.N,+5V*%
X162700000Y-91100000D02*
X162600000Y-91100000D01*
%TO.N,/SW5*%
X142950000Y-103000000D02*
X141900000Y-104050000D01*
X143750000Y-103000000D02*
X142950000Y-103000000D01*
X141900000Y-104050000D02*
X141900000Y-106800000D01*
%TO.N,/CS6*%
X153050000Y-99800000D02*
X153275000Y-100025000D01*
%TO.N,/CS3*%
X134000000Y-105100000D02*
X134500000Y-104600000D01*
X134000000Y-105800000D02*
X134000000Y-105100000D01*
%TO.N,VCC*%
X142500000Y-99000000D02*
X142325000Y-99000000D01*
X143750000Y-99000000D02*
X142500000Y-99000000D01*
X142325000Y-99000000D02*
X141775000Y-98450000D01*
%TO.N,/SCL*%
X146800000Y-96750000D02*
X146800000Y-95300000D01*
%TO.N,/CS3*%
X157785000Y-105315000D02*
X157785000Y-103800000D01*
X157200000Y-105900000D02*
X157785000Y-105315000D01*
X155800000Y-107300000D02*
X157200000Y-105900000D01*
X146200000Y-107300000D02*
X155800000Y-107300000D01*
%TO.N,/RTC_CLK*%
X162300000Y-98460000D02*
X159940000Y-98460000D01*
X159940000Y-98460000D02*
X159700000Y-98700000D01*
%TO.N,/UPDI*%
X159400000Y-104195000D02*
X159400000Y-106750000D01*
X161325000Y-102270000D02*
X159400000Y-104195000D01*
X162300000Y-102270000D02*
X161325000Y-102270000D01*
%TO.N,VCC*%
X166335000Y-95465000D02*
X167000000Y-94800000D01*
X166190000Y-95465000D02*
X166335000Y-95465000D01*
%TO.N,GND*%
X151240662Y-93559338D02*
X150800000Y-94000000D01*
X152570000Y-93559338D02*
X151240662Y-93559338D01*
%TO.N,/SCL*%
X166000000Y-109846078D02*
X163951078Y-111895000D01*
X166000000Y-108600000D02*
X166000000Y-109846078D01*
%TO.N,VCC*%
X167026078Y-108510000D02*
X167610000Y-108510000D01*
X167610000Y-108510000D02*
X168000000Y-108900000D01*
X166305000Y-111895000D02*
X166500000Y-111700000D01*
X165601078Y-111895000D02*
X166305000Y-111895000D01*
%TO.N,GND*%
X159400000Y-112000000D02*
X160700000Y-112000000D01*
X160700000Y-112000000D02*
X161100000Y-111600000D01*
%TO.N,/CS6*%
X152250000Y-99800000D02*
X153050000Y-99800000D01*
%TO.N,/SW4*%
X143750000Y-102200000D02*
X137700000Y-102200000D01*
%TO.N,/SW1*%
X144800000Y-97800000D02*
X144300000Y-97300000D01*
X144800000Y-99550000D02*
X144800000Y-97800000D01*
X144300000Y-97300000D02*
X144300000Y-96600000D01*
X144550000Y-99800000D02*
X144800000Y-99550000D01*
X143750000Y-99800000D02*
X144550000Y-99800000D01*
%TO.N,/CS3*%
X145835588Y-107300000D02*
X146200000Y-107300000D01*
X144300000Y-105764412D02*
X145835588Y-107300000D01*
X144300000Y-104900000D02*
X144300000Y-105764412D01*
%TO.N,/CS2*%
X150000000Y-96750000D02*
X150000000Y-95400000D01*
%TO.N,/CS5*%
X131900000Y-102900000D02*
X132000000Y-103000000D01*
X131000000Y-102900000D02*
X131900000Y-102900000D01*
X131000000Y-102900000D02*
X131000000Y-104800000D01*
X131000000Y-104800000D02*
X131900000Y-105700000D01*
%TD*%
M02*
