M48
; DRILL file {KiCad 7.0.7} date Sun May 19 19:47:05 2024
; FORMAT={-:-/ absolute / inch / decimal}
; #@! TF.CreationDate,2024-05-19T19:47:05+02:00
; #@! TF.GenerationSoftware,Kicad,Pcbnew,7.0.7
; #@! TF.FileFunction,Plated,1,4,PTH
FMAT,2
INCH
; #@! TA.AperFunction,Plated,PTH,ViaDrill
T1C0.0079
; #@! TA.AperFunction,Plated,PTH,ComponentDrill
T2C0.0315
; #@! TA.AperFunction,Plated,PTH,ComponentDrill
T3C0.0591
%
G90
G05
T1
X5.0906Y-4.315
X5.0945Y-3.8307
X5.1024Y-3.6496
X5.1417Y-4.1654
X5.1575Y-4.0512
X5.1929Y-4.1614
X5.1969Y-4.0551
X5.2756Y-4.1654
X5.2953Y-4.1181
X5.2953Y-4.1929
X5.3307Y-3.7667
X5.3543Y-3.7667
X5.3835Y-3.937
X5.3858Y-3.7667
X5.4016Y-3.6654
X5.4093Y-4.1649
X5.4213Y-4.0236
X5.4285Y-4.1804
X5.4298Y-3.8038
X5.4449Y-4.2008
X5.4488Y-3.8228
X5.4495Y-3.7842
X5.4765Y-3.7907
X5.5118Y-3.8307
X5.5512Y-3.9173
X5.5591Y-4.2047
X5.5866Y-4.2047
X5.5899Y-3.9298
X5.6063Y-3.9134
X5.6102Y-3.5354
X5.6102Y-3.8346
X5.6811Y-3.8031
X5.6811Y-4.1299
X5.748Y-3.7535
X5.748Y-3.9961
X5.748Y-4.0624
X5.7559Y-3.9488
X5.7559Y-4.2244
X5.7677Y-3.9764
X5.7717Y-3.6427
X5.7795Y-3.752
X5.8041Y-3.8531
X5.811Y-3.5315
X5.815Y-3.6244
X5.8189Y-3.752
X5.8661Y-4.0709
X5.8701Y-3.8622
X5.8839Y-3.5114
X5.8937Y-3.6969
X5.8937Y-4.0236
X5.8976Y-3.9961
X5.9066Y-3.8987
X5.9104Y-3.9646
X5.9173Y-3.5354
X5.9291Y-3.622
X5.937Y-3.7008
X5.9449Y-4.0394
X5.9646Y-4.1339
X5.9685Y-3.7711
X5.9803Y-3.8228
X5.9803Y-4.1772
X5.9803Y-4.3346
X5.9803Y-4.4048
X6.0472Y-3.8983
X6.0551Y-4.1811
X6.0709Y-3.937
X6.0742Y-3.5955
X6.086Y-3.5754
X6.1024Y-4.0472
X6.1102Y-3.9222
X6.1299Y-4.378
X6.1339Y-4.2835
X6.1457Y-3.7008
X6.1457Y-4.1654
X6.1541Y-3.9049
X6.1732Y-3.7577
X6.1732Y-4.3583
X6.1811Y-3.5079
X6.1811Y-3.913
X6.185Y-4.1299
X6.189Y-4.1693
X6.192Y-4.252
X6.1923Y-4.2075
X6.1969Y-3.6299
X6.2047Y-3.8346
X6.212Y-4.0866
X6.2323Y-3.626
X6.2323Y-4.0709
X6.2323Y-4.3543
X6.2418Y-3.6047
X6.261Y-3.558
X6.2657Y-4.25
X6.2874Y-3.8858
X6.2993Y-3.6654
X6.3071Y-3.7244
X6.3179Y-3.7008
X6.3307Y-3.8268
X6.3425Y-4.3937
X6.3441Y-3.775
X6.3462Y-3.7312
X6.378Y-3.8386
X6.3806Y-4.2249
X6.3819Y-4.3189
X6.3891Y-3.7487
X6.4055Y-3.5866
X6.4252Y-3.7878
X6.437Y-4.2008
X6.4426Y-3.9065
X6.4488Y-3.8307
X6.5236Y-4.1919
X6.5276Y-4.1339
X6.5354Y-4.2756
X6.5551Y-4.3976
X6.5748Y-3.7323
X6.609Y-3.7931
X6.6102Y-4.0551
X6.6142Y-4.185
X6.6142Y-4.2874
X6.6225Y-3.8898
X6.626Y-3.7362
X6.6339Y-4.0039
T2
X5.0394Y-3.6683
X5.0394Y-3.812
X5.0394Y-4.1407
X5.0394Y-4.2844
T3
X5.1969Y-3.6614
X5.1969Y-4.2913
X6.4567Y-3.6614
X6.4567Y-4.2913
T0
M30
