%TF.GenerationSoftware,KiCad,Pcbnew,7.0.8*%
%TF.CreationDate,2024-05-11T17:50:23+02:00*%
%TF.ProjectId,Heptachron,48657074-6163-4687-926f-6e2e6b696361,rev?*%
%TF.SameCoordinates,Original*%
%TF.FileFunction,Soldermask,Top*%
%TF.FilePolarity,Negative*%
%FSLAX46Y46*%
G04 Gerber Fmt 4.6, Leading zero omitted, Abs format (unit mm)*
G04 Created by KiCad (PCBNEW 7.0.8) date 2024-05-11 17:50:23*
%MOMM*%
%LPD*%
G01*
G04 APERTURE LIST*
G04 Aperture macros list*
%AMRoundRect*
0 Rectangle with rounded corners*
0 $1 Rounding radius*
0 $2 $3 $4 $5 $6 $7 $8 $9 X,Y pos of 4 corners*
0 Add a 4 corners polygon primitive as box body*
4,1,4,$2,$3,$4,$5,$6,$7,$8,$9,$2,$3,0*
0 Add four circle primitives for the rounded corners*
1,1,$1+$1,$2,$3*
1,1,$1+$1,$4,$5*
1,1,$1+$1,$6,$7*
1,1,$1+$1,$8,$9*
0 Add four rect primitives between the rounded corners*
20,1,$1+$1,$2,$3,$4,$5,0*
20,1,$1+$1,$4,$5,$6,$7,0*
20,1,$1+$1,$6,$7,$8,$9,0*
20,1,$1+$1,$8,$9,$2,$3,0*%
G04 Aperture macros list end*
%ADD10C,0.771073*%
%ADD11RoundRect,0.250000X0.250000X-0.550000X0.250000X0.550000X-0.250000X0.550000X-0.250000X-0.550000X0*%
%ADD12RoundRect,0.250000X-0.579441X-0.171022X0.509854X-0.324112X0.579441X0.171022X-0.509854X0.324112X0*%
%ADD13RoundRect,0.250000X0.579441X0.171022X-0.509854X0.324112X-0.579441X-0.171022X0.509854X-0.324112X0*%
%ADD14RoundRect,0.102000X0.550000X-0.350000X0.550000X0.350000X-0.550000X0.350000X-0.550000X-0.350000X0*%
%ADD15RoundRect,0.102000X0.550000X-0.700000X0.550000X0.700000X-0.550000X0.700000X-0.550000X-0.700000X0*%
%ADD16RoundRect,0.218750X-0.256250X0.218750X-0.256250X-0.218750X0.256250X-0.218750X0.256250X0.218750X0*%
%ADD17C,1.000000*%
%ADD18RoundRect,0.218750X-0.218750X-0.256250X0.218750X-0.256250X0.218750X0.256250X-0.218750X0.256250X0*%
%ADD19RoundRect,0.200000X0.200000X0.275000X-0.200000X0.275000X-0.200000X-0.275000X0.200000X-0.275000X0*%
%ADD20C,2.750000*%
%ADD21RoundRect,0.225000X0.225000X0.250000X-0.225000X0.250000X-0.225000X-0.250000X0.225000X-0.250000X0*%
%ADD22RoundRect,0.218750X0.256250X-0.218750X0.256250X0.218750X-0.256250X0.218750X-0.256250X-0.218750X0*%
%ADD23RoundRect,0.250000X-0.250000X-0.475000X0.250000X-0.475000X0.250000X0.475000X-0.250000X0.475000X0*%
%ADD24RoundRect,0.200000X-0.200000X-0.275000X0.200000X-0.275000X0.200000X0.275000X-0.200000X0.275000X0*%
%ADD25RoundRect,0.225000X0.250000X-0.225000X0.250000X0.225000X-0.250000X0.225000X-0.250000X-0.225000X0*%
%ADD26R,1.050000X0.500000*%
%ADD27RoundRect,0.250000X0.250000X0.475000X-0.250000X0.475000X-0.250000X-0.475000X0.250000X-0.475000X0*%
%ADD28R,0.750000X0.200000*%
%ADD29R,1.000000X1.600000*%
G04 APERTURE END LIST*
%TO.C,SW1*%
D10*
X128385536Y-96825000D02*
G75*
G03*
X128385536Y-96825000I-385536J0D01*
G01*
X128385536Y-93175000D02*
G75*
G03*
X128385536Y-93175000I-385536J0D01*
G01*
%TO.C,SW2*%
X128385536Y-108825000D02*
G75*
G03*
X128385536Y-108825000I-385536J0D01*
G01*
X128385536Y-105175000D02*
G75*
G03*
X128385536Y-105175000I-385536J0D01*
G01*
%TD*%
D11*
%TO.C,U1*%
X131970000Y-97690000D03*
D12*
X135609173Y-98379732D03*
X135139173Y-101689732D03*
D11*
X131030000Y-104320000D03*
D13*
X129388905Y-103641970D03*
X129858905Y-100331970D03*
D11*
X131500000Y-101000000D03*
X133970000Y-97690000D03*
D12*
X135330827Y-100360268D03*
X134866241Y-103665403D03*
D11*
X133030000Y-104320000D03*
D13*
X129667251Y-101661434D03*
X130137251Y-98351434D03*
D11*
X133500000Y-101000000D03*
%TD*%
%TO.C,U2*%
X141470000Y-97690000D03*
D12*
X145109173Y-98379732D03*
X144639173Y-101689732D03*
D11*
X140530000Y-104320000D03*
D13*
X138888905Y-103641970D03*
X139358905Y-100331970D03*
D11*
X141000000Y-101000000D03*
X143470000Y-97690000D03*
D12*
X144830827Y-100360268D03*
X144366241Y-103665403D03*
D11*
X142530000Y-104320000D03*
D13*
X139167251Y-101661434D03*
X139637251Y-98351434D03*
D11*
X143000000Y-101000000D03*
%TD*%
%TO.C,U4*%
X162970000Y-97690000D03*
D12*
X166609173Y-98379732D03*
X166139173Y-101689732D03*
D11*
X162030000Y-104320000D03*
D13*
X160388905Y-103641970D03*
X160858905Y-100331970D03*
D11*
X162500000Y-101000000D03*
X164970000Y-97690000D03*
D12*
X166330827Y-100360268D03*
X165866241Y-103665403D03*
D11*
X164030000Y-104320000D03*
D13*
X160667251Y-101661434D03*
X161137251Y-98351434D03*
D11*
X164500000Y-101000000D03*
%TD*%
%TO.C,U3*%
X153470000Y-97690000D03*
D12*
X157109173Y-98379732D03*
X156639173Y-101689732D03*
D11*
X152530000Y-104320000D03*
D13*
X150888905Y-103641970D03*
X151358905Y-100331970D03*
D11*
X153000000Y-101000000D03*
X155470000Y-97690000D03*
D12*
X156830827Y-100360268D03*
X156366241Y-103665403D03*
D11*
X154530000Y-104320000D03*
D13*
X151167251Y-101661434D03*
X151637251Y-98351434D03*
D11*
X155000000Y-101000000D03*
%TD*%
D14*
%TO.C,SW1*%
X129350000Y-96400000D03*
X129350000Y-93600000D03*
D15*
X129500000Y-95000000D03*
%TD*%
D14*
%TO.C,SW2*%
X129350000Y-108400000D03*
X129350000Y-105600000D03*
D15*
X129500000Y-107000000D03*
%TD*%
D16*
%TO.C,D40*%
X147000000Y-108037500D03*
X147000000Y-106462500D03*
%TD*%
D17*
%TO.C,TP6*%
X135825000Y-106825000D03*
%TD*%
%TO.C,TP2*%
X135825000Y-93275000D03*
%TD*%
D18*
%TO.C,Q1*%
X147212500Y-89750000D03*
X148787500Y-89750000D03*
%TD*%
D19*
%TO.C,R16*%
X148840000Y-93855000D03*
X147190000Y-93855000D03*
%TD*%
D20*
%TO.C,H1*%
X164000000Y-109000000D03*
%TD*%
D16*
%TO.C,D37*%
X148000000Y-101812500D03*
X148000000Y-103387500D03*
%TD*%
%TO.C,D39*%
X145000001Y-106462500D03*
X145000001Y-108037500D03*
%TD*%
D20*
%TO.C,H4*%
X132000000Y-93000000D03*
%TD*%
%TO.C,H3*%
X132000000Y-109000000D03*
%TD*%
D16*
%TO.C,D42*%
X151000000Y-106462500D03*
X151000000Y-108037500D03*
%TD*%
D21*
%TO.C,C6*%
X145213862Y-89752454D03*
X143663862Y-89752454D03*
%TD*%
D16*
%TO.C,D41*%
X148999999Y-106462500D03*
X148999999Y-108037500D03*
%TD*%
D22*
%TO.C,D36*%
X148000000Y-100187500D03*
X148000000Y-98612500D03*
%TD*%
D20*
%TO.C,H2*%
X164000000Y-93000000D03*
%TD*%
D16*
%TO.C,D38*%
X143000000Y-106462500D03*
X143000000Y-108037500D03*
%TD*%
D17*
%TO.C,TP4*%
X139775000Y-106825000D03*
%TD*%
D16*
%TO.C,D43*%
X153005000Y-106447500D03*
X153005000Y-108022500D03*
%TD*%
D17*
%TO.C,TP1*%
X139775000Y-93275000D03*
%TD*%
D23*
%TO.C,C9*%
X158085000Y-89905000D03*
X159985000Y-89905000D03*
%TD*%
D24*
%TO.C,R1*%
X152791078Y-111950000D03*
X154441078Y-111950000D03*
%TD*%
%TO.C,R2*%
X152791078Y-110100000D03*
X154441078Y-110100000D03*
%TD*%
D25*
%TO.C,C1*%
X161041078Y-109075000D03*
X161041078Y-107525000D03*
%TD*%
D26*
%TO.C,X1*%
X156741078Y-107200000D03*
X156741078Y-108100000D03*
X156741078Y-109000000D03*
X156741078Y-109900000D03*
X158191078Y-109900000D03*
X158191078Y-109000000D03*
X158191078Y-108100000D03*
X158191078Y-107200000D03*
%TD*%
D24*
%TO.C,R18*%
X151658905Y-92076266D03*
X153308905Y-92076266D03*
%TD*%
D27*
%TO.C,C8*%
X153395529Y-89858890D03*
X151495529Y-89858890D03*
%TD*%
D28*
%TO.C,IC1*%
X157000000Y-92700000D03*
X157000000Y-93100000D03*
X157000000Y-93500000D03*
X157000000Y-93900000D03*
X157000000Y-94300000D03*
X159200000Y-94300000D03*
X159200000Y-93900000D03*
X159200000Y-93500000D03*
X159200000Y-93100000D03*
X159200000Y-92700000D03*
D29*
X158100000Y-93500000D03*
%TD*%
D24*
%TO.C,R17*%
X151666129Y-93989063D03*
X153316129Y-93989063D03*
%TD*%
M02*
