%TF.GenerationSoftware,KiCad,Pcbnew,7.0.7*%
%TF.CreationDate,2024-04-07T18:23:59+02:00*%
%TF.ProjectId,Heptachron,48657074-6163-4687-926f-6e2e6b696361,rev?*%
%TF.SameCoordinates,Original*%
%TF.FileFunction,Copper,L1,Top*%
%TF.FilePolarity,Positive*%
%FSLAX46Y46*%
G04 Gerber Fmt 4.6, Leading zero omitted, Abs format (unit mm)*
G04 Created by KiCad (PCBNEW 7.0.7) date 2024-04-07 18:23:59*
%MOMM*%
%LPD*%
G01*
G04 APERTURE LIST*
G04 Aperture macros list*
%AMRoundRect*
0 Rectangle with rounded corners*
0 $1 Rounding radius*
0 $2 $3 $4 $5 $6 $7 $8 $9 X,Y pos of 4 corners*
0 Add a 4 corners polygon primitive as box body*
4,1,4,$2,$3,$4,$5,$6,$7,$8,$9,$2,$3,0*
0 Add four circle primitives for the rounded corners*
1,1,$1+$1,$2,$3*
1,1,$1+$1,$4,$5*
1,1,$1+$1,$6,$7*
1,1,$1+$1,$8,$9*
0 Add four rect primitives between the rounded corners*
20,1,$1+$1,$2,$3,$4,$5,0*
20,1,$1+$1,$4,$5,$6,$7,0*
20,1,$1+$1,$6,$7,$8,$9,0*
20,1,$1+$1,$8,$9,$2,$3,0*%
G04 Aperture macros list end*
%TA.AperFunction,EtchedComponent*%
%ADD10C,0.010000*%
%TD*%
%TA.AperFunction,SMDPad,CuDef*%
%ADD11R,1.100000X0.700000*%
%TD*%
%TA.AperFunction,ComponentPad*%
%ADD12C,0.800000*%
%TD*%
%TA.AperFunction,SMDPad,CuDef*%
%ADD13R,1.100000X1.400000*%
%TD*%
%TA.AperFunction,SMDPad,CuDef*%
%ADD14RoundRect,0.225000X-0.250000X0.225000X-0.250000X-0.225000X0.250000X-0.225000X0.250000X0.225000X0*%
%TD*%
%TA.AperFunction,SMDPad,CuDef*%
%ADD15RoundRect,0.200000X-0.200000X-0.275000X0.200000X-0.275000X0.200000X0.275000X-0.200000X0.275000X0*%
%TD*%
%TA.AperFunction,SMDPad,CuDef*%
%ADD16R,1.000000X1.600000*%
%TD*%
%TA.AperFunction,SMDPad,CuDef*%
%ADD17R,0.750000X0.200000*%
%TD*%
%TA.AperFunction,SMDPad,CuDef*%
%ADD18RoundRect,0.218750X-0.256250X0.218750X-0.256250X-0.218750X0.256250X-0.218750X0.256250X0.218750X0*%
%TD*%
%TA.AperFunction,SMDPad,CuDef*%
%ADD19RoundRect,0.200000X0.200000X0.275000X-0.200000X0.275000X-0.200000X-0.275000X0.200000X-0.275000X0*%
%TD*%
%TA.AperFunction,SMDPad,CuDef*%
%ADD20RoundRect,0.250000X0.250000X0.475000X-0.250000X0.475000X-0.250000X-0.475000X0.250000X-0.475000X0*%
%TD*%
%TA.AperFunction,SMDPad,CuDef*%
%ADD21RoundRect,0.062500X0.350000X0.062500X-0.350000X0.062500X-0.350000X-0.062500X0.350000X-0.062500X0*%
%TD*%
%TA.AperFunction,SMDPad,CuDef*%
%ADD22RoundRect,0.062500X0.062500X0.350000X-0.062500X0.350000X-0.062500X-0.350000X0.062500X-0.350000X0*%
%TD*%
%TA.AperFunction,SMDPad,CuDef*%
%ADD23R,1.680000X1.680000*%
%TD*%
%TA.AperFunction,SMDPad,CuDef*%
%ADD24RoundRect,0.275000X0.133151X-1.028541X0.411497X0.951995X-0.133151X1.028541X-0.411497X-0.951995X0*%
%TD*%
%TA.AperFunction,SMDPad,CuDef*%
%ADD25RoundRect,0.275000X-1.037062X0.011290X0.885461X-0.539984X1.037062X-0.011290X-0.885461X0.539984X0*%
%TD*%
%TA.AperFunction,SMDPad,CuDef*%
%ADD26RoundRect,0.275000X1.037062X-0.011290X-0.885461X0.539984X-1.037062X0.011290X0.885461X-0.539984X0*%
%TD*%
%TA.AperFunction,SMDPad,CuDef*%
%ADD27RoundRect,0.200000X0.275000X-0.200000X0.275000X0.200000X-0.275000X0.200000X-0.275000X-0.200000X0*%
%TD*%
%TA.AperFunction,SMDPad,CuDef*%
%ADD28RoundRect,0.218750X-0.218750X-0.256250X0.218750X-0.256250X0.218750X0.256250X-0.218750X0.256250X0*%
%TD*%
%TA.AperFunction,SMDPad,CuDef*%
%ADD29RoundRect,0.250000X-0.475000X0.250000X-0.475000X-0.250000X0.475000X-0.250000X0.475000X0.250000X0*%
%TD*%
%TA.AperFunction,SMDPad,CuDef*%
%ADD30RoundRect,0.200000X-0.275000X0.200000X-0.275000X-0.200000X0.275000X-0.200000X0.275000X0.200000X0*%
%TD*%
%TA.AperFunction,SMDPad,CuDef*%
%ADD31RoundRect,0.218750X0.256250X-0.218750X0.256250X0.218750X-0.256250X0.218750X-0.256250X-0.218750X0*%
%TD*%
%TA.AperFunction,SMDPad,CuDef*%
%ADD32RoundRect,0.250000X-0.250000X-0.475000X0.250000X-0.475000X0.250000X0.475000X-0.250000X0.475000X0*%
%TD*%
G04 APERTURE END LIST*
%TO.C,SW2*%
D10*
X128400000Y-104800000D02*
X128400000Y-105175000D01*
X128399000Y-105196000D01*
X128398000Y-105217000D01*
X128395000Y-105238000D01*
X128391000Y-105258000D01*
X128386000Y-105279000D01*
X128380000Y-105299000D01*
X128373000Y-105318000D01*
X128365000Y-105338000D01*
X128356000Y-105357000D01*
X128346000Y-105375000D01*
X128335000Y-105393000D01*
X128324000Y-105410000D01*
X128311000Y-105427000D01*
X128297000Y-105443000D01*
X128283000Y-105458000D01*
X128268000Y-105472000D01*
X128252000Y-105486000D01*
X128235000Y-105499000D01*
X128218000Y-105510000D01*
X128200000Y-105521000D01*
X128182000Y-105531000D01*
X128163000Y-105540000D01*
X128143000Y-105548000D01*
X128124000Y-105555000D01*
X128104000Y-105561000D01*
X128083000Y-105566000D01*
X128063000Y-105570000D01*
X128042000Y-105573000D01*
X128021000Y-105574000D01*
X128000000Y-105575000D01*
X127700000Y-105575000D01*
X127700000Y-105850000D01*
X127250000Y-105850000D01*
X127250000Y-104900000D01*
X127550000Y-104700000D01*
X128400000Y-104800000D01*
%TA.AperFunction,EtchedComponent*%
G36*
X128400000Y-104800000D02*
G01*
X128400000Y-105175000D01*
X128399000Y-105196000D01*
X128398000Y-105217000D01*
X128395000Y-105238000D01*
X128391000Y-105258000D01*
X128386000Y-105279000D01*
X128380000Y-105299000D01*
X128373000Y-105318000D01*
X128365000Y-105338000D01*
X128356000Y-105357000D01*
X128346000Y-105375000D01*
X128335000Y-105393000D01*
X128324000Y-105410000D01*
X128311000Y-105427000D01*
X128297000Y-105443000D01*
X128283000Y-105458000D01*
X128268000Y-105472000D01*
X128252000Y-105486000D01*
X128235000Y-105499000D01*
X128218000Y-105510000D01*
X128200000Y-105521000D01*
X128182000Y-105531000D01*
X128163000Y-105540000D01*
X128143000Y-105548000D01*
X128124000Y-105555000D01*
X128104000Y-105561000D01*
X128083000Y-105566000D01*
X128063000Y-105570000D01*
X128042000Y-105573000D01*
X128021000Y-105574000D01*
X128000000Y-105575000D01*
X127700000Y-105575000D01*
X127700000Y-105850000D01*
X127250000Y-105850000D01*
X127250000Y-104900000D01*
X127550000Y-104700000D01*
X128400000Y-104800000D01*
G37*
%TD.AperFunction*%
X127700000Y-108425000D02*
X128000000Y-108425000D01*
X128021000Y-108426000D01*
X128042000Y-108427000D01*
X128063000Y-108430000D01*
X128083000Y-108434000D01*
X128104000Y-108439000D01*
X128124000Y-108445000D01*
X128143000Y-108452000D01*
X128163000Y-108460000D01*
X128182000Y-108469000D01*
X128200000Y-108479000D01*
X128218000Y-108490000D01*
X128235000Y-108501000D01*
X128252000Y-108514000D01*
X128268000Y-108528000D01*
X128283000Y-108542000D01*
X128297000Y-108557000D01*
X128311000Y-108573000D01*
X128324000Y-108590000D01*
X128335000Y-108607000D01*
X128346000Y-108625000D01*
X128356000Y-108643000D01*
X128365000Y-108662000D01*
X128373000Y-108682000D01*
X128380000Y-108701000D01*
X128386000Y-108721000D01*
X128391000Y-108742000D01*
X128395000Y-108762000D01*
X128398000Y-108783000D01*
X128399000Y-108804000D01*
X128400000Y-108825000D01*
X128400000Y-109150000D01*
X127700000Y-109300000D01*
X127600000Y-109300000D01*
X127250000Y-109150000D01*
X127250000Y-108150000D01*
X127700000Y-108150000D01*
X127700000Y-108425000D01*
%TA.AperFunction,EtchedComponent*%
G36*
X127700000Y-108425000D02*
G01*
X128000000Y-108425000D01*
X128021000Y-108426000D01*
X128042000Y-108427000D01*
X128063000Y-108430000D01*
X128083000Y-108434000D01*
X128104000Y-108439000D01*
X128124000Y-108445000D01*
X128143000Y-108452000D01*
X128163000Y-108460000D01*
X128182000Y-108469000D01*
X128200000Y-108479000D01*
X128218000Y-108490000D01*
X128235000Y-108501000D01*
X128252000Y-108514000D01*
X128268000Y-108528000D01*
X128283000Y-108542000D01*
X128297000Y-108557000D01*
X128311000Y-108573000D01*
X128324000Y-108590000D01*
X128335000Y-108607000D01*
X128346000Y-108625000D01*
X128356000Y-108643000D01*
X128365000Y-108662000D01*
X128373000Y-108682000D01*
X128380000Y-108701000D01*
X128386000Y-108721000D01*
X128391000Y-108742000D01*
X128395000Y-108762000D01*
X128398000Y-108783000D01*
X128399000Y-108804000D01*
X128400000Y-108825000D01*
X128400000Y-109150000D01*
X127700000Y-109300000D01*
X127600000Y-109300000D01*
X127250000Y-109150000D01*
X127250000Y-108150000D01*
X127700000Y-108150000D01*
X127700000Y-108425000D01*
G37*
%TD.AperFunction*%
%TO.C,SW1*%
X128400000Y-92800000D02*
X128400000Y-93175000D01*
X128399000Y-93196000D01*
X128398000Y-93217000D01*
X128395000Y-93238000D01*
X128391000Y-93258000D01*
X128386000Y-93279000D01*
X128380000Y-93299000D01*
X128373000Y-93318000D01*
X128365000Y-93338000D01*
X128356000Y-93357000D01*
X128346000Y-93375000D01*
X128335000Y-93393000D01*
X128324000Y-93410000D01*
X128311000Y-93427000D01*
X128297000Y-93443000D01*
X128283000Y-93458000D01*
X128268000Y-93472000D01*
X128252000Y-93486000D01*
X128235000Y-93499000D01*
X128218000Y-93510000D01*
X128200000Y-93521000D01*
X128182000Y-93531000D01*
X128163000Y-93540000D01*
X128143000Y-93548000D01*
X128124000Y-93555000D01*
X128104000Y-93561000D01*
X128083000Y-93566000D01*
X128063000Y-93570000D01*
X128042000Y-93573000D01*
X128021000Y-93574000D01*
X128000000Y-93575000D01*
X127700000Y-93575000D01*
X127700000Y-93850000D01*
X127250000Y-93850000D01*
X127250000Y-92900000D01*
X127550000Y-92700000D01*
X128400000Y-92800000D01*
%TA.AperFunction,EtchedComponent*%
G36*
X128400000Y-92800000D02*
G01*
X128400000Y-93175000D01*
X128399000Y-93196000D01*
X128398000Y-93217000D01*
X128395000Y-93238000D01*
X128391000Y-93258000D01*
X128386000Y-93279000D01*
X128380000Y-93299000D01*
X128373000Y-93318000D01*
X128365000Y-93338000D01*
X128356000Y-93357000D01*
X128346000Y-93375000D01*
X128335000Y-93393000D01*
X128324000Y-93410000D01*
X128311000Y-93427000D01*
X128297000Y-93443000D01*
X128283000Y-93458000D01*
X128268000Y-93472000D01*
X128252000Y-93486000D01*
X128235000Y-93499000D01*
X128218000Y-93510000D01*
X128200000Y-93521000D01*
X128182000Y-93531000D01*
X128163000Y-93540000D01*
X128143000Y-93548000D01*
X128124000Y-93555000D01*
X128104000Y-93561000D01*
X128083000Y-93566000D01*
X128063000Y-93570000D01*
X128042000Y-93573000D01*
X128021000Y-93574000D01*
X128000000Y-93575000D01*
X127700000Y-93575000D01*
X127700000Y-93850000D01*
X127250000Y-93850000D01*
X127250000Y-92900000D01*
X127550000Y-92700000D01*
X128400000Y-92800000D01*
G37*
%TD.AperFunction*%
X127700000Y-96425000D02*
X128000000Y-96425000D01*
X128021000Y-96426000D01*
X128042000Y-96427000D01*
X128063000Y-96430000D01*
X128083000Y-96434000D01*
X128104000Y-96439000D01*
X128124000Y-96445000D01*
X128143000Y-96452000D01*
X128163000Y-96460000D01*
X128182000Y-96469000D01*
X128200000Y-96479000D01*
X128218000Y-96490000D01*
X128235000Y-96501000D01*
X128252000Y-96514000D01*
X128268000Y-96528000D01*
X128283000Y-96542000D01*
X128297000Y-96557000D01*
X128311000Y-96573000D01*
X128324000Y-96590000D01*
X128335000Y-96607000D01*
X128346000Y-96625000D01*
X128356000Y-96643000D01*
X128365000Y-96662000D01*
X128373000Y-96682000D01*
X128380000Y-96701000D01*
X128386000Y-96721000D01*
X128391000Y-96742000D01*
X128395000Y-96762000D01*
X128398000Y-96783000D01*
X128399000Y-96804000D01*
X128400000Y-96825000D01*
X128400000Y-97150000D01*
X127700000Y-97300000D01*
X127600000Y-97300000D01*
X127250000Y-97150000D01*
X127250000Y-96150000D01*
X127700000Y-96150000D01*
X127700000Y-96425000D01*
%TA.AperFunction,EtchedComponent*%
G36*
X127700000Y-96425000D02*
G01*
X128000000Y-96425000D01*
X128021000Y-96426000D01*
X128042000Y-96427000D01*
X128063000Y-96430000D01*
X128083000Y-96434000D01*
X128104000Y-96439000D01*
X128124000Y-96445000D01*
X128143000Y-96452000D01*
X128163000Y-96460000D01*
X128182000Y-96469000D01*
X128200000Y-96479000D01*
X128218000Y-96490000D01*
X128235000Y-96501000D01*
X128252000Y-96514000D01*
X128268000Y-96528000D01*
X128283000Y-96542000D01*
X128297000Y-96557000D01*
X128311000Y-96573000D01*
X128324000Y-96590000D01*
X128335000Y-96607000D01*
X128346000Y-96625000D01*
X128356000Y-96643000D01*
X128365000Y-96662000D01*
X128373000Y-96682000D01*
X128380000Y-96701000D01*
X128386000Y-96721000D01*
X128391000Y-96742000D01*
X128395000Y-96762000D01*
X128398000Y-96783000D01*
X128399000Y-96804000D01*
X128400000Y-96825000D01*
X128400000Y-97150000D01*
X127700000Y-97300000D01*
X127600000Y-97300000D01*
X127250000Y-97150000D01*
X127250000Y-96150000D01*
X127700000Y-96150000D01*
X127700000Y-96425000D01*
G37*
%TD.AperFunction*%
%TD*%
D11*
%TO.P,SW2,1,1*%
%TO.N,/BU2*%
X129350000Y-108400000D03*
%TO.P,SW2,2,2*%
%TO.N,GND*%
X129350000Y-105600000D03*
D12*
%TO.P,SW2,SH1*%
%TO.N,N/C*%
X128000000Y-108825000D03*
%TO.P,SW2,SH2*%
X128000000Y-105175000D03*
D13*
%TO.P,SW2,SH3*%
X129500000Y-107000000D03*
%TD*%
D11*
%TO.P,SW1,1,1*%
%TO.N,/BU1*%
X129350000Y-96400000D03*
%TO.P,SW1,2,2*%
%TO.N,GND*%
X129350000Y-93600000D03*
D12*
%TO.P,SW1,SH1*%
%TO.N,N/C*%
X128000000Y-96825000D03*
%TO.P,SW1,SH2*%
X128000000Y-93175000D03*
D13*
%TO.P,SW1,SH3*%
X129500000Y-95000000D03*
%TD*%
D14*
%TO.P,C7,1*%
%TO.N,VCC*%
X159500000Y-107225000D03*
%TO.P,C7,2*%
%TO.N,GND*%
X159500000Y-108775000D03*
%TD*%
D15*
%TO.P,R15,1*%
%TO.N,GND*%
X159175000Y-110500000D03*
%TO.P,R15,2*%
%TO.N,Net-(U7-ISET)*%
X160825000Y-110500000D03*
%TD*%
D16*
%TO.P,IC1,11,EP*%
%TO.N,unconnected-(IC1-EP-Pad11)*%
X148000000Y-111500000D03*
D17*
%TO.P,IC1,10,IN*%
%TO.N,unconnected-(IC1-IN-Pad10)*%
X149100000Y-110700000D03*
%TO.P,IC1,9,STAT1*%
%TO.N,unconnected-(IC1-STAT1-Pad9)*%
X149100000Y-111100000D03*
%TO.P,IC1,8,ISET*%
%TO.N,unconnected-(IC1-ISET-Pad8)*%
X149100000Y-111500000D03*
%TO.P,IC1,7,ILIM/VSET*%
%TO.N,unconnected-(IC1-ILIM{slash}VSET-Pad7)*%
X149100000Y-111900000D03*
%TO.P,IC1,6,TS/MR*%
%TO.N,unconnected-(IC1-TS{slash}MR-Pad6)*%
X149100000Y-112300000D03*
%TO.P,IC1,5,GND*%
%TO.N,unconnected-(IC1-GND-Pad5)*%
X146900000Y-112300000D03*
%TO.P,IC1,4,~{CE}*%
%TO.N,unconnected-(IC1-~{CE}-Pad4)*%
X146900000Y-111900000D03*
%TO.P,IC1,3,STAT2*%
%TO.N,unconnected-(IC1-STAT2-Pad3)*%
X146900000Y-111500000D03*
%TO.P,IC1,2,BAT*%
%TO.N,unconnected-(IC1-BAT-Pad2)*%
X146900000Y-111100000D03*
%TO.P,IC1,1,SYS*%
%TO.N,unconnected-(IC1-SYS-Pad1)*%
X146900000Y-110700000D03*
%TD*%
D18*
%TO.P,D40,1,K*%
%TO.N,/CS3*%
X148000000Y-106462500D03*
%TO.P,D40,2,A*%
%TO.N,/SW5*%
X148000000Y-108037500D03*
%TD*%
D19*
%TO.P,R8,1*%
%TO.N,GND*%
X149475000Y-91737499D03*
%TO.P,R8,2*%
%TO.N,Net-(U6-TS)*%
X147825000Y-91737499D03*
%TD*%
D20*
%TO.P,C3,1*%
%TO.N,GND*%
X149600000Y-89737500D03*
%TO.P,C3,2*%
%TO.N,+BATT*%
X147700000Y-89737500D03*
%TD*%
D21*
%TO.P,U6,1,TS*%
%TO.N,Net-(U6-TS)*%
X144462500Y-93712500D03*
%TO.P,U6,2,BAT*%
%TO.N,+BATT*%
X144462500Y-93212500D03*
%TO.P,U6,3,BAT*%
X144462500Y-92712500D03*
%TO.P,U6,4,CE*%
%TO.N,GND*%
X144462500Y-92212500D03*
D22*
%TO.P,U6,5,EN2*%
%TO.N,/BMSOUT*%
X143750000Y-91500000D03*
%TO.P,U6,6,EN1*%
%TO.N,GND*%
X143250000Y-91500000D03*
%TO.P,U6,7,PGOOD*%
%TO.N,/PGOOD*%
X142750000Y-91500000D03*
%TO.P,U6,8,VSS*%
%TO.N,GND*%
X142250000Y-91500000D03*
D21*
%TO.P,U6,9,CHG*%
%TO.N,/CHG*%
X141537500Y-92212500D03*
%TO.P,U6,10,OUT*%
%TO.N,/BMSOUT*%
X141537500Y-92712500D03*
%TO.P,U6,11,OUT*%
X141537500Y-93212500D03*
%TO.P,U6,12,ILIM*%
%TO.N,Net-(U6-ILIM)*%
X141537500Y-93712500D03*
D22*
%TO.P,U6,13,IN*%
%TO.N,+5V*%
X142250000Y-94425000D03*
%TO.P,U6,14,TMR*%
%TO.N,unconnected-(U6-TMR-Pad14)*%
X142750000Y-94425000D03*
%TO.P,U6,15,TD*%
%TO.N,Net-(U6-TD)*%
X143250000Y-94425000D03*
%TO.P,U6,16,ISET*%
%TO.N,Net-(U6-ISET)*%
X143750000Y-94425000D03*
D12*
%TO.P,U6,17,VSS*%
%TO.N,GND*%
X143000000Y-92962500D03*
D23*
X143000000Y-92962500D03*
%TD*%
D19*
%TO.P,R4,1*%
%TO.N,/CHG*%
X139250000Y-91137500D03*
%TO.P,R4,2*%
%TO.N,/BMSOUT*%
X137600000Y-91137500D03*
%TD*%
%TO.P,R10,1*%
%TO.N,Net-(D2-A)*%
X135925000Y-107100000D03*
%TO.P,R10,2*%
%TO.N,VCC*%
X134275000Y-107100000D03*
%TD*%
D18*
%TO.P,D37,1,K*%
%TO.N,/CS6*%
X148000000Y-101812500D03*
%TO.P,D37,2,A*%
%TO.N,/SW5*%
X148000000Y-103387500D03*
%TD*%
D24*
%TO.P,U3,1,A_A*%
%TO.N,/SW2*%
X153446431Y-97118254D03*
D25*
%TO.P,U3,2,A_B*%
X157565536Y-98433565D03*
%TO.P,U3,3,A_C*%
X157099536Y-101751565D03*
D24*
%TO.P,U3,4,A_D*%
X152514431Y-103752254D03*
D26*
%TO.P,U3,5,A_E*%
X150295326Y-103486943D03*
%TO.P,U3,6,A_F*%
X150761326Y-100168943D03*
D24*
%TO.P,U3,7,A_G*%
X152980431Y-100435254D03*
%TO.P,U3,8,K_A*%
%TO.N,/CS1*%
X155446431Y-97118254D03*
D25*
%TO.P,U3,9,K_B*%
%TO.N,/CS2*%
X157287190Y-100414101D03*
%TO.P,U3,10,K_C*%
%TO.N,/CS3*%
X156821190Y-103732101D03*
D24*
%TO.P,U3,11,K_D*%
%TO.N,/CS4*%
X154514431Y-103752254D03*
D26*
%TO.P,U3,12,K_E*%
%TO.N,/CS5*%
X150573672Y-101506407D03*
%TO.P,U3,13,K_F*%
%TO.N,/CS6*%
X151039672Y-98188407D03*
D24*
%TO.P,U3,14,K_G*%
%TO.N,/CS7*%
X154980431Y-100435254D03*
%TD*%
D19*
%TO.P,R12,1*%
%TO.N,Net-(D4-A)*%
X142150000Y-107100000D03*
%TO.P,R12,2*%
%TO.N,VCC*%
X140500000Y-107100000D03*
%TD*%
D27*
%TO.P,R5,1*%
%TO.N,GND*%
X155200000Y-91550000D03*
%TO.P,R5,2*%
%TO.N,Net-(U6-ILIM)*%
X155200000Y-89900000D03*
%TD*%
D19*
%TO.P,R6,1*%
%TO.N,GND*%
X149475000Y-93437498D03*
%TO.P,R6,2*%
%TO.N,Net-(U6-ISET)*%
X147825000Y-93437498D03*
%TD*%
D18*
%TO.P,D39,1,K*%
%TO.N,/CS2*%
X150000001Y-106462500D03*
%TO.P,D39,2,A*%
%TO.N,/SW5*%
X150000001Y-108037500D03*
%TD*%
D24*
%TO.P,U2,1,A_A*%
%TO.N,/SW3*%
X141446431Y-97118254D03*
D25*
%TO.P,U2,2,A_B*%
X145565536Y-98433565D03*
%TO.P,U2,3,A_C*%
X145099536Y-101751565D03*
D24*
%TO.P,U2,4,A_D*%
X140514431Y-103752254D03*
D26*
%TO.P,U2,5,A_E*%
X138295326Y-103486943D03*
%TO.P,U2,6,A_F*%
X138761326Y-100168943D03*
D24*
%TO.P,U2,7,A_G*%
X140980431Y-100435254D03*
%TO.P,U2,8,K_A*%
%TO.N,/CS1*%
X143446431Y-97118254D03*
D25*
%TO.P,U2,9,K_B*%
%TO.N,/CS2*%
X145287190Y-100414101D03*
%TO.P,U2,10,K_C*%
%TO.N,/CS3*%
X144821190Y-103732101D03*
D24*
%TO.P,U2,11,K_D*%
%TO.N,/CS4*%
X142514431Y-103752254D03*
D26*
%TO.P,U2,12,K_E*%
%TO.N,/CS5*%
X138573672Y-101506407D03*
%TO.P,U2,13,K_F*%
%TO.N,/CS6*%
X139039672Y-98188407D03*
D24*
%TO.P,U2,14,K_G*%
%TO.N,/CS7*%
X142980431Y-100435254D03*
%TD*%
D28*
%TO.P,D1,1,K*%
%TO.N,/PGOOD*%
X137537500Y-109000000D03*
%TO.P,D1,2,A*%
%TO.N,Net-(D1-A)*%
X139112500Y-109000000D03*
%TD*%
D29*
%TO.P,C5,1*%
%TO.N,+5V*%
X157100001Y-89875001D03*
%TO.P,C5,2*%
%TO.N,GND*%
X157100001Y-91775001D03*
%TD*%
D28*
%TO.P,D3,1,K*%
%TO.N,GND*%
X154212500Y-109000000D03*
%TO.P,D3,2,A*%
%TO.N,Net-(D3-A)*%
X155787500Y-109000000D03*
%TD*%
D30*
%TO.P,R7,1*%
%TO.N,Net-(U6-TD)*%
X159000000Y-90000000D03*
%TO.P,R7,2*%
%TO.N,GND*%
X159000000Y-91650000D03*
%TD*%
D24*
%TO.P,U4,1,A_A*%
%TO.N,/SW1*%
X162946431Y-97118254D03*
D25*
%TO.P,U4,2,A_B*%
X167065536Y-98433565D03*
%TO.P,U4,3,A_C*%
X166599536Y-101751565D03*
D24*
%TO.P,U4,4,A_D*%
X162014431Y-103752254D03*
D26*
%TO.P,U4,5,A_E*%
X159795326Y-103486943D03*
%TO.P,U4,6,A_F*%
X160261326Y-100168943D03*
D24*
%TO.P,U4,7,A_G*%
X162480431Y-100435254D03*
%TO.P,U4,8,K_A*%
%TO.N,/CS1*%
X164946431Y-97118254D03*
D25*
%TO.P,U4,9,K_B*%
%TO.N,/CS2*%
X166787190Y-100414101D03*
%TO.P,U4,10,K_C*%
%TO.N,/CS3*%
X166321190Y-103732101D03*
D24*
%TO.P,U4,11,K_D*%
%TO.N,/CS4*%
X164014431Y-103752254D03*
D26*
%TO.P,U4,12,K_E*%
%TO.N,/CS5*%
X160073672Y-101506407D03*
%TO.P,U4,13,K_F*%
%TO.N,/CS6*%
X160539672Y-98188407D03*
D24*
%TO.P,U4,14,K_G*%
%TO.N,/CS7*%
X164480431Y-100435254D03*
%TD*%
D18*
%TO.P,D42,1,K*%
%TO.N,/CS5*%
X144000000Y-106462500D03*
%TO.P,D42,2,A*%
%TO.N,/SW5*%
X144000000Y-108037500D03*
%TD*%
D19*
%TO.P,R9,1*%
%TO.N,Net-(D1-A)*%
X139150000Y-107100000D03*
%TO.P,R9,2*%
%TO.N,VCC*%
X137500000Y-107100000D03*
%TD*%
%TO.P,R11,1*%
%TO.N,Net-(D3-A)*%
X155825000Y-107100000D03*
%TO.P,R11,2*%
%TO.N,+BATT*%
X154175000Y-107100000D03*
%TD*%
D18*
%TO.P,D41,1,K*%
%TO.N,/CS4*%
X145999999Y-106462500D03*
%TO.P,D41,2,A*%
%TO.N,/SW5*%
X145999999Y-108037500D03*
%TD*%
D28*
%TO.P,D2,1,K*%
%TO.N,/CHG*%
X134312500Y-109000000D03*
%TO.P,D2,2,A*%
%TO.N,Net-(D2-A)*%
X135887500Y-109000000D03*
%TD*%
D15*
%TO.P,R3,1*%
%TO.N,/BMSOUT*%
X137600000Y-89437500D03*
%TO.P,R3,2*%
%TO.N,/PGOOD*%
X139250000Y-89437500D03*
%TD*%
D31*
%TO.P,D36,1,K*%
%TO.N,/CS7*%
X148000000Y-100187500D03*
%TO.P,D36,2,A*%
%TO.N,/SW5*%
X148000000Y-98612500D03*
%TD*%
D32*
%TO.P,C2,1*%
%TO.N,GND*%
X137475000Y-93037500D03*
%TO.P,C2,2*%
%TO.N,/BMSOUT*%
X139375000Y-93037500D03*
%TD*%
D18*
%TO.P,D38,1,K*%
%TO.N,/CS1*%
X152000000Y-106462500D03*
%TO.P,D38,2,A*%
%TO.N,/SW5*%
X152000000Y-108037500D03*
%TD*%
D24*
%TO.P,U1,1,A_A*%
%TO.N,/SW4*%
X131946431Y-97118254D03*
D25*
%TO.P,U1,2,A_B*%
X136065536Y-98433565D03*
%TO.P,U1,3,A_C*%
X135599536Y-101751565D03*
D24*
%TO.P,U1,4,A_D*%
X131014431Y-103752254D03*
D26*
%TO.P,U1,5,A_E*%
X128795326Y-103486943D03*
%TO.P,U1,6,A_F*%
X129261326Y-100168943D03*
D24*
%TO.P,U1,7,A_G*%
X131480431Y-100435254D03*
%TO.P,U1,8,K_A*%
%TO.N,/CS1*%
X133946431Y-97118254D03*
D25*
%TO.P,U1,9,K_B*%
%TO.N,/CS2*%
X135787190Y-100414101D03*
%TO.P,U1,10,K_C*%
%TO.N,/CS3*%
X135321190Y-103732101D03*
D24*
%TO.P,U1,11,K_D*%
%TO.N,/CS4*%
X133014431Y-103752254D03*
D26*
%TO.P,U1,12,K_E*%
%TO.N,/CS5*%
X129073672Y-101506407D03*
%TO.P,U1,13,K_F*%
%TO.N,/CS6*%
X129539672Y-98188407D03*
D24*
%TO.P,U1,14,K_G*%
%TO.N,/CS7*%
X133480431Y-100435254D03*
%TD*%
D28*
%TO.P,D4,1,K*%
%TO.N,GND*%
X140537500Y-109000000D03*
%TO.P,D4,2,A*%
%TO.N,Net-(D4-A)*%
X142112500Y-109000000D03*
%TD*%
M02*
