%TF.GenerationSoftware,KiCad,Pcbnew,7.0.7*%
%TF.CreationDate,2024-04-07T18:23:59+02:00*%
%TF.ProjectId,Heptachron,48657074-6163-4687-926f-6e2e6b696361,rev?*%
%TF.SameCoordinates,Original*%
%TF.FileFunction,Legend,Bot*%
%TF.FilePolarity,Positive*%
%FSLAX46Y46*%
G04 Gerber Fmt 4.6, Leading zero omitted, Abs format (unit mm)*
G04 Created by KiCad (PCBNEW 7.0.7) date 2024-04-07 18:23:59*
%MOMM*%
%LPD*%
G01*
G04 APERTURE LIST*
%ADD10C,0.200000*%
%ADD11C,0.150000*%
%ADD12C,0.120000*%
G04 APERTURE END LIST*
D10*
X158833333Y-111952219D02*
X158261905Y-111952219D01*
X158547619Y-112952219D02*
X158547619Y-111952219D01*
X157928571Y-112428409D02*
X157595238Y-112428409D01*
X157452381Y-112952219D02*
X157928571Y-112952219D01*
X157928571Y-112952219D02*
X157928571Y-111952219D01*
X157928571Y-111952219D02*
X157452381Y-111952219D01*
X157071428Y-112904600D02*
X156928571Y-112952219D01*
X156928571Y-112952219D02*
X156690476Y-112952219D01*
X156690476Y-112952219D02*
X156595238Y-112904600D01*
X156595238Y-112904600D02*
X156547619Y-112856980D01*
X156547619Y-112856980D02*
X156500000Y-112761742D01*
X156500000Y-112761742D02*
X156500000Y-112666504D01*
X156500000Y-112666504D02*
X156547619Y-112571266D01*
X156547619Y-112571266D02*
X156595238Y-112523647D01*
X156595238Y-112523647D02*
X156690476Y-112476028D01*
X156690476Y-112476028D02*
X156880952Y-112428409D01*
X156880952Y-112428409D02*
X156976190Y-112380790D01*
X156976190Y-112380790D02*
X157023809Y-112333171D01*
X157023809Y-112333171D02*
X157071428Y-112237933D01*
X157071428Y-112237933D02*
X157071428Y-112142695D01*
X157071428Y-112142695D02*
X157023809Y-112047457D01*
X157023809Y-112047457D02*
X156976190Y-111999838D01*
X156976190Y-111999838D02*
X156880952Y-111952219D01*
X156880952Y-111952219D02*
X156642857Y-111952219D01*
X156642857Y-111952219D02*
X156500000Y-111999838D01*
X156214285Y-111952219D02*
X155642857Y-111952219D01*
X155928571Y-112952219D02*
X155928571Y-111952219D01*
X154214285Y-112428409D02*
X154071428Y-112476028D01*
X154071428Y-112476028D02*
X154023809Y-112523647D01*
X154023809Y-112523647D02*
X153976190Y-112618885D01*
X153976190Y-112618885D02*
X153976190Y-112761742D01*
X153976190Y-112761742D02*
X154023809Y-112856980D01*
X154023809Y-112856980D02*
X154071428Y-112904600D01*
X154071428Y-112904600D02*
X154166666Y-112952219D01*
X154166666Y-112952219D02*
X154547618Y-112952219D01*
X154547618Y-112952219D02*
X154547618Y-111952219D01*
X154547618Y-111952219D02*
X154214285Y-111952219D01*
X154214285Y-111952219D02*
X154119047Y-111999838D01*
X154119047Y-111999838D02*
X154071428Y-112047457D01*
X154071428Y-112047457D02*
X154023809Y-112142695D01*
X154023809Y-112142695D02*
X154023809Y-112237933D01*
X154023809Y-112237933D02*
X154071428Y-112333171D01*
X154071428Y-112333171D02*
X154119047Y-112380790D01*
X154119047Y-112380790D02*
X154214285Y-112428409D01*
X154214285Y-112428409D02*
X154547618Y-112428409D01*
X153357142Y-111952219D02*
X153166666Y-111952219D01*
X153166666Y-111952219D02*
X153071428Y-111999838D01*
X153071428Y-111999838D02*
X152976190Y-112095076D01*
X152976190Y-112095076D02*
X152928571Y-112285552D01*
X152928571Y-112285552D02*
X152928571Y-112618885D01*
X152928571Y-112618885D02*
X152976190Y-112809361D01*
X152976190Y-112809361D02*
X153071428Y-112904600D01*
X153071428Y-112904600D02*
X153166666Y-112952219D01*
X153166666Y-112952219D02*
X153357142Y-112952219D01*
X153357142Y-112952219D02*
X153452380Y-112904600D01*
X153452380Y-112904600D02*
X153547618Y-112809361D01*
X153547618Y-112809361D02*
X153595237Y-112618885D01*
X153595237Y-112618885D02*
X153595237Y-112285552D01*
X153595237Y-112285552D02*
X153547618Y-112095076D01*
X153547618Y-112095076D02*
X153452380Y-111999838D01*
X153452380Y-111999838D02*
X153357142Y-111952219D01*
X152547618Y-112666504D02*
X152071428Y-112666504D01*
X152642856Y-112952219D02*
X152309523Y-111952219D01*
X152309523Y-111952219D02*
X151976190Y-112952219D01*
X151071428Y-112952219D02*
X151404761Y-112476028D01*
X151642856Y-112952219D02*
X151642856Y-111952219D01*
X151642856Y-111952219D02*
X151261904Y-111952219D01*
X151261904Y-111952219D02*
X151166666Y-111999838D01*
X151166666Y-111999838D02*
X151119047Y-112047457D01*
X151119047Y-112047457D02*
X151071428Y-112142695D01*
X151071428Y-112142695D02*
X151071428Y-112285552D01*
X151071428Y-112285552D02*
X151119047Y-112380790D01*
X151119047Y-112380790D02*
X151166666Y-112428409D01*
X151166666Y-112428409D02*
X151261904Y-112476028D01*
X151261904Y-112476028D02*
X151642856Y-112476028D01*
X150642856Y-112952219D02*
X150642856Y-111952219D01*
X150642856Y-111952219D02*
X150404761Y-111952219D01*
X150404761Y-111952219D02*
X150261904Y-111999838D01*
X150261904Y-111999838D02*
X150166666Y-112095076D01*
X150166666Y-112095076D02*
X150119047Y-112190314D01*
X150119047Y-112190314D02*
X150071428Y-112380790D01*
X150071428Y-112380790D02*
X150071428Y-112523647D01*
X150071428Y-112523647D02*
X150119047Y-112714123D01*
X150119047Y-112714123D02*
X150166666Y-112809361D01*
X150166666Y-112809361D02*
X150261904Y-112904600D01*
X150261904Y-112904600D02*
X150404761Y-112952219D01*
X150404761Y-112952219D02*
X150642856Y-112952219D01*
X149595237Y-112904600D02*
X149595237Y-112952219D01*
X149595237Y-112952219D02*
X149642856Y-113047457D01*
X149642856Y-113047457D02*
X149690475Y-113095076D01*
X148404761Y-112952219D02*
X148404761Y-111952219D01*
X148404761Y-111952219D02*
X147833333Y-112952219D01*
X147833333Y-112952219D02*
X147833333Y-111952219D01*
X147166666Y-111952219D02*
X146976190Y-111952219D01*
X146976190Y-111952219D02*
X146880952Y-111999838D01*
X146880952Y-111999838D02*
X146785714Y-112095076D01*
X146785714Y-112095076D02*
X146738095Y-112285552D01*
X146738095Y-112285552D02*
X146738095Y-112618885D01*
X146738095Y-112618885D02*
X146785714Y-112809361D01*
X146785714Y-112809361D02*
X146880952Y-112904600D01*
X146880952Y-112904600D02*
X146976190Y-112952219D01*
X146976190Y-112952219D02*
X147166666Y-112952219D01*
X147166666Y-112952219D02*
X147261904Y-112904600D01*
X147261904Y-112904600D02*
X147357142Y-112809361D01*
X147357142Y-112809361D02*
X147404761Y-112618885D01*
X147404761Y-112618885D02*
X147404761Y-112285552D01*
X147404761Y-112285552D02*
X147357142Y-112095076D01*
X147357142Y-112095076D02*
X147261904Y-111999838D01*
X147261904Y-111999838D02*
X147166666Y-111952219D01*
X146452380Y-111952219D02*
X145880952Y-111952219D01*
X146166666Y-112952219D02*
X146166666Y-111952219D01*
X144452380Y-112428409D02*
X144785713Y-112428409D01*
X144785713Y-112952219D02*
X144785713Y-111952219D01*
X144785713Y-111952219D02*
X144309523Y-111952219D01*
X143928570Y-111952219D02*
X143928570Y-112761742D01*
X143928570Y-112761742D02*
X143880951Y-112856980D01*
X143880951Y-112856980D02*
X143833332Y-112904600D01*
X143833332Y-112904600D02*
X143738094Y-112952219D01*
X143738094Y-112952219D02*
X143547618Y-112952219D01*
X143547618Y-112952219D02*
X143452380Y-112904600D01*
X143452380Y-112904600D02*
X143404761Y-112856980D01*
X143404761Y-112856980D02*
X143357142Y-112761742D01*
X143357142Y-112761742D02*
X143357142Y-111952219D01*
X142880951Y-112952219D02*
X142880951Y-111952219D01*
X142880951Y-111952219D02*
X142309523Y-112952219D01*
X142309523Y-112952219D02*
X142309523Y-111952219D01*
X141261904Y-112856980D02*
X141309523Y-112904600D01*
X141309523Y-112904600D02*
X141452380Y-112952219D01*
X141452380Y-112952219D02*
X141547618Y-112952219D01*
X141547618Y-112952219D02*
X141690475Y-112904600D01*
X141690475Y-112904600D02*
X141785713Y-112809361D01*
X141785713Y-112809361D02*
X141833332Y-112714123D01*
X141833332Y-112714123D02*
X141880951Y-112523647D01*
X141880951Y-112523647D02*
X141880951Y-112380790D01*
X141880951Y-112380790D02*
X141833332Y-112190314D01*
X141833332Y-112190314D02*
X141785713Y-112095076D01*
X141785713Y-112095076D02*
X141690475Y-111999838D01*
X141690475Y-111999838D02*
X141547618Y-111952219D01*
X141547618Y-111952219D02*
X141452380Y-111952219D01*
X141452380Y-111952219D02*
X141309523Y-111999838D01*
X141309523Y-111999838D02*
X141261904Y-112047457D01*
X140976189Y-111952219D02*
X140404761Y-111952219D01*
X140690475Y-112952219D02*
X140690475Y-111952219D01*
X140071427Y-112952219D02*
X140071427Y-111952219D01*
X139404761Y-111952219D02*
X139214285Y-111952219D01*
X139214285Y-111952219D02*
X139119047Y-111999838D01*
X139119047Y-111999838D02*
X139023809Y-112095076D01*
X139023809Y-112095076D02*
X138976190Y-112285552D01*
X138976190Y-112285552D02*
X138976190Y-112618885D01*
X138976190Y-112618885D02*
X139023809Y-112809361D01*
X139023809Y-112809361D02*
X139119047Y-112904600D01*
X139119047Y-112904600D02*
X139214285Y-112952219D01*
X139214285Y-112952219D02*
X139404761Y-112952219D01*
X139404761Y-112952219D02*
X139499999Y-112904600D01*
X139499999Y-112904600D02*
X139595237Y-112809361D01*
X139595237Y-112809361D02*
X139642856Y-112618885D01*
X139642856Y-112618885D02*
X139642856Y-112285552D01*
X139642856Y-112285552D02*
X139595237Y-112095076D01*
X139595237Y-112095076D02*
X139499999Y-111999838D01*
X139499999Y-111999838D02*
X139404761Y-111952219D01*
X138547618Y-112952219D02*
X138547618Y-111952219D01*
X138547618Y-111952219D02*
X137976190Y-112952219D01*
X137976190Y-112952219D02*
X137976190Y-111952219D01*
X137547618Y-112666504D02*
X137071428Y-112666504D01*
X137642856Y-112952219D02*
X137309523Y-111952219D01*
X137309523Y-111952219D02*
X136976190Y-112952219D01*
X136166666Y-112952219D02*
X136642856Y-112952219D01*
X136642856Y-112952219D02*
X136642856Y-111952219D01*
D11*
X159877506Y-109869819D02*
X159877506Y-110584104D01*
X159877506Y-110584104D02*
X159925125Y-110726961D01*
X159925125Y-110726961D02*
X160020363Y-110822200D01*
X160020363Y-110822200D02*
X160163220Y-110869819D01*
X160163220Y-110869819D02*
X160258458Y-110869819D01*
X158925125Y-110869819D02*
X159401315Y-110869819D01*
X159401315Y-110869819D02*
X159401315Y-109869819D01*
X158020363Y-110774580D02*
X158067982Y-110822200D01*
X158067982Y-110822200D02*
X158210839Y-110869819D01*
X158210839Y-110869819D02*
X158306077Y-110869819D01*
X158306077Y-110869819D02*
X158448934Y-110822200D01*
X158448934Y-110822200D02*
X158544172Y-110726961D01*
X158544172Y-110726961D02*
X158591791Y-110631723D01*
X158591791Y-110631723D02*
X158639410Y-110441247D01*
X158639410Y-110441247D02*
X158639410Y-110298390D01*
X158639410Y-110298390D02*
X158591791Y-110107914D01*
X158591791Y-110107914D02*
X158544172Y-110012676D01*
X158544172Y-110012676D02*
X158448934Y-109917438D01*
X158448934Y-109917438D02*
X158306077Y-109869819D01*
X158306077Y-109869819D02*
X158210839Y-109869819D01*
X158210839Y-109869819D02*
X158067982Y-109917438D01*
X158067982Y-109917438D02*
X158020363Y-109965057D01*
X157306077Y-109869819D02*
X157306077Y-110584104D01*
X157306077Y-110584104D02*
X157353696Y-110726961D01*
X157353696Y-110726961D02*
X157448934Y-110822200D01*
X157448934Y-110822200D02*
X157591791Y-110869819D01*
X157591791Y-110869819D02*
X157687029Y-110869819D01*
X156353696Y-110869819D02*
X156829886Y-110869819D01*
X156829886Y-110869819D02*
X156829886Y-109869819D01*
X155448934Y-110774580D02*
X155496553Y-110822200D01*
X155496553Y-110822200D02*
X155639410Y-110869819D01*
X155639410Y-110869819D02*
X155734648Y-110869819D01*
X155734648Y-110869819D02*
X155877505Y-110822200D01*
X155877505Y-110822200D02*
X155972743Y-110726961D01*
X155972743Y-110726961D02*
X156020362Y-110631723D01*
X156020362Y-110631723D02*
X156067981Y-110441247D01*
X156067981Y-110441247D02*
X156067981Y-110298390D01*
X156067981Y-110298390D02*
X156020362Y-110107914D01*
X156020362Y-110107914D02*
X155972743Y-110012676D01*
X155972743Y-110012676D02*
X155877505Y-109917438D01*
X155877505Y-109917438D02*
X155734648Y-109869819D01*
X155734648Y-109869819D02*
X155639410Y-109869819D01*
X155639410Y-109869819D02*
X155496553Y-109917438D01*
X155496553Y-109917438D02*
X155448934Y-109965057D01*
X154734648Y-109869819D02*
X154734648Y-110584104D01*
X154734648Y-110584104D02*
X154782267Y-110726961D01*
X154782267Y-110726961D02*
X154877505Y-110822200D01*
X154877505Y-110822200D02*
X155020362Y-110869819D01*
X155020362Y-110869819D02*
X155115600Y-110869819D01*
X153782267Y-110869819D02*
X154258457Y-110869819D01*
X154258457Y-110869819D02*
X154258457Y-109869819D01*
X152877505Y-110774580D02*
X152925124Y-110822200D01*
X152925124Y-110822200D02*
X153067981Y-110869819D01*
X153067981Y-110869819D02*
X153163219Y-110869819D01*
X153163219Y-110869819D02*
X153306076Y-110822200D01*
X153306076Y-110822200D02*
X153401314Y-110726961D01*
X153401314Y-110726961D02*
X153448933Y-110631723D01*
X153448933Y-110631723D02*
X153496552Y-110441247D01*
X153496552Y-110441247D02*
X153496552Y-110298390D01*
X153496552Y-110298390D02*
X153448933Y-110107914D01*
X153448933Y-110107914D02*
X153401314Y-110012676D01*
X153401314Y-110012676D02*
X153306076Y-109917438D01*
X153306076Y-109917438D02*
X153163219Y-109869819D01*
X153163219Y-109869819D02*
X153067981Y-109869819D01*
X153067981Y-109869819D02*
X152925124Y-109917438D01*
X152925124Y-109917438D02*
X152877505Y-109965057D01*
X152163219Y-109869819D02*
X152163219Y-110584104D01*
X152163219Y-110584104D02*
X152210838Y-110726961D01*
X152210838Y-110726961D02*
X152306076Y-110822200D01*
X152306076Y-110822200D02*
X152448933Y-110869819D01*
X152448933Y-110869819D02*
X152544171Y-110869819D01*
X151210838Y-110869819D02*
X151687028Y-110869819D01*
X151687028Y-110869819D02*
X151687028Y-109869819D01*
X150306076Y-110774580D02*
X150353695Y-110822200D01*
X150353695Y-110822200D02*
X150496552Y-110869819D01*
X150496552Y-110869819D02*
X150591790Y-110869819D01*
X150591790Y-110869819D02*
X150734647Y-110822200D01*
X150734647Y-110822200D02*
X150829885Y-110726961D01*
X150829885Y-110726961D02*
X150877504Y-110631723D01*
X150877504Y-110631723D02*
X150925123Y-110441247D01*
X150925123Y-110441247D02*
X150925123Y-110298390D01*
X150925123Y-110298390D02*
X150877504Y-110107914D01*
X150877504Y-110107914D02*
X150829885Y-110012676D01*
X150829885Y-110012676D02*
X150734647Y-109917438D01*
X150734647Y-109917438D02*
X150591790Y-109869819D01*
X150591790Y-109869819D02*
X150496552Y-109869819D01*
X150496552Y-109869819D02*
X150353695Y-109917438D01*
X150353695Y-109917438D02*
X150306076Y-109965057D01*
X136890476Y-106104819D02*
X137461904Y-106104819D01*
X137176190Y-106104819D02*
X137176190Y-105104819D01*
X137176190Y-105104819D02*
X137271428Y-105247676D01*
X137271428Y-105247676D02*
X137366666Y-105342914D01*
X137366666Y-105342914D02*
X137461904Y-105390533D01*
X136271428Y-105104819D02*
X136176190Y-105104819D01*
X136176190Y-105104819D02*
X136080952Y-105152438D01*
X136080952Y-105152438D02*
X136033333Y-105200057D01*
X136033333Y-105200057D02*
X135985714Y-105295295D01*
X135985714Y-105295295D02*
X135938095Y-105485771D01*
X135938095Y-105485771D02*
X135938095Y-105723866D01*
X135938095Y-105723866D02*
X135985714Y-105914342D01*
X135985714Y-105914342D02*
X136033333Y-106009580D01*
X136033333Y-106009580D02*
X136080952Y-106057200D01*
X136080952Y-106057200D02*
X136176190Y-106104819D01*
X136176190Y-106104819D02*
X136271428Y-106104819D01*
X136271428Y-106104819D02*
X136366666Y-106057200D01*
X136366666Y-106057200D02*
X136414285Y-106009580D01*
X136414285Y-106009580D02*
X136461904Y-105914342D01*
X136461904Y-105914342D02*
X136509523Y-105723866D01*
X136509523Y-105723866D02*
X136509523Y-105485771D01*
X136509523Y-105485771D02*
X136461904Y-105295295D01*
X136461904Y-105295295D02*
X136414285Y-105200057D01*
X136414285Y-105200057D02*
X136366666Y-105152438D01*
X136366666Y-105152438D02*
X136271428Y-105104819D01*
X135509523Y-106104819D02*
X135509523Y-105104819D01*
X134938095Y-106104819D02*
X135366666Y-105533390D01*
X134938095Y-105104819D02*
X135509523Y-105676247D01*
X168476190Y-106669104D02*
X168000000Y-106669104D01*
X168571428Y-106954819D02*
X168238095Y-105954819D01*
X168238095Y-105954819D02*
X167904762Y-106954819D01*
X167714285Y-105954819D02*
X167142857Y-105954819D01*
X167428571Y-106954819D02*
X167428571Y-105954819D01*
X166952380Y-106288152D02*
X166571428Y-106288152D01*
X166809523Y-105954819D02*
X166809523Y-106811961D01*
X166809523Y-106811961D02*
X166761904Y-106907200D01*
X166761904Y-106907200D02*
X166666666Y-106954819D01*
X166666666Y-106954819D02*
X166571428Y-106954819D01*
X166238094Y-106954819D02*
X166238094Y-106288152D01*
X166238094Y-105954819D02*
X166285713Y-106002438D01*
X166285713Y-106002438D02*
X166238094Y-106050057D01*
X166238094Y-106050057D02*
X166190475Y-106002438D01*
X166190475Y-106002438D02*
X166238094Y-105954819D01*
X166238094Y-105954819D02*
X166238094Y-106050057D01*
X165761904Y-106288152D02*
X165761904Y-106954819D01*
X165761904Y-106383390D02*
X165714285Y-106335771D01*
X165714285Y-106335771D02*
X165619047Y-106288152D01*
X165619047Y-106288152D02*
X165476190Y-106288152D01*
X165476190Y-106288152D02*
X165380952Y-106335771D01*
X165380952Y-106335771D02*
X165333333Y-106431009D01*
X165333333Y-106431009D02*
X165333333Y-106954819D01*
X164952380Y-106288152D02*
X164714285Y-106954819D01*
X164476190Y-106288152D02*
X164714285Y-106954819D01*
X164714285Y-106954819D02*
X164809523Y-107192914D01*
X164809523Y-107192914D02*
X164857142Y-107240533D01*
X164857142Y-107240533D02*
X164952380Y-107288152D01*
X163666666Y-106288152D02*
X163666666Y-106954819D01*
X163904761Y-105907200D02*
X164142856Y-106621485D01*
X164142856Y-106621485D02*
X163523809Y-106621485D01*
X163190475Y-106050057D02*
X163142856Y-106002438D01*
X163142856Y-106002438D02*
X163047618Y-105954819D01*
X163047618Y-105954819D02*
X162809523Y-105954819D01*
X162809523Y-105954819D02*
X162714285Y-106002438D01*
X162714285Y-106002438D02*
X162666666Y-106050057D01*
X162666666Y-106050057D02*
X162619047Y-106145295D01*
X162619047Y-106145295D02*
X162619047Y-106240533D01*
X162619047Y-106240533D02*
X162666666Y-106383390D01*
X162666666Y-106383390D02*
X163238094Y-106954819D01*
X163238094Y-106954819D02*
X162619047Y-106954819D01*
X161761904Y-106288152D02*
X161761904Y-106954819D01*
X161999999Y-105907200D02*
X162238094Y-106621485D01*
X162238094Y-106621485D02*
X161619047Y-106621485D01*
X161238094Y-106573866D02*
X160476190Y-106573866D01*
X160047618Y-106907200D02*
X159904761Y-106954819D01*
X159904761Y-106954819D02*
X159666666Y-106954819D01*
X159666666Y-106954819D02*
X159571428Y-106907200D01*
X159571428Y-106907200D02*
X159523809Y-106859580D01*
X159523809Y-106859580D02*
X159476190Y-106764342D01*
X159476190Y-106764342D02*
X159476190Y-106669104D01*
X159476190Y-106669104D02*
X159523809Y-106573866D01*
X159523809Y-106573866D02*
X159571428Y-106526247D01*
X159571428Y-106526247D02*
X159666666Y-106478628D01*
X159666666Y-106478628D02*
X159857142Y-106431009D01*
X159857142Y-106431009D02*
X159952380Y-106383390D01*
X159952380Y-106383390D02*
X159999999Y-106335771D01*
X159999999Y-106335771D02*
X160047618Y-106240533D01*
X160047618Y-106240533D02*
X160047618Y-106145295D01*
X160047618Y-106145295D02*
X159999999Y-106050057D01*
X159999999Y-106050057D02*
X159952380Y-106002438D01*
X159952380Y-106002438D02*
X159857142Y-105954819D01*
X159857142Y-105954819D02*
X159619047Y-105954819D01*
X159619047Y-105954819D02*
X159476190Y-106002438D01*
X159095237Y-106907200D02*
X158952380Y-106954819D01*
X158952380Y-106954819D02*
X158714285Y-106954819D01*
X158714285Y-106954819D02*
X158619047Y-106907200D01*
X158619047Y-106907200D02*
X158571428Y-106859580D01*
X158571428Y-106859580D02*
X158523809Y-106764342D01*
X158523809Y-106764342D02*
X158523809Y-106669104D01*
X158523809Y-106669104D02*
X158571428Y-106573866D01*
X158571428Y-106573866D02*
X158619047Y-106526247D01*
X158619047Y-106526247D02*
X158714285Y-106478628D01*
X158714285Y-106478628D02*
X158904761Y-106431009D01*
X158904761Y-106431009D02*
X158999999Y-106383390D01*
X158999999Y-106383390D02*
X159047618Y-106335771D01*
X159047618Y-106335771D02*
X159095237Y-106240533D01*
X159095237Y-106240533D02*
X159095237Y-106145295D01*
X159095237Y-106145295D02*
X159047618Y-106050057D01*
X159047618Y-106050057D02*
X158999999Y-106002438D01*
X158999999Y-106002438D02*
X158904761Y-105954819D01*
X158904761Y-105954819D02*
X158666666Y-105954819D01*
X158666666Y-105954819D02*
X158523809Y-106002438D01*
X136915476Y-97004819D02*
X137486904Y-97004819D01*
X137201190Y-97004819D02*
X137201190Y-96004819D01*
X137201190Y-96004819D02*
X137296428Y-96147676D01*
X137296428Y-96147676D02*
X137391666Y-96242914D01*
X137391666Y-96242914D02*
X137486904Y-96290533D01*
X136296428Y-96004819D02*
X136201190Y-96004819D01*
X136201190Y-96004819D02*
X136105952Y-96052438D01*
X136105952Y-96052438D02*
X136058333Y-96100057D01*
X136058333Y-96100057D02*
X136010714Y-96195295D01*
X136010714Y-96195295D02*
X135963095Y-96385771D01*
X135963095Y-96385771D02*
X135963095Y-96623866D01*
X135963095Y-96623866D02*
X136010714Y-96814342D01*
X136010714Y-96814342D02*
X136058333Y-96909580D01*
X136058333Y-96909580D02*
X136105952Y-96957200D01*
X136105952Y-96957200D02*
X136201190Y-97004819D01*
X136201190Y-97004819D02*
X136296428Y-97004819D01*
X136296428Y-97004819D02*
X136391666Y-96957200D01*
X136391666Y-96957200D02*
X136439285Y-96909580D01*
X136439285Y-96909580D02*
X136486904Y-96814342D01*
X136486904Y-96814342D02*
X136534523Y-96623866D01*
X136534523Y-96623866D02*
X136534523Y-96385771D01*
X136534523Y-96385771D02*
X136486904Y-96195295D01*
X136486904Y-96195295D02*
X136439285Y-96100057D01*
X136439285Y-96100057D02*
X136391666Y-96052438D01*
X136391666Y-96052438D02*
X136296428Y-96004819D01*
X135534523Y-97004819D02*
X135534523Y-96004819D01*
X134963095Y-97004819D02*
X135391666Y-96433390D01*
X134963095Y-96004819D02*
X135534523Y-96576247D01*
X132329819Y-99930952D02*
X132329819Y-99359524D01*
X132329819Y-99645238D02*
X131329819Y-99645238D01*
X131329819Y-99645238D02*
X131472676Y-99550000D01*
X131472676Y-99550000D02*
X131567914Y-99454762D01*
X131567914Y-99454762D02*
X131615533Y-99359524D01*
X131329819Y-100550000D02*
X131329819Y-100645238D01*
X131329819Y-100645238D02*
X131377438Y-100740476D01*
X131377438Y-100740476D02*
X131425057Y-100788095D01*
X131425057Y-100788095D02*
X131520295Y-100835714D01*
X131520295Y-100835714D02*
X131710771Y-100883333D01*
X131710771Y-100883333D02*
X131948866Y-100883333D01*
X131948866Y-100883333D02*
X132139342Y-100835714D01*
X132139342Y-100835714D02*
X132234580Y-100788095D01*
X132234580Y-100788095D02*
X132282200Y-100740476D01*
X132282200Y-100740476D02*
X132329819Y-100645238D01*
X132329819Y-100645238D02*
X132329819Y-100550000D01*
X132329819Y-100550000D02*
X132282200Y-100454762D01*
X132282200Y-100454762D02*
X132234580Y-100407143D01*
X132234580Y-100407143D02*
X132139342Y-100359524D01*
X132139342Y-100359524D02*
X131948866Y-100311905D01*
X131948866Y-100311905D02*
X131710771Y-100311905D01*
X131710771Y-100311905D02*
X131520295Y-100359524D01*
X131520295Y-100359524D02*
X131425057Y-100407143D01*
X131425057Y-100407143D02*
X131377438Y-100454762D01*
X131377438Y-100454762D02*
X131329819Y-100550000D01*
X131329819Y-101502381D02*
X131329819Y-101597619D01*
X131329819Y-101597619D02*
X131377438Y-101692857D01*
X131377438Y-101692857D02*
X131425057Y-101740476D01*
X131425057Y-101740476D02*
X131520295Y-101788095D01*
X131520295Y-101788095D02*
X131710771Y-101835714D01*
X131710771Y-101835714D02*
X131948866Y-101835714D01*
X131948866Y-101835714D02*
X132139342Y-101788095D01*
X132139342Y-101788095D02*
X132234580Y-101740476D01*
X132234580Y-101740476D02*
X132282200Y-101692857D01*
X132282200Y-101692857D02*
X132329819Y-101597619D01*
X132329819Y-101597619D02*
X132329819Y-101502381D01*
X132329819Y-101502381D02*
X132282200Y-101407143D01*
X132282200Y-101407143D02*
X132234580Y-101359524D01*
X132234580Y-101359524D02*
X132139342Y-101311905D01*
X132139342Y-101311905D02*
X131948866Y-101264286D01*
X131948866Y-101264286D02*
X131710771Y-101264286D01*
X131710771Y-101264286D02*
X131520295Y-101311905D01*
X131520295Y-101311905D02*
X131425057Y-101359524D01*
X131425057Y-101359524D02*
X131377438Y-101407143D01*
X131377438Y-101407143D02*
X131329819Y-101502381D01*
X131663152Y-102264286D02*
X132329819Y-102264286D01*
X131758390Y-102264286D02*
X131710771Y-102311905D01*
X131710771Y-102311905D02*
X131663152Y-102407143D01*
X131663152Y-102407143D02*
X131663152Y-102550000D01*
X131663152Y-102550000D02*
X131710771Y-102645238D01*
X131710771Y-102645238D02*
X131806009Y-102692857D01*
X131806009Y-102692857D02*
X132329819Y-102692857D01*
X152166666Y-95404819D02*
X152166666Y-94404819D01*
X151738095Y-95357200D02*
X151595238Y-95404819D01*
X151595238Y-95404819D02*
X151357143Y-95404819D01*
X151357143Y-95404819D02*
X151261905Y-95357200D01*
X151261905Y-95357200D02*
X151214286Y-95309580D01*
X151214286Y-95309580D02*
X151166667Y-95214342D01*
X151166667Y-95214342D02*
X151166667Y-95119104D01*
X151166667Y-95119104D02*
X151214286Y-95023866D01*
X151214286Y-95023866D02*
X151261905Y-94976247D01*
X151261905Y-94976247D02*
X151357143Y-94928628D01*
X151357143Y-94928628D02*
X151547619Y-94881009D01*
X151547619Y-94881009D02*
X151642857Y-94833390D01*
X151642857Y-94833390D02*
X151690476Y-94785771D01*
X151690476Y-94785771D02*
X151738095Y-94690533D01*
X151738095Y-94690533D02*
X151738095Y-94595295D01*
X151738095Y-94595295D02*
X151690476Y-94500057D01*
X151690476Y-94500057D02*
X151642857Y-94452438D01*
X151642857Y-94452438D02*
X151547619Y-94404819D01*
X151547619Y-94404819D02*
X151309524Y-94404819D01*
X151309524Y-94404819D02*
X151166667Y-94452438D01*
X150833333Y-94404819D02*
X150214286Y-94404819D01*
X150214286Y-94404819D02*
X150547619Y-94785771D01*
X150547619Y-94785771D02*
X150404762Y-94785771D01*
X150404762Y-94785771D02*
X150309524Y-94833390D01*
X150309524Y-94833390D02*
X150261905Y-94881009D01*
X150261905Y-94881009D02*
X150214286Y-94976247D01*
X150214286Y-94976247D02*
X150214286Y-95214342D01*
X150214286Y-95214342D02*
X150261905Y-95309580D01*
X150261905Y-95309580D02*
X150309524Y-95357200D01*
X150309524Y-95357200D02*
X150404762Y-95404819D01*
X150404762Y-95404819D02*
X150690476Y-95404819D01*
X150690476Y-95404819D02*
X150785714Y-95357200D01*
X150785714Y-95357200D02*
X150833333Y-95309580D01*
X149261905Y-95404819D02*
X149833333Y-95404819D01*
X149547619Y-95404819D02*
X149547619Y-94404819D01*
X149547619Y-94404819D02*
X149642857Y-94547676D01*
X149642857Y-94547676D02*
X149738095Y-94642914D01*
X149738095Y-94642914D02*
X149833333Y-94690533D01*
X148500000Y-94881009D02*
X148833333Y-94881009D01*
X148833333Y-95404819D02*
X148833333Y-94404819D01*
X148833333Y-94404819D02*
X148357143Y-94404819D01*
X147500000Y-95404819D02*
X147976190Y-95404819D01*
X147976190Y-95404819D02*
X147976190Y-94404819D01*
X147261904Y-94404819D02*
X146642857Y-94404819D01*
X146642857Y-94404819D02*
X146976190Y-94785771D01*
X146976190Y-94785771D02*
X146833333Y-94785771D01*
X146833333Y-94785771D02*
X146738095Y-94833390D01*
X146738095Y-94833390D02*
X146690476Y-94881009D01*
X146690476Y-94881009D02*
X146642857Y-94976247D01*
X146642857Y-94976247D02*
X146642857Y-95214342D01*
X146642857Y-95214342D02*
X146690476Y-95309580D01*
X146690476Y-95309580D02*
X146738095Y-95357200D01*
X146738095Y-95357200D02*
X146833333Y-95404819D01*
X146833333Y-95404819D02*
X147119047Y-95404819D01*
X147119047Y-95404819D02*
X147214285Y-95357200D01*
X147214285Y-95357200D02*
X147261904Y-95309580D01*
X146309523Y-94404819D02*
X145642857Y-94404819D01*
X145642857Y-94404819D02*
X146071428Y-95404819D01*
X145309523Y-94500057D02*
X145261904Y-94452438D01*
X145261904Y-94452438D02*
X145166666Y-94404819D01*
X145166666Y-94404819D02*
X144928571Y-94404819D01*
X144928571Y-94404819D02*
X144833333Y-94452438D01*
X144833333Y-94452438D02*
X144785714Y-94500057D01*
X144785714Y-94500057D02*
X144738095Y-94595295D01*
X144738095Y-94595295D02*
X144738095Y-94690533D01*
X144738095Y-94690533D02*
X144785714Y-94833390D01*
X144785714Y-94833390D02*
X145357142Y-95404819D01*
X145357142Y-95404819D02*
X144738095Y-95404819D01*
X144261904Y-95404819D02*
X144071428Y-95404819D01*
X144071428Y-95404819D02*
X143976190Y-95357200D01*
X143976190Y-95357200D02*
X143928571Y-95309580D01*
X143928571Y-95309580D02*
X143833333Y-95166723D01*
X143833333Y-95166723D02*
X143785714Y-94976247D01*
X143785714Y-94976247D02*
X143785714Y-94595295D01*
X143785714Y-94595295D02*
X143833333Y-94500057D01*
X143833333Y-94500057D02*
X143880952Y-94452438D01*
X143880952Y-94452438D02*
X143976190Y-94404819D01*
X143976190Y-94404819D02*
X144166666Y-94404819D01*
X144166666Y-94404819D02*
X144261904Y-94452438D01*
X144261904Y-94452438D02*
X144309523Y-94500057D01*
X144309523Y-94500057D02*
X144357142Y-94595295D01*
X144357142Y-94595295D02*
X144357142Y-94833390D01*
X144357142Y-94833390D02*
X144309523Y-94928628D01*
X144309523Y-94928628D02*
X144261904Y-94976247D01*
X144261904Y-94976247D02*
X144166666Y-95023866D01*
X144166666Y-95023866D02*
X143976190Y-95023866D01*
X143976190Y-95023866D02*
X143880952Y-94976247D01*
X143880952Y-94976247D02*
X143833333Y-94928628D01*
X143833333Y-94928628D02*
X143785714Y-94833390D01*
X138070180Y-105288095D02*
X138546371Y-105621428D01*
X138070180Y-105859523D02*
X139070180Y-105859523D01*
X139070180Y-105859523D02*
X139070180Y-105478571D01*
X139070180Y-105478571D02*
X139022561Y-105383333D01*
X139022561Y-105383333D02*
X138974942Y-105335714D01*
X138974942Y-105335714D02*
X138879704Y-105288095D01*
X138879704Y-105288095D02*
X138736847Y-105288095D01*
X138736847Y-105288095D02*
X138641609Y-105335714D01*
X138641609Y-105335714D02*
X138593990Y-105383333D01*
X138593990Y-105383333D02*
X138546371Y-105478571D01*
X138546371Y-105478571D02*
X138546371Y-105859523D01*
X139070180Y-105002380D02*
X138070180Y-104669047D01*
X138070180Y-104669047D02*
X139070180Y-104335714D01*
X138451133Y-104002380D02*
X138451133Y-103240476D01*
X139070180Y-102859523D02*
X139070180Y-102240476D01*
X139070180Y-102240476D02*
X138689228Y-102573809D01*
X138689228Y-102573809D02*
X138689228Y-102430952D01*
X138689228Y-102430952D02*
X138641609Y-102335714D01*
X138641609Y-102335714D02*
X138593990Y-102288095D01*
X138593990Y-102288095D02*
X138498752Y-102240476D01*
X138498752Y-102240476D02*
X138260657Y-102240476D01*
X138260657Y-102240476D02*
X138165419Y-102288095D01*
X138165419Y-102288095D02*
X138117800Y-102335714D01*
X138117800Y-102335714D02*
X138070180Y-102430952D01*
X138070180Y-102430952D02*
X138070180Y-102716666D01*
X138070180Y-102716666D02*
X138117800Y-102811904D01*
X138117800Y-102811904D02*
X138165419Y-102859523D01*
X139070180Y-101621428D02*
X139070180Y-101526190D01*
X139070180Y-101526190D02*
X139022561Y-101430952D01*
X139022561Y-101430952D02*
X138974942Y-101383333D01*
X138974942Y-101383333D02*
X138879704Y-101335714D01*
X138879704Y-101335714D02*
X138689228Y-101288095D01*
X138689228Y-101288095D02*
X138451133Y-101288095D01*
X138451133Y-101288095D02*
X138260657Y-101335714D01*
X138260657Y-101335714D02*
X138165419Y-101383333D01*
X138165419Y-101383333D02*
X138117800Y-101430952D01*
X138117800Y-101430952D02*
X138070180Y-101526190D01*
X138070180Y-101526190D02*
X138070180Y-101621428D01*
X138070180Y-101621428D02*
X138117800Y-101716666D01*
X138117800Y-101716666D02*
X138165419Y-101764285D01*
X138165419Y-101764285D02*
X138260657Y-101811904D01*
X138260657Y-101811904D02*
X138451133Y-101859523D01*
X138451133Y-101859523D02*
X138689228Y-101859523D01*
X138689228Y-101859523D02*
X138879704Y-101811904D01*
X138879704Y-101811904D02*
X138974942Y-101764285D01*
X138974942Y-101764285D02*
X139022561Y-101716666D01*
X139022561Y-101716666D02*
X139070180Y-101621428D01*
X138974942Y-100907142D02*
X139022561Y-100859523D01*
X139022561Y-100859523D02*
X139070180Y-100764285D01*
X139070180Y-100764285D02*
X139070180Y-100526190D01*
X139070180Y-100526190D02*
X139022561Y-100430952D01*
X139022561Y-100430952D02*
X138974942Y-100383333D01*
X138974942Y-100383333D02*
X138879704Y-100335714D01*
X138879704Y-100335714D02*
X138784466Y-100335714D01*
X138784466Y-100335714D02*
X138641609Y-100383333D01*
X138641609Y-100383333D02*
X138070180Y-100954761D01*
X138070180Y-100954761D02*
X138070180Y-100335714D01*
X138641609Y-99764285D02*
X138689228Y-99859523D01*
X138689228Y-99859523D02*
X138736847Y-99907142D01*
X138736847Y-99907142D02*
X138832085Y-99954761D01*
X138832085Y-99954761D02*
X138879704Y-99954761D01*
X138879704Y-99954761D02*
X138974942Y-99907142D01*
X138974942Y-99907142D02*
X139022561Y-99859523D01*
X139022561Y-99859523D02*
X139070180Y-99764285D01*
X139070180Y-99764285D02*
X139070180Y-99573809D01*
X139070180Y-99573809D02*
X139022561Y-99478571D01*
X139022561Y-99478571D02*
X138974942Y-99430952D01*
X138974942Y-99430952D02*
X138879704Y-99383333D01*
X138879704Y-99383333D02*
X138832085Y-99383333D01*
X138832085Y-99383333D02*
X138736847Y-99430952D01*
X138736847Y-99430952D02*
X138689228Y-99478571D01*
X138689228Y-99478571D02*
X138641609Y-99573809D01*
X138641609Y-99573809D02*
X138641609Y-99764285D01*
X138641609Y-99764285D02*
X138593990Y-99859523D01*
X138593990Y-99859523D02*
X138546371Y-99907142D01*
X138546371Y-99907142D02*
X138451133Y-99954761D01*
X138451133Y-99954761D02*
X138260657Y-99954761D01*
X138260657Y-99954761D02*
X138165419Y-99907142D01*
X138165419Y-99907142D02*
X138117800Y-99859523D01*
X138117800Y-99859523D02*
X138070180Y-99764285D01*
X138070180Y-99764285D02*
X138070180Y-99573809D01*
X138070180Y-99573809D02*
X138117800Y-99478571D01*
X138117800Y-99478571D02*
X138165419Y-99430952D01*
X138165419Y-99430952D02*
X138260657Y-99383333D01*
X138260657Y-99383333D02*
X138451133Y-99383333D01*
X138451133Y-99383333D02*
X138546371Y-99430952D01*
X138546371Y-99430952D02*
X138593990Y-99478571D01*
X138593990Y-99478571D02*
X138641609Y-99573809D01*
X138451133Y-98954761D02*
X138451133Y-98192857D01*
X138165419Y-97145238D02*
X138117800Y-97192857D01*
X138117800Y-97192857D02*
X138070180Y-97335714D01*
X138070180Y-97335714D02*
X138070180Y-97430952D01*
X138070180Y-97430952D02*
X138117800Y-97573809D01*
X138117800Y-97573809D02*
X138213038Y-97669047D01*
X138213038Y-97669047D02*
X138308276Y-97716666D01*
X138308276Y-97716666D02*
X138498752Y-97764285D01*
X138498752Y-97764285D02*
X138641609Y-97764285D01*
X138641609Y-97764285D02*
X138832085Y-97716666D01*
X138832085Y-97716666D02*
X138927323Y-97669047D01*
X138927323Y-97669047D02*
X139022561Y-97573809D01*
X139022561Y-97573809D02*
X139070180Y-97430952D01*
X139070180Y-97430952D02*
X139070180Y-97335714D01*
X139070180Y-97335714D02*
X139022561Y-97192857D01*
X139022561Y-97192857D02*
X138974942Y-97145238D01*
X139070180Y-96811904D02*
X139070180Y-96145238D01*
X139070180Y-96145238D02*
X138070180Y-96573809D01*
D12*
%TO.C,R1*%
X136462258Y-103627500D02*
X135987742Y-103627500D01*
X136462258Y-104672500D02*
X135987742Y-104672500D01*
%TO.C,U8*%
X165025000Y-96565000D02*
X168475000Y-96565000D01*
X165025000Y-96565000D02*
X163075000Y-96565000D01*
X165025000Y-105435000D02*
X166975000Y-105435000D01*
X165025000Y-105435000D02*
X163075000Y-105435000D01*
%TO.C,R2*%
X136462258Y-97427500D02*
X135987742Y-97427500D01*
X136462258Y-98472500D02*
X135987742Y-98472500D01*
%TO.C,C1*%
X133910000Y-101190580D02*
X133910000Y-100909420D01*
X132890000Y-101190580D02*
X132890000Y-100909420D01*
D11*
%TO.C,U7*%
X144375000Y-104625000D02*
X144375000Y-104400000D01*
X144375000Y-104625000D02*
X144700000Y-104625000D01*
X144375000Y-104400000D02*
X142950000Y-104400000D01*
X144375000Y-97375000D02*
X144375000Y-97700000D01*
X144375000Y-97375000D02*
X144700000Y-97375000D01*
X151625000Y-104625000D02*
X151300000Y-104625000D01*
X151625000Y-104625000D02*
X151625000Y-104300000D01*
X151625000Y-97375000D02*
X151300000Y-97375000D01*
X151625000Y-97375000D02*
X151625000Y-97700000D01*
D12*
%TO.C,X1*%
X135625000Y-99250000D02*
X137425000Y-99250000D01*
X135625000Y-102850000D02*
X136825000Y-102850000D01*
X138025000Y-98850000D02*
G75*
G03*
X138025000Y-98850000I-200000J0D01*
G01*
%TD*%
M02*
