%TF.GenerationSoftware,KiCad,Pcbnew,7.0.8*%
%TF.CreationDate,2024-05-11T17:50:23+02:00*%
%TF.ProjectId,Heptachron,48657074-6163-4687-926f-6e2e6b696361,rev?*%
%TF.SameCoordinates,Original*%
%TF.FileFunction,Soldermask,Bot*%
%TF.FilePolarity,Negative*%
%FSLAX46Y46*%
G04 Gerber Fmt 4.6, Leading zero omitted, Abs format (unit mm)*
G04 Created by KiCad (PCBNEW 7.0.8) date 2024-05-11 17:50:23*
%MOMM*%
%LPD*%
G01*
G04 APERTURE LIST*
G04 Aperture macros list*
%AMRoundRect*
0 Rectangle with rounded corners*
0 $1 Rounding radius*
0 $2 $3 $4 $5 $6 $7 $8 $9 X,Y pos of 4 corners*
0 Add a 4 corners polygon primitive as box body*
4,1,4,$2,$3,$4,$5,$6,$7,$8,$9,$2,$3,0*
0 Add four circle primitives for the rounded corners*
1,1,$1+$1,$2,$3*
1,1,$1+$1,$4,$5*
1,1,$1+$1,$6,$7*
1,1,$1+$1,$8,$9*
0 Add four rect primitives between the rounded corners*
20,1,$1+$1,$2,$3,$4,$5,0*
20,1,$1+$1,$4,$5,$6,$7,0*
20,1,$1+$1,$6,$7,$8,$9,0*
20,1,$1+$1,$8,$9,$2,$3,0*%
G04 Aperture macros list end*
%ADD10C,0.756419*%
%ADD11C,2.750000*%
%ADD12RoundRect,0.250000X0.250000X0.475000X-0.250000X0.475000X-0.250000X-0.475000X0.250000X-0.475000X0*%
%ADD13RoundRect,0.250000X0.750000X-0.250000X0.750000X0.250000X-0.750000X0.250000X-0.750000X-0.250000X0*%
%ADD14RoundRect,0.150000X0.825000X0.150000X-0.825000X0.150000X-0.825000X-0.150000X0.825000X-0.150000X0*%
%ADD15RoundRect,0.250000X-0.750000X0.250000X-0.750000X-0.250000X0.750000X-0.250000X0.750000X0.250000X0*%
%ADD16RoundRect,0.200000X0.200000X0.275000X-0.200000X0.275000X-0.200000X-0.275000X0.200000X-0.275000X0*%
%ADD17R,1.600000X0.550000*%
%ADD18R,0.550000X1.600000*%
%ADD19RoundRect,0.225000X0.225000X0.250000X-0.225000X0.250000X-0.225000X-0.250000X0.225000X-0.250000X0*%
%ADD20RoundRect,0.200000X-0.200000X-0.275000X0.200000X-0.275000X0.200000X0.275000X-0.200000X0.275000X0*%
%ADD21RoundRect,0.200000X0.275000X-0.200000X0.275000X0.200000X-0.275000X0.200000X-0.275000X-0.200000X0*%
G04 APERTURE END LIST*
%TO.C,SW1*%
D10*
X128378209Y-96828581D02*
G75*
G03*
X128378209Y-96828581I-378209J0D01*
G01*
X128378209Y-93175000D02*
G75*
G03*
X128378209Y-93175000I-378209J0D01*
G01*
%TO.C,SW2*%
X128378209Y-108828581D02*
G75*
G03*
X128378209Y-108828581I-378209J0D01*
G01*
X128378209Y-105175000D02*
G75*
G03*
X128378209Y-105175000I-378209J0D01*
G01*
%TD*%
D11*
%TO.C,H1*%
X164000000Y-109000000D03*
%TD*%
%TO.C,H4*%
X132000000Y-93000000D03*
%TD*%
%TO.C,H3*%
X132000000Y-109000000D03*
%TD*%
%TO.C,H2*%
X164000000Y-93000000D03*
%TD*%
D12*
%TO.C,C10*%
X158035000Y-89865000D03*
X159935000Y-89865000D03*
%TD*%
D13*
%TO.C,J3*%
X159400000Y-106750000D03*
%TD*%
D14*
%TO.C,U8*%
X167250000Y-97190000D03*
X167250000Y-98460000D03*
X167250000Y-99730000D03*
X167250000Y-101000000D03*
X167250000Y-102270000D03*
X167250000Y-103540000D03*
X167250000Y-104810000D03*
X162300000Y-104810000D03*
X162300000Y-103540000D03*
X162300000Y-102270000D03*
X162300000Y-101000000D03*
X162300000Y-99730000D03*
X162300000Y-98460000D03*
X162300000Y-97190000D03*
%TD*%
D15*
%TO.C,J5*%
X152570000Y-93559338D03*
%TD*%
D13*
%TO.C,J2*%
X159400000Y-112000000D03*
%TD*%
D16*
%TO.C,R14*%
X163951078Y-111895000D03*
X165601078Y-111895000D03*
%TD*%
D17*
%TO.C,U7*%
X152250000Y-98200000D03*
X152250000Y-99000000D03*
X152250000Y-99800000D03*
X152250000Y-100600000D03*
X152250000Y-101400000D03*
X152250000Y-102200000D03*
X152250000Y-103000000D03*
X152250000Y-103800000D03*
D18*
X150800000Y-105250000D03*
X150000000Y-105250000D03*
X149200000Y-105250000D03*
X148400000Y-105250000D03*
X147600000Y-105250000D03*
X146800000Y-105250000D03*
X146000000Y-105250000D03*
X145200000Y-105250000D03*
D17*
X143750000Y-103800000D03*
X143750000Y-103000000D03*
X143750000Y-102200000D03*
X143750000Y-101400000D03*
X143750000Y-100600000D03*
X143750000Y-99800000D03*
X143750000Y-99000000D03*
X143750000Y-98200000D03*
D18*
X145200000Y-96750000D03*
X146000000Y-96750000D03*
X146800000Y-96750000D03*
X147600000Y-96750000D03*
X148400000Y-96750000D03*
X149200000Y-96750000D03*
X150000000Y-96750000D03*
X150800000Y-96750000D03*
%TD*%
D15*
%TO.C,J4*%
X152550662Y-90570000D03*
%TD*%
D19*
%TO.C,C7*%
X141775000Y-98450000D03*
X140225000Y-98450000D03*
%TD*%
D20*
%TO.C,R15*%
X140125000Y-95700000D03*
X141775000Y-95700000D03*
%TD*%
D21*
%TO.C,R13*%
X167026078Y-108510000D03*
X167026078Y-106860000D03*
%TD*%
D19*
%TO.C,C4*%
X167740000Y-95465000D03*
X166190000Y-95465000D03*
%TD*%
D15*
%TO.C,J1*%
X162200000Y-89800000D03*
%TD*%
D21*
%TO.C,R19*%
X158781766Y-98858673D03*
X158781766Y-97208673D03*
%TD*%
M02*
