%TF.GenerationSoftware,KiCad,Pcbnew,7.0.8*%
%TF.CreationDate,2024-03-24T19:28:18+01:00*%
%TF.ProjectId,Heptachron,48657074-6163-4687-926f-6e2e6b696361,rev?*%
%TF.SameCoordinates,Original*%
%TF.FileFunction,Paste,Top*%
%TF.FilePolarity,Positive*%
%FSLAX46Y46*%
G04 Gerber Fmt 4.6, Leading zero omitted, Abs format (unit mm)*
G04 Created by KiCad (PCBNEW 7.0.8) date 2024-03-24 19:28:18*
%MOMM*%
%LPD*%
G01*
G04 APERTURE LIST*
G04 Aperture macros list*
%AMRoundRect*
0 Rectangle with rounded corners*
0 $1 Rounding radius*
0 $2 $3 $4 $5 $6 $7 $8 $9 X,Y pos of 4 corners*
0 Add a 4 corners polygon primitive as box body*
4,1,4,$2,$3,$4,$5,$6,$7,$8,$9,$2,$3,0*
0 Add four circle primitives for the rounded corners*
1,1,$1+$1,$2,$3*
1,1,$1+$1,$4,$5*
1,1,$1+$1,$6,$7*
1,1,$1+$1,$8,$9*
0 Add four rect primitives between the rounded corners*
20,1,$1+$1,$2,$3,$4,$5,0*
20,1,$1+$1,$4,$5,$6,$7,0*
20,1,$1+$1,$6,$7,$8,$9,0*
20,1,$1+$1,$8,$9,$2,$3,0*%
G04 Aperture macros list end*
%ADD10RoundRect,0.062500X0.062500X0.350000X-0.062500X0.350000X-0.062500X-0.350000X0.062500X-0.350000X0*%
%ADD11RoundRect,0.062500X0.350000X0.062500X-0.350000X0.062500X-0.350000X-0.062500X0.350000X-0.062500X0*%
%ADD12RoundRect,0.182500X0.182500X0.182500X-0.182500X0.182500X-0.182500X-0.182500X0.182500X-0.182500X0*%
%ADD13RoundRect,0.225000X-0.250000X0.225000X-0.250000X-0.225000X0.250000X-0.225000X0.250000X0.225000X0*%
%ADD14R,1.050000X0.500000*%
%ADD15RoundRect,0.150000X-0.825000X-0.150000X0.825000X-0.150000X0.825000X0.150000X-0.825000X0.150000X0*%
%ADD16R,1.600000X0.550000*%
%ADD17R,0.550000X1.600000*%
%ADD18R,1.550000X1.300000*%
%ADD19RoundRect,0.200000X0.275000X-0.200000X0.275000X0.200000X-0.275000X0.200000X-0.275000X-0.200000X0*%
%ADD20RoundRect,0.200000X-0.200000X-0.275000X0.200000X-0.275000X0.200000X0.275000X-0.200000X0.275000X0*%
%ADD21RoundRect,0.200000X-0.275000X0.200000X-0.275000X-0.200000X0.275000X-0.200000X0.275000X0.200000X0*%
%ADD22RoundRect,0.200000X0.200000X0.275000X-0.200000X0.275000X-0.200000X-0.275000X0.200000X-0.275000X0*%
%ADD23RoundRect,0.218750X0.256250X-0.218750X0.256250X0.218750X-0.256250X0.218750X-0.256250X-0.218750X0*%
%ADD24RoundRect,0.218750X-0.218750X-0.256250X0.218750X-0.256250X0.218750X0.256250X-0.218750X0.256250X0*%
%ADD25RoundRect,0.250000X-0.475000X0.250000X-0.475000X-0.250000X0.475000X-0.250000X0.475000X0.250000X0*%
%ADD26RoundRect,0.225000X0.225000X0.250000X-0.225000X0.250000X-0.225000X-0.250000X0.225000X-0.250000X0*%
%ADD27RoundRect,0.250000X0.250000X0.475000X-0.250000X0.475000X-0.250000X-0.475000X0.250000X-0.475000X0*%
%ADD28RoundRect,0.250000X-0.250000X-0.475000X0.250000X-0.475000X0.250000X0.475000X-0.250000X0.475000X0*%
%ADD29RoundRect,0.225000X0.250000X-0.225000X0.250000X0.225000X-0.250000X0.225000X-0.250000X-0.225000X0*%
%ADD30RoundRect,0.218750X-0.256250X0.218750X-0.256250X-0.218750X0.256250X-0.218750X0.256250X0.218750X0*%
%ADD31RoundRect,0.275000X0.133151X-1.028541X0.411497X0.951995X-0.133151X1.028541X-0.411497X-0.951995X0*%
%ADD32RoundRect,0.275000X-1.037062X0.011290X0.885461X-0.539984X1.037062X-0.011290X-0.885461X0.539984X0*%
%ADD33RoundRect,0.275000X1.037062X-0.011290X-0.885461X0.539984X-1.037062X0.011290X0.885461X-0.539984X0*%
G04 APERTURE END LIST*
D10*
%TO.C,U6*%
X131550000Y-84762500D03*
X131050000Y-84762500D03*
X130550000Y-84762500D03*
X130050000Y-84762500D03*
D11*
X129337500Y-84050000D03*
X129337500Y-83550000D03*
X129337500Y-83050000D03*
X129337500Y-82550000D03*
D10*
X130050000Y-81837500D03*
X130550000Y-81837500D03*
X131050000Y-81837500D03*
X131550000Y-81837500D03*
D11*
X132262500Y-82550000D03*
X132262500Y-83050000D03*
X132262500Y-83550000D03*
X132262500Y-84050000D03*
D12*
X131220000Y-82880000D03*
X131220000Y-83720000D03*
X130380000Y-82880000D03*
X130380000Y-83720000D03*
%TD*%
D13*
%TO.C,C7*%
X156800000Y-89925000D03*
X156800000Y-91475000D03*
%TD*%
D14*
%TO.C,X1*%
X166450000Y-118200000D03*
X166450000Y-119100000D03*
X166450000Y-120000000D03*
X166450000Y-120900000D03*
X165000000Y-120900000D03*
X165000000Y-120000000D03*
X165000000Y-119100000D03*
X165000000Y-118200000D03*
%TD*%
D15*
%TO.C,U8*%
X145025000Y-117690000D03*
X145025000Y-118960000D03*
X145025000Y-120230000D03*
X145025000Y-121500000D03*
X145025000Y-122770000D03*
X145025000Y-124040000D03*
X145025000Y-125310000D03*
X149975000Y-125310000D03*
X149975000Y-124040000D03*
X149975000Y-122770000D03*
X149975000Y-121500000D03*
X149975000Y-120230000D03*
X149975000Y-118960000D03*
X149975000Y-117690000D03*
%TD*%
D16*
%TO.C,U7*%
X167750000Y-89700000D03*
X167750000Y-88900000D03*
X167750000Y-88100000D03*
X167750000Y-87300000D03*
X167750000Y-86500000D03*
X167750000Y-85700000D03*
X167750000Y-84900000D03*
X167750000Y-84100000D03*
D17*
X166300000Y-82650000D03*
X165500000Y-82650000D03*
X164700000Y-82650000D03*
X163900000Y-82650000D03*
X163100000Y-82650000D03*
X162300000Y-82650000D03*
X161500000Y-82650000D03*
X160700000Y-82650000D03*
D16*
X159250000Y-84100000D03*
X159250000Y-84900000D03*
X159250000Y-85700000D03*
X159250000Y-86500000D03*
X159250000Y-87300000D03*
X159250000Y-88100000D03*
X159250000Y-88900000D03*
X159250000Y-89700000D03*
D17*
X160700000Y-91150000D03*
X161500000Y-91150000D03*
X162300000Y-91150000D03*
X163100000Y-91150000D03*
X163900000Y-91150000D03*
X164700000Y-91150000D03*
X165500000Y-91150000D03*
X166300000Y-91150000D03*
%TD*%
D18*
%TO.C,SW2*%
X129475000Y-124250000D03*
X121525000Y-124250000D03*
X121525000Y-128750000D03*
X129475000Y-128750000D03*
%TD*%
%TO.C,SW1*%
X140175000Y-124250000D03*
X132225000Y-124250000D03*
X132225000Y-128750000D03*
X140175000Y-128750000D03*
%TD*%
D19*
%TO.C,R16*%
X130100000Y-110025000D03*
X130100000Y-108375000D03*
%TD*%
D20*
%TO.C,R15*%
X158875000Y-93600000D03*
X160525000Y-93600000D03*
%TD*%
D21*
%TO.C,R14*%
X153900000Y-122275000D03*
X153900000Y-123925000D03*
%TD*%
D19*
%TO.C,R13*%
X153900000Y-127125000D03*
X153900000Y-125475000D03*
%TD*%
D22*
%TO.C,R12*%
X150925000Y-77600000D03*
X149275000Y-77600000D03*
%TD*%
%TO.C,R11*%
X154825000Y-77600000D03*
X153175000Y-77600000D03*
%TD*%
%TO.C,R10*%
X143025000Y-77600000D03*
X141375000Y-77600000D03*
%TD*%
%TO.C,R9*%
X146925000Y-77600000D03*
X145275000Y-77600000D03*
%TD*%
%TO.C,R8*%
X136525000Y-83499999D03*
X134875000Y-83499999D03*
%TD*%
D21*
%TO.C,R7*%
X132650000Y-87624999D03*
X132650000Y-89274999D03*
%TD*%
D22*
%TO.C,R6*%
X136525000Y-85199998D03*
X134875000Y-85199998D03*
%TD*%
D19*
%TO.C,R5*%
X128850000Y-89174999D03*
X128850000Y-87524999D03*
%TD*%
D22*
%TO.C,R4*%
X126300000Y-82900000D03*
X124650000Y-82900000D03*
%TD*%
D20*
%TO.C,R3*%
X124650000Y-81200000D03*
X126300000Y-81200000D03*
%TD*%
%TO.C,R2*%
X166550000Y-116450000D03*
X164900000Y-116450000D03*
%TD*%
%TO.C,R1*%
X164900000Y-122650000D03*
X166550000Y-122650000D03*
%TD*%
D23*
%TO.C,Q1*%
X133200000Y-109987500D03*
X133200000Y-108412500D03*
%TD*%
D24*
%TO.C,D4*%
X149312500Y-79500000D03*
X150887500Y-79500000D03*
%TD*%
%TO.C,D3*%
X153212500Y-79500000D03*
X154787500Y-79500000D03*
%TD*%
%TO.C,D2*%
X141412500Y-79500000D03*
X142987500Y-79500000D03*
%TD*%
%TO.C,D1*%
X145312500Y-79500000D03*
X146887500Y-79500000D03*
%TD*%
D13*
%TO.C,C6*%
X127100000Y-108525000D03*
X127100000Y-110075000D03*
%TD*%
D25*
%TO.C,C5*%
X130750001Y-87500000D03*
X130750001Y-89400000D03*
%TD*%
D26*
%TO.C,C4*%
X148300000Y-115460002D03*
X146750000Y-115460002D03*
%TD*%
D27*
%TO.C,C3*%
X136650000Y-81500000D03*
X134750000Y-81500000D03*
%TD*%
D28*
%TO.C,C2*%
X124525000Y-84800000D03*
X126425000Y-84800000D03*
%TD*%
D29*
%TO.C,C1*%
X168550000Y-118775000D03*
X168550000Y-120325000D03*
%TD*%
D30*
%TO.C,D40*%
X148000000Y-107212500D03*
X148000000Y-108787500D03*
%TD*%
%TO.C,D37*%
X148000000Y-101812500D03*
X148000000Y-103387500D03*
%TD*%
D31*
%TO.C,U3*%
X153446431Y-97118254D03*
D32*
X157565536Y-98433565D03*
X157099536Y-101751565D03*
D31*
X152514431Y-103752254D03*
D33*
X150295326Y-103486943D03*
X150761326Y-100168943D03*
D31*
X152980431Y-100435254D03*
X155446431Y-97118254D03*
D32*
X157287190Y-100414101D03*
X156821190Y-103732101D03*
D31*
X154514431Y-103752254D03*
D33*
X150573672Y-101506407D03*
X151039672Y-98188407D03*
D31*
X154980431Y-100435254D03*
%TD*%
D30*
%TO.C,D39*%
X150000001Y-107212500D03*
X150000001Y-108787500D03*
%TD*%
D31*
%TO.C,U2*%
X141446431Y-97118254D03*
D32*
X145565536Y-98433565D03*
X145099536Y-101751565D03*
D31*
X140514431Y-103752254D03*
D33*
X138295326Y-103486943D03*
X138761326Y-100168943D03*
D31*
X140980431Y-100435254D03*
X143446431Y-97118254D03*
D32*
X145287190Y-100414101D03*
X144821190Y-103732101D03*
D31*
X142514431Y-103752254D03*
D33*
X138573672Y-101506407D03*
X139039672Y-98188407D03*
D31*
X142980431Y-100435254D03*
%TD*%
%TO.C,U4*%
X162946431Y-97118254D03*
D32*
X167065536Y-98433565D03*
X166599536Y-101751565D03*
D31*
X162014431Y-103752254D03*
D33*
X159795326Y-103486943D03*
X160261326Y-100168943D03*
D31*
X162480431Y-100435254D03*
X164946431Y-97118254D03*
D32*
X166787190Y-100414101D03*
X166321190Y-103732101D03*
D31*
X164014431Y-103752254D03*
D33*
X160073672Y-101506407D03*
X160539672Y-98188407D03*
D31*
X164480431Y-100435254D03*
%TD*%
D30*
%TO.C,D42*%
X144000000Y-107212500D03*
X144000000Y-108787500D03*
%TD*%
%TO.C,D41*%
X145999999Y-107212500D03*
X145999999Y-108787500D03*
%TD*%
D23*
%TO.C,D36*%
X148000000Y-100187500D03*
X148000000Y-98612500D03*
%TD*%
D30*
%TO.C,D38*%
X152000000Y-107212500D03*
X152000000Y-108787500D03*
%TD*%
D31*
%TO.C,U1*%
X131946431Y-97118254D03*
D32*
X136065536Y-98433565D03*
X135599536Y-101751565D03*
D31*
X131014431Y-103752254D03*
D33*
X128795326Y-103486943D03*
X129261326Y-100168943D03*
D31*
X131480431Y-100435254D03*
X133946431Y-97118254D03*
D32*
X135787190Y-100414101D03*
X135321190Y-103732101D03*
D31*
X133014431Y-103752254D03*
D33*
X129073672Y-101506407D03*
X129539672Y-98188407D03*
D31*
X133480431Y-100435254D03*
%TD*%
M02*
