M48
; DRILL file {KiCad 7.0.7} date Sun Mar 10 18:16:08 2024
; FORMAT={-:-/ absolute / inch / decimal}
; #@! TF.CreationDate,2024-03-10T18:16:08+01:00
; #@! TF.GenerationSoftware,Kicad,Pcbnew,7.0.7
; #@! TF.FileFunction,Plated,1,2,PTH
FMAT,2
INCH
; #@! TA.AperFunction,Plated,PTH,ViaDrill
T1C0.0118
; #@! TA.AperFunction,Plated,PTH,ComponentDrill
T2C0.0236
%
G90
G05
T1
X5.1404Y-3.9163
X5.1531Y-3.713
X5.1539Y-3.7815
X5.1961Y-4.5457
X5.1976Y-4.5961
X5.2125Y-4.0024
X5.2364Y-4.2833
X5.2882Y-4.1457
X5.3374Y-4.6167
X5.3783Y-4.0563
X5.4236Y-3.8933
X5.4437Y-4.1209
X5.4449Y-4.213
X5.4839Y-4.1441
X5.5134Y-4.3921
X5.5315Y-3.713
X5.5319Y-3.7752
X5.5799Y-4.3917
X5.587Y-4.0035
X5.6094Y-4.2417
X5.6831Y-4.1283
X5.7079Y-4.2496
X5.7412Y-4.0543
X5.7819Y-4.0429
X5.7866Y-4.2528
X5.826Y-3.8335
X5.8264Y-4.3366
X5.8268Y-4.1477
X5.8429Y-4.4252
X5.8654Y-4.2516
X5.8689Y-4.0266
X5.8882Y-4.1508
X5.9173Y-4.1295
X5.9445Y-4.2465
X6.0051Y-3.713
X6.0051Y-3.7665
X6.037Y-4.2252
X6.037Y-4.2866
X6.0571Y-4.0138
X6.0659Y-3.9037
X6.1736Y-4.1346
X6.1741Y-4.2414
X6.1839Y-4.1683
X6.2494Y-4.0253
X6.2634Y-4.1709
X6.2697Y-3.8933
X6.3811Y-3.7094
X6.3846Y-3.7573
X6.4371Y-3.9457
X6.5047Y-4.0327
T2
X4.9843Y-4.5266
X5.126Y-4.5266
X5.2677Y-4.5266
X5.4094Y-4.5266
X5.5512Y-4.5266
X5.6929Y-4.5266
X5.9449Y-4.5276
X6.0866Y-4.5276
X6.2283Y-4.5276
X6.3701Y-4.5276
X6.5118Y-4.5276
X6.6535Y-4.5276
T0
M30
