%TF.GenerationSoftware,KiCad,Pcbnew,7.0.8*%
%TF.CreationDate,2024-03-24T19:28:18+01:00*%
%TF.ProjectId,Heptachron,48657074-6163-4687-926f-6e2e6b696361,rev?*%
%TF.SameCoordinates,Original*%
%TF.FileFunction,Legend,Bot*%
%TF.FilePolarity,Positive*%
%FSLAX46Y46*%
G04 Gerber Fmt 4.6, Leading zero omitted, Abs format (unit mm)*
G04 Created by KiCad (PCBNEW 7.0.8) date 2024-03-24 19:28:18*
%MOMM*%
%LPD*%
G01*
G04 APERTURE LIST*
%ADD10C,0.100000*%
G04 APERTURE END LIST*
D10*
G36*
X171022121Y-76440915D02*
G01*
X171022121Y-76344000D01*
X170472477Y-76344000D01*
X170472477Y-76440915D01*
X171022121Y-76440915D01*
G37*
G36*
X170366378Y-76440915D02*
G01*
X170366378Y-76344000D01*
X169816734Y-76344000D01*
X169816734Y-76440915D01*
X170366378Y-76440915D01*
G37*
G36*
X168399148Y-76440915D02*
G01*
X168399148Y-76344000D01*
X167849504Y-76344000D01*
X167849504Y-76440915D01*
X168399148Y-76440915D01*
G37*
G36*
X167743405Y-76440915D02*
G01*
X167743405Y-76344000D01*
X167193761Y-76344000D01*
X167193761Y-76440915D01*
X167743405Y-76440915D01*
G37*
G36*
X167087662Y-76440915D02*
G01*
X167087662Y-76344000D01*
X166538018Y-76344000D01*
X166538018Y-76440915D01*
X167087662Y-76440915D01*
G37*
G36*
X166431919Y-76440915D02*
G01*
X166431919Y-76344000D01*
X165882274Y-76344000D01*
X165882274Y-76440915D01*
X166431919Y-76440915D01*
G37*
G36*
X165776175Y-76440915D02*
G01*
X165776175Y-76344000D01*
X165226531Y-76344000D01*
X165226531Y-76440915D01*
X165776175Y-76440915D01*
G37*
G36*
X165120432Y-76440915D02*
G01*
X165120432Y-76344000D01*
X164570788Y-76344000D01*
X164570788Y-76440915D01*
X165120432Y-76440915D01*
G37*
G36*
X164464689Y-76440915D02*
G01*
X164464689Y-76344000D01*
X163915045Y-76344000D01*
X163915045Y-76440915D01*
X164464689Y-76440915D01*
G37*
G36*
X163808946Y-76440915D02*
G01*
X163808946Y-76344000D01*
X163259302Y-76344000D01*
X163259302Y-76440915D01*
X163808946Y-76440915D01*
G37*
G36*
X163153203Y-76440915D02*
G01*
X163153203Y-76344000D01*
X162603558Y-76344000D01*
X162603558Y-76440915D01*
X163153203Y-76440915D01*
G37*
G36*
X162497459Y-76440915D02*
G01*
X162497459Y-76344000D01*
X161947815Y-76344000D01*
X161947815Y-76440915D01*
X162497459Y-76440915D01*
G37*
G36*
X161841716Y-76440915D02*
G01*
X161841716Y-76344000D01*
X161292072Y-76344000D01*
X161292072Y-76440915D01*
X161841716Y-76440915D01*
G37*
G36*
X161185973Y-76440915D02*
G01*
X161185973Y-76344000D01*
X160636329Y-76344000D01*
X160636329Y-76440915D01*
X161185973Y-76440915D01*
G37*
G36*
X159218743Y-76440915D02*
G01*
X159218743Y-76344000D01*
X158669099Y-76344000D01*
X158669099Y-76440915D01*
X159218743Y-76440915D01*
G37*
G36*
X158563000Y-76440915D02*
G01*
X158563000Y-76344000D01*
X158013356Y-76344000D01*
X158013356Y-76440915D01*
X158563000Y-76440915D01*
G37*
G36*
X157907257Y-76440915D02*
G01*
X157907257Y-76344000D01*
X157357613Y-76344000D01*
X157357613Y-76440915D01*
X157907257Y-76440915D01*
G37*
G36*
X157251514Y-76440915D02*
G01*
X157251514Y-76344000D01*
X156701870Y-76344000D01*
X156701870Y-76440915D01*
X157251514Y-76440915D01*
G37*
G36*
X156595771Y-76440915D02*
G01*
X156595771Y-76344000D01*
X156046127Y-76344000D01*
X156046127Y-76440915D01*
X156595771Y-76440915D01*
G37*
G36*
X155940027Y-76440915D02*
G01*
X155940027Y-76344000D01*
X155390383Y-76344000D01*
X155390383Y-76440915D01*
X155940027Y-76440915D01*
G37*
G36*
X155284284Y-76440915D02*
G01*
X155284284Y-76344000D01*
X154734640Y-76344000D01*
X154734640Y-76440915D01*
X155284284Y-76440915D01*
G37*
G36*
X154628541Y-76440915D02*
G01*
X154628541Y-76344000D01*
X154078897Y-76344000D01*
X154078897Y-76440915D01*
X154628541Y-76440915D01*
G37*
G36*
X153972798Y-76440915D02*
G01*
X153972798Y-76344000D01*
X153423154Y-76344000D01*
X153423154Y-76440915D01*
X153972798Y-76440915D01*
G37*
G36*
X151349825Y-76440915D02*
G01*
X151349825Y-76344000D01*
X150800181Y-76344000D01*
X150800181Y-76440915D01*
X151349825Y-76440915D01*
G37*
G36*
X150694082Y-76440915D02*
G01*
X150694082Y-76344000D01*
X150144438Y-76344000D01*
X150144438Y-76440915D01*
X150694082Y-76440915D01*
G37*
G36*
X150038339Y-76440915D02*
G01*
X150038339Y-76344000D01*
X149488695Y-76344000D01*
X149488695Y-76440915D01*
X150038339Y-76440915D01*
G37*
G36*
X149382595Y-76440915D02*
G01*
X149382595Y-76344000D01*
X148832951Y-76344000D01*
X148832951Y-76440915D01*
X149382595Y-76440915D01*
G37*
G36*
X148726852Y-76440915D02*
G01*
X148726852Y-76344000D01*
X148177208Y-76344000D01*
X148177208Y-76440915D01*
X148726852Y-76440915D01*
G37*
G36*
X148071109Y-76440915D02*
G01*
X148071109Y-76344000D01*
X147521465Y-76344000D01*
X147521465Y-76440915D01*
X148071109Y-76440915D01*
G37*
G36*
X147415366Y-76440915D02*
G01*
X147415366Y-76344000D01*
X146865722Y-76344000D01*
X146865722Y-76440915D01*
X147415366Y-76440915D01*
G37*
G36*
X146759623Y-76440915D02*
G01*
X146759623Y-76344000D01*
X146209979Y-76344000D01*
X146209979Y-76440915D01*
X146759623Y-76440915D01*
G37*
G36*
X144792393Y-76440915D02*
G01*
X144792393Y-76344000D01*
X144242749Y-76344000D01*
X144242749Y-76440915D01*
X144792393Y-76440915D01*
G37*
G36*
X144136650Y-76440915D02*
G01*
X144136650Y-76344000D01*
X143587006Y-76344000D01*
X143587006Y-76440915D01*
X144136650Y-76440915D01*
G37*
G36*
X143480907Y-76440915D02*
G01*
X143480907Y-76344000D01*
X142931263Y-76344000D01*
X142931263Y-76440915D01*
X143480907Y-76440915D01*
G37*
G36*
X142825163Y-76440915D02*
G01*
X142825163Y-76344000D01*
X142275519Y-76344000D01*
X142275519Y-76440915D01*
X142825163Y-76440915D01*
G37*
G36*
X142169420Y-76440915D02*
G01*
X142169420Y-76344000D01*
X141619776Y-76344000D01*
X141619776Y-76440915D01*
X142169420Y-76440915D01*
G37*
G36*
X141513677Y-76440915D02*
G01*
X141513677Y-76344000D01*
X140964033Y-76344000D01*
X140964033Y-76440915D01*
X141513677Y-76440915D01*
G37*
G36*
X139546448Y-76440915D02*
G01*
X139546448Y-76344000D01*
X138996803Y-76344000D01*
X138996803Y-76440915D01*
X139546448Y-76440915D01*
G37*
G36*
X138890704Y-76440915D02*
G01*
X138890704Y-76344000D01*
X138341060Y-76344000D01*
X138341060Y-76440915D01*
X138890704Y-76440915D01*
G37*
G36*
X138234961Y-76440915D02*
G01*
X138234961Y-76344000D01*
X137685317Y-76344000D01*
X137685317Y-76440915D01*
X138234961Y-76440915D01*
G37*
G36*
X137579218Y-76440915D02*
G01*
X137579218Y-76344000D01*
X137029574Y-76344000D01*
X137029574Y-76440915D01*
X137579218Y-76440915D01*
G37*
G36*
X135611988Y-76440915D02*
G01*
X135611988Y-76344000D01*
X135062344Y-76344000D01*
X135062344Y-76440915D01*
X135611988Y-76440915D01*
G37*
G36*
X132989016Y-76440915D02*
G01*
X132989016Y-76344000D01*
X132439371Y-76344000D01*
X132439371Y-76440915D01*
X132989016Y-76440915D01*
G37*
G36*
X132333272Y-76440915D02*
G01*
X132333272Y-76344000D01*
X131783628Y-76344000D01*
X131783628Y-76440915D01*
X132333272Y-76440915D01*
G37*
G36*
X171670048Y-77791168D02*
G01*
X171228262Y-76803254D01*
X171111807Y-76803254D01*
X171553593Y-77791168D01*
X171670048Y-77791168D01*
G37*
G36*
X170358562Y-77791168D02*
G01*
X169916775Y-76803254D01*
X169800321Y-76803254D01*
X170242107Y-77791168D01*
X170358562Y-77791168D01*
G37*
G36*
X169047076Y-77791168D02*
G01*
X168605289Y-76803254D01*
X168488834Y-76803254D01*
X168930621Y-77791168D01*
X169047076Y-77791168D01*
G37*
G36*
X167735589Y-77791168D02*
G01*
X167293803Y-76803254D01*
X167177348Y-76803254D01*
X167619134Y-77791168D01*
X167735589Y-77791168D01*
G37*
G36*
X166431919Y-77784915D02*
G01*
X166431919Y-77688000D01*
X165882274Y-77688000D01*
X165882274Y-77784915D01*
X166431919Y-77784915D01*
G37*
G36*
X165776175Y-77784915D02*
G01*
X165776175Y-77688000D01*
X165226531Y-77688000D01*
X165226531Y-77784915D01*
X165776175Y-77784915D01*
G37*
G36*
X165120432Y-77784915D02*
G01*
X165120432Y-77688000D01*
X164570788Y-77688000D01*
X164570788Y-77784915D01*
X165120432Y-77784915D01*
G37*
G36*
X164464689Y-77784915D02*
G01*
X164464689Y-77688000D01*
X163915045Y-77688000D01*
X163915045Y-77784915D01*
X164464689Y-77784915D01*
G37*
G36*
X163801130Y-77791168D02*
G01*
X163359344Y-76803254D01*
X163242889Y-76803254D01*
X163684675Y-77791168D01*
X163801130Y-77791168D01*
G37*
G36*
X162497459Y-77784915D02*
G01*
X162497459Y-77688000D01*
X161947815Y-77688000D01*
X161947815Y-77784915D01*
X162497459Y-77784915D01*
G37*
G36*
X161841716Y-77784915D02*
G01*
X161841716Y-77688000D01*
X161292072Y-77688000D01*
X161292072Y-77784915D01*
X161841716Y-77784915D01*
G37*
G36*
X160104856Y-77791168D02*
G01*
X160546643Y-76803254D01*
X160430188Y-76803254D01*
X159988401Y-77791168D01*
X160104856Y-77791168D01*
G37*
G36*
X159866671Y-77791168D02*
G01*
X159424884Y-76803254D01*
X159308429Y-76803254D01*
X159750216Y-77791168D01*
X159866671Y-77791168D01*
G37*
G36*
X159218743Y-77784915D02*
G01*
X159218743Y-77688000D01*
X158669099Y-77688000D01*
X158669099Y-77784915D01*
X159218743Y-77784915D01*
G37*
G36*
X157251514Y-77784915D02*
G01*
X157251514Y-77688000D01*
X156701870Y-77688000D01*
X156701870Y-77784915D01*
X157251514Y-77784915D01*
G37*
G36*
X156595771Y-77784915D02*
G01*
X156595771Y-77688000D01*
X156046127Y-77688000D01*
X156046127Y-77784915D01*
X156595771Y-77784915D01*
G37*
G36*
X155932212Y-77791168D02*
G01*
X155490425Y-76803254D01*
X155373970Y-76803254D01*
X155815757Y-77791168D01*
X155932212Y-77791168D01*
G37*
G36*
X153097236Y-77859556D02*
G01*
X153097236Y-76737211D01*
X152987229Y-76737211D01*
X152987229Y-77859556D01*
X153097236Y-77859556D01*
G37*
G36*
X151997752Y-77791168D02*
G01*
X151555966Y-76803254D01*
X151439511Y-76803254D01*
X151881297Y-77791168D01*
X151997752Y-77791168D01*
G37*
G36*
X150694082Y-77784915D02*
G01*
X150694082Y-77688000D01*
X150144438Y-77688000D01*
X150144438Y-77784915D01*
X150694082Y-77784915D01*
G37*
G36*
X150038339Y-77784915D02*
G01*
X150038339Y-77688000D01*
X149488695Y-77688000D01*
X149488695Y-77784915D01*
X150038339Y-77784915D01*
G37*
G36*
X149382595Y-77784915D02*
G01*
X149382595Y-77688000D01*
X148832951Y-77688000D01*
X148832951Y-77784915D01*
X149382595Y-77784915D01*
G37*
G36*
X148726852Y-77784915D02*
G01*
X148726852Y-77688000D01*
X148177208Y-77688000D01*
X148177208Y-77784915D01*
X148726852Y-77784915D01*
G37*
G36*
X148063293Y-77791168D02*
G01*
X147621507Y-76803254D01*
X147505052Y-76803254D01*
X147946838Y-77791168D01*
X148063293Y-77791168D01*
G37*
G36*
X146751807Y-77791168D02*
G01*
X146310020Y-76803254D01*
X146193565Y-76803254D01*
X146635352Y-77791168D01*
X146751807Y-77791168D01*
G37*
G36*
X145440321Y-77791168D02*
G01*
X144998534Y-76803254D01*
X144882079Y-76803254D01*
X145323866Y-77791168D01*
X145440321Y-77791168D01*
G37*
G36*
X144128834Y-77791168D02*
G01*
X143687048Y-76803254D01*
X143570593Y-76803254D01*
X144012379Y-77791168D01*
X144128834Y-77791168D01*
G37*
G36*
X142825163Y-77784915D02*
G01*
X142825163Y-77688000D01*
X142275519Y-77688000D01*
X142275519Y-77784915D01*
X142825163Y-77784915D01*
G37*
G36*
X142169420Y-77784915D02*
G01*
X142169420Y-77688000D01*
X141619776Y-77688000D01*
X141619776Y-77784915D01*
X142169420Y-77784915D01*
G37*
G36*
X140432561Y-77791168D02*
G01*
X140874347Y-76803254D01*
X140757892Y-76803254D01*
X140316106Y-77791168D01*
X140432561Y-77791168D01*
G37*
G36*
X140194375Y-77791168D02*
G01*
X139752588Y-76803254D01*
X139636133Y-76803254D01*
X140077920Y-77791168D01*
X140194375Y-77791168D01*
G37*
G36*
X138890704Y-77784915D02*
G01*
X138890704Y-77688000D01*
X138341060Y-77688000D01*
X138341060Y-77784915D01*
X138890704Y-77784915D01*
G37*
G36*
X138234961Y-77784915D02*
G01*
X138234961Y-77688000D01*
X137685317Y-77688000D01*
X137685317Y-77784915D01*
X138234961Y-77784915D01*
G37*
G36*
X136498101Y-77791168D02*
G01*
X136939888Y-76803254D01*
X136823433Y-76803254D01*
X136381646Y-77791168D01*
X136498101Y-77791168D01*
G37*
G36*
X136259916Y-77791168D02*
G01*
X135818129Y-76803254D01*
X135701674Y-76803254D01*
X136143461Y-77791168D01*
X136259916Y-77791168D01*
G37*
G36*
X134736427Y-77859556D02*
G01*
X134736427Y-76737211D01*
X134626420Y-76737211D01*
X134626420Y-77859556D01*
X134736427Y-77859556D01*
G37*
G36*
X133636943Y-77791168D02*
G01*
X133195157Y-76803254D01*
X133078702Y-76803254D01*
X133520488Y-77791168D01*
X133636943Y-77791168D01*
G37*
G36*
X132325457Y-77791168D02*
G01*
X131883670Y-76803254D01*
X131767215Y-76803254D01*
X132209002Y-77791168D01*
X132325457Y-77791168D01*
G37*
G36*
X172325792Y-79135168D02*
G01*
X171884005Y-78147254D01*
X171767550Y-78147254D01*
X172209337Y-79135168D01*
X172325792Y-79135168D01*
G37*
G36*
X171014305Y-79135168D02*
G01*
X170572519Y-78147254D01*
X170456064Y-78147254D01*
X170897850Y-79135168D01*
X171014305Y-79135168D01*
G37*
G36*
X170366378Y-79128915D02*
G01*
X170366378Y-79032000D01*
X169816734Y-79032000D01*
X169816734Y-79128915D01*
X170366378Y-79128915D01*
G37*
G36*
X169702819Y-79135168D02*
G01*
X169261032Y-78147254D01*
X169144577Y-78147254D01*
X169586364Y-79135168D01*
X169702819Y-79135168D01*
G37*
G36*
X168391332Y-79135168D02*
G01*
X167949546Y-78147254D01*
X167833091Y-78147254D01*
X168274877Y-79135168D01*
X168391332Y-79135168D01*
G37*
G36*
X167087662Y-79128915D02*
G01*
X167087662Y-79032000D01*
X166538018Y-79032000D01*
X166538018Y-79128915D01*
X167087662Y-79128915D01*
G37*
G36*
X166431919Y-79128915D02*
G01*
X166431919Y-79032000D01*
X165882274Y-79032000D01*
X165882274Y-79128915D01*
X166431919Y-79128915D01*
G37*
G36*
X165768360Y-79135168D02*
G01*
X165326573Y-78147254D01*
X165210118Y-78147254D01*
X165651905Y-79135168D01*
X165768360Y-79135168D01*
G37*
G36*
X164456873Y-79135168D02*
G01*
X164015087Y-78147254D01*
X163898632Y-78147254D01*
X164340418Y-79135168D01*
X164456873Y-79135168D01*
G37*
G36*
X163145387Y-79135168D02*
G01*
X162703600Y-78147254D01*
X162587145Y-78147254D01*
X163028932Y-79135168D01*
X163145387Y-79135168D01*
G37*
G36*
X162497459Y-79128915D02*
G01*
X162497459Y-79032000D01*
X161947815Y-79032000D01*
X161947815Y-79128915D01*
X162497459Y-79128915D01*
G37*
G36*
X161833900Y-79135168D02*
G01*
X161392114Y-78147254D01*
X161275659Y-78147254D01*
X161717445Y-79135168D01*
X161833900Y-79135168D01*
G37*
G36*
X160522414Y-79135168D02*
G01*
X160080628Y-78147254D01*
X159964173Y-78147254D01*
X160405959Y-79135168D01*
X160522414Y-79135168D01*
G37*
G36*
X159210928Y-79135168D02*
G01*
X158769141Y-78147254D01*
X158652686Y-78147254D01*
X159094473Y-79135168D01*
X159210928Y-79135168D01*
G37*
G36*
X157899441Y-79135168D02*
G01*
X157457655Y-78147254D01*
X157341200Y-78147254D01*
X157782986Y-79135168D01*
X157899441Y-79135168D01*
G37*
G36*
X156587955Y-79135168D02*
G01*
X156146168Y-78147254D01*
X156029713Y-78147254D01*
X156471500Y-79135168D01*
X156587955Y-79135168D01*
G37*
G36*
X155276468Y-79135168D02*
G01*
X154834682Y-78147254D01*
X154718227Y-78147254D01*
X155160013Y-79135168D01*
X155276468Y-79135168D01*
G37*
G36*
X154408722Y-79203556D02*
G01*
X154408722Y-78081211D01*
X154298715Y-78081211D01*
X154298715Y-79203556D01*
X154408722Y-79203556D01*
G37*
G36*
X153097236Y-79203556D02*
G01*
X153097236Y-78081211D01*
X152987229Y-78081211D01*
X152987229Y-79203556D01*
X153097236Y-79203556D01*
G37*
G36*
X152653496Y-79135168D02*
G01*
X152211709Y-78147254D01*
X152095254Y-78147254D01*
X152537041Y-79135168D01*
X152653496Y-79135168D01*
G37*
G36*
X151342009Y-79135168D02*
G01*
X150900223Y-78147254D01*
X150783768Y-78147254D01*
X151225554Y-79135168D01*
X151342009Y-79135168D01*
G37*
G36*
X148719036Y-79135168D02*
G01*
X148277250Y-78147254D01*
X148160795Y-78147254D01*
X148602581Y-79135168D01*
X148719036Y-79135168D01*
G37*
G36*
X147407550Y-79135168D02*
G01*
X146965764Y-78147254D01*
X146849309Y-78147254D01*
X147291095Y-79135168D01*
X147407550Y-79135168D01*
G37*
G36*
X146759623Y-79128915D02*
G01*
X146759623Y-79032000D01*
X146209979Y-79032000D01*
X146209979Y-79128915D01*
X146759623Y-79128915D01*
G37*
G36*
X146096064Y-79135168D02*
G01*
X145654277Y-78147254D01*
X145537822Y-78147254D01*
X145979609Y-79135168D01*
X146096064Y-79135168D01*
G37*
G36*
X144784577Y-79135168D02*
G01*
X144342791Y-78147254D01*
X144226336Y-78147254D01*
X144668122Y-79135168D01*
X144784577Y-79135168D01*
G37*
G36*
X143473091Y-79135168D02*
G01*
X143031304Y-78147254D01*
X142914849Y-78147254D01*
X143356636Y-79135168D01*
X143473091Y-79135168D01*
G37*
G36*
X142825163Y-79128915D02*
G01*
X142825163Y-79032000D01*
X142275519Y-79032000D01*
X142275519Y-79128915D01*
X142825163Y-79128915D01*
G37*
G36*
X142161605Y-79135168D02*
G01*
X141719818Y-78147254D01*
X141603363Y-78147254D01*
X142045150Y-79135168D01*
X142161605Y-79135168D01*
G37*
G36*
X140850118Y-79135168D02*
G01*
X140408332Y-78147254D01*
X140291877Y-78147254D01*
X140733663Y-79135168D01*
X140850118Y-79135168D01*
G37*
G36*
X139538632Y-79135168D02*
G01*
X139096845Y-78147254D01*
X138980390Y-78147254D01*
X139422177Y-79135168D01*
X139538632Y-79135168D01*
G37*
G36*
X138227145Y-79135168D02*
G01*
X137785359Y-78147254D01*
X137668904Y-78147254D01*
X138110690Y-79135168D01*
X138227145Y-79135168D01*
G37*
G36*
X136915659Y-79135168D02*
G01*
X136473872Y-78147254D01*
X136357418Y-78147254D01*
X136799204Y-79135168D01*
X136915659Y-79135168D01*
G37*
G36*
X134736427Y-79203556D02*
G01*
X134736427Y-78081211D01*
X134626420Y-78081211D01*
X134626420Y-79203556D01*
X134736427Y-79203556D01*
G37*
G36*
X134292686Y-79135168D02*
G01*
X133850900Y-78147254D01*
X133734445Y-78147254D01*
X134176231Y-79135168D01*
X134292686Y-79135168D01*
G37*
G36*
X132981200Y-79135168D02*
G01*
X132539413Y-78147254D01*
X132422958Y-78147254D01*
X132864745Y-79135168D01*
X132981200Y-79135168D01*
G37*
G36*
X172981535Y-80479168D02*
G01*
X172539748Y-79491254D01*
X172423293Y-79491254D01*
X172865080Y-80479168D01*
X172981535Y-80479168D01*
G37*
G36*
X171677864Y-80472915D02*
G01*
X171677864Y-80376000D01*
X171128220Y-80376000D01*
X171128220Y-80472915D01*
X171677864Y-80472915D01*
G37*
G36*
X171022121Y-80472915D02*
G01*
X171022121Y-80376000D01*
X170472477Y-80376000D01*
X170472477Y-80472915D01*
X171022121Y-80472915D01*
G37*
G36*
X169047076Y-80479168D02*
G01*
X168605289Y-79491254D01*
X168488834Y-79491254D01*
X168930621Y-80479168D01*
X169047076Y-80479168D01*
G37*
G36*
X167735589Y-80479168D02*
G01*
X167293803Y-79491254D01*
X167177348Y-79491254D01*
X167619134Y-80479168D01*
X167735589Y-80479168D01*
G37*
G36*
X167087662Y-80472915D02*
G01*
X167087662Y-80376000D01*
X166538018Y-80376000D01*
X166538018Y-80472915D01*
X167087662Y-80472915D01*
G37*
G36*
X166431919Y-80472915D02*
G01*
X166431919Y-80376000D01*
X165882274Y-80376000D01*
X165882274Y-80472915D01*
X166431919Y-80472915D01*
G37*
G36*
X165776175Y-80472915D02*
G01*
X165776175Y-80376000D01*
X165226531Y-80376000D01*
X165226531Y-80472915D01*
X165776175Y-80472915D01*
G37*
G36*
X165112616Y-80479168D02*
G01*
X164670830Y-79491254D01*
X164554375Y-79491254D01*
X164996161Y-80479168D01*
X165112616Y-80479168D01*
G37*
G36*
X163808946Y-80472915D02*
G01*
X163808946Y-80376000D01*
X163259302Y-80376000D01*
X163259302Y-80472915D01*
X163808946Y-80472915D01*
G37*
G36*
X163153203Y-80472915D02*
G01*
X163153203Y-80376000D01*
X162603558Y-80376000D01*
X162603558Y-80472915D01*
X163153203Y-80472915D01*
G37*
G36*
X162497459Y-80472915D02*
G01*
X162497459Y-80376000D01*
X161947815Y-80376000D01*
X161947815Y-80472915D01*
X162497459Y-80472915D01*
G37*
G36*
X161841716Y-80472915D02*
G01*
X161841716Y-80376000D01*
X161292072Y-80376000D01*
X161292072Y-80472915D01*
X161841716Y-80472915D01*
G37*
G36*
X161178157Y-80479168D02*
G01*
X160736371Y-79491254D01*
X160619916Y-79491254D01*
X161061702Y-80479168D01*
X161178157Y-80479168D01*
G37*
G36*
X159866671Y-80479168D02*
G01*
X159424884Y-79491254D01*
X159308429Y-79491254D01*
X159750216Y-80479168D01*
X159866671Y-80479168D01*
G37*
G36*
X158555184Y-80479168D02*
G01*
X158113398Y-79491254D01*
X157996943Y-79491254D01*
X158438729Y-80479168D01*
X158555184Y-80479168D01*
G37*
G36*
X157243698Y-80479168D02*
G01*
X156801912Y-79491254D01*
X156685457Y-79491254D01*
X157127243Y-80479168D01*
X157243698Y-80479168D01*
G37*
G36*
X155940027Y-80472915D02*
G01*
X155940027Y-80376000D01*
X155390383Y-80376000D01*
X155390383Y-80472915D01*
X155940027Y-80472915D01*
G37*
G36*
X155284284Y-80472915D02*
G01*
X155284284Y-80376000D01*
X154734640Y-80376000D01*
X154734640Y-80472915D01*
X155284284Y-80472915D01*
G37*
G36*
X154628541Y-80472915D02*
G01*
X154628541Y-80376000D01*
X154078897Y-80376000D01*
X154078897Y-80472915D01*
X154628541Y-80472915D01*
G37*
G36*
X153309239Y-80479168D02*
G01*
X152867452Y-79491254D01*
X152750997Y-79491254D01*
X153192784Y-80479168D01*
X153309239Y-80479168D01*
G37*
G36*
X151997752Y-80479168D02*
G01*
X151555966Y-79491254D01*
X151439511Y-79491254D01*
X151881297Y-80479168D01*
X151997752Y-80479168D01*
G37*
G36*
X151349825Y-80472915D02*
G01*
X151349825Y-80376000D01*
X150800181Y-80376000D01*
X150800181Y-80472915D01*
X151349825Y-80472915D01*
G37*
G36*
X150694082Y-80472915D02*
G01*
X150694082Y-80376000D01*
X150144438Y-80376000D01*
X150144438Y-80472915D01*
X150694082Y-80472915D01*
G37*
G36*
X150038339Y-80472915D02*
G01*
X150038339Y-80376000D01*
X149488695Y-80376000D01*
X149488695Y-80472915D01*
X150038339Y-80472915D01*
G37*
G36*
X149374780Y-80479168D02*
G01*
X148932993Y-79491254D01*
X148816538Y-79491254D01*
X149258325Y-80479168D01*
X149374780Y-80479168D01*
G37*
G36*
X148071109Y-80472915D02*
G01*
X148071109Y-80376000D01*
X147521465Y-80376000D01*
X147521465Y-80472915D01*
X148071109Y-80472915D01*
G37*
G36*
X147415366Y-80472915D02*
G01*
X147415366Y-80376000D01*
X146865722Y-80376000D01*
X146865722Y-80472915D01*
X147415366Y-80472915D01*
G37*
G36*
X145440321Y-80479168D02*
G01*
X144998534Y-79491254D01*
X144882079Y-79491254D01*
X145323866Y-80479168D01*
X145440321Y-80479168D01*
G37*
G36*
X144136650Y-80472915D02*
G01*
X144136650Y-80376000D01*
X143587006Y-80376000D01*
X143587006Y-80472915D01*
X144136650Y-80472915D01*
G37*
G36*
X143309351Y-80616725D02*
G01*
X143265387Y-80238442D01*
X143137990Y-80238442D01*
X143203838Y-80616725D01*
X143309351Y-80616725D01*
G37*
G36*
X142169420Y-80472915D02*
G01*
X142169420Y-80376000D01*
X141619776Y-80376000D01*
X141619776Y-80472915D01*
X142169420Y-80472915D01*
G37*
G36*
X141505861Y-80479168D02*
G01*
X141064075Y-79491254D01*
X140947620Y-79491254D01*
X141389406Y-80479168D01*
X141505861Y-80479168D01*
G37*
G36*
X140194375Y-80479168D02*
G01*
X139752588Y-79491254D01*
X139636133Y-79491254D01*
X140077920Y-80479168D01*
X140194375Y-80479168D01*
G37*
G36*
X139546448Y-80472915D02*
G01*
X139546448Y-80376000D01*
X138996803Y-80376000D01*
X138996803Y-80472915D01*
X139546448Y-80472915D01*
G37*
G36*
X138882889Y-80479168D02*
G01*
X138441102Y-79491254D01*
X138324647Y-79491254D01*
X138766434Y-80479168D01*
X138882889Y-80479168D01*
G37*
G36*
X137571402Y-80479168D02*
G01*
X137129616Y-79491254D01*
X137013161Y-79491254D01*
X137454947Y-80479168D01*
X137571402Y-80479168D01*
G37*
G36*
X136259916Y-80479168D02*
G01*
X135818129Y-79491254D01*
X135701674Y-79491254D01*
X136143461Y-80479168D01*
X136259916Y-80479168D01*
G37*
G36*
X135392170Y-80547556D02*
G01*
X135392170Y-79425211D01*
X135282163Y-79425211D01*
X135282163Y-80547556D01*
X135392170Y-80547556D01*
G37*
G36*
X133636943Y-80479168D02*
G01*
X133195157Y-79491254D01*
X133078702Y-79491254D01*
X133520488Y-80479168D01*
X133636943Y-80479168D01*
G37*
G36*
X173637278Y-81823168D02*
G01*
X173195491Y-80835254D01*
X173079036Y-80835254D01*
X173520823Y-81823168D01*
X173637278Y-81823168D01*
G37*
G36*
X172989351Y-81816915D02*
G01*
X172989351Y-81720000D01*
X172439706Y-81720000D01*
X172439706Y-81816915D01*
X172989351Y-81816915D01*
G37*
G36*
X172325792Y-81823168D02*
G01*
X171884005Y-80835254D01*
X171767550Y-80835254D01*
X172209337Y-81823168D01*
X172325792Y-81823168D01*
G37*
G36*
X171014305Y-81823168D02*
G01*
X170572519Y-80835254D01*
X170456064Y-80835254D01*
X170897850Y-81823168D01*
X171014305Y-81823168D01*
G37*
G36*
X170366378Y-81816915D02*
G01*
X170366378Y-81720000D01*
X169816734Y-81720000D01*
X169816734Y-81816915D01*
X170366378Y-81816915D01*
G37*
G36*
X169702819Y-81823168D02*
G01*
X169261032Y-80835254D01*
X169144577Y-80835254D01*
X169586364Y-81823168D01*
X169702819Y-81823168D01*
G37*
G36*
X169054891Y-81816915D02*
G01*
X169054891Y-81720000D01*
X168505247Y-81720000D01*
X168505247Y-81816915D01*
X169054891Y-81816915D01*
G37*
G36*
X168399148Y-81816915D02*
G01*
X168399148Y-81720000D01*
X167849504Y-81720000D01*
X167849504Y-81816915D01*
X168399148Y-81816915D01*
G37*
G36*
X167743405Y-81816915D02*
G01*
X167743405Y-81720000D01*
X167193761Y-81720000D01*
X167193761Y-81816915D01*
X167743405Y-81816915D01*
G37*
G36*
X167087662Y-81816915D02*
G01*
X167087662Y-81720000D01*
X166538018Y-81720000D01*
X166538018Y-81816915D01*
X167087662Y-81816915D01*
G37*
G36*
X166431919Y-81816915D02*
G01*
X166431919Y-81720000D01*
X165882274Y-81720000D01*
X165882274Y-81816915D01*
X166431919Y-81816915D01*
G37*
G36*
X165768360Y-81823168D02*
G01*
X165326573Y-80835254D01*
X165210118Y-80835254D01*
X165651905Y-81823168D01*
X165768360Y-81823168D01*
G37*
G36*
X165120432Y-81816915D02*
G01*
X165120432Y-81720000D01*
X164570788Y-81720000D01*
X164570788Y-81816915D01*
X165120432Y-81816915D01*
G37*
G36*
X164456873Y-81823168D02*
G01*
X164015087Y-80835254D01*
X163898632Y-80835254D01*
X164340418Y-81823168D01*
X164456873Y-81823168D01*
G37*
G36*
X160522414Y-81823168D02*
G01*
X160080628Y-80835254D01*
X159964173Y-80835254D01*
X160405959Y-81823168D01*
X160522414Y-81823168D01*
G37*
G36*
X159874487Y-81816915D02*
G01*
X159874487Y-81720000D01*
X159324842Y-81720000D01*
X159324842Y-81816915D01*
X159874487Y-81816915D01*
G37*
G36*
X159210928Y-81823168D02*
G01*
X158769141Y-80835254D01*
X158652686Y-80835254D01*
X159094473Y-81823168D01*
X159210928Y-81823168D01*
G37*
G36*
X157899441Y-81823168D02*
G01*
X157457655Y-80835254D01*
X157341200Y-80835254D01*
X157782986Y-81823168D01*
X157899441Y-81823168D01*
G37*
G36*
X157251514Y-81816915D02*
G01*
X157251514Y-81720000D01*
X156701870Y-81720000D01*
X156701870Y-81816915D01*
X157251514Y-81816915D01*
G37*
G36*
X156587955Y-81823168D02*
G01*
X156146168Y-80835254D01*
X156029713Y-80835254D01*
X156471500Y-81823168D01*
X156587955Y-81823168D01*
G37*
G36*
X154408722Y-81891556D02*
G01*
X154408722Y-80769211D01*
X154298715Y-80769211D01*
X154298715Y-81891556D01*
X154408722Y-81891556D01*
G37*
G36*
X153972798Y-81816915D02*
G01*
X153972798Y-81720000D01*
X153423154Y-81720000D01*
X153423154Y-81816915D01*
X153972798Y-81816915D01*
G37*
G36*
X152891681Y-81823168D02*
G01*
X153333468Y-80835254D01*
X153217013Y-80835254D01*
X152775226Y-81823168D01*
X152891681Y-81823168D01*
G37*
G36*
X152661311Y-81816915D02*
G01*
X152661311Y-81720000D01*
X152111667Y-81720000D01*
X152111667Y-81816915D01*
X152661311Y-81816915D01*
G37*
G36*
X152005568Y-81816915D02*
G01*
X152005568Y-81720000D01*
X151455924Y-81720000D01*
X151455924Y-81816915D01*
X152005568Y-81816915D01*
G37*
G36*
X151349825Y-81816915D02*
G01*
X151349825Y-81720000D01*
X150800181Y-81720000D01*
X150800181Y-81816915D01*
X151349825Y-81816915D01*
G37*
G36*
X150694082Y-81816915D02*
G01*
X150694082Y-81720000D01*
X150144438Y-81720000D01*
X150144438Y-81816915D01*
X150694082Y-81816915D01*
G37*
G36*
X150030523Y-81823168D02*
G01*
X149588736Y-80835254D01*
X149472281Y-80835254D01*
X149914068Y-81823168D01*
X150030523Y-81823168D01*
G37*
G36*
X149382595Y-81816915D02*
G01*
X149382595Y-81720000D01*
X148832951Y-81720000D01*
X148832951Y-81816915D01*
X149382595Y-81816915D01*
G37*
G36*
X148719036Y-81823168D02*
G01*
X148277250Y-80835254D01*
X148160795Y-80835254D01*
X148602581Y-81823168D01*
X148719036Y-81823168D01*
G37*
G36*
X147407550Y-81823168D02*
G01*
X146965764Y-80835254D01*
X146849309Y-80835254D01*
X147291095Y-81823168D01*
X147407550Y-81823168D01*
G37*
G36*
X146759623Y-81816915D02*
G01*
X146759623Y-81720000D01*
X146209979Y-81720000D01*
X146209979Y-81816915D01*
X146759623Y-81816915D01*
G37*
G36*
X146096064Y-81823168D02*
G01*
X145654277Y-80835254D01*
X145537822Y-80835254D01*
X145979609Y-81823168D01*
X146096064Y-81823168D01*
G37*
G36*
X145448136Y-81816915D02*
G01*
X145448136Y-81720000D01*
X144898492Y-81720000D01*
X144898492Y-81816915D01*
X145448136Y-81816915D01*
G37*
G36*
X144784577Y-81823168D02*
G01*
X144342791Y-80835254D01*
X144226336Y-80835254D01*
X144668122Y-81823168D01*
X144784577Y-81823168D01*
G37*
G36*
X143261088Y-81891556D02*
G01*
X143261088Y-80769211D01*
X143151081Y-80769211D01*
X143151081Y-81891556D01*
X143261088Y-81891556D01*
G37*
G36*
X142825163Y-81816915D02*
G01*
X142825163Y-81720000D01*
X142275519Y-81720000D01*
X142275519Y-81816915D01*
X142825163Y-81816915D01*
G37*
G36*
X141949602Y-81891556D02*
G01*
X141949602Y-80769211D01*
X141839595Y-80769211D01*
X141839595Y-81891556D01*
X141949602Y-81891556D01*
G37*
G36*
X141088304Y-81823168D02*
G01*
X141530090Y-80835254D01*
X141413635Y-80835254D01*
X140971849Y-81823168D01*
X141088304Y-81823168D01*
G37*
G36*
X140857934Y-81816915D02*
G01*
X140857934Y-81720000D01*
X140308290Y-81720000D01*
X140308290Y-81816915D01*
X140857934Y-81816915D01*
G37*
G36*
X140202191Y-81816915D02*
G01*
X140202191Y-81720000D01*
X139652547Y-81720000D01*
X139652547Y-81816915D01*
X140202191Y-81816915D01*
G37*
G36*
X139546448Y-81816915D02*
G01*
X139546448Y-81720000D01*
X138996803Y-81720000D01*
X138996803Y-81816915D01*
X139546448Y-81816915D01*
G37*
G36*
X138890704Y-81816915D02*
G01*
X138890704Y-81720000D01*
X138341060Y-81720000D01*
X138341060Y-81816915D01*
X138890704Y-81816915D01*
G37*
G36*
X138227145Y-81823168D02*
G01*
X137785359Y-80835254D01*
X137668904Y-80835254D01*
X138110690Y-81823168D01*
X138227145Y-81823168D01*
G37*
G36*
X137579218Y-81816915D02*
G01*
X137579218Y-81720000D01*
X137029574Y-81720000D01*
X137029574Y-81816915D01*
X137579218Y-81816915D01*
G37*
G36*
X136915659Y-81823168D02*
G01*
X136473872Y-80835254D01*
X136357418Y-80835254D01*
X136799204Y-81823168D01*
X136915659Y-81823168D01*
G37*
G36*
X135392170Y-81891556D02*
G01*
X135392170Y-80769211D01*
X135282163Y-80769211D01*
X135282163Y-81891556D01*
X135392170Y-81891556D01*
G37*
G36*
X134956245Y-81816915D02*
G01*
X134956245Y-81720000D01*
X134406601Y-81720000D01*
X134406601Y-81816915D01*
X134956245Y-81816915D01*
G37*
G36*
X134292686Y-81823168D02*
G01*
X133850900Y-80835254D01*
X133734445Y-80835254D01*
X134176231Y-81823168D01*
X134292686Y-81823168D01*
G37*
M02*
