%TF.GenerationSoftware,KiCad,Pcbnew,7.0.7*%
%TF.CreationDate,2024-04-20T23:27:06+02:00*%
%TF.ProjectId,Heptachron,48657074-6163-4687-926f-6e2e6b696361,rev?*%
%TF.SameCoordinates,Original*%
%TF.FileFunction,Copper,L2,Bot*%
%TF.FilePolarity,Positive*%
%FSLAX46Y46*%
G04 Gerber Fmt 4.6, Leading zero omitted, Abs format (unit mm)*
G04 Created by KiCad (PCBNEW 7.0.7) date 2024-04-20 23:27:06*
%MOMM*%
%LPD*%
G01*
G04 APERTURE LIST*
G04 Aperture macros list*
%AMRoundRect*
0 Rectangle with rounded corners*
0 $1 Rounding radius*
0 $2 $3 $4 $5 $6 $7 $8 $9 X,Y pos of 4 corners*
0 Add a 4 corners polygon primitive as box body*
4,1,4,$2,$3,$4,$5,$6,$7,$8,$9,$2,$3,0*
0 Add four circle primitives for the rounded corners*
1,1,$1+$1,$2,$3*
1,1,$1+$1,$4,$5*
1,1,$1+$1,$6,$7*
1,1,$1+$1,$8,$9*
0 Add four rect primitives between the rounded corners*
20,1,$1+$1,$2,$3,$4,$5,0*
20,1,$1+$1,$4,$5,$6,$7,0*
20,1,$1+$1,$6,$7,$8,$9,0*
20,1,$1+$1,$8,$9,$2,$3,0*%
G04 Aperture macros list end*
%TA.AperFunction,ComponentPad*%
%ADD10C,0.800000*%
%TD*%
%TA.AperFunction,ComponentPad*%
%ADD11C,2.750000*%
%TD*%
%TA.AperFunction,SMDPad,CuDef*%
%ADD12RoundRect,0.250000X0.250000X0.475000X-0.250000X0.475000X-0.250000X-0.475000X0.250000X-0.475000X0*%
%TD*%
%TA.AperFunction,SMDPad,CuDef*%
%ADD13RoundRect,0.200000X0.200000X0.275000X-0.200000X0.275000X-0.200000X-0.275000X0.200000X-0.275000X0*%
%TD*%
%TA.AperFunction,SMDPad,CuDef*%
%ADD14RoundRect,0.250000X0.750000X-0.250000X0.750000X0.250000X-0.750000X0.250000X-0.750000X-0.250000X0*%
%TD*%
%TA.AperFunction,SMDPad,CuDef*%
%ADD15RoundRect,0.150000X0.825000X0.150000X-0.825000X0.150000X-0.825000X-0.150000X0.825000X-0.150000X0*%
%TD*%
%TA.AperFunction,SMDPad,CuDef*%
%ADD16RoundRect,0.250000X-0.750000X0.250000X-0.750000X-0.250000X0.750000X-0.250000X0.750000X0.250000X0*%
%TD*%
%TA.AperFunction,SMDPad,CuDef*%
%ADD17RoundRect,0.225000X0.250000X-0.225000X0.250000X0.225000X-0.250000X0.225000X-0.250000X-0.225000X0*%
%TD*%
%TA.AperFunction,SMDPad,CuDef*%
%ADD18R,1.600000X0.550000*%
%TD*%
%TA.AperFunction,SMDPad,CuDef*%
%ADD19R,0.550000X1.600000*%
%TD*%
%TA.AperFunction,SMDPad,CuDef*%
%ADD20RoundRect,0.225000X0.225000X0.250000X-0.225000X0.250000X-0.225000X-0.250000X0.225000X-0.250000X0*%
%TD*%
%TA.AperFunction,SMDPad,CuDef*%
%ADD21R,1.050000X0.500000*%
%TD*%
%TA.AperFunction,SMDPad,CuDef*%
%ADD22RoundRect,0.200000X-0.200000X-0.275000X0.200000X-0.275000X0.200000X0.275000X-0.200000X0.275000X0*%
%TD*%
%TA.AperFunction,SMDPad,CuDef*%
%ADD23RoundRect,0.225000X-0.225000X-0.250000X0.225000X-0.250000X0.225000X0.250000X-0.225000X0.250000X0*%
%TD*%
%TA.AperFunction,SMDPad,CuDef*%
%ADD24R,0.750000X0.200000*%
%TD*%
%TA.AperFunction,SMDPad,CuDef*%
%ADD25R,1.000000X1.600000*%
%TD*%
%TA.AperFunction,ViaPad*%
%ADD26C,0.500000*%
%TD*%
%TA.AperFunction,ViaPad*%
%ADD27C,0.800000*%
%TD*%
%TA.AperFunction,Conductor*%
%ADD28C,0.150000*%
%TD*%
%TA.AperFunction,Conductor*%
%ADD29C,0.300000*%
%TD*%
%TA.AperFunction,Conductor*%
%ADD30C,0.100000*%
%TD*%
G04 APERTURE END LIST*
D10*
%TO.P,SW2,SH1*%
%TO.N,N/C*%
X128000000Y-108825000D03*
%TO.P,SW2,SH2*%
X128000000Y-105175000D03*
%TD*%
D11*
%TO.P,H1,1*%
%TO.N,N/C*%
X164000000Y-109000000D03*
%TD*%
%TO.P,H4,1*%
%TO.N,N/C*%
X132000000Y-93000000D03*
%TD*%
%TO.P,H3,1*%
%TO.N,N/C*%
X132000000Y-109000000D03*
%TD*%
%TO.P,H2,1*%
%TO.N,N/C*%
X164000000Y-93000000D03*
%TD*%
D10*
%TO.P,SW1,SH1*%
%TO.N,N/C*%
X128000000Y-96825000D03*
%TO.P,SW1,SH2*%
X128000000Y-93175000D03*
%TD*%
D12*
%TO.P,C9,1*%
%TO.N,GND*%
X153435000Y-89905000D03*
%TO.P,C9,2*%
%TO.N,VCC*%
X151535000Y-89905000D03*
%TD*%
D13*
%TO.P,R1,1*%
%TO.N,GND*%
X137050000Y-103900000D03*
%TO.P,R1,2*%
%TO.N,Net-(X1-VBU)*%
X135400000Y-103900000D03*
%TD*%
D12*
%TO.P,C10,1*%
%TO.N,GND*%
X153435000Y-92015000D03*
%TO.P,C10,2*%
%TO.N,+BATT*%
X151535000Y-92015000D03*
%TD*%
D14*
%TO.P,J3,1,Pin_1*%
%TO.N,/UPDI*%
X159400000Y-106750000D03*
%TD*%
D15*
%TO.P,U8,1,VCC*%
%TO.N,VCC*%
X167250000Y-97190000D03*
%TO.P,U8,2,PA4*%
%TO.N,/{slash}CE*%
X167250000Y-98460000D03*
%TO.P,U8,3,PA5*%
%TO.N,/RTC_INT*%
X167250000Y-99730000D03*
%TO.P,U8,4,PA6*%
%TO.N,/BU1*%
X167250000Y-101000000D03*
%TO.P,U8,5,PA7*%
%TO.N,/BU2*%
X167250000Y-102270000D03*
%TO.P,U8,6,PB3*%
%TO.N,unconnected-(U8-PB3-Pad6)*%
X167250000Y-103540000D03*
%TO.P,U8,7,PB2*%
%TO.N,/LED_EN*%
X167250000Y-104810000D03*
%TO.P,U8,8,PB1*%
%TO.N,/SDA*%
X162300000Y-104810000D03*
%TO.P,U8,9,PB0*%
%TO.N,/SCL*%
X162300000Y-103540000D03*
%TO.P,U8,10,~{RESET}/PA0*%
%TO.N,/UPDI*%
X162300000Y-102270000D03*
%TO.P,U8,11,PA1*%
%TO.N,/LIGHT_IN*%
X162300000Y-101000000D03*
%TO.P,U8,12,PA2*%
%TO.N,/LIGHT_EN*%
X162300000Y-99730000D03*
%TO.P,U8,13,PA3*%
%TO.N,/RTC_CLK*%
X162300000Y-98460000D03*
%TO.P,U8,14,GND*%
%TO.N,GND*%
X162300000Y-97190000D03*
%TD*%
D16*
%TO.P,J5,1,Pin_1*%
%TO.N,GND*%
X138320000Y-92059338D03*
%TD*%
D14*
%TO.P,J2,1,Pin_1*%
%TO.N,GND*%
X159400000Y-112000000D03*
%TD*%
D13*
%TO.P,R14,1*%
%TO.N,VCC*%
X140190000Y-100045000D03*
%TO.P,R14,2*%
%TO.N,/SCL*%
X138540000Y-100045000D03*
%TD*%
%TO.P,R2,1*%
%TO.N,GND*%
X137050000Y-97950000D03*
%TO.P,R2,2*%
%TO.N,Net-(X1-EVI)*%
X135400000Y-97950000D03*
%TD*%
D17*
%TO.P,C1,1*%
%TO.N,GND*%
X133400000Y-101825000D03*
%TO.P,C1,2*%
%TO.N,VCC*%
X133400000Y-100275000D03*
%TD*%
D18*
%TO.P,U7,1,CS4*%
%TO.N,/CS4*%
X152250000Y-98200000D03*
%TO.P,U7,2,CS5*%
%TO.N,/CS5*%
X152250000Y-99000000D03*
%TO.P,U7,3,CS6*%
%TO.N,/CS6*%
X152250000Y-99800000D03*
%TO.P,U7,4,CS7*%
%TO.N,/CS7*%
X152250000Y-100600000D03*
%TO.P,U7,5,CS8*%
%TO.N,unconnected-(U7-CS8-Pad5)*%
X152250000Y-101400000D03*
%TO.P,U7,6,CS9*%
%TO.N,unconnected-(U7-CS9-Pad6)*%
X152250000Y-102200000D03*
%TO.P,U7,7,CS10*%
%TO.N,unconnected-(U7-CS10-Pad7)*%
X152250000Y-103000000D03*
%TO.P,U7,8,CS11*%
%TO.N,unconnected-(U7-CS11-Pad8)*%
X152250000Y-103800000D03*
D19*
%TO.P,U7,9,GND*%
%TO.N,GND*%
X150800000Y-105250000D03*
%TO.P,U7,10,CS12*%
%TO.N,unconnected-(U7-CS12-Pad10)*%
X150000000Y-105250000D03*
%TO.P,U7,11,CS13*%
%TO.N,unconnected-(U7-CS13-Pad11)*%
X149200000Y-105250000D03*
%TO.P,U7,12,CS14*%
%TO.N,unconnected-(U7-CS14-Pad12)*%
X148400000Y-105250000D03*
%TO.P,U7,13,CS15*%
%TO.N,unconnected-(U7-CS15-Pad13)*%
X147600000Y-105250000D03*
%TO.P,U7,14,CS16*%
%TO.N,unconnected-(U7-CS16-Pad14)*%
X146800000Y-105250000D03*
%TO.P,U7,15,SW8*%
%TO.N,unconnected-(U7-SW8-Pad15)*%
X146000000Y-105250000D03*
%TO.P,U7,16,SW7*%
%TO.N,unconnected-(U7-SW7-Pad16)*%
X145200000Y-105250000D03*
D18*
%TO.P,U7,17,SW6*%
%TO.N,unconnected-(U7-SW6-Pad17)*%
X143750000Y-103800000D03*
%TO.P,U7,18,SW5*%
%TO.N,/SW5*%
X143750000Y-103000000D03*
%TO.P,U7,19,SW4*%
%TO.N,/SW4*%
X143750000Y-102200000D03*
%TO.P,U7,20,SW3*%
%TO.N,/SW3*%
X143750000Y-101400000D03*
%TO.P,U7,21,SW2*%
%TO.N,/SW2*%
X143750000Y-100600000D03*
%TO.P,U7,22,SW1*%
%TO.N,/SW1*%
X143750000Y-99800000D03*
%TO.P,U7,23,VCC*%
%TO.N,VCC*%
X143750000Y-99000000D03*
%TO.P,U7,24,GND*%
%TO.N,GND*%
X143750000Y-98200000D03*
D19*
%TO.P,U7,25,ISET*%
%TO.N,Net-(U7-ISET)*%
X145200000Y-96750000D03*
%TO.P,U7,26,SDA*%
%TO.N,/SDA*%
X146000000Y-96750000D03*
%TO.P,U7,27,SCL*%
%TO.N,/SCL*%
X146800000Y-96750000D03*
%TO.P,U7,28,AD*%
%TO.N,GND*%
X147600000Y-96750000D03*
%TO.P,U7,29,SDB*%
%TO.N,/LED_EN*%
X148400000Y-96750000D03*
%TO.P,U7,30,CS1*%
%TO.N,/CS1*%
X149200000Y-96750000D03*
%TO.P,U7,31,CS2*%
%TO.N,/CS2*%
X150000000Y-96750000D03*
%TO.P,U7,32,CS3*%
%TO.N,/CS3*%
X150800000Y-96750000D03*
%TD*%
D16*
%TO.P,J4,1,Pin_1*%
%TO.N,+BATT*%
X138300662Y-89570000D03*
%TD*%
D20*
%TO.P,C7,1*%
%TO.N,VCC*%
X141775000Y-98450000D03*
%TO.P,C7,2*%
%TO.N,GND*%
X140225000Y-98450000D03*
%TD*%
D21*
%TO.P,X1,1,CLKOUT*%
%TO.N,/RTC_CLK*%
X136950000Y-99700000D03*
%TO.P,X1,2,INT*%
%TO.N,/RTC_INT*%
X136950000Y-100600000D03*
%TO.P,X1,3,SCL*%
%TO.N,/SCL*%
X136950000Y-101500000D03*
%TO.P,X1,4,SDA*%
%TO.N,/SDA*%
X136950000Y-102400000D03*
%TO.P,X1,5,VSS*%
%TO.N,GND*%
X135500000Y-102400000D03*
%TO.P,X1,6,VBU*%
%TO.N,Net-(X1-VBU)*%
X135500000Y-101500000D03*
%TO.P,X1,7,VDD*%
%TO.N,VCC*%
X135500000Y-100600000D03*
%TO.P,X1,8,EVI*%
%TO.N,Net-(X1-EVI)*%
X135500000Y-99700000D03*
%TD*%
D22*
%TO.P,R18,1*%
%TO.N,GND*%
X143172159Y-91926266D03*
%TO.P,R18,2*%
%TO.N,Net-(IC1-ISET)*%
X144822159Y-91926266D03*
%TD*%
%TO.P,R15,1*%
%TO.N,GND*%
X140125000Y-95700000D03*
%TO.P,R15,2*%
%TO.N,Net-(U7-ISET)*%
X141775000Y-95700000D03*
%TD*%
D13*
%TO.P,R13,1*%
%TO.N,VCC*%
X140190000Y-101685000D03*
%TO.P,R13,2*%
%TO.N,/SDA*%
X138540000Y-101685000D03*
%TD*%
D23*
%TO.P,C4,1*%
%TO.N,GND*%
X159390000Y-95565000D03*
%TO.P,C4,2*%
%TO.N,VCC*%
X160940000Y-95565000D03*
%TD*%
D12*
%TO.P,C8,1*%
%TO.N,+5V*%
X144735535Y-89858890D03*
%TO.P,C8,2*%
%TO.N,GND*%
X142835535Y-89858890D03*
%TD*%
D16*
%TO.P,J1,1,Pin_1*%
%TO.N,+5V*%
X159400000Y-109500000D03*
%TD*%
D24*
%TO.P,IC1,1,SYS*%
%TO.N,VCC*%
X149100000Y-90450000D03*
%TO.P,IC1,2,BAT*%
%TO.N,+BATT*%
X149100000Y-90850000D03*
%TO.P,IC1,3,STAT2*%
%TO.N,/STAT2*%
X149100000Y-91250000D03*
%TO.P,IC1,4,~{CE}*%
%TO.N,/{slash}CE*%
X149100000Y-91650000D03*
%TO.P,IC1,5,GND*%
%TO.N,GND*%
X149100000Y-92050000D03*
%TO.P,IC1,6,TS/MR*%
%TO.N,Net-(IC1-TS{slash}MR)*%
X146900000Y-92050000D03*
%TO.P,IC1,7,ILIM/VSET*%
%TO.N,Net-(IC1-ILIM{slash}VSET)*%
X146900000Y-91650000D03*
%TO.P,IC1,8,ISET*%
%TO.N,Net-(IC1-ISET)*%
X146900000Y-91250000D03*
%TO.P,IC1,9,STAT1*%
%TO.N,/STAT1*%
X146900000Y-90850000D03*
%TO.P,IC1,10,IN*%
%TO.N,+5V*%
X146900000Y-90450000D03*
D25*
%TO.P,IC1,11,EP*%
%TO.N,GND*%
X148000000Y-91250000D03*
%TD*%
D13*
%TO.P,R19,1*%
%TO.N,GND*%
X148806766Y-93833673D03*
%TO.P,R19,2*%
%TO.N,Net-(IC1-TS{slash}MR)*%
X147156766Y-93833673D03*
%TD*%
D22*
%TO.P,R17,1*%
%TO.N,GND*%
X143164935Y-93739063D03*
%TO.P,R17,2*%
%TO.N,Net-(IC1-ILIM{slash}VSET)*%
X144814935Y-93739063D03*
%TD*%
D26*
%TO.N,GND*%
X132350203Y-98890503D03*
X166490000Y-107690000D03*
X166540000Y-106180000D03*
%TO.N,VCC*%
X168449692Y-108512772D03*
X168020000Y-95550000D03*
X134120000Y-106840000D03*
X129710000Y-91420000D03*
%TO.N,GND*%
X145270000Y-94940000D03*
X146870000Y-94910000D03*
%TO.N,VCC*%
X160470000Y-89840000D03*
X152200000Y-90930000D03*
X150151906Y-94198619D03*
X151550000Y-96480000D03*
X147166274Y-97989696D03*
%TO.N,GND*%
X137590000Y-94590000D03*
X136170000Y-93755000D03*
%TO.N,VCC*%
X138410000Y-94590000D03*
X140401283Y-97373153D03*
X138160000Y-96380000D03*
%TO.N,GND*%
X158080200Y-107663776D03*
X157312282Y-105910000D03*
X154454213Y-109145969D03*
X149190000Y-109270000D03*
X144920000Y-109450000D03*
X144930000Y-112180000D03*
%TO.N,/CS3*%
X146464500Y-103100000D03*
X146010501Y-106939499D03*
X138655000Y-105200516D03*
X158012109Y-108703776D03*
X157889083Y-104986080D03*
%TO.N,/CS2*%
X158550000Y-99700000D03*
X139254119Y-94065000D03*
X134670002Y-99110000D03*
X165850000Y-106950000D03*
X157950500Y-109480000D03*
X167950000Y-106050000D03*
X146836193Y-100736193D03*
X148006455Y-107143599D03*
X149260613Y-95385000D03*
%TO.N,/CS1*%
X148469379Y-95335000D03*
X156930000Y-97060000D03*
X151852805Y-105719630D03*
%TO.N,/SW1*%
X141263807Y-107436193D03*
%TO.N,/SW2*%
X152117789Y-106858294D03*
%TO.N,/SW3*%
X145121378Y-102706879D03*
%TO.N,/SW4*%
X142085500Y-106570445D03*
%TO.N,/SW5*%
X147191710Y-99414096D03*
X144000000Y-106571340D03*
X147252746Y-104016479D03*
%TO.N,GND*%
X130400000Y-112250000D03*
X150051632Y-89450000D03*
X155400000Y-108350000D03*
X161350000Y-108900000D03*
X137250000Y-110010000D03*
X129450000Y-104800000D03*
X132500000Y-111200000D03*
X127900000Y-94700000D03*
X156000000Y-105199998D03*
X133900000Y-91550000D03*
X136700000Y-108500000D03*
X155744808Y-89146344D03*
X128300000Y-98900000D03*
X159700000Y-108000000D03*
X129050142Y-92548069D03*
X133000000Y-90050000D03*
X162600000Y-110900000D03*
X153500000Y-105300000D03*
X137200000Y-106700000D03*
X136900000Y-91250000D03*
X142050000Y-91300000D03*
X135100000Y-110200000D03*
%TO.N,VCC*%
X149778977Y-90094719D03*
X140300000Y-107350000D03*
X150565000Y-90792987D03*
X134300000Y-92800000D03*
X135300000Y-94250000D03*
X134000000Y-95300000D03*
%TO.N,/CS5*%
X154000000Y-111700000D03*
X131925000Y-105775000D03*
X158785839Y-102185839D03*
X160000000Y-105810500D03*
X149264500Y-100704042D03*
X139775000Y-106037116D03*
X129070000Y-102520000D03*
X139641380Y-102854479D03*
X159830927Y-102467775D03*
%TO.N,/CS4*%
X152614500Y-95936075D03*
X154635130Y-95517666D03*
X156748971Y-104962623D03*
X159576301Y-105263217D03*
%TO.N,+BATT*%
X140050000Y-89190000D03*
X148060000Y-89049500D03*
D27*
%TO.N,+5V*%
X135838813Y-107566703D03*
X145950000Y-89615000D03*
X139650000Y-90700000D03*
X141700000Y-109845000D03*
D26*
%TO.N,/STAT2*%
X159606555Y-92432212D03*
%TO.N,/{slash}CE*%
X167025500Y-96000000D03*
X159480000Y-93110000D03*
%TO.N,/STAT1*%
X143950000Y-91000000D03*
%TO.N,/CS7*%
X133854189Y-99186046D03*
X166179122Y-95920878D03*
X148024618Y-100897062D03*
X155259133Y-93685000D03*
X138600000Y-93400000D03*
X165450000Y-99300000D03*
X153843216Y-101406074D03*
X154100000Y-99335000D03*
%TO.N,/CS6*%
X154878462Y-94794021D03*
X142900000Y-94800000D03*
X135025077Y-95675769D03*
X154882734Y-106222678D03*
X130914500Y-96150000D03*
X144100000Y-94800000D03*
X149445152Y-102212187D03*
X156200000Y-94800000D03*
%TO.N,/LIGHT_EN*%
X157155409Y-91555409D03*
X157021776Y-89775000D03*
X158610126Y-93410409D03*
%TO.N,/RTC_INT*%
X141200000Y-90975000D03*
X166900000Y-93250000D03*
%TO.N,/SDA*%
X145894946Y-92885932D03*
X132976900Y-96895943D03*
%TO.N,/SCL*%
X146582710Y-92837001D03*
X140099994Y-109050000D03*
X130578245Y-97300000D03*
X137311894Y-107740000D03*
%TO.N,/BU1*%
X165709769Y-102527402D03*
X128241116Y-95658884D03*
X167210000Y-110440000D03*
%TO.N,/BU2*%
X129465000Y-109450000D03*
%TO.N,/LED_EN*%
X163800056Y-98498699D03*
X157025000Y-94715000D03*
%TO.N,/RTC_CLK*%
X141140551Y-90287563D03*
X167025500Y-94945628D03*
%TO.N,/LIGHT_IN*%
X157923067Y-93344500D03*
X154655000Y-90455000D03*
X156610409Y-92040409D03*
%TD*%
D28*
%TO.N,/BU2*%
X168225000Y-102270000D02*
X167250000Y-102270000D01*
X168490000Y-102535000D02*
X168225000Y-102270000D01*
X168490000Y-107730001D02*
X168490000Y-102535000D01*
X166610000Y-109610001D02*
X168490000Y-107730001D01*
X166610000Y-110510000D02*
X166610000Y-109610001D01*
X164340000Y-112780000D02*
X166610000Y-110510000D01*
X164335000Y-112775000D02*
X164340000Y-112780000D01*
X143605833Y-112775000D02*
X164335000Y-112775000D01*
X132800000Y-112785000D02*
X143595833Y-112785000D01*
X129465000Y-109450000D02*
X132800000Y-112785000D01*
X143595833Y-112785000D02*
X143605833Y-112775000D01*
%TO.N,/BU1*%
X164525000Y-113125000D02*
X167210000Y-110440000D01*
X132375000Y-113125000D02*
X164525000Y-113125000D01*
X128950000Y-109700000D02*
X132375000Y-113125000D01*
X128950000Y-105120000D02*
X128950000Y-109700000D01*
X127725000Y-103895000D02*
X128950000Y-105120000D01*
X127725000Y-98125000D02*
X127725000Y-103895000D01*
X128665000Y-97185000D02*
X127725000Y-98125000D01*
X128241116Y-96125663D02*
X128665000Y-96549547D01*
X128241116Y-95658884D02*
X128241116Y-96125663D01*
X128665000Y-96549547D02*
X128665000Y-97185000D01*
%TO.N,/CS5*%
X129070000Y-102928309D02*
X129070000Y-102520000D01*
X131916691Y-105775000D02*
X129070000Y-102928309D01*
X131925000Y-105775000D02*
X131916691Y-105775000D01*
%TO.N,/LIGHT_EN*%
X159590000Y-96947108D02*
X158610126Y-95967234D01*
X162300000Y-99730000D02*
X160480000Y-99730000D01*
X160480000Y-99730000D02*
X159590000Y-98840000D01*
X159590000Y-98840000D02*
X159590000Y-96947108D01*
X158610126Y-95967234D02*
X158610126Y-93410409D01*
%TO.N,/CS5*%
X154615000Y-98626680D02*
X156716680Y-96525000D01*
%TO.N,/CS1*%
X154440832Y-106560000D02*
X152693175Y-106560000D01*
%TO.N,/LIGHT_IN*%
X157450000Y-93817567D02*
X157450000Y-94411680D01*
%TO.N,/CS4*%
X159315927Y-103884073D02*
X159315927Y-101815927D01*
%TO.N,/LIGHT_IN*%
X157923067Y-93344500D02*
X157450000Y-93817567D01*
X157450000Y-94411680D02*
X157540000Y-94501680D01*
X157540000Y-94928320D02*
X157450000Y-95018320D01*
%TO.N,/CS4*%
X158900000Y-104300000D02*
X159315927Y-103884073D01*
%TO.N,/LIGHT_IN*%
X157540000Y-94501680D02*
X157540000Y-94928320D01*
%TO.N,/CS4*%
X156636818Y-95517666D02*
X154635130Y-95517666D01*
%TO.N,/LIGHT_IN*%
X157450000Y-95018320D02*
X157450000Y-95770000D01*
X157450000Y-95770000D02*
X159250000Y-97570000D01*
X159250000Y-97570000D02*
X159250000Y-98980833D01*
X159250000Y-98980833D02*
X161269167Y-101000000D01*
X161269167Y-101000000D02*
X162300000Y-101000000D01*
%TO.N,/CS5*%
X154615000Y-99548320D02*
X154615000Y-98626680D01*
%TO.N,/CS4*%
X158750000Y-104300000D02*
X158900000Y-104300000D01*
%TO.N,/CS5*%
X152899768Y-99000000D02*
X153749768Y-99850000D01*
%TO.N,/CS4*%
X159315927Y-101815927D02*
X157825000Y-100325000D01*
%TO.N,/CS5*%
X153749768Y-99850000D02*
X154313320Y-99850000D01*
%TO.N,/CS4*%
X157825000Y-100325000D02*
X157825000Y-96705848D01*
X157825000Y-96705848D02*
X156636818Y-95517666D01*
%TO.N,/CS5*%
X152250000Y-99000000D02*
X152899768Y-99000000D01*
X154313320Y-99850000D02*
X154615000Y-99548320D01*
X157485000Y-100885000D02*
X158785839Y-102185839D01*
X156716680Y-96525000D02*
X157163320Y-96525000D01*
X157163320Y-96525000D02*
X157485000Y-96846680D01*
X157485000Y-96846680D02*
X157485000Y-100885000D01*
%TO.N,/CS1*%
X152693175Y-106560000D02*
X151852805Y-105719630D01*
X154645832Y-106765000D02*
X154440832Y-106560000D01*
X155113320Y-106765000D02*
X154645832Y-106765000D01*
X155400938Y-106477382D02*
X155113320Y-106765000D01*
X155400938Y-98589062D02*
X155400938Y-106477382D01*
X156930000Y-97060000D02*
X155400938Y-98589062D01*
%TO.N,/LED_EN*%
X155480500Y-93170500D02*
X157025000Y-94715000D01*
X155006027Y-93170500D02*
X155480500Y-93170500D01*
X150785873Y-93695000D02*
X154481527Y-93695000D01*
X149602161Y-93862521D02*
X149919681Y-93545001D01*
X149602161Y-94199632D02*
X149602161Y-93862521D01*
X154481527Y-93695000D02*
X155006027Y-93170500D01*
X148981793Y-94820000D02*
X149602161Y-94199632D01*
X149919681Y-93545001D02*
X150635873Y-93545001D01*
X147925000Y-95145000D02*
X148250000Y-94820000D01*
X148400000Y-96080380D02*
X147925000Y-95605380D01*
X148400000Y-96750000D02*
X148400000Y-96080380D01*
X148250000Y-94820000D02*
X148981793Y-94820000D01*
X147925000Y-95605380D02*
X147925000Y-95145000D01*
X150635873Y-93545001D02*
X150785873Y-93695000D01*
%TO.N,VCC*%
X167550000Y-94600000D02*
X167550000Y-96890000D01*
X167550000Y-96890000D02*
X167250000Y-97190000D01*
X167325000Y-94375000D02*
X167550000Y-94600000D01*
X165725000Y-94375000D02*
X167325000Y-94375000D01*
X164560000Y-95540000D02*
X165725000Y-94375000D01*
X160965000Y-95540000D02*
X164560000Y-95540000D01*
X160940000Y-95565000D02*
X160965000Y-95540000D01*
%TO.N,/CS7*%
X133854189Y-97304979D02*
X133854189Y-99186046D01*
X134968399Y-96190769D02*
X133854189Y-97304979D01*
X135238397Y-96190769D02*
X134968399Y-96190769D01*
X135540077Y-95129923D02*
X135540077Y-95889089D01*
X137270000Y-93400000D02*
X135540077Y-95129923D01*
X138600000Y-93400000D02*
X137270000Y-93400000D01*
X135540077Y-95889089D02*
X135238397Y-96190769D01*
%TO.N,VCC*%
X134000000Y-96615306D02*
X134000000Y-95300000D01*
X133329189Y-97286117D02*
X134000000Y-96615306D01*
X133329189Y-100204189D02*
X133329189Y-97286117D01*
X133400000Y-100275000D02*
X133329189Y-100204189D01*
%TO.N,/STAT1*%
X144091110Y-90858890D02*
X143950000Y-91000000D01*
X146900000Y-90850000D02*
X146891110Y-90858890D01*
%TO.N,/RTC_INT*%
X137740000Y-100085000D02*
X137740000Y-99420832D01*
X136950000Y-100600000D02*
X137225000Y-100600000D01*
X139140000Y-95240832D02*
X139460832Y-94920000D01*
X140109119Y-94419152D02*
X140109119Y-94271713D01*
%TO.N,/RTC_CLK*%
X140200000Y-93700000D02*
X140200000Y-91228114D01*
X139467439Y-94580000D02*
X139769119Y-94278320D01*
%TO.N,/RTC_INT*%
X139608271Y-94920000D02*
X140109119Y-94419152D01*
X140109119Y-94271713D02*
X140600000Y-93780832D01*
%TO.N,/RTC_CLK*%
X136950000Y-99700000D02*
X136950000Y-99300000D01*
%TO.N,/RTC_INT*%
X137740000Y-99420832D02*
X139140000Y-98020832D01*
%TO.N,/RTC_CLK*%
X136950000Y-99300000D02*
X138800000Y-97450000D01*
X138800000Y-95100000D02*
X139320000Y-94580000D01*
X138800000Y-97450000D02*
X138800000Y-95100000D01*
X139320000Y-94580000D02*
X139467439Y-94580000D01*
X139769119Y-94278320D02*
X139769119Y-94130881D01*
X139769119Y-94130881D02*
X140200000Y-93700000D01*
X140200000Y-91228114D02*
X141140551Y-90287563D01*
%TO.N,/RTC_INT*%
X137225000Y-100600000D02*
X137740000Y-100085000D01*
X139140000Y-98020832D02*
X139140000Y-95240832D01*
X139460832Y-94920000D02*
X139608271Y-94920000D01*
X140600000Y-93780832D02*
X140600000Y-91575000D01*
X140600000Y-91575000D02*
X141200000Y-90975000D01*
%TO.N,/STAT1*%
X146891110Y-90858890D02*
X144091110Y-90858890D01*
D29*
%TO.N,+5V*%
X144735535Y-89858890D02*
X144979425Y-89615000D01*
X144979425Y-89615000D02*
X145950000Y-89615000D01*
D28*
%TO.N,/CS2*%
X163296899Y-101705000D02*
X163540000Y-101948101D01*
X163540000Y-101948101D02*
X163540000Y-104640000D01*
X160555000Y-101705000D02*
X163296899Y-101705000D01*
X163540000Y-104640000D02*
X165850000Y-106950000D01*
X158550000Y-99700000D02*
X160555000Y-101705000D01*
%TO.N,/LED_EN*%
X166958100Y-104810000D02*
X167250000Y-104810000D01*
X165140000Y-99838643D02*
X165140000Y-102991900D01*
X165140000Y-102991900D02*
X166958100Y-104810000D01*
X163800056Y-98498699D02*
X165140000Y-99838643D01*
%TO.N,GND*%
X153435000Y-89905000D02*
X154193656Y-89146344D01*
%TO.N,/CS5*%
X139170000Y-105432116D02*
X139775000Y-106037116D01*
X139170000Y-103325859D02*
X139170000Y-105432116D01*
X139641380Y-102854479D02*
X139170000Y-103325859D01*
%TO.N,GND*%
X148475000Y-92050000D02*
X149100000Y-92050000D01*
X148000000Y-91250000D02*
X148000000Y-91575000D01*
X148000000Y-91575000D02*
X148475000Y-92050000D01*
%TO.N,/CS3*%
X154800000Y-107400000D02*
X156910000Y-107400000D01*
X156910000Y-107400000D02*
X157889083Y-106420917D01*
%TO.N,/CS4*%
X157411594Y-104300000D02*
X156748971Y-104962623D01*
X158750000Y-104300000D02*
X157411594Y-104300000D01*
%TO.N,/CS3*%
X157889083Y-106420917D02*
X157889083Y-104986080D01*
%TO.N,/CS2*%
X150622856Y-109760000D02*
X148006455Y-107143599D01*
X157670500Y-109760000D02*
X150622856Y-109760000D01*
X157950500Y-109480000D02*
X157670500Y-109760000D01*
%TO.N,/CS3*%
X156708333Y-107400000D02*
X158012109Y-108703776D01*
X154800000Y-107400000D02*
X156708333Y-107400000D01*
%TO.N,+BATT*%
X150760000Y-89855524D02*
X149765524Y-90850000D01*
X150760000Y-89217523D02*
X150760000Y-89855524D01*
X148184500Y-88925000D02*
X150467477Y-88925000D01*
X148060000Y-89049500D02*
X148184500Y-88925000D01*
X150467477Y-88925000D02*
X150760000Y-89217523D01*
X138300662Y-89570000D02*
X139670000Y-89570000D01*
X139670000Y-89570000D02*
X140050000Y-89190000D01*
%TO.N,/CS5*%
X150968542Y-99000000D02*
X152250000Y-99000000D01*
X149264500Y-100704042D02*
X150968542Y-99000000D01*
%TO.N,VCC*%
X147166274Y-97989696D02*
X146155970Y-99000000D01*
X146155970Y-99000000D02*
X143750000Y-99000000D01*
%TO.N,GND*%
X153155000Y-104955000D02*
X153500000Y-105300000D01*
X151095000Y-104955000D02*
X153155000Y-104955000D01*
X150800000Y-105250000D02*
X151095000Y-104955000D01*
%TO.N,/CS2*%
X134670002Y-96969998D02*
X134670002Y-99110000D01*
X135109231Y-96530769D02*
X134670002Y-96969998D01*
X135379229Y-96530769D02*
X135109231Y-96530769D01*
X135880077Y-96029921D02*
X135379229Y-96530769D01*
X135880077Y-95339923D02*
X135880077Y-96029921D01*
X139254119Y-94065000D02*
X137155000Y-94065000D01*
X137155000Y-94065000D02*
X135880077Y-95339923D01*
D29*
%TO.N,+5V*%
X141950000Y-110095000D02*
X141700000Y-109845000D01*
X150446815Y-110185000D02*
X150356815Y-110095000D01*
X157864906Y-110185000D02*
X150446815Y-110185000D01*
X159400000Y-109500000D02*
X158760567Y-110139433D01*
X158760567Y-110139433D02*
X157910474Y-110139433D01*
X157910474Y-110139433D02*
X157864906Y-110185000D01*
X150356815Y-110095000D02*
X141950000Y-110095000D01*
D28*
%TO.N,/CS5*%
X137765000Y-111615000D02*
X131925000Y-105775000D01*
X153915000Y-111615000D02*
X137765000Y-111615000D01*
X154000000Y-111700000D02*
X153915000Y-111615000D01*
%TO.N,/SCL*%
X161325000Y-103540000D02*
X162300000Y-103540000D01*
X161060000Y-105131900D02*
X161060000Y-103805000D01*
X161960000Y-106031900D02*
X161060000Y-105131900D01*
X161960000Y-109459168D02*
X161960000Y-106031900D01*
X160829168Y-110590000D02*
X161960000Y-109459168D01*
X158060947Y-110590000D02*
X160829168Y-110590000D01*
X158040943Y-110610002D02*
X158060947Y-110590000D01*
X157806222Y-110610000D02*
X158040943Y-110610002D01*
X150180775Y-110520000D02*
X150270777Y-110610001D01*
X139900832Y-110520000D02*
X150180775Y-110520000D01*
X150270777Y-110610001D02*
X157806222Y-110610000D01*
X139040416Y-109659584D02*
X139900832Y-110520000D01*
X161060000Y-103805000D02*
X161325000Y-103540000D01*
%TO.N,/{slash}CE*%
X159120000Y-92750000D02*
X159480000Y-93110000D01*
X157109971Y-92750000D02*
X159120000Y-92750000D01*
X156964562Y-92895409D02*
X157109971Y-92750000D01*
X156256257Y-92895409D02*
X156964562Y-92895409D01*
X154340695Y-93355000D02*
X154865195Y-92830500D01*
X149750000Y-92178295D02*
X150926706Y-93355000D01*
X149750000Y-91836090D02*
X149750000Y-92178295D01*
X154865195Y-92830500D02*
X156191347Y-92830500D01*
X149563910Y-91650000D02*
X149750000Y-91836090D01*
X149100000Y-91650000D02*
X149563910Y-91650000D01*
X150926706Y-93355000D02*
X154340695Y-93355000D01*
X156191347Y-92830500D02*
X156256257Y-92895409D01*
%TO.N,/STAT2*%
X149644743Y-91250000D02*
X149100000Y-91250000D01*
X150090000Y-91695257D02*
X149644743Y-91250000D01*
X150090000Y-92037462D02*
X150090000Y-91695257D01*
X151067538Y-93015000D02*
X150090000Y-92037462D01*
X156823729Y-92555409D02*
X156397089Y-92555409D01*
X156332180Y-92490500D02*
X154426964Y-92490500D01*
X153902464Y-93015000D02*
X151067538Y-93015000D01*
X156969138Y-92410000D02*
X156823729Y-92555409D01*
X156397089Y-92555409D02*
X156332180Y-92490500D01*
X159584343Y-92410000D02*
X156969138Y-92410000D01*
X154426964Y-92490500D02*
X153902464Y-93015000D01*
X159606555Y-92432212D02*
X159584343Y-92410000D01*
%TO.N,VCC*%
X138160000Y-94840000D02*
X138410000Y-94590000D01*
X138160000Y-96380000D02*
X138160000Y-94840000D01*
%TO.N,+BATT*%
X149794974Y-90850000D02*
X149100000Y-90850000D01*
X149794974Y-90905256D02*
X149794974Y-90850000D01*
X151535000Y-92015000D02*
X150904718Y-92015000D01*
X150904718Y-92015000D02*
X149794974Y-90905256D01*
%TO.N,/CS1*%
X148482293Y-95335000D02*
X148469379Y-95335000D01*
X149200000Y-96052707D02*
X148482293Y-95335000D01*
X149200000Y-96750000D02*
X149200000Y-96052707D01*
D30*
%TO.N,VCC*%
X129578245Y-102298245D02*
X134120000Y-106840000D01*
X129710000Y-91420000D02*
X129578245Y-91551755D01*
X129578245Y-91551755D02*
X129578245Y-102298245D01*
D28*
%TO.N,/SCL*%
X131110000Y-97831755D02*
X130578245Y-97300000D01*
X137311894Y-107740000D02*
X137136894Y-107565000D01*
D29*
%TO.N,+5V*%
X129978245Y-101706135D02*
X135838813Y-107566703D01*
X130110000Y-95745686D02*
X129978245Y-95877440D01*
X130110000Y-92445685D02*
X130110000Y-95745686D01*
X131905685Y-90650000D02*
X130110000Y-92445685D01*
X139650000Y-90700000D02*
X139600000Y-90650000D01*
D28*
%TO.N,/SCL*%
X136791705Y-107565000D02*
X131110000Y-101883295D01*
X137136894Y-107565000D02*
X136791705Y-107565000D01*
%TO.N,GND*%
X129050000Y-98150000D02*
X128300000Y-98900000D01*
X128024696Y-94700000D02*
X128855000Y-95530304D01*
D29*
%TO.N,+5V*%
X139600000Y-90650000D02*
X131905685Y-90650000D01*
D28*
%TO.N,GND*%
X128855000Y-95530304D02*
X128855000Y-96234620D01*
X127900000Y-94700000D02*
X128024696Y-94700000D01*
%TO.N,/SCL*%
X131110000Y-101883295D02*
X131110000Y-97831755D01*
%TO.N,GND*%
X128855000Y-96234620D02*
X129050000Y-96429620D01*
X129050000Y-96429620D02*
X129050000Y-98150000D01*
D29*
%TO.N,+5V*%
X129978245Y-95877440D02*
X129978245Y-101706135D01*
D30*
%TO.N,GND*%
X147600000Y-95640000D02*
X146870000Y-94910000D01*
X147600000Y-96750000D02*
X147600000Y-95640000D01*
D28*
%TO.N,/SCL*%
X146800000Y-95800000D02*
X146800000Y-96750000D01*
X146325000Y-95325000D02*
X146800000Y-95800000D01*
X146325000Y-94702537D02*
X146325000Y-95325000D01*
X146491766Y-94535771D02*
X146325000Y-94702537D01*
X146582710Y-92837001D02*
X146491766Y-92927945D01*
X146491766Y-92927945D02*
X146491766Y-94535771D01*
%TO.N,/SDA*%
X145894946Y-96644946D02*
X146000000Y-96750000D01*
X145894946Y-92885932D02*
X145894946Y-96644946D01*
%TO.N,VCC*%
X160470000Y-89840000D02*
X161510000Y-90880000D01*
X161510000Y-94995000D02*
X160940000Y-95565000D01*
X161510000Y-90880000D02*
X161510000Y-94995000D01*
%TO.N,/LIGHT_EN*%
X157021776Y-91421776D02*
X157021776Y-89775000D01*
%TO.N,GND*%
X154193656Y-89146344D02*
X155744808Y-89146344D01*
%TO.N,/LIGHT_EN*%
X157155409Y-91555409D02*
X157021776Y-91421776D01*
%TO.N,/LIGHT_IN*%
X156610409Y-92040409D02*
X155025000Y-90455000D01*
X155025000Y-90455000D02*
X154655000Y-90455000D01*
%TO.N,/CS7*%
X154077122Y-94867011D02*
X155259133Y-93685000D01*
X154077122Y-99312122D02*
X154077122Y-94867011D01*
X154100000Y-99335000D02*
X154077122Y-99312122D01*
%TO.N,/CS6*%
X154884441Y-94800000D02*
X154878462Y-94794021D01*
X156200000Y-94800000D02*
X154884441Y-94800000D01*
%TO.N,VCC*%
X151550000Y-95596713D02*
X150151906Y-94198619D01*
X151550000Y-96480000D02*
X151550000Y-95596713D01*
%TO.N,/CS2*%
X149585000Y-95385000D02*
X149260613Y-95385000D01*
X150000000Y-95800000D02*
X149585000Y-95385000D01*
X150000000Y-96750000D02*
X150000000Y-95800000D01*
%TO.N,/CS4*%
X152250000Y-96300575D02*
X152250000Y-98200000D01*
X152614500Y-95936075D02*
X152250000Y-96300575D01*
%TO.N,VCC*%
X151535000Y-90265000D02*
X152200000Y-90930000D01*
X151535000Y-89905000D02*
X151535000Y-90265000D01*
%TO.N,/CS6*%
X135025077Y-95582614D02*
X135025077Y-95675769D01*
X134217463Y-94775000D02*
X135025077Y-95582614D01*
X132289500Y-94775000D02*
X134217463Y-94775000D01*
X130914500Y-96150000D02*
X132289500Y-94775000D01*
D30*
%TO.N,GND*%
X139901283Y-98126283D02*
X140225000Y-98450000D01*
X139901283Y-95923717D02*
X139901283Y-98126283D01*
X140125000Y-95700000D02*
X139901283Y-95923717D01*
D28*
%TO.N,VCC*%
X140401283Y-97373153D02*
X140698153Y-97373153D01*
X140698153Y-97373153D02*
X141775000Y-98450000D01*
%TO.N,/CS5*%
X160091301Y-105719199D02*
X160091301Y-102728149D01*
%TO.N,/CS4*%
X159576301Y-105126301D02*
X159576301Y-105263217D01*
X158750000Y-104300000D02*
X159576301Y-105126301D01*
%TO.N,/CS5*%
X160091301Y-102728149D02*
X159830927Y-102467775D01*
X160000000Y-105810500D02*
X160091301Y-105719199D01*
%TO.N,/CS6*%
X153050000Y-99800000D02*
X152250000Y-99800000D01*
X154885938Y-101635938D02*
X153050000Y-99800000D01*
X154885938Y-106219474D02*
X154885938Y-101635938D01*
X154882734Y-106222678D02*
X154885938Y-106219474D01*
%TO.N,/CS3*%
X146010501Y-106939499D02*
X144950000Y-108000000D01*
X147509618Y-102054882D02*
X147509618Y-100683742D01*
X146295000Y-106655000D02*
X146010501Y-106939499D01*
X152317400Y-107392072D02*
X151890760Y-107392072D01*
X151163688Y-106665000D02*
X150270257Y-106665000D01*
X147509618Y-100683742D02*
X150378360Y-97815000D01*
X150384768Y-97815000D02*
X150800000Y-97399768D01*
X150260257Y-106655000D02*
X146295000Y-106655000D01*
X140207537Y-108000000D02*
X138655000Y-106447463D01*
X150800000Y-97399768D02*
X150800000Y-96750000D01*
X150270257Y-106665000D02*
X150260257Y-106655000D01*
X154800000Y-107400000D02*
X154300000Y-106900000D01*
X152809472Y-106900000D02*
X152317400Y-107392072D01*
X154300000Y-106900000D02*
X152809472Y-106900000D01*
X151890760Y-107392072D02*
X151163688Y-106665000D01*
X146464500Y-103100000D02*
X147509618Y-102054882D01*
X138655000Y-106447463D02*
X138655000Y-105200516D01*
X150378360Y-97815000D02*
X150384768Y-97815000D01*
X144950000Y-108000000D02*
X140207537Y-108000000D01*
%TO.N,/CS2*%
X146836193Y-100713807D02*
X150000000Y-97550000D01*
X150000000Y-97550000D02*
X150000000Y-96750000D01*
X167050000Y-106950000D02*
X167950000Y-106050000D01*
X146836193Y-100713807D02*
X146836193Y-100736193D01*
X165850000Y-106950000D02*
X167050000Y-106950000D01*
%TO.N,/SW1*%
X142700000Y-99800000D02*
X143750000Y-99800000D01*
X141230500Y-101269500D02*
X142700000Y-99800000D01*
X141263807Y-107436193D02*
X141230500Y-107402886D01*
X141230500Y-107402886D02*
X141230500Y-101269500D01*
%TO.N,/SW2*%
X141570500Y-101979500D02*
X141570500Y-106783765D01*
X150411090Y-106325000D02*
X151584495Y-106325000D01*
X148000000Y-106299768D02*
X148015232Y-106315000D01*
X151584495Y-106325000D02*
X152117789Y-106858294D01*
X141570500Y-106783765D02*
X141872575Y-107085840D01*
X148015232Y-106315000D02*
X150401090Y-106315000D01*
X142950000Y-100600000D02*
X141570500Y-101979500D01*
X141872575Y-107085840D02*
X145135840Y-107085840D01*
X143750000Y-100600000D02*
X142950000Y-100600000D01*
X145135840Y-107085840D02*
X145906680Y-106315000D01*
X150401090Y-106315000D02*
X150411090Y-106325000D01*
X145906680Y-106315000D02*
X147984768Y-106315000D01*
X147984768Y-106315000D02*
X148000000Y-106299768D01*
%TO.N,/SW3*%
X145121378Y-102706879D02*
X145121378Y-101971378D01*
X145121378Y-101971378D02*
X144550000Y-101400000D01*
X144550000Y-101400000D02*
X143750000Y-101400000D01*
%TO.N,/SW4*%
X142950000Y-102200000D02*
X142300000Y-102850000D01*
X142300000Y-102850000D02*
X142300000Y-106355945D01*
X142300000Y-106355945D02*
X142085500Y-106570445D01*
X143750000Y-102200000D02*
X142950000Y-102200000D01*
%TO.N,/SW5*%
X145950000Y-100655806D02*
X145950000Y-103750000D01*
X147191710Y-99414096D02*
X145950000Y-100655806D01*
X145300000Y-103750000D02*
X145250232Y-103750000D01*
X145250232Y-103750000D02*
X144000000Y-105000232D01*
X147252746Y-104016479D02*
X146986267Y-103750000D01*
X145300000Y-103750000D02*
X144550000Y-103000000D01*
X145950000Y-103750000D02*
X145300000Y-103750000D01*
X146986267Y-103750000D02*
X145950000Y-103750000D01*
X144000000Y-105000232D02*
X144000000Y-106571340D01*
X144550000Y-103000000D02*
X143750000Y-103000000D01*
%TO.N,GND*%
X153435000Y-92015000D02*
X153435000Y-89905000D01*
X161015000Y-97190000D02*
X162300000Y-97190000D01*
X142835535Y-89858890D02*
X142835535Y-91589642D01*
X143172159Y-91926266D02*
X143172159Y-93731839D01*
X149100000Y-92050000D02*
X148806766Y-92343234D01*
X137050000Y-106550000D02*
X137200000Y-106700000D01*
X137000000Y-103900000D02*
X135500000Y-102400000D01*
X160450000Y-108000000D02*
X161350000Y-108900000D01*
X138320000Y-92059338D02*
X137510662Y-91250000D01*
X142835535Y-91589642D02*
X143172159Y-91926266D01*
X148806766Y-92343234D02*
X148806766Y-93833673D01*
X143172159Y-93731839D02*
X143164935Y-93739063D01*
X137510662Y-91250000D02*
X136900000Y-91250000D01*
X148000000Y-91250000D02*
X148000000Y-90450000D01*
X159390000Y-95565000D02*
X161015000Y-97190000D01*
X149000000Y-89450000D02*
X150051632Y-89450000D01*
X136300000Y-104650000D02*
X135000000Y-104650000D01*
X133400000Y-103050000D02*
X133400000Y-101825000D01*
X137050000Y-103900000D02*
X137050000Y-106550000D01*
X137050000Y-103900000D02*
X136300000Y-104650000D01*
X135000000Y-104650000D02*
X133400000Y-103050000D01*
X159700000Y-108000000D02*
X160450000Y-108000000D01*
X148000000Y-90450000D02*
X149000000Y-89450000D01*
%TO.N,VCC*%
X149455281Y-90094719D02*
X149778977Y-90094719D01*
X140190000Y-100045000D02*
X140190000Y-101685000D01*
X133725000Y-100600000D02*
X133400000Y-100275000D01*
X150647013Y-90792987D02*
X150565000Y-90792987D01*
X142325000Y-99000000D02*
X143750000Y-99000000D01*
X149100000Y-90450000D02*
X149455281Y-90094719D01*
X151535000Y-89905000D02*
X150647013Y-90792987D01*
X135300000Y-93800000D02*
X134300000Y-92800000D01*
X140300000Y-101795000D02*
X140300000Y-107350000D01*
X135300000Y-94250000D02*
X135300000Y-93800000D01*
X135500000Y-100600000D02*
X133725000Y-100600000D01*
X140190000Y-100035000D02*
X141775000Y-98450000D01*
X140190000Y-100045000D02*
X140190000Y-100035000D01*
X141775000Y-98450000D02*
X142325000Y-99000000D01*
X140190000Y-101685000D02*
X140300000Y-101795000D01*
%TO.N,+5V*%
X145326645Y-90450000D02*
X146900000Y-90450000D01*
X144735535Y-89858890D02*
X145326645Y-90450000D01*
%TO.N,/{slash}CE*%
X166000000Y-98185000D02*
X166000000Y-96850000D01*
X166275000Y-98460000D02*
X166000000Y-98185000D01*
X166000000Y-96850000D02*
X166850000Y-96000000D01*
X167250000Y-98460000D02*
X166275000Y-98460000D01*
X166850000Y-96000000D02*
X167025500Y-96000000D01*
%TO.N,Net-(IC1-TS{slash}MR)*%
X146900000Y-92050000D02*
X147156766Y-92306766D01*
X147156766Y-92306766D02*
X147156766Y-93833673D01*
%TO.N,Net-(IC1-ILIM{slash}VSET)*%
X144814935Y-93739063D02*
X144814935Y-93237623D01*
X146402558Y-91650000D02*
X146900000Y-91650000D01*
X144814935Y-93237623D02*
X146402558Y-91650000D01*
%TO.N,Net-(IC1-ISET)*%
X144822159Y-91926266D02*
X145498425Y-91250000D01*
X145498425Y-91250000D02*
X146900000Y-91250000D01*
%TO.N,/CS7*%
X165450000Y-96650000D02*
X165450000Y-99300000D01*
X151150000Y-101235659D02*
X149635659Y-102750000D01*
X151450000Y-100600000D02*
X151150000Y-100900000D01*
X166179122Y-95920878D02*
X165450000Y-96650000D01*
X149254645Y-102750000D02*
X148585000Y-102080355D01*
X148585000Y-101457444D02*
X148024618Y-100897062D01*
X153037142Y-100600000D02*
X153843216Y-101406074D01*
X152250000Y-100600000D02*
X151450000Y-100600000D01*
X152250000Y-100600000D02*
X153037142Y-100600000D01*
X151150000Y-100900000D02*
X151150000Y-101235659D01*
X148585000Y-102080355D02*
X148585000Y-101457444D01*
X149635659Y-102750000D02*
X149254645Y-102750000D01*
%TO.N,/CS6*%
X149445152Y-102212187D02*
X149445152Y-101804848D01*
X142900000Y-94800000D02*
X144100000Y-94800000D01*
X149445152Y-101804848D02*
X151450000Y-99800000D01*
X151450000Y-99800000D02*
X152250000Y-99800000D01*
%TO.N,/UPDI*%
X160600000Y-106550000D02*
X160600000Y-102995000D01*
X160400000Y-106750000D02*
X160600000Y-106550000D01*
X160600000Y-102995000D02*
X161325000Y-102270000D01*
X159400000Y-106750000D02*
X160400000Y-106750000D01*
X161325000Y-102270000D02*
X162300000Y-102270000D01*
%TO.N,Net-(X1-VBU)*%
X134975000Y-101500000D02*
X135500000Y-101500000D01*
X134700000Y-103200000D02*
X134700000Y-101775000D01*
X134700000Y-101775000D02*
X134975000Y-101500000D01*
X135400000Y-103900000D02*
X134700000Y-103200000D01*
%TO.N,Net-(X1-EVI)*%
X135500000Y-98050000D02*
X135400000Y-97950000D01*
X135500000Y-99700000D02*
X135500000Y-98050000D01*
%TO.N,/RTC_INT*%
X168225000Y-99730000D02*
X167250000Y-99730000D01*
X168625000Y-99330000D02*
X168225000Y-99730000D01*
X166900000Y-93250000D02*
X168625000Y-94975000D01*
X168625000Y-94975000D02*
X168625000Y-99330000D01*
%TO.N,/SDA*%
X131450000Y-101742463D02*
X136932537Y-107225000D01*
X139960000Y-111060000D02*
X160840000Y-111060000D01*
X137826894Y-107497314D02*
X137826894Y-108926894D01*
X137826894Y-108926894D02*
X139960000Y-111060000D01*
X137800000Y-104826471D02*
X137800000Y-105875000D01*
X137825000Y-102400000D02*
X136950000Y-102400000D01*
X137825000Y-107495420D02*
X137826894Y-107497314D01*
X160840000Y-111060000D02*
X162300000Y-109600000D01*
X138540000Y-101685000D02*
X137825000Y-102400000D01*
X162300000Y-109600000D02*
X162300000Y-104810000D01*
X132976900Y-96895943D02*
X131450000Y-98422843D01*
X131450000Y-98422843D02*
X131450000Y-101742463D01*
X136932537Y-107225000D02*
X137417463Y-107225000D01*
X137825000Y-106817463D02*
X137825000Y-105900000D01*
X137950000Y-102525000D02*
X137950000Y-104676471D01*
X137825000Y-102400000D02*
X137950000Y-102525000D01*
X137800000Y-105875000D02*
X137825000Y-105900000D01*
X137825000Y-105900000D02*
X137825000Y-107495420D01*
X137950000Y-104676471D02*
X137800000Y-104826471D01*
X137417463Y-107225000D02*
X137825000Y-106817463D01*
%TO.N,/SCL*%
X136950000Y-101500000D02*
X137475000Y-101500000D01*
X139040416Y-109659584D02*
X139315416Y-109934584D01*
X138540000Y-100520000D02*
X139348404Y-101328404D01*
X137475000Y-101500000D02*
X138540000Y-100435000D01*
X138290000Y-104817303D02*
X138140000Y-104967303D01*
X138540000Y-100045000D02*
X138540000Y-100520000D01*
X139348404Y-102323276D02*
X138290000Y-103381680D01*
X140099994Y-109200006D02*
X140099994Y-109050000D01*
X138290000Y-108909168D02*
X139040416Y-109659584D01*
X138540000Y-100435000D02*
X138540000Y-100045000D01*
X138290000Y-103381680D02*
X138290000Y-104817303D01*
X139348404Y-101328404D02*
X139348404Y-102323276D01*
X138140000Y-104967303D02*
X138140000Y-105433729D01*
X138140000Y-105433729D02*
X138290000Y-105583729D01*
X139365416Y-109934584D02*
X140099994Y-109200006D01*
X138290000Y-105583729D02*
X138290000Y-108909168D01*
X139315416Y-109934584D02*
X139365416Y-109934584D01*
%TO.N,Net-(U7-ISET)*%
X144150000Y-95700000D02*
X141775000Y-95700000D01*
X145200000Y-96750000D02*
X144150000Y-95700000D01*
%TO.N,/BU1*%
X166275000Y-101000000D02*
X165709769Y-101565231D01*
X167250000Y-101000000D02*
X166275000Y-101000000D01*
X165709769Y-101565231D02*
X165709769Y-102527402D01*
%TO.N,/RTC_CLK*%
X162844073Y-98460000D02*
X162300000Y-98460000D01*
X167025500Y-94945628D02*
X166358445Y-94945628D01*
X166358445Y-94945628D02*
X162844073Y-98460000D01*
%TD*%
%TA.AperFunction,Conductor*%
%TO.N,GND*%
G36*
X127411500Y-109013377D02*
G01*
X127442867Y-109049145D01*
X127475463Y-109127840D01*
X127571715Y-109253279D01*
X127571720Y-109253284D01*
X127582855Y-109261828D01*
X127697159Y-109349536D01*
X127843238Y-109410044D01*
X128000000Y-109430682D01*
X128156762Y-109410044D01*
X128302841Y-109349536D01*
X128428282Y-109253282D01*
X128524536Y-109127841D01*
X128528874Y-109117366D01*
X128532133Y-109109501D01*
X128566330Y-109072180D01*
X128616516Y-109065573D01*
X128659208Y-109092770D01*
X128674500Y-109137819D01*
X128674499Y-109665579D01*
X128673078Y-109680013D01*
X128669103Y-109700000D01*
X128669102Y-109700000D01*
X128672578Y-109717470D01*
X128674500Y-109727132D01*
X128674500Y-109727133D01*
X128688720Y-109798623D01*
X128690485Y-109807495D01*
X128709295Y-109835646D01*
X128734640Y-109873578D01*
X128751375Y-109898623D01*
X128751378Y-109898626D01*
X128768314Y-109909942D01*
X128779529Y-109919145D01*
X131933558Y-113073174D01*
X131954950Y-113119050D01*
X131941849Y-113167945D01*
X131900385Y-113196979D01*
X131881232Y-113199500D01*
X130630277Y-113199500D01*
X130630265Y-113199499D01*
X130577862Y-113199499D01*
X130575557Y-113199427D01*
X130461387Y-113192301D01*
X130367654Y-113186451D01*
X130363087Y-113185879D01*
X130159545Y-113147360D01*
X130155073Y-113146222D01*
X129957912Y-113082693D01*
X129953616Y-113081007D01*
X129765882Y-112993448D01*
X129761830Y-112991241D01*
X129586446Y-112881018D01*
X129582700Y-112878324D01*
X129422382Y-112747142D01*
X129418999Y-112744003D01*
X129276243Y-112593905D01*
X129273277Y-112590369D01*
X129149717Y-112422897D01*
X129148406Y-112420999D01*
X128460257Y-111355136D01*
X127349558Y-109634790D01*
X127333352Y-109609688D01*
X127331583Y-109606637D01*
X127331579Y-109606630D01*
X127318151Y-109580694D01*
X127312891Y-109567606D01*
X127306137Y-109544691D01*
X127303456Y-109530831D01*
X127303170Y-109527844D01*
X127300668Y-109501750D01*
X127300500Y-109498223D01*
X127300500Y-109077463D01*
X127317813Y-109029897D01*
X127361650Y-109004587D01*
X127411500Y-109013377D01*
G37*
%TD.AperFunction*%
%TA.AperFunction,Conductor*%
G36*
X137318595Y-88817813D02*
G01*
X137343905Y-88861650D01*
X137335115Y-88911500D01*
X137314971Y-88934040D01*
X137228515Y-88997846D01*
X137228508Y-88997853D01*
X137147869Y-89107116D01*
X137147868Y-89107118D01*
X137103017Y-89235295D01*
X137103016Y-89235299D01*
X137103016Y-89235301D01*
X137100162Y-89265734D01*
X137100162Y-89874266D01*
X137103016Y-89904699D01*
X137103016Y-89904701D01*
X137103017Y-89904704D01*
X137147868Y-90032881D01*
X137147869Y-90032883D01*
X137228508Y-90142146D01*
X137228511Y-90142149D01*
X137228512Y-90142150D01*
X137260773Y-90165960D01*
X137288765Y-90208135D01*
X137283098Y-90258435D01*
X137246424Y-90293325D01*
X137216831Y-90299500D01*
X131949710Y-90299500D01*
X131934525Y-90297925D01*
X131920370Y-90294957D01*
X131886203Y-90299216D01*
X131881624Y-90299500D01*
X131876645Y-90299500D01*
X131876642Y-90299500D01*
X131876635Y-90299501D01*
X131855144Y-90303087D01*
X131804292Y-90309426D01*
X131798415Y-90311176D01*
X131798314Y-90310837D01*
X131795985Y-90311583D01*
X131796100Y-90311918D01*
X131790304Y-90313907D01*
X131745239Y-90338295D01*
X131699201Y-90360801D01*
X131694214Y-90364362D01*
X131694009Y-90364075D01*
X131692050Y-90365535D01*
X131692267Y-90365814D01*
X131687427Y-90369581D01*
X131652727Y-90407275D01*
X129955070Y-92104931D01*
X129909194Y-92126323D01*
X129860299Y-92113222D01*
X129831265Y-92071758D01*
X129828744Y-92052605D01*
X129828744Y-92050084D01*
X129828744Y-91910045D01*
X129846057Y-91862482D01*
X129881897Y-91839045D01*
X129899069Y-91834004D01*
X130008049Y-91763967D01*
X130092882Y-91666063D01*
X130146697Y-91548226D01*
X130165133Y-91420000D01*
X130146697Y-91291774D01*
X130092882Y-91173937D01*
X130008049Y-91076033D01*
X129941032Y-91032964D01*
X129899068Y-91005995D01*
X129774772Y-90969500D01*
X129645228Y-90969500D01*
X129520931Y-91005995D01*
X129411954Y-91076031D01*
X129411950Y-91076034D01*
X129327119Y-91173935D01*
X129273302Y-91291776D01*
X129255729Y-91414003D01*
X129254867Y-91420000D01*
X129257074Y-91435348D01*
X129273302Y-91548223D01*
X129273302Y-91548224D01*
X129273303Y-91548226D01*
X129294525Y-91594695D01*
X129321057Y-91652792D01*
X129327744Y-91683533D01*
X129327745Y-102027308D01*
X129310432Y-102074874D01*
X129266595Y-102100184D01*
X129232898Y-102098311D01*
X129134773Y-102069500D01*
X129134772Y-102069500D01*
X129005228Y-102069500D01*
X128880931Y-102105995D01*
X128771954Y-102176031D01*
X128771950Y-102176034D01*
X128687119Y-102273935D01*
X128687118Y-102273936D01*
X128687118Y-102273937D01*
X128680673Y-102288049D01*
X128633302Y-102391776D01*
X128614867Y-102520000D01*
X128633302Y-102648223D01*
X128633302Y-102648224D01*
X128633303Y-102648226D01*
X128672780Y-102734668D01*
X128687119Y-102766065D01*
X128687120Y-102766067D01*
X128772591Y-102864706D01*
X128790656Y-102911991D01*
X128789245Y-102927594D01*
X128789103Y-102928308D01*
X128789103Y-102928310D01*
X128796638Y-102966200D01*
X128796641Y-102966207D01*
X128810485Y-103035804D01*
X128838528Y-103077774D01*
X128853915Y-103100802D01*
X128871375Y-103126932D01*
X128871378Y-103126935D01*
X128888314Y-103138251D01*
X128899529Y-103147454D01*
X131450865Y-105698790D01*
X131472257Y-105744666D01*
X131471786Y-105761643D01*
X131469867Y-105774995D01*
X131469866Y-105774999D01*
X131488302Y-105903223D01*
X131488302Y-105903224D01*
X131488303Y-105903226D01*
X131542118Y-106021063D01*
X131626951Y-106118967D01*
X131735931Y-106189004D01*
X131860228Y-106225500D01*
X131955232Y-106225500D01*
X132002798Y-106242813D01*
X132007558Y-106247174D01*
X137545853Y-111785469D01*
X137555055Y-111796682D01*
X137566375Y-111813623D01*
X137566376Y-111813624D01*
X137586355Y-111826974D01*
X137589377Y-111828993D01*
X137589378Y-111828994D01*
X137657505Y-111874515D01*
X137765000Y-111895897D01*
X137784983Y-111891921D01*
X137799420Y-111890500D01*
X153544186Y-111890500D01*
X153591752Y-111907813D01*
X153611498Y-111933758D01*
X153617118Y-111946063D01*
X153701951Y-112043967D01*
X153810931Y-112114004D01*
X153935228Y-112150500D01*
X154064772Y-112150500D01*
X154189069Y-112114004D01*
X154298049Y-112043967D01*
X154382882Y-111946063D01*
X154436697Y-111828226D01*
X154455133Y-111700000D01*
X154436697Y-111571774D01*
X154382882Y-111453937D01*
X154382880Y-111453935D01*
X154382878Y-111453930D01*
X154380033Y-111449502D01*
X154368885Y-111400126D01*
X154392084Y-111355136D01*
X154438775Y-111335584D01*
X154442289Y-111335500D01*
X157894769Y-111335500D01*
X157942335Y-111352813D01*
X157967645Y-111396650D01*
X157965013Y-111432777D01*
X157910494Y-111597302D01*
X157900000Y-111700024D01*
X157900000Y-111700026D01*
X157899999Y-111849999D01*
X157900000Y-111850000D01*
X160899999Y-111850000D01*
X160899999Y-111700029D01*
X160899998Y-111700023D01*
X160889505Y-111597303D01*
X160833081Y-111427027D01*
X160834553Y-111376429D01*
X160868204Y-111338615D01*
X160888886Y-111331173D01*
X160947495Y-111319515D01*
X160997659Y-111285996D01*
X161015622Y-111273994D01*
X161015622Y-111273993D01*
X161023636Y-111268639D01*
X161023639Y-111268636D01*
X161037986Y-111259050D01*
X161038624Y-111258624D01*
X161049948Y-111241674D01*
X161059141Y-111230473D01*
X162470472Y-109819142D01*
X162481676Y-109809947D01*
X162498624Y-109798624D01*
X162508984Y-109783119D01*
X162549803Y-109753189D01*
X162600314Y-109756500D01*
X162633606Y-109785568D01*
X162715462Y-109919145D01*
X162721452Y-109928919D01*
X162804363Y-110025996D01*
X162864178Y-110096031D01*
X162882508Y-110117492D01*
X163071081Y-110278548D01*
X163282526Y-110408122D01*
X163511638Y-110503023D01*
X163511639Y-110503023D01*
X163511641Y-110503024D01*
X163596007Y-110523278D01*
X163752775Y-110560915D01*
X164000000Y-110580372D01*
X164247225Y-110560915D01*
X164488362Y-110503023D01*
X164717474Y-110408122D01*
X164928919Y-110278548D01*
X165117492Y-110117492D01*
X165278548Y-109928919D01*
X165408122Y-109717474D01*
X165503023Y-109488362D01*
X165560915Y-109247225D01*
X165580372Y-109000000D01*
X165560915Y-108752775D01*
X165503023Y-108511638D01*
X165408122Y-108282526D01*
X165403816Y-108275500D01*
X165286445Y-108083968D01*
X165278548Y-108071081D01*
X165117492Y-107882508D01*
X165117489Y-107882505D01*
X164978295Y-107763623D01*
X164928919Y-107721452D01*
X164905641Y-107707187D01*
X164717480Y-107591881D01*
X164717470Y-107591876D01*
X164488358Y-107496975D01*
X164247226Y-107439085D01*
X164000000Y-107419628D01*
X163752773Y-107439085D01*
X163511641Y-107496975D01*
X163282529Y-107591876D01*
X163282519Y-107591881D01*
X163071083Y-107721450D01*
X163071082Y-107721451D01*
X162882510Y-107882505D01*
X162882505Y-107882510D01*
X162721451Y-108071082D01*
X162721450Y-108071083D01*
X162712595Y-108085534D01*
X162672980Y-108117045D01*
X162622379Y-108115720D01*
X162584467Y-108082179D01*
X162575500Y-108046869D01*
X162575500Y-105384500D01*
X162592813Y-105336934D01*
X162636650Y-105311624D01*
X162649500Y-105310500D01*
X163158254Y-105310500D01*
X163158260Y-105310500D01*
X163226393Y-105300573D01*
X163331483Y-105249198D01*
X163414198Y-105166483D01*
X163454924Y-105083174D01*
X163491369Y-105048044D01*
X163541868Y-105044559D01*
X163573732Y-105063348D01*
X165376910Y-106866526D01*
X165398302Y-106912402D01*
X165397831Y-106929382D01*
X165395469Y-106945816D01*
X165394867Y-106950000D01*
X165398587Y-106975875D01*
X165413302Y-107078223D01*
X165413302Y-107078224D01*
X165413303Y-107078226D01*
X165467118Y-107196063D01*
X165551951Y-107293967D01*
X165660931Y-107364004D01*
X165785228Y-107400500D01*
X165914772Y-107400500D01*
X166039069Y-107364004D01*
X166148049Y-107293967D01*
X166185243Y-107251041D01*
X166229477Y-107226430D01*
X166241170Y-107225500D01*
X167015580Y-107225500D01*
X167030016Y-107226921D01*
X167050000Y-107230897D01*
X167050001Y-107230897D01*
X167054622Y-107229977D01*
X167077132Y-107225500D01*
X167077133Y-107225500D01*
X167157495Y-107209515D01*
X167208402Y-107175500D01*
X167208401Y-107175500D01*
X167233634Y-107158641D01*
X167233638Y-107158636D01*
X167248624Y-107148624D01*
X167259948Y-107131674D01*
X167269141Y-107120473D01*
X167867441Y-106522174D01*
X167913319Y-106500782D01*
X167919768Y-106500500D01*
X168014772Y-106500500D01*
X168119652Y-106469705D01*
X168170169Y-106472916D01*
X168206804Y-106507847D01*
X168214500Y-106540708D01*
X168214500Y-107585232D01*
X168197187Y-107632798D01*
X168192826Y-107637558D01*
X166439529Y-109390854D01*
X166428319Y-109400054D01*
X166411377Y-109411375D01*
X166411375Y-109411377D01*
X166396005Y-109434380D01*
X166388515Y-109445590D01*
X166350484Y-109502506D01*
X166336005Y-109575304D01*
X166329103Y-109610001D01*
X166333078Y-109629984D01*
X166334500Y-109644421D01*
X166334500Y-110365231D01*
X166317187Y-110412797D01*
X166312826Y-110417557D01*
X164252558Y-112477826D01*
X164206682Y-112499218D01*
X164200232Y-112499500D01*
X160959907Y-112499500D01*
X160912341Y-112482187D01*
X160887031Y-112438350D01*
X160889329Y-112406796D01*
X160888659Y-112406653D01*
X160889505Y-112402697D01*
X160899999Y-112299975D01*
X160900000Y-112299973D01*
X160900000Y-112150000D01*
X157900001Y-112150000D01*
X157900001Y-112299976D01*
X157910494Y-112402701D01*
X157911340Y-112406650D01*
X157910202Y-112406893D01*
X157908862Y-112452828D01*
X157875207Y-112490638D01*
X157840093Y-112499500D01*
X143640253Y-112499500D01*
X143625816Y-112498078D01*
X143605833Y-112494103D01*
X143605832Y-112494103D01*
X143578701Y-112499500D01*
X143578700Y-112499500D01*
X143535576Y-112508078D01*
X143521139Y-112509500D01*
X132944768Y-112509500D01*
X132897202Y-112492187D01*
X132892442Y-112487826D01*
X129938089Y-109533473D01*
X129916697Y-109487597D01*
X129917169Y-109470614D01*
X129920133Y-109450003D01*
X129920133Y-109450001D01*
X129917887Y-109434377D01*
X129901697Y-109321774D01*
X129847882Y-109203937D01*
X129763049Y-109106033D01*
X129675858Y-109049999D01*
X129654068Y-109035995D01*
X129531475Y-109000000D01*
X130419628Y-109000000D01*
X130439085Y-109247226D01*
X130496975Y-109488358D01*
X130591876Y-109717470D01*
X130591881Y-109717480D01*
X130715462Y-109919145D01*
X130721452Y-109928919D01*
X130804363Y-110025996D01*
X130864178Y-110096031D01*
X130882508Y-110117492D01*
X131071081Y-110278548D01*
X131282526Y-110408122D01*
X131511638Y-110503023D01*
X131511639Y-110503023D01*
X131511641Y-110503024D01*
X131596007Y-110523278D01*
X131752775Y-110560915D01*
X132000000Y-110580372D01*
X132247225Y-110560915D01*
X132488362Y-110503023D01*
X132717474Y-110408122D01*
X132928919Y-110278548D01*
X133117492Y-110117492D01*
X133278548Y-109928919D01*
X133408122Y-109717474D01*
X133503023Y-109488362D01*
X133560915Y-109247225D01*
X133580372Y-109000000D01*
X133560915Y-108752775D01*
X133503023Y-108511638D01*
X133408122Y-108282526D01*
X133403816Y-108275500D01*
X133286445Y-108083968D01*
X133278548Y-108071081D01*
X133117492Y-107882508D01*
X133117489Y-107882505D01*
X132978295Y-107763623D01*
X132928919Y-107721452D01*
X132905641Y-107707187D01*
X132717480Y-107591881D01*
X132717470Y-107591876D01*
X132488358Y-107496975D01*
X132247226Y-107439085D01*
X132000000Y-107419628D01*
X131752773Y-107439085D01*
X131511641Y-107496975D01*
X131282529Y-107591876D01*
X131282519Y-107591881D01*
X131071083Y-107721450D01*
X131071082Y-107721451D01*
X130882510Y-107882505D01*
X130882505Y-107882510D01*
X130721451Y-108071082D01*
X130721450Y-108071083D01*
X130591881Y-108282519D01*
X130591876Y-108282529D01*
X130496975Y-108511641D01*
X130439085Y-108752773D01*
X130419628Y-109000000D01*
X129531475Y-109000000D01*
X129529772Y-108999500D01*
X129400228Y-108999500D01*
X129320348Y-109022954D01*
X129269830Y-109019743D01*
X129233196Y-108984811D01*
X129225500Y-108951951D01*
X129225500Y-105154420D01*
X129226922Y-105139983D01*
X129228112Y-105134003D01*
X129230897Y-105120000D01*
X129229764Y-105114306D01*
X129209516Y-105012506D01*
X129193258Y-104988175D01*
X129163994Y-104944378D01*
X129163992Y-104944376D01*
X129148624Y-104921376D01*
X129131683Y-104910056D01*
X129120470Y-104900854D01*
X128022174Y-103802558D01*
X128000782Y-103756682D01*
X128000500Y-103750232D01*
X128000500Y-101012483D01*
X128000500Y-98269764D01*
X128017812Y-98222201D01*
X128022151Y-98217464D01*
X128835472Y-97404142D01*
X128846676Y-97394947D01*
X128863624Y-97383624D01*
X128879363Y-97360070D01*
X128910291Y-97313782D01*
X128912495Y-97310484D01*
X128919500Y-97300000D01*
X128924515Y-97292495D01*
X128940500Y-97212133D01*
X128940500Y-97212132D01*
X128945897Y-97185000D01*
X128941922Y-97165015D01*
X128940500Y-97150579D01*
X128940500Y-96583967D01*
X128941922Y-96569530D01*
X128945414Y-96551977D01*
X128945897Y-96549547D01*
X128944496Y-96542505D01*
X128924516Y-96442053D01*
X128905109Y-96413009D01*
X128878994Y-96373925D01*
X128878993Y-96373924D01*
X128876974Y-96370902D01*
X128876973Y-96370902D01*
X128874850Y-96367725D01*
X128863624Y-96350923D01*
X128846683Y-96339603D01*
X128835470Y-96330401D01*
X128573376Y-96068307D01*
X128551984Y-96022431D01*
X128565085Y-95973536D01*
X128569766Y-95967534D01*
X128623998Y-95904947D01*
X128677813Y-95787110D01*
X128696249Y-95658884D01*
X128677813Y-95530658D01*
X128623998Y-95412821D01*
X128539165Y-95314917D01*
X128472148Y-95271848D01*
X128430184Y-95244879D01*
X128305888Y-95208384D01*
X128176344Y-95208384D01*
X128052047Y-95244879D01*
X127943070Y-95314915D01*
X127943066Y-95314918D01*
X127858235Y-95412819D01*
X127804418Y-95530660D01*
X127785983Y-95658883D01*
X127804418Y-95787107D01*
X127804418Y-95787108D01*
X127804419Y-95787110D01*
X127858234Y-95904947D01*
X127943067Y-96002851D01*
X127943068Y-96002852D01*
X127946533Y-96006850D01*
X127944648Y-96008482D01*
X127964684Y-96044479D01*
X127965616Y-96056184D01*
X127965616Y-96091242D01*
X127964194Y-96105678D01*
X127960219Y-96125662D01*
X127960219Y-96125666D01*
X127963973Y-96144541D01*
X127956272Y-96194570D01*
X127918214Y-96227945D01*
X127901055Y-96232343D01*
X127843238Y-96239955D01*
X127697158Y-96300464D01*
X127571720Y-96396715D01*
X127571715Y-96396720D01*
X127475464Y-96522158D01*
X127442867Y-96600855D01*
X127408669Y-96638175D01*
X127358483Y-96644782D01*
X127315792Y-96617584D01*
X127300500Y-96572536D01*
X127300500Y-93427463D01*
X127317813Y-93379897D01*
X127361650Y-93354587D01*
X127411500Y-93363377D01*
X127442867Y-93399145D01*
X127475463Y-93477840D01*
X127571715Y-93603279D01*
X127571720Y-93603284D01*
X127595271Y-93621355D01*
X127697159Y-93699536D01*
X127843238Y-93760044D01*
X128000000Y-93780682D01*
X128156762Y-93760044D01*
X128302841Y-93699536D01*
X128428282Y-93603282D01*
X128524536Y-93477841D01*
X128585044Y-93331762D01*
X128605682Y-93175000D01*
X128585044Y-93018238D01*
X128524536Y-92872159D01*
X128469169Y-92800003D01*
X128428284Y-92746720D01*
X128428279Y-92746715D01*
X128302841Y-92650464D01*
X128156761Y-92589955D01*
X128000000Y-92569318D01*
X127843239Y-92589955D01*
X127843238Y-92589955D01*
X127697158Y-92650464D01*
X127571720Y-92746715D01*
X127571715Y-92746720D01*
X127475464Y-92872158D01*
X127442867Y-92950855D01*
X127408669Y-92988175D01*
X127358483Y-92994782D01*
X127315792Y-92967584D01*
X127300500Y-92922536D01*
X127300500Y-92501766D01*
X127300669Y-92498234D01*
X127303455Y-92469165D01*
X127306136Y-92455308D01*
X127312891Y-92432390D01*
X127318148Y-92419309D01*
X127331584Y-92393358D01*
X127333340Y-92390329D01*
X127358212Y-92351806D01*
X127358212Y-92351805D01*
X129148316Y-89579141D01*
X129149622Y-89577252D01*
X129185269Y-89528937D01*
X129273290Y-89409633D01*
X129276245Y-89406110D01*
X129419015Y-89255997D01*
X129422391Y-89252866D01*
X129429217Y-89247281D01*
X129582708Y-89121684D01*
X129586448Y-89118994D01*
X129761838Y-89008767D01*
X129765888Y-89006562D01*
X129900174Y-88943932D01*
X129953622Y-88919004D01*
X129957917Y-88917319D01*
X129980891Y-88909916D01*
X130155096Y-88853784D01*
X130159547Y-88852652D01*
X130160994Y-88852378D01*
X130363101Y-88814131D01*
X130367642Y-88813562D01*
X130575773Y-88800571D01*
X130578067Y-88800500D01*
X130624307Y-88800501D01*
X130624310Y-88800500D01*
X137271029Y-88800500D01*
X137318595Y-88817813D01*
G37*
%TD.AperFunction*%
%TA.AperFunction,Conductor*%
G36*
X134678274Y-106902586D02*
G01*
X134684858Y-106908429D01*
X135220123Y-107443694D01*
X135241515Y-107489570D01*
X135241164Y-107505678D01*
X135234914Y-107553159D01*
X135233131Y-107566703D01*
X135234060Y-107573756D01*
X135253768Y-107723463D01*
X135253768Y-107723464D01*
X135314277Y-107869544D01*
X135410528Y-107994982D01*
X135410533Y-107994987D01*
X135478148Y-108046869D01*
X135535972Y-108091239D01*
X135682051Y-108151747D01*
X135838813Y-108172385D01*
X135995575Y-108151747D01*
X136141654Y-108091239D01*
X136267095Y-107994985D01*
X136363349Y-107869544D01*
X136421513Y-107729122D01*
X136455709Y-107691803D01*
X136505895Y-107685196D01*
X136542205Y-107705116D01*
X136572558Y-107735469D01*
X136581760Y-107746682D01*
X136593080Y-107763623D01*
X136593081Y-107763624D01*
X136613060Y-107776974D01*
X136616082Y-107778993D01*
X136616083Y-107778994D01*
X136684210Y-107824515D01*
X136791705Y-107845897D01*
X136801466Y-107843955D01*
X136851496Y-107851652D01*
X136883218Y-107885790D01*
X136929012Y-107986063D01*
X137013845Y-108083967D01*
X137122825Y-108154004D01*
X137247122Y-108190500D01*
X137376669Y-108190500D01*
X137376669Y-108190499D01*
X137456546Y-108167046D01*
X137507063Y-108170256D01*
X137543698Y-108205187D01*
X137551394Y-108238048D01*
X137551394Y-108892473D01*
X137549972Y-108906909D01*
X137545997Y-108926894D01*
X137551394Y-108954026D01*
X137551394Y-108954027D01*
X137563419Y-109014479D01*
X137567379Y-109034389D01*
X137587401Y-109064355D01*
X137607446Y-109094355D01*
X137628267Y-109125515D01*
X137628272Y-109125520D01*
X137645208Y-109136836D01*
X137656423Y-109146039D01*
X139723558Y-111213174D01*
X139744950Y-111259050D01*
X139731849Y-111307945D01*
X139690385Y-111336979D01*
X139671232Y-111339500D01*
X137909768Y-111339500D01*
X137862202Y-111322187D01*
X137857442Y-111317826D01*
X133941553Y-107401937D01*
X133920161Y-107356061D01*
X133933262Y-107307166D01*
X133974726Y-107278132D01*
X134014726Y-107278607D01*
X134055228Y-107290500D01*
X134184772Y-107290500D01*
X134309069Y-107254004D01*
X134418049Y-107183967D01*
X134502882Y-107086063D01*
X134556697Y-106968226D01*
X134559285Y-106950224D01*
X134583190Y-106905607D01*
X134630182Y-106886792D01*
X134678274Y-106902586D01*
G37*
%TD.AperFunction*%
%TA.AperFunction,Conductor*%
G36*
X160986500Y-105451582D02*
G01*
X161001826Y-105463342D01*
X161662825Y-106124341D01*
X161684217Y-106170217D01*
X161684499Y-106176667D01*
X161684499Y-109314400D01*
X161667186Y-109361966D01*
X161662825Y-109366726D01*
X160736726Y-110292826D01*
X160690850Y-110314218D01*
X160684400Y-110314500D01*
X160336284Y-110314500D01*
X160288718Y-110297187D01*
X160263408Y-110253350D01*
X160272198Y-110203500D01*
X160310975Y-110170963D01*
X160311843Y-110170653D01*
X160346641Y-110158475D01*
X160362882Y-110152793D01*
X160472150Y-110072150D01*
X160552793Y-109962882D01*
X160597646Y-109834699D01*
X160600500Y-109804266D01*
X160600500Y-109195734D01*
X160597646Y-109165301D01*
X160578155Y-109109600D01*
X160552793Y-109037118D01*
X160552792Y-109037116D01*
X160472153Y-108927853D01*
X160472146Y-108927846D01*
X160362883Y-108847207D01*
X160362881Y-108847206D01*
X160234704Y-108802355D01*
X160234705Y-108802355D01*
X160234700Y-108802354D01*
X160234699Y-108802354D01*
X160204266Y-108799500D01*
X158595734Y-108799500D01*
X158575445Y-108801402D01*
X158565298Y-108802354D01*
X158565290Y-108802356D01*
X158562148Y-108803456D01*
X158511533Y-108802821D01*
X158473168Y-108769800D01*
X158464467Y-108723074D01*
X158466917Y-108706034D01*
X158467242Y-108703777D01*
X158467242Y-108703776D01*
X158461836Y-108666178D01*
X158448806Y-108575550D01*
X158394991Y-108457713D01*
X158310158Y-108359809D01*
X158217815Y-108300464D01*
X158201177Y-108289771D01*
X158076881Y-108253276D01*
X157981877Y-108253276D01*
X157934311Y-108235963D01*
X157929551Y-108231602D01*
X157251108Y-107553159D01*
X157229716Y-107507283D01*
X157242817Y-107458388D01*
X157251108Y-107448507D01*
X157653718Y-107045897D01*
X158059555Y-106640059D01*
X158070765Y-106630861D01*
X158084389Y-106621758D01*
X158133557Y-106609727D01*
X158178956Y-106632116D01*
X158199342Y-106678448D01*
X158199500Y-106683286D01*
X158199500Y-107054266D01*
X158202354Y-107084699D01*
X158202354Y-107084701D01*
X158202355Y-107084704D01*
X158247206Y-107212881D01*
X158247207Y-107212883D01*
X158327846Y-107322146D01*
X158327853Y-107322153D01*
X158437116Y-107402792D01*
X158437118Y-107402793D01*
X158565295Y-107447644D01*
X158565301Y-107447646D01*
X158595734Y-107450500D01*
X158595741Y-107450500D01*
X160204258Y-107450500D01*
X160204266Y-107450500D01*
X160234699Y-107447646D01*
X160362882Y-107402793D01*
X160472150Y-107322150D01*
X160552793Y-107212882D01*
X160597646Y-107084699D01*
X160600500Y-107054266D01*
X160600500Y-106969766D01*
X160617813Y-106922200D01*
X160622163Y-106917451D01*
X160770473Y-106769141D01*
X160781676Y-106759947D01*
X160798624Y-106748624D01*
X160859515Y-106657495D01*
X160875500Y-106577133D01*
X160875500Y-106577132D01*
X160880897Y-106550000D01*
X160878111Y-106535996D01*
X160876922Y-106530015D01*
X160875500Y-106515579D01*
X160875500Y-105515668D01*
X160892813Y-105468102D01*
X160936650Y-105442792D01*
X160986500Y-105451582D01*
G37*
%TD.AperFunction*%
%TA.AperFunction,Conductor*%
G36*
X138676500Y-106862145D02*
G01*
X138691826Y-106873905D01*
X139988391Y-108170470D01*
X139997593Y-108181683D01*
X140008912Y-108198623D01*
X140008913Y-108198624D01*
X140028892Y-108211974D01*
X140031914Y-108213993D01*
X140031915Y-108213994D01*
X140039883Y-108219318D01*
X140100042Y-108259515D01*
X140180404Y-108275500D01*
X140180405Y-108275500D01*
X140207536Y-108280897D01*
X140207537Y-108280897D01*
X140227520Y-108276921D01*
X140241957Y-108275500D01*
X144915580Y-108275500D01*
X144930016Y-108276921D01*
X144950000Y-108280897D01*
X144950001Y-108280897D01*
X144954622Y-108279977D01*
X144977132Y-108275500D01*
X144977133Y-108275500D01*
X145057495Y-108259515D01*
X145117654Y-108219318D01*
X145125622Y-108213994D01*
X145125621Y-108213994D01*
X145133635Y-108208640D01*
X145133639Y-108208636D01*
X145138801Y-108205187D01*
X145148624Y-108198624D01*
X145159948Y-108181674D01*
X145169141Y-108170473D01*
X145927942Y-107411673D01*
X145973820Y-107390281D01*
X145980269Y-107389999D01*
X146075273Y-107389999D01*
X146199570Y-107353503D01*
X146308550Y-107283466D01*
X146393383Y-107185562D01*
X146447198Y-107067725D01*
X146457802Y-106993967D01*
X146481708Y-106949351D01*
X146528700Y-106930537D01*
X146531049Y-106930500D01*
X147496560Y-106930500D01*
X147544126Y-106947813D01*
X147569436Y-106991650D01*
X147569807Y-107015031D01*
X147551322Y-107143599D01*
X147569757Y-107271822D01*
X147569757Y-107271823D01*
X147569758Y-107271825D01*
X147623573Y-107389662D01*
X147708406Y-107487566D01*
X147817386Y-107557603D01*
X147941683Y-107594099D01*
X148036687Y-107594099D01*
X148084253Y-107611412D01*
X148089013Y-107615773D01*
X150091414Y-109618174D01*
X150112806Y-109664050D01*
X150099705Y-109712945D01*
X150058241Y-109741979D01*
X150039088Y-109744500D01*
X142356902Y-109744500D01*
X142309336Y-109727187D01*
X142287276Y-109692563D01*
X142286900Y-109692719D01*
X142286016Y-109690587D01*
X142285425Y-109689658D01*
X142285045Y-109688241D01*
X142266894Y-109644421D01*
X142224536Y-109542159D01*
X142182669Y-109487597D01*
X142128284Y-109416720D01*
X142128279Y-109416715D01*
X142002841Y-109320464D01*
X141856761Y-109259955D01*
X141700000Y-109239318D01*
X141543239Y-109259955D01*
X141543238Y-109259955D01*
X141397158Y-109320464D01*
X141271720Y-109416715D01*
X141271715Y-109416720D01*
X141175464Y-109542158D01*
X141114955Y-109688238D01*
X141114955Y-109688239D01*
X141094318Y-109845000D01*
X141114955Y-110001760D01*
X141114956Y-110001764D01*
X141173119Y-110142182D01*
X141175327Y-110192752D01*
X141144512Y-110232911D01*
X141104752Y-110244500D01*
X140045600Y-110244500D01*
X139998034Y-110227187D01*
X139993274Y-110222826D01*
X139782357Y-110011909D01*
X139760965Y-109966033D01*
X139774066Y-109917138D01*
X139782347Y-109907268D01*
X140185883Y-109503731D01*
X140217359Y-109485057D01*
X140289063Y-109464004D01*
X140398043Y-109393967D01*
X140482876Y-109296063D01*
X140536691Y-109178226D01*
X140555127Y-109050000D01*
X140536691Y-108921774D01*
X140482876Y-108803937D01*
X140398043Y-108706033D01*
X140331026Y-108662964D01*
X140289062Y-108635995D01*
X140164766Y-108599500D01*
X140035222Y-108599500D01*
X139910925Y-108635995D01*
X139801948Y-108706031D01*
X139801944Y-108706034D01*
X139717113Y-108803935D01*
X139663296Y-108921776D01*
X139644861Y-109050000D01*
X139663296Y-109178224D01*
X139663298Y-109178230D01*
X139663542Y-109178764D01*
X139663574Y-109179170D01*
X139664788Y-109183304D01*
X139663922Y-109183557D01*
X139667552Y-109229224D01*
X139648554Y-109261828D01*
X139392741Y-109517641D01*
X139346865Y-109539033D01*
X139297970Y-109525932D01*
X139288089Y-109517641D01*
X138587174Y-108816726D01*
X138565782Y-108770850D01*
X138565500Y-108764400D01*
X138565500Y-106926231D01*
X138582813Y-106878665D01*
X138626650Y-106853355D01*
X138676500Y-106862145D01*
G37*
%TD.AperFunction*%
%TA.AperFunction,Conductor*%
G36*
X150199998Y-106931922D02*
G01*
X150211427Y-106934195D01*
X150243124Y-106940500D01*
X150243125Y-106940500D01*
X150270256Y-106945897D01*
X150270257Y-106945897D01*
X150290240Y-106941921D01*
X150304677Y-106940500D01*
X151018920Y-106940500D01*
X151066486Y-106957813D01*
X151071246Y-106962174D01*
X151671614Y-107562542D01*
X151680816Y-107573755D01*
X151692135Y-107590695D01*
X151692136Y-107590696D01*
X151715137Y-107606065D01*
X151728055Y-107614697D01*
X151729833Y-107615885D01*
X151783265Y-107651587D01*
X151863627Y-107667572D01*
X151863628Y-107667572D01*
X151890759Y-107672969D01*
X151890760Y-107672969D01*
X151910743Y-107668993D01*
X151925180Y-107667572D01*
X152282980Y-107667572D01*
X152297416Y-107668993D01*
X152317400Y-107672969D01*
X152317401Y-107672969D01*
X152322022Y-107672049D01*
X152344532Y-107667572D01*
X152344533Y-107667572D01*
X152424895Y-107651587D01*
X152480106Y-107614696D01*
X152493022Y-107606066D01*
X152493022Y-107606065D01*
X152501036Y-107600711D01*
X152501039Y-107600708D01*
X152507991Y-107596063D01*
X152516024Y-107590696D01*
X152527348Y-107573746D01*
X152536541Y-107562545D01*
X152901913Y-107197174D01*
X152947791Y-107175782D01*
X152954240Y-107175500D01*
X154155232Y-107175500D01*
X154202798Y-107192813D01*
X154207558Y-107197174D01*
X154580853Y-107570469D01*
X154590055Y-107581682D01*
X154599664Y-107596063D01*
X154601376Y-107598624D01*
X154612514Y-107606066D01*
X154623351Y-107613307D01*
X154623358Y-107613313D01*
X154624377Y-107613993D01*
X154624378Y-107613994D01*
X154625429Y-107614696D01*
X154692505Y-107659515D01*
X154772867Y-107675500D01*
X154772868Y-107675500D01*
X154799999Y-107680897D01*
X154800000Y-107680897D01*
X154819984Y-107676921D01*
X154834420Y-107675500D01*
X156563565Y-107675500D01*
X156611131Y-107692813D01*
X156615891Y-107697174D01*
X157539019Y-108620302D01*
X157560411Y-108666178D01*
X157559939Y-108683158D01*
X157556976Y-108703776D01*
X157560696Y-108729651D01*
X157575411Y-108831999D01*
X157575411Y-108832000D01*
X157575412Y-108832002D01*
X157603029Y-108892473D01*
X157629228Y-108949841D01*
X157629230Y-108949843D01*
X157685237Y-109014479D01*
X157703303Y-109061765D01*
X157686747Y-109109600D01*
X157669321Y-109125191D01*
X157652453Y-109136031D01*
X157652450Y-109136034D01*
X157567619Y-109233935D01*
X157513802Y-109351776D01*
X157503845Y-109421031D01*
X157479939Y-109465650D01*
X157432946Y-109484463D01*
X157430598Y-109484500D01*
X150767624Y-109484500D01*
X150720058Y-109467187D01*
X150715298Y-109462826D01*
X148479544Y-107227072D01*
X148458152Y-107181196D01*
X148458624Y-107164213D01*
X148458656Y-107163994D01*
X148459907Y-107155290D01*
X148461588Y-107143602D01*
X148461588Y-107143600D01*
X148458637Y-107123078D01*
X148445587Y-107032309D01*
X148443103Y-107015031D01*
X148453470Y-106965485D01*
X148493260Y-106934195D01*
X148516350Y-106930500D01*
X150185563Y-106930500D01*
X150199998Y-106931922D01*
G37*
%TD.AperFunction*%
%TA.AperFunction,Conductor*%
G36*
X157165169Y-97478511D02*
G01*
X157201804Y-97513442D01*
X157209500Y-97546303D01*
X157209500Y-100850579D01*
X157208078Y-100865015D01*
X157205993Y-100875500D01*
X157204103Y-100885000D01*
X157209500Y-100912132D01*
X157209500Y-100912133D01*
X157212702Y-100928231D01*
X157225485Y-100992496D01*
X157246773Y-101024354D01*
X157262578Y-101048009D01*
X157286375Y-101083623D01*
X157286378Y-101083626D01*
X157303314Y-101094942D01*
X157314529Y-101104145D01*
X158312749Y-102102365D01*
X158334141Y-102148241D01*
X158333670Y-102165221D01*
X158330706Y-102185838D01*
X158349141Y-102314062D01*
X158349141Y-102314063D01*
X158349142Y-102314065D01*
X158402957Y-102431902D01*
X158487790Y-102529806D01*
X158596770Y-102599843D01*
X158721067Y-102636339D01*
X158850613Y-102636339D01*
X158889293Y-102624981D01*
X158945580Y-102608454D01*
X158996095Y-102611664D01*
X159032730Y-102646595D01*
X159040427Y-102679456D01*
X159040427Y-103739304D01*
X159023114Y-103786870D01*
X159018753Y-103791630D01*
X158812400Y-103997983D01*
X158766524Y-104019375D01*
X158757289Y-104018870D01*
X158757289Y-104019103D01*
X158750000Y-104019103D01*
X158730017Y-104023078D01*
X158715580Y-104024500D01*
X157446010Y-104024500D01*
X157431574Y-104023078D01*
X157411595Y-104019104D01*
X157411591Y-104019104D01*
X157386900Y-104024015D01*
X157386894Y-104024016D01*
X157304098Y-104040485D01*
X157237899Y-104084718D01*
X157212970Y-104101375D01*
X157212968Y-104101377D01*
X157201647Y-104118319D01*
X157192447Y-104129529D01*
X156831529Y-104490449D01*
X156785653Y-104511841D01*
X156779203Y-104512123D01*
X156684199Y-104512123D01*
X156559902Y-104548618D01*
X156450925Y-104618654D01*
X156450921Y-104618657D01*
X156366090Y-104716558D01*
X156312273Y-104834399D01*
X156296461Y-104944378D01*
X156293838Y-104962623D01*
X156294551Y-104967584D01*
X156312273Y-105090846D01*
X156312273Y-105090847D01*
X156312274Y-105090849D01*
X156366089Y-105208686D01*
X156450922Y-105306590D01*
X156559902Y-105376627D01*
X156684199Y-105413123D01*
X156813743Y-105413123D01*
X156938040Y-105376627D01*
X157047020Y-105306590D01*
X157131853Y-105208686D01*
X157185668Y-105090849D01*
X157204104Y-104962623D01*
X157201139Y-104942004D01*
X157211506Y-104892460D01*
X157222055Y-104879153D01*
X157338064Y-104763144D01*
X157383941Y-104741753D01*
X157432835Y-104754854D01*
X157461869Y-104796319D01*
X157457703Y-104846211D01*
X157452385Y-104857854D01*
X157433950Y-104986080D01*
X157452385Y-105114303D01*
X157452385Y-105114304D01*
X157452386Y-105114306D01*
X157506201Y-105232143D01*
X157591034Y-105330047D01*
X157591035Y-105330048D01*
X157594500Y-105334046D01*
X157592615Y-105335678D01*
X157612651Y-105371675D01*
X157613583Y-105383380D01*
X157613583Y-106276149D01*
X157596270Y-106323715D01*
X157591909Y-106328475D01*
X156817558Y-107102826D01*
X156771682Y-107124218D01*
X156765232Y-107124500D01*
X156742753Y-107124500D01*
X156728316Y-107123078D01*
X156708333Y-107119103D01*
X156688350Y-107123078D01*
X156673913Y-107124500D01*
X155315122Y-107124500D01*
X155267556Y-107107187D01*
X155242246Y-107063350D01*
X155251036Y-107013500D01*
X155274009Y-106988972D01*
X155279438Y-106985344D01*
X155296956Y-106973639D01*
X155296959Y-106973636D01*
X155305056Y-106968226D01*
X155311944Y-106963624D01*
X155323268Y-106946674D01*
X155332461Y-106935473D01*
X155571410Y-106696524D01*
X155582614Y-106687329D01*
X155599562Y-106676006D01*
X155619554Y-106646087D01*
X155660453Y-106584877D01*
X155665401Y-106560000D01*
X155676438Y-106504515D01*
X155676438Y-106504514D01*
X155681835Y-106477382D01*
X155679061Y-106463438D01*
X155677860Y-106457397D01*
X155676438Y-106442961D01*
X155676438Y-98733829D01*
X155693751Y-98686263D01*
X155698112Y-98681503D01*
X156847442Y-97532174D01*
X156893319Y-97510782D01*
X156899768Y-97510500D01*
X156994775Y-97510500D01*
X156994775Y-97510499D01*
X157114652Y-97475301D01*
X157165169Y-97478511D01*
G37*
%TD.AperFunction*%
%TA.AperFunction,Conductor*%
G36*
X133027255Y-97363756D02*
G01*
X133052565Y-97407593D01*
X133053689Y-97420443D01*
X133053689Y-99576176D01*
X133036376Y-99623742D01*
X133013284Y-99642110D01*
X132896780Y-99701471D01*
X132801471Y-99796780D01*
X132740281Y-99916873D01*
X132740280Y-99916874D01*
X132724500Y-100016511D01*
X132724500Y-100533488D01*
X132740280Y-100633125D01*
X132740281Y-100633126D01*
X132801471Y-100753219D01*
X132865803Y-100817551D01*
X132887195Y-100863427D01*
X132874094Y-100912322D01*
X132844759Y-100936940D01*
X132841520Y-100938450D01*
X132697268Y-101027426D01*
X132577426Y-101147268D01*
X132488452Y-101291517D01*
X132435144Y-101452391D01*
X132425000Y-101551688D01*
X132425000Y-101675000D01*
X133476000Y-101675000D01*
X133523566Y-101692313D01*
X133548876Y-101736150D01*
X133550000Y-101749000D01*
X133549999Y-102774999D01*
X133698307Y-102774999D01*
X133698312Y-102774998D01*
X133797608Y-102764855D01*
X133958482Y-102711547D01*
X134102731Y-102622573D01*
X134222573Y-102502731D01*
X134287517Y-102397441D01*
X134327223Y-102366045D01*
X134377821Y-102367517D01*
X134415635Y-102401168D01*
X134424500Y-102436289D01*
X134424500Y-103165579D01*
X134423078Y-103180015D01*
X134420988Y-103190525D01*
X134419103Y-103200000D01*
X134424500Y-103227132D01*
X134424500Y-103227133D01*
X134440485Y-103307495D01*
X134475754Y-103360279D01*
X134501377Y-103398625D01*
X134518314Y-103409942D01*
X134529529Y-103419145D01*
X134661760Y-103551376D01*
X134777826Y-103667441D01*
X134799218Y-103713317D01*
X134799500Y-103719767D01*
X134799500Y-104206519D01*
X134814353Y-104300304D01*
X134814354Y-104300306D01*
X134870682Y-104410853D01*
X134871950Y-104413342D01*
X134961658Y-104503050D01*
X135074696Y-104560646D01*
X135168481Y-104575500D01*
X135631518Y-104575499D01*
X135631519Y-104575499D01*
X135725304Y-104560646D01*
X135725306Y-104560645D01*
X135750992Y-104547557D01*
X135838342Y-104503050D01*
X135928050Y-104413342D01*
X135985646Y-104300304D01*
X136000500Y-104206519D01*
X136000500Y-104050000D01*
X136150001Y-104050000D01*
X136150001Y-104231583D01*
X136156408Y-104302102D01*
X136156409Y-104302106D01*
X136206979Y-104464393D01*
X136294925Y-104609874D01*
X136415125Y-104730074D01*
X136560606Y-104818020D01*
X136722890Y-104868589D01*
X136722900Y-104868591D01*
X136793422Y-104874999D01*
X136900000Y-104874999D01*
X136900000Y-104050000D01*
X136150001Y-104050000D01*
X136000500Y-104050000D01*
X136000499Y-103593482D01*
X135996529Y-103568417D01*
X135985646Y-103499695D01*
X135985645Y-103499693D01*
X135934848Y-103400000D01*
X135928050Y-103386658D01*
X135838342Y-103296950D01*
X135824571Y-103289933D01*
X135790051Y-103252914D01*
X135787401Y-103202365D01*
X135817864Y-103161939D01*
X135858168Y-103150000D01*
X136072829Y-103150000D01*
X136132375Y-103143597D01*
X136132377Y-103143597D01*
X136179411Y-103126054D01*
X136230028Y-103125652D01*
X136269062Y-103157880D01*
X136278248Y-103207658D01*
X136268600Y-103233670D01*
X136206980Y-103335603D01*
X136206979Y-103335606D01*
X136156410Y-103497890D01*
X136156408Y-103497900D01*
X136150000Y-103568417D01*
X136150000Y-103750000D01*
X137126000Y-103750000D01*
X137173566Y-103767313D01*
X137198876Y-103811150D01*
X137200000Y-103824000D01*
X137200000Y-104874999D01*
X137306571Y-104874999D01*
X137306583Y-104874998D01*
X137377099Y-104868591D01*
X137377106Y-104868590D01*
X137428484Y-104852580D01*
X137479047Y-104854957D01*
X137516253Y-104889280D01*
X137524500Y-104923229D01*
X137524500Y-105840579D01*
X137523078Y-105855015D01*
X137520065Y-105870166D01*
X137519103Y-105875000D01*
X137524500Y-105902132D01*
X137524500Y-105902133D01*
X137528407Y-105921774D01*
X137540485Y-105982497D01*
X137543274Y-105989229D01*
X137540927Y-105990201D01*
X137549500Y-106018434D01*
X137549500Y-106672694D01*
X137532187Y-106720260D01*
X137527826Y-106725020D01*
X137325021Y-106927826D01*
X137279145Y-106949218D01*
X137272695Y-106949500D01*
X137077305Y-106949500D01*
X137029739Y-106932187D01*
X137024979Y-106927826D01*
X132993118Y-102895965D01*
X132971726Y-102850089D01*
X132984827Y-102801194D01*
X133026291Y-102772160D01*
X133052965Y-102770022D01*
X133101689Y-102774999D01*
X133249999Y-102774999D01*
X133250000Y-101975000D01*
X132425001Y-101975000D01*
X132425001Y-102098311D01*
X132429978Y-102147037D01*
X132417588Y-102196116D01*
X132376550Y-102225749D01*
X132326065Y-102222070D01*
X132304035Y-102206882D01*
X131747174Y-101650021D01*
X131725782Y-101604145D01*
X131725500Y-101597695D01*
X131725500Y-98567610D01*
X131742813Y-98520044D01*
X131747174Y-98515284D01*
X132894342Y-97368117D01*
X132940219Y-97346725D01*
X132946668Y-97346443D01*
X132979689Y-97346443D01*
X133027255Y-97363756D01*
G37*
%TD.AperFunction*%
%TA.AperFunction,Conductor*%
G36*
X166132870Y-94667813D02*
G01*
X166158180Y-94711650D01*
X166149390Y-94761500D01*
X166137630Y-94776826D01*
X163900549Y-97013906D01*
X163854673Y-97035298D01*
X163805778Y-97022197D01*
X163776744Y-96980733D01*
X163774451Y-96967386D01*
X163772099Y-96937506D01*
X163726281Y-96779800D01*
X163642682Y-96638443D01*
X163526556Y-96522317D01*
X163385199Y-96438718D01*
X163227491Y-96392900D01*
X163227494Y-96392900D01*
X163190643Y-96390000D01*
X162450000Y-96390000D01*
X162450000Y-97266000D01*
X162432687Y-97313566D01*
X162388850Y-97338876D01*
X162376000Y-97340000D01*
X160825000Y-97340000D01*
X160825000Y-97405643D01*
X160827900Y-97442493D01*
X160873718Y-97600199D01*
X160957317Y-97741556D01*
X161073443Y-97857682D01*
X161216408Y-97942232D01*
X161248538Y-97981347D01*
X161248007Y-98031963D01*
X161231065Y-98058252D01*
X161185804Y-98103513D01*
X161185801Y-98103517D01*
X161134427Y-98208605D01*
X161134427Y-98208606D01*
X161124500Y-98276735D01*
X161124500Y-98643264D01*
X161134427Y-98711393D01*
X161134427Y-98711394D01*
X161185801Y-98816482D01*
X161185802Y-98816483D01*
X161268517Y-98899198D01*
X161373607Y-98950573D01*
X161441740Y-98960500D01*
X161441746Y-98960500D01*
X163158254Y-98960500D01*
X163158260Y-98960500D01*
X163226393Y-98950573D01*
X163331483Y-98899198D01*
X163392886Y-98837794D01*
X163438761Y-98816403D01*
X163487655Y-98829503D01*
X163501136Y-98841661D01*
X163502002Y-98842661D01*
X163502003Y-98842662D01*
X163502007Y-98842666D01*
X163610987Y-98912703D01*
X163735284Y-98949199D01*
X163830288Y-98949199D01*
X163877854Y-98966512D01*
X163882614Y-98970873D01*
X164842826Y-99931084D01*
X164864218Y-99976960D01*
X164864500Y-99983410D01*
X164864500Y-102957479D01*
X164863078Y-102971915D01*
X164861386Y-102980424D01*
X164859103Y-102991900D01*
X164864500Y-103019032D01*
X164864500Y-103019033D01*
X164880485Y-103099395D01*
X164914298Y-103150000D01*
X164941377Y-103190525D01*
X164958314Y-103201842D01*
X164969529Y-103211045D01*
X166123461Y-104364977D01*
X166144853Y-104410853D01*
X166137616Y-104449803D01*
X166084428Y-104558604D01*
X166084427Y-104558606D01*
X166074500Y-104626735D01*
X166074500Y-104993264D01*
X166084427Y-105061393D01*
X166084427Y-105061394D01*
X166135801Y-105166482D01*
X166135802Y-105166483D01*
X166218517Y-105249198D01*
X166323607Y-105300573D01*
X166391740Y-105310500D01*
X166391746Y-105310500D01*
X168108254Y-105310500D01*
X168108260Y-105310500D01*
X168129829Y-105307357D01*
X168179394Y-105317628D01*
X168210761Y-105357357D01*
X168214500Y-105380583D01*
X168214500Y-105559291D01*
X168197187Y-105606857D01*
X168153350Y-105632167D01*
X168119653Y-105630294D01*
X168014773Y-105599500D01*
X168014772Y-105599500D01*
X167885228Y-105599500D01*
X167760931Y-105635995D01*
X167651954Y-105706031D01*
X167651950Y-105706034D01*
X167567119Y-105803935D01*
X167513302Y-105921776D01*
X167494867Y-106050000D01*
X167497831Y-106070617D01*
X167487463Y-106120163D01*
X167476910Y-106133473D01*
X166957558Y-106652826D01*
X166911682Y-106674218D01*
X166905232Y-106674500D01*
X166241170Y-106674500D01*
X166193604Y-106657187D01*
X166185244Y-106648959D01*
X166148052Y-106606036D01*
X166148050Y-106606035D01*
X166148049Y-106606033D01*
X166046401Y-106540708D01*
X166039068Y-106535995D01*
X165914772Y-106499500D01*
X165819768Y-106499500D01*
X165772202Y-106482187D01*
X165767442Y-106477826D01*
X163837174Y-104547557D01*
X163815782Y-104501681D01*
X163815500Y-104495231D01*
X163815500Y-101982521D01*
X163816922Y-101968084D01*
X163817632Y-101964514D01*
X163820897Y-101948101D01*
X163815107Y-101918994D01*
X163799515Y-101840606D01*
X163764895Y-101788794D01*
X163753994Y-101772479D01*
X163753066Y-101771090D01*
X163753060Y-101771082D01*
X163738624Y-101749477D01*
X163737910Y-101749000D01*
X163721683Y-101738157D01*
X163710470Y-101728955D01*
X163516044Y-101534529D01*
X163506841Y-101523314D01*
X163495525Y-101506378D01*
X163495523Y-101506376D01*
X163486729Y-101500500D01*
X163475543Y-101493026D01*
X163475538Y-101493021D01*
X163446363Y-101473527D01*
X163431475Y-101463579D01*
X163401544Y-101422758D01*
X163404855Y-101372247D01*
X163412367Y-101359046D01*
X163414195Y-101356485D01*
X163414198Y-101356483D01*
X163465573Y-101251393D01*
X163475500Y-101183260D01*
X163475500Y-100816740D01*
X163465573Y-100748607D01*
X163414198Y-100643517D01*
X163331483Y-100560802D01*
X163331483Y-100560801D01*
X163331482Y-100560801D01*
X163226394Y-100509427D01*
X163158264Y-100499500D01*
X163158260Y-100499500D01*
X161441740Y-100499500D01*
X161441735Y-100499500D01*
X161373606Y-100509427D01*
X161373601Y-100509428D01*
X161283116Y-100553663D01*
X161232780Y-100559000D01*
X161198291Y-100539508D01*
X160790609Y-100131826D01*
X160769217Y-100085950D01*
X160782318Y-100037055D01*
X160823782Y-100008021D01*
X160842935Y-100005500D01*
X161100019Y-100005500D01*
X161147585Y-100022813D01*
X161166500Y-100047000D01*
X161185801Y-100086482D01*
X161185802Y-100086483D01*
X161268517Y-100169198D01*
X161373607Y-100220573D01*
X161441740Y-100230500D01*
X161441746Y-100230500D01*
X163158254Y-100230500D01*
X163158260Y-100230500D01*
X163226393Y-100220573D01*
X163331483Y-100169198D01*
X163414198Y-100086483D01*
X163465573Y-99981393D01*
X163475500Y-99913260D01*
X163475500Y-99546740D01*
X163465573Y-99478607D01*
X163414198Y-99373517D01*
X163331483Y-99290802D01*
X163331482Y-99290801D01*
X163226394Y-99239427D01*
X163158264Y-99229500D01*
X163158260Y-99229500D01*
X161441740Y-99229500D01*
X161441735Y-99229500D01*
X161373606Y-99239427D01*
X161373605Y-99239427D01*
X161268517Y-99290801D01*
X161185801Y-99373517D01*
X161166500Y-99413000D01*
X161130056Y-99448130D01*
X161100019Y-99454500D01*
X160624768Y-99454500D01*
X160577202Y-99437187D01*
X160572442Y-99432826D01*
X159887174Y-98747558D01*
X159865782Y-98701682D01*
X159865500Y-98695232D01*
X159865500Y-97040000D01*
X160825000Y-97040000D01*
X162150000Y-97040000D01*
X162150000Y-96390000D01*
X161409357Y-96390000D01*
X161372506Y-96392900D01*
X161214800Y-96438718D01*
X161073443Y-96522317D01*
X160957317Y-96638443D01*
X160873718Y-96779800D01*
X160827900Y-96937506D01*
X160825000Y-96974357D01*
X160825000Y-97040000D01*
X159865500Y-97040000D01*
X159865500Y-96981528D01*
X159866922Y-96967091D01*
X159870897Y-96947108D01*
X159870897Y-96947107D01*
X159865500Y-96919975D01*
X159860884Y-96896769D01*
X159849515Y-96839613D01*
X159819040Y-96794004D01*
X159803994Y-96771486D01*
X159803993Y-96771485D01*
X159801974Y-96768463D01*
X159801973Y-96768463D01*
X159788624Y-96748484D01*
X159788623Y-96748483D01*
X159771683Y-96737164D01*
X159760470Y-96727962D01*
X159691040Y-96658532D01*
X159669648Y-96612656D01*
X159682749Y-96563761D01*
X159724213Y-96534727D01*
X159735846Y-96532589D01*
X159762608Y-96529855D01*
X159923482Y-96476547D01*
X160067731Y-96387573D01*
X160187573Y-96267731D01*
X160276546Y-96123483D01*
X160278054Y-96120251D01*
X160313845Y-96084457D01*
X160364272Y-96080043D01*
X160397448Y-96099196D01*
X160461780Y-96163528D01*
X160581874Y-96224719D01*
X160681511Y-96240500D01*
X160681512Y-96240500D01*
X161198489Y-96240500D01*
X161273982Y-96228543D01*
X161298126Y-96224719D01*
X161418220Y-96163528D01*
X161513528Y-96068220D01*
X161574719Y-95948126D01*
X161585837Y-95877924D01*
X161610379Y-95833651D01*
X161657636Y-95815511D01*
X161658927Y-95815500D01*
X164525580Y-95815500D01*
X164540016Y-95816921D01*
X164560000Y-95820897D01*
X164560001Y-95820897D01*
X164564622Y-95819977D01*
X164587132Y-95815500D01*
X164587133Y-95815500D01*
X164667495Y-95799515D01*
X164705847Y-95773888D01*
X164721210Y-95763624D01*
X164743633Y-95748641D01*
X164743641Y-95748635D01*
X164748967Y-95745076D01*
X164758624Y-95738624D01*
X164769944Y-95721681D01*
X164779141Y-95710474D01*
X165817442Y-94672174D01*
X165863319Y-94650782D01*
X165869768Y-94650500D01*
X166085304Y-94650500D01*
X166132870Y-94667813D01*
G37*
%TD.AperFunction*%
%TA.AperFunction,Conductor*%
G36*
X147879966Y-101324108D02*
G01*
X147959842Y-101347561D01*
X147959843Y-101347562D01*
X147959846Y-101347562D01*
X148054850Y-101347562D01*
X148102416Y-101364875D01*
X148107176Y-101369236D01*
X148287826Y-101549886D01*
X148309218Y-101595762D01*
X148309500Y-101602212D01*
X148309500Y-102045934D01*
X148308078Y-102060370D01*
X148304830Y-102076702D01*
X148304103Y-102080355D01*
X148309500Y-102107487D01*
X148309500Y-102107488D01*
X148312838Y-102124268D01*
X148325485Y-102187850D01*
X148352979Y-102228998D01*
X148368532Y-102252275D01*
X148386375Y-102278978D01*
X148386378Y-102278981D01*
X148403314Y-102290297D01*
X148414529Y-102299500D01*
X149035499Y-102920470D01*
X149044701Y-102931683D01*
X149056020Y-102948623D01*
X149056021Y-102948624D01*
X149076000Y-102961974D01*
X149079022Y-102963993D01*
X149079023Y-102963994D01*
X149088760Y-102970500D01*
X149147150Y-103009515D01*
X149227512Y-103025500D01*
X149227513Y-103025500D01*
X149254644Y-103030897D01*
X149254645Y-103030897D01*
X149274628Y-103026921D01*
X149289065Y-103025500D01*
X149601239Y-103025500D01*
X149615675Y-103026921D01*
X149635659Y-103030897D01*
X149635660Y-103030897D01*
X149640988Y-103029837D01*
X149662791Y-103025500D01*
X149662792Y-103025500D01*
X149743154Y-103009515D01*
X149801544Y-102970500D01*
X149811281Y-102963994D01*
X149811280Y-102963994D01*
X149819294Y-102958640D01*
X149819298Y-102958636D01*
X149821030Y-102957479D01*
X149834283Y-102948624D01*
X149845607Y-102931674D01*
X149854800Y-102920473D01*
X151123717Y-101651557D01*
X151169593Y-101630166D01*
X151218487Y-101643267D01*
X151247521Y-101684731D01*
X151248697Y-101691200D01*
X151248791Y-101691182D01*
X151249500Y-101694746D01*
X151249500Y-101694748D01*
X151254477Y-101719767D01*
X151261133Y-101753231D01*
X151264913Y-101758888D01*
X151276944Y-101808056D01*
X151264913Y-101841112D01*
X151261133Y-101846768D01*
X151259183Y-101856574D01*
X151249500Y-101905252D01*
X151249500Y-102494748D01*
X151256474Y-102529807D01*
X151261133Y-102553231D01*
X151264913Y-102558888D01*
X151276944Y-102608056D01*
X151264913Y-102641112D01*
X151261133Y-102646768D01*
X151257920Y-102662920D01*
X151249500Y-102705252D01*
X151249500Y-103294748D01*
X151255846Y-103326653D01*
X151261133Y-103353231D01*
X151264913Y-103358888D01*
X151276944Y-103408056D01*
X151264913Y-103441112D01*
X151261133Y-103446768D01*
X151261132Y-103446769D01*
X151261133Y-103446769D01*
X151250606Y-103499695D01*
X151249500Y-103505253D01*
X151249500Y-103881236D01*
X151232187Y-103928802D01*
X151188350Y-103954112D01*
X151167590Y-103954812D01*
X151122830Y-103950000D01*
X150950000Y-103950000D01*
X150950000Y-105100000D01*
X151575000Y-105100000D01*
X151575000Y-104402170D01*
X151570188Y-104357410D01*
X151582317Y-104308266D01*
X151623198Y-104278415D01*
X151643764Y-104275500D01*
X153069746Y-104275500D01*
X153069748Y-104275500D01*
X153128231Y-104263867D01*
X153194552Y-104219552D01*
X153238867Y-104153231D01*
X153250500Y-104094748D01*
X153250500Y-103505252D01*
X153238867Y-103446769D01*
X153238866Y-103446768D01*
X153238866Y-103446766D01*
X153235089Y-103441114D01*
X153223056Y-103391947D01*
X153235089Y-103358886D01*
X153238866Y-103353233D01*
X153238866Y-103353232D01*
X153238867Y-103353231D01*
X153250500Y-103294748D01*
X153250500Y-102705252D01*
X153238867Y-102646769D01*
X153238866Y-102646768D01*
X153238866Y-102646766D01*
X153235089Y-102641114D01*
X153223056Y-102591947D01*
X153235089Y-102558886D01*
X153238866Y-102553233D01*
X153238866Y-102553232D01*
X153238867Y-102553231D01*
X153250500Y-102494748D01*
X153250500Y-101905252D01*
X153238867Y-101846769D01*
X153238866Y-101846768D01*
X153238866Y-101846766D01*
X153235089Y-101841114D01*
X153223056Y-101791947D01*
X153235089Y-101758886D01*
X153238866Y-101753233D01*
X153238866Y-101753232D01*
X153238867Y-101753231D01*
X153250500Y-101694748D01*
X153250500Y-101483820D01*
X153267813Y-101436254D01*
X153311650Y-101410944D01*
X153361500Y-101419734D01*
X153394037Y-101458511D01*
X153397747Y-101473289D01*
X153406518Y-101534297D01*
X153406518Y-101534298D01*
X153406519Y-101534300D01*
X153460334Y-101652137D01*
X153545167Y-101750041D01*
X153654147Y-101820078D01*
X153778444Y-101856574D01*
X153907988Y-101856574D01*
X154032285Y-101820078D01*
X154141265Y-101750041D01*
X154226098Y-101652137D01*
X154271620Y-101552457D01*
X154307127Y-101516383D01*
X154357517Y-101511572D01*
X154391258Y-101530874D01*
X154588764Y-101728380D01*
X154610156Y-101774256D01*
X154610438Y-101780706D01*
X154610438Y-105822600D01*
X154593125Y-105870166D01*
X154584908Y-105878516D01*
X154584694Y-105878701D01*
X154499853Y-105976613D01*
X154499852Y-105976614D01*
X154499852Y-105976615D01*
X154489392Y-105999518D01*
X154446036Y-106094454D01*
X154427838Y-106221031D01*
X154403932Y-106265649D01*
X154356939Y-106284463D01*
X154354591Y-106284500D01*
X152837943Y-106284500D01*
X152790377Y-106267187D01*
X152785617Y-106262826D01*
X152325894Y-105803103D01*
X152304502Y-105757227D01*
X152304974Y-105740244D01*
X152307938Y-105719633D01*
X152307938Y-105719631D01*
X152302883Y-105684472D01*
X152289502Y-105591404D01*
X152235687Y-105473567D01*
X152150854Y-105375663D01*
X152068177Y-105322530D01*
X152041873Y-105305625D01*
X151917577Y-105269130D01*
X151788033Y-105269130D01*
X151663736Y-105305625D01*
X151577578Y-105360996D01*
X151554756Y-105375663D01*
X151554753Y-105375665D01*
X151550756Y-105379130D01*
X151549666Y-105377872D01*
X151511561Y-105399071D01*
X151499873Y-105400000D01*
X150724000Y-105400000D01*
X150676434Y-105382687D01*
X150651124Y-105338850D01*
X150650000Y-105326000D01*
X150650000Y-103950000D01*
X150477171Y-103950000D01*
X150417624Y-103956402D01*
X150417619Y-103956403D01*
X150282912Y-104006645D01*
X150282911Y-104006646D01*
X150167811Y-104092811D01*
X150081646Y-104207912D01*
X150079979Y-104210965D01*
X150041988Y-104244415D01*
X150015031Y-104249500D01*
X149705252Y-104249500D01*
X149666263Y-104257255D01*
X149646768Y-104261133D01*
X149641112Y-104264913D01*
X149591944Y-104276944D01*
X149558888Y-104264913D01*
X149553231Y-104261133D01*
X149553231Y-104261132D01*
X149494748Y-104249500D01*
X148905252Y-104249500D01*
X148866263Y-104257255D01*
X148846768Y-104261133D01*
X148841112Y-104264913D01*
X148791944Y-104276944D01*
X148758888Y-104264913D01*
X148753231Y-104261133D01*
X148753231Y-104261132D01*
X148694748Y-104249500D01*
X148105252Y-104249500D01*
X148066263Y-104257255D01*
X148046768Y-104261133D01*
X148041112Y-104264913D01*
X147991944Y-104276944D01*
X147958888Y-104264913D01*
X147953231Y-104261133D01*
X147953231Y-104261132D01*
X147894748Y-104249500D01*
X147894746Y-104249500D01*
X147756731Y-104249500D01*
X147709165Y-104232187D01*
X147683855Y-104188350D01*
X147688746Y-104150013D01*
X147687953Y-104149780D01*
X147689409Y-104144821D01*
X147689417Y-104144761D01*
X147689443Y-104144705D01*
X147707879Y-104016479D01*
X147689443Y-103888253D01*
X147635628Y-103770416D01*
X147550795Y-103672512D01*
X147483778Y-103629443D01*
X147441814Y-103602474D01*
X147317518Y-103565979D01*
X147229194Y-103565979D01*
X147188081Y-103553507D01*
X147164947Y-103538049D01*
X147164944Y-103538047D01*
X147115861Y-103505251D01*
X147093763Y-103490485D01*
X147093764Y-103490485D01*
X147050341Y-103481848D01*
X147013400Y-103474500D01*
X147013399Y-103474500D01*
X147013397Y-103474499D01*
X146986268Y-103469103D01*
X146986267Y-103469103D01*
X146978606Y-103470627D01*
X146966284Y-103473078D01*
X146951847Y-103474500D01*
X146898129Y-103474500D01*
X146850563Y-103457187D01*
X146825253Y-103413350D01*
X146834043Y-103363500D01*
X146842203Y-103352041D01*
X146847379Y-103346067D01*
X146847380Y-103346065D01*
X146847379Y-103346065D01*
X146847382Y-103346063D01*
X146901197Y-103228226D01*
X146919633Y-103100000D01*
X146916668Y-103079381D01*
X146927035Y-103029837D01*
X146937585Y-103016529D01*
X147680090Y-102274024D01*
X147691294Y-102264829D01*
X147708242Y-102253506D01*
X147724328Y-102229433D01*
X147739396Y-102206882D01*
X147767921Y-102164191D01*
X147768322Y-102163589D01*
X147769133Y-102162377D01*
X147785118Y-102082015D01*
X147785118Y-102082014D01*
X147790515Y-102054882D01*
X147786540Y-102034897D01*
X147785118Y-102020461D01*
X147785118Y-101395110D01*
X147802431Y-101347544D01*
X147846268Y-101322234D01*
X147879966Y-101324108D01*
G37*
%TD.AperFunction*%
%TA.AperFunction,Conductor*%
G36*
X140348566Y-98317313D02*
G01*
X140373876Y-98361150D01*
X140375000Y-98374000D01*
X140375000Y-98526000D01*
X140357687Y-98573566D01*
X140313850Y-98598876D01*
X140301000Y-98600000D01*
X139275001Y-98600000D01*
X139275001Y-98748312D01*
X139285144Y-98847608D01*
X139338452Y-99008482D01*
X139427426Y-99152731D01*
X139547268Y-99272573D01*
X139691520Y-99361549D01*
X139691582Y-99361578D01*
X139691606Y-99361602D01*
X139695184Y-99363809D01*
X139694661Y-99364656D01*
X139727376Y-99397370D01*
X139731789Y-99447796D01*
X139712636Y-99480970D01*
X139661952Y-99531654D01*
X139604353Y-99644698D01*
X139589500Y-99738480D01*
X139589500Y-100351519D01*
X139604353Y-100445304D01*
X139604354Y-100445306D01*
X139659277Y-100553096D01*
X139661950Y-100558342D01*
X139751658Y-100648050D01*
X139864696Y-100705646D01*
X139864698Y-100705646D01*
X139869885Y-100708289D01*
X139869150Y-100709731D01*
X139903256Y-100736379D01*
X139914500Y-100775592D01*
X139914500Y-100954407D01*
X139897187Y-101001973D01*
X139869385Y-101020730D01*
X139869885Y-101021711D01*
X139864698Y-101024353D01*
X139864696Y-101024354D01*
X139773396Y-101070874D01*
X139751656Y-101081951D01*
X139673592Y-101160015D01*
X139627715Y-101181407D01*
X139578821Y-101168306D01*
X139559737Y-101148800D01*
X139547030Y-101129782D01*
X139547027Y-101129779D01*
X139530087Y-101118460D01*
X139518874Y-101109258D01*
X139070330Y-100660714D01*
X139048938Y-100614838D01*
X139062039Y-100565943D01*
X139065682Y-100561600D01*
X139068047Y-100558345D01*
X139068050Y-100558342D01*
X139125646Y-100445304D01*
X139140500Y-100351519D01*
X139140499Y-99738482D01*
X139137669Y-99720614D01*
X139125646Y-99644695D01*
X139125645Y-99644693D01*
X139095086Y-99584718D01*
X139068050Y-99531658D01*
X138978342Y-99441950D01*
X138865304Y-99384354D01*
X138865302Y-99384353D01*
X138865301Y-99384353D01*
X138771520Y-99369500D01*
X138359597Y-99369500D01*
X138312031Y-99352187D01*
X138286721Y-99308350D01*
X138295511Y-99258500D01*
X138307264Y-99243182D01*
X139228773Y-98321673D01*
X139274649Y-98300282D01*
X139281098Y-98300000D01*
X140301000Y-98300000D01*
X140348566Y-98317313D01*
G37*
%TD.AperFunction*%
%TA.AperFunction,Conductor*%
G36*
X137961107Y-94357813D02*
G01*
X137986417Y-94401650D01*
X137980854Y-94445239D01*
X137974343Y-94459495D01*
X137973302Y-94461776D01*
X137954867Y-94590000D01*
X137958062Y-94612229D01*
X137947693Y-94661775D01*
X137946359Y-94663847D01*
X137944868Y-94666080D01*
X137944077Y-94667264D01*
X137944074Y-94667269D01*
X137943327Y-94668387D01*
X137939112Y-94674696D01*
X137900485Y-94732505D01*
X137887112Y-94799738D01*
X137885064Y-94810032D01*
X137879103Y-94840000D01*
X137883078Y-94859983D01*
X137884500Y-94874420D01*
X137884500Y-95982699D01*
X137867187Y-96030265D01*
X137865198Y-96032286D01*
X137861951Y-96036032D01*
X137861951Y-96036033D01*
X137854633Y-96044479D01*
X137777119Y-96133935D01*
X137723302Y-96251776D01*
X137704867Y-96380000D01*
X137723302Y-96508223D01*
X137723302Y-96508224D01*
X137723303Y-96508226D01*
X137777118Y-96626063D01*
X137861951Y-96723967D01*
X137970931Y-96794004D01*
X138095228Y-96830500D01*
X138224772Y-96830500D01*
X138349069Y-96794004D01*
X138410493Y-96754528D01*
X138459868Y-96743377D01*
X138504860Y-96766572D01*
X138524416Y-96813261D01*
X138524500Y-96816782D01*
X138524500Y-97305230D01*
X138507187Y-97352796D01*
X138502826Y-97357556D01*
X138076325Y-97784057D01*
X138030449Y-97805449D01*
X137981554Y-97792348D01*
X137952520Y-97750884D01*
X137949999Y-97731731D01*
X137949999Y-97618429D01*
X137949998Y-97618416D01*
X137943591Y-97547897D01*
X137943590Y-97547893D01*
X137893020Y-97385606D01*
X137805074Y-97240125D01*
X137684874Y-97119925D01*
X137539393Y-97031979D01*
X137377109Y-96981410D01*
X137377099Y-96981408D01*
X137306582Y-96975000D01*
X137200000Y-96975000D01*
X137200000Y-98026000D01*
X137182687Y-98073566D01*
X137138850Y-98098876D01*
X137126000Y-98100000D01*
X136150001Y-98100000D01*
X136150001Y-98281583D01*
X136156408Y-98352102D01*
X136156409Y-98352106D01*
X136206979Y-98514393D01*
X136294925Y-98659874D01*
X136415125Y-98780074D01*
X136560606Y-98868020D01*
X136722890Y-98918589D01*
X136722900Y-98918591D01*
X136766203Y-98922526D01*
X136812007Y-98944071D01*
X136833247Y-98990019D01*
X136819982Y-99038869D01*
X136811834Y-99048547D01*
X136779530Y-99080852D01*
X136768319Y-99090053D01*
X136751377Y-99101374D01*
X136751375Y-99101376D01*
X136745613Y-99110000D01*
X136736007Y-99124376D01*
X136736006Y-99124378D01*
X136735068Y-99125782D01*
X136731329Y-99131377D01*
X136690484Y-99192506D01*
X136687696Y-99199238D01*
X136685822Y-99198461D01*
X136664737Y-99233211D01*
X136618418Y-99249500D01*
X136405252Y-99249500D01*
X136380196Y-99254484D01*
X136346767Y-99261133D01*
X136280448Y-99305448D01*
X136277323Y-99308573D01*
X136231445Y-99329963D01*
X136182552Y-99316859D01*
X136172677Y-99308573D01*
X136169554Y-99305451D01*
X136169552Y-99305448D01*
X136136391Y-99283290D01*
X136103232Y-99261133D01*
X136103233Y-99261133D01*
X136069804Y-99254484D01*
X136044748Y-99249500D01*
X136044746Y-99249500D01*
X135849500Y-99249500D01*
X135801934Y-99232187D01*
X135776624Y-99188350D01*
X135775500Y-99175500D01*
X135775500Y-98630416D01*
X135792813Y-98582850D01*
X135815903Y-98564482D01*
X135838342Y-98553050D01*
X135928050Y-98463342D01*
X135985646Y-98350304D01*
X136000500Y-98256519D01*
X136000499Y-97800000D01*
X136150000Y-97800000D01*
X136900000Y-97800000D01*
X136900000Y-96975000D01*
X136793429Y-96975000D01*
X136793416Y-96975001D01*
X136722897Y-96981408D01*
X136722893Y-96981409D01*
X136560606Y-97031979D01*
X136415125Y-97119925D01*
X136294925Y-97240125D01*
X136206979Y-97385606D01*
X136156410Y-97547890D01*
X136156408Y-97547900D01*
X136150000Y-97618417D01*
X136150000Y-97800000D01*
X136000499Y-97800000D01*
X136000499Y-97643482D01*
X136000131Y-97641160D01*
X135985646Y-97549695D01*
X135985645Y-97549693D01*
X135934719Y-97449747D01*
X135928050Y-97436658D01*
X135838342Y-97346950D01*
X135725304Y-97289354D01*
X135725302Y-97289353D01*
X135725301Y-97289353D01*
X135631519Y-97274500D01*
X135168480Y-97274500D01*
X135074696Y-97289353D01*
X135053097Y-97300359D01*
X135002855Y-97306527D01*
X134960403Y-97278958D01*
X134945502Y-97234424D01*
X134945502Y-97114766D01*
X134962815Y-97067200D01*
X134967176Y-97062440D01*
X135201673Y-96827943D01*
X135247549Y-96806551D01*
X135253999Y-96806269D01*
X135344809Y-96806269D01*
X135359245Y-96807690D01*
X135379229Y-96811666D01*
X135379230Y-96811666D01*
X135387021Y-96810116D01*
X135406361Y-96806269D01*
X135406362Y-96806269D01*
X135486724Y-96790284D01*
X135543361Y-96752440D01*
X135554851Y-96744763D01*
X135554851Y-96744762D01*
X135562862Y-96739410D01*
X135562870Y-96739404D01*
X135573969Y-96731988D01*
X135577853Y-96729393D01*
X135589173Y-96712450D01*
X135598370Y-96701243D01*
X136050549Y-96249063D01*
X136061753Y-96239868D01*
X136078701Y-96228545D01*
X136103943Y-96190769D01*
X136119864Y-96166941D01*
X136139592Y-96137416D01*
X136155577Y-96057054D01*
X136155577Y-96057053D01*
X136160974Y-96029921D01*
X136160721Y-96028651D01*
X136156999Y-96009936D01*
X136155577Y-95995500D01*
X136155577Y-95484690D01*
X136172890Y-95437124D01*
X136177251Y-95432364D01*
X137247442Y-94362174D01*
X137293319Y-94340782D01*
X137299768Y-94340500D01*
X137913541Y-94340500D01*
X137961107Y-94357813D01*
G37*
%TD.AperFunction*%
%TA.AperFunction,Conductor*%
G36*
X141979157Y-88817813D02*
G01*
X142004467Y-88861650D01*
X141995677Y-88911500D01*
X141994574Y-88913348D01*
X141901177Y-89064768D01*
X141846029Y-89231192D01*
X141835535Y-89333915D01*
X141835535Y-89708890D01*
X143835534Y-89708890D01*
X143835534Y-89333919D01*
X143835533Y-89333909D01*
X143825040Y-89231193D01*
X143769892Y-89064768D01*
X143676496Y-88913348D01*
X143666260Y-88863775D01*
X143690284Y-88819220D01*
X143737327Y-88800531D01*
X143739479Y-88800500D01*
X144353236Y-88800500D01*
X144400802Y-88817813D01*
X144426112Y-88861650D01*
X144417322Y-88911500D01*
X144378545Y-88944037D01*
X144377677Y-88944347D01*
X144272653Y-88981096D01*
X144272651Y-88981097D01*
X144163388Y-89061736D01*
X144163381Y-89061743D01*
X144082742Y-89171006D01*
X144082741Y-89171008D01*
X144037890Y-89299185D01*
X144037889Y-89299189D01*
X144037889Y-89299191D01*
X144035035Y-89329624D01*
X144035035Y-90388156D01*
X144037889Y-90418589D01*
X144037889Y-90418591D01*
X144037890Y-90418594D01*
X144049250Y-90451059D01*
X144048619Y-90501674D01*
X144015601Y-90540042D01*
X143979403Y-90549500D01*
X143900559Y-90549500D01*
X143852993Y-90532187D01*
X143827683Y-90488350D01*
X143826942Y-90467979D01*
X143835534Y-90383865D01*
X143835535Y-90383863D01*
X143835535Y-90008890D01*
X141835536Y-90008890D01*
X141835536Y-90383866D01*
X141846029Y-90486586D01*
X141901177Y-90653011D01*
X141993218Y-90802233D01*
X141993221Y-90802237D01*
X142117188Y-90926204D01*
X142117191Y-90926206D01*
X142266414Y-91018248D01*
X142414527Y-91067328D01*
X142454234Y-91098724D01*
X142464470Y-91148297D01*
X142443578Y-91189897D01*
X142417084Y-91216391D01*
X142329138Y-91361872D01*
X142278569Y-91524156D01*
X142278567Y-91524166D01*
X142272159Y-91594683D01*
X142272159Y-91776266D01*
X144072158Y-91776266D01*
X144072158Y-91594695D01*
X144072157Y-91594682D01*
X144065750Y-91524166D01*
X144062828Y-91514788D01*
X144065204Y-91464225D01*
X144099526Y-91427018D01*
X144112630Y-91421767D01*
X144139069Y-91414004D01*
X144139074Y-91414000D01*
X144143880Y-91411807D01*
X144144415Y-91412978D01*
X144187998Y-91403125D01*
X144232995Y-91426311D01*
X144252561Y-91472995D01*
X144244582Y-91510124D01*
X144236512Y-91525962D01*
X144221659Y-91619746D01*
X144221659Y-92232785D01*
X144236512Y-92326570D01*
X144236513Y-92326572D01*
X144290435Y-92432398D01*
X144294109Y-92439608D01*
X144383817Y-92529316D01*
X144496855Y-92586912D01*
X144590640Y-92601766D01*
X144882524Y-92601765D01*
X144930089Y-92619078D01*
X144955399Y-92662915D01*
X144946609Y-92712765D01*
X144934849Y-92728091D01*
X144644464Y-93018476D01*
X144633254Y-93027676D01*
X144616312Y-93038997D01*
X144611158Y-93044152D01*
X144608819Y-93041813D01*
X144578960Y-93063676D01*
X144569878Y-93065707D01*
X144489630Y-93078417D01*
X144489628Y-93078417D01*
X144376592Y-93136013D01*
X144286886Y-93225719D01*
X144229288Y-93338761D01*
X144214435Y-93432543D01*
X144214435Y-94045582D01*
X144229288Y-94139367D01*
X144229289Y-94139369D01*
X144288604Y-94255779D01*
X144294773Y-94306021D01*
X144267205Y-94348474D01*
X144218797Y-94363274D01*
X144201823Y-94360378D01*
X144164773Y-94349500D01*
X144164772Y-94349500D01*
X144094176Y-94349500D01*
X144046610Y-94332187D01*
X144021300Y-94288350D01*
X144023527Y-94253485D01*
X144058524Y-94141172D01*
X144058526Y-94141162D01*
X144064934Y-94070645D01*
X144064935Y-94070636D01*
X144064935Y-93889063D01*
X142264936Y-93889063D01*
X142264936Y-94070646D01*
X142271343Y-94141165D01*
X142271344Y-94141169D01*
X142321914Y-94303456D01*
X142409860Y-94448937D01*
X142480079Y-94519156D01*
X142501471Y-94565032D01*
X142495066Y-94602222D01*
X142463302Y-94671774D01*
X142444867Y-94800000D01*
X142463302Y-94928223D01*
X142463302Y-94928224D01*
X142463303Y-94928226D01*
X142517118Y-95046063D01*
X142601951Y-95143967D01*
X142710931Y-95214004D01*
X142835228Y-95250500D01*
X142964772Y-95250500D01*
X143089069Y-95214004D01*
X143198049Y-95143967D01*
X143235243Y-95101041D01*
X143279477Y-95076430D01*
X143291170Y-95075500D01*
X143708830Y-95075500D01*
X143756396Y-95092813D01*
X143764756Y-95101041D01*
X143801947Y-95143963D01*
X143801948Y-95143964D01*
X143801951Y-95143967D01*
X143910931Y-95214004D01*
X144035228Y-95250500D01*
X144164772Y-95250500D01*
X144289069Y-95214004D01*
X144398049Y-95143967D01*
X144482882Y-95046063D01*
X144536697Y-94928226D01*
X144555133Y-94800000D01*
X144536697Y-94671774D01*
X144482882Y-94553937D01*
X144482880Y-94553935D01*
X144482880Y-94553934D01*
X144482879Y-94553932D01*
X144459725Y-94527211D01*
X144441660Y-94479926D01*
X144458216Y-94432091D01*
X144501647Y-94406089D01*
X144527223Y-94405663D01*
X144583416Y-94414563D01*
X145046453Y-94414562D01*
X145046454Y-94414562D01*
X145140239Y-94399709D01*
X145140241Y-94399708D01*
X145155331Y-94392019D01*
X145253277Y-94342113D01*
X145342985Y-94252405D01*
X145400581Y-94139367D01*
X145415435Y-94045582D01*
X145415434Y-93432545D01*
X145415278Y-93431563D01*
X145400581Y-93338758D01*
X145400580Y-93338756D01*
X145365177Y-93269276D01*
X145342985Y-93225721D01*
X145332044Y-93214780D01*
X145310652Y-93168904D01*
X145323753Y-93120009D01*
X145332036Y-93110137D01*
X145373408Y-93068764D01*
X145419284Y-93047374D01*
X145468178Y-93060475D01*
X145493045Y-93090349D01*
X145512064Y-93131995D01*
X145596897Y-93229899D01*
X145596898Y-93229900D01*
X145600363Y-93233898D01*
X145598478Y-93235530D01*
X145618514Y-93271527D01*
X145619446Y-93283232D01*
X145619446Y-95684135D01*
X145602133Y-95731701D01*
X145558296Y-95757011D01*
X145531010Y-95756713D01*
X145494748Y-95749500D01*
X144905252Y-95749500D01*
X144876010Y-95755316D01*
X144846767Y-95761133D01*
X144780449Y-95805447D01*
X144780444Y-95805452D01*
X144776312Y-95811636D01*
X144735488Y-95841564D01*
X144684978Y-95838250D01*
X144662461Y-95822845D01*
X144369145Y-95529529D01*
X144359942Y-95518314D01*
X144348626Y-95501378D01*
X144348624Y-95501376D01*
X144338649Y-95494711D01*
X144328644Y-95488025D01*
X144328641Y-95488023D01*
X144281442Y-95456486D01*
X144257495Y-95440485D01*
X144240598Y-95437124D01*
X144177133Y-95424500D01*
X144177132Y-95424500D01*
X144177130Y-95424499D01*
X144150001Y-95419103D01*
X144150000Y-95419103D01*
X144130017Y-95423078D01*
X144115580Y-95424500D01*
X142443614Y-95424500D01*
X142396048Y-95407187D01*
X142370738Y-95363350D01*
X142370525Y-95362075D01*
X142360646Y-95299695D01*
X142360645Y-95299693D01*
X142317251Y-95214529D01*
X142303050Y-95186658D01*
X142213342Y-95096950D01*
X142100304Y-95039354D01*
X142100302Y-95039353D01*
X142100301Y-95039353D01*
X142006519Y-95024500D01*
X141543480Y-95024500D01*
X141449695Y-95039353D01*
X141449693Y-95039354D01*
X141336657Y-95096950D01*
X141246951Y-95186656D01*
X141189353Y-95299698D01*
X141174500Y-95393480D01*
X141174500Y-96006519D01*
X141189353Y-96100304D01*
X141189354Y-96100306D01*
X141231051Y-96182139D01*
X141246950Y-96213342D01*
X141336658Y-96303050D01*
X141449696Y-96360646D01*
X141543481Y-96375500D01*
X142006518Y-96375499D01*
X142006519Y-96375499D01*
X142100304Y-96360646D01*
X142100306Y-96360645D01*
X142119388Y-96350922D01*
X142213342Y-96303050D01*
X142303050Y-96213342D01*
X142360646Y-96100304D01*
X142370525Y-96037924D01*
X142395067Y-95993652D01*
X142442323Y-95975511D01*
X142443615Y-95975500D01*
X144005232Y-95975500D01*
X144052798Y-95992813D01*
X144057558Y-95997174D01*
X144702826Y-96642442D01*
X144724218Y-96688317D01*
X144724500Y-96694767D01*
X144724500Y-97356236D01*
X144707187Y-97403802D01*
X144663350Y-97429112D01*
X144642590Y-97429812D01*
X144597830Y-97425000D01*
X143900000Y-97425000D01*
X143900000Y-98050000D01*
X145050000Y-98050000D01*
X145050000Y-97877170D01*
X145045188Y-97832410D01*
X145057317Y-97783266D01*
X145098198Y-97753415D01*
X145118764Y-97750500D01*
X145494746Y-97750500D01*
X145494748Y-97750500D01*
X145553231Y-97738867D01*
X145553232Y-97738866D01*
X145553233Y-97738866D01*
X145558886Y-97735089D01*
X145608053Y-97723056D01*
X145641114Y-97735089D01*
X145646766Y-97738866D01*
X145646768Y-97738866D01*
X145646769Y-97738867D01*
X145705252Y-97750500D01*
X145705254Y-97750500D01*
X146294746Y-97750500D01*
X146294748Y-97750500D01*
X146353231Y-97738867D01*
X146353232Y-97738866D01*
X146353233Y-97738866D01*
X146358886Y-97735089D01*
X146408053Y-97723056D01*
X146441114Y-97735089D01*
X146446766Y-97738866D01*
X146446768Y-97738866D01*
X146446769Y-97738867D01*
X146505252Y-97750500D01*
X146665109Y-97750500D01*
X146712675Y-97767813D01*
X146737985Y-97811650D01*
X146732422Y-97855240D01*
X146729576Y-97861470D01*
X146711141Y-97989696D01*
X146714105Y-98010313D01*
X146703737Y-98059859D01*
X146693184Y-98073169D01*
X146063528Y-98702826D01*
X146017652Y-98724218D01*
X146011202Y-98724500D01*
X145097169Y-98724500D01*
X145049603Y-98707187D01*
X145024293Y-98663350D01*
X145027835Y-98624640D01*
X145043596Y-98582380D01*
X145043597Y-98582375D01*
X145050000Y-98522828D01*
X145050000Y-98350000D01*
X143674000Y-98350000D01*
X143626434Y-98332687D01*
X143601124Y-98288850D01*
X143600000Y-98276000D01*
X143600000Y-97425000D01*
X142902171Y-97425000D01*
X142842624Y-97431402D01*
X142842619Y-97431403D01*
X142707912Y-97481645D01*
X142707911Y-97481646D01*
X142592811Y-97567811D01*
X142506646Y-97682911D01*
X142506645Y-97682912D01*
X142456403Y-97817619D01*
X142456402Y-97817624D01*
X142449925Y-97877861D01*
X142427626Y-97923303D01*
X142381334Y-97943781D01*
X142332709Y-97929712D01*
X142324023Y-97922275D01*
X142253219Y-97851471D01*
X142133126Y-97790281D01*
X142133125Y-97790280D01*
X142033489Y-97774500D01*
X142033488Y-97774500D01*
X141519768Y-97774500D01*
X141472202Y-97757187D01*
X141467442Y-97752826D01*
X140917298Y-97202682D01*
X140908095Y-97191467D01*
X140896779Y-97174531D01*
X140896777Y-97174529D01*
X140882538Y-97165015D01*
X140876797Y-97161178D01*
X140876794Y-97161176D01*
X140860934Y-97150579D01*
X140836548Y-97134285D01*
X140815057Y-97119925D01*
X140805649Y-97113638D01*
X140790483Y-97110621D01*
X140748996Y-97086502D01*
X140699335Y-97029189D01*
X140699333Y-97029188D01*
X140699332Y-97029186D01*
X140625539Y-96981762D01*
X140590351Y-96959148D01*
X140466055Y-96922653D01*
X140336511Y-96922653D01*
X140212214Y-96959148D01*
X140103237Y-97029184D01*
X140103233Y-97029187D01*
X140018402Y-97127088D01*
X140018401Y-97127089D01*
X140018401Y-97127090D01*
X140018058Y-97127841D01*
X139964585Y-97244929D01*
X139946150Y-97373153D01*
X139946150Y-97373154D01*
X139949689Y-97397773D01*
X139939321Y-97447318D01*
X139899531Y-97478608D01*
X139883963Y-97481919D01*
X139852391Y-97485144D01*
X139691517Y-97538452D01*
X139547268Y-97627426D01*
X139541826Y-97632869D01*
X139495950Y-97654261D01*
X139447055Y-97641160D01*
X139418021Y-97599696D01*
X139415500Y-97580543D01*
X139415500Y-96616167D01*
X139432813Y-96568601D01*
X139476650Y-96543291D01*
X139526500Y-96552081D01*
X139527783Y-96552839D01*
X139635606Y-96618020D01*
X139797890Y-96668589D01*
X139797900Y-96668591D01*
X139868422Y-96674999D01*
X139975000Y-96674999D01*
X139975000Y-95850000D01*
X140275000Y-95850000D01*
X140275000Y-96674999D01*
X140381571Y-96674999D01*
X140381583Y-96674998D01*
X140452102Y-96668591D01*
X140452106Y-96668590D01*
X140614393Y-96618020D01*
X140759874Y-96530074D01*
X140880074Y-96409874D01*
X140968020Y-96264393D01*
X141018589Y-96102109D01*
X141018591Y-96102099D01*
X141024999Y-96031582D01*
X141025000Y-96031573D01*
X141025000Y-95850000D01*
X140275000Y-95850000D01*
X139975000Y-95850000D01*
X139975000Y-95624000D01*
X139992313Y-95576434D01*
X140036150Y-95551124D01*
X140049000Y-95550000D01*
X141024999Y-95550000D01*
X141024999Y-95368429D01*
X141024998Y-95368416D01*
X141018591Y-95297897D01*
X141018590Y-95297893D01*
X140968020Y-95135606D01*
X140880074Y-94990125D01*
X140759874Y-94869925D01*
X140614393Y-94781979D01*
X140452109Y-94731410D01*
X140452099Y-94731408D01*
X140381582Y-94725000D01*
X140374543Y-94725000D01*
X140326977Y-94707687D01*
X140301667Y-94663850D01*
X140310457Y-94614000D01*
X140313014Y-94609888D01*
X140322518Y-94595664D01*
X140326303Y-94590000D01*
X140356705Y-94544500D01*
X140368634Y-94526647D01*
X140384619Y-94446285D01*
X140384619Y-94446284D01*
X140390016Y-94419152D01*
X140390016Y-94411864D01*
X140393439Y-94411864D01*
X140398982Y-94375669D01*
X140411557Y-94358890D01*
X140770472Y-93999974D01*
X140781676Y-93990779D01*
X140798624Y-93979456D01*
X140815290Y-93954515D01*
X140859516Y-93888326D01*
X140873590Y-93817567D01*
X140880897Y-93780833D01*
X140880897Y-93780830D01*
X140876922Y-93760846D01*
X140875500Y-93746410D01*
X140875500Y-93589063D01*
X142264935Y-93589063D01*
X143014935Y-93589063D01*
X143314935Y-93589063D01*
X144064934Y-93589063D01*
X144064934Y-93407492D01*
X144064933Y-93407479D01*
X144058526Y-93336960D01*
X144058525Y-93336956D01*
X144007955Y-93174669D01*
X143920009Y-93029188D01*
X143799807Y-92908986D01*
X143781924Y-92898176D01*
X143750173Y-92858753D01*
X143751192Y-92808144D01*
X143781924Y-92771520D01*
X143807031Y-92756342D01*
X143927233Y-92636140D01*
X144015179Y-92490659D01*
X144065748Y-92328375D01*
X144065750Y-92328365D01*
X144072158Y-92257848D01*
X144072159Y-92257839D01*
X144072159Y-92076266D01*
X143322159Y-92076266D01*
X143322159Y-92903390D01*
X143314935Y-92923237D01*
X143314935Y-93589063D01*
X143014935Y-93589063D01*
X143014935Y-92761938D01*
X143022159Y-92742090D01*
X143022159Y-92076266D01*
X142272160Y-92076266D01*
X142272160Y-92257849D01*
X142278567Y-92328368D01*
X142278568Y-92328372D01*
X142329138Y-92490659D01*
X142417084Y-92636140D01*
X142537283Y-92756339D01*
X142555170Y-92767152D01*
X142586920Y-92806576D01*
X142585901Y-92857184D01*
X142555172Y-92893807D01*
X142530060Y-92908988D01*
X142409860Y-93029188D01*
X142321914Y-93174669D01*
X142271345Y-93336953D01*
X142271343Y-93336963D01*
X142264935Y-93407480D01*
X142264935Y-93589063D01*
X140875500Y-93589063D01*
X140875500Y-91719767D01*
X140892813Y-91672201D01*
X140897163Y-91667452D01*
X141117442Y-91447173D01*
X141163319Y-91425782D01*
X141169768Y-91425500D01*
X141264772Y-91425500D01*
X141389069Y-91389004D01*
X141498049Y-91318967D01*
X141582882Y-91221063D01*
X141636697Y-91103226D01*
X141655133Y-90975000D01*
X141636697Y-90846774D01*
X141582882Y-90728937D01*
X141582880Y-90728935D01*
X141582880Y-90728934D01*
X141582879Y-90728932D01*
X141510529Y-90645435D01*
X141492464Y-90598150D01*
X141509020Y-90550315D01*
X141510512Y-90548537D01*
X141523433Y-90533626D01*
X141577248Y-90415789D01*
X141595684Y-90287563D01*
X141577248Y-90159337D01*
X141523433Y-90041500D01*
X141438600Y-89943596D01*
X141364685Y-89896094D01*
X141329619Y-89873558D01*
X141205323Y-89837063D01*
X141075779Y-89837063D01*
X140951482Y-89873558D01*
X140842505Y-89943594D01*
X140842501Y-89943597D01*
X140757670Y-90041498D01*
X140703853Y-90159339D01*
X140686595Y-90279376D01*
X140685418Y-90287563D01*
X140688329Y-90307813D01*
X140688382Y-90308178D01*
X140678014Y-90357724D01*
X140667461Y-90371035D01*
X140371423Y-90667073D01*
X140325547Y-90688465D01*
X140276652Y-90675364D01*
X140247618Y-90633900D01*
X140245730Y-90624406D01*
X140235044Y-90543239D01*
X140235044Y-90543238D01*
X140231063Y-90533626D01*
X140174536Y-90397159D01*
X140120528Y-90326774D01*
X140078284Y-90271720D01*
X140078279Y-90271715D01*
X139952841Y-90175464D01*
X139806761Y-90114955D01*
X139670636Y-90097034D01*
X139650000Y-90094318D01*
X139649999Y-90094318D01*
X139540650Y-90108713D01*
X139491231Y-90097757D01*
X139460417Y-90057598D01*
X139461145Y-90010905D01*
X139498308Y-89904700D01*
X139498524Y-89903713D01*
X139498814Y-89903253D01*
X139499796Y-89900449D01*
X139500445Y-89900676D01*
X139525586Y-89860935D01*
X139570820Y-89845500D01*
X139635580Y-89845500D01*
X139650016Y-89846921D01*
X139670000Y-89850897D01*
X139670001Y-89850897D01*
X139674622Y-89849977D01*
X139697132Y-89845500D01*
X139697133Y-89845500D01*
X139777495Y-89829515D01*
X139819465Y-89801471D01*
X139845622Y-89783994D01*
X139845622Y-89783993D01*
X139853636Y-89778639D01*
X139853639Y-89778636D01*
X139859081Y-89775000D01*
X139868624Y-89768624D01*
X139879948Y-89751674D01*
X139889142Y-89740472D01*
X139967442Y-89662173D01*
X140013319Y-89640782D01*
X140019768Y-89640500D01*
X140114772Y-89640500D01*
X140239069Y-89604004D01*
X140348049Y-89533967D01*
X140432882Y-89436063D01*
X140486697Y-89318226D01*
X140505133Y-89190000D01*
X140486697Y-89061774D01*
X140432882Y-88943937D01*
X140432880Y-88943935D01*
X140432880Y-88943934D01*
X140432878Y-88943932D01*
X140414706Y-88922960D01*
X140396640Y-88875675D01*
X140413196Y-88827840D01*
X140456626Y-88801837D01*
X140470631Y-88800500D01*
X141931591Y-88800500D01*
X141979157Y-88817813D01*
G37*
%TD.AperFunction*%
%TA.AperFunction,Conductor*%
G36*
X149158835Y-91967813D02*
G01*
X149163595Y-91972174D01*
X149512060Y-92320639D01*
X149521260Y-92331848D01*
X149534595Y-92351806D01*
X149551376Y-92376919D01*
X149551377Y-92376919D01*
X149551378Y-92376921D01*
X149568314Y-92388237D01*
X149579529Y-92397440D01*
X150006879Y-92824790D01*
X150325265Y-93143175D01*
X150346657Y-93189051D01*
X150333556Y-93237946D01*
X150292092Y-93266979D01*
X150272939Y-93269501D01*
X149954101Y-93269501D01*
X149939664Y-93268079D01*
X149919681Y-93264104D01*
X149919680Y-93264104D01*
X149892549Y-93269501D01*
X149892548Y-93269501D01*
X149812186Y-93285486D01*
X149779769Y-93307147D01*
X149777557Y-93308625D01*
X149764259Y-93317509D01*
X149715090Y-93329538D01*
X149669692Y-93307147D01*
X149652499Y-93277989D01*
X149649784Y-93269276D01*
X149561840Y-93123798D01*
X149441640Y-93003598D01*
X149296159Y-92915652D01*
X149133875Y-92865083D01*
X149133865Y-92865081D01*
X149063348Y-92858673D01*
X148956766Y-92858673D01*
X148956766Y-93909673D01*
X148939453Y-93957239D01*
X148895616Y-93982549D01*
X148882766Y-93983673D01*
X147906767Y-93983673D01*
X147906767Y-94165256D01*
X147913174Y-94235775D01*
X147913175Y-94235779D01*
X147963745Y-94398066D01*
X148051898Y-94543890D01*
X148061690Y-94593553D01*
X148050098Y-94623286D01*
X148040055Y-94638316D01*
X148030853Y-94649529D01*
X147754529Y-94925853D01*
X147743319Y-94935053D01*
X147726377Y-94946374D01*
X147726376Y-94946375D01*
X147712015Y-94967867D01*
X147711007Y-94969376D01*
X147711006Y-94969378D01*
X147703029Y-94981317D01*
X147684635Y-95008846D01*
X147665485Y-95037505D01*
X147649500Y-95117867D01*
X147644103Y-95144999D01*
X147644103Y-95145000D01*
X147648078Y-95164983D01*
X147649500Y-95179420D01*
X147649500Y-95570959D01*
X147648078Y-95585395D01*
X147644900Y-95601375D01*
X147644103Y-95605380D01*
X147649500Y-95632512D01*
X147649500Y-95632513D01*
X147662387Y-95697300D01*
X147665485Y-95712875D01*
X147692456Y-95753240D01*
X147709664Y-95778994D01*
X147723375Y-95799514D01*
X147726376Y-95804004D01*
X147726379Y-95804006D01*
X147728322Y-95805949D01*
X147729816Y-95809153D01*
X147730425Y-95810064D01*
X147730284Y-95810157D01*
X147749718Y-95851824D01*
X147750000Y-95858279D01*
X147750000Y-96826000D01*
X147732687Y-96873566D01*
X147688850Y-96898876D01*
X147676000Y-96900000D01*
X147524000Y-96900000D01*
X147476434Y-96882687D01*
X147451124Y-96838850D01*
X147450000Y-96826000D01*
X147450000Y-95450000D01*
X147277171Y-95450000D01*
X147217624Y-95456402D01*
X147217619Y-95456403D01*
X147082912Y-95506645D01*
X147082907Y-95506648D01*
X147027500Y-95548126D01*
X146979047Y-95562772D01*
X146932515Y-95542846D01*
X146930828Y-95541212D01*
X146622174Y-95232557D01*
X146600782Y-95186680D01*
X146600500Y-95180231D01*
X146600500Y-94847304D01*
X146617813Y-94799738D01*
X146622165Y-94794987D01*
X146662239Y-94754913D01*
X146673446Y-94745715D01*
X146690390Y-94734395D01*
X146713340Y-94700049D01*
X146723237Y-94685236D01*
X146751281Y-94643266D01*
X146767266Y-94562904D01*
X146767266Y-94562903D01*
X146768570Y-94556344D01*
X146794823Y-94513069D01*
X146842754Y-94496792D01*
X146852713Y-94497684D01*
X146925247Y-94509173D01*
X147388284Y-94509172D01*
X147388285Y-94509172D01*
X147482070Y-94494319D01*
X147482072Y-94494318D01*
X147505880Y-94482187D01*
X147595108Y-94436723D01*
X147684816Y-94347015D01*
X147742412Y-94233977D01*
X147757266Y-94140192D01*
X147757265Y-93683673D01*
X147906766Y-93683673D01*
X148656766Y-93683673D01*
X148656766Y-92858673D01*
X148550195Y-92858673D01*
X148550182Y-92858674D01*
X148479663Y-92865081D01*
X148479659Y-92865082D01*
X148317372Y-92915652D01*
X148171891Y-93003598D01*
X148051691Y-93123798D01*
X147963745Y-93269279D01*
X147913176Y-93431563D01*
X147913174Y-93431573D01*
X147906766Y-93502090D01*
X147906766Y-93683673D01*
X147757265Y-93683673D01*
X147757265Y-93527155D01*
X147753295Y-93502090D01*
X147742412Y-93433368D01*
X147742411Y-93433366D01*
X147697130Y-93344499D01*
X147684816Y-93320331D01*
X147595108Y-93230623D01*
X147595106Y-93230621D01*
X147476882Y-93170383D01*
X147477615Y-93168943D01*
X147443504Y-93142284D01*
X147432266Y-93103080D01*
X147432266Y-92646529D01*
X148644891Y-92646529D01*
X148677170Y-92650000D01*
X149522830Y-92650000D01*
X149555107Y-92646529D01*
X149555108Y-92646529D01*
X149100000Y-92191421D01*
X148644891Y-92646529D01*
X147432266Y-92646529D01*
X147432266Y-92624000D01*
X147449579Y-92576434D01*
X147493416Y-92551124D01*
X147506266Y-92550000D01*
X148400368Y-92550000D01*
X148443671Y-92564413D01*
X148444202Y-92564375D01*
X149036405Y-91972174D01*
X149082282Y-91950782D01*
X149088731Y-91950500D01*
X149111269Y-91950500D01*
X149158835Y-91967813D01*
G37*
%TD.AperFunction*%
%TA.AperFunction,Conductor*%
G36*
X152622753Y-88817813D02*
G01*
X152648063Y-88861650D01*
X152639273Y-88911500D01*
X152627513Y-88926826D01*
X152592683Y-88961656D01*
X152500642Y-89110878D01*
X152445494Y-89277302D01*
X152435000Y-89380024D01*
X152435000Y-89755000D01*
X154434999Y-89755000D01*
X154434999Y-89380029D01*
X154434998Y-89380023D01*
X154424505Y-89277303D01*
X154369357Y-89110878D01*
X154277316Y-88961656D01*
X154277314Y-88961653D01*
X154242487Y-88926826D01*
X154221095Y-88880950D01*
X154234196Y-88832055D01*
X154275660Y-88803021D01*
X154294813Y-88800500D01*
X165375690Y-88800500D01*
X165375693Y-88800501D01*
X165422136Y-88800500D01*
X165424439Y-88800571D01*
X165632358Y-88813549D01*
X165636899Y-88814118D01*
X165756636Y-88836777D01*
X165840454Y-88852639D01*
X165844918Y-88853775D01*
X166042093Y-88917308D01*
X166046374Y-88918988D01*
X166137852Y-88961653D01*
X166234117Y-89006551D01*
X166238169Y-89008758D01*
X166413553Y-89118981D01*
X166417299Y-89121675D01*
X166577617Y-89252857D01*
X166581000Y-89255996D01*
X166723759Y-89406097D01*
X166726723Y-89409630D01*
X166790469Y-89496031D01*
X166850274Y-89577091D01*
X166851585Y-89578988D01*
X166866220Y-89601657D01*
X167151345Y-90043282D01*
X168641787Y-92351805D01*
X168641788Y-92351806D01*
X168666643Y-92390304D01*
X168668416Y-92393362D01*
X168681845Y-92419300D01*
X168687110Y-92432398D01*
X168693862Y-92455308D01*
X168696543Y-92469165D01*
X168697811Y-92482396D01*
X168699331Y-92498252D01*
X168699500Y-92501775D01*
X168699500Y-94481232D01*
X168682187Y-94528798D01*
X168638350Y-94554108D01*
X168588500Y-94545318D01*
X168573174Y-94533558D01*
X167373089Y-93333473D01*
X167351697Y-93287597D01*
X167352169Y-93270614D01*
X167355133Y-93250003D01*
X167355133Y-93250001D01*
X167353400Y-93237946D01*
X167336697Y-93121774D01*
X167282882Y-93003937D01*
X167198049Y-92906033D01*
X167122038Y-92857184D01*
X167089068Y-92835995D01*
X166964772Y-92799500D01*
X166835228Y-92799500D01*
X166710931Y-92835995D01*
X166601954Y-92906031D01*
X166601950Y-92906034D01*
X166517119Y-93003935D01*
X166463302Y-93121776D01*
X166445266Y-93247225D01*
X166444867Y-93250000D01*
X166444939Y-93250500D01*
X166463302Y-93378223D01*
X166463302Y-93378224D01*
X166463303Y-93378226D01*
X166517118Y-93496063D01*
X166601951Y-93593967D01*
X166710931Y-93664004D01*
X166835228Y-93700500D01*
X166930232Y-93700500D01*
X166977798Y-93717813D01*
X166982558Y-93722174D01*
X167233558Y-93973174D01*
X167254950Y-94019050D01*
X167241849Y-94067945D01*
X167200385Y-94096979D01*
X167181232Y-94099500D01*
X165759420Y-94099500D01*
X165744984Y-94098078D01*
X165725000Y-94094103D01*
X165724999Y-94094103D01*
X165697868Y-94099500D01*
X165697867Y-94099500D01*
X165657686Y-94107492D01*
X165617504Y-94115485D01*
X165581564Y-94139500D01*
X165551305Y-94159718D01*
X165526376Y-94176375D01*
X165526374Y-94176377D01*
X165515053Y-94193319D01*
X165505853Y-94204529D01*
X164467558Y-95242826D01*
X164421682Y-95264218D01*
X164415232Y-95264500D01*
X161799711Y-95264500D01*
X161752145Y-95247187D01*
X161726835Y-95203350D01*
X161735625Y-95153500D01*
X161738182Y-95149388D01*
X161753053Y-95127132D01*
X161769515Y-95102495D01*
X161785500Y-95022133D01*
X161785500Y-95022132D01*
X161790897Y-94995000D01*
X161789927Y-94990125D01*
X161786922Y-94975015D01*
X161785500Y-94960579D01*
X161785500Y-93000000D01*
X162419628Y-93000000D01*
X162439085Y-93247226D01*
X162496975Y-93488358D01*
X162591876Y-93717470D01*
X162591881Y-93717480D01*
X162709242Y-93908994D01*
X162721452Y-93928919D01*
X162785523Y-94003937D01*
X162882505Y-94117489D01*
X162882510Y-94117494D01*
X162910230Y-94141169D01*
X163071081Y-94278548D01*
X163111727Y-94303456D01*
X163271964Y-94401650D01*
X163282526Y-94408122D01*
X163511638Y-94503023D01*
X163511639Y-94503023D01*
X163511641Y-94503024D01*
X163589279Y-94521663D01*
X163752775Y-94560915D01*
X164000000Y-94580372D01*
X164247225Y-94560915D01*
X164488362Y-94503023D01*
X164717474Y-94408122D01*
X164928919Y-94278548D01*
X165117492Y-94117492D01*
X165278548Y-93928919D01*
X165408122Y-93717474D01*
X165503023Y-93488362D01*
X165560915Y-93247225D01*
X165580372Y-93000000D01*
X165560915Y-92752775D01*
X165510304Y-92541965D01*
X165503024Y-92511641D01*
X165498938Y-92501775D01*
X165408122Y-92282526D01*
X165404408Y-92276466D01*
X165299291Y-92104931D01*
X165278548Y-92071081D01*
X165140407Y-91909338D01*
X165117494Y-91882510D01*
X165117489Y-91882505D01*
X164993098Y-91776266D01*
X164928919Y-91721452D01*
X164928916Y-91721450D01*
X164717480Y-91591881D01*
X164717470Y-91591876D01*
X164488358Y-91496975D01*
X164247226Y-91439085D01*
X164000000Y-91419628D01*
X163752773Y-91439085D01*
X163511641Y-91496975D01*
X163282529Y-91591876D01*
X163282519Y-91591881D01*
X163071083Y-91721450D01*
X163071082Y-91721451D01*
X162882510Y-91882505D01*
X162882505Y-91882510D01*
X162721451Y-92071082D01*
X162721450Y-92071083D01*
X162591881Y-92282519D01*
X162591876Y-92282529D01*
X162496975Y-92511641D01*
X162439085Y-92752773D01*
X162419628Y-93000000D01*
X161785500Y-93000000D01*
X161785500Y-90914420D01*
X161786922Y-90899983D01*
X161790897Y-90880000D01*
X161790897Y-90879999D01*
X161781051Y-90830500D01*
X161775337Y-90801774D01*
X161769515Y-90772505D01*
X161708624Y-90681376D01*
X161691679Y-90670053D01*
X161680470Y-90660854D01*
X160943089Y-89923473D01*
X160921697Y-89877597D01*
X160922169Y-89860614D01*
X160925133Y-89840003D01*
X160925133Y-89840001D01*
X160919593Y-89801471D01*
X160906697Y-89711774D01*
X160852882Y-89593937D01*
X160768049Y-89496033D01*
X160701032Y-89452964D01*
X160659068Y-89425995D01*
X160534772Y-89389500D01*
X160405228Y-89389500D01*
X160280931Y-89425995D01*
X160171954Y-89496031D01*
X160171950Y-89496034D01*
X160087119Y-89593935D01*
X160033302Y-89711776D01*
X160014867Y-89840000D01*
X160033302Y-89968223D01*
X160033302Y-89968224D01*
X160033303Y-89968226D01*
X160087118Y-90086063D01*
X160171951Y-90183967D01*
X160280931Y-90254004D01*
X160405228Y-90290500D01*
X160500232Y-90290500D01*
X160547798Y-90307813D01*
X160552558Y-90312174D01*
X161212826Y-90972442D01*
X161234218Y-91018318D01*
X161234500Y-91024768D01*
X161234500Y-94815500D01*
X161217187Y-94863066D01*
X161173350Y-94888376D01*
X161160500Y-94889500D01*
X160681511Y-94889500D01*
X160581874Y-94905280D01*
X160581873Y-94905281D01*
X160461780Y-94966471D01*
X160397448Y-95030803D01*
X160351571Y-95052195D01*
X160302677Y-95039094D01*
X160278056Y-95009751D01*
X160276550Y-95006522D01*
X160187573Y-94862268D01*
X160067731Y-94742426D01*
X159923482Y-94653452D01*
X159762608Y-94600144D01*
X159663311Y-94590000D01*
X159540000Y-94590000D01*
X159540000Y-95641000D01*
X159522687Y-95688566D01*
X159478850Y-95713876D01*
X159466000Y-95715000D01*
X159314000Y-95715000D01*
X159266434Y-95697687D01*
X159241124Y-95653850D01*
X159240000Y-95641000D01*
X159240000Y-94590000D01*
X159116693Y-94590000D01*
X159116687Y-94590001D01*
X159017391Y-94600144D01*
X158982902Y-94611573D01*
X158932304Y-94610101D01*
X158894491Y-94576449D01*
X158885626Y-94541329D01*
X158885626Y-93807709D01*
X158902939Y-93760143D01*
X158904927Y-93758123D01*
X158908172Y-93754377D01*
X158908175Y-93754376D01*
X158993008Y-93656472D01*
X159046823Y-93538635D01*
X159053434Y-93492652D01*
X159077339Y-93448034D01*
X159124332Y-93429220D01*
X159172424Y-93445015D01*
X159180426Y-93452645D01*
X159181945Y-93453960D01*
X159181951Y-93453967D01*
X159290931Y-93524004D01*
X159415228Y-93560500D01*
X159544772Y-93560500D01*
X159669069Y-93524004D01*
X159778049Y-93453967D01*
X159862882Y-93356063D01*
X159916697Y-93238226D01*
X159935133Y-93110000D01*
X159916697Y-92981774D01*
X159868000Y-92875145D01*
X159863990Y-92824687D01*
X159893351Y-92783454D01*
X159895276Y-92782173D01*
X159904604Y-92776179D01*
X159989437Y-92678275D01*
X160043252Y-92560438D01*
X160061688Y-92432212D01*
X160043252Y-92303986D01*
X159989437Y-92186149D01*
X159904604Y-92088245D01*
X159803859Y-92023500D01*
X159795623Y-92018207D01*
X159671327Y-91981712D01*
X159541783Y-91981712D01*
X159417486Y-92018207D01*
X159308509Y-92088243D01*
X159308501Y-92088249D01*
X159290556Y-92108960D01*
X159246323Y-92133571D01*
X159234631Y-92134500D01*
X157296925Y-92134500D01*
X157249359Y-92117187D01*
X157224049Y-92073350D01*
X157232839Y-92023500D01*
X157271616Y-91990963D01*
X157276077Y-91989497D01*
X157302590Y-91981712D01*
X157344478Y-91969413D01*
X157453458Y-91899376D01*
X157538291Y-91801472D01*
X157592106Y-91683635D01*
X157610542Y-91555409D01*
X157592106Y-91427183D01*
X157538291Y-91309346D01*
X157453458Y-91211442D01*
X157344478Y-91141405D01*
X157344477Y-91141404D01*
X157344473Y-91141402D01*
X157340530Y-91139601D01*
X157304457Y-91104091D01*
X157297276Y-91072291D01*
X157297276Y-90172300D01*
X157314589Y-90124734D01*
X157316577Y-90122714D01*
X157319822Y-90118968D01*
X157319825Y-90118967D01*
X157404658Y-90021063D01*
X157458473Y-89903226D01*
X157476909Y-89775000D01*
X157458473Y-89646774D01*
X157404658Y-89528937D01*
X157319825Y-89431033D01*
X157233778Y-89375734D01*
X157210844Y-89360995D01*
X157086548Y-89324500D01*
X156957004Y-89324500D01*
X156832707Y-89360995D01*
X156723730Y-89431031D01*
X156723726Y-89431034D01*
X156638895Y-89528935D01*
X156585078Y-89646776D01*
X156566643Y-89774999D01*
X156585078Y-89903223D01*
X156585078Y-89903224D01*
X156585079Y-89903226D01*
X156638894Y-90021063D01*
X156723727Y-90118967D01*
X156723728Y-90118968D01*
X156727193Y-90122966D01*
X156725308Y-90124598D01*
X156745344Y-90160595D01*
X156746276Y-90172300D01*
X156746276Y-91350728D01*
X156739589Y-91381468D01*
X156718712Y-91427183D01*
X156718711Y-91427186D01*
X156704441Y-91526440D01*
X156680535Y-91571058D01*
X156633542Y-91589872D01*
X156631194Y-91589909D01*
X156580177Y-91589909D01*
X156532611Y-91572596D01*
X156527851Y-91568235D01*
X155244145Y-90284529D01*
X155234942Y-90273314D01*
X155223626Y-90256378D01*
X155223624Y-90256376D01*
X155220074Y-90254004D01*
X155203644Y-90243025D01*
X155203641Y-90243023D01*
X155152626Y-90208936D01*
X155132496Y-90195485D01*
X155132497Y-90195485D01*
X155092314Y-90187492D01*
X155052133Y-90179500D01*
X155052132Y-90179500D01*
X155028972Y-90174893D01*
X154987484Y-90150774D01*
X154984690Y-90147550D01*
X154963171Y-90122714D01*
X154953052Y-90111036D01*
X154953050Y-90111035D01*
X154953049Y-90111033D01*
X154879421Y-90063715D01*
X154844068Y-90040995D01*
X154719772Y-90004500D01*
X154590228Y-90004500D01*
X154465931Y-90040995D01*
X154462421Y-90043252D01*
X154422412Y-90055000D01*
X153585000Y-90055000D01*
X153585000Y-91865000D01*
X154434999Y-91865000D01*
X154434999Y-91490029D01*
X154434998Y-91490023D01*
X154424505Y-91387303D01*
X154369357Y-91220878D01*
X154277316Y-91071656D01*
X154277310Y-91071648D01*
X154217987Y-91012326D01*
X154196594Y-90966450D01*
X154209694Y-90917556D01*
X154217987Y-90907674D01*
X154277310Y-90848351D01*
X154277317Y-90848342D01*
X154282156Y-90840497D01*
X154321860Y-90809099D01*
X154372458Y-90810568D01*
X154385147Y-90817087D01*
X154465931Y-90869004D01*
X154590228Y-90905500D01*
X154719772Y-90905500D01*
X154844069Y-90869004D01*
X154918894Y-90820916D01*
X154968268Y-90809764D01*
X155011227Y-90830843D01*
X156137319Y-91956935D01*
X156158711Y-92002811D01*
X156158240Y-92019791D01*
X156155276Y-92040408D01*
X156168224Y-92130469D01*
X156157856Y-92180015D01*
X156118067Y-92211305D01*
X156094977Y-92215000D01*
X154509001Y-92215000D01*
X154461435Y-92197687D01*
X154452894Y-92182894D01*
X154435000Y-92165000D01*
X152435001Y-92165000D01*
X152435001Y-92539976D01*
X152445494Y-92642701D01*
X152446340Y-92646650D01*
X152445202Y-92646893D01*
X152443862Y-92692828D01*
X152410207Y-92730638D01*
X152375093Y-92739500D01*
X152279273Y-92739500D01*
X152231707Y-92722187D01*
X152206397Y-92678350D01*
X152209426Y-92641059D01*
X152227308Y-92589955D01*
X152232646Y-92574699D01*
X152235500Y-92544266D01*
X152235500Y-91485734D01*
X152232646Y-91455301D01*
X152232644Y-91455296D01*
X152232374Y-91452414D01*
X152245169Y-91403438D01*
X152285200Y-91374501D01*
X152346145Y-91356607D01*
X152396660Y-91359818D01*
X152433295Y-91394750D01*
X152440608Y-91435131D01*
X152435000Y-91490024D01*
X152435000Y-91865000D01*
X153285000Y-91865000D01*
X153285000Y-90055000D01*
X152435001Y-90055000D01*
X152435001Y-90430630D01*
X152417688Y-90478196D01*
X152373851Y-90503506D01*
X152340153Y-90501633D01*
X152288652Y-90486511D01*
X152247890Y-90456498D01*
X152235500Y-90415508D01*
X152235500Y-89375740D01*
X152235500Y-89375734D01*
X152232646Y-89345301D01*
X152227865Y-89331639D01*
X152187793Y-89217118D01*
X152187792Y-89217116D01*
X152107153Y-89107853D01*
X152107146Y-89107846D01*
X151997883Y-89027207D01*
X151997881Y-89027206D01*
X151869704Y-88982355D01*
X151869705Y-88982355D01*
X151869700Y-88982354D01*
X151869699Y-88982354D01*
X151839266Y-88979500D01*
X151230734Y-88979500D01*
X151200301Y-88982354D01*
X151200299Y-88982354D01*
X151200295Y-88982355D01*
X151072119Y-89027206D01*
X151072116Y-89027207D01*
X151062213Y-89034516D01*
X151013660Y-89048830D01*
X150967266Y-89028586D01*
X150961710Y-89021985D01*
X150958623Y-89018898D01*
X150941683Y-89007579D01*
X150930470Y-88998377D01*
X150858919Y-88926826D01*
X150837527Y-88880950D01*
X150850628Y-88832055D01*
X150892092Y-88803021D01*
X150911245Y-88800500D01*
X152575187Y-88800500D01*
X152622753Y-88817813D01*
G37*
%TD.AperFunction*%
%TA.AperFunction,Conductor*%
G36*
X137239326Y-91017813D02*
G01*
X137264636Y-91061650D01*
X137255846Y-91111500D01*
X137230608Y-91137483D01*
X137101656Y-91217021D01*
X137101652Y-91217024D01*
X136977685Y-91340991D01*
X136977683Y-91340994D01*
X136885642Y-91490216D01*
X136830494Y-91656640D01*
X136820000Y-91759362D01*
X136820000Y-91909338D01*
X138396000Y-91909338D01*
X138443566Y-91926651D01*
X138468876Y-91970488D01*
X138470000Y-91983338D01*
X138470000Y-92135338D01*
X138452687Y-92182904D01*
X138408850Y-92208214D01*
X138396000Y-92209338D01*
X136820001Y-92209338D01*
X136820001Y-92359314D01*
X136830494Y-92462034D01*
X136885642Y-92628459D01*
X136977683Y-92777681D01*
X136977686Y-92777685D01*
X137101653Y-92901651D01*
X137101656Y-92901654D01*
X137249045Y-92992565D01*
X137280441Y-93032272D01*
X137278969Y-93082869D01*
X137245318Y-93120683D01*
X137224634Y-93128126D01*
X137162505Y-93140484D01*
X137096307Y-93184715D01*
X137096305Y-93184718D01*
X137071376Y-93201375D01*
X137071374Y-93201377D01*
X137060053Y-93218319D01*
X137050853Y-93229529D01*
X135866127Y-94414255D01*
X135820251Y-94435647D01*
X135771356Y-94422546D01*
X135742322Y-94381082D01*
X135740554Y-94351398D01*
X135740827Y-94349500D01*
X135755133Y-94250000D01*
X135736697Y-94121774D01*
X135682882Y-94003937D01*
X135598049Y-93906033D01*
X135598047Y-93906031D01*
X135594583Y-93902034D01*
X135596460Y-93900406D01*
X135576425Y-93864362D01*
X135575500Y-93852699D01*
X135575500Y-93834420D01*
X135576922Y-93819983D01*
X135579364Y-93807709D01*
X135580897Y-93800000D01*
X135580102Y-93796005D01*
X135559516Y-93692506D01*
X135525731Y-93641943D01*
X135513994Y-93624378D01*
X135513993Y-93624377D01*
X135511974Y-93621355D01*
X135511973Y-93621355D01*
X135510361Y-93618943D01*
X135498624Y-93601376D01*
X135494200Y-93598420D01*
X135481683Y-93590056D01*
X135470470Y-93580854D01*
X134773089Y-92883473D01*
X134751697Y-92837597D01*
X134752169Y-92820614D01*
X134755133Y-92800003D01*
X134755133Y-92800001D01*
X134752567Y-92782151D01*
X134736697Y-92671774D01*
X134682882Y-92553937D01*
X134598049Y-92456033D01*
X134531032Y-92412964D01*
X134489068Y-92385995D01*
X134364772Y-92349500D01*
X134235228Y-92349500D01*
X134110931Y-92385995D01*
X134001954Y-92456031D01*
X134001950Y-92456034D01*
X133917119Y-92553935D01*
X133917118Y-92553936D01*
X133917118Y-92553937D01*
X133900253Y-92590866D01*
X133863302Y-92671776D01*
X133844867Y-92800000D01*
X133863302Y-92928223D01*
X133863302Y-92928224D01*
X133863303Y-92928226D01*
X133917118Y-93046063D01*
X134001951Y-93143967D01*
X134110931Y-93214004D01*
X134235228Y-93250500D01*
X134330232Y-93250500D01*
X134377798Y-93267813D01*
X134382558Y-93272174D01*
X134959949Y-93849565D01*
X134981341Y-93895441D01*
X134968240Y-93944336D01*
X134963549Y-93950350D01*
X134917121Y-94003932D01*
X134917119Y-94003934D01*
X134863302Y-94121776D01*
X134845898Y-94242826D01*
X134844867Y-94250000D01*
X134846944Y-94264448D01*
X134863302Y-94378223D01*
X134863302Y-94378224D01*
X134863303Y-94378226D01*
X134917118Y-94496063D01*
X135001951Y-94593967D01*
X135110931Y-94664004D01*
X135235228Y-94700500D01*
X135364774Y-94700500D01*
X135391113Y-94692766D01*
X135441630Y-94695976D01*
X135478265Y-94730907D01*
X135483876Y-94781214D01*
X135464288Y-94816094D01*
X135369606Y-94910776D01*
X135358396Y-94919976D01*
X135341454Y-94931297D01*
X135341452Y-94931299D01*
X135326083Y-94954301D01*
X135313172Y-94973624D01*
X135280561Y-95022428D01*
X135264954Y-95100897D01*
X135259180Y-95129923D01*
X135263155Y-95149906D01*
X135264577Y-95164343D01*
X135264577Y-95177720D01*
X135247264Y-95225286D01*
X135203427Y-95250596D01*
X135169729Y-95248723D01*
X135089849Y-95225269D01*
X135088000Y-95225269D01*
X135086791Y-95224829D01*
X135084613Y-95224516D01*
X135084678Y-95224060D01*
X135040434Y-95207956D01*
X135035674Y-95203595D01*
X134436608Y-94604529D01*
X134427405Y-94593314D01*
X134416089Y-94576378D01*
X134416087Y-94576376D01*
X134410732Y-94572798D01*
X134396107Y-94563025D01*
X134396104Y-94563023D01*
X134355318Y-94535771D01*
X134324958Y-94515485D01*
X134293220Y-94509172D01*
X134244596Y-94499500D01*
X134244595Y-94499500D01*
X134244593Y-94499499D01*
X134217464Y-94494103D01*
X134217463Y-94494103D01*
X134199451Y-94497686D01*
X134197480Y-94498078D01*
X134183043Y-94499500D01*
X132830743Y-94499500D01*
X132783177Y-94482187D01*
X132757867Y-94438350D01*
X132766657Y-94388500D01*
X132792078Y-94362405D01*
X132884087Y-94306021D01*
X132928919Y-94278548D01*
X133117492Y-94117492D01*
X133278548Y-93928919D01*
X133408122Y-93717474D01*
X133503023Y-93488362D01*
X133560915Y-93247225D01*
X133580372Y-93000000D01*
X133560915Y-92752775D01*
X133510304Y-92541965D01*
X133503024Y-92511641D01*
X133498938Y-92501775D01*
X133408122Y-92282526D01*
X133404408Y-92276466D01*
X133299291Y-92104931D01*
X133278548Y-92071081D01*
X133140407Y-91909338D01*
X133117494Y-91882510D01*
X133117489Y-91882505D01*
X132993098Y-91776266D01*
X132928919Y-91721452D01*
X132928916Y-91721450D01*
X132717480Y-91591881D01*
X132717470Y-91591876D01*
X132488358Y-91496975D01*
X132247226Y-91439085D01*
X132109312Y-91428231D01*
X132000000Y-91419628D01*
X131999999Y-91419628D01*
X131800247Y-91435348D01*
X131751469Y-91421820D01*
X131722798Y-91380104D01*
X131727650Y-91329718D01*
X131742111Y-91309254D01*
X132029192Y-91022174D01*
X132075070Y-91000782D01*
X132081519Y-91000500D01*
X137191760Y-91000500D01*
X137239326Y-91017813D01*
G37*
%TD.AperFunction*%
%TA.AperFunction,Conductor*%
G36*
X147610879Y-88817813D02*
G01*
X147636189Y-88861650D01*
X147630625Y-88905242D01*
X147623302Y-88921274D01*
X147604867Y-89049499D01*
X147623302Y-89177723D01*
X147623302Y-89177724D01*
X147623303Y-89177726D01*
X147677118Y-89295563D01*
X147761951Y-89393467D01*
X147870931Y-89463504D01*
X147995228Y-89500000D01*
X148124772Y-89500000D01*
X148249069Y-89463504D01*
X148358049Y-89393467D01*
X148442882Y-89295563D01*
X148466540Y-89243758D01*
X148502049Y-89207683D01*
X148533853Y-89200500D01*
X150322709Y-89200500D01*
X150370275Y-89217813D01*
X150375035Y-89222174D01*
X150462826Y-89309965D01*
X150484218Y-89355841D01*
X150484500Y-89362291D01*
X150484500Y-89710755D01*
X150467187Y-89758321D01*
X150462826Y-89763081D01*
X150304750Y-89921157D01*
X150258874Y-89942549D01*
X150209979Y-89929448D01*
X150185112Y-89899574D01*
X150161859Y-89848656D01*
X150077026Y-89750752D01*
X150010009Y-89707683D01*
X149968045Y-89680714D01*
X149843749Y-89644219D01*
X149714205Y-89644219D01*
X149589908Y-89680714D01*
X149480927Y-89750752D01*
X149436849Y-89801622D01*
X149395361Y-89825740D01*
X149347785Y-89835204D01*
X149281586Y-89879437D01*
X149256657Y-89896094D01*
X149256655Y-89896096D01*
X149245334Y-89913038D01*
X149236134Y-89924248D01*
X149032558Y-90127826D01*
X148986682Y-90149218D01*
X148980232Y-90149500D01*
X148936667Y-90149500D01*
X148889101Y-90132187D01*
X148877427Y-90119847D01*
X148857187Y-90092809D01*
X148742088Y-90006646D01*
X148742087Y-90006645D01*
X148607380Y-89956403D01*
X148607375Y-89956402D01*
X148547829Y-89950000D01*
X147452171Y-89950000D01*
X147392624Y-89956402D01*
X147392619Y-89956403D01*
X147257912Y-90006645D01*
X147257911Y-90006646D01*
X147142812Y-90092809D01*
X147122573Y-90119847D01*
X147080208Y-90147550D01*
X147063333Y-90149500D01*
X146505252Y-90149500D01*
X146452061Y-90160080D01*
X146402031Y-90152379D01*
X146368656Y-90114322D01*
X146367552Y-90063715D01*
X146378917Y-90042454D01*
X146395331Y-90021063D01*
X146474536Y-89917841D01*
X146535044Y-89771762D01*
X146555682Y-89615000D01*
X146535044Y-89458238D01*
X146474536Y-89312159D01*
X146430162Y-89254330D01*
X146378284Y-89186720D01*
X146378279Y-89186715D01*
X146252841Y-89090464D01*
X146106761Y-89029955D01*
X145950000Y-89009318D01*
X145793239Y-89029955D01*
X145793238Y-89029955D01*
X145647158Y-89090464D01*
X145521720Y-89186715D01*
X145521715Y-89186720D01*
X145517218Y-89192581D01*
X145474525Y-89219777D01*
X145424339Y-89213167D01*
X145390143Y-89175845D01*
X145388663Y-89171966D01*
X145388327Y-89171005D01*
X145307688Y-89061743D01*
X145307681Y-89061736D01*
X145198418Y-88981097D01*
X145198416Y-88981096D01*
X145093393Y-88944347D01*
X145054214Y-88912296D01*
X145044804Y-88862559D01*
X145069565Y-88818410D01*
X145116912Y-88800506D01*
X145117834Y-88800500D01*
X147563313Y-88800500D01*
X147610879Y-88817813D01*
G37*
%TD.AperFunction*%
%TD*%
M02*
