%TF.GenerationSoftware,KiCad,Pcbnew,7.0.7*%
%TF.CreationDate,2024-04-20T23:27:06+02:00*%
%TF.ProjectId,Heptachron,48657074-6163-4687-926f-6e2e6b696361,rev?*%
%TF.SameCoordinates,Original*%
%TF.FileFunction,Paste,Bot*%
%TF.FilePolarity,Positive*%
%FSLAX46Y46*%
G04 Gerber Fmt 4.6, Leading zero omitted, Abs format (unit mm)*
G04 Created by KiCad (PCBNEW 7.0.7) date 2024-04-20 23:27:06*
%MOMM*%
%LPD*%
G01*
G04 APERTURE LIST*
G04 Aperture macros list*
%AMRoundRect*
0 Rectangle with rounded corners*
0 $1 Rounding radius*
0 $2 $3 $4 $5 $6 $7 $8 $9 X,Y pos of 4 corners*
0 Add a 4 corners polygon primitive as box body*
4,1,4,$2,$3,$4,$5,$6,$7,$8,$9,$2,$3,0*
0 Add four circle primitives for the rounded corners*
1,1,$1+$1,$2,$3*
1,1,$1+$1,$4,$5*
1,1,$1+$1,$6,$7*
1,1,$1+$1,$8,$9*
0 Add four rect primitives between the rounded corners*
20,1,$1+$1,$2,$3,$4,$5,0*
20,1,$1+$1,$4,$5,$6,$7,0*
20,1,$1+$1,$6,$7,$8,$9,0*
20,1,$1+$1,$8,$9,$2,$3,0*%
G04 Aperture macros list end*
%ADD10RoundRect,0.250000X0.250000X0.475000X-0.250000X0.475000X-0.250000X-0.475000X0.250000X-0.475000X0*%
%ADD11RoundRect,0.200000X0.200000X0.275000X-0.200000X0.275000X-0.200000X-0.275000X0.200000X-0.275000X0*%
%ADD12RoundRect,0.250000X0.750000X-0.250000X0.750000X0.250000X-0.750000X0.250000X-0.750000X-0.250000X0*%
%ADD13RoundRect,0.150000X0.825000X0.150000X-0.825000X0.150000X-0.825000X-0.150000X0.825000X-0.150000X0*%
%ADD14RoundRect,0.250000X-0.750000X0.250000X-0.750000X-0.250000X0.750000X-0.250000X0.750000X0.250000X0*%
%ADD15RoundRect,0.225000X0.250000X-0.225000X0.250000X0.225000X-0.250000X0.225000X-0.250000X-0.225000X0*%
%ADD16R,1.600000X0.550000*%
%ADD17R,0.550000X1.600000*%
%ADD18RoundRect,0.225000X0.225000X0.250000X-0.225000X0.250000X-0.225000X-0.250000X0.225000X-0.250000X0*%
%ADD19R,1.050000X0.500000*%
%ADD20RoundRect,0.200000X-0.200000X-0.275000X0.200000X-0.275000X0.200000X0.275000X-0.200000X0.275000X0*%
%ADD21RoundRect,0.225000X-0.225000X-0.250000X0.225000X-0.250000X0.225000X0.250000X-0.225000X0.250000X0*%
%ADD22R,0.750000X0.200000*%
%ADD23R,1.000000X1.600000*%
G04 APERTURE END LIST*
D10*
%TO.C,C9*%
X153435000Y-89905000D03*
X151535000Y-89905000D03*
%TD*%
D11*
%TO.C,R1*%
X137050000Y-103900000D03*
X135400000Y-103900000D03*
%TD*%
D10*
%TO.C,C10*%
X153435000Y-92015000D03*
X151535000Y-92015000D03*
%TD*%
D12*
%TO.C,J3*%
X159400000Y-106750000D03*
%TD*%
D13*
%TO.C,U8*%
X167250000Y-97190000D03*
X167250000Y-98460000D03*
X167250000Y-99730000D03*
X167250000Y-101000000D03*
X167250000Y-102270000D03*
X167250000Y-103540000D03*
X167250000Y-104810000D03*
X162300000Y-104810000D03*
X162300000Y-103540000D03*
X162300000Y-102270000D03*
X162300000Y-101000000D03*
X162300000Y-99730000D03*
X162300000Y-98460000D03*
X162300000Y-97190000D03*
%TD*%
D14*
%TO.C,J5*%
X138320000Y-92059338D03*
%TD*%
D12*
%TO.C,J2*%
X159400000Y-112000000D03*
%TD*%
D11*
%TO.C,R14*%
X140190000Y-100045000D03*
X138540000Y-100045000D03*
%TD*%
%TO.C,R2*%
X137050000Y-97950000D03*
X135400000Y-97950000D03*
%TD*%
D15*
%TO.C,C1*%
X133400000Y-101825000D03*
X133400000Y-100275000D03*
%TD*%
D16*
%TO.C,U7*%
X152250000Y-98200000D03*
X152250000Y-99000000D03*
X152250000Y-99800000D03*
X152250000Y-100600000D03*
X152250000Y-101400000D03*
X152250000Y-102200000D03*
X152250000Y-103000000D03*
X152250000Y-103800000D03*
D17*
X150800000Y-105250000D03*
X150000000Y-105250000D03*
X149200000Y-105250000D03*
X148400000Y-105250000D03*
X147600000Y-105250000D03*
X146800000Y-105250000D03*
X146000000Y-105250000D03*
X145200000Y-105250000D03*
D16*
X143750000Y-103800000D03*
X143750000Y-103000000D03*
X143750000Y-102200000D03*
X143750000Y-101400000D03*
X143750000Y-100600000D03*
X143750000Y-99800000D03*
X143750000Y-99000000D03*
X143750000Y-98200000D03*
D17*
X145200000Y-96750000D03*
X146000000Y-96750000D03*
X146800000Y-96750000D03*
X147600000Y-96750000D03*
X148400000Y-96750000D03*
X149200000Y-96750000D03*
X150000000Y-96750000D03*
X150800000Y-96750000D03*
%TD*%
D14*
%TO.C,J4*%
X138300662Y-89570000D03*
%TD*%
D18*
%TO.C,C7*%
X141775000Y-98450000D03*
X140225000Y-98450000D03*
%TD*%
D19*
%TO.C,X1*%
X136950000Y-99700000D03*
X136950000Y-100600000D03*
X136950000Y-101500000D03*
X136950000Y-102400000D03*
X135500000Y-102400000D03*
X135500000Y-101500000D03*
X135500000Y-100600000D03*
X135500000Y-99700000D03*
%TD*%
D20*
%TO.C,R18*%
X143172159Y-91926266D03*
X144822159Y-91926266D03*
%TD*%
%TO.C,R15*%
X140125000Y-95700000D03*
X141775000Y-95700000D03*
%TD*%
D11*
%TO.C,R13*%
X140190000Y-101685000D03*
X138540000Y-101685000D03*
%TD*%
D21*
%TO.C,C4*%
X159390000Y-95565000D03*
X160940000Y-95565000D03*
%TD*%
D10*
%TO.C,C8*%
X144735535Y-89858890D03*
X142835535Y-89858890D03*
%TD*%
D14*
%TO.C,J1*%
X159400000Y-109500000D03*
%TD*%
D22*
%TO.C,IC1*%
X149100000Y-90450000D03*
X149100000Y-90850000D03*
X149100000Y-91250000D03*
X149100000Y-91650000D03*
X149100000Y-92050000D03*
X146900000Y-92050000D03*
X146900000Y-91650000D03*
X146900000Y-91250000D03*
X146900000Y-90850000D03*
X146900000Y-90450000D03*
D23*
X148000000Y-91250000D03*
%TD*%
D11*
%TO.C,R19*%
X148806766Y-93833673D03*
X147156766Y-93833673D03*
%TD*%
D20*
%TO.C,R17*%
X143164935Y-93739063D03*
X144814935Y-93739063D03*
%TD*%
M02*
