%TF.GenerationSoftware,KiCad,Pcbnew,7.0.8*%
%TF.CreationDate,2024-03-24T19:28:18+01:00*%
%TF.ProjectId,Heptachron,48657074-6163-4687-926f-6e2e6b696361,rev?*%
%TF.SameCoordinates,Original*%
%TF.FileFunction,Copper,L2,Bot*%
%TF.FilePolarity,Positive*%
%FSLAX46Y46*%
G04 Gerber Fmt 4.6, Leading zero omitted, Abs format (unit mm)*
G04 Created by KiCad (PCBNEW 7.0.8) date 2024-03-24 19:28:18*
%MOMM*%
%LPD*%
G01*
G04 APERTURE LIST*
%TA.AperFunction,SMDPad,CuDef*%
%ADD10R,1.680000X1.680000*%
%TD*%
%TA.AperFunction,ComponentPad*%
%ADD11C,0.800000*%
%TD*%
%TA.AperFunction,ComponentPad*%
%ADD12C,2.000000*%
%TD*%
%TA.AperFunction,ComponentPad*%
%ADD13O,1.700000X1.700000*%
%TD*%
%TA.AperFunction,ComponentPad*%
%ADD14R,1.700000X1.700000*%
%TD*%
%TA.AperFunction,ViaPad*%
%ADD15C,0.800000*%
%TD*%
%TA.AperFunction,Conductor*%
%ADD16C,0.250000*%
%TD*%
G04 APERTURE END LIST*
D10*
%TO.P,U6,17,VSS*%
%TO.N,GND*%
X130800000Y-83300000D03*
D11*
X130800000Y-83300000D03*
%TD*%
D12*
%TO.P,SW4,1,1*%
%TO.N,/BMSOUT*%
X121700000Y-87760000D03*
%TO.P,SW4,2,2*%
%TO.N,+BATT*%
X124240000Y-90300000D03*
%TO.P,SW4,3,3*%
%TO.N,VCC*%
X121700000Y-90300000D03*
%TO.P,SW4,4,4*%
%TO.N,+5V*%
X121700000Y-92840000D03*
%TD*%
D13*
%TO.P,J1,6,Pin_6*%
%TO.N,GND*%
X128760000Y-115220000D03*
%TO.P,J1,5,Pin_5*%
%TO.N,/RX*%
X131300000Y-115220000D03*
%TO.P,J1,4,Pin_4*%
%TO.N,+5V*%
X128760000Y-117760000D03*
%TO.P,J1,3,Pin_3*%
%TO.N,/TX*%
X131300000Y-117760000D03*
%TO.P,J1,2,Pin_2*%
%TO.N,+BATT*%
X128760000Y-120300000D03*
D14*
%TO.P,J1,1,Pin_1*%
%TO.N,/UPDI*%
X131300000Y-120300000D03*
%TD*%
D15*
%TO.N,GND*%
X167800000Y-82600000D03*
X164000000Y-125100000D03*
X168600000Y-121800000D03*
X162700000Y-117100000D03*
X151900000Y-117600000D03*
X141900000Y-128700000D03*
X125900000Y-109200000D03*
X133600000Y-80500000D03*
X127700000Y-81600000D03*
X123500000Y-83900000D03*
X127600000Y-88300000D03*
X134300000Y-87800000D03*
X136600000Y-86500000D03*
X148100000Y-78600000D03*
X152200000Y-80800000D03*
X162600000Y-93400000D03*
X157500000Y-92900000D03*
%TO.N,/SDA*%
X170400000Y-87800000D03*
%TO.N,/SCL*%
X170300000Y-89000000D03*
%TO.N,/LED_EN*%
X170300000Y-90400000D03*
%TO.N,/SDA*%
X160900000Y-116200000D03*
%TO.N,/SCL*%
X159800000Y-117100000D03*
%TO.N,/LED_EN*%
X158700000Y-117900000D03*
%TO.N,VCC*%
X127750000Y-96350000D03*
%TO.N,+5V*%
X123500000Y-98100000D03*
%TO.N,VCC*%
X155000000Y-121100000D03*
X155200000Y-127300000D03*
X157700000Y-83000000D03*
X158700000Y-91100000D03*
%TO.N,+BATT*%
X132300000Y-93800000D03*
X128587701Y-91987701D03*
X130400000Y-92400000D03*
%TO.N,/BMSOUT*%
X127512500Y-83712500D03*
X132200000Y-80924500D03*
%TO.N,/RX*%
X147400000Y-120200000D03*
%TO.N,/TX*%
X148100000Y-121500000D03*
%TO.N,/UPDI*%
X147300000Y-122700000D03*
%TO.N,/LED_EN*%
X156100000Y-126300000D03*
X165100000Y-87500000D03*
%TO.N,/SCL*%
X164000000Y-86800000D03*
%TO.N,/SDA*%
X162700000Y-86800000D03*
X160900000Y-124000000D03*
%TO.N,/SCL*%
X159800000Y-123200000D03*
%TO.N,/SW5*%
X148100000Y-92400000D03*
X149800000Y-94200000D03*
%TO.N,/CS1*%
X150900000Y-105900000D03*
%TO.N,/CS5*%
X141500000Y-105600000D03*
%TO.N,/CS4*%
X170000000Y-100200000D03*
%TO.N,/CS3*%
X168704481Y-101804481D03*
%TO.N,/CS5*%
X169200000Y-92800000D03*
%TO.N,/CS2*%
X168300000Y-97400000D03*
%TO.N,/CS7*%
X166295391Y-87795391D03*
%TO.N,/CS6*%
X166300000Y-88900000D03*
%TO.N,/CS1*%
X164700000Y-92600000D03*
%TO.N,/CS7*%
X148900000Y-97824500D03*
%TO.N,/CS5*%
X159200000Y-102100000D03*
%TO.N,/CS6*%
X161519569Y-97064746D03*
%TO.N,/CS4*%
X165119569Y-104664746D03*
%TO.N,/CS3*%
X167355936Y-103153026D03*
%TO.N,/CS7*%
X163919569Y-98964746D03*
%TO.N,/CS2*%
X167703743Y-99812392D03*
%TO.N,/CS1*%
X166319569Y-96164746D03*
%TO.N,/CS5*%
X149700000Y-102100000D03*
%TO.N,/CS6*%
X152019569Y-97064746D03*
%TO.N,/CS4*%
X155619569Y-104664746D03*
%TO.N,/CS3*%
X157855936Y-103153026D03*
%TO.N,/CS7*%
X154419569Y-98964746D03*
%TO.N,/CS2*%
X158203743Y-99812392D03*
%TO.N,/CS1*%
X156819569Y-96164746D03*
X135300000Y-96200000D03*
X144800000Y-96200000D03*
%TO.N,/CS5*%
X128232101Y-102067899D03*
%TO.N,/CS6*%
X130532101Y-97067899D03*
%TO.N,/CS4*%
X134132101Y-104667899D03*
%TO.N,/CS3*%
X136287043Y-103142820D03*
%TO.N,/CS7*%
X132932101Y-98967899D03*
%TO.N,/CS2*%
X136716552Y-99816025D03*
%TO.N,/CS3*%
X145844477Y-103151893D03*
%TO.N,/CS4*%
X143600000Y-104700000D03*
%TO.N,/CS5*%
X137700000Y-102100000D03*
%TO.N,/CS6*%
X140000000Y-97100000D03*
%TO.N,/CS7*%
X142400000Y-99000000D03*
%TO.N,/CS2*%
X146196764Y-99810392D03*
%TD*%
D16*
%TO.N,/CS7*%
X165535254Y-98964746D02*
X163919569Y-98964746D01*
X168000000Y-96500000D02*
X165535254Y-98964746D01*
X166295391Y-87795391D02*
X168000000Y-89500000D01*
X168000000Y-89500000D02*
X168000000Y-96500000D01*
%TO.N,/CS5*%
X169200000Y-99341440D02*
X166441440Y-102100000D01*
X166441440Y-102100000D02*
X159200000Y-102100000D01*
X169200000Y-92800000D02*
X169200000Y-99341440D01*
%TO.N,/BMSOUT*%
X127512500Y-82987500D02*
X127512500Y-83712500D01*
X129575500Y-80924500D02*
X127512500Y-82987500D01*
X132200000Y-80924500D02*
X129575500Y-80924500D01*
%TO.N,/CS1*%
X130100000Y-96200000D02*
X135300000Y-96200000D01*
X129700000Y-99100000D02*
X129700000Y-96600000D01*
X127400000Y-101400000D02*
X129700000Y-99100000D01*
X127400000Y-102500000D02*
X127400000Y-101400000D01*
X131400000Y-106500000D02*
X127400000Y-102500000D01*
X142100000Y-106500000D02*
X131400000Y-106500000D01*
X142700000Y-105900000D02*
X142100000Y-106500000D01*
X129700000Y-96600000D02*
X130100000Y-96200000D01*
X150900000Y-105900000D02*
X142700000Y-105900000D01*
%TO.N,/SDA*%
X168300000Y-85700000D02*
X170400000Y-87800000D01*
X162700000Y-86800000D02*
X162700000Y-86700000D01*
X163700000Y-85700000D02*
X168300000Y-85700000D01*
X162700000Y-86700000D02*
X163700000Y-85700000D01*
%TO.N,/SCL*%
X167600000Y-86300000D02*
X170300000Y-89000000D01*
X164400000Y-86300000D02*
X167600000Y-86300000D01*
X164000000Y-86800000D02*
X164000000Y-86700000D01*
X164000000Y-86700000D02*
X164400000Y-86300000D01*
%TO.N,/LED_EN*%
X170300000Y-90300000D02*
X170300000Y-90400000D01*
X166800000Y-86800000D02*
X170300000Y-90300000D01*
X165100000Y-87500000D02*
X165800000Y-86800000D01*
X165800000Y-86800000D02*
X166800000Y-86800000D01*
%TO.N,VCC*%
X127750000Y-96350000D02*
X121700000Y-90300000D01*
%TO.N,/LED_EN*%
X170400000Y-90400000D02*
X170300000Y-90400000D01*
%TO.N,+5V*%
X121700000Y-96300000D02*
X121700000Y-92840000D01*
X123500000Y-98100000D02*
X121700000Y-96300000D01*
%TO.N,/SW5*%
X149800000Y-94100000D02*
X148100000Y-92400000D01*
X149800000Y-94200000D02*
X149800000Y-94100000D01*
%TO.N,VCC*%
X155200000Y-121300000D02*
X155000000Y-121100000D01*
X155200000Y-127300000D02*
X155200000Y-121300000D01*
%TO.N,/LED_EN*%
X158700000Y-123700000D02*
X158700000Y-117900000D01*
X156100000Y-126300000D02*
X158700000Y-123700000D01*
%TO.N,VCC*%
X157700000Y-90100000D02*
X158700000Y-91100000D01*
X157700000Y-83000000D02*
X157700000Y-90100000D01*
%TO.N,+BATT*%
X130900000Y-92400000D02*
X132300000Y-93800000D01*
X130400000Y-92400000D02*
X130900000Y-92400000D01*
X130400000Y-92400000D02*
X129987701Y-91987701D01*
X129987701Y-91987701D02*
X128587701Y-91987701D01*
%TO.N,/UPDI*%
X133700000Y-122700000D02*
X131300000Y-120300000D01*
X147300000Y-122700000D02*
X133700000Y-122700000D01*
%TO.N,/TX*%
X131960000Y-117760000D02*
X131300000Y-117760000D01*
X135700000Y-121500000D02*
X131960000Y-117760000D01*
X148100000Y-121500000D02*
X135700000Y-121500000D01*
%TO.N,/RX*%
X136700000Y-120100000D02*
X147300000Y-120100000D01*
X147300000Y-120100000D02*
X147400000Y-120200000D01*
X136180000Y-120100000D02*
X136700000Y-120100000D01*
X131300000Y-115220000D02*
X136180000Y-120100000D01*
%TO.N,/SCL*%
X159800000Y-123200000D02*
X159800000Y-117100000D01*
%TO.N,/SDA*%
X160900000Y-124000000D02*
X160900000Y-116200000D01*
%TO.N,/CS7*%
X148900000Y-97824500D02*
X148900000Y-98900000D01*
X148900000Y-98900000D02*
X148800000Y-99000000D01*
%TO.N,/CS5*%
X133700000Y-105600000D02*
X132800000Y-104700000D01*
X132800000Y-104700000D02*
X132800000Y-102100000D01*
X141500000Y-105600000D02*
X133700000Y-105600000D01*
X132800000Y-102100000D02*
X128600000Y-102100000D01*
X137700000Y-102100000D02*
X132800000Y-102100000D01*
%TO.N,/CS6*%
X167100000Y-89700000D02*
X167100000Y-96500000D01*
X166300000Y-88900000D02*
X167100000Y-89700000D01*
X166535254Y-97064746D02*
X161519569Y-97064746D01*
X167100000Y-96500000D02*
X166535254Y-97064746D01*
%TO.N,/CS4*%
X170000000Y-101534267D02*
X166869521Y-104664746D01*
X166869521Y-104664746D02*
X165119569Y-104664746D01*
X170000000Y-100200000D02*
X170000000Y-101534267D01*
X143600000Y-104700000D02*
X146000000Y-104700000D01*
X146000000Y-104700000D02*
X165084315Y-104700000D01*
%TO.N,/CS3*%
X168704481Y-101804481D02*
X167355936Y-103153026D01*
%TO.N,/CS2*%
X168300000Y-99216135D02*
X167703743Y-99812392D01*
X168300000Y-97400000D02*
X168300000Y-99216135D01*
%TO.N,/CS1*%
X164700000Y-96164746D02*
X166319569Y-96164746D01*
X164700000Y-92600000D02*
X164700000Y-96164746D01*
%TO.N,/CS6*%
X130532101Y-97067899D02*
X130600000Y-97000000D01*
%TO.N,/CS1*%
X137500000Y-96200000D02*
X135000000Y-96200000D01*
X144800000Y-96200000D02*
X137500000Y-96200000D01*
%TO.N,/CS2*%
X146207156Y-99800000D02*
X146196764Y-99810392D01*
X167691351Y-99800000D02*
X146207156Y-99800000D01*
X167703743Y-99812392D02*
X167691351Y-99800000D01*
%TO.N,/CS3*%
X167354803Y-103151893D02*
X145844477Y-103151893D01*
X167355936Y-103153026D02*
X167354803Y-103151893D01*
%TO.N,/CS1*%
X166284315Y-96200000D02*
X166319569Y-96164746D01*
X144800000Y-96200000D02*
X166284315Y-96200000D01*
%TO.N,/CS6*%
X161484315Y-97100000D02*
X161519569Y-97064746D01*
X148100000Y-97100000D02*
X161484315Y-97100000D01*
%TO.N,/CS7*%
X163884315Y-99000000D02*
X163919569Y-98964746D01*
X148800000Y-99000000D02*
X163884315Y-99000000D01*
%TO.N,/CS5*%
X137700000Y-102100000D02*
X159200000Y-102100000D01*
%TO.N,/CS4*%
X165084315Y-104700000D02*
X165119569Y-104664746D01*
%TO.N,/CS6*%
X140000000Y-97100000D02*
X148100000Y-97100000D01*
%TO.N,/CS7*%
X142400000Y-99000000D02*
X148800000Y-99000000D01*
%TO.N,/CS3*%
X136329863Y-103100000D02*
X136287043Y-103142820D01*
X145792584Y-103100000D02*
X136329863Y-103100000D01*
X145844477Y-103151893D02*
X145792584Y-103100000D01*
%TO.N,/CS4*%
X143600000Y-104700000D02*
X134000000Y-104700000D01*
%TO.N,/CS6*%
X140000000Y-97100000D02*
X130500000Y-97100000D01*
%TO.N,/CS2*%
X136500000Y-99800000D02*
X136510392Y-99810392D01*
X146196764Y-99810392D02*
X136510392Y-99810392D01*
%TO.N,/CS7*%
X142400000Y-99000000D02*
X133000000Y-99000000D01*
%TD*%
%TA.AperFunction,Conductor*%
%TO.N,GND*%
G36*
X175123889Y-75019407D02*
G01*
X175159853Y-75068907D01*
X175164698Y-75099500D01*
X175164698Y-130065698D01*
X175145791Y-130123889D01*
X175096291Y-130159853D01*
X175065698Y-130164698D01*
X120099500Y-130164698D01*
X120041309Y-130145791D01*
X120005345Y-130096291D01*
X120000500Y-130065698D01*
X120000500Y-115069999D01*
X127417965Y-115069999D01*
X127417966Y-115070000D01*
X128282935Y-115070000D01*
X128260000Y-115148111D01*
X128260000Y-115291889D01*
X128282935Y-115370000D01*
X127417966Y-115370000D01*
X127425429Y-115455312D01*
X127486569Y-115683489D01*
X127586399Y-115897577D01*
X127721886Y-116091073D01*
X127888926Y-116258113D01*
X128082422Y-116393600D01*
X128214454Y-116455167D01*
X128259202Y-116496895D01*
X128270877Y-116556956D01*
X128245019Y-116612409D01*
X128214455Y-116634616D01*
X128132368Y-116672894D01*
X128132364Y-116672896D01*
X127953127Y-116798398D01*
X127798398Y-116953127D01*
X127672896Y-117132364D01*
X127672892Y-117132372D01*
X127580426Y-117330666D01*
X127523791Y-117542030D01*
X127504723Y-117759996D01*
X127504723Y-117760003D01*
X127523791Y-117977969D01*
X127523792Y-117977976D01*
X127523793Y-117977977D01*
X127580425Y-118189330D01*
X127672898Y-118387639D01*
X127683137Y-118402262D01*
X127784893Y-118547585D01*
X127798402Y-118566877D01*
X127953123Y-118721598D01*
X127953126Y-118721600D01*
X127953127Y-118721601D01*
X127979087Y-118739778D01*
X128132361Y-118847102D01*
X128330670Y-118939575D01*
X128330671Y-118939575D01*
X128332172Y-118940275D01*
X128376920Y-118982004D01*
X128388595Y-119042065D01*
X128362737Y-119097518D01*
X128332172Y-119119724D01*
X128132372Y-119212892D01*
X128132364Y-119212896D01*
X127953127Y-119338398D01*
X127798398Y-119493127D01*
X127672896Y-119672364D01*
X127672892Y-119672372D01*
X127580426Y-119870666D01*
X127523791Y-120082030D01*
X127504723Y-120299996D01*
X127504723Y-120300003D01*
X127523791Y-120517969D01*
X127523792Y-120517976D01*
X127523793Y-120517977D01*
X127580425Y-120729330D01*
X127672898Y-120927639D01*
X127721982Y-120997738D01*
X127793586Y-121100000D01*
X127798402Y-121106877D01*
X127953123Y-121261598D01*
X128132361Y-121387102D01*
X128330670Y-121479575D01*
X128542023Y-121536207D01*
X128542027Y-121536207D01*
X128542030Y-121536208D01*
X128759997Y-121555277D01*
X128760000Y-121555277D01*
X128760003Y-121555277D01*
X128977969Y-121536208D01*
X128977970Y-121536207D01*
X128977977Y-121536207D01*
X129189330Y-121479575D01*
X129387639Y-121387102D01*
X129566877Y-121261598D01*
X129721598Y-121106877D01*
X129847102Y-120927639D01*
X129860776Y-120898314D01*
X129902502Y-120853568D01*
X129962563Y-120841892D01*
X130018016Y-120867748D01*
X130047681Y-120921262D01*
X130049500Y-120940154D01*
X130049500Y-121181521D01*
X130049501Y-121181523D01*
X130064352Y-121275299D01*
X130064354Y-121275304D01*
X130121950Y-121388342D01*
X130211658Y-121478050D01*
X130324696Y-121535646D01*
X130418481Y-121550500D01*
X131766321Y-121550499D01*
X131824512Y-121569406D01*
X131836325Y-121579495D01*
X133322073Y-123065243D01*
X133365242Y-123111467D01*
X133365245Y-123111469D01*
X133401766Y-123133678D01*
X133405959Y-123136532D01*
X133440023Y-123162364D01*
X133440024Y-123162364D01*
X133440025Y-123162365D01*
X133457512Y-123169261D01*
X133472622Y-123176766D01*
X133488672Y-123186526D01*
X133529833Y-123198058D01*
X133534622Y-123199669D01*
X133574411Y-123215360D01*
X133593102Y-123217281D01*
X133609688Y-123220433D01*
X133627772Y-123225500D01*
X133670512Y-123225500D01*
X133675576Y-123225760D01*
X133687059Y-123226940D01*
X133718110Y-123230132D01*
X133736623Y-123226939D01*
X133753445Y-123225500D01*
X146652414Y-123225500D01*
X146710605Y-123244407D01*
X146722417Y-123254496D01*
X146797736Y-123329814D01*
X146797738Y-123329816D01*
X146950478Y-123425789D01*
X146994869Y-123441322D01*
X147120738Y-123485366D01*
X147120742Y-123485367D01*
X147120745Y-123485368D01*
X147300000Y-123505565D01*
X147479255Y-123485368D01*
X147649522Y-123425789D01*
X147802262Y-123329816D01*
X147929816Y-123202262D01*
X148025789Y-123049522D01*
X148085368Y-122879255D01*
X148105565Y-122700000D01*
X148085368Y-122520745D01*
X148054486Y-122432489D01*
X148053113Y-122371319D01*
X148087956Y-122321024D01*
X148136844Y-122301413D01*
X148279255Y-122285368D01*
X148449522Y-122225789D01*
X148602262Y-122129816D01*
X148729816Y-122002262D01*
X148825789Y-121849522D01*
X148885368Y-121679255D01*
X148905565Y-121500000D01*
X148885368Y-121320745D01*
X148825789Y-121150478D01*
X148794072Y-121100000D01*
X154194435Y-121100000D01*
X154214632Y-121279257D01*
X154214633Y-121279261D01*
X154274211Y-121449522D01*
X154274211Y-121449523D01*
X154370181Y-121602258D01*
X154370184Y-121602262D01*
X154497738Y-121729816D01*
X154497741Y-121729818D01*
X154497740Y-121729818D01*
X154571632Y-121776247D01*
X154628171Y-121811773D01*
X154667383Y-121858741D01*
X154674500Y-121895598D01*
X154674500Y-126652414D01*
X154655593Y-126710605D01*
X154645504Y-126722417D01*
X154570185Y-126797736D01*
X154570181Y-126797741D01*
X154474211Y-126950476D01*
X154474211Y-126950477D01*
X154414633Y-127120738D01*
X154414632Y-127120742D01*
X154394435Y-127300000D01*
X154414632Y-127479257D01*
X154414633Y-127479261D01*
X154474211Y-127649522D01*
X154474211Y-127649523D01*
X154570181Y-127802258D01*
X154570184Y-127802262D01*
X154697738Y-127929816D01*
X154850478Y-128025789D01*
X154918657Y-128049646D01*
X155020738Y-128085366D01*
X155020742Y-128085367D01*
X155020745Y-128085368D01*
X155200000Y-128105565D01*
X155379255Y-128085368D01*
X155549522Y-128025789D01*
X155702262Y-127929816D01*
X155829816Y-127802262D01*
X155925789Y-127649522D01*
X155985368Y-127479255D01*
X156005565Y-127300000D01*
X156005565Y-127299996D01*
X156005565Y-127299995D01*
X155996061Y-127215649D01*
X156008333Y-127155707D01*
X156053495Y-127114427D01*
X156094440Y-127109813D01*
X156094440Y-127105565D01*
X156099996Y-127105565D01*
X156099997Y-127105564D01*
X156100000Y-127105565D01*
X156279255Y-127085368D01*
X156449522Y-127025789D01*
X156602262Y-126929816D01*
X156729816Y-126802262D01*
X156825789Y-126649522D01*
X156885368Y-126479255D01*
X156905565Y-126300000D01*
X156904585Y-126291300D01*
X156916857Y-126231358D01*
X156932954Y-126210214D01*
X159065228Y-124077940D01*
X159111469Y-124034755D01*
X159133679Y-123998229D01*
X159136529Y-123994042D01*
X159162364Y-123959975D01*
X159169257Y-123942496D01*
X159176769Y-123927372D01*
X159177732Y-123925789D01*
X159186526Y-123911328D01*
X159186828Y-123910247D01*
X159187309Y-123909525D01*
X159189224Y-123905117D01*
X159190014Y-123905460D01*
X159220727Y-123859314D01*
X159278092Y-123838033D01*
X159334830Y-123853123D01*
X159450476Y-123925788D01*
X159450478Y-123925789D01*
X159498224Y-123942496D01*
X159620738Y-123985366D01*
X159620742Y-123985367D01*
X159620745Y-123985368D01*
X159800000Y-124005565D01*
X159979255Y-123985368D01*
X159979261Y-123985365D01*
X159981935Y-123984756D01*
X159983462Y-123984893D01*
X159984780Y-123984745D01*
X159984810Y-123985014D01*
X160042874Y-123990241D01*
X160088951Y-124030497D01*
X160102342Y-124070189D01*
X160114630Y-124179249D01*
X160114633Y-124179261D01*
X160174211Y-124349522D01*
X160174211Y-124349523D01*
X160270181Y-124502258D01*
X160270184Y-124502262D01*
X160397738Y-124629816D01*
X160550478Y-124725789D01*
X160618657Y-124749646D01*
X160720738Y-124785366D01*
X160720742Y-124785367D01*
X160720745Y-124785368D01*
X160900000Y-124805565D01*
X161079255Y-124785368D01*
X161249522Y-124725789D01*
X161402262Y-124629816D01*
X161529816Y-124502262D01*
X161625789Y-124349522D01*
X161685368Y-124179255D01*
X161705565Y-124000000D01*
X161685368Y-123820745D01*
X161625789Y-123650478D01*
X161534733Y-123505564D01*
X161529818Y-123497741D01*
X161529814Y-123497736D01*
X161454496Y-123422417D01*
X161426719Y-123367900D01*
X161425500Y-123352414D01*
X161425500Y-116847585D01*
X161444407Y-116789394D01*
X161454490Y-116777587D01*
X161529816Y-116702262D01*
X161625789Y-116549522D01*
X161685368Y-116379255D01*
X161705565Y-116200000D01*
X161685368Y-116020745D01*
X161625789Y-115850478D01*
X161624003Y-115847636D01*
X161529818Y-115697741D01*
X161529817Y-115697740D01*
X161529816Y-115697738D01*
X161402262Y-115570184D01*
X161402259Y-115570182D01*
X161402258Y-115570181D01*
X161249523Y-115474211D01*
X161079261Y-115414633D01*
X161079257Y-115414632D01*
X160900000Y-115394435D01*
X160720742Y-115414632D01*
X160720738Y-115414633D01*
X160550477Y-115474211D01*
X160550476Y-115474211D01*
X160397741Y-115570181D01*
X160270181Y-115697741D01*
X160174211Y-115850476D01*
X160174211Y-115850477D01*
X160114633Y-116020738D01*
X160114632Y-116020742D01*
X160113941Y-116026877D01*
X160096509Y-116181598D01*
X160094435Y-116200002D01*
X160095110Y-116205994D01*
X160082835Y-116265935D01*
X160037671Y-116307214D01*
X159985017Y-116313144D01*
X159984780Y-116315255D01*
X159979256Y-116314632D01*
X159979255Y-116314632D01*
X159800000Y-116294435D01*
X159620742Y-116314632D01*
X159620738Y-116314633D01*
X159450477Y-116374211D01*
X159450476Y-116374211D01*
X159297741Y-116470181D01*
X159170181Y-116597741D01*
X159074211Y-116750476D01*
X159074211Y-116750477D01*
X159014633Y-116920738D01*
X159014630Y-116920750D01*
X159002342Y-117029811D01*
X158977038Y-117085519D01*
X158923823Y-117115714D01*
X158881935Y-117115244D01*
X158879256Y-117114632D01*
X158700000Y-117094435D01*
X158520742Y-117114632D01*
X158520738Y-117114633D01*
X158350477Y-117174211D01*
X158350476Y-117174211D01*
X158197741Y-117270181D01*
X158070181Y-117397741D01*
X157974211Y-117550476D01*
X157974211Y-117550477D01*
X157914633Y-117720738D01*
X157914632Y-117720742D01*
X157894435Y-117900000D01*
X157914632Y-118079257D01*
X157914633Y-118079261D01*
X157974211Y-118249522D01*
X157974211Y-118249523D01*
X158070181Y-118402258D01*
X158070184Y-118402262D01*
X158145505Y-118477583D01*
X158173281Y-118532098D01*
X158174500Y-118547585D01*
X158174500Y-123441322D01*
X158155593Y-123499513D01*
X158145504Y-123511326D01*
X156189788Y-125467041D01*
X156135271Y-125494818D01*
X156108705Y-125495415D01*
X156100003Y-125494435D01*
X156100001Y-125494435D01*
X156100000Y-125494435D01*
X156010372Y-125504533D01*
X155920742Y-125514632D01*
X155857197Y-125536868D01*
X155796027Y-125538240D01*
X155745733Y-125503396D01*
X155725525Y-125445644D01*
X155725500Y-125443423D01*
X155725500Y-121467169D01*
X155731056Y-121434471D01*
X155785366Y-121279261D01*
X155785367Y-121279257D01*
X155785368Y-121279255D01*
X155805565Y-121100000D01*
X155785368Y-120920745D01*
X155725789Y-120750478D01*
X155703265Y-120714632D01*
X155629818Y-120597741D01*
X155629817Y-120597740D01*
X155629816Y-120597738D01*
X155502262Y-120470184D01*
X155502259Y-120470182D01*
X155502258Y-120470181D01*
X155349523Y-120374211D01*
X155179261Y-120314633D01*
X155179257Y-120314632D01*
X155000000Y-120294435D01*
X154820742Y-120314632D01*
X154820738Y-120314633D01*
X154650477Y-120374211D01*
X154650476Y-120374211D01*
X154497741Y-120470181D01*
X154370181Y-120597741D01*
X154274211Y-120750476D01*
X154274211Y-120750477D01*
X154214633Y-120920738D01*
X154214632Y-120920742D01*
X154194435Y-121100000D01*
X148794072Y-121100000D01*
X148729816Y-120997738D01*
X148602262Y-120870184D01*
X148602259Y-120870182D01*
X148602258Y-120870181D01*
X148449523Y-120774211D01*
X148279261Y-120714633D01*
X148279249Y-120714630D01*
X148195616Y-120705207D01*
X148139908Y-120679903D01*
X148109713Y-120626688D01*
X148116564Y-120565887D01*
X148122874Y-120554159D01*
X148125789Y-120549522D01*
X148185368Y-120379255D01*
X148205565Y-120200000D01*
X148185368Y-120020745D01*
X148125789Y-119850478D01*
X148032295Y-119701684D01*
X148029818Y-119697741D01*
X148029817Y-119697740D01*
X148029816Y-119697738D01*
X147902262Y-119570184D01*
X147902259Y-119570182D01*
X147902258Y-119570181D01*
X147749523Y-119474211D01*
X147579261Y-119414633D01*
X147579257Y-119414632D01*
X147400000Y-119394435D01*
X147220742Y-119414632D01*
X147220738Y-119414633D01*
X147050477Y-119474211D01*
X147050476Y-119474211D01*
X146915018Y-119559326D01*
X146862347Y-119574500D01*
X136438677Y-119574500D01*
X136380486Y-119555593D01*
X136368673Y-119545504D01*
X132518496Y-115695327D01*
X132490719Y-115640810D01*
X132492873Y-115599700D01*
X132500782Y-115570184D01*
X132536207Y-115437977D01*
X132538250Y-115414633D01*
X132555277Y-115220003D01*
X132555277Y-115219996D01*
X132536208Y-115002030D01*
X132536207Y-115002027D01*
X132536207Y-115002023D01*
X132479575Y-114790670D01*
X132387102Y-114592362D01*
X132261598Y-114413123D01*
X132106877Y-114258402D01*
X132106873Y-114258399D01*
X132106872Y-114258398D01*
X131997601Y-114181886D01*
X131927639Y-114132898D01*
X131729330Y-114040425D01*
X131517977Y-113983793D01*
X131517976Y-113983792D01*
X131517969Y-113983791D01*
X131300003Y-113964723D01*
X131299997Y-113964723D01*
X131082030Y-113983791D01*
X130870666Y-114040426D01*
X130672372Y-114132892D01*
X130672364Y-114132896D01*
X130493127Y-114258398D01*
X130338398Y-114413127D01*
X130212896Y-114592364D01*
X130212894Y-114592368D01*
X130174616Y-114674455D01*
X130132887Y-114719203D01*
X130072826Y-114730877D01*
X130017374Y-114705018D01*
X129995167Y-114674454D01*
X129933600Y-114542423D01*
X129798113Y-114348926D01*
X129631073Y-114181886D01*
X129437577Y-114046399D01*
X129223489Y-113946569D01*
X128995312Y-113885429D01*
X128910000Y-113877965D01*
X128910000Y-114738829D01*
X128902315Y-114735320D01*
X128795763Y-114720000D01*
X128724237Y-114720000D01*
X128617685Y-114735320D01*
X128610000Y-114738829D01*
X128610000Y-113877965D01*
X128609999Y-113877965D01*
X128524687Y-113885429D01*
X128296505Y-113946570D01*
X128082432Y-114046394D01*
X128082424Y-114046398D01*
X127888926Y-114181886D01*
X127721886Y-114348926D01*
X127586398Y-114542424D01*
X127586394Y-114542432D01*
X127486570Y-114756505D01*
X127425429Y-114984687D01*
X127417965Y-115069999D01*
X120000500Y-115069999D01*
X120000500Y-101418110D01*
X126869869Y-101418110D01*
X126873061Y-101436625D01*
X126874500Y-101453444D01*
X126874500Y-102491015D01*
X126872340Y-102554244D01*
X126872340Y-102554250D01*
X126882458Y-102595766D01*
X126883405Y-102600749D01*
X126889228Y-102643109D01*
X126896715Y-102660346D01*
X126902094Y-102676341D01*
X126905241Y-102689255D01*
X126906543Y-102694594D01*
X126906545Y-102694597D01*
X126927490Y-102731848D01*
X126929746Y-102736390D01*
X126946781Y-102775610D01*
X126958636Y-102790181D01*
X126968135Y-102804137D01*
X126977341Y-102820511D01*
X127007576Y-102850747D01*
X127010972Y-102854510D01*
X127034000Y-102882815D01*
X127037948Y-102887667D01*
X127053284Y-102898492D01*
X127066199Y-102909369D01*
X131022059Y-106865228D01*
X131065241Y-106911466D01*
X131065243Y-106911467D01*
X131065245Y-106911469D01*
X131101769Y-106933679D01*
X131105957Y-106936530D01*
X131126054Y-106951770D01*
X131140025Y-106962364D01*
X131140026Y-106962364D01*
X131140027Y-106962365D01*
X131157499Y-106969255D01*
X131172618Y-106976764D01*
X131188668Y-106986524D01*
X131188670Y-106986525D01*
X131188672Y-106986526D01*
X131229837Y-106998059D01*
X131234630Y-106999671D01*
X131274411Y-107015359D01*
X131293091Y-107017279D01*
X131309682Y-107020432D01*
X131327768Y-107025499D01*
X131327770Y-107025500D01*
X131327772Y-107025500D01*
X131370522Y-107025500D01*
X131375586Y-107025760D01*
X131387059Y-107026939D01*
X131418110Y-107030131D01*
X131433316Y-107027509D01*
X131436625Y-107026939D01*
X131453444Y-107025500D01*
X142091015Y-107025500D01*
X142093251Y-107025576D01*
X142154245Y-107027660D01*
X142195777Y-107017538D01*
X142200740Y-107016594D01*
X142243111Y-107010771D01*
X142260355Y-107003280D01*
X142276343Y-106997904D01*
X142294594Y-106993457D01*
X142331855Y-106972505D01*
X142336385Y-106970255D01*
X142375609Y-106953219D01*
X142390184Y-106941360D01*
X142404136Y-106931864D01*
X142420512Y-106922658D01*
X142450748Y-106892420D01*
X142454491Y-106889042D01*
X142487665Y-106862054D01*
X142498499Y-106846704D01*
X142509370Y-106833799D01*
X142888674Y-106454496D01*
X142943190Y-106426719D01*
X142958677Y-106425500D01*
X150252414Y-106425500D01*
X150310605Y-106444407D01*
X150322417Y-106454496D01*
X150397736Y-106529814D01*
X150397738Y-106529816D01*
X150550478Y-106625789D01*
X150618657Y-106649646D01*
X150720738Y-106685366D01*
X150720742Y-106685367D01*
X150720745Y-106685368D01*
X150900000Y-106705565D01*
X151079255Y-106685368D01*
X151249522Y-106625789D01*
X151402262Y-106529816D01*
X151529816Y-106402262D01*
X151625789Y-106249522D01*
X151685368Y-106079255D01*
X151705565Y-105900000D01*
X151685368Y-105720745D01*
X151625789Y-105550478D01*
X151571442Y-105463986D01*
X151529818Y-105397741D01*
X151529817Y-105397740D01*
X151529816Y-105397738D01*
X151526579Y-105394501D01*
X151498804Y-105339987D01*
X151508375Y-105279555D01*
X151551640Y-105236290D01*
X151596585Y-105225500D01*
X155007237Y-105225500D01*
X155065428Y-105244407D01*
X155077240Y-105254496D01*
X155102300Y-105279555D01*
X155117307Y-105294562D01*
X155117309Y-105294563D01*
X155117310Y-105294564D01*
X155267968Y-105389229D01*
X155270047Y-105390535D01*
X155338226Y-105414392D01*
X155440307Y-105450112D01*
X155440311Y-105450113D01*
X155440314Y-105450114D01*
X155619569Y-105470311D01*
X155798824Y-105450114D01*
X155969091Y-105390535D01*
X156121831Y-105294562D01*
X156146209Y-105270184D01*
X156161898Y-105254496D01*
X156216415Y-105226719D01*
X156231901Y-105225500D01*
X164507237Y-105225500D01*
X164565428Y-105244407D01*
X164577240Y-105254496D01*
X164602300Y-105279555D01*
X164617307Y-105294562D01*
X164617309Y-105294563D01*
X164617310Y-105294564D01*
X164767968Y-105389229D01*
X164770047Y-105390535D01*
X164838226Y-105414392D01*
X164940307Y-105450112D01*
X164940311Y-105450113D01*
X164940314Y-105450114D01*
X165119569Y-105470311D01*
X165298824Y-105450114D01*
X165469091Y-105390535D01*
X165621831Y-105294562D01*
X165671986Y-105244407D01*
X165697152Y-105219242D01*
X165751669Y-105191465D01*
X165767155Y-105190246D01*
X166860536Y-105190246D01*
X166862772Y-105190322D01*
X166923766Y-105192406D01*
X166965298Y-105182284D01*
X166970261Y-105181340D01*
X167012632Y-105175517D01*
X167029876Y-105168026D01*
X167045864Y-105162650D01*
X167064115Y-105158203D01*
X167101376Y-105137251D01*
X167105906Y-105135001D01*
X167145130Y-105117965D01*
X167159705Y-105106106D01*
X167173657Y-105096610D01*
X167190033Y-105087404D01*
X167220270Y-105057165D01*
X167224014Y-105053786D01*
X167257186Y-105026800D01*
X167268020Y-105011450D01*
X167278884Y-104998551D01*
X170365228Y-101912207D01*
X170411469Y-101869022D01*
X170433679Y-101832496D01*
X170436529Y-101828309D01*
X170462364Y-101794242D01*
X170469257Y-101776763D01*
X170476769Y-101761639D01*
X170486526Y-101745595D01*
X170498061Y-101704422D01*
X170499674Y-101699628D01*
X170515357Y-101659860D01*
X170515358Y-101659858D01*
X170515357Y-101659858D01*
X170515359Y-101659856D01*
X170517280Y-101641158D01*
X170520431Y-101624584D01*
X170525500Y-101606495D01*
X170525500Y-101563744D01*
X170525760Y-101558679D01*
X170528536Y-101531670D01*
X170530131Y-101516157D01*
X170526939Y-101497642D01*
X170525500Y-101480823D01*
X170525500Y-100847585D01*
X170544407Y-100789394D01*
X170554490Y-100777587D01*
X170629816Y-100702262D01*
X170725789Y-100549522D01*
X170785368Y-100379255D01*
X170805565Y-100200000D01*
X170785368Y-100020745D01*
X170776457Y-99995280D01*
X170761014Y-99951145D01*
X170725789Y-99850478D01*
X170629816Y-99697738D01*
X170502262Y-99570184D01*
X170502259Y-99570182D01*
X170502258Y-99570181D01*
X170349523Y-99474211D01*
X170179261Y-99414633D01*
X170179257Y-99414632D01*
X170051104Y-99400193D01*
X170000000Y-99394435D01*
X169999999Y-99394435D01*
X169839956Y-99412467D01*
X169780014Y-99400193D01*
X169738734Y-99355031D01*
X169732819Y-99329736D01*
X169731281Y-99330002D01*
X169726939Y-99304815D01*
X169725500Y-99287996D01*
X169725500Y-93447585D01*
X169744407Y-93389394D01*
X169754490Y-93377587D01*
X169829816Y-93302262D01*
X169925789Y-93149522D01*
X169985368Y-92979255D01*
X170005565Y-92800000D01*
X169985368Y-92620745D01*
X169984239Y-92617519D01*
X169957883Y-92542197D01*
X169925789Y-92450478D01*
X169916234Y-92435272D01*
X169829818Y-92297741D01*
X169829817Y-92297740D01*
X169829816Y-92297738D01*
X169702262Y-92170184D01*
X169702259Y-92170182D01*
X169702258Y-92170181D01*
X169549523Y-92074211D01*
X169379261Y-92014633D01*
X169379257Y-92014632D01*
X169200000Y-91994435D01*
X169020742Y-92014632D01*
X169020738Y-92014633D01*
X168850477Y-92074211D01*
X168850476Y-92074211D01*
X168697741Y-92170181D01*
X168697738Y-92170183D01*
X168697738Y-92170184D01*
X168694501Y-92173420D01*
X168639987Y-92201196D01*
X168579555Y-92191625D01*
X168536290Y-92148360D01*
X168525500Y-92103415D01*
X168525500Y-89509001D01*
X168525582Y-89506567D01*
X168525655Y-89504428D01*
X168546518Y-89446912D01*
X168597205Y-89412641D01*
X168658355Y-89414709D01*
X168694602Y-89437772D01*
X169477167Y-90220336D01*
X169504944Y-90274853D01*
X169505541Y-90301423D01*
X169494435Y-90399999D01*
X169514632Y-90579257D01*
X169514633Y-90579261D01*
X169574211Y-90749522D01*
X169574211Y-90749523D01*
X169670181Y-90902258D01*
X169670184Y-90902262D01*
X169797738Y-91029816D01*
X169797740Y-91029817D01*
X169797741Y-91029818D01*
X169909428Y-91099996D01*
X169950478Y-91125789D01*
X170018657Y-91149646D01*
X170120738Y-91185366D01*
X170120742Y-91185367D01*
X170120745Y-91185368D01*
X170300000Y-91205565D01*
X170479255Y-91185368D01*
X170649522Y-91125789D01*
X170802262Y-91029816D01*
X170929816Y-90902262D01*
X171025789Y-90749522D01*
X171085368Y-90579255D01*
X171105565Y-90400000D01*
X171085368Y-90220745D01*
X171076627Y-90195766D01*
X171061014Y-90151145D01*
X171025789Y-90050478D01*
X170929816Y-89897738D01*
X170802262Y-89770184D01*
X170802259Y-89770182D01*
X170802081Y-89770004D01*
X170774304Y-89715487D01*
X170783875Y-89655055D01*
X170802081Y-89629996D01*
X170802259Y-89629817D01*
X170802262Y-89629816D01*
X170929816Y-89502262D01*
X171025789Y-89349522D01*
X171079974Y-89194667D01*
X171085366Y-89179261D01*
X171085367Y-89179257D01*
X171085368Y-89179255D01*
X171105565Y-89000000D01*
X171085368Y-88820745D01*
X171025789Y-88650478D01*
X170934976Y-88505951D01*
X170920027Y-88446622D01*
X170942806Y-88389835D01*
X170948789Y-88383288D01*
X171029816Y-88302262D01*
X171125789Y-88149522D01*
X171185368Y-87979255D01*
X171205565Y-87800000D01*
X171185368Y-87620745D01*
X171180056Y-87605565D01*
X171152141Y-87525788D01*
X171125789Y-87450478D01*
X171112807Y-87429818D01*
X171029818Y-87297741D01*
X171029817Y-87297740D01*
X171029816Y-87297738D01*
X170902262Y-87170184D01*
X170902259Y-87170182D01*
X170902258Y-87170181D01*
X170749523Y-87074211D01*
X170579261Y-87014633D01*
X170579257Y-87014632D01*
X170519503Y-87007899D01*
X170400000Y-86994435D01*
X170399997Y-86994435D01*
X170399996Y-86994435D01*
X170399995Y-86994435D01*
X170391292Y-86995415D01*
X170331351Y-86983138D01*
X170310210Y-86967041D01*
X168677940Y-85334771D01*
X168634757Y-85288532D01*
X168634755Y-85288531D01*
X168598229Y-85266319D01*
X168594039Y-85263467D01*
X168559973Y-85237634D01*
X168542492Y-85230740D01*
X168527381Y-85223235D01*
X168511325Y-85213472D01*
X168470166Y-85201940D01*
X168465360Y-85200324D01*
X168425589Y-85184641D01*
X168425592Y-85184641D01*
X168413577Y-85183406D01*
X168406892Y-85182718D01*
X168390314Y-85179567D01*
X168372228Y-85174500D01*
X168329478Y-85174500D01*
X168324414Y-85174240D01*
X168290061Y-85170709D01*
X168281890Y-85169869D01*
X168281889Y-85169869D01*
X168263375Y-85173061D01*
X168246556Y-85174500D01*
X163708985Y-85174500D01*
X163645755Y-85172340D01*
X163645748Y-85172340D01*
X163607612Y-85181634D01*
X163604224Y-85182460D01*
X163599245Y-85183406D01*
X163556893Y-85189228D01*
X163556885Y-85189230D01*
X163539653Y-85196714D01*
X163523666Y-85202090D01*
X163505414Y-85206539D01*
X163505403Y-85206543D01*
X163468140Y-85227494D01*
X163463600Y-85229749D01*
X163424388Y-85246781D01*
X163424387Y-85246782D01*
X163409813Y-85258639D01*
X163395862Y-85268135D01*
X163379488Y-85277341D01*
X163349260Y-85307569D01*
X163345497Y-85310965D01*
X163312337Y-85337943D01*
X163312330Y-85337951D01*
X163301500Y-85353293D01*
X163290627Y-85366202D01*
X162682115Y-85974714D01*
X162627598Y-86002491D01*
X162623196Y-86003087D01*
X162520745Y-86014631D01*
X162520743Y-86014631D01*
X162350477Y-86074211D01*
X162350476Y-86074211D01*
X162197741Y-86170181D01*
X162070181Y-86297741D01*
X161974211Y-86450476D01*
X161974211Y-86450477D01*
X161914633Y-86620738D01*
X161914632Y-86620742D01*
X161894435Y-86800000D01*
X161914632Y-86979257D01*
X161914633Y-86979261D01*
X161974211Y-87149522D01*
X161974211Y-87149523D01*
X162067341Y-87297738D01*
X162070184Y-87302262D01*
X162197738Y-87429816D01*
X162350478Y-87525789D01*
X162358786Y-87528696D01*
X162520738Y-87585366D01*
X162520742Y-87585367D01*
X162520745Y-87585368D01*
X162700000Y-87605565D01*
X162879255Y-87585368D01*
X162882305Y-87584301D01*
X162894667Y-87579974D01*
X163049522Y-87525789D01*
X163202262Y-87429816D01*
X163279998Y-87352079D01*
X163334513Y-87324304D01*
X163394945Y-87333875D01*
X163420000Y-87352078D01*
X163497738Y-87429816D01*
X163650478Y-87525789D01*
X163658786Y-87528696D01*
X163820738Y-87585366D01*
X163820742Y-87585367D01*
X163820745Y-87585368D01*
X164000000Y-87605565D01*
X164179255Y-87585368D01*
X164182135Y-87584359D01*
X164183839Y-87584321D01*
X164184679Y-87584130D01*
X164184718Y-87584301D01*
X164243302Y-87582980D01*
X164293601Y-87617818D01*
X164313218Y-87666713D01*
X164314631Y-87679255D01*
X164314631Y-87679256D01*
X164374211Y-87849522D01*
X164374211Y-87849523D01*
X164455731Y-87979261D01*
X164470184Y-88002262D01*
X164597738Y-88129816D01*
X164597740Y-88129817D01*
X164597741Y-88129818D01*
X164724237Y-88209301D01*
X164750478Y-88225789D01*
X164770023Y-88232628D01*
X164920738Y-88285366D01*
X164920742Y-88285367D01*
X164920745Y-88285368D01*
X165100000Y-88305565D01*
X165279255Y-88285368D01*
X165449522Y-88225789D01*
X165488217Y-88201474D01*
X165547547Y-88186523D01*
X165604335Y-88209301D01*
X165624716Y-88232628D01*
X165666227Y-88298692D01*
X165681177Y-88358022D01*
X165666227Y-88404034D01*
X165574211Y-88550476D01*
X165574211Y-88550477D01*
X165514633Y-88720738D01*
X165514632Y-88720742D01*
X165494435Y-88900000D01*
X165514632Y-89079257D01*
X165514633Y-89079261D01*
X165574211Y-89249522D01*
X165574211Y-89249523D01*
X165670181Y-89402258D01*
X165670184Y-89402262D01*
X165797738Y-89529816D01*
X165797740Y-89529817D01*
X165797741Y-89529818D01*
X165906027Y-89597859D01*
X165950478Y-89625789D01*
X166018657Y-89649646D01*
X166120738Y-89685366D01*
X166120742Y-89685367D01*
X166120745Y-89685368D01*
X166300000Y-89705565D01*
X166308696Y-89704585D01*
X166368639Y-89716856D01*
X166389788Y-89732958D01*
X166545504Y-89888674D01*
X166573281Y-89943191D01*
X166574500Y-89958678D01*
X166574500Y-95277123D01*
X166555593Y-95335314D01*
X166506093Y-95371278D01*
X166464416Y-95375501D01*
X166319569Y-95359181D01*
X166140311Y-95379378D01*
X166140307Y-95379379D01*
X165970046Y-95438957D01*
X165970045Y-95438957D01*
X165817310Y-95534927D01*
X165817305Y-95534931D01*
X165741986Y-95610250D01*
X165687469Y-95638027D01*
X165671983Y-95639246D01*
X165324500Y-95639246D01*
X165266309Y-95620339D01*
X165230345Y-95570839D01*
X165225500Y-95540246D01*
X165225500Y-93247585D01*
X165244407Y-93189394D01*
X165254490Y-93177587D01*
X165329816Y-93102262D01*
X165425789Y-92949522D01*
X165485368Y-92779255D01*
X165505565Y-92600000D01*
X165485368Y-92420745D01*
X165472405Y-92383700D01*
X165442326Y-92297738D01*
X165425789Y-92250478D01*
X165407106Y-92220745D01*
X165329818Y-92097741D01*
X165329817Y-92097740D01*
X165329816Y-92097738D01*
X165202262Y-91970184D01*
X165202259Y-91970182D01*
X165202258Y-91970181D01*
X165049523Y-91874211D01*
X164879261Y-91814633D01*
X164879257Y-91814632D01*
X164700000Y-91794435D01*
X164520742Y-91814632D01*
X164520738Y-91814633D01*
X164350477Y-91874211D01*
X164350476Y-91874211D01*
X164197741Y-91970181D01*
X164070181Y-92097741D01*
X163974211Y-92250476D01*
X163974211Y-92250477D01*
X163914633Y-92420738D01*
X163914632Y-92420742D01*
X163894435Y-92600000D01*
X163914632Y-92779257D01*
X163914633Y-92779261D01*
X163974211Y-92949522D01*
X163974211Y-92949523D01*
X164070181Y-93102258D01*
X164070184Y-93102262D01*
X164145505Y-93177583D01*
X164173281Y-93232098D01*
X164174500Y-93247585D01*
X164174500Y-95575500D01*
X164155593Y-95633691D01*
X164106093Y-95669655D01*
X164075500Y-95674500D01*
X157502408Y-95674500D01*
X157444217Y-95655593D01*
X157432410Y-95645509D01*
X157321831Y-95534930D01*
X157321828Y-95534928D01*
X157321827Y-95534927D01*
X157169092Y-95438957D01*
X156998830Y-95379379D01*
X156998826Y-95379378D01*
X156819569Y-95359181D01*
X156640311Y-95379378D01*
X156640307Y-95379379D01*
X156470046Y-95438957D01*
X156470045Y-95438957D01*
X156317310Y-95534927D01*
X156317307Y-95534929D01*
X156317307Y-95534930D01*
X156206731Y-95645505D01*
X156152217Y-95673281D01*
X156136730Y-95674500D01*
X145447586Y-95674500D01*
X145389395Y-95655593D01*
X145377583Y-95645504D01*
X145302263Y-95570185D01*
X145302258Y-95570181D01*
X145149523Y-95474211D01*
X144979261Y-95414633D01*
X144979257Y-95414632D01*
X144800000Y-95394435D01*
X144620742Y-95414632D01*
X144620738Y-95414633D01*
X144450477Y-95474211D01*
X144450476Y-95474211D01*
X144297741Y-95570181D01*
X144297736Y-95570185D01*
X144222417Y-95645504D01*
X144167900Y-95673281D01*
X144152414Y-95674500D01*
X135947586Y-95674500D01*
X135889395Y-95655593D01*
X135877583Y-95645504D01*
X135802263Y-95570185D01*
X135802258Y-95570181D01*
X135649523Y-95474211D01*
X135479261Y-95414633D01*
X135479257Y-95414632D01*
X135300000Y-95394435D01*
X135120742Y-95414632D01*
X135120738Y-95414633D01*
X134950477Y-95474211D01*
X134950476Y-95474211D01*
X134797741Y-95570181D01*
X134797736Y-95570185D01*
X134722417Y-95645504D01*
X134667900Y-95673281D01*
X134652414Y-95674500D01*
X130108985Y-95674500D01*
X130045756Y-95672340D01*
X130045751Y-95672340D01*
X130004223Y-95682460D01*
X129999242Y-95683406D01*
X129956888Y-95689228D01*
X129956885Y-95689229D01*
X129939655Y-95696714D01*
X129923656Y-95702095D01*
X129905407Y-95706542D01*
X129905399Y-95706545D01*
X129868148Y-95727491D01*
X129863607Y-95729746D01*
X129824392Y-95746780D01*
X129809807Y-95758645D01*
X129795858Y-95768138D01*
X129779486Y-95777343D01*
X129749260Y-95807569D01*
X129745497Y-95810965D01*
X129712337Y-95837943D01*
X129712330Y-95837951D01*
X129701500Y-95853293D01*
X129690627Y-95866201D01*
X129334771Y-96222058D01*
X129288530Y-96265245D01*
X129266318Y-96301770D01*
X129263466Y-96305960D01*
X129237636Y-96340024D01*
X129237635Y-96340026D01*
X129230741Y-96357506D01*
X129223237Y-96372615D01*
X129213473Y-96388673D01*
X129201939Y-96429835D01*
X129200323Y-96434641D01*
X129184641Y-96474407D01*
X129184640Y-96474413D01*
X129182718Y-96493103D01*
X129179569Y-96509676D01*
X129174500Y-96527771D01*
X129174500Y-96570521D01*
X129174240Y-96575585D01*
X129169869Y-96618110D01*
X129173061Y-96636625D01*
X129174500Y-96653444D01*
X129174500Y-98841322D01*
X129155593Y-98899513D01*
X129145504Y-98911326D01*
X127034771Y-101022058D01*
X126988530Y-101065245D01*
X126966318Y-101101770D01*
X126963466Y-101105960D01*
X126937636Y-101140024D01*
X126937635Y-101140026D01*
X126930741Y-101157506D01*
X126923237Y-101172615D01*
X126913473Y-101188673D01*
X126901939Y-101229835D01*
X126900323Y-101234641D01*
X126884641Y-101274407D01*
X126884640Y-101274413D01*
X126882718Y-101293103D01*
X126879569Y-101309676D01*
X126874500Y-101327771D01*
X126874500Y-101370521D01*
X126874240Y-101375585D01*
X126869869Y-101418110D01*
X120000500Y-101418110D01*
X120000500Y-92840000D01*
X120294700Y-92840000D01*
X120313865Y-93071303D01*
X120327276Y-93124261D01*
X120370843Y-93296300D01*
X120464076Y-93508849D01*
X120591021Y-93703153D01*
X120748216Y-93873913D01*
X120931374Y-94016470D01*
X121122620Y-94119967D01*
X121164797Y-94164290D01*
X121174500Y-94207034D01*
X121174500Y-96291015D01*
X121172340Y-96354244D01*
X121172340Y-96354250D01*
X121182458Y-96395766D01*
X121183405Y-96400749D01*
X121189228Y-96443109D01*
X121196715Y-96460346D01*
X121202094Y-96476341D01*
X121203447Y-96481890D01*
X121206543Y-96494594D01*
X121225197Y-96527771D01*
X121227490Y-96531848D01*
X121229746Y-96536390D01*
X121246781Y-96575610D01*
X121258636Y-96590181D01*
X121268135Y-96604137D01*
X121277341Y-96620511D01*
X121307576Y-96650747D01*
X121310973Y-96654511D01*
X121337948Y-96687667D01*
X121353284Y-96698492D01*
X121366199Y-96709369D01*
X122667041Y-98010210D01*
X122694818Y-98064727D01*
X122695415Y-98091292D01*
X122694435Y-98099995D01*
X122694435Y-98099996D01*
X122694435Y-98100000D01*
X122702775Y-98174022D01*
X122714632Y-98279257D01*
X122714633Y-98279261D01*
X122774211Y-98449522D01*
X122774211Y-98449523D01*
X122870181Y-98602258D01*
X122870184Y-98602262D01*
X122997738Y-98729816D01*
X123150478Y-98825789D01*
X123194869Y-98841322D01*
X123320738Y-98885366D01*
X123320742Y-98885367D01*
X123320745Y-98885368D01*
X123500000Y-98905565D01*
X123679255Y-98885368D01*
X123849522Y-98825789D01*
X124002262Y-98729816D01*
X124129816Y-98602262D01*
X124225789Y-98449522D01*
X124285368Y-98279255D01*
X124305565Y-98100000D01*
X124285368Y-97920745D01*
X124280056Y-97905565D01*
X124251689Y-97824496D01*
X124225789Y-97750478D01*
X124225188Y-97749522D01*
X124129818Y-97597741D01*
X124129817Y-97597740D01*
X124129816Y-97597738D01*
X124002262Y-97470184D01*
X124002259Y-97470182D01*
X124002258Y-97470181D01*
X123849523Y-97374211D01*
X123679261Y-97314633D01*
X123679257Y-97314632D01*
X123619503Y-97307899D01*
X123500000Y-97294435D01*
X123499997Y-97294435D01*
X123499996Y-97294435D01*
X123499995Y-97294435D01*
X123491292Y-97295415D01*
X123431351Y-97283138D01*
X123410210Y-97267041D01*
X122254496Y-96111327D01*
X122226719Y-96056810D01*
X122225500Y-96041323D01*
X122225500Y-94207034D01*
X122244407Y-94148843D01*
X122277378Y-94119968D01*
X122468626Y-94016470D01*
X122651784Y-93873913D01*
X122808979Y-93703153D01*
X122935924Y-93508849D01*
X123029157Y-93296300D01*
X123086134Y-93071305D01*
X123105300Y-92840000D01*
X123092228Y-92682242D01*
X123106266Y-92622690D01*
X123152627Y-92582761D01*
X123213603Y-92577709D01*
X123260894Y-92604064D01*
X126917041Y-96260210D01*
X126944818Y-96314727D01*
X126945415Y-96341292D01*
X126944435Y-96349995D01*
X126944435Y-96349996D01*
X126944435Y-96350000D01*
X126950153Y-96400749D01*
X126964632Y-96529257D01*
X126964633Y-96529261D01*
X127024211Y-96699522D01*
X127024211Y-96699523D01*
X127026636Y-96703382D01*
X127120184Y-96852262D01*
X127247738Y-96979816D01*
X127400478Y-97075789D01*
X127468657Y-97099646D01*
X127570738Y-97135366D01*
X127570742Y-97135367D01*
X127570745Y-97135368D01*
X127750000Y-97155565D01*
X127929255Y-97135368D01*
X128099522Y-97075789D01*
X128252262Y-96979816D01*
X128379816Y-96852262D01*
X128475789Y-96699522D01*
X128535368Y-96529255D01*
X128555565Y-96350000D01*
X128535368Y-96170745D01*
X128475789Y-96000478D01*
X128383306Y-95853293D01*
X128379818Y-95847741D01*
X128379817Y-95847740D01*
X128379816Y-95847738D01*
X128252262Y-95720184D01*
X128252259Y-95720182D01*
X128252258Y-95720181D01*
X128099523Y-95624211D01*
X127929261Y-95564633D01*
X127929257Y-95564632D01*
X127869503Y-95557899D01*
X127750000Y-95544435D01*
X127749997Y-95544435D01*
X127749996Y-95544435D01*
X127749995Y-95544435D01*
X127741292Y-95545415D01*
X127681351Y-95533138D01*
X127660210Y-95517041D01*
X124130870Y-91987701D01*
X127782136Y-91987701D01*
X127802333Y-92166958D01*
X127802334Y-92166962D01*
X127861912Y-92337223D01*
X127861912Y-92337224D01*
X127957882Y-92489959D01*
X127957885Y-92489963D01*
X128085439Y-92617517D01*
X128085441Y-92617518D01*
X128085442Y-92617519D01*
X128188449Y-92682243D01*
X128238179Y-92713490D01*
X128306358Y-92737347D01*
X128408439Y-92773067D01*
X128408443Y-92773068D01*
X128408446Y-92773069D01*
X128587701Y-92793266D01*
X128766956Y-92773069D01*
X128937223Y-92713490D01*
X129089963Y-92617517D01*
X129129771Y-92577709D01*
X129165284Y-92542197D01*
X129219801Y-92514420D01*
X129235287Y-92513201D01*
X129521274Y-92513201D01*
X129579465Y-92532108D01*
X129614718Y-92579503D01*
X129674211Y-92749522D01*
X129674211Y-92749523D01*
X129701697Y-92793266D01*
X129770184Y-92902262D01*
X129897738Y-93029816D01*
X129897740Y-93029817D01*
X129897741Y-93029818D01*
X130050474Y-93125787D01*
X130050478Y-93125789D01*
X130118303Y-93149522D01*
X130220738Y-93185366D01*
X130220742Y-93185367D01*
X130220745Y-93185368D01*
X130400000Y-93205565D01*
X130579255Y-93185368D01*
X130622649Y-93170184D01*
X130749516Y-93125791D01*
X130749515Y-93125791D01*
X130749522Y-93125789D01*
X130764408Y-93116434D01*
X130823738Y-93101483D01*
X130880526Y-93124261D01*
X130887085Y-93130255D01*
X131467041Y-93710210D01*
X131494818Y-93764727D01*
X131495415Y-93791292D01*
X131494435Y-93799995D01*
X131494435Y-93799996D01*
X131494435Y-93800000D01*
X131502763Y-93873913D01*
X131514632Y-93979257D01*
X131514633Y-93979261D01*
X131574211Y-94149522D01*
X131574211Y-94149523D01*
X131605928Y-94200000D01*
X131670184Y-94302262D01*
X131797738Y-94429816D01*
X131950478Y-94525789D01*
X132018303Y-94549522D01*
X132120738Y-94585366D01*
X132120742Y-94585367D01*
X132120745Y-94585368D01*
X132300000Y-94605565D01*
X132479255Y-94585368D01*
X132649522Y-94525789D01*
X132802262Y-94429816D01*
X132929816Y-94302262D01*
X133025789Y-94149522D01*
X133085368Y-93979255D01*
X133105565Y-93800000D01*
X133085368Y-93620745D01*
X133025789Y-93450478D01*
X133003265Y-93414632D01*
X132929818Y-93297741D01*
X132929817Y-93297740D01*
X132929816Y-93297738D01*
X132802262Y-93170184D01*
X132802259Y-93170182D01*
X132802258Y-93170181D01*
X132649523Y-93074211D01*
X132479261Y-93014633D01*
X132479257Y-93014632D01*
X132419503Y-93007899D01*
X132300000Y-92994435D01*
X132299997Y-92994435D01*
X132299996Y-92994435D01*
X132299995Y-92994435D01*
X132291292Y-92995415D01*
X132231351Y-92983138D01*
X132210210Y-92967041D01*
X131643169Y-92400000D01*
X147294435Y-92400000D01*
X147314632Y-92579257D01*
X147314633Y-92579261D01*
X147374211Y-92749522D01*
X147374211Y-92749523D01*
X147401697Y-92793266D01*
X147470184Y-92902262D01*
X147597738Y-93029816D01*
X147597740Y-93029817D01*
X147597741Y-93029818D01*
X147750474Y-93125787D01*
X147750478Y-93125789D01*
X147818303Y-93149522D01*
X147920738Y-93185366D01*
X147920742Y-93185367D01*
X147920745Y-93185368D01*
X148100000Y-93205565D01*
X148108696Y-93204585D01*
X148168639Y-93216856D01*
X148189788Y-93232958D01*
X148977167Y-94020336D01*
X149004944Y-94074853D01*
X149005541Y-94101423D01*
X148994435Y-94199999D01*
X149014632Y-94379257D01*
X149014633Y-94379261D01*
X149074211Y-94549522D01*
X149074211Y-94549523D01*
X149109425Y-94605565D01*
X149170184Y-94702262D01*
X149297738Y-94829816D01*
X149450478Y-94925789D01*
X149518657Y-94949646D01*
X149620738Y-94985366D01*
X149620742Y-94985367D01*
X149620745Y-94985368D01*
X149800000Y-95005565D01*
X149979255Y-94985368D01*
X150149522Y-94925789D01*
X150302262Y-94829816D01*
X150429816Y-94702262D01*
X150525789Y-94549522D01*
X150585368Y-94379255D01*
X150605565Y-94200000D01*
X150585368Y-94020745D01*
X150583872Y-94016470D01*
X150561014Y-93951145D01*
X150525789Y-93850478D01*
X150494068Y-93799995D01*
X150429818Y-93697741D01*
X150429817Y-93697740D01*
X150429816Y-93697738D01*
X150302262Y-93570184D01*
X150302259Y-93570182D01*
X150302258Y-93570181D01*
X150149523Y-93474211D01*
X149979255Y-93414631D01*
X149876802Y-93403087D01*
X149821094Y-93377783D01*
X149817883Y-93374714D01*
X148932958Y-92489789D01*
X148905181Y-92435272D01*
X148904585Y-92408698D01*
X148904744Y-92407285D01*
X148905565Y-92400000D01*
X148885368Y-92220745D01*
X148875178Y-92191625D01*
X148842326Y-92097738D01*
X148825789Y-92050478D01*
X148803265Y-92014632D01*
X148729818Y-91897741D01*
X148729817Y-91897740D01*
X148729816Y-91897738D01*
X148602262Y-91770184D01*
X148602259Y-91770182D01*
X148602258Y-91770181D01*
X148449523Y-91674211D01*
X148279261Y-91614633D01*
X148279257Y-91614632D01*
X148100000Y-91594435D01*
X147920742Y-91614632D01*
X147920738Y-91614633D01*
X147750477Y-91674211D01*
X147750476Y-91674211D01*
X147597741Y-91770181D01*
X147470181Y-91897741D01*
X147374211Y-92050476D01*
X147374211Y-92050477D01*
X147314633Y-92220738D01*
X147314632Y-92220742D01*
X147294435Y-92400000D01*
X131643169Y-92400000D01*
X131277940Y-92034771D01*
X131234757Y-91988532D01*
X131234755Y-91988531D01*
X131215543Y-91976848D01*
X131198229Y-91966319D01*
X131194039Y-91963467D01*
X131159973Y-91937634D01*
X131142492Y-91930740D01*
X131127381Y-91923235D01*
X131111328Y-91913474D01*
X131070165Y-91901940D01*
X131065362Y-91900325D01*
X131057336Y-91897160D01*
X131030082Y-91886412D01*
X130996398Y-91864319D01*
X130902263Y-91770185D01*
X130902258Y-91770181D01*
X130749523Y-91674211D01*
X130579261Y-91614633D01*
X130579257Y-91614632D01*
X130519503Y-91607899D01*
X130400000Y-91594435D01*
X130399998Y-91594435D01*
X130399996Y-91594435D01*
X130392847Y-91595240D01*
X130332906Y-91582963D01*
X130327918Y-91579553D01*
X130285933Y-91554022D01*
X130281740Y-91551168D01*
X130247674Y-91525335D01*
X130230193Y-91518441D01*
X130215082Y-91510936D01*
X130199026Y-91501173D01*
X130157867Y-91489641D01*
X130153061Y-91488025D01*
X130113290Y-91472342D01*
X130113293Y-91472342D01*
X130101329Y-91471112D01*
X130094593Y-91470419D01*
X130078015Y-91467268D01*
X130059929Y-91462201D01*
X130017179Y-91462201D01*
X130012115Y-91461941D01*
X129977762Y-91458410D01*
X129969591Y-91457570D01*
X129969590Y-91457570D01*
X129951076Y-91460762D01*
X129934257Y-91462201D01*
X129235287Y-91462201D01*
X129177096Y-91443294D01*
X129165284Y-91433205D01*
X129089964Y-91357886D01*
X129089959Y-91357882D01*
X128937224Y-91261912D01*
X128766962Y-91202334D01*
X128766958Y-91202333D01*
X128587701Y-91182136D01*
X128408443Y-91202333D01*
X128408439Y-91202334D01*
X128238178Y-91261912D01*
X128238177Y-91261912D01*
X128085442Y-91357882D01*
X127957882Y-91485442D01*
X127861912Y-91638177D01*
X127861912Y-91638178D01*
X127802334Y-91808439D01*
X127802333Y-91808443D01*
X127782136Y-91987701D01*
X124130870Y-91987701D01*
X124006049Y-91862880D01*
X123978272Y-91808363D01*
X123987843Y-91747931D01*
X124031108Y-91704666D01*
X124091540Y-91695095D01*
X124092236Y-91695207D01*
X124123951Y-91700500D01*
X124123952Y-91700500D01*
X124356049Y-91700500D01*
X124584981Y-91662298D01*
X124804503Y-91586936D01*
X125008626Y-91476470D01*
X125191784Y-91333913D01*
X125348979Y-91163153D01*
X125475924Y-90968849D01*
X125569157Y-90756300D01*
X125626134Y-90531305D01*
X125645300Y-90300000D01*
X125626134Y-90068695D01*
X125569157Y-89843700D01*
X125475924Y-89631151D01*
X125348979Y-89436847D01*
X125191784Y-89266087D01*
X125080521Y-89179488D01*
X125008629Y-89123532D01*
X125008626Y-89123530D01*
X124804506Y-89013065D01*
X124766449Y-89000000D01*
X124584981Y-88937702D01*
X124584978Y-88937701D01*
X124584977Y-88937701D01*
X124356049Y-88899500D01*
X124123951Y-88899500D01*
X123895022Y-88937701D01*
X123675493Y-89013065D01*
X123471373Y-89123530D01*
X123471370Y-89123532D01*
X123288219Y-89266084D01*
X123288216Y-89266086D01*
X123288216Y-89266087D01*
X123227647Y-89331883D01*
X123131017Y-89436851D01*
X123052879Y-89556451D01*
X123005223Y-89594825D01*
X122944113Y-89597859D01*
X122892891Y-89564393D01*
X122887121Y-89556451D01*
X122808982Y-89436851D01*
X122808980Y-89436849D01*
X122808979Y-89436847D01*
X122651784Y-89266087D01*
X122540521Y-89179488D01*
X122468629Y-89123532D01*
X122468626Y-89123530D01*
X122456684Y-89117067D01*
X122414507Y-89072746D01*
X122406436Y-89012095D01*
X122435555Y-88958283D01*
X122456685Y-88942932D01*
X122468626Y-88936470D01*
X122651784Y-88793913D01*
X122808979Y-88623153D01*
X122935924Y-88428849D01*
X123029157Y-88216300D01*
X123086134Y-87991305D01*
X123105300Y-87760000D01*
X123086134Y-87528695D01*
X123029157Y-87303700D01*
X122935924Y-87091151D01*
X122808979Y-86896847D01*
X122651784Y-86726087D01*
X122468626Y-86583530D01*
X122264506Y-86473065D01*
X122198706Y-86450476D01*
X122044981Y-86397702D01*
X122044978Y-86397701D01*
X122044977Y-86397701D01*
X121816049Y-86359500D01*
X121583951Y-86359500D01*
X121355022Y-86397701D01*
X121135493Y-86473065D01*
X120931373Y-86583530D01*
X120931370Y-86583532D01*
X120748219Y-86726084D01*
X120748216Y-86726086D01*
X120748216Y-86726087D01*
X120591021Y-86896847D01*
X120464076Y-87091151D01*
X120373459Y-87297738D01*
X120370843Y-87303701D01*
X120313865Y-87528696D01*
X120294700Y-87760000D01*
X120313865Y-87991303D01*
X120341985Y-88102344D01*
X120370843Y-88216300D01*
X120464076Y-88428849D01*
X120591021Y-88623153D01*
X120748216Y-88793913D01*
X120931374Y-88936470D01*
X120933649Y-88937701D01*
X120943315Y-88942932D01*
X120985493Y-88987257D01*
X120993563Y-89047908D01*
X120964442Y-89101718D01*
X120943315Y-89117068D01*
X120931373Y-89123530D01*
X120931370Y-89123532D01*
X120748219Y-89266084D01*
X120748216Y-89266086D01*
X120748216Y-89266087D01*
X120687647Y-89331883D01*
X120591020Y-89436848D01*
X120585201Y-89445755D01*
X120464949Y-89629816D01*
X120464075Y-89631153D01*
X120370843Y-89843701D01*
X120313865Y-90068696D01*
X120294700Y-90300000D01*
X120313865Y-90531303D01*
X120326009Y-90579257D01*
X120370843Y-90756300D01*
X120464076Y-90968849D01*
X120591021Y-91163153D01*
X120748216Y-91333913D01*
X120931374Y-91476470D01*
X120943315Y-91482932D01*
X120985493Y-91527257D01*
X120993563Y-91587908D01*
X120964442Y-91641718D01*
X120943315Y-91657068D01*
X120931373Y-91663530D01*
X120931370Y-91663532D01*
X120748219Y-91806084D01*
X120748216Y-91806086D01*
X120748216Y-91806087D01*
X120656641Y-91905564D01*
X120591020Y-91976848D01*
X120527410Y-92074211D01*
X120464076Y-92171151D01*
X120370843Y-92383700D01*
X120364513Y-92408698D01*
X120313865Y-92608696D01*
X120294700Y-92840000D01*
X120000500Y-92840000D01*
X120000500Y-83712500D01*
X126706935Y-83712500D01*
X126727132Y-83891757D01*
X126727133Y-83891761D01*
X126786711Y-84062022D01*
X126786711Y-84062023D01*
X126882681Y-84214758D01*
X126882684Y-84214762D01*
X127010238Y-84342316D01*
X127010240Y-84342317D01*
X127010241Y-84342318D01*
X127073534Y-84382088D01*
X127162978Y-84438289D01*
X127231157Y-84462146D01*
X127333238Y-84497866D01*
X127333242Y-84497867D01*
X127333245Y-84497868D01*
X127512500Y-84518065D01*
X127691755Y-84497868D01*
X127862022Y-84438289D01*
X128014762Y-84342316D01*
X128142316Y-84214762D01*
X128159242Y-84187824D01*
X129459999Y-84187824D01*
X129466401Y-84247370D01*
X129466403Y-84247381D01*
X129516646Y-84382088D01*
X129516647Y-84382090D01*
X129602807Y-84497184D01*
X129602815Y-84497192D01*
X129717909Y-84583352D01*
X129717911Y-84583353D01*
X129852618Y-84633596D01*
X129852629Y-84633598D01*
X129912176Y-84640000D01*
X130649999Y-84640000D01*
X130650000Y-84639999D01*
X130950000Y-84639999D01*
X130950001Y-84640000D01*
X131687824Y-84640000D01*
X131747370Y-84633598D01*
X131747381Y-84633596D01*
X131882088Y-84583353D01*
X131882090Y-84583352D01*
X131997184Y-84497192D01*
X131997192Y-84497184D01*
X132083352Y-84382090D01*
X132083353Y-84382088D01*
X132133596Y-84247381D01*
X132133598Y-84247370D01*
X132140000Y-84187824D01*
X132140000Y-83450001D01*
X132139999Y-83450000D01*
X130950001Y-83450000D01*
X130950000Y-83450001D01*
X130950000Y-84639999D01*
X130650000Y-84639999D01*
X130650000Y-83450001D01*
X130649999Y-83450000D01*
X129460001Y-83450000D01*
X129460000Y-83450001D01*
X129460000Y-84187824D01*
X129459999Y-84187824D01*
X128159242Y-84187824D01*
X128238289Y-84062022D01*
X128297868Y-83891755D01*
X128318065Y-83712500D01*
X128297868Y-83533245D01*
X128238289Y-83362978D01*
X128229834Y-83349522D01*
X128227400Y-83345649D01*
X130600000Y-83345649D01*
X130639613Y-83427905D01*
X130710992Y-83484827D01*
X130777468Y-83500000D01*
X130822532Y-83500000D01*
X130889008Y-83484827D01*
X130960387Y-83427905D01*
X131000000Y-83345649D01*
X131000000Y-83254351D01*
X130960387Y-83172095D01*
X130932679Y-83149999D01*
X130950000Y-83149999D01*
X130950001Y-83150000D01*
X132139999Y-83150000D01*
X132140000Y-83149999D01*
X132140000Y-83000000D01*
X156894435Y-83000000D01*
X156914632Y-83179257D01*
X156914633Y-83179261D01*
X156974211Y-83349522D01*
X156974211Y-83349523D01*
X157070181Y-83502258D01*
X157070184Y-83502262D01*
X157145505Y-83577583D01*
X157173281Y-83632098D01*
X157174500Y-83647585D01*
X157174500Y-90091015D01*
X157172340Y-90154244D01*
X157172340Y-90154250D01*
X157182458Y-90195766D01*
X157183405Y-90200749D01*
X157189228Y-90243109D01*
X157196715Y-90260346D01*
X157202094Y-90276341D01*
X157203751Y-90283138D01*
X157206543Y-90294594D01*
X157217810Y-90314633D01*
X157227490Y-90331848D01*
X157229746Y-90336390D01*
X157246781Y-90375610D01*
X157258636Y-90390181D01*
X157268135Y-90404137D01*
X157277341Y-90420511D01*
X157307576Y-90450747D01*
X157310973Y-90454511D01*
X157337948Y-90487667D01*
X157353284Y-90498492D01*
X157366199Y-90509369D01*
X157867041Y-91010211D01*
X157894818Y-91064728D01*
X157895415Y-91091293D01*
X157894435Y-91099995D01*
X157894435Y-91099996D01*
X157894435Y-91100000D01*
X157904054Y-91185368D01*
X157914632Y-91279257D01*
X157914633Y-91279261D01*
X157974211Y-91449522D01*
X157974211Y-91449523D01*
X158069144Y-91600607D01*
X158070184Y-91602262D01*
X158197738Y-91729816D01*
X158197740Y-91729817D01*
X158197741Y-91729818D01*
X158332721Y-91814632D01*
X158350478Y-91825789D01*
X158418657Y-91849646D01*
X158520738Y-91885366D01*
X158520742Y-91885367D01*
X158520745Y-91885368D01*
X158700000Y-91905565D01*
X158879255Y-91885368D01*
X159049522Y-91825789D01*
X159202262Y-91729816D01*
X159329816Y-91602262D01*
X159425789Y-91449522D01*
X159485368Y-91279255D01*
X159505565Y-91100000D01*
X159485368Y-90920745D01*
X159425789Y-90750478D01*
X159425188Y-90749522D01*
X159329818Y-90597741D01*
X159329817Y-90597740D01*
X159329816Y-90597738D01*
X159202262Y-90470184D01*
X159202259Y-90470182D01*
X159202258Y-90470181D01*
X159049523Y-90374211D01*
X158879261Y-90314633D01*
X158879257Y-90314632D01*
X158819503Y-90307899D01*
X158700000Y-90294435D01*
X158699997Y-90294435D01*
X158699996Y-90294435D01*
X158699995Y-90294435D01*
X158691292Y-90295415D01*
X158631351Y-90283138D01*
X158610210Y-90267041D01*
X158254496Y-89911327D01*
X158226719Y-89856810D01*
X158225500Y-89841323D01*
X158225500Y-83647585D01*
X158244407Y-83589394D01*
X158254490Y-83577587D01*
X158329816Y-83502262D01*
X158425789Y-83349522D01*
X158485368Y-83179255D01*
X158505565Y-83000000D01*
X158485368Y-82820745D01*
X158485029Y-82819777D01*
X158452749Y-82727525D01*
X158425789Y-82650478D01*
X158329816Y-82497738D01*
X158202262Y-82370184D01*
X158202259Y-82370182D01*
X158202258Y-82370181D01*
X158049523Y-82274211D01*
X157879261Y-82214633D01*
X157879257Y-82214632D01*
X157700000Y-82194435D01*
X157520742Y-82214632D01*
X157520738Y-82214633D01*
X157350477Y-82274211D01*
X157350476Y-82274211D01*
X157197741Y-82370181D01*
X157070181Y-82497741D01*
X156974211Y-82650476D01*
X156974211Y-82650477D01*
X156914633Y-82820738D01*
X156914632Y-82820742D01*
X156894435Y-83000000D01*
X132140000Y-83000000D01*
X132140000Y-82412175D01*
X132133598Y-82352629D01*
X132133596Y-82352618D01*
X132083353Y-82217911D01*
X132083352Y-82217909D01*
X131997192Y-82102815D01*
X131997184Y-82102807D01*
X131882090Y-82016647D01*
X131882088Y-82016646D01*
X131747381Y-81966403D01*
X131747370Y-81966401D01*
X131687824Y-81960000D01*
X130950001Y-81960000D01*
X130950000Y-81960001D01*
X130950000Y-83149999D01*
X130932679Y-83149999D01*
X130889008Y-83115173D01*
X130822532Y-83100000D01*
X130777468Y-83100000D01*
X130710992Y-83115173D01*
X130639613Y-83172095D01*
X130600000Y-83254351D01*
X130600000Y-83345649D01*
X128227400Y-83345649D01*
X128142111Y-83209911D01*
X128127161Y-83150580D01*
X128127394Y-83149999D01*
X129460000Y-83149999D01*
X129460001Y-83150000D01*
X130649999Y-83150000D01*
X130650000Y-83149999D01*
X130650000Y-81960001D01*
X130649999Y-81960000D01*
X129912176Y-81960000D01*
X129852629Y-81966401D01*
X129852618Y-81966403D01*
X129717911Y-82016646D01*
X129717909Y-82016647D01*
X129602815Y-82102807D01*
X129602807Y-82102815D01*
X129516647Y-82217909D01*
X129516646Y-82217911D01*
X129466403Y-82352618D01*
X129466401Y-82352629D01*
X129460000Y-82412175D01*
X129460000Y-83149999D01*
X128127394Y-83149999D01*
X128149940Y-83093793D01*
X128155922Y-83087247D01*
X129764174Y-81478996D01*
X129818691Y-81451219D01*
X129834178Y-81450000D01*
X131552414Y-81450000D01*
X131610605Y-81468907D01*
X131622417Y-81478996D01*
X131697736Y-81554314D01*
X131697738Y-81554316D01*
X131850478Y-81650289D01*
X131918657Y-81674146D01*
X132020738Y-81709866D01*
X132020742Y-81709867D01*
X132020745Y-81709868D01*
X132200000Y-81730065D01*
X132379255Y-81709868D01*
X132549522Y-81650289D01*
X132702262Y-81554316D01*
X132829816Y-81426762D01*
X132925789Y-81274022D01*
X132985368Y-81103755D01*
X133005565Y-80924500D01*
X132985368Y-80745245D01*
X132925789Y-80574978D01*
X132900961Y-80535465D01*
X132829818Y-80422241D01*
X132829817Y-80422240D01*
X132829816Y-80422238D01*
X132702262Y-80294684D01*
X132702259Y-80294682D01*
X132702258Y-80294681D01*
X132549523Y-80198711D01*
X132379261Y-80139133D01*
X132379257Y-80139132D01*
X132200000Y-80118935D01*
X132020742Y-80139132D01*
X132020738Y-80139133D01*
X131850477Y-80198711D01*
X131850476Y-80198711D01*
X131697741Y-80294681D01*
X131697736Y-80294685D01*
X131622417Y-80370004D01*
X131567900Y-80397781D01*
X131552414Y-80399000D01*
X129584485Y-80399000D01*
X129521255Y-80396840D01*
X129521248Y-80396840D01*
X129483112Y-80406134D01*
X129479724Y-80406960D01*
X129474745Y-80407906D01*
X129432393Y-80413728D01*
X129432385Y-80413730D01*
X129415153Y-80421214D01*
X129399166Y-80426590D01*
X129380914Y-80431039D01*
X129380903Y-80431043D01*
X129343640Y-80451994D01*
X129339100Y-80454249D01*
X129299888Y-80471281D01*
X129299887Y-80471282D01*
X129285313Y-80483139D01*
X129271362Y-80492635D01*
X129254988Y-80501841D01*
X129224760Y-80532069D01*
X129220997Y-80535465D01*
X129187837Y-80562443D01*
X129187830Y-80562451D01*
X129177000Y-80577793D01*
X129166127Y-80590702D01*
X127147271Y-82609558D01*
X127101030Y-82652745D01*
X127078818Y-82689270D01*
X127075966Y-82693460D01*
X127050136Y-82727524D01*
X127050135Y-82727526D01*
X127043241Y-82745006D01*
X127035737Y-82760115D01*
X127025973Y-82776173D01*
X127014439Y-82817335D01*
X127012823Y-82822141D01*
X126997141Y-82861907D01*
X126997140Y-82861913D01*
X126995218Y-82880603D01*
X126992069Y-82897176D01*
X126987000Y-82915271D01*
X126987000Y-82958021D01*
X126986740Y-82963085D01*
X126982369Y-83005610D01*
X126985561Y-83024125D01*
X126987000Y-83040944D01*
X126987000Y-83064914D01*
X126968093Y-83123105D01*
X126958004Y-83134917D01*
X126882685Y-83210236D01*
X126882681Y-83210241D01*
X126786711Y-83362976D01*
X126786711Y-83362977D01*
X126727133Y-83533238D01*
X126727132Y-83533242D01*
X126706935Y-83712500D01*
X120000500Y-83712500D01*
X120000500Y-75099500D01*
X120019407Y-75041309D01*
X120068907Y-75005345D01*
X120099500Y-75000500D01*
X175065698Y-75000500D01*
X175123889Y-75019407D01*
G37*
%TD.AperFunction*%
%TD*%
M02*
