M48
; DRILL file {KiCad 7.0.7} date Sat Apr 20 23:27:08 2024
; FORMAT={-:-/ absolute / inch / decimal}
; #@! TF.CreationDate,2024-04-20T23:27:08+02:00
; #@! TF.GenerationSoftware,Kicad,Pcbnew,7.0.7
; #@! TF.FileFunction,Plated,1,2,PTH
FMAT,2
INCH
; #@! TA.AperFunction,Plated,PTH,ViaDrill
T1C0.0118
; #@! TA.AperFunction,Plated,PTH,ViaDrill
T2C0.0157
; #@! TA.AperFunction,Plated,PTH,ComponentDrill
T3C0.0236
; #@! TA.AperFunction,Plated,PTH,ComponentDrill
T4C0.0591
%
G90
G05
T1
X5.0354Y-3.7283
X5.0489Y-3.7661
X5.0512Y-3.8937
X5.0807Y-3.6436
X5.0815Y-4.0362
X5.0965Y-4.126
X5.097Y-4.3091
X5.1067Y-3.5992
X5.1339Y-4.4193
X5.1409Y-3.8307
X5.1541Y-3.7854
X5.1939Y-4.1644
X5.2106Y-3.8933
X5.2165Y-4.378
X5.2353Y-3.8148
X5.2362Y-3.5453
X5.2698Y-3.905
X5.2717Y-3.6043
X5.2756Y-3.752
X5.2803Y-4.2063
X5.2874Y-3.6535
X5.302Y-3.902
X5.3159Y-3.7668
X5.3189Y-4.3386
X5.3268Y-3.7106
X5.361Y-3.6911
X5.3819Y-4.2717
X5.3898Y-3.5925
X5.4016Y-4.2008
X5.4035Y-4.3311
X5.406Y-4.2417
X5.4169Y-3.724
X5.4394Y-3.7945
X5.4492Y-3.724
X5.4567Y-3.6772
X5.4589Y-4.1418
X5.4824Y-3.7033
X5.4977Y-4.0494
X5.503Y-4.1747
X5.5138Y-3.5114
X5.5157Y-4.2933
X5.5236Y-4.2264
X5.5276Y-3.8336
X5.5567Y-3.5546
X5.5591Y-3.5817
X5.5616Y-4.2298
X5.5925Y-3.5945
X5.5939Y-4.1957
X5.626Y-3.7323
X5.6673Y-3.5827
X5.6693Y-4.1957
X5.6732Y-3.7323
X5.7055Y-4.3091
X5.7059Y-4.4165
X5.7134Y-4.0436
X5.7193Y-3.7378
X5.7439Y-3.6569
X5.7484Y-4.2102
X5.7663Y-4.0591
X5.771Y-3.655
X5.781Y-3.966
X5.7823Y-3.7366
X5.7939Y-3.8579
X5.7949Y-3.9139
X5.7974Y-4.0951
X5.827Y-4.2183
X5.8277Y-3.9723
X5.8291Y-3.5059
X5.8453Y-3.7533
X5.8736Y-4.302
X5.8764Y-3.7553
X5.8766Y-3.9647
X5.8837Y-4.0241
X5.8968Y-3.547
X5.9075Y-3.5217
X5.9115Y-3.7086
X5.9278Y-3.5745
X5.9665Y-3.7984
X5.9785Y-4.1622
X5.9889Y-4.207
X5.9921Y-3.5799
X6.0084Y-3.777
X6.0433Y-4.1457
X6.0568Y-3.9924
X6.063Y-4.3976
X6.0669Y-3.9108
X6.0809Y-4.2971
X6.088Y-3.7605
X6.0888Y-3.5612
X6.0976Y-3.732
X6.0977Y-4.182
X6.1126Y-3.6884
X6.1181Y-4.2657
X6.1317Y-3.5097
X6.1417Y-4.1417
X6.1496Y-3.7323
X6.1658Y-3.6236
X6.1712Y-4.1324
X6.1783Y-3.8213
X6.182Y-3.5344
X6.1821Y-3.7289
X6.1872Y-3.6045
X6.1934Y-4.1697
X6.2161Y-4.1333
X6.2174Y-3.675
X6.2185Y-4.3102
X6.2209Y-4.2797
X6.2236Y-4.2387
X6.2421Y-3.9252
X6.2445Y-3.6776
X6.2514Y-4.0231
X6.2787Y-3.6657
X6.2825Y-4.1442
X6.2837Y-3.6391
X6.2874Y-4.252
X6.2926Y-4.0342
X6.2992Y-4.1658
X6.3177Y-3.537
X6.3524Y-4.2874
X6.4016Y-4.3661
X6.4488Y-3.8779
X6.5138Y-3.9094
X6.524Y-4.0365
X6.5295Y-4.2106
X6.5425Y-3.7764
X6.5547Y-4.2398
X6.5567Y-4.1803
X6.5709Y-3.6713
X6.5758Y-3.738
X6.5758Y-3.7795
X6.5831Y-4.348
X6.6122Y-4.1752
X6.615Y-3.7618
X6.6319Y-4.2722
T2
X5.348Y-4.2349
X5.498Y-3.5709
X5.5787Y-4.3246
X5.7461Y-3.5281
T3
X5.0394Y-3.6683
X5.0394Y-3.812
X5.0394Y-4.1407
X5.0394Y-4.2844
T4
X5.1969Y-3.6614
X5.1969Y-4.2913
X6.4567Y-3.6614
X6.4567Y-4.2913
T0
M30
