%TF.GenerationSoftware,KiCad,Pcbnew,7.0.7*%
%TF.CreationDate,2024-04-07T18:23:59+02:00*%
%TF.ProjectId,Heptachron,48657074-6163-4687-926f-6e2e6b696361,rev?*%
%TF.SameCoordinates,Original*%
%TF.FileFunction,Paste,Bot*%
%TF.FilePolarity,Positive*%
%FSLAX46Y46*%
G04 Gerber Fmt 4.6, Leading zero omitted, Abs format (unit mm)*
G04 Created by KiCad (PCBNEW 7.0.7) date 2024-04-07 18:23:59*
%MOMM*%
%LPD*%
G01*
G04 APERTURE LIST*
G04 Aperture macros list*
%AMRoundRect*
0 Rectangle with rounded corners*
0 $1 Rounding radius*
0 $2 $3 $4 $5 $6 $7 $8 $9 X,Y pos of 4 corners*
0 Add a 4 corners polygon primitive as box body*
4,1,4,$2,$3,$4,$5,$6,$7,$8,$9,$2,$3,0*
0 Add four circle primitives for the rounded corners*
1,1,$1+$1,$2,$3*
1,1,$1+$1,$4,$5*
1,1,$1+$1,$6,$7*
1,1,$1+$1,$8,$9*
0 Add four rect primitives between the rounded corners*
20,1,$1+$1,$2,$3,$4,$5,0*
20,1,$1+$1,$4,$5,$6,$7,0*
20,1,$1+$1,$6,$7,$8,$9,0*
20,1,$1+$1,$8,$9,$2,$3,0*%
G04 Aperture macros list end*
%ADD10RoundRect,0.200000X0.200000X0.275000X-0.200000X0.275000X-0.200000X-0.275000X0.200000X-0.275000X0*%
%ADD11RoundRect,0.150000X0.825000X0.150000X-0.825000X0.150000X-0.825000X-0.150000X0.825000X-0.150000X0*%
%ADD12RoundRect,0.225000X0.250000X-0.225000X0.250000X0.225000X-0.250000X0.225000X-0.250000X-0.225000X0*%
%ADD13R,1.600000X0.550000*%
%ADD14R,0.550000X1.600000*%
%ADD15R,1.050000X0.500000*%
G04 APERTURE END LIST*
D10*
%TO.C,R1*%
X137050000Y-104150000D03*
X135400000Y-104150000D03*
%TD*%
D11*
%TO.C,U8*%
X167500000Y-97190000D03*
X167500000Y-98460000D03*
X167500000Y-99730000D03*
X167500000Y-101000000D03*
X167500000Y-102270000D03*
X167500000Y-103540000D03*
X167500000Y-104810000D03*
X162550000Y-104810000D03*
X162550000Y-103540000D03*
X162550000Y-102270000D03*
X162550000Y-101000000D03*
X162550000Y-99730000D03*
X162550000Y-98460000D03*
X162550000Y-97190000D03*
%TD*%
D10*
%TO.C,R2*%
X137050000Y-97950000D03*
X135400000Y-97950000D03*
%TD*%
D12*
%TO.C,C1*%
X133400000Y-101825000D03*
X133400000Y-100275000D03*
%TD*%
D13*
%TO.C,U7*%
X143750000Y-103800000D03*
X143750000Y-103000000D03*
X143750000Y-102200000D03*
X143750000Y-101400000D03*
X143750000Y-100600000D03*
X143750000Y-99800000D03*
X143750000Y-99000000D03*
X143750000Y-98200000D03*
D14*
X145200000Y-96750000D03*
X146000000Y-96750000D03*
X146800000Y-96750000D03*
X147600000Y-96750000D03*
X148400000Y-96750000D03*
X149200000Y-96750000D03*
X150000000Y-96750000D03*
X150800000Y-96750000D03*
D13*
X152250000Y-98200000D03*
X152250000Y-99000000D03*
X152250000Y-99800000D03*
X152250000Y-100600000D03*
X152250000Y-101400000D03*
X152250000Y-102200000D03*
X152250000Y-103000000D03*
X152250000Y-103800000D03*
D14*
X150800000Y-105250000D03*
X150000000Y-105250000D03*
X149200000Y-105250000D03*
X148400000Y-105250000D03*
X147600000Y-105250000D03*
X146800000Y-105250000D03*
X146000000Y-105250000D03*
X145200000Y-105250000D03*
%TD*%
D15*
%TO.C,X1*%
X136950000Y-99700000D03*
X136950000Y-100600000D03*
X136950000Y-101500000D03*
X136950000Y-102400000D03*
X135500000Y-102400000D03*
X135500000Y-101500000D03*
X135500000Y-100600000D03*
X135500000Y-99700000D03*
%TD*%
M02*
