%TF.GenerationSoftware,KiCad,Pcbnew,7.0.7*%
%TF.CreationDate,2024-03-10T18:15:54+01:00*%
%TF.ProjectId,Heptachron,48657074-6163-4687-926f-6e2e6b696361,rev?*%
%TF.SameCoordinates,Original*%
%TF.FileFunction,Copper,L1,Top*%
%TF.FilePolarity,Positive*%
%FSLAX46Y46*%
G04 Gerber Fmt 4.6, Leading zero omitted, Abs format (unit mm)*
G04 Created by KiCad (PCBNEW 7.0.7) date 2024-03-10 18:15:54*
%MOMM*%
%LPD*%
G01*
G04 APERTURE LIST*
G04 Aperture macros list*
%AMRoundRect*
0 Rectangle with rounded corners*
0 $1 Rounding radius*
0 $2 $3 $4 $5 $6 $7 $8 $9 X,Y pos of 4 corners*
0 Add a 4 corners polygon primitive as box body*
4,1,4,$2,$3,$4,$5,$6,$7,$8,$9,$2,$3,0*
0 Add four circle primitives for the rounded corners*
1,1,$1+$1,$2,$3*
1,1,$1+$1,$4,$5*
1,1,$1+$1,$6,$7*
1,1,$1+$1,$8,$9*
0 Add four rect primitives between the rounded corners*
20,1,$1+$1,$2,$3,$4,$5,0*
20,1,$1+$1,$4,$5,$6,$7,0*
20,1,$1+$1,$6,$7,$8,$9,0*
20,1,$1+$1,$8,$9,$2,$3,0*%
G04 Aperture macros list end*
%TA.AperFunction,SMDPad,CuDef*%
%ADD10RoundRect,0.275000X0.133151X-1.028541X0.411497X0.951995X-0.133151X1.028541X-0.411497X-0.951995X0*%
%TD*%
%TA.AperFunction,SMDPad,CuDef*%
%ADD11RoundRect,0.275000X1.037062X-0.011290X-0.885461X0.539984X-1.037062X0.011290X0.885461X-0.539984X0*%
%TD*%
%TA.AperFunction,SMDPad,CuDef*%
%ADD12RoundRect,0.275000X-1.037062X0.011290X0.885461X-0.539984X1.037062X-0.011290X-0.885461X0.539984X0*%
%TD*%
%TA.AperFunction,ComponentPad*%
%ADD13RoundRect,0.250000X-0.550000X-0.550000X0.550000X-0.550000X0.550000X0.550000X-0.550000X0.550000X0*%
%TD*%
%TA.AperFunction,ComponentPad*%
%ADD14C,1.600000*%
%TD*%
%TA.AperFunction,SMDPad,CuDef*%
%ADD15RoundRect,0.218750X0.256250X-0.218750X0.256250X0.218750X-0.256250X0.218750X-0.256250X-0.218750X0*%
%TD*%
%TA.AperFunction,SMDPad,CuDef*%
%ADD16RoundRect,0.218750X-0.256250X0.218750X-0.256250X-0.218750X0.256250X-0.218750X0.256250X0.218750X0*%
%TD*%
%TA.AperFunction,ViaPad*%
%ADD17C,0.500000*%
%TD*%
%TA.AperFunction,Conductor*%
%ADD18C,0.150000*%
%TD*%
G04 APERTURE END LIST*
D10*
%TO.P,U1,14,K_G*%
%TO.N,/CS1*%
X133480431Y-100435254D03*
D11*
%TO.P,U1,13,K_F*%
X129539672Y-98188407D03*
%TO.P,U1,12,K_E*%
X129073672Y-101506407D03*
D10*
%TO.P,U1,11,K_D*%
X133014431Y-103752254D03*
D12*
%TO.P,U1,10,K_C*%
X135321190Y-103732101D03*
%TO.P,U1,9,K_B*%
X135787190Y-100414101D03*
D10*
%TO.P,U1,8,K_A*%
X133946431Y-97118254D03*
%TO.P,U1,7,A_G*%
%TO.N,/SW7*%
X131480431Y-100435254D03*
D11*
%TO.P,U1,6,A_F*%
%TO.N,/SW6*%
X129261326Y-100168943D03*
%TO.P,U1,5,A_E*%
%TO.N,/SW5*%
X128795326Y-103486943D03*
D10*
%TO.P,U1,4,A_D*%
%TO.N,/SW4*%
X131014431Y-103752254D03*
D12*
%TO.P,U1,3,A_C*%
%TO.N,/SW3*%
X135599536Y-101751565D03*
%TO.P,U1,2,A_B*%
%TO.N,/SW2*%
X136065536Y-98433565D03*
D10*
%TO.P,U1,1,A_A*%
%TO.N,/SW1*%
X131946431Y-97118254D03*
%TD*%
%TO.P,U3,14,K_G*%
%TO.N,/CS3*%
X154980431Y-100435254D03*
D11*
%TO.P,U3,13,K_F*%
X151039672Y-98188407D03*
%TO.P,U3,12,K_E*%
X150573672Y-101506407D03*
D10*
%TO.P,U3,11,K_D*%
X154514431Y-103752254D03*
D12*
%TO.P,U3,10,K_C*%
X156821190Y-103732101D03*
%TO.P,U3,9,K_B*%
X157287190Y-100414101D03*
D10*
%TO.P,U3,8,K_A*%
X155446431Y-97118254D03*
%TO.P,U3,7,A_G*%
%TO.N,/SW7*%
X152980431Y-100435254D03*
D11*
%TO.P,U3,6,A_F*%
%TO.N,/SW6*%
X150761326Y-100168943D03*
%TO.P,U3,5,A_E*%
%TO.N,/SW5*%
X150295326Y-103486943D03*
D10*
%TO.P,U3,4,A_D*%
%TO.N,/SW4*%
X152514431Y-103752254D03*
D12*
%TO.P,U3,3,A_C*%
%TO.N,/SW3*%
X157099536Y-101751565D03*
%TO.P,U3,2,A_B*%
%TO.N,/SW2*%
X157565536Y-98433565D03*
D10*
%TO.P,U3,1,A_A*%
%TO.N,/SW1*%
X153446431Y-97118254D03*
%TD*%
%TO.P,U2,1,A_A*%
%TO.N,/SW1*%
X141446431Y-97118254D03*
D12*
%TO.P,U2,2,A_B*%
%TO.N,/SW2*%
X145565536Y-98433565D03*
%TO.P,U2,3,A_C*%
%TO.N,/SW3*%
X145099536Y-101751565D03*
D10*
%TO.P,U2,4,A_D*%
%TO.N,/SW4*%
X140514431Y-103752254D03*
D11*
%TO.P,U2,5,A_E*%
%TO.N,/SW5*%
X138295326Y-103486943D03*
%TO.P,U2,6,A_F*%
%TO.N,/SW6*%
X138761326Y-100168943D03*
D10*
%TO.P,U2,7,A_G*%
%TO.N,/SW7*%
X140980431Y-100435254D03*
%TO.P,U2,8,K_A*%
%TO.N,/CS2*%
X143446431Y-97118254D03*
D12*
%TO.P,U2,9,K_B*%
X145287190Y-100414101D03*
%TO.P,U2,10,K_C*%
X144821190Y-103732101D03*
D10*
%TO.P,U2,11,K_D*%
X142514431Y-103752254D03*
D11*
%TO.P,U2,12,K_E*%
X138573672Y-101506407D03*
%TO.P,U2,13,K_F*%
X139039672Y-98188407D03*
D10*
%TO.P,U2,14,K_G*%
X142980431Y-100435254D03*
%TD*%
%TO.P,U4,14,K_G*%
%TO.N,/CS4*%
X164480431Y-100435254D03*
D11*
%TO.P,U4,13,K_F*%
X160539672Y-98188407D03*
%TO.P,U4,12,K_E*%
X160073672Y-101506407D03*
D10*
%TO.P,U4,11,K_D*%
X164014431Y-103752254D03*
D12*
%TO.P,U4,10,K_C*%
X166321190Y-103732101D03*
%TO.P,U4,9,K_B*%
X166787190Y-100414101D03*
D10*
%TO.P,U4,8,K_A*%
X164946431Y-97118254D03*
%TO.P,U4,7,A_G*%
%TO.N,/SW7*%
X162480431Y-100435254D03*
D11*
%TO.P,U4,6,A_F*%
%TO.N,/SW6*%
X160261326Y-100168943D03*
%TO.P,U4,5,A_E*%
%TO.N,/SW5*%
X159795326Y-103486943D03*
D10*
%TO.P,U4,4,A_D*%
%TO.N,/SW4*%
X162014431Y-103752254D03*
D12*
%TO.P,U4,3,A_C*%
%TO.N,/SW3*%
X166599536Y-101751565D03*
%TO.P,U4,2,A_B*%
%TO.N,/SW2*%
X167065536Y-98433565D03*
D10*
%TO.P,U4,1,A_A*%
%TO.N,/SW1*%
X162946431Y-97118254D03*
%TD*%
D13*
%TO.P,J2,1,Pin_1*%
%TO.N,/SW7*%
X151000000Y-115000000D03*
D14*
%TO.P,J2,2,Pin_2*%
%TO.N,/CS1*%
X154600000Y-115000000D03*
%TO.P,J2,3,Pin_3*%
%TO.N,/CS2*%
X158200000Y-115000000D03*
%TO.P,J2,4,Pin_4*%
%TO.N,/CS3*%
X161800000Y-115000000D03*
%TO.P,J2,5,Pin_5*%
%TO.N,/CS4*%
X165400000Y-115000000D03*
%TO.P,J2,6,Pin_6*%
%TO.N,/CS5*%
X169000000Y-115000000D03*
%TD*%
D13*
%TO.P,J1,1,Pin_1*%
%TO.N,/SW1*%
X126600000Y-114975000D03*
D14*
%TO.P,J1,2,Pin_2*%
%TO.N,/SW2*%
X130200000Y-114975000D03*
%TO.P,J1,3,Pin_3*%
%TO.N,/SW3*%
X133800000Y-114975000D03*
%TO.P,J1,4,Pin_4*%
%TO.N,/SW4*%
X137400000Y-114975000D03*
%TO.P,J1,5,Pin_5*%
%TO.N,/SW5*%
X141000000Y-114975000D03*
%TO.P,J1,6,Pin_6*%
%TO.N,/SW6*%
X144600000Y-114975000D03*
%TD*%
D15*
%TO.P,D40,1,K*%
%TO.N,/CS5*%
X148000000Y-108787500D03*
%TO.P,D40,2,A*%
%TO.N,/SW3*%
X148000000Y-107212500D03*
%TD*%
D16*
%TO.P,D37,1,K*%
%TO.N,/CS5*%
X148000000Y-101812500D03*
%TO.P,D37,2,A*%
%TO.N,/SW7*%
X148000000Y-103387500D03*
%TD*%
D15*
%TO.P,D39,1,K*%
%TO.N,/CS5*%
X146000000Y-108787500D03*
%TO.P,D39,2,A*%
%TO.N,/SW2*%
X146000000Y-107212500D03*
%TD*%
%TO.P,D42,1,K*%
%TO.N,/CS5*%
X152000000Y-108787500D03*
%TO.P,D42,2,A*%
%TO.N,/SW5*%
X152000000Y-107212500D03*
%TD*%
%TO.P,D41,1,K*%
%TO.N,/CS5*%
X150000000Y-108787500D03*
%TO.P,D41,2,A*%
%TO.N,/SW4*%
X150000000Y-107212500D03*
%TD*%
%TO.P,D36,1,K*%
%TO.N,/CS5*%
X148000000Y-100187500D03*
%TO.P,D36,2,A*%
%TO.N,/SW6*%
X148000000Y-98612500D03*
%TD*%
%TO.P,D38,1,K*%
%TO.N,/CS5*%
X144000000Y-108787500D03*
%TO.P,D38,2,A*%
%TO.N,/SW1*%
X144000000Y-107212500D03*
%TD*%
D17*
%TO.N,/SW7*%
X148410000Y-112400000D03*
X148000000Y-105351000D03*
X153850000Y-101950000D03*
X149070000Y-102276065D03*
%TO.N,/SW4*%
X149560000Y-105430000D03*
X150990000Y-107860000D03*
%TO.N,/SW3*%
X131980000Y-115460000D03*
X135570000Y-117264500D03*
X148980000Y-107990000D03*
%TO.N,/SW2*%
X132020000Y-116740000D03*
X146980000Y-108020000D03*
%TO.N,/SW1*%
X144980000Y-107940000D03*
%TO.N,/CS1*%
X133005000Y-108795000D03*
X141730000Y-111550000D03*
X140040000Y-111560000D03*
X134320000Y-105300000D03*
%TO.N,/SW4*%
X139290000Y-105260000D03*
%TO.N,/SW7*%
X163501266Y-100220665D03*
X154074122Y-99154500D03*
X141910279Y-101689036D03*
X132398204Y-101661152D03*
%TO.N,/SW3*%
X145825637Y-102980341D03*
X158735955Y-102243641D03*
X165220000Y-102430000D03*
%TO.N,/SW6*%
X147980000Y-97370000D03*
X130566001Y-99474535D03*
X159250000Y-98890000D03*
%TO.N,/CS3*%
X156821190Y-107731190D03*
X156810000Y-105020000D03*
%TO.N,/CS2*%
X144350000Y-104860000D03*
X142480000Y-107740000D03*
%TO.N,/SW5*%
X138270000Y-104670000D03*
X138300000Y-107010000D03*
X153340000Y-107320000D03*
X150300000Y-104890000D03*
%TO.N,/SW4*%
X157070000Y-105875500D03*
X159090000Y-105940000D03*
%TO.N,/CS5*%
X147990000Y-110150000D03*
X146860000Y-102690000D03*
%TO.N,/SW1*%
X152530000Y-94310000D03*
X152530000Y-95670000D03*
X140500000Y-94310000D03*
X140510000Y-95890000D03*
X130890000Y-94310000D03*
X130910000Y-96050000D03*
X162170000Y-95434500D03*
X162080000Y-94220000D03*
%TO.N,/CS5*%
X153340000Y-108880000D03*
%TO.N,/SW6*%
X137760000Y-98890000D03*
%TO.N,/SW3*%
X136610000Y-103030000D03*
%TD*%
D18*
%TO.N,/CS4*%
X164480431Y-103286254D02*
X164014431Y-103752254D01*
X164480431Y-100435254D02*
X164480431Y-103286254D01*
%TO.N,/CS3*%
X154980431Y-103286254D02*
X154514431Y-103752254D01*
X154980431Y-100435254D02*
X154980431Y-103286254D01*
%TO.N,/SW7*%
X152980431Y-100613833D02*
X152980431Y-100435254D01*
X153850000Y-101483402D02*
X152980431Y-100613833D01*
X153850000Y-101950000D02*
X153850000Y-101483402D01*
%TO.N,/CS3*%
X151067265Y-102000000D02*
X150573672Y-101506407D01*
X152940756Y-102000000D02*
X151067265Y-102000000D01*
X154514431Y-103573675D02*
X152940756Y-102000000D01*
X154514431Y-103752254D02*
X154514431Y-103573675D01*
%TO.N,/SW6*%
X129871593Y-100168943D02*
X129261326Y-100168943D01*
X130566001Y-99474535D02*
X129871593Y-100168943D01*
%TO.N,/SW7*%
X148410000Y-112400000D02*
X148410000Y-112410000D01*
X148410000Y-112410000D02*
X151000000Y-115000000D01*
X148000000Y-103387500D02*
X148000000Y-105351000D01*
X149070000Y-102317500D02*
X149070000Y-102276065D01*
X148000000Y-103387500D02*
X149070000Y-102317500D01*
%TO.N,/SW5*%
X152000000Y-106410000D02*
X152010000Y-106400000D01*
X152000000Y-107212500D02*
X152000000Y-106410000D01*
X152010000Y-106400000D02*
X138290000Y-106400000D01*
X157610000Y-106400000D02*
X152010000Y-106400000D01*
%TO.N,/SW4*%
X149560000Y-105430000D02*
X149560000Y-105845500D01*
X149590000Y-105875500D02*
X140530000Y-105875500D01*
X149560000Y-105845500D02*
X149590000Y-105875500D01*
X150342500Y-107212500D02*
X150990000Y-107860000D01*
X152550000Y-105875500D02*
X149590000Y-105875500D01*
X150000000Y-107212500D02*
X150342500Y-107212500D01*
%TO.N,/SW3*%
X133784500Y-117264500D02*
X135570000Y-117264500D01*
X131980000Y-115460000D02*
X133784500Y-117264500D01*
%TO.N,/SW6*%
X128199911Y-100168943D02*
X129261326Y-100168943D01*
X127166775Y-101202079D02*
X128199911Y-100168943D01*
X127166775Y-109816775D02*
X127166775Y-101202079D01*
X132725000Y-115375000D02*
X127166775Y-109816775D01*
X132725000Y-115420280D02*
X132725000Y-115375000D01*
X133354720Y-116050000D02*
X132725000Y-115420280D01*
X143525000Y-116050000D02*
X133354720Y-116050000D01*
X144600000Y-114975000D02*
X143525000Y-116050000D01*
%TO.N,/SW3*%
X148202500Y-107212500D02*
X148980000Y-107990000D01*
X148000000Y-107212500D02*
X148202500Y-107212500D01*
%TO.N,/SW2*%
X131965000Y-116740000D02*
X130200000Y-114975000D01*
X132020000Y-116740000D02*
X131965000Y-116740000D01*
X146172500Y-107212500D02*
X146980000Y-108020000D01*
X146000000Y-107212500D02*
X146172500Y-107212500D01*
%TO.N,/SW1*%
X144252500Y-107212500D02*
X144980000Y-107940000D01*
X144000000Y-107212500D02*
X144252500Y-107212500D01*
%TO.N,/CS1*%
X133005000Y-108795000D02*
X135770000Y-111560000D01*
X135770000Y-111560000D02*
X140040000Y-111560000D01*
X143139089Y-111550000D02*
X141730000Y-111550000D01*
X135321190Y-104298810D02*
X134320000Y-105300000D01*
X135321190Y-103732101D02*
X135321190Y-104298810D01*
%TO.N,/SW5*%
X138300000Y-106410000D02*
X138290000Y-106400000D01*
X141000000Y-109810000D02*
X141000000Y-114975000D01*
X138300000Y-107010000D02*
X138300000Y-106410000D01*
X138300000Y-107110000D02*
X141000000Y-109810000D01*
X138300000Y-107010000D02*
X138300000Y-107110000D01*
%TO.N,/SW4*%
X139290000Y-105825500D02*
X139240000Y-105875500D01*
X140530000Y-105875500D02*
X139240000Y-105875500D01*
X139240000Y-105875500D02*
X132959098Y-105875500D01*
X139290000Y-105260000D02*
X139290000Y-105825500D01*
%TO.N,/SW7*%
X132398204Y-101353027D02*
X131480431Y-100435254D01*
X132398204Y-101661152D02*
X132398204Y-101353027D01*
X154074122Y-99341563D02*
X152980431Y-100435254D01*
X154074122Y-99154500D02*
X154074122Y-99341563D01*
%TO.N,/CS3*%
X153852248Y-98630000D02*
X153728636Y-98723148D01*
X151528343Y-98677078D02*
X151039672Y-98188407D01*
X154980431Y-99200431D02*
X154410000Y-98630000D01*
X154410000Y-98630000D02*
X153852248Y-98630000D01*
X153728636Y-98723148D02*
X153400834Y-98677078D01*
X153400834Y-98677078D02*
X151528343Y-98677078D01*
X154980431Y-100435254D02*
X154980431Y-99200431D01*
%TO.N,/SW7*%
X163501266Y-100220665D02*
X162695020Y-100220665D01*
X162695020Y-100220665D02*
X162480431Y-100435254D01*
X141910279Y-101365102D02*
X140980431Y-100435254D01*
X141910279Y-101689036D02*
X141910279Y-101365102D01*
%TO.N,/SW3*%
X145825637Y-102980341D02*
X145825637Y-102477666D01*
X145825637Y-102477666D02*
X145099536Y-101751565D01*
X157591612Y-102243641D02*
X157099536Y-101751565D01*
X158735955Y-102243641D02*
X157591612Y-102243641D01*
X165898435Y-101751565D02*
X165220000Y-102430000D01*
X166599536Y-101751565D02*
X165898435Y-101751565D01*
%TO.N,/CS4*%
X162728074Y-102287318D02*
X164014431Y-103573675D01*
X162520293Y-102258116D02*
X162728074Y-102287318D01*
X162227053Y-101964876D02*
X162520293Y-102258116D01*
X164014431Y-103573675D02*
X164014431Y-103752254D01*
X160073672Y-101506407D02*
X160532141Y-101964876D01*
X160532141Y-101964876D02*
X162227053Y-101964876D01*
X164034584Y-103732101D02*
X164014431Y-103752254D01*
X166321190Y-103732101D02*
X164034584Y-103732101D01*
X164501584Y-100414101D02*
X164480431Y-100435254D01*
X166787190Y-100414101D02*
X164501584Y-100414101D01*
X164946431Y-99969254D02*
X164480431Y-100435254D01*
X164946431Y-97118254D02*
X164946431Y-99969254D01*
X161181625Y-98830360D02*
X160539672Y-98188407D01*
X164480431Y-100256675D02*
X163054116Y-98830360D01*
X163054116Y-98830360D02*
X161181625Y-98830360D01*
X164480431Y-100435254D02*
X164480431Y-100256675D01*
%TO.N,/SW6*%
X148000000Y-97390000D02*
X147980000Y-97370000D01*
X148000000Y-98612500D02*
X148000000Y-97390000D01*
X160261326Y-99901326D02*
X159250000Y-98890000D01*
X160261326Y-100168943D02*
X160261326Y-99901326D01*
%TO.N,/CS3*%
X157287190Y-100414101D02*
X155001584Y-100414101D01*
X155001584Y-100414101D02*
X154980431Y-100435254D01*
X155446431Y-99969254D02*
X154980431Y-100435254D01*
X155446431Y-97118254D02*
X155446431Y-99969254D01*
X150573672Y-101506407D02*
X151214625Y-102147360D01*
X154534584Y-103732101D02*
X154514431Y-103752254D01*
X156821190Y-103732101D02*
X154534584Y-103732101D01*
X156821190Y-105008810D02*
X156810000Y-105020000D01*
X156821190Y-103732101D02*
X156821190Y-105008810D01*
%TO.N,/CS2*%
X144350000Y-104860000D02*
X144350000Y-104203291D01*
X144350000Y-104203291D02*
X144821190Y-103732101D01*
X145050000Y-111200000D02*
X142480000Y-108630000D01*
X142480000Y-108630000D02*
X142480000Y-107740000D01*
X156360000Y-112910000D02*
X156360000Y-112050000D01*
X155510000Y-111200000D02*
X145050000Y-111200000D01*
X158200000Y-114750000D02*
X156360000Y-112910000D01*
X156360000Y-112050000D02*
X155510000Y-111200000D01*
X158200000Y-115000000D02*
X158200000Y-114750000D01*
%TO.N,/SW5*%
X138290000Y-106400000D02*
X131483598Y-106400000D01*
X138295326Y-104644674D02*
X138270000Y-104670000D01*
X138295326Y-103486943D02*
X138295326Y-104644674D01*
X152107500Y-107320000D02*
X152000000Y-107212500D01*
X153340000Y-107320000D02*
X152107500Y-107320000D01*
X150295326Y-104885326D02*
X150300000Y-104890000D01*
X150295326Y-103486943D02*
X150295326Y-104885326D01*
%TO.N,/SW4*%
X152514431Y-105839931D02*
X152550000Y-105875500D01*
X152514431Y-103752254D02*
X152514431Y-105839931D01*
X157070000Y-105875500D02*
X152550000Y-105875500D01*
X140514431Y-105859931D02*
X140530000Y-105875500D01*
X140514431Y-103752254D02*
X140514431Y-105859931D01*
X131014431Y-103930833D02*
X131014431Y-103752254D01*
X132959098Y-105875500D02*
X131014431Y-103930833D01*
X159826685Y-105940000D02*
X159090000Y-105940000D01*
X162014431Y-103752254D02*
X159826685Y-105940000D01*
%TO.N,/SW5*%
X159795326Y-103486943D02*
X159795326Y-104214674D01*
X159795326Y-104214674D02*
X157610000Y-106400000D01*
X128795326Y-103711728D02*
X128795326Y-103486943D01*
X131483598Y-106400000D02*
X128795326Y-103711728D01*
%TO.N,/CS5*%
X148000000Y-110140000D02*
X148000000Y-108787500D01*
X147990000Y-110150000D02*
X148000000Y-110140000D01*
X148000000Y-101812500D02*
X147737500Y-101812500D01*
X147737500Y-101812500D02*
X146860000Y-102690000D01*
X148000000Y-100187500D02*
X148000000Y-101812500D01*
%TO.N,/SW6*%
X149204883Y-98612500D02*
X150761326Y-100168943D01*
X148000000Y-98612500D02*
X149204883Y-98612500D01*
%TO.N,/SW1*%
X152530000Y-94310000D02*
X152530000Y-93830000D01*
X152490000Y-93790000D02*
X161640000Y-93790000D01*
X140530000Y-93790000D02*
X152490000Y-93790000D01*
X152530000Y-93830000D02*
X152490000Y-93790000D01*
X153446431Y-96586431D02*
X152530000Y-95670000D01*
X153446431Y-97118254D02*
X153446431Y-96586431D01*
X140500000Y-93820000D02*
X140530000Y-93790000D01*
X140500000Y-94310000D02*
X140500000Y-93820000D01*
X130890000Y-93790000D02*
X140530000Y-93790000D01*
X141446431Y-97118254D02*
X141446431Y-96826431D01*
X141446431Y-96826431D02*
X140510000Y-95890000D01*
X130890000Y-94310000D02*
X130890000Y-93790000D01*
X129090000Y-93790000D02*
X130890000Y-93790000D01*
X131946431Y-97086431D02*
X130910000Y-96050000D01*
X131946431Y-97118254D02*
X131946431Y-97086431D01*
X162170000Y-95434500D02*
X162946431Y-96210931D01*
X162946431Y-96210931D02*
X162946431Y-97118254D01*
X161705000Y-93855000D02*
X162070000Y-94220000D01*
X162070000Y-94220000D02*
X162080000Y-94220000D01*
X161640000Y-93790000D02*
X161705000Y-93855000D01*
X125660000Y-97220000D02*
X129090000Y-93790000D01*
X125660000Y-114035000D02*
X125660000Y-97220000D01*
X126600000Y-114975000D02*
X125660000Y-114035000D01*
%TO.N,/SW2*%
X164916756Y-94910000D02*
X155416756Y-94910000D01*
X167065536Y-97058780D02*
X164916756Y-94910000D01*
X167065536Y-98433565D02*
X167065536Y-97058780D01*
X155416756Y-94910000D02*
X143416756Y-94910000D01*
X157565536Y-97058780D02*
X155416756Y-94910000D01*
X157565536Y-98433565D02*
X157565536Y-97058780D01*
X143416756Y-94910000D02*
X135250000Y-94910000D01*
X145565536Y-97058780D02*
X143416756Y-94910000D01*
X145565536Y-98433565D02*
X145565536Y-97058780D01*
X136065536Y-95725536D02*
X136065536Y-98433565D01*
X135250000Y-94910000D02*
X136065536Y-95725536D01*
X128510000Y-94910000D02*
X135250000Y-94910000D01*
X126010000Y-97410000D02*
X128510000Y-94910000D01*
X126010000Y-110040000D02*
X126010000Y-97410000D01*
X127890000Y-111920000D02*
X126010000Y-110040000D01*
X127890000Y-112665000D02*
X127890000Y-111920000D01*
X130200000Y-114975000D02*
X127890000Y-112665000D01*
%TO.N,/CS5*%
X146000000Y-108787500D02*
X144000000Y-108787500D01*
X148000000Y-108787500D02*
X146000000Y-108787500D01*
X150000000Y-108787500D02*
X148000000Y-108787500D01*
X152000000Y-108787500D02*
X150000000Y-108787500D01*
X152092500Y-108880000D02*
X152000000Y-108787500D01*
X153340000Y-108880000D02*
X152092500Y-108880000D01*
%TO.N,/CS4*%
X163440000Y-104326685D02*
X164014431Y-103752254D01*
X163440000Y-113040000D02*
X163440000Y-104326685D01*
X165400000Y-115000000D02*
X163440000Y-113040000D01*
%TO.N,/CS3*%
X159970000Y-113170000D02*
X161800000Y-115000000D01*
X159930000Y-110840000D02*
X159930000Y-113170000D01*
X159930000Y-113170000D02*
X159970000Y-113170000D01*
X156821190Y-107731190D02*
X159930000Y-110840000D01*
%TO.N,/CS1*%
X153340000Y-112070000D02*
X153340000Y-112960000D01*
X152820000Y-111550000D02*
X153340000Y-112070000D01*
X153340000Y-112960000D02*
X154600000Y-114220000D01*
X143139089Y-111550000D02*
X152820000Y-111550000D01*
X154600000Y-114220000D02*
X154600000Y-115000000D01*
%TO.N,/SW6*%
X138761326Y-99891326D02*
X137760000Y-98890000D01*
X138761326Y-100168943D02*
X138761326Y-99891326D01*
%TO.N,/SW3*%
X135599536Y-102019536D02*
X136610000Y-103030000D01*
X135599536Y-101751565D02*
X135599536Y-102019536D01*
%TO.N,/CS2*%
X142534584Y-103732101D02*
X142514431Y-103752254D01*
X144821190Y-103732101D02*
X142534584Y-103732101D01*
X143001584Y-100414101D02*
X142980431Y-100435254D01*
X145287190Y-100414101D02*
X143001584Y-100414101D01*
X142980431Y-103286254D02*
X142514431Y-103752254D01*
X142980431Y-100435254D02*
X142980431Y-103286254D01*
X143446431Y-99969254D02*
X142980431Y-100435254D01*
X143446431Y-97118254D02*
X143446431Y-99969254D01*
X141400834Y-98677078D02*
X139528343Y-98677078D01*
X142980431Y-100256675D02*
X141400834Y-98677078D01*
X142980431Y-100435254D02*
X142980431Y-100256675D01*
X139528343Y-98677078D02*
X139039672Y-98188407D01*
X139214625Y-102147360D02*
X138573672Y-101506407D01*
X141088116Y-102147360D02*
X139214625Y-102147360D01*
X142514431Y-103573675D02*
X141088116Y-102147360D01*
X142514431Y-103752254D02*
X142514431Y-103573675D01*
%TO.N,/CS1*%
X130032634Y-98681369D02*
X129539672Y-98188407D01*
X131931369Y-98681369D02*
X130032634Y-98681369D01*
X133480431Y-100230431D02*
X131931369Y-98681369D01*
X133480431Y-100435254D02*
X133480431Y-100230431D01*
X131480904Y-102040148D02*
X133014431Y-103573675D01*
X129607413Y-102040148D02*
X131480904Y-102040148D01*
X129073672Y-101506407D02*
X129607413Y-102040148D01*
X133014431Y-103573675D02*
X133014431Y-103752254D01*
X133501584Y-100414101D02*
X133480431Y-100435254D01*
X135787190Y-100414101D02*
X133501584Y-100414101D01*
X133946431Y-99969254D02*
X133480431Y-100435254D01*
X133946431Y-97118254D02*
X133946431Y-99969254D01*
X133480431Y-103286254D02*
X133014431Y-103752254D01*
X133480431Y-100435254D02*
X133480431Y-103286254D01*
X133034584Y-103732101D02*
X133014431Y-103752254D01*
X135321190Y-103732101D02*
X133034584Y-103732101D01*
%TD*%
M02*
