M48
; DRILL file {KiCad 7.0.8} date Sun Mar 24 19:28:16 2024
; FORMAT={-:-/ absolute / inch / decimal}
; #@! TF.CreationDate,2024-03-24T19:28:16+01:00
; #@! TF.GenerationSoftware,Kicad,Pcbnew,7.0.8
; #@! TF.FileFunction,Plated,1,2,PTH
FMAT,2
INCH
; #@! TA.AperFunction,Plated,PTH,ViaDrill
T1C0.0157
; #@! TA.AperFunction,Plated,PTH,ComponentDrill
T2C0.0157
; #@! TA.AperFunction,Plated,PTH,ComponentDrill
T3C0.0394
; #@! TA.AperFunction,Plated,PTH,ComponentDrill
T4C0.0500
%
G90
G05
T1
X4.8622Y-3.3031
X4.8622Y-3.8622
X4.9567Y-4.2992
X5.0202Y-3.2958
X5.0236Y-3.4764
X5.0276Y-3.2126
X5.0295Y-3.7933
X5.0485Y-4.0184
X5.0625Y-3.6216
X5.1339Y-3.6378
X5.1391Y-3.8216
X5.2047Y-3.186
X5.2087Y-3.6929
X5.2335Y-3.8964
X5.2598Y-3.1693
X5.2808Y-4.1208
X5.2874Y-3.4567
X5.3268Y-3.7874
X5.3656Y-4.0607
X5.378Y-3.4055
X5.3825Y-3.9298
X5.4213Y-4.0197
X5.5118Y-3.8228
X5.5709Y-4.1575
X5.5866Y-5.0669
X5.6063Y-3.8976
X5.6535Y-4.122
X5.7008Y-3.7874
X5.7419Y-4.0611
X5.7558Y-3.9295
X5.7992Y-4.8307
X5.8031Y-4.7323
X5.8307Y-3.0945
X5.8307Y-3.6378
X5.8307Y-4.7835
X5.8622Y-3.8514
X5.8937Y-4.0197
X5.8976Y-3.7087
X5.9409Y-4.1693
X5.9803Y-4.6299
X5.985Y-3.8214
X5.9921Y-3.1811
X6.0795Y-3.8962
X6.1024Y-4.7677
X6.1102Y-5.0118
X6.1268Y-4.1207
X6.1457Y-4.9724
X6.174Y-3.786
X6.2008Y-3.6575
X6.2087Y-3.2677
X6.2148Y-4.0611
X6.2285Y-3.9296
X6.248Y-3.5866
X6.248Y-4.6417
X6.2677Y-4.0197
X6.2913Y-4.6102
X6.2913Y-4.8504
X6.3346Y-4.5748
X6.3346Y-4.8819
X6.359Y-3.8214
X6.4016Y-3.6772
X6.4055Y-3.4173
X6.4055Y-4.6102
X6.4535Y-3.8962
X6.4567Y-3.4173
X6.4567Y-4.9252
X6.4843Y-3.6457
X6.5Y-3.4449
X6.5008Y-4.1207
X6.5471Y-3.4565
X6.5472Y-3.5
X6.548Y-3.786
X6.5888Y-4.0611
X6.6025Y-3.9296
X6.6063Y-3.252
X6.626Y-3.8346
X6.6378Y-4.7953
X6.6419Y-4.0081
X6.6614Y-3.6535
X6.6929Y-3.9449
X6.7047Y-3.5039
X6.7047Y-3.5591
X6.7087Y-3.4567
T2
X5.1496Y-3.2795
T3
X5.0693Y-4.5362
X5.0693Y-4.6362
X5.0693Y-4.7362
X5.1693Y-4.5362
X5.1693Y-4.6362
X5.1693Y-4.7362
T4
X4.7913Y-3.4551
X4.7913Y-3.5551
X4.7913Y-3.6551
X4.8913Y-3.5551
T0
M30
