%TF.GenerationSoftware,KiCad,Pcbnew,7.0.8*%
%TF.CreationDate,2024-03-24T19:28:18+01:00*%
%TF.ProjectId,Heptachron,48657074-6163-4687-926f-6e2e6b696361,rev?*%
%TF.SameCoordinates,Original*%
%TF.FileFunction,Copper,L1,Top*%
%TF.FilePolarity,Positive*%
%FSLAX46Y46*%
G04 Gerber Fmt 4.6, Leading zero omitted, Abs format (unit mm)*
G04 Created by KiCad (PCBNEW 7.0.8) date 2024-03-24 19:28:18*
%MOMM*%
%LPD*%
G01*
G04 APERTURE LIST*
G04 Aperture macros list*
%AMRoundRect*
0 Rectangle with rounded corners*
0 $1 Rounding radius*
0 $2 $3 $4 $5 $6 $7 $8 $9 X,Y pos of 4 corners*
0 Add a 4 corners polygon primitive as box body*
4,1,4,$2,$3,$4,$5,$6,$7,$8,$9,$2,$3,0*
0 Add four circle primitives for the rounded corners*
1,1,$1+$1,$2,$3*
1,1,$1+$1,$4,$5*
1,1,$1+$1,$6,$7*
1,1,$1+$1,$8,$9*
0 Add four rect primitives between the rounded corners*
20,1,$1+$1,$2,$3,$4,$5,0*
20,1,$1+$1,$4,$5,$6,$7,0*
20,1,$1+$1,$6,$7,$8,$9,0*
20,1,$1+$1,$8,$9,$2,$3,0*%
G04 Aperture macros list end*
%TA.AperFunction,SMDPad,CuDef*%
%ADD10R,1.680000X1.680000*%
%TD*%
%TA.AperFunction,ComponentPad*%
%ADD11C,0.800000*%
%TD*%
%TA.AperFunction,SMDPad,CuDef*%
%ADD12RoundRect,0.062500X0.062500X0.350000X-0.062500X0.350000X-0.062500X-0.350000X0.062500X-0.350000X0*%
%TD*%
%TA.AperFunction,SMDPad,CuDef*%
%ADD13RoundRect,0.062500X0.350000X0.062500X-0.350000X0.062500X-0.350000X-0.062500X0.350000X-0.062500X0*%
%TD*%
%TA.AperFunction,ComponentPad*%
%ADD14C,2.000000*%
%TD*%
%TA.AperFunction,SMDPad,CuDef*%
%ADD15RoundRect,0.225000X-0.250000X0.225000X-0.250000X-0.225000X0.250000X-0.225000X0.250000X0.225000X0*%
%TD*%
%TA.AperFunction,SMDPad,CuDef*%
%ADD16R,1.050000X0.500000*%
%TD*%
%TA.AperFunction,SMDPad,CuDef*%
%ADD17RoundRect,0.150000X-0.825000X-0.150000X0.825000X-0.150000X0.825000X0.150000X-0.825000X0.150000X0*%
%TD*%
%TA.AperFunction,SMDPad,CuDef*%
%ADD18R,1.600000X0.550000*%
%TD*%
%TA.AperFunction,SMDPad,CuDef*%
%ADD19R,0.550000X1.600000*%
%TD*%
%TA.AperFunction,SMDPad,CuDef*%
%ADD20R,1.550000X1.300000*%
%TD*%
%TA.AperFunction,SMDPad,CuDef*%
%ADD21RoundRect,0.200000X0.275000X-0.200000X0.275000X0.200000X-0.275000X0.200000X-0.275000X-0.200000X0*%
%TD*%
%TA.AperFunction,SMDPad,CuDef*%
%ADD22RoundRect,0.200000X-0.200000X-0.275000X0.200000X-0.275000X0.200000X0.275000X-0.200000X0.275000X0*%
%TD*%
%TA.AperFunction,SMDPad,CuDef*%
%ADD23RoundRect,0.200000X-0.275000X0.200000X-0.275000X-0.200000X0.275000X-0.200000X0.275000X0.200000X0*%
%TD*%
%TA.AperFunction,SMDPad,CuDef*%
%ADD24RoundRect,0.200000X0.200000X0.275000X-0.200000X0.275000X-0.200000X-0.275000X0.200000X-0.275000X0*%
%TD*%
%TA.AperFunction,SMDPad,CuDef*%
%ADD25RoundRect,0.218750X0.256250X-0.218750X0.256250X0.218750X-0.256250X0.218750X-0.256250X-0.218750X0*%
%TD*%
%TA.AperFunction,ComponentPad*%
%ADD26O,1.700000X1.700000*%
%TD*%
%TA.AperFunction,ComponentPad*%
%ADD27R,1.700000X1.700000*%
%TD*%
%TA.AperFunction,SMDPad,CuDef*%
%ADD28RoundRect,0.218750X-0.218750X-0.256250X0.218750X-0.256250X0.218750X0.256250X-0.218750X0.256250X0*%
%TD*%
%TA.AperFunction,SMDPad,CuDef*%
%ADD29RoundRect,0.250000X-0.475000X0.250000X-0.475000X-0.250000X0.475000X-0.250000X0.475000X0.250000X0*%
%TD*%
%TA.AperFunction,SMDPad,CuDef*%
%ADD30RoundRect,0.225000X0.225000X0.250000X-0.225000X0.250000X-0.225000X-0.250000X0.225000X-0.250000X0*%
%TD*%
%TA.AperFunction,SMDPad,CuDef*%
%ADD31RoundRect,0.250000X0.250000X0.475000X-0.250000X0.475000X-0.250000X-0.475000X0.250000X-0.475000X0*%
%TD*%
%TA.AperFunction,SMDPad,CuDef*%
%ADD32RoundRect,0.250000X-0.250000X-0.475000X0.250000X-0.475000X0.250000X0.475000X-0.250000X0.475000X0*%
%TD*%
%TA.AperFunction,SMDPad,CuDef*%
%ADD33RoundRect,0.225000X0.250000X-0.225000X0.250000X0.225000X-0.250000X0.225000X-0.250000X-0.225000X0*%
%TD*%
%TA.AperFunction,SMDPad,CuDef*%
%ADD34RoundRect,0.218750X-0.256250X0.218750X-0.256250X-0.218750X0.256250X-0.218750X0.256250X0.218750X0*%
%TD*%
%TA.AperFunction,SMDPad,CuDef*%
%ADD35RoundRect,0.275000X0.133151X-1.028541X0.411497X0.951995X-0.133151X1.028541X-0.411497X-0.951995X0*%
%TD*%
%TA.AperFunction,SMDPad,CuDef*%
%ADD36RoundRect,0.275000X-1.037062X0.011290X0.885461X-0.539984X1.037062X-0.011290X-0.885461X0.539984X0*%
%TD*%
%TA.AperFunction,SMDPad,CuDef*%
%ADD37RoundRect,0.275000X1.037062X-0.011290X-0.885461X0.539984X-1.037062X0.011290X0.885461X-0.539984X0*%
%TD*%
%TA.AperFunction,ViaPad*%
%ADD38C,0.800000*%
%TD*%
%TA.AperFunction,Conductor*%
%ADD39C,0.250000*%
%TD*%
G04 APERTURE END LIST*
D10*
%TO.P,U6,17,VSS*%
%TO.N,GND*%
X130800000Y-83300000D03*
D11*
X130800000Y-83300000D03*
D12*
%TO.P,U6,16,ISET*%
%TO.N,Net-(U6-ISET)*%
X131550000Y-84762500D03*
%TO.P,U6,15,TD*%
%TO.N,Net-(U6-TD)*%
X131050000Y-84762500D03*
%TO.P,U6,14,TMR*%
%TO.N,unconnected-(U6-TMR-Pad14)*%
X130550000Y-84762500D03*
%TO.P,U6,13,IN*%
%TO.N,+5V*%
X130050000Y-84762500D03*
D13*
%TO.P,U6,12,ILIM*%
%TO.N,Net-(U6-ILIM)*%
X129337500Y-84050000D03*
%TO.P,U6,11,OUT*%
%TO.N,/BMSOUT*%
X129337500Y-83550000D03*
%TO.P,U6,10,OUT*%
X129337500Y-83050000D03*
%TO.P,U6,9,CHG*%
%TO.N,/CHG*%
X129337500Y-82550000D03*
D12*
%TO.P,U6,8,VSS*%
%TO.N,GND*%
X130050000Y-81837500D03*
%TO.P,U6,7,PGOOD*%
%TO.N,/PGOOD*%
X130550000Y-81837500D03*
%TO.P,U6,6,EN1*%
%TO.N,GND*%
X131050000Y-81837500D03*
%TO.P,U6,5,EN2*%
%TO.N,/BMSOUT*%
X131550000Y-81837500D03*
D13*
%TO.P,U6,4,CE*%
%TO.N,GND*%
X132262500Y-82550000D03*
%TO.P,U6,3,BAT*%
%TO.N,+BATT*%
X132262500Y-83050000D03*
%TO.P,U6,2,BAT*%
X132262500Y-83550000D03*
%TO.P,U6,1,TS*%
%TO.N,Net-(U6-TS)*%
X132262500Y-84050000D03*
%TD*%
D14*
%TO.P,SW4,1,1*%
%TO.N,/BMSOUT*%
X121700000Y-87760000D03*
%TO.P,SW4,2,2*%
%TO.N,+BATT*%
X124240000Y-90300000D03*
%TO.P,SW4,3,3*%
%TO.N,VCC*%
X121700000Y-90300000D03*
%TO.P,SW4,4,4*%
%TO.N,+5V*%
X121700000Y-92840000D03*
%TD*%
D15*
%TO.P,C7,1*%
%TO.N,VCC*%
X156800000Y-89925000D03*
%TO.P,C7,2*%
%TO.N,GND*%
X156800000Y-91475000D03*
%TD*%
D16*
%TO.P,X1,8,EVI*%
%TO.N,Net-(X1-EVI)*%
X166450000Y-118200000D03*
%TO.P,X1,7,VDD*%
%TO.N,VCC*%
X166450000Y-119100000D03*
%TO.P,X1,6,VBU*%
%TO.N,Net-(X1-VBU)*%
X166450000Y-120000000D03*
%TO.P,X1,5,VSS*%
%TO.N,GND*%
X166450000Y-120900000D03*
%TO.P,X1,4,SDA*%
%TO.N,/SDA*%
X165000000Y-120900000D03*
%TO.P,X1,3,SCL*%
%TO.N,/SCL*%
X165000000Y-120000000D03*
%TO.P,X1,2,INT*%
%TO.N,unconnected-(X1-INT-Pad2)*%
X165000000Y-119100000D03*
%TO.P,X1,1,CLKOUT*%
%TO.N,/RTC_CLK*%
X165000000Y-118200000D03*
%TD*%
D17*
%TO.P,U8,1,VCC*%
%TO.N,VCC*%
X145025000Y-117690000D03*
%TO.P,U8,2,PA4*%
%TO.N,/LIGHT_EN*%
X145025000Y-118960000D03*
%TO.P,U8,3,PA5*%
%TO.N,/PGOOD*%
X145025000Y-120230000D03*
%TO.P,U8,4,PA6*%
%TO.N,/BU1*%
X145025000Y-121500000D03*
%TO.P,U8,5,PA7*%
%TO.N,/BU2*%
X145025000Y-122770000D03*
%TO.P,U8,6,PB3*%
%TO.N,/RTC_CLK*%
X145025000Y-124040000D03*
%TO.P,U8,7,PB2*%
%TO.N,/LED_EN*%
X145025000Y-125310000D03*
%TO.P,U8,8,PB1*%
%TO.N,/SDA*%
X149975000Y-125310000D03*
%TO.P,U8,9,PB0*%
%TO.N,/SCL*%
X149975000Y-124040000D03*
%TO.P,U8,10,~{RESET}/PA0*%
%TO.N,/UPDI*%
X149975000Y-122770000D03*
%TO.P,U8,11,PA1*%
%TO.N,/TX*%
X149975000Y-121500000D03*
%TO.P,U8,12,PA2*%
%TO.N,/RX*%
X149975000Y-120230000D03*
%TO.P,U8,13,PA3*%
%TO.N,/LIGHT_IN*%
X149975000Y-118960000D03*
%TO.P,U8,14,GND*%
%TO.N,GND*%
X149975000Y-117690000D03*
%TD*%
D18*
%TO.P,U7,1,CS4*%
%TO.N,/CS4*%
X167750000Y-89700000D03*
%TO.P,U7,2,CS5*%
%TO.N,/CS5*%
X167750000Y-88900000D03*
%TO.P,U7,3,CS6*%
%TO.N,/CS6*%
X167750000Y-88100000D03*
%TO.P,U7,4,CS7*%
%TO.N,/CS7*%
X167750000Y-87300000D03*
%TO.P,U7,5,CS8*%
%TO.N,unconnected-(U7-CS8-Pad5)*%
X167750000Y-86500000D03*
%TO.P,U7,6,CS9*%
%TO.N,unconnected-(U7-CS9-Pad6)*%
X167750000Y-85700000D03*
%TO.P,U7,7,CS10*%
%TO.N,unconnected-(U7-CS10-Pad7)*%
X167750000Y-84900000D03*
%TO.P,U7,8,CS11*%
%TO.N,unconnected-(U7-CS11-Pad8)*%
X167750000Y-84100000D03*
D19*
%TO.P,U7,9,GND*%
%TO.N,GND*%
X166300000Y-82650000D03*
%TO.P,U7,10,CS12*%
%TO.N,unconnected-(U7-CS12-Pad10)*%
X165500000Y-82650000D03*
%TO.P,U7,11,CS13*%
%TO.N,unconnected-(U7-CS13-Pad11)*%
X164700000Y-82650000D03*
%TO.P,U7,12,CS14*%
%TO.N,unconnected-(U7-CS14-Pad12)*%
X163900000Y-82650000D03*
%TO.P,U7,13,CS15*%
%TO.N,unconnected-(U7-CS15-Pad13)*%
X163100000Y-82650000D03*
%TO.P,U7,14,CS16*%
%TO.N,unconnected-(U7-CS16-Pad14)*%
X162300000Y-82650000D03*
%TO.P,U7,15,SW8*%
%TO.N,unconnected-(U7-SW8-Pad15)*%
X161500000Y-82650000D03*
%TO.P,U7,16,SW7*%
%TO.N,unconnected-(U7-SW7-Pad16)*%
X160700000Y-82650000D03*
D18*
%TO.P,U7,17,SW6*%
%TO.N,unconnected-(U7-SW6-Pad17)*%
X159250000Y-84100000D03*
%TO.P,U7,18,SW5*%
%TO.N,/SW5*%
X159250000Y-84900000D03*
%TO.P,U7,19,SW4*%
%TO.N,/SW4*%
X159250000Y-85700000D03*
%TO.P,U7,20,SW3*%
%TO.N,/SW3*%
X159250000Y-86500000D03*
%TO.P,U7,21,SW2*%
%TO.N,/SW2*%
X159250000Y-87300000D03*
%TO.P,U7,22,SW1*%
%TO.N,/SW1*%
X159250000Y-88100000D03*
%TO.P,U7,23,VCC*%
%TO.N,VCC*%
X159250000Y-88900000D03*
%TO.P,U7,24,GND*%
%TO.N,GND*%
X159250000Y-89700000D03*
D19*
%TO.P,U7,25,ISET*%
%TO.N,Net-(U7-ISET)*%
X160700000Y-91150000D03*
%TO.P,U7,26,SDA*%
%TO.N,/SDA*%
X161500000Y-91150000D03*
%TO.P,U7,27,SCL*%
%TO.N,/SCL*%
X162300000Y-91150000D03*
%TO.P,U7,28,AD*%
%TO.N,GND*%
X163100000Y-91150000D03*
%TO.P,U7,29,SDB*%
%TO.N,/LED_EN*%
X163900000Y-91150000D03*
%TO.P,U7,30,CS1*%
%TO.N,/CS1*%
X164700000Y-91150000D03*
%TO.P,U7,31,CS2*%
%TO.N,/CS2*%
X165500000Y-91150000D03*
%TO.P,U7,32,CS3*%
%TO.N,/CS3*%
X166300000Y-91150000D03*
%TD*%
D20*
%TO.P,SW2,1,1*%
%TO.N,/BU2*%
X129475000Y-124250000D03*
X121525000Y-124250000D03*
%TO.P,SW2,2,2*%
%TO.N,GND*%
X121525000Y-128750000D03*
X129475000Y-128750000D03*
%TD*%
%TO.P,SW1,1,1*%
%TO.N,/BU1*%
X140175000Y-124250000D03*
X132225000Y-124250000D03*
%TO.P,SW1,2,2*%
%TO.N,GND*%
X132225000Y-128750000D03*
X140175000Y-128750000D03*
%TD*%
D21*
%TO.P,R16,1*%
%TO.N,GND*%
X130100000Y-110025000D03*
%TO.P,R16,2*%
%TO.N,/LIGHT_IN*%
X130100000Y-108375000D03*
%TD*%
D22*
%TO.P,R15,1*%
%TO.N,GND*%
X158875000Y-93600000D03*
%TO.P,R15,2*%
%TO.N,Net-(U7-ISET)*%
X160525000Y-93600000D03*
%TD*%
D23*
%TO.P,R14,1*%
%TO.N,VCC*%
X153900000Y-122275000D03*
%TO.P,R14,2*%
%TO.N,/SCL*%
X153900000Y-123925000D03*
%TD*%
D21*
%TO.P,R13,1*%
%TO.N,VCC*%
X153900000Y-127125000D03*
%TO.P,R13,2*%
%TO.N,/SDA*%
X153900000Y-125475000D03*
%TD*%
D24*
%TO.P,R12,1*%
%TO.N,Net-(D4-A)*%
X150925000Y-77600000D03*
%TO.P,R12,2*%
%TO.N,VCC*%
X149275000Y-77600000D03*
%TD*%
%TO.P,R11,1*%
%TO.N,Net-(D3-A)*%
X154825000Y-77600000D03*
%TO.P,R11,2*%
%TO.N,+BATT*%
X153175000Y-77600000D03*
%TD*%
%TO.P,R10,1*%
%TO.N,Net-(D2-A)*%
X143025000Y-77600000D03*
%TO.P,R10,2*%
%TO.N,VCC*%
X141375000Y-77600000D03*
%TD*%
%TO.P,R9,1*%
%TO.N,Net-(D1-A)*%
X146925000Y-77600000D03*
%TO.P,R9,2*%
%TO.N,VCC*%
X145275000Y-77600000D03*
%TD*%
%TO.P,R8,1*%
%TO.N,GND*%
X136525000Y-83499999D03*
%TO.P,R8,2*%
%TO.N,Net-(U6-TS)*%
X134875000Y-83499999D03*
%TD*%
D23*
%TO.P,R7,1*%
%TO.N,Net-(U6-TD)*%
X132650000Y-87624999D03*
%TO.P,R7,2*%
%TO.N,GND*%
X132650000Y-89274999D03*
%TD*%
D24*
%TO.P,R6,1*%
%TO.N,GND*%
X136525000Y-85199998D03*
%TO.P,R6,2*%
%TO.N,Net-(U6-ISET)*%
X134875000Y-85199998D03*
%TD*%
D21*
%TO.P,R5,1*%
%TO.N,GND*%
X128850000Y-89174999D03*
%TO.P,R5,2*%
%TO.N,Net-(U6-ILIM)*%
X128850000Y-87524999D03*
%TD*%
D24*
%TO.P,R4,1*%
%TO.N,/CHG*%
X126300000Y-82900000D03*
%TO.P,R4,2*%
%TO.N,/BMSOUT*%
X124650000Y-82900000D03*
%TD*%
D22*
%TO.P,R3,1*%
%TO.N,/BMSOUT*%
X124650000Y-81200000D03*
%TO.P,R3,2*%
%TO.N,/PGOOD*%
X126300000Y-81200000D03*
%TD*%
%TO.P,R2,2*%
%TO.N,Net-(X1-EVI)*%
X166550000Y-116450000D03*
%TO.P,R2,1*%
%TO.N,GND*%
X164900000Y-116450000D03*
%TD*%
%TO.P,R1,1*%
%TO.N,GND*%
X164900000Y-122650000D03*
%TO.P,R1,2*%
%TO.N,Net-(X1-VBU)*%
X166550000Y-122650000D03*
%TD*%
D25*
%TO.P,Q1,1,C*%
%TO.N,/LIGHT_EN*%
X133200000Y-109987500D03*
%TO.P,Q1,2,E*%
%TO.N,/LIGHT_IN*%
X133200000Y-108412500D03*
%TD*%
D26*
%TO.P,J1,6,Pin_6*%
%TO.N,GND*%
X128760000Y-115220000D03*
%TO.P,J1,5,Pin_5*%
%TO.N,/RX*%
X131300000Y-115220000D03*
%TO.P,J1,4,Pin_4*%
%TO.N,+5V*%
X128760000Y-117760000D03*
%TO.P,J1,3,Pin_3*%
%TO.N,/TX*%
X131300000Y-117760000D03*
%TO.P,J1,2,Pin_2*%
%TO.N,+BATT*%
X128760000Y-120300000D03*
D27*
%TO.P,J1,1,Pin_1*%
%TO.N,/UPDI*%
X131300000Y-120300000D03*
%TD*%
D28*
%TO.P,D4,1,K*%
%TO.N,GND*%
X149312500Y-79500000D03*
%TO.P,D4,2,A*%
%TO.N,Net-(D4-A)*%
X150887500Y-79500000D03*
%TD*%
%TO.P,D3,1,K*%
%TO.N,GND*%
X153212500Y-79500000D03*
%TO.P,D3,2,A*%
%TO.N,Net-(D3-A)*%
X154787500Y-79500000D03*
%TD*%
%TO.P,D2,1,K*%
%TO.N,/CHG*%
X141412500Y-79500000D03*
%TO.P,D2,2,A*%
%TO.N,Net-(D2-A)*%
X142987500Y-79500000D03*
%TD*%
%TO.P,D1,1,K*%
%TO.N,/PGOOD*%
X145312500Y-79500000D03*
%TO.P,D1,2,A*%
%TO.N,Net-(D1-A)*%
X146887500Y-79500000D03*
%TD*%
D15*
%TO.P,C6,1*%
%TO.N,/LIGHT_IN*%
X127100000Y-108525000D03*
%TO.P,C6,2*%
%TO.N,GND*%
X127100000Y-110075000D03*
%TD*%
D29*
%TO.P,C5,1*%
%TO.N,+5V*%
X130750001Y-87500000D03*
%TO.P,C5,2*%
%TO.N,GND*%
X130750001Y-89400000D03*
%TD*%
D30*
%TO.P,C4,1*%
%TO.N,GND*%
X148300000Y-115460002D03*
%TO.P,C4,2*%
%TO.N,VCC*%
X146750000Y-115460002D03*
%TD*%
D31*
%TO.P,C3,1*%
%TO.N,GND*%
X136650000Y-81500000D03*
%TO.P,C3,2*%
%TO.N,+BATT*%
X134750000Y-81500000D03*
%TD*%
D32*
%TO.P,C2,1*%
%TO.N,GND*%
X124525000Y-84800000D03*
%TO.P,C2,2*%
%TO.N,/BMSOUT*%
X126425000Y-84800000D03*
%TD*%
D33*
%TO.P,C1,2*%
%TO.N,VCC*%
X168550000Y-118775000D03*
%TO.P,C1,1*%
%TO.N,GND*%
X168550000Y-120325000D03*
%TD*%
D34*
%TO.P,D40,1,K*%
%TO.N,/CS3*%
X148000000Y-107212500D03*
%TO.P,D40,2,A*%
%TO.N,/SW5*%
X148000000Y-108787500D03*
%TD*%
%TO.P,D37,1,K*%
%TO.N,/CS6*%
X148000000Y-101812500D03*
%TO.P,D37,2,A*%
%TO.N,/SW5*%
X148000000Y-103387500D03*
%TD*%
D35*
%TO.P,U3,1,A_A*%
%TO.N,/SW2*%
X153446431Y-97118254D03*
D36*
%TO.P,U3,2,A_B*%
X157565536Y-98433565D03*
%TO.P,U3,3,A_C*%
X157099536Y-101751565D03*
D35*
%TO.P,U3,4,A_D*%
X152514431Y-103752254D03*
D37*
%TO.P,U3,5,A_E*%
X150295326Y-103486943D03*
%TO.P,U3,6,A_F*%
X150761326Y-100168943D03*
D35*
%TO.P,U3,7,A_G*%
X152980431Y-100435254D03*
%TO.P,U3,8,K_A*%
%TO.N,/CS1*%
X155446431Y-97118254D03*
D36*
%TO.P,U3,9,K_B*%
%TO.N,/CS2*%
X157287190Y-100414101D03*
%TO.P,U3,10,K_C*%
%TO.N,/CS3*%
X156821190Y-103732101D03*
D35*
%TO.P,U3,11,K_D*%
%TO.N,/CS4*%
X154514431Y-103752254D03*
D37*
%TO.P,U3,12,K_E*%
%TO.N,/CS5*%
X150573672Y-101506407D03*
%TO.P,U3,13,K_F*%
%TO.N,/CS6*%
X151039672Y-98188407D03*
D35*
%TO.P,U3,14,K_G*%
%TO.N,/CS7*%
X154980431Y-100435254D03*
%TD*%
D34*
%TO.P,D39,1,K*%
%TO.N,/CS2*%
X150000001Y-107212500D03*
%TO.P,D39,2,A*%
%TO.N,/SW5*%
X150000001Y-108787500D03*
%TD*%
D35*
%TO.P,U2,1,A_A*%
%TO.N,/SW3*%
X141446431Y-97118254D03*
D36*
%TO.P,U2,2,A_B*%
X145565536Y-98433565D03*
%TO.P,U2,3,A_C*%
X145099536Y-101751565D03*
D35*
%TO.P,U2,4,A_D*%
X140514431Y-103752254D03*
D37*
%TO.P,U2,5,A_E*%
X138295326Y-103486943D03*
%TO.P,U2,6,A_F*%
X138761326Y-100168943D03*
D35*
%TO.P,U2,7,A_G*%
X140980431Y-100435254D03*
%TO.P,U2,8,K_A*%
%TO.N,/CS1*%
X143446431Y-97118254D03*
D36*
%TO.P,U2,9,K_B*%
%TO.N,/CS2*%
X145287190Y-100414101D03*
%TO.P,U2,10,K_C*%
%TO.N,/CS3*%
X144821190Y-103732101D03*
D35*
%TO.P,U2,11,K_D*%
%TO.N,/CS4*%
X142514431Y-103752254D03*
D37*
%TO.P,U2,12,K_E*%
%TO.N,/CS5*%
X138573672Y-101506407D03*
%TO.P,U2,13,K_F*%
%TO.N,/CS6*%
X139039672Y-98188407D03*
D35*
%TO.P,U2,14,K_G*%
%TO.N,/CS7*%
X142980431Y-100435254D03*
%TD*%
%TO.P,U4,1,A_A*%
%TO.N,/SW1*%
X162946431Y-97118254D03*
D36*
%TO.P,U4,2,A_B*%
X167065536Y-98433565D03*
%TO.P,U4,3,A_C*%
X166599536Y-101751565D03*
D35*
%TO.P,U4,4,A_D*%
X162014431Y-103752254D03*
D37*
%TO.P,U4,5,A_E*%
X159795326Y-103486943D03*
%TO.P,U4,6,A_F*%
X160261326Y-100168943D03*
D35*
%TO.P,U4,7,A_G*%
X162480431Y-100435254D03*
%TO.P,U4,8,K_A*%
%TO.N,/CS1*%
X164946431Y-97118254D03*
D36*
%TO.P,U4,9,K_B*%
%TO.N,/CS2*%
X166787190Y-100414101D03*
%TO.P,U4,10,K_C*%
%TO.N,/CS3*%
X166321190Y-103732101D03*
D35*
%TO.P,U4,11,K_D*%
%TO.N,/CS4*%
X164014431Y-103752254D03*
D37*
%TO.P,U4,12,K_E*%
%TO.N,/CS5*%
X160073672Y-101506407D03*
%TO.P,U4,13,K_F*%
%TO.N,/CS6*%
X160539672Y-98188407D03*
D35*
%TO.P,U4,14,K_G*%
%TO.N,/CS7*%
X164480431Y-100435254D03*
%TD*%
D34*
%TO.P,D42,1,K*%
%TO.N,/CS5*%
X144000000Y-107212500D03*
%TO.P,D42,2,A*%
%TO.N,/SW5*%
X144000000Y-108787500D03*
%TD*%
%TO.P,D41,1,K*%
%TO.N,/CS4*%
X145999999Y-107212500D03*
%TO.P,D41,2,A*%
%TO.N,/SW5*%
X145999999Y-108787500D03*
%TD*%
D25*
%TO.P,D36,1,K*%
%TO.N,/CS7*%
X148000000Y-100187500D03*
%TO.P,D36,2,A*%
%TO.N,/SW5*%
X148000000Y-98612500D03*
%TD*%
D34*
%TO.P,D38,1,K*%
%TO.N,/CS1*%
X152000000Y-107212500D03*
%TO.P,D38,2,A*%
%TO.N,/SW5*%
X152000000Y-108787500D03*
%TD*%
D35*
%TO.P,U1,1,A_A*%
%TO.N,/SW4*%
X131946431Y-97118254D03*
D36*
%TO.P,U1,2,A_B*%
X136065536Y-98433565D03*
%TO.P,U1,3,A_C*%
X135599536Y-101751565D03*
D35*
%TO.P,U1,4,A_D*%
X131014431Y-103752254D03*
D37*
%TO.P,U1,5,A_E*%
X128795326Y-103486943D03*
%TO.P,U1,6,A_F*%
X129261326Y-100168943D03*
D35*
%TO.P,U1,7,A_G*%
X131480431Y-100435254D03*
%TO.P,U1,8,K_A*%
%TO.N,/CS1*%
X133946431Y-97118254D03*
D36*
%TO.P,U1,9,K_B*%
%TO.N,/CS2*%
X135787190Y-100414101D03*
%TO.P,U1,10,K_C*%
%TO.N,/CS3*%
X135321190Y-103732101D03*
D35*
%TO.P,U1,11,K_D*%
%TO.N,/CS4*%
X133014431Y-103752254D03*
D37*
%TO.P,U1,12,K_E*%
%TO.N,/CS5*%
X129073672Y-101506407D03*
%TO.P,U1,13,K_F*%
%TO.N,/CS6*%
X129539672Y-98188407D03*
D35*
%TO.P,U1,14,K_G*%
%TO.N,/CS7*%
X133480431Y-100435254D03*
%TD*%
D38*
%TO.N,GND*%
X167800000Y-82600000D03*
X164000000Y-125100000D03*
X168600000Y-121800000D03*
X162700000Y-117100000D03*
X151900000Y-117600000D03*
X141900000Y-128700000D03*
X125900000Y-109200000D03*
X133600000Y-80500000D03*
X127700000Y-81600000D03*
X123500000Y-83900000D03*
X127600000Y-88300000D03*
X134300000Y-87800000D03*
X136600000Y-86500000D03*
X148100000Y-78600000D03*
X152200000Y-80800000D03*
X162600000Y-93400000D03*
X157500000Y-92900000D03*
%TO.N,/SDA*%
X170400000Y-87800000D03*
%TO.N,/SCL*%
X170300000Y-89000000D03*
%TO.N,/LED_EN*%
X170300000Y-90400000D03*
%TO.N,/SDA*%
X160900000Y-116200000D03*
%TO.N,/SCL*%
X159800000Y-117100000D03*
%TO.N,/LED_EN*%
X158700000Y-117900000D03*
%TO.N,VCC*%
X127750000Y-96350000D03*
%TO.N,+5V*%
X123500000Y-98100000D03*
%TO.N,VCC*%
X155000000Y-121100000D03*
X155200000Y-127300000D03*
X157700000Y-83000000D03*
X158700000Y-91100000D03*
%TO.N,+BATT*%
X132300000Y-93800000D03*
X128587701Y-91987701D03*
X130400000Y-92400000D03*
%TO.N,/BMSOUT*%
X127512500Y-83712500D03*
X132200000Y-80924500D03*
%TO.N,/RX*%
X147400000Y-120200000D03*
%TO.N,/TX*%
X148100000Y-121500000D03*
%TO.N,/UPDI*%
X147300000Y-122700000D03*
%TO.N,/LED_EN*%
X156100000Y-126300000D03*
X165100000Y-87500000D03*
%TO.N,/SCL*%
X164000000Y-86800000D03*
%TO.N,/SDA*%
X162700000Y-86800000D03*
X160900000Y-124000000D03*
%TO.N,/SCL*%
X159800000Y-123200000D03*
%TO.N,/SW5*%
X148100000Y-92400000D03*
X149800000Y-94200000D03*
%TO.N,/CS1*%
X150900000Y-105900000D03*
%TO.N,/CS5*%
X141500000Y-105600000D03*
%TO.N,/CS4*%
X170000000Y-100200000D03*
%TO.N,/CS3*%
X168704481Y-101804481D03*
%TO.N,/CS5*%
X169200000Y-92800000D03*
%TO.N,/CS2*%
X168300000Y-97400000D03*
%TO.N,/CS7*%
X166295391Y-87795391D03*
%TO.N,/CS6*%
X166300000Y-88900000D03*
%TO.N,/CS1*%
X164700000Y-92600000D03*
%TO.N,/CS7*%
X148900000Y-97824500D03*
%TO.N,/CS5*%
X159200000Y-102100000D03*
%TO.N,/CS6*%
X161519569Y-97064746D03*
%TO.N,/CS4*%
X165119569Y-104664746D03*
%TO.N,/CS3*%
X167355936Y-103153026D03*
%TO.N,/CS7*%
X163919569Y-98964746D03*
%TO.N,/CS2*%
X167703743Y-99812392D03*
%TO.N,/CS1*%
X166319569Y-96164746D03*
%TO.N,/CS5*%
X149700000Y-102100000D03*
%TO.N,/CS6*%
X152019569Y-97064746D03*
%TO.N,/CS4*%
X155619569Y-104664746D03*
%TO.N,/CS3*%
X157855936Y-103153026D03*
%TO.N,/CS7*%
X154419569Y-98964746D03*
%TO.N,/CS2*%
X158203743Y-99812392D03*
%TO.N,/CS1*%
X156819569Y-96164746D03*
X135300000Y-96200000D03*
X144800000Y-96200000D03*
%TO.N,/CS5*%
X128232101Y-102067899D03*
%TO.N,/CS6*%
X130532101Y-97067899D03*
%TO.N,/CS4*%
X134132101Y-104667899D03*
%TO.N,/CS3*%
X136287043Y-103142820D03*
%TO.N,/CS7*%
X132932101Y-98967899D03*
%TO.N,/CS2*%
X136716552Y-99816025D03*
%TO.N,/CS3*%
X145844477Y-103151893D03*
%TO.N,/CS4*%
X143600000Y-104700000D03*
%TO.N,/CS5*%
X137700000Y-102100000D03*
%TO.N,/CS6*%
X140000000Y-97100000D03*
%TO.N,/CS7*%
X142400000Y-99000000D03*
%TO.N,/CS2*%
X146196764Y-99810392D03*
%TD*%
D39*
%TO.N,GND*%
X167750000Y-82650000D02*
X167800000Y-82600000D01*
X166300000Y-82650000D02*
X167750000Y-82650000D01*
X164900000Y-124200000D02*
X164000000Y-125100000D01*
X164900000Y-122650000D02*
X164900000Y-124200000D01*
X168550000Y-121750000D02*
X168600000Y-121800000D01*
X168550000Y-120325000D02*
X168550000Y-121750000D01*
X163350000Y-116450000D02*
X162700000Y-117100000D01*
X164900000Y-116450000D02*
X163350000Y-116450000D01*
%TO.N,VCC*%
X163700000Y-115000000D02*
X167700000Y-115000000D01*
X168550000Y-115850000D02*
X168550000Y-118775000D01*
X158400000Y-120300000D02*
X163700000Y-115000000D01*
X167700000Y-115000000D02*
X168550000Y-115850000D01*
X153900000Y-120300000D02*
X158400000Y-120300000D01*
%TO.N,GND*%
X149975000Y-116875000D02*
X149975000Y-117690000D01*
X149885000Y-117600000D02*
X151900000Y-117600000D01*
X149975000Y-117510000D02*
X149885000Y-117600000D01*
X149975000Y-116875000D02*
X149975000Y-117510000D01*
X149550000Y-116450000D02*
X149975000Y-116875000D01*
X148560002Y-115460002D02*
X149550000Y-116450000D01*
X141850000Y-128750000D02*
X141900000Y-128700000D01*
X140175000Y-128750000D02*
X141850000Y-128750000D01*
X132225000Y-128750000D02*
X140175000Y-128750000D01*
X129475000Y-128750000D02*
X132225000Y-128750000D01*
X121525000Y-128750000D02*
X129475000Y-128750000D01*
X126775000Y-110075000D02*
X125900000Y-109200000D01*
X127100000Y-110075000D02*
X126775000Y-110075000D01*
X127150000Y-110025000D02*
X127100000Y-110075000D01*
X130100000Y-110025000D02*
X127150000Y-110025000D01*
X132850000Y-82550000D02*
X132262500Y-82550000D01*
X133600000Y-81800000D02*
X132850000Y-82550000D01*
X133600000Y-80500000D02*
X133600000Y-81800000D01*
X133299500Y-80199500D02*
X133600000Y-80500000D01*
X131899695Y-80199500D02*
X133299500Y-80199500D01*
X131050000Y-81049195D02*
X131899695Y-80199500D01*
X131050000Y-81837500D02*
X131050000Y-81049195D01*
%TO.N,/PGOOD*%
X138900000Y-80600000D02*
X140200000Y-80600000D01*
X137900000Y-79600000D02*
X138900000Y-80600000D01*
X130550000Y-80650000D02*
X131600000Y-79600000D01*
X131600000Y-79600000D02*
X137900000Y-79600000D01*
X130550000Y-81837500D02*
X130550000Y-80650000D01*
%TO.N,/CHG*%
X141012500Y-79100000D02*
X141412500Y-79500000D01*
X127182538Y-79100000D02*
X141012500Y-79100000D01*
X125575000Y-80707538D02*
X127182538Y-79100000D01*
X125575000Y-82175000D02*
X125575000Y-80707538D01*
X126300000Y-82900000D02*
X125575000Y-82175000D01*
%TO.N,/PGOOD*%
X126700000Y-80800000D02*
X126300000Y-81200000D01*
X130550000Y-80800000D02*
X126700000Y-80800000D01*
X130550000Y-81837500D02*
X130550000Y-80800000D01*
%TO.N,GND*%
X127937500Y-81837500D02*
X127700000Y-81600000D01*
X130050000Y-81837500D02*
X127937500Y-81837500D01*
X124400000Y-84800000D02*
X123500000Y-83900000D01*
X124525000Y-84800000D02*
X124400000Y-84800000D01*
X128474999Y-89174999D02*
X127600000Y-88300000D01*
X128850000Y-89174999D02*
X128474999Y-89174999D01*
X132825001Y-89274999D02*
X134300000Y-87800000D01*
X132650000Y-89274999D02*
X132825001Y-89274999D01*
X130750001Y-89400000D02*
X132524999Y-89400000D01*
X132524999Y-89400000D02*
X132650000Y-89274999D01*
X136525000Y-86425000D02*
X136600000Y-86500000D01*
X136525000Y-85199998D02*
X136525000Y-86425000D01*
X136650000Y-83374999D02*
X136525000Y-83499999D01*
X136650000Y-81500000D02*
X136650000Y-83374999D01*
X136525000Y-83499999D02*
X136525000Y-85199998D01*
X149000000Y-79500000D02*
X148100000Y-78600000D01*
X149312500Y-79500000D02*
X149000000Y-79500000D01*
X153212500Y-79787500D02*
X152200000Y-80800000D01*
X153212500Y-79500000D02*
X153212500Y-79787500D01*
%TO.N,+BATT*%
X152100000Y-78200000D02*
X152700000Y-77600000D01*
X152100000Y-79600000D02*
X152100000Y-78200000D01*
X150700000Y-81000000D02*
X152100000Y-79600000D01*
X145100000Y-81000000D02*
X150700000Y-81000000D01*
X152700000Y-77600000D02*
X153175000Y-77600000D01*
X132300000Y-93800000D02*
X145100000Y-81000000D01*
%TO.N,VCC*%
X139000000Y-110800000D02*
X148200000Y-110800000D01*
X134600000Y-106400000D02*
X139000000Y-110800000D01*
X128600000Y-106400000D02*
X134600000Y-106400000D01*
X126300000Y-104100000D02*
X128600000Y-106400000D01*
X129100000Y-95000000D02*
X126300000Y-97800000D01*
X132300000Y-95000000D02*
X129100000Y-95000000D01*
X148200000Y-110800000D02*
X152060002Y-114660002D01*
X155900000Y-81800000D02*
X145500000Y-81800000D01*
X126300000Y-97800000D02*
X126300000Y-104100000D01*
X145500000Y-81800000D02*
X132300000Y-95000000D01*
X157700000Y-80800000D02*
X156900000Y-80800000D01*
X156900000Y-80800000D02*
X155900000Y-81800000D01*
%TO.N,/SDA*%
X161500000Y-88000000D02*
X161500000Y-91150000D01*
X162700000Y-86800000D02*
X161500000Y-88000000D01*
%TO.N,/SCL*%
X164000000Y-86800000D02*
X162300000Y-88500000D01*
X162300000Y-88500000D02*
X162300000Y-91150000D01*
%TO.N,/LED_EN*%
X165100000Y-87500000D02*
X163900000Y-88700000D01*
X163900000Y-88700000D02*
X163900000Y-91150000D01*
%TO.N,GND*%
X163100000Y-92900000D02*
X162600000Y-93400000D01*
X163100000Y-91150000D02*
X163100000Y-92900000D01*
X159525000Y-89975000D02*
X159250000Y-89700000D01*
X159525000Y-92950000D02*
X159525000Y-89975000D01*
X158875000Y-93600000D02*
X159525000Y-92950000D01*
X156800000Y-91475000D02*
X156800000Y-92200000D01*
X156800000Y-92200000D02*
X157500000Y-92900000D01*
X158200000Y-93600000D02*
X157500000Y-92900000D01*
X158875000Y-93600000D02*
X158200000Y-93600000D01*
%TO.N,/PGOOD*%
X140200000Y-84400000D02*
X140200000Y-80600000D01*
X124800000Y-98000000D02*
X128700000Y-94100000D01*
X124800000Y-109400000D02*
X124800000Y-98000000D01*
X126600000Y-111200000D02*
X124800000Y-109400000D01*
X133100000Y-111200000D02*
X126600000Y-111200000D01*
X142130000Y-120230000D02*
X133100000Y-111200000D01*
X128700000Y-94100000D02*
X130500000Y-94100000D01*
X130500000Y-94100000D02*
X140200000Y-84400000D01*
X145025000Y-120230000D02*
X142130000Y-120230000D01*
%TO.N,/SDA*%
X160900000Y-116200000D02*
X160900000Y-115100000D01*
%TO.N,/SCL*%
X159800000Y-117100000D02*
X159800000Y-114900000D01*
%TO.N,/LED_EN*%
X158700000Y-117900000D02*
X158700000Y-114700000D01*
%TO.N,+BATT*%
X126940000Y-93000000D02*
X127000000Y-93000000D01*
X124240000Y-90300000D02*
X126940000Y-93000000D01*
X127000000Y-93000000D02*
X122400000Y-97600000D01*
X128012299Y-91987701D02*
X127000000Y-93000000D01*
%TO.N,/BMSOUT*%
X123465000Y-87760000D02*
X126425000Y-84800000D01*
X121700000Y-87760000D02*
X123465000Y-87760000D01*
%TO.N,/SW5*%
X148000000Y-96000000D02*
X148000000Y-98612500D01*
X149800000Y-94200000D02*
X148000000Y-96000000D01*
%TO.N,+BATT*%
X128200000Y-120300000D02*
X128760000Y-120300000D01*
X122400000Y-114500000D02*
X128200000Y-120300000D01*
X122400000Y-97600000D02*
X122400000Y-114500000D01*
X128587701Y-91987701D02*
X128012299Y-91987701D01*
%TO.N,+5V*%
X129700000Y-88700000D02*
X130750001Y-87649999D01*
X123500000Y-98100000D02*
X129700000Y-91900000D01*
X123500000Y-113200000D02*
X123500000Y-98100000D01*
X128060000Y-117760000D02*
X123500000Y-113200000D01*
X128760000Y-117760000D02*
X128060000Y-117760000D01*
X129700000Y-91900000D02*
X129700000Y-88700000D01*
X130750001Y-87649999D02*
X130750001Y-87500000D01*
%TO.N,VCC*%
X154000000Y-121100000D02*
X153900000Y-121200000D01*
X155000000Y-121100000D02*
X154000000Y-121100000D01*
X153900000Y-122275000D02*
X153900000Y-121200000D01*
X155025000Y-127125000D02*
X155200000Y-127300000D01*
X153900000Y-121200000D02*
X153900000Y-116500000D01*
X153900000Y-127125000D02*
X155025000Y-127125000D01*
%TO.N,/LED_EN*%
X147710000Y-125310000D02*
X145025000Y-125310000D01*
X148700000Y-126300000D02*
X147710000Y-125310000D01*
X156100000Y-126300000D02*
X148700000Y-126300000D01*
X170900000Y-102500000D02*
X170900000Y-90900000D01*
X158700000Y-114700000D02*
X170900000Y-102500000D01*
X170900000Y-90900000D02*
X170400000Y-90400000D01*
%TO.N,VCC*%
X152060002Y-114660002D02*
X149805001Y-112405001D01*
X149805001Y-112405001D02*
X146750000Y-115460002D01*
X157700000Y-80800000D02*
X157700000Y-83000000D01*
X157700000Y-78100000D02*
X157700000Y-80800000D01*
X149275000Y-76700000D02*
X149275000Y-77600000D01*
X148375000Y-76700000D02*
X149275000Y-76700000D01*
X156300000Y-76700000D02*
X157700000Y-78100000D01*
X148375000Y-76700000D02*
X156300000Y-76700000D01*
X157225000Y-89925000D02*
X156800000Y-89925000D01*
X158400000Y-91100000D02*
X157225000Y-89925000D01*
X158700000Y-91100000D02*
X158400000Y-91100000D01*
X145275000Y-77600000D02*
X145275000Y-76725000D01*
X145300000Y-76700000D02*
X148375000Y-76700000D01*
X145275000Y-76725000D02*
X145300000Y-76700000D01*
X141400000Y-76700000D02*
X145300000Y-76700000D01*
X141375000Y-76725000D02*
X141400000Y-76700000D01*
X141375000Y-77600000D02*
X141375000Y-76725000D01*
X153900000Y-116500000D02*
X152060002Y-114660002D01*
%TO.N,+BATT*%
X135700000Y-87800000D02*
X135700000Y-82450000D01*
X135700000Y-82450000D02*
X134750000Y-81500000D01*
X130400000Y-92400000D02*
X131100000Y-92400000D01*
X131100000Y-92400000D02*
X135700000Y-87800000D01*
X133175000Y-83350000D02*
X133175000Y-83075000D01*
X132975000Y-83550000D02*
X133175000Y-83350000D01*
X132262500Y-83550000D02*
X132975000Y-83550000D01*
%TO.N,/BMSOUT*%
X131975500Y-80924500D02*
X131550000Y-81350000D01*
X131550000Y-81350000D02*
X131550000Y-81837500D01*
X132200000Y-80924500D02*
X131975500Y-80924500D01*
%TO.N,Net-(U6-ILIM)*%
X128200000Y-86400000D02*
X128850000Y-87050000D01*
X128200000Y-84500000D02*
X128200000Y-86400000D01*
X128650000Y-84050000D02*
X128200000Y-84500000D01*
X129337500Y-84050000D02*
X128650000Y-84050000D01*
X128850000Y-87050000D02*
X128850000Y-87524999D01*
%TO.N,/BMSOUT*%
X127512500Y-83712500D02*
X126425000Y-84800000D01*
X127675000Y-83550000D02*
X127512500Y-83712500D01*
X124650000Y-83025000D02*
X126425000Y-84800000D01*
X124650000Y-82900000D02*
X124650000Y-83025000D01*
X124650000Y-81200000D02*
X124650000Y-82900000D01*
%TO.N,+5V*%
X130050000Y-85850000D02*
X130050000Y-84762500D01*
X130750001Y-86550001D02*
X130050000Y-85850000D01*
X130750001Y-87500000D02*
X130750001Y-86550001D01*
%TO.N,/RX*%
X147400000Y-120200000D02*
X147430000Y-120230000D01*
X147430000Y-120230000D02*
X149975000Y-120230000D01*
%TO.N,/TX*%
X149975000Y-121500000D02*
X148100000Y-121500000D01*
%TO.N,/UPDI*%
X147370000Y-122770000D02*
X149975000Y-122770000D01*
X147300000Y-122700000D02*
X147370000Y-122770000D01*
%TO.N,/LIGHT_IN*%
X133200000Y-108412500D02*
X127212500Y-108412500D01*
X127212500Y-108412500D02*
X127100000Y-108525000D01*
X134012500Y-108412500D02*
X133200000Y-108412500D01*
X143915000Y-118315000D02*
X134012500Y-108412500D01*
X149975000Y-118960000D02*
X149330000Y-118315000D01*
%TO.N,/LIGHT_EN*%
X143060000Y-118960000D02*
X134087500Y-109987500D01*
X145025000Y-118960000D02*
X143060000Y-118960000D01*
X134087500Y-109987500D02*
X133200000Y-109987500D01*
%TO.N,/LIGHT_IN*%
X149330000Y-118315000D02*
X143915000Y-118315000D01*
%TO.N,/BU2*%
X129475000Y-124250000D02*
X121525000Y-124250000D01*
X131225000Y-126000000D02*
X129475000Y-124250000D01*
X144330000Y-122770000D02*
X141100000Y-126000000D01*
X145025000Y-122770000D02*
X144330000Y-122770000D01*
X141100000Y-126000000D02*
X131225000Y-126000000D01*
%TO.N,/BU1*%
X140175000Y-124250000D02*
X132225000Y-124250000D01*
X142925000Y-121500000D02*
X140175000Y-124250000D01*
X145025000Y-121500000D02*
X142925000Y-121500000D01*
%TO.N,/PGOOD*%
X140200000Y-80600000D02*
X144212500Y-80600000D01*
%TO.N,GND*%
X148300000Y-115460002D02*
X148560002Y-115460002D01*
%TO.N,VCC*%
X146539998Y-115460002D02*
X145025000Y-116975000D01*
X146750000Y-115460002D02*
X146539998Y-115460002D01*
X145025000Y-116975000D02*
X145025000Y-117690000D01*
%TO.N,GND*%
X166450000Y-120900000D02*
X166450000Y-121550000D01*
%TO.N,Net-(X1-VBU)*%
X166450000Y-120000000D02*
X167200000Y-120000000D01*
X167500000Y-120300000D02*
X167500000Y-122000000D01*
X167200000Y-120000000D02*
X167500000Y-120300000D01*
X167500000Y-122000000D02*
X166850000Y-122650000D01*
X166850000Y-122650000D02*
X166550000Y-122650000D01*
%TO.N,GND*%
X166450000Y-121550000D02*
X166200000Y-121800000D01*
X166200000Y-121800000D02*
X165750000Y-121800000D01*
X165750000Y-121800000D02*
X164900000Y-122650000D01*
%TO.N,/SCL*%
X159800000Y-114900000D02*
X171700000Y-103000000D01*
X171700000Y-103000000D02*
X171700000Y-90400000D01*
X171700000Y-90400000D02*
X170300000Y-89000000D01*
%TO.N,/CS3*%
X166300000Y-92800000D02*
X166300000Y-91150000D01*
X169200000Y-95700000D02*
X166300000Y-92800000D01*
X169200000Y-101308962D02*
X169200000Y-95700000D01*
X168704481Y-101804481D02*
X169200000Y-101308962D01*
%TO.N,/CS2*%
X165500000Y-93100000D02*
X165500000Y-91150000D01*
X168300000Y-95900000D02*
X165500000Y-93100000D01*
X168300000Y-97400000D02*
X168300000Y-95900000D01*
%TO.N,/CS1*%
X164700000Y-92600000D02*
X164700000Y-91150000D01*
%TO.N,Net-(U7-ISET)*%
X160700000Y-93425000D02*
X160700000Y-91150000D01*
X160525000Y-93600000D02*
X160700000Y-93425000D01*
%TO.N,/SW1*%
X156900000Y-88100000D02*
X159250000Y-88100000D01*
X164084315Y-95200000D02*
X158000000Y-95200000D01*
%TO.N,/SW3*%
X145100000Y-95200000D02*
X147600000Y-95200000D01*
%TO.N,/SW4*%
X135100000Y-94900000D02*
X135600000Y-94400000D01*
X135600000Y-94400000D02*
X147300000Y-94400000D01*
%TO.N,/SW5*%
X155600000Y-84900000D02*
X159250000Y-84900000D01*
%TO.N,/CS7*%
X166295391Y-87795391D02*
X166790782Y-87300000D01*
%TO.N,/CS6*%
X167015380Y-88100000D02*
X167750000Y-88100000D01*
X166300000Y-88815380D02*
X167015380Y-88100000D01*
%TO.N,/SW4*%
X147300000Y-94400000D02*
X156000000Y-85700000D01*
%TO.N,/CS6*%
X166300000Y-88900000D02*
X166300000Y-88815380D01*
%TO.N,/SW1*%
X155300000Y-92500000D02*
X155300000Y-89700000D01*
%TO.N,/CS5*%
X169200000Y-89300000D02*
X168800000Y-88900000D01*
X169200000Y-92800000D02*
X169200000Y-89300000D01*
%TO.N,/SW1*%
X158000000Y-95200000D02*
X155300000Y-92500000D01*
%TO.N,/CS4*%
X167750000Y-92950000D02*
X167750000Y-89700000D01*
%TO.N,/SW2*%
X154619569Y-89380431D02*
X156700000Y-87300000D01*
%TO.N,/CS7*%
X166790782Y-87300000D02*
X167750000Y-87300000D01*
%TO.N,/SW3*%
X147600000Y-95200000D02*
X156300000Y-86500000D01*
X156300000Y-86500000D02*
X159250000Y-86500000D01*
%TO.N,/SW1*%
X155300000Y-89700000D02*
X156900000Y-88100000D01*
%TO.N,VCC*%
X156800000Y-89925000D02*
X157825000Y-88900000D01*
%TO.N,/CS5*%
X168800000Y-88900000D02*
X167750000Y-88900000D01*
%TO.N,/CS4*%
X170000000Y-100200000D02*
X170000000Y-95200000D01*
%TO.N,VCC*%
X157825000Y-88900000D02*
X159250000Y-88900000D01*
%TO.N,/CS4*%
X170000000Y-95200000D02*
X167750000Y-92950000D01*
%TO.N,/SW5*%
X148100000Y-92400000D02*
X155600000Y-84900000D01*
%TO.N,/SW2*%
X154619569Y-95164746D02*
X154619569Y-89380431D01*
%TO.N,/SW1*%
X164119569Y-95164746D02*
X164084315Y-95200000D01*
%TO.N,/SW2*%
X156700000Y-87300000D02*
X159250000Y-87300000D01*
%TO.N,/SW4*%
X156000000Y-85700000D02*
X159250000Y-85700000D01*
%TO.N,/SDA*%
X172400000Y-89800000D02*
X170400000Y-87800000D01*
X172400000Y-103600000D02*
X172400000Y-89800000D01*
X160900000Y-115100000D02*
X172400000Y-103600000D01*
%TO.N,/SCL*%
X153975000Y-124000000D02*
X153900000Y-123925000D01*
X159000000Y-124000000D02*
X153975000Y-124000000D01*
X159800000Y-123200000D02*
X159000000Y-124000000D01*
X163000000Y-120000000D02*
X165000000Y-120000000D01*
X159800000Y-123200000D02*
X163000000Y-120000000D01*
%TO.N,/SDA*%
X164000000Y-120900000D02*
X160900000Y-124000000D01*
X165000000Y-120900000D02*
X164000000Y-120900000D01*
X159625000Y-125275000D02*
X160900000Y-124000000D01*
%TO.N,/RTC_CLK*%
X158200000Y-123200000D02*
X163200000Y-118200000D01*
X151800000Y-123200000D02*
X158200000Y-123200000D01*
X148400000Y-123400000D02*
X151600000Y-123400000D01*
X163200000Y-118200000D02*
X165000000Y-118200000D01*
X145025000Y-124040000D02*
X147760000Y-124040000D01*
X147760000Y-124040000D02*
X148400000Y-123400000D01*
X151600000Y-123400000D02*
X151800000Y-123200000D01*
%TO.N,Net-(X1-EVI)*%
X166450000Y-116550000D02*
X166550000Y-116450000D01*
X166450000Y-118200000D02*
X166450000Y-116550000D01*
%TO.N,VCC*%
X166450000Y-119100000D02*
X168225000Y-119100000D01*
X168225000Y-119100000D02*
X168550000Y-118775000D01*
%TO.N,/SDA*%
X154100000Y-125275000D02*
X159625000Y-125275000D01*
X153900000Y-125475000D02*
X154100000Y-125275000D01*
%TO.N,/SCL*%
X153785000Y-124040000D02*
X153900000Y-123925000D01*
X149975000Y-124040000D02*
X153785000Y-124040000D01*
%TO.N,/SDA*%
X153735000Y-125310000D02*
X153900000Y-125475000D01*
X149975000Y-125310000D02*
X153735000Y-125310000D01*
%TO.N,+BATT*%
X134700000Y-81500000D02*
X134750000Y-81500000D01*
X133175000Y-83075000D02*
X133175000Y-83025000D01*
X133175000Y-83025000D02*
X134700000Y-81500000D01*
X133150000Y-83050000D02*
X133175000Y-83075000D01*
X132262500Y-83050000D02*
X133150000Y-83050000D01*
%TO.N,Net-(D3-A)*%
X154825000Y-79462500D02*
X154787500Y-79500000D01*
X154825000Y-77600000D02*
X154825000Y-79462500D01*
%TO.N,Net-(D4-A)*%
X150925000Y-79462500D02*
X150887500Y-79500000D01*
X150925000Y-77600000D02*
X150925000Y-79462500D01*
%TO.N,/CHG*%
X126900000Y-82900000D02*
X126300000Y-82900000D01*
X127250000Y-82550000D02*
X126900000Y-82900000D01*
X129337500Y-82550000D02*
X127250000Y-82550000D01*
%TO.N,Net-(D2-A)*%
X142987500Y-77637500D02*
X143025000Y-77600000D01*
X142987500Y-79500000D02*
X142987500Y-77637500D01*
%TO.N,Net-(D1-A)*%
X146887500Y-77637500D02*
X146925000Y-77600000D01*
X146887500Y-79500000D02*
X146887500Y-77637500D01*
%TO.N,/PGOOD*%
X144212500Y-80600000D02*
X145312500Y-79500000D01*
%TO.N,Net-(U6-TS)*%
X133900001Y-83499999D02*
X134875000Y-83499999D01*
X133350000Y-84050000D02*
X133900001Y-83499999D01*
X132262500Y-84050000D02*
X133350000Y-84050000D01*
%TO.N,Net-(U6-ISET)*%
X134274998Y-85800000D02*
X134875000Y-85199998D01*
X131550000Y-85450000D02*
X131900000Y-85800000D01*
X131900000Y-85800000D02*
X134274998Y-85800000D01*
X131550000Y-84762500D02*
X131550000Y-85450000D01*
%TO.N,Net-(U6-TD)*%
X132650000Y-87250000D02*
X132650000Y-87624999D01*
X131050000Y-85650000D02*
X132650000Y-87250000D01*
X131050000Y-84762500D02*
X131050000Y-85650000D01*
%TO.N,/BMSOUT*%
X129337500Y-83550000D02*
X127675000Y-83550000D01*
X129337500Y-83050000D02*
X129337500Y-83550000D01*
%TO.N,/CS7*%
X148000000Y-99863604D02*
X148000000Y-100187500D01*
X148900000Y-98963604D02*
X148000000Y-99863604D01*
X148900000Y-97824500D02*
X148900000Y-98963604D01*
%TO.N,/CS6*%
X150311593Y-98188407D02*
X151039672Y-98188407D01*
X149000000Y-99500000D02*
X150311593Y-98188407D01*
X149000000Y-100812500D02*
X149000000Y-99500000D01*
X148000000Y-101812500D02*
X149000000Y-100812500D01*
%TO.N,/SW5*%
X147200000Y-99412500D02*
X148000000Y-98612500D01*
X147200000Y-102800000D02*
X147200000Y-99412500D01*
X147787500Y-103387500D02*
X147200000Y-102800000D01*
X148000000Y-103387500D02*
X147787500Y-103387500D01*
%TO.N,/CS2*%
X145814101Y-100414101D02*
X145287190Y-100414101D01*
X146734830Y-104534830D02*
X146734830Y-101334830D01*
X149412500Y-107212500D02*
X146734830Y-104534830D01*
X150000001Y-107212500D02*
X149412500Y-107212500D01*
X146734830Y-101334830D02*
X145814101Y-100414101D01*
%TO.N,/SW5*%
X153100000Y-107893750D02*
X152206250Y-108787500D01*
X152206250Y-108787500D02*
X152000000Y-108787500D01*
X151200000Y-104900000D02*
X153100000Y-106800000D01*
X153100000Y-106800000D02*
X153100000Y-107893750D01*
X149512500Y-104900000D02*
X151200000Y-104900000D01*
X148000000Y-103387500D02*
X149512500Y-104900000D01*
%TO.N,/CS5*%
X144000000Y-106800000D02*
X144000000Y-107212500D01*
X142800000Y-105600000D02*
X144000000Y-106800000D01*
X141500000Y-105600000D02*
X142800000Y-105600000D01*
%TO.N,/CS1*%
X152000000Y-107000000D02*
X150900000Y-105900000D01*
X152000000Y-107212500D02*
X152000000Y-107000000D01*
%TO.N,/CS3*%
X144932101Y-103732101D02*
X144821190Y-103732101D01*
X148000000Y-106800000D02*
X144932101Y-103732101D01*
X148000000Y-107212500D02*
X148000000Y-106800000D01*
%TO.N,/CS4*%
X144500000Y-104700000D02*
X143600000Y-104700000D01*
X145999999Y-106199999D02*
X144500000Y-104700000D01*
X145999999Y-107212500D02*
X145999999Y-106199999D01*
%TO.N,/CS6*%
X148000000Y-101812500D02*
X148000000Y-101600000D01*
%TO.N,/SW5*%
X145999999Y-108787500D02*
X152000000Y-108787500D01*
X145999999Y-108787500D02*
X144000000Y-108787500D01*
%TO.N,/SW2*%
X154619569Y-95164746D02*
X153466000Y-96318315D01*
X157119569Y-95164746D02*
X154619569Y-95164746D01*
X157919569Y-98063847D02*
X157919569Y-95964746D01*
X153466000Y-96318315D02*
X153466000Y-99934000D01*
X153466000Y-99934000D02*
X153000000Y-100400000D01*
X157585105Y-98398311D02*
X157919569Y-98063847D01*
X157919569Y-95964746D02*
X157119569Y-95164746D01*
%TO.N,/SW1*%
X167419569Y-98063847D02*
X167085105Y-98398311D01*
X164119569Y-95164746D02*
X166619569Y-95164746D01*
X166619569Y-95164746D02*
X167419569Y-95964746D01*
X162966000Y-96318315D02*
X164119569Y-95164746D01*
X167419569Y-95964746D02*
X167419569Y-98063847D01*
X162966000Y-99934000D02*
X162966000Y-96318315D01*
X162500000Y-100400000D02*
X162966000Y-99934000D01*
%TO.N,/CS2*%
X136150577Y-100382000D02*
X135819291Y-100382000D01*
X136716552Y-99816025D02*
X136150577Y-100382000D01*
%TO.N,/SW4*%
X131512532Y-101348330D02*
X131512532Y-100403153D01*
X132264202Y-102100000D02*
X131512532Y-101348330D01*
X135631637Y-101719464D02*
X135251101Y-102100000D01*
X135251101Y-102100000D02*
X132264202Y-102100000D01*
%TO.N,/SW2*%
X153754823Y-102100000D02*
X153000000Y-101345177D01*
X156735416Y-102100000D02*
X153754823Y-102100000D01*
X153000000Y-101345177D02*
X153000000Y-100400000D01*
X157119105Y-101716311D02*
X156735416Y-102100000D01*
%TO.N,/CS3*%
X157855936Y-103153026D02*
X157312115Y-103696847D01*
X157312115Y-103696847D02*
X156840759Y-103696847D01*
%TO.N,/CS2*%
X157637288Y-100378847D02*
X157306759Y-100378847D01*
X158203743Y-99812392D02*
X157637288Y-100378847D01*
X167137288Y-100378847D02*
X166806759Y-100378847D01*
X167703743Y-99812392D02*
X167137288Y-100378847D01*
%TO.N,/CS3*%
X166812115Y-103696847D02*
X166340759Y-103696847D01*
X167355936Y-103153026D02*
X166812115Y-103696847D01*
%TO.N,/SW1*%
X162500000Y-101345177D02*
X162500000Y-100400000D01*
X166235416Y-102100000D02*
X163254823Y-102100000D01*
X163254823Y-102100000D02*
X162500000Y-101345177D01*
X166619105Y-101716311D02*
X166235416Y-102100000D01*
%TO.N,/CS5*%
X159219569Y-102080431D02*
X159200000Y-102100000D01*
X159219569Y-102064746D02*
X159219569Y-102080431D01*
%TO.N,/SW1*%
X162233689Y-100133689D02*
X162500000Y-100400000D01*
X160280895Y-100133689D02*
X162233689Y-100133689D01*
%TO.N,/CS4*%
X164034000Y-103717000D02*
X164034000Y-102779177D01*
%TO.N,/CS7*%
X164500000Y-99545177D02*
X163919569Y-98964746D01*
X164500000Y-100400000D02*
X164500000Y-99545177D01*
%TO.N,/CS4*%
X164171823Y-103717000D02*
X165119569Y-104664746D01*
X164034000Y-103717000D02*
X164171823Y-103717000D01*
%TO.N,/SW1*%
X160080206Y-103717000D02*
X159814895Y-103451689D01*
X162034000Y-103717000D02*
X160080206Y-103717000D01*
X162034000Y-103717000D02*
X162034000Y-100866000D01*
X162034000Y-100866000D02*
X162500000Y-100400000D01*
%TO.N,/CS1*%
X165401315Y-97083000D02*
X166319569Y-96164746D01*
X164966000Y-97083000D02*
X165401315Y-97083000D01*
%TO.N,/CS5*%
X159813162Y-101471153D02*
X159219569Y-102064746D01*
X160093241Y-101471153D02*
X159813162Y-101471153D01*
%TO.N,/CS6*%
X160559241Y-98153153D02*
X160559241Y-98025074D01*
X160559241Y-98025074D02*
X161519569Y-97064746D01*
%TO.N,/CS5*%
X149719569Y-102080431D02*
X149700000Y-102100000D01*
X149719569Y-102064746D02*
X149719569Y-102080431D01*
%TO.N,/SW2*%
X152733689Y-100133689D02*
X153000000Y-100400000D01*
X150780895Y-100133689D02*
X152733689Y-100133689D01*
%TO.N,/CS4*%
X154534000Y-103717000D02*
X154534000Y-102779177D01*
%TO.N,/CS7*%
X155000000Y-99545177D02*
X154419569Y-98964746D01*
X155000000Y-100400000D02*
X155000000Y-99545177D01*
%TO.N,/CS4*%
X154671823Y-103717000D02*
X155619569Y-104664746D01*
X154534000Y-103717000D02*
X154671823Y-103717000D01*
%TO.N,/SW2*%
X150580206Y-103717000D02*
X150314895Y-103451689D01*
X152534000Y-103717000D02*
X150580206Y-103717000D01*
X152534000Y-103717000D02*
X152534000Y-100866000D01*
X152534000Y-100866000D02*
X153000000Y-100400000D01*
%TO.N,/CS1*%
X155901315Y-97083000D02*
X156819569Y-96164746D01*
X155466000Y-97083000D02*
X155901315Y-97083000D01*
%TO.N,/CS5*%
X150313162Y-101471153D02*
X149719569Y-102064746D01*
X150593241Y-101471153D02*
X150313162Y-101471153D01*
%TO.N,/CS6*%
X151059241Y-98153153D02*
X151059241Y-98025074D01*
X151059241Y-98025074D02*
X152019569Y-97064746D01*
%TO.N,/CS1*%
X134381746Y-97118254D02*
X135300000Y-96200000D01*
X133946431Y-97118254D02*
X134381746Y-97118254D01*
X143881746Y-97118254D02*
X144800000Y-96200000D01*
X143446431Y-97118254D02*
X143881746Y-97118254D01*
%TO.N,/SW4*%
X131978532Y-99937153D02*
X131512532Y-100403153D01*
X131978532Y-96321468D02*
X131978532Y-99937153D01*
X133400000Y-94900000D02*
X131978532Y-96321468D01*
X136600000Y-96400000D02*
X135100000Y-94900000D01*
X136600000Y-97899101D02*
X136600000Y-96400000D01*
X135100000Y-94900000D02*
X133400000Y-94900000D01*
X136097637Y-98401464D02*
X136600000Y-97899101D01*
%TO.N,/SW3*%
X141446431Y-96353569D02*
X141446431Y-97118254D01*
X145100000Y-95200000D02*
X142600000Y-95200000D01*
X145900000Y-96000000D02*
X145100000Y-95200000D01*
X142600000Y-95200000D02*
X141446431Y-96353569D01*
X145900000Y-98099101D02*
X145900000Y-96000000D01*
X145565536Y-98433565D02*
X145900000Y-98099101D01*
%TO.N,/CS3*%
X145844477Y-103151893D02*
X145264269Y-103732101D01*
X145264269Y-103732101D02*
X144821190Y-103732101D01*
X136287043Y-103142820D02*
X135729863Y-103700000D01*
X135729863Y-103700000D02*
X135353291Y-103700000D01*
%TO.N,/SW4*%
X131246221Y-100136842D02*
X131512532Y-100403153D01*
X129293427Y-100136842D02*
X131246221Y-100136842D01*
%TO.N,/CS4*%
X133046532Y-103720153D02*
X133046532Y-102782330D01*
%TO.N,/CS7*%
X133512532Y-99548330D02*
X132932101Y-98967899D01*
X133512532Y-100403153D02*
X133512532Y-99548330D01*
%TO.N,/CS4*%
X133184355Y-103720153D02*
X134132101Y-104667899D01*
X133046532Y-103720153D02*
X133184355Y-103720153D01*
%TO.N,/SW4*%
X129092738Y-103720153D02*
X128827427Y-103454842D01*
X131046532Y-103720153D02*
X129092738Y-103720153D01*
X131046532Y-103720153D02*
X131046532Y-100869153D01*
X131046532Y-100869153D02*
X131512532Y-100403153D01*
%TO.N,/CS5*%
X128825694Y-101474306D02*
X128232101Y-102067899D01*
X129105773Y-101474306D02*
X128825694Y-101474306D01*
%TO.N,/CS6*%
X129571773Y-98156306D02*
X129571773Y-98028227D01*
X129571773Y-98028227D02*
X130532101Y-97067899D01*
%TO.N,/SW3*%
X140980431Y-101380431D02*
X140980431Y-100435254D01*
X141661118Y-102061118D02*
X140980431Y-101380431D01*
X145099536Y-101751565D02*
X144789983Y-102061118D01*
X144789983Y-102061118D02*
X141661118Y-102061118D01*
X141446431Y-99969254D02*
X140980431Y-100435254D01*
X141446431Y-97118254D02*
X141446431Y-99969254D01*
X138761326Y-100168943D02*
X140714120Y-100168943D01*
X140714120Y-100168943D02*
X140980431Y-100435254D01*
X140514431Y-100901254D02*
X140980431Y-100435254D01*
X140514431Y-103752254D02*
X140514431Y-100901254D01*
X138560637Y-103752254D02*
X138295326Y-103486943D01*
X140514431Y-103752254D02*
X138560637Y-103752254D01*
%TO.N,/CS4*%
X142652254Y-103752254D02*
X143600000Y-104700000D01*
X142514431Y-103752254D02*
X142652254Y-103752254D01*
%TO.N,/CS5*%
X138293593Y-101506407D02*
X137700000Y-102100000D01*
X138573672Y-101506407D02*
X138293593Y-101506407D01*
%TO.N,/CS6*%
X139039672Y-98188407D02*
X139039672Y-98060328D01*
X139039672Y-98060328D02*
X140000000Y-97100000D01*
%TO.N,/CS4*%
X142514431Y-103752254D02*
X142514431Y-102814431D01*
%TO.N,/CS7*%
X142980431Y-99580431D02*
X142400000Y-99000000D01*
X142980431Y-100435254D02*
X142980431Y-99580431D01*
%TO.N,/CS2*%
X145593055Y-100414101D02*
X146196764Y-99810392D01*
X145287190Y-100414101D02*
X145593055Y-100414101D01*
%TO.N,/CS7*%
X133480431Y-100435254D02*
X133480431Y-100822479D01*
X154980431Y-100435254D02*
X154980431Y-100822479D01*
%TD*%
M02*
