%TF.GenerationSoftware,KiCad,Pcbnew,7.0.7*%
%TF.CreationDate,2024-05-19T19:47:01+02:00*%
%TF.ProjectId,Heptachron,48657074-6163-4687-926f-6e2e6b696361,rev?*%
%TF.SameCoordinates,Original*%
%TF.FileFunction,Copper,L1,Top*%
%TF.FilePolarity,Positive*%
%FSLAX46Y46*%
G04 Gerber Fmt 4.6, Leading zero omitted, Abs format (unit mm)*
G04 Created by KiCad (PCBNEW 7.0.7) date 2024-05-19 19:47:01*
%MOMM*%
%LPD*%
G01*
G04 APERTURE LIST*
G04 Aperture macros list*
%AMRoundRect*
0 Rectangle with rounded corners*
0 $1 Rounding radius*
0 $2 $3 $4 $5 $6 $7 $8 $9 X,Y pos of 4 corners*
0 Add a 4 corners polygon primitive as box body*
4,1,4,$2,$3,$4,$5,$6,$7,$8,$9,$2,$3,0*
0 Add four circle primitives for the rounded corners*
1,1,$1+$1,$2,$3*
1,1,$1+$1,$4,$5*
1,1,$1+$1,$6,$7*
1,1,$1+$1,$8,$9*
0 Add four rect primitives between the rounded corners*
20,1,$1+$1,$2,$3,$4,$5,0*
20,1,$1+$1,$4,$5,$6,$7,0*
20,1,$1+$1,$6,$7,$8,$9,0*
20,1,$1+$1,$8,$9,$2,$3,0*%
G04 Aperture macros list end*
%TA.AperFunction,EtchedComponent*%
%ADD10C,0.010000*%
%TD*%
%TA.AperFunction,SMDPad,CuDef*%
%ADD11R,1.100000X0.700000*%
%TD*%
%TA.AperFunction,ComponentPad*%
%ADD12C,1.200000*%
%TD*%
%TA.AperFunction,SMDPad,CuDef*%
%ADD13R,1.100000X1.400000*%
%TD*%
%TA.AperFunction,SMDPad,CuDef*%
%ADD14RoundRect,0.218750X-0.256250X0.218750X-0.256250X-0.218750X0.256250X-0.218750X0.256250X0.218750X0*%
%TD*%
%TA.AperFunction,SMDPad,CuDef*%
%ADD15RoundRect,0.250000X-0.250000X-0.475000X0.250000X-0.475000X0.250000X0.475000X-0.250000X0.475000X0*%
%TD*%
%TA.AperFunction,SMDPad,CuDef*%
%ADD16RoundRect,0.200000X-0.200000X-0.275000X0.200000X-0.275000X0.200000X0.275000X-0.200000X0.275000X0*%
%TD*%
%TA.AperFunction,SMDPad,CuDef*%
%ADD17C,1.000000*%
%TD*%
%TA.AperFunction,SMDPad,CuDef*%
%ADD18RoundRect,0.218750X-0.218750X-0.256250X0.218750X-0.256250X0.218750X0.256250X-0.218750X0.256250X0*%
%TD*%
%TA.AperFunction,SMDPad,CuDef*%
%ADD19RoundRect,0.200000X0.200000X0.275000X-0.200000X0.275000X-0.200000X-0.275000X0.200000X-0.275000X0*%
%TD*%
%TA.AperFunction,ComponentPad*%
%ADD20C,2.750000*%
%TD*%
%TA.AperFunction,SMDPad,CuDef*%
%ADD21RoundRect,0.250000X0.250000X-0.550000X0.250000X0.550000X-0.250000X0.550000X-0.250000X-0.550000X0*%
%TD*%
%TA.AperFunction,SMDPad,CuDef*%
%ADD22RoundRect,0.250000X-0.579441X-0.171022X0.509854X-0.324112X0.579441X0.171022X-0.509854X0.324112X0*%
%TD*%
%TA.AperFunction,SMDPad,CuDef*%
%ADD23RoundRect,0.250000X0.579441X0.171022X-0.509854X0.324112X-0.579441X-0.171022X0.509854X-0.324112X0*%
%TD*%
%TA.AperFunction,SMDPad,CuDef*%
%ADD24RoundRect,0.225000X0.250000X-0.225000X0.250000X0.225000X-0.250000X0.225000X-0.250000X-0.225000X0*%
%TD*%
%TA.AperFunction,SMDPad,CuDef*%
%ADD25RoundRect,0.225000X0.225000X0.250000X-0.225000X0.250000X-0.225000X-0.250000X0.225000X-0.250000X0*%
%TD*%
%TA.AperFunction,SMDPad,CuDef*%
%ADD26R,1.050000X0.500000*%
%TD*%
%TA.AperFunction,SMDPad,CuDef*%
%ADD27RoundRect,0.218750X0.256250X-0.218750X0.256250X0.218750X-0.256250X0.218750X-0.256250X-0.218750X0*%
%TD*%
%TA.AperFunction,SMDPad,CuDef*%
%ADD28RoundRect,0.250000X0.250000X0.475000X-0.250000X0.475000X-0.250000X-0.475000X0.250000X-0.475000X0*%
%TD*%
%TA.AperFunction,SMDPad,CuDef*%
%ADD29R,0.750000X0.200000*%
%TD*%
%TA.AperFunction,SMDPad,CuDef*%
%ADD30R,1.000000X1.600000*%
%TD*%
%TA.AperFunction,ViaPad*%
%ADD31C,0.400000*%
%TD*%
%TA.AperFunction,Conductor*%
%ADD32C,0.100000*%
%TD*%
%TA.AperFunction,Conductor*%
%ADD33C,0.200000*%
%TD*%
G04 APERTURE END LIST*
%TO.C,SW2*%
D10*
X128400000Y-104800000D02*
X128400000Y-105175000D01*
X128399000Y-105196000D01*
X128398000Y-105217000D01*
X128395000Y-105238000D01*
X128391000Y-105258000D01*
X128386000Y-105279000D01*
X128380000Y-105299000D01*
X128373000Y-105318000D01*
X128365000Y-105338000D01*
X128356000Y-105357000D01*
X128346000Y-105375000D01*
X128335000Y-105393000D01*
X128324000Y-105410000D01*
X128311000Y-105427000D01*
X128297000Y-105443000D01*
X128283000Y-105458000D01*
X128268000Y-105472000D01*
X128252000Y-105486000D01*
X128235000Y-105499000D01*
X128218000Y-105510000D01*
X128200000Y-105521000D01*
X128182000Y-105531000D01*
X128163000Y-105540000D01*
X128143000Y-105548000D01*
X128124000Y-105555000D01*
X128104000Y-105561000D01*
X128083000Y-105566000D01*
X128063000Y-105570000D01*
X128042000Y-105573000D01*
X128021000Y-105574000D01*
X128000000Y-105575000D01*
X127700000Y-105575000D01*
X127700000Y-105850000D01*
X127250000Y-105850000D01*
X127250000Y-104900000D01*
X127550000Y-104700000D01*
X128400000Y-104800000D01*
%TA.AperFunction,EtchedComponent*%
G36*
X128400000Y-104800000D02*
G01*
X128400000Y-105175000D01*
X128399000Y-105196000D01*
X128398000Y-105217000D01*
X128395000Y-105238000D01*
X128391000Y-105258000D01*
X128386000Y-105279000D01*
X128380000Y-105299000D01*
X128373000Y-105318000D01*
X128365000Y-105338000D01*
X128356000Y-105357000D01*
X128346000Y-105375000D01*
X128335000Y-105393000D01*
X128324000Y-105410000D01*
X128311000Y-105427000D01*
X128297000Y-105443000D01*
X128283000Y-105458000D01*
X128268000Y-105472000D01*
X128252000Y-105486000D01*
X128235000Y-105499000D01*
X128218000Y-105510000D01*
X128200000Y-105521000D01*
X128182000Y-105531000D01*
X128163000Y-105540000D01*
X128143000Y-105548000D01*
X128124000Y-105555000D01*
X128104000Y-105561000D01*
X128083000Y-105566000D01*
X128063000Y-105570000D01*
X128042000Y-105573000D01*
X128021000Y-105574000D01*
X128000000Y-105575000D01*
X127700000Y-105575000D01*
X127700000Y-105850000D01*
X127250000Y-105850000D01*
X127250000Y-104900000D01*
X127550000Y-104700000D01*
X128400000Y-104800000D01*
G37*
%TD.AperFunction*%
X127700000Y-108425000D02*
X128000000Y-108425000D01*
X128021000Y-108426000D01*
X128042000Y-108427000D01*
X128063000Y-108430000D01*
X128083000Y-108434000D01*
X128104000Y-108439000D01*
X128124000Y-108445000D01*
X128143000Y-108452000D01*
X128163000Y-108460000D01*
X128182000Y-108469000D01*
X128200000Y-108479000D01*
X128218000Y-108490000D01*
X128235000Y-108501000D01*
X128252000Y-108514000D01*
X128268000Y-108528000D01*
X128283000Y-108542000D01*
X128297000Y-108557000D01*
X128311000Y-108573000D01*
X128324000Y-108590000D01*
X128335000Y-108607000D01*
X128346000Y-108625000D01*
X128356000Y-108643000D01*
X128365000Y-108662000D01*
X128373000Y-108682000D01*
X128380000Y-108701000D01*
X128386000Y-108721000D01*
X128391000Y-108742000D01*
X128395000Y-108762000D01*
X128398000Y-108783000D01*
X128399000Y-108804000D01*
X128400000Y-108825000D01*
X128400000Y-109150000D01*
X127700000Y-109300000D01*
X127600000Y-109300000D01*
X127250000Y-109150000D01*
X127250000Y-108150000D01*
X127700000Y-108150000D01*
X127700000Y-108425000D01*
%TA.AperFunction,EtchedComponent*%
G36*
X127700000Y-108425000D02*
G01*
X128000000Y-108425000D01*
X128021000Y-108426000D01*
X128042000Y-108427000D01*
X128063000Y-108430000D01*
X128083000Y-108434000D01*
X128104000Y-108439000D01*
X128124000Y-108445000D01*
X128143000Y-108452000D01*
X128163000Y-108460000D01*
X128182000Y-108469000D01*
X128200000Y-108479000D01*
X128218000Y-108490000D01*
X128235000Y-108501000D01*
X128252000Y-108514000D01*
X128268000Y-108528000D01*
X128283000Y-108542000D01*
X128297000Y-108557000D01*
X128311000Y-108573000D01*
X128324000Y-108590000D01*
X128335000Y-108607000D01*
X128346000Y-108625000D01*
X128356000Y-108643000D01*
X128365000Y-108662000D01*
X128373000Y-108682000D01*
X128380000Y-108701000D01*
X128386000Y-108721000D01*
X128391000Y-108742000D01*
X128395000Y-108762000D01*
X128398000Y-108783000D01*
X128399000Y-108804000D01*
X128400000Y-108825000D01*
X128400000Y-109150000D01*
X127700000Y-109300000D01*
X127600000Y-109300000D01*
X127250000Y-109150000D01*
X127250000Y-108150000D01*
X127700000Y-108150000D01*
X127700000Y-108425000D01*
G37*
%TD.AperFunction*%
%TO.C,SW1*%
X128400000Y-92800000D02*
X128400000Y-93175000D01*
X128399000Y-93196000D01*
X128398000Y-93217000D01*
X128395000Y-93238000D01*
X128391000Y-93258000D01*
X128386000Y-93279000D01*
X128380000Y-93299000D01*
X128373000Y-93318000D01*
X128365000Y-93338000D01*
X128356000Y-93357000D01*
X128346000Y-93375000D01*
X128335000Y-93393000D01*
X128324000Y-93410000D01*
X128311000Y-93427000D01*
X128297000Y-93443000D01*
X128283000Y-93458000D01*
X128268000Y-93472000D01*
X128252000Y-93486000D01*
X128235000Y-93499000D01*
X128218000Y-93510000D01*
X128200000Y-93521000D01*
X128182000Y-93531000D01*
X128163000Y-93540000D01*
X128143000Y-93548000D01*
X128124000Y-93555000D01*
X128104000Y-93561000D01*
X128083000Y-93566000D01*
X128063000Y-93570000D01*
X128042000Y-93573000D01*
X128021000Y-93574000D01*
X128000000Y-93575000D01*
X127700000Y-93575000D01*
X127700000Y-93850000D01*
X127250000Y-93850000D01*
X127250000Y-92900000D01*
X127550000Y-92700000D01*
X128400000Y-92800000D01*
%TA.AperFunction,EtchedComponent*%
G36*
X128400000Y-92800000D02*
G01*
X128400000Y-93175000D01*
X128399000Y-93196000D01*
X128398000Y-93217000D01*
X128395000Y-93238000D01*
X128391000Y-93258000D01*
X128386000Y-93279000D01*
X128380000Y-93299000D01*
X128373000Y-93318000D01*
X128365000Y-93338000D01*
X128356000Y-93357000D01*
X128346000Y-93375000D01*
X128335000Y-93393000D01*
X128324000Y-93410000D01*
X128311000Y-93427000D01*
X128297000Y-93443000D01*
X128283000Y-93458000D01*
X128268000Y-93472000D01*
X128252000Y-93486000D01*
X128235000Y-93499000D01*
X128218000Y-93510000D01*
X128200000Y-93521000D01*
X128182000Y-93531000D01*
X128163000Y-93540000D01*
X128143000Y-93548000D01*
X128124000Y-93555000D01*
X128104000Y-93561000D01*
X128083000Y-93566000D01*
X128063000Y-93570000D01*
X128042000Y-93573000D01*
X128021000Y-93574000D01*
X128000000Y-93575000D01*
X127700000Y-93575000D01*
X127700000Y-93850000D01*
X127250000Y-93850000D01*
X127250000Y-92900000D01*
X127550000Y-92700000D01*
X128400000Y-92800000D01*
G37*
%TD.AperFunction*%
X127700000Y-96425000D02*
X128000000Y-96425000D01*
X128021000Y-96426000D01*
X128042000Y-96427000D01*
X128063000Y-96430000D01*
X128083000Y-96434000D01*
X128104000Y-96439000D01*
X128124000Y-96445000D01*
X128143000Y-96452000D01*
X128163000Y-96460000D01*
X128182000Y-96469000D01*
X128200000Y-96479000D01*
X128218000Y-96490000D01*
X128235000Y-96501000D01*
X128252000Y-96514000D01*
X128268000Y-96528000D01*
X128283000Y-96542000D01*
X128297000Y-96557000D01*
X128311000Y-96573000D01*
X128324000Y-96590000D01*
X128335000Y-96607000D01*
X128346000Y-96625000D01*
X128356000Y-96643000D01*
X128365000Y-96662000D01*
X128373000Y-96682000D01*
X128380000Y-96701000D01*
X128386000Y-96721000D01*
X128391000Y-96742000D01*
X128395000Y-96762000D01*
X128398000Y-96783000D01*
X128399000Y-96804000D01*
X128400000Y-96825000D01*
X128400000Y-97150000D01*
X127700000Y-97300000D01*
X127600000Y-97300000D01*
X127250000Y-97150000D01*
X127250000Y-96150000D01*
X127700000Y-96150000D01*
X127700000Y-96425000D01*
%TA.AperFunction,EtchedComponent*%
G36*
X127700000Y-96425000D02*
G01*
X128000000Y-96425000D01*
X128021000Y-96426000D01*
X128042000Y-96427000D01*
X128063000Y-96430000D01*
X128083000Y-96434000D01*
X128104000Y-96439000D01*
X128124000Y-96445000D01*
X128143000Y-96452000D01*
X128163000Y-96460000D01*
X128182000Y-96469000D01*
X128200000Y-96479000D01*
X128218000Y-96490000D01*
X128235000Y-96501000D01*
X128252000Y-96514000D01*
X128268000Y-96528000D01*
X128283000Y-96542000D01*
X128297000Y-96557000D01*
X128311000Y-96573000D01*
X128324000Y-96590000D01*
X128335000Y-96607000D01*
X128346000Y-96625000D01*
X128356000Y-96643000D01*
X128365000Y-96662000D01*
X128373000Y-96682000D01*
X128380000Y-96701000D01*
X128386000Y-96721000D01*
X128391000Y-96742000D01*
X128395000Y-96762000D01*
X128398000Y-96783000D01*
X128399000Y-96804000D01*
X128400000Y-96825000D01*
X128400000Y-97150000D01*
X127700000Y-97300000D01*
X127600000Y-97300000D01*
X127250000Y-97150000D01*
X127250000Y-96150000D01*
X127700000Y-96150000D01*
X127700000Y-96425000D01*
G37*
%TD.AperFunction*%
%TD*%
D11*
%TO.P,SW2,1,1*%
%TO.N,/BU2*%
X129350000Y-108400000D03*
%TO.P,SW2,2,2*%
%TO.N,GND*%
X129350000Y-105600000D03*
D12*
%TO.P,SW2,SH1*%
%TO.N,N/C*%
X128000000Y-108825000D03*
%TO.P,SW2,SH2*%
X128000000Y-105175000D03*
D13*
%TO.P,SW2,SH3*%
X129500000Y-107000000D03*
%TD*%
D14*
%TO.P,D40,1,K*%
%TO.N,/CS3*%
X147000000Y-106462500D03*
%TO.P,D40,2,A*%
%TO.N,/SW5*%
X147000000Y-108037500D03*
%TD*%
D15*
%TO.P,C9,1*%
%TO.N,GND*%
X158085000Y-89905000D03*
%TO.P,C9,2*%
%TO.N,VCC*%
X159985000Y-89905000D03*
%TD*%
D16*
%TO.P,R1,1*%
%TO.N,GND*%
X152791078Y-111950000D03*
%TO.P,R1,2*%
%TO.N,Net-(X1-VBU)*%
X154441078Y-111950000D03*
%TD*%
D17*
%TO.P,TP6,1,1*%
%TO.N,GND*%
X135825000Y-106825000D03*
%TD*%
%TO.P,TP2,1,1*%
%TO.N,/STAT2*%
X135825000Y-93275000D03*
%TD*%
D18*
%TO.P,Q1,1,C*%
%TO.N,/LIGHT_EN*%
X147212500Y-89750000D03*
%TO.P,Q1,2,E*%
%TO.N,/LIGHT_IN*%
X148787500Y-89750000D03*
%TD*%
D19*
%TO.P,R16,1*%
%TO.N,GND*%
X148840000Y-93855000D03*
%TO.P,R16,2*%
%TO.N,/LIGHT_IN*%
X147190000Y-93855000D03*
%TD*%
D20*
%TO.P,H1,1*%
%TO.N,N/C*%
X164000000Y-109000000D03*
%TD*%
D14*
%TO.P,D37,1,K*%
%TO.N,/CS8*%
X148000000Y-101812500D03*
%TO.P,D37,2,A*%
%TO.N,/SW5*%
X148000000Y-103387500D03*
%TD*%
D21*
%TO.P,U3,1,A_A*%
%TO.N,/SW2*%
X153470000Y-97690000D03*
D22*
%TO.P,U3,2,A_B*%
X157109173Y-98379732D03*
%TO.P,U3,3,A_C*%
X156639173Y-101689732D03*
D21*
%TO.P,U3,4,A_D*%
X152530000Y-104320000D03*
D23*
%TO.P,U3,5,A_E*%
X150888905Y-103641970D03*
%TO.P,U3,6,A_F*%
X151358905Y-100331970D03*
D21*
%TO.P,U3,7,A_G*%
X153000000Y-101000000D03*
%TO.P,U3,8,K_A*%
%TO.N,/CS1*%
X155470000Y-97690000D03*
D22*
%TO.P,U3,9,K_B*%
%TO.N,/CS2*%
X156830827Y-100360268D03*
%TO.P,U3,10,K_C*%
%TO.N,/CS3*%
X156366241Y-103665403D03*
D21*
%TO.P,U3,11,K_D*%
%TO.N,/CS4*%
X154530000Y-104320000D03*
D23*
%TO.P,U3,12,K_E*%
%TO.N,/CS5*%
X151167251Y-101661434D03*
%TO.P,U3,13,K_F*%
%TO.N,/CS6*%
X151637251Y-98351434D03*
D21*
%TO.P,U3,14,K_G*%
%TO.N,/CS7*%
X155000000Y-101000000D03*
%TD*%
D14*
%TO.P,D39,1,K*%
%TO.N,/CS2*%
X145000001Y-106462500D03*
%TO.P,D39,2,A*%
%TO.N,/SW5*%
X145000001Y-108037500D03*
%TD*%
D20*
%TO.P,H4,1*%
%TO.N,N/C*%
X132000000Y-93000000D03*
%TD*%
D21*
%TO.P,U2,1,A_A*%
%TO.N,/SW3*%
X141470000Y-97690000D03*
D22*
%TO.P,U2,2,A_B*%
X145109173Y-98379732D03*
%TO.P,U2,3,A_C*%
X144639173Y-101689732D03*
D21*
%TO.P,U2,4,A_D*%
X140530000Y-104320000D03*
D23*
%TO.P,U2,5,A_E*%
X138888905Y-103641970D03*
%TO.P,U2,6,A_F*%
X139358905Y-100331970D03*
D21*
%TO.P,U2,7,A_G*%
X141000000Y-101000000D03*
%TO.P,U2,8,K_A*%
%TO.N,/CS1*%
X143470000Y-97690000D03*
D22*
%TO.P,U2,9,K_B*%
%TO.N,/CS2*%
X144830827Y-100360268D03*
%TO.P,U2,10,K_C*%
%TO.N,/CS3*%
X144366241Y-103665403D03*
D21*
%TO.P,U2,11,K_D*%
%TO.N,/CS4*%
X142530000Y-104320000D03*
D23*
%TO.P,U2,12,K_E*%
%TO.N,/CS5*%
X139167251Y-101661434D03*
%TO.P,U2,13,K_F*%
%TO.N,/CS6*%
X139637251Y-98351434D03*
D21*
%TO.P,U2,14,K_G*%
%TO.N,/CS7*%
X143000000Y-101000000D03*
%TD*%
D16*
%TO.P,R2,1*%
%TO.N,GND*%
X152791078Y-110100000D03*
%TO.P,R2,2*%
%TO.N,Net-(X1-EVI)*%
X154441078Y-110100000D03*
%TD*%
D20*
%TO.P,H3,1*%
%TO.N,N/C*%
X132000000Y-109000000D03*
%TD*%
D21*
%TO.P,U4,1,A_A*%
%TO.N,/SW1*%
X162970000Y-97690000D03*
D22*
%TO.P,U4,2,A_B*%
X166609173Y-98379732D03*
%TO.P,U4,3,A_C*%
X166139173Y-101689732D03*
D21*
%TO.P,U4,4,A_D*%
X162030000Y-104320000D03*
D23*
%TO.P,U4,5,A_E*%
X160388905Y-103641970D03*
%TO.P,U4,6,A_F*%
X160858905Y-100331970D03*
D21*
%TO.P,U4,7,A_G*%
X162500000Y-101000000D03*
%TO.P,U4,8,K_A*%
%TO.N,/CS1*%
X164970000Y-97690000D03*
D22*
%TO.P,U4,9,K_B*%
%TO.N,/CS2*%
X166330827Y-100360268D03*
%TO.P,U4,10,K_C*%
%TO.N,/CS3*%
X165866241Y-103665403D03*
D21*
%TO.P,U4,11,K_D*%
%TO.N,/CS4*%
X164030000Y-104320000D03*
D23*
%TO.P,U4,12,K_E*%
%TO.N,/CS5*%
X160667251Y-101661434D03*
%TO.P,U4,13,K_F*%
%TO.N,/CS6*%
X161137251Y-98351434D03*
D21*
%TO.P,U4,14,K_G*%
%TO.N,/CS7*%
X164500000Y-101000000D03*
%TD*%
D24*
%TO.P,C1,1*%
%TO.N,GND*%
X161041078Y-109075000D03*
%TO.P,C1,2*%
%TO.N,VCC*%
X161041078Y-107525000D03*
%TD*%
D14*
%TO.P,D42,1,K*%
%TO.N,/CS5*%
X151000000Y-106462500D03*
%TO.P,D42,2,A*%
%TO.N,/SW5*%
X151000000Y-108037500D03*
%TD*%
D25*
%TO.P,C6,1*%
%TO.N,/LIGHT_IN*%
X145213862Y-89752454D03*
%TO.P,C6,2*%
%TO.N,GND*%
X143663862Y-89752454D03*
%TD*%
D14*
%TO.P,D41,1,K*%
%TO.N,/CS4*%
X148999999Y-106462500D03*
%TO.P,D41,2,A*%
%TO.N,/SW5*%
X148999999Y-108037500D03*
%TD*%
D26*
%TO.P,X1,1,CLKOUT*%
%TO.N,/RTC_CLK*%
X156741078Y-107200000D03*
%TO.P,X1,2,INT*%
%TO.N,/RTC_INT*%
X156741078Y-108100000D03*
%TO.P,X1,3,SCL*%
%TO.N,/SCL*%
X156741078Y-109000000D03*
%TO.P,X1,4,SDA*%
%TO.N,/SDA*%
X156741078Y-109900000D03*
%TO.P,X1,5,VSS*%
%TO.N,GND*%
X158191078Y-109900000D03*
%TO.P,X1,6,VBU*%
%TO.N,Net-(X1-VBU)*%
X158191078Y-109000000D03*
%TO.P,X1,7,VDD*%
%TO.N,VCC*%
X158191078Y-108100000D03*
%TO.P,X1,8,EVI*%
%TO.N,Net-(X1-EVI)*%
X158191078Y-107200000D03*
%TD*%
D16*
%TO.P,R18,1*%
%TO.N,GND*%
X151658905Y-92076266D03*
%TO.P,R18,2*%
%TO.N,Net-(IC1-ISET)*%
X153308905Y-92076266D03*
%TD*%
D27*
%TO.P,D36,1,K*%
%TO.N,/CS7*%
X148000000Y-100187500D03*
%TO.P,D36,2,A*%
%TO.N,/SW5*%
X148000000Y-98612500D03*
%TD*%
D20*
%TO.P,H2,1*%
%TO.N,N/C*%
X164000000Y-93000000D03*
%TD*%
D28*
%TO.P,C8,1*%
%TO.N,+5V*%
X153395529Y-89858890D03*
%TO.P,C8,2*%
%TO.N,GND*%
X151495529Y-89858890D03*
%TD*%
D14*
%TO.P,D38,1,K*%
%TO.N,/CS1*%
X143000000Y-106462500D03*
%TO.P,D38,2,A*%
%TO.N,/SW5*%
X143000000Y-108037500D03*
%TD*%
D11*
%TO.P,SW1,1,1*%
%TO.N,/BU1*%
X129350000Y-96400000D03*
%TO.P,SW1,2,2*%
%TO.N,GND*%
X129350000Y-93600000D03*
D12*
%TO.P,SW1,SH1*%
%TO.N,N/C*%
X128000000Y-96825000D03*
%TO.P,SW1,SH2*%
X128000000Y-93175000D03*
D13*
%TO.P,SW1,SH3*%
X129500000Y-95000000D03*
%TD*%
D21*
%TO.P,U1,1,A_A*%
%TO.N,/SW4*%
X131970000Y-97690000D03*
D22*
%TO.P,U1,2,A_B*%
X135609173Y-98379732D03*
%TO.P,U1,3,A_C*%
X135139173Y-101689732D03*
D21*
%TO.P,U1,4,A_D*%
X131030000Y-104320000D03*
D23*
%TO.P,U1,5,A_E*%
X129388905Y-103641970D03*
%TO.P,U1,6,A_F*%
X129858905Y-100331970D03*
D21*
%TO.P,U1,7,A_G*%
X131500000Y-101000000D03*
%TO.P,U1,8,K_A*%
%TO.N,/CS1*%
X133970000Y-97690000D03*
D22*
%TO.P,U1,9,K_B*%
%TO.N,/CS2*%
X135330827Y-100360268D03*
%TO.P,U1,10,K_C*%
%TO.N,/CS3*%
X134866241Y-103665403D03*
D21*
%TO.P,U1,11,K_D*%
%TO.N,/CS4*%
X133030000Y-104320000D03*
D23*
%TO.P,U1,12,K_E*%
%TO.N,/CS5*%
X129667251Y-101661434D03*
%TO.P,U1,13,K_F*%
%TO.N,/CS6*%
X130137251Y-98351434D03*
D21*
%TO.P,U1,14,K_G*%
%TO.N,/CS7*%
X133500000Y-101000000D03*
%TD*%
D29*
%TO.P,IC1,1,SYS*%
%TO.N,VCC*%
X157000000Y-92700000D03*
%TO.P,IC1,2,BAT*%
%TO.N,+BATT*%
X157000000Y-93100000D03*
%TO.P,IC1,3,STAT2*%
%TO.N,/STAT2*%
X157000000Y-93500000D03*
%TO.P,IC1,4,~{CE}*%
%TO.N,/{slash}CE*%
X157000000Y-93900000D03*
%TO.P,IC1,5,GND*%
%TO.N,GND*%
X157000000Y-94300000D03*
%TO.P,IC1,6,TS/MR*%
%TO.N,Net-(IC1-TS{slash}MR)*%
X159200000Y-94300000D03*
%TO.P,IC1,7,ILIM/VSET*%
%TO.N,Net-(IC1-ILIM{slash}VSET)*%
X159200000Y-93900000D03*
%TO.P,IC1,8,ISET*%
%TO.N,Net-(IC1-ISET)*%
X159200000Y-93500000D03*
%TO.P,IC1,9,STAT1*%
%TO.N,/STAT1*%
X159200000Y-93100000D03*
%TO.P,IC1,10,IN*%
%TO.N,+5V*%
X159200000Y-92700000D03*
D30*
%TO.P,IC1,11,EP*%
%TO.N,GND*%
X158100000Y-93500000D03*
%TD*%
D17*
%TO.P,TP4,1,1*%
%TO.N,VCC*%
X139775000Y-106825000D03*
%TD*%
D16*
%TO.P,R17,1*%
%TO.N,GND*%
X151666129Y-93989063D03*
%TO.P,R17,2*%
%TO.N,Net-(IC1-ILIM{slash}VSET)*%
X153316129Y-93989063D03*
%TD*%
D14*
%TO.P,D43,1,K*%
%TO.N,/CS6*%
X153005000Y-106447500D03*
%TO.P,D43,2,A*%
%TO.N,/SW5*%
X153005000Y-108022500D03*
%TD*%
D17*
%TO.P,TP1,1,1*%
%TO.N,/STAT1*%
X139775000Y-93275000D03*
%TD*%
D31*
%TO.N,/CS3*%
X146000000Y-103185006D03*
X144300000Y-104900000D03*
X134500000Y-104600000D03*
X157200000Y-105900000D03*
X157785000Y-103800000D03*
X138300000Y-106700000D03*
X146200000Y-107300000D03*
X134000000Y-105800000D03*
%TO.N,/CS2*%
X146200000Y-100300000D03*
X137396071Y-105788927D03*
X136740000Y-100000000D03*
X157000000Y-99390865D03*
X156800000Y-95444994D03*
%TO.N,/CS1*%
X137917681Y-96617674D03*
X149099996Y-98100000D03*
X137883456Y-106182155D03*
%TO.N,/SW1*%
X163800000Y-97300000D03*
X163200000Y-96209500D03*
X144300000Y-96600000D03*
%TO.N,/SW2*%
X156315000Y-99185000D03*
X146500000Y-101000000D03*
X154200000Y-100000000D03*
%TO.N,/SW3*%
X146000000Y-101500000D03*
%TO.N,/SW4*%
X137700000Y-102200000D03*
%TO.N,/SW5*%
X141900000Y-106800000D03*
X150027331Y-99027301D03*
X149000000Y-103400000D03*
%TO.N,GND*%
X150600000Y-92000000D03*
X151500000Y-105000000D03*
X158300000Y-110600000D03*
X140000000Y-97300000D03*
X159028627Y-90373996D03*
X168300000Y-94900000D03*
X150300000Y-89800000D03*
X151900000Y-111881922D03*
X130600000Y-105800000D03*
X157600000Y-97400000D03*
X162100000Y-109700000D03*
X162000000Y-97500000D03*
X134500000Y-106500000D03*
X158300000Y-92100000D03*
X142500000Y-89800000D03*
X142500000Y-97400000D03*
X161100000Y-111600000D03*
X129600000Y-92700000D03*
X149700000Y-93900000D03*
X147423306Y-97869355D03*
X150800000Y-94000000D03*
X151900000Y-110100000D03*
X139101946Y-96282715D03*
%TO.N,VCC*%
X162066208Y-107311538D03*
X167000000Y-94800000D03*
X167868101Y-96345846D03*
X166500000Y-111700000D03*
X141200000Y-106800000D03*
X142399992Y-99400000D03*
X159150000Y-107950000D03*
X168000000Y-108900000D03*
X157400000Y-92199996D03*
%TO.N,/CS5*%
X151000000Y-102600000D03*
X157100000Y-104900000D03*
X131000000Y-102900000D03*
X132000000Y-103000000D03*
X149800000Y-101500000D03*
X151900000Y-106100000D03*
X131900000Y-105700000D03*
X156100000Y-105800008D03*
%TO.N,/CS4*%
X155000000Y-102800000D03*
%TO.N,+BATT*%
X154285280Y-91325092D03*
X157000000Y-89100000D03*
%TO.N,+5V*%
X154583811Y-90816189D03*
X162700000Y-91100000D03*
X158541483Y-91560000D03*
%TO.N,/STAT2*%
X147700652Y-92060000D03*
X168210500Y-98800000D03*
X137200000Y-93100000D03*
X156100000Y-94000000D03*
X162282677Y-95217325D03*
%TO.N,Net-(IC1-TS{slash}MR)*%
X160200000Y-94600000D03*
%TO.N,Net-(IC1-ILIM{slash}VSET)*%
X160475500Y-94000000D03*
X161194467Y-94772410D03*
%TO.N,/STAT1*%
X146600000Y-92525000D03*
X167900000Y-103000000D03*
X160003078Y-93100000D03*
%TO.N,/CS7*%
X163641319Y-99224033D03*
X141000000Y-99500000D03*
X150125000Y-100700000D03*
X141982805Y-99817195D03*
X155200000Y-99624500D03*
%TO.N,/CS6*%
X153600000Y-99017678D03*
X153800000Y-106200000D03*
X160800000Y-97200000D03*
X138400000Y-97100000D03*
X161140959Y-95884994D03*
X138417678Y-96117678D03*
X151900000Y-97100000D03*
X151600000Y-95785000D03*
%TO.N,/LIGHT_EN*%
X147600000Y-89700000D03*
%TO.N,/RTC_INT*%
X157276578Y-108000000D03*
%TO.N,/SDA*%
X146000000Y-95340000D03*
X136800000Y-95675000D03*
X156800000Y-110700000D03*
%TO.N,/SCL*%
X146800000Y-95300000D03*
X155800000Y-108800000D03*
X155700000Y-111200000D03*
X136000000Y-95675000D03*
X165700000Y-106475000D03*
X166000000Y-108600000D03*
%TO.N,/BU1*%
X168500000Y-101700000D03*
X129300000Y-109600000D03*
X129400000Y-97300000D03*
%TO.N,/BU2*%
X168000000Y-106300000D03*
%TO.N,/CS8*%
X149700000Y-102200000D03*
%TO.N,/LED_EN*%
X147800000Y-95300000D03*
X163500000Y-106700000D03*
X135400000Y-95675000D03*
X165800000Y-105000000D03*
%TO.N,/RTC_CLK*%
X158300000Y-103400000D03*
X159700000Y-98700000D03*
X157284576Y-106871471D03*
%TO.N,/LIGHT_IN*%
X149451015Y-89188837D03*
%TD*%
D32*
%TO.N,/CS3*%
X157650403Y-103665403D02*
X157785000Y-103800000D01*
X134866241Y-104233759D02*
X134866241Y-103665403D01*
X134000000Y-105800000D02*
X135858859Y-105800000D01*
X146200000Y-107262500D02*
X147000000Y-106462500D01*
X145519603Y-103665403D02*
X146000000Y-103185006D01*
X164136558Y-105900000D02*
X157200000Y-105900000D01*
X135858859Y-105800000D02*
X136798859Y-106740000D01*
X144366241Y-104833759D02*
X144300000Y-104900000D01*
X165866241Y-104170317D02*
X164136558Y-105900000D01*
X138260000Y-106740000D02*
X138300000Y-106700000D01*
X165866241Y-103665403D02*
X165866241Y-104170317D01*
X146200000Y-107300000D02*
X146200000Y-107262500D01*
X156366241Y-103665403D02*
X157650403Y-103665403D01*
X144366241Y-103665403D02*
X145519603Y-103665403D01*
X136798859Y-106740000D02*
X138260000Y-106740000D01*
X144366241Y-103665403D02*
X144366241Y-104833759D01*
X134500000Y-104600000D02*
X134866241Y-104233759D01*
%TO.N,/CS2*%
X156975006Y-95620000D02*
X156800000Y-95444994D01*
X164229756Y-96650000D02*
X163715429Y-96135673D01*
X144222501Y-105685000D02*
X137499998Y-105685000D01*
X160622498Y-95620000D02*
X156975006Y-95620000D01*
X136379732Y-100360268D02*
X136740000Y-100000000D01*
X144830827Y-100360268D02*
X146139732Y-100360268D01*
X163715429Y-96135673D02*
X163715429Y-96027746D01*
X161648219Y-95770000D02*
X161323213Y-95444994D01*
X167824138Y-97924138D02*
X166550000Y-96650000D01*
X161323213Y-95444994D02*
X160797504Y-95444994D01*
X156830827Y-99560038D02*
X157000000Y-99390865D01*
X160797504Y-95444994D02*
X160622498Y-95620000D01*
X145000001Y-106462500D02*
X144222501Y-105685000D01*
X163457683Y-95770000D02*
X161648219Y-95770000D01*
X166550000Y-96650000D02*
X164229756Y-96650000D01*
X146139732Y-100360268D02*
X146200000Y-100300000D01*
X167676181Y-98700000D02*
X167824138Y-98552043D01*
X163715429Y-96027746D02*
X163457683Y-95770000D01*
X156830827Y-100360268D02*
X156830827Y-99560038D01*
X137499998Y-105685000D02*
X137396071Y-105788927D01*
X166330827Y-100360268D02*
X167676181Y-99014914D01*
X167676181Y-99014914D02*
X167676181Y-98700000D01*
X135330827Y-100360268D02*
X136379732Y-100360268D01*
X167824138Y-98552043D02*
X167824138Y-97924138D01*
%TO.N,/CS1*%
X133970000Y-97690000D02*
X135042326Y-96617674D01*
X155470000Y-97690000D02*
X155470000Y-96630000D01*
X150923101Y-97190000D02*
X148190000Y-97190000D01*
X142537500Y-106000000D02*
X138065611Y-106000000D01*
X138816633Y-96617674D02*
X137917681Y-96617674D01*
X164220000Y-96940000D02*
X164109634Y-96940000D01*
X139376041Y-96725000D02*
X138923959Y-96725000D01*
X148190000Y-97190000D02*
X149100000Y-98100000D01*
X155470000Y-96630000D02*
X155500000Y-96600000D01*
X143970000Y-97190000D02*
X148190000Y-97190000D01*
X138065611Y-106000000D02*
X137883456Y-106182155D01*
X164970000Y-97690000D02*
X164220000Y-96940000D01*
X164109634Y-96940000D02*
X163819634Y-96650000D01*
X154380000Y-96600000D02*
X151513101Y-96600000D01*
X149100000Y-98100000D02*
X149099996Y-98100000D01*
X139501047Y-96599994D02*
X139376041Y-96725000D01*
X143470000Y-97690000D02*
X143970000Y-97190000D01*
X151513101Y-96600000D02*
X150923101Y-97190000D01*
X142379994Y-96599994D02*
X139501047Y-96599994D01*
X155500000Y-96600000D02*
X154380000Y-96600000D01*
X138923959Y-96725000D02*
X138816633Y-96617674D01*
X143000000Y-106462500D02*
X142537500Y-106000000D01*
X163819634Y-96650000D02*
X155550000Y-96650000D01*
X135042326Y-96617674D02*
X137917681Y-96617674D01*
X143470000Y-97690000D02*
X142379994Y-96599994D01*
X155550000Y-96650000D02*
X155500000Y-96600000D01*
%TO.N,/SW1*%
X160958705Y-96324994D02*
X160928712Y-96295001D01*
X162490827Y-103870268D02*
X162020827Y-104340268D01*
X160379732Y-103662238D02*
X161342797Y-103662238D01*
X162970000Y-97690000D02*
X163410000Y-97690000D01*
X163410000Y-97690000D02*
X163800000Y-97300000D01*
X144604999Y-96295001D02*
X144300000Y-96600000D01*
X160928712Y-96295001D02*
X144604999Y-96295001D01*
X163200000Y-96209500D02*
X163084506Y-96324994D01*
X165319732Y-102520268D02*
X162490827Y-102520268D01*
X166270000Y-98730000D02*
X164517034Y-98730000D01*
X163481095Y-98700000D02*
X162960827Y-99220268D01*
X162960827Y-100550268D02*
X162490827Y-101020268D01*
X160849732Y-100352238D02*
X161822797Y-100352238D01*
X162960827Y-99220268D02*
X162960827Y-100550268D01*
X162960827Y-97710268D02*
X162960827Y-99220268D01*
X163084506Y-96324994D02*
X160958705Y-96324994D01*
X161342797Y-103662238D02*
X162020827Y-104340268D01*
X161822797Y-100352238D02*
X162490827Y-101020268D01*
X162490827Y-101020268D02*
X162490827Y-102520268D01*
X166600000Y-98400000D02*
X166270000Y-98730000D01*
X164487034Y-98700000D02*
X163481095Y-98700000D01*
X162490827Y-102520268D02*
X162490827Y-103870268D01*
X166130000Y-101710000D02*
X165319732Y-102520268D01*
X164517034Y-98730000D02*
X164487034Y-98700000D01*
%TO.N,/SW2*%
X151842797Y-103662238D02*
X152520827Y-104340268D01*
X152990827Y-102520268D02*
X152990827Y-103870268D01*
X154935559Y-99185000D02*
X156315000Y-99185000D01*
X147553728Y-102710000D02*
X149956935Y-102710000D01*
X156630000Y-101710000D02*
X155980000Y-102360000D01*
X150879732Y-103662238D02*
X151842797Y-103662238D01*
X146500000Y-101656272D02*
X147553728Y-102710000D01*
X152990827Y-103870268D02*
X152520827Y-104340268D01*
X154011095Y-100000000D02*
X154200000Y-100000000D01*
X155980000Y-102360000D02*
X153151095Y-102360000D01*
X153460827Y-97710268D02*
X154935559Y-99185000D01*
X152322797Y-100352238D02*
X152990827Y-101020268D01*
X146500000Y-101000000D02*
X146500000Y-101656272D01*
X153151095Y-102360000D02*
X152990827Y-102520268D01*
X151349732Y-100352238D02*
X152322797Y-100352238D01*
X152990827Y-101020268D02*
X152990827Y-102520268D01*
X152990827Y-101020268D02*
X154011095Y-100000000D01*
X157100000Y-98400000D02*
X156315000Y-99185000D01*
X149956935Y-102710000D02*
X150888905Y-103641970D01*
%TO.N,/SW3*%
X140990827Y-102520268D02*
X140990827Y-103870268D01*
X144540000Y-98960000D02*
X141721095Y-98960000D01*
X141460827Y-99220268D02*
X141460827Y-100550268D01*
X139349732Y-100352238D02*
X140322797Y-100352238D01*
X141721095Y-98960000D02*
X141460827Y-99220268D01*
X141460827Y-97710268D02*
X141460827Y-99220268D01*
X139842797Y-103662238D02*
X140520827Y-104340268D01*
X138879732Y-103662238D02*
X139842797Y-103662238D01*
X145100000Y-98400000D02*
X144540000Y-98960000D01*
X143819732Y-102520268D02*
X140990827Y-102520268D01*
X145810268Y-101689732D02*
X146000000Y-101500000D01*
X140322797Y-100352238D02*
X140990827Y-101020268D01*
X144639173Y-101689732D02*
X145810268Y-101689732D01*
X144630000Y-101710000D02*
X143819732Y-102520268D01*
X141460827Y-100550268D02*
X140990827Y-101020268D01*
X140990827Y-101020268D02*
X140990827Y-102520268D01*
X140990827Y-103870268D02*
X140520827Y-104340268D01*
%TO.N,/SW4*%
X137189732Y-101689732D02*
X135139173Y-101689732D01*
X131500000Y-103850000D02*
X131030000Y-104320000D01*
X130831970Y-100331970D02*
X131500000Y-101000000D01*
X131970000Y-100530000D02*
X131500000Y-101000000D01*
X134328905Y-102500000D02*
X131500000Y-102500000D01*
X134788905Y-99200000D02*
X131970000Y-99200000D01*
X131500000Y-102500000D02*
X131500000Y-103850000D01*
X130351970Y-103641970D02*
X131030000Y-104320000D01*
X129858905Y-100331970D02*
X130831970Y-100331970D01*
X137700000Y-102200000D02*
X137189732Y-101689732D01*
X129388905Y-103641970D02*
X130351970Y-103641970D01*
X131970000Y-99200000D02*
X131970000Y-100530000D01*
X131970000Y-97690000D02*
X131970000Y-99200000D01*
X135609173Y-98379732D02*
X134788905Y-99200000D01*
X135139173Y-101689732D02*
X134328905Y-102500000D01*
X131500000Y-101000000D02*
X131500000Y-102500000D01*
%TO.N,/SW5*%
X143015000Y-108022500D02*
X143000000Y-108037500D01*
X141900000Y-106937500D02*
X143000000Y-108037500D01*
X141900000Y-106800000D02*
X141900000Y-106937500D01*
X148987500Y-103387500D02*
X148000000Y-103387500D01*
X148000000Y-98612500D02*
X148414801Y-99027301D01*
X153005000Y-108022500D02*
X143015000Y-108022500D01*
X148414801Y-99027301D02*
X150027331Y-99027301D01*
X149000000Y-103400000D02*
X148987500Y-103387500D01*
%TO.N,GND*%
X158085000Y-89905000D02*
X158553996Y-90373996D01*
X161475000Y-109075000D02*
X162100000Y-109700000D01*
X158100000Y-93628554D02*
X158100000Y-93500000D01*
X148840000Y-93855000D02*
X149655000Y-93855000D01*
X158191078Y-109900000D02*
X158191078Y-110491078D01*
X158100000Y-92300000D02*
X158300000Y-92100000D01*
X158553996Y-90373996D02*
X159028627Y-90373996D01*
X129350000Y-92950000D02*
X129600000Y-92700000D01*
X129350000Y-93600000D02*
X129350000Y-92950000D01*
X143663862Y-89752454D02*
X142547546Y-89752454D01*
X142547546Y-89752454D02*
X142500000Y-89800000D01*
X157000000Y-94300000D02*
X157428554Y-94300000D01*
X158191078Y-110491078D02*
X158300000Y-110600000D01*
X135825000Y-106825000D02*
X134825000Y-106825000D01*
X157428554Y-94300000D02*
X158100000Y-93628554D01*
X150800000Y-94000000D02*
X151655192Y-94000000D01*
X161041078Y-109075000D02*
X161475000Y-109075000D01*
X151658905Y-92076266D02*
X150676266Y-92076266D01*
X151655192Y-94000000D02*
X151666129Y-93989063D01*
X150676266Y-92076266D02*
X150600000Y-92000000D01*
X149655000Y-93855000D02*
X149700000Y-93900000D01*
X129350000Y-105600000D02*
X130400000Y-105600000D01*
X152791078Y-110100000D02*
X151900000Y-110100000D01*
X151968078Y-111950000D02*
X151900000Y-111881922D01*
X134825000Y-106825000D02*
X134500000Y-106500000D01*
X151495529Y-89858890D02*
X150358890Y-89858890D01*
X130400000Y-105600000D02*
X130600000Y-105800000D01*
X158100000Y-93500000D02*
X158100000Y-92300000D01*
X150358890Y-89858890D02*
X150300000Y-89800000D01*
X152791078Y-111950000D02*
X151968078Y-111950000D01*
%TO.N,VCC*%
X157000000Y-92700000D02*
X157400000Y-92300000D01*
X159985000Y-89905000D02*
X159985000Y-90630000D01*
X158321024Y-90960000D02*
X157000000Y-92281024D01*
X157000000Y-92281024D02*
X157000000Y-92700000D01*
X159655000Y-90960000D02*
X158321024Y-90960000D01*
X159000000Y-108100000D02*
X159150000Y-107950000D01*
X158191078Y-108100000D02*
X159000000Y-108100000D01*
X161041078Y-107525000D02*
X161852746Y-107525000D01*
X159985000Y-90630000D02*
X159655000Y-90960000D01*
X161852746Y-107525000D02*
X162066208Y-107311538D01*
X139775000Y-106825000D02*
X141175000Y-106825000D01*
X141175000Y-106825000D02*
X141200000Y-106800000D01*
X157400000Y-92300000D02*
X157400000Y-92199996D01*
%TO.N,/CS5*%
X156100000Y-106051272D02*
X156100000Y-105800008D01*
X151000000Y-106462500D02*
X151882500Y-107345000D01*
X157428685Y-104900000D02*
X160667251Y-101661434D01*
X151882500Y-107345000D02*
X154806272Y-107345000D01*
X151167251Y-101661434D02*
X151167251Y-102432749D01*
X154806272Y-107345000D02*
X154825636Y-107325636D01*
X129667251Y-101661434D02*
X130905817Y-102900000D01*
X138028685Y-102800000D02*
X139167251Y-101661434D01*
X154825636Y-107325636D02*
X156100000Y-106051272D01*
X143300000Y-109100000D02*
X152000000Y-109100000D01*
X152000000Y-109100000D02*
X153051272Y-109100000D01*
X151167251Y-102432749D02*
X151000000Y-102600000D01*
X151537500Y-106462500D02*
X151000000Y-106462500D01*
X151900000Y-106100000D02*
X151537500Y-106462500D01*
X149961434Y-101661434D02*
X149800000Y-101500000D01*
X157100000Y-104900000D02*
X157428685Y-104900000D01*
X130905817Y-102900000D02*
X131000000Y-102900000D01*
X153051272Y-109100000D02*
X154825636Y-107325636D01*
X135300000Y-109100000D02*
X143300000Y-109100000D01*
X131900000Y-105700000D02*
X135300000Y-109100000D01*
X151167251Y-101661434D02*
X149961434Y-101661434D01*
X132000000Y-103000000D02*
X132200000Y-102800000D01*
X132200000Y-102800000D02*
X138028685Y-102800000D01*
%TO.N,/CS4*%
X154530000Y-104320000D02*
X154530000Y-105330000D01*
X154530000Y-103270000D02*
X155000000Y-102800000D01*
X156482254Y-105360000D02*
X156282254Y-105160000D01*
X156282254Y-105160000D02*
X154840000Y-105160000D01*
X137589400Y-105360000D02*
X143570000Y-105360000D01*
X149180000Y-105540000D02*
X149000000Y-105360000D01*
X164030000Y-104320000D02*
X162990000Y-105360000D01*
X137530290Y-105300892D02*
X137589400Y-105360000D01*
X154530000Y-105330000D02*
X154600000Y-105400000D01*
X154460000Y-105540000D02*
X149180000Y-105540000D01*
X154600000Y-105400000D02*
X154460000Y-105540000D01*
X154840000Y-105160000D02*
X154600000Y-105400000D01*
X142530000Y-104320000D02*
X143570000Y-105360000D01*
X134010892Y-105300892D02*
X137530290Y-105300892D01*
X162990000Y-105360000D02*
X156482254Y-105360000D01*
X143570000Y-105360000D02*
X149000000Y-105360000D01*
X133030000Y-104320000D02*
X134010892Y-105300892D01*
X148999999Y-106462500D02*
X149000000Y-105360000D01*
X154530000Y-104320000D02*
X154530000Y-103270000D01*
D33*
%TO.N,+BATT*%
X157000000Y-89100000D02*
X154774908Y-91325092D01*
X156500736Y-93100000D02*
X156325000Y-92924264D01*
X154774908Y-91325092D02*
X154285280Y-91325092D01*
X157000000Y-93100000D02*
X156500736Y-93100000D01*
X156325000Y-92924264D02*
X156325000Y-92625000D01*
X155025092Y-91325092D02*
X154285280Y-91325092D01*
X156325000Y-92625000D02*
X155025092Y-91325092D01*
D32*
%TO.N,+5V*%
X160225332Y-92700000D02*
X161100000Y-92700000D01*
X154352828Y-90816189D02*
X154583811Y-90816189D01*
X159200000Y-92700000D02*
X159300000Y-92600000D01*
X159300000Y-92600000D02*
X160125332Y-92600000D01*
X161100000Y-92700000D02*
X162700000Y-91100000D01*
X159200000Y-92218517D02*
X158541483Y-91560000D01*
X160125332Y-92600000D02*
X160225332Y-92700000D01*
X159200000Y-92700000D02*
X159200000Y-92218517D01*
X153395529Y-89858890D02*
X154352828Y-90816189D01*
%TO.N,/STAT2*%
X162282677Y-95217325D02*
X162545352Y-95480000D01*
X137200000Y-93100000D02*
X137025000Y-93275000D01*
X155829893Y-93500000D02*
X153681159Y-91351266D01*
X157000000Y-93500000D02*
X155900000Y-93500000D01*
X164349878Y-96360000D02*
X166760000Y-96360000D01*
X168210500Y-97810500D02*
X168210500Y-98800000D01*
X164005429Y-96015551D02*
X164349878Y-96360000D01*
X155900000Y-93500000D02*
X156100000Y-93700000D01*
X148409386Y-91351266D02*
X147700652Y-92060000D01*
X162545352Y-95480000D02*
X163577805Y-95480000D01*
X137025000Y-93275000D02*
X135825000Y-93275000D01*
X153681159Y-91351266D02*
X148409386Y-91351266D01*
X164005429Y-95907624D02*
X164005429Y-96015551D01*
X163577805Y-95480000D02*
X164005429Y-95907624D01*
X155900000Y-93500000D02*
X155829893Y-93500000D01*
X166760000Y-96360000D02*
X168210500Y-97810500D01*
X156100000Y-93700000D02*
X156100000Y-94000000D01*
%TO.N,Net-(IC1-TS{slash}MR)*%
X159200000Y-94300000D02*
X159900000Y-94300000D01*
X159900000Y-94300000D02*
X160200000Y-94600000D01*
%TO.N,Net-(IC1-ILIM{slash}VSET)*%
X160375500Y-93900000D02*
X159200000Y-93900000D01*
X160502376Y-95330000D02*
X157307260Y-95330000D01*
X154332060Y-95004994D02*
X153316129Y-93989063D01*
X161059966Y-94772410D02*
X160502376Y-95330000D01*
X160475500Y-94000000D02*
X160375500Y-93900000D01*
X156982254Y-95004994D02*
X154332060Y-95004994D01*
X161194467Y-94772410D02*
X161059966Y-94772410D01*
X157307260Y-95330000D02*
X156982254Y-95004994D01*
%TO.N,Net-(IC1-ISET)*%
X159677746Y-94700000D02*
X155932639Y-94700000D01*
X159240000Y-93540000D02*
X160246899Y-93540000D01*
X160246899Y-93540000D02*
X160301899Y-93485000D01*
X160382254Y-95040000D02*
X160017746Y-95040000D01*
X159200000Y-93500000D02*
X159240000Y-93540000D01*
X160017746Y-95040000D02*
X159677746Y-94700000D01*
X160915000Y-93728101D02*
X160915000Y-94407254D01*
X160915000Y-94407254D02*
X160640000Y-94682254D01*
X160301899Y-93485000D02*
X160671899Y-93485000D01*
X160640000Y-94782254D02*
X160382254Y-95040000D01*
X160640000Y-94682254D02*
X160640000Y-94782254D01*
X155932639Y-94700000D02*
X153308905Y-92076266D01*
X160671899Y-93485000D02*
X160915000Y-93728101D01*
%TO.N,/STAT1*%
X166970000Y-96070000D02*
X164470000Y-96070000D01*
X167900000Y-103000000D02*
X167900000Y-101638601D01*
X161500000Y-93100000D02*
X160003078Y-93100000D01*
X145850000Y-93275000D02*
X146600000Y-92525000D01*
X163590000Y-95190000D02*
X161500000Y-93100000D01*
X163697927Y-95190000D02*
X163590000Y-95190000D01*
X164470000Y-96070000D02*
X164295429Y-95895429D01*
X167900000Y-101638601D02*
X168650000Y-100888601D01*
X139775000Y-93275000D02*
X145850000Y-93275000D01*
X164295429Y-95787502D02*
X163697927Y-95190000D01*
X164295429Y-95895429D02*
X164295429Y-95787502D01*
X168650000Y-100888601D02*
X168650000Y-97750000D01*
X168650000Y-97750000D02*
X166970000Y-96070000D01*
X159200000Y-93100000D02*
X160003078Y-93100000D01*
%TO.N,/CS7*%
X143700000Y-99500000D02*
X147312500Y-99500000D01*
X149697500Y-100187500D02*
X150400000Y-99485000D01*
X141982805Y-99982805D02*
X141982805Y-99817195D01*
X150400000Y-99485000D02*
X150125000Y-99760000D01*
X155200000Y-99624500D02*
X155060500Y-99485000D01*
X155060500Y-99485000D02*
X150400000Y-99485000D01*
X155200000Y-99624500D02*
X155000000Y-99824500D01*
X163641319Y-99224033D02*
X164500000Y-100082714D01*
X150125000Y-99760000D02*
X150125000Y-100700000D01*
X143000000Y-100200000D02*
X143700000Y-99500000D01*
X143000000Y-101000000D02*
X143000000Y-100200000D01*
X143000000Y-101000000D02*
X141982805Y-99982805D01*
X148000000Y-100187500D02*
X149697500Y-100187500D01*
X155000000Y-99824500D02*
X155000000Y-101000000D01*
X164500000Y-100082714D02*
X164500000Y-101000000D01*
X133500000Y-100200000D02*
X134200000Y-99500000D01*
X147312500Y-99500000D02*
X148000000Y-100187500D01*
X133500000Y-101000000D02*
X133500000Y-100200000D01*
X134200000Y-99500000D02*
X141000000Y-99500000D01*
%TO.N,/CS6*%
X151637251Y-98351434D02*
X151637251Y-97362749D01*
X152303495Y-99017678D02*
X153600000Y-99017678D01*
X161137251Y-97537251D02*
X160800000Y-97200000D01*
X151755000Y-95940000D02*
X161085953Y-95940000D01*
X151637251Y-97362749D02*
X151900000Y-97100000D01*
X138415000Y-96115000D02*
X138417678Y-96117678D01*
X161137251Y-98351434D02*
X161137251Y-97537251D01*
X138735356Y-95800000D02*
X138417678Y-96117678D01*
X130137251Y-98351434D02*
X130137251Y-97846520D01*
X151585000Y-95800000D02*
X138735356Y-95800000D01*
X161085953Y-95940000D02*
X161140959Y-95884994D01*
X151600000Y-95785000D02*
X151585000Y-95800000D01*
X139637251Y-98351434D02*
X138400000Y-97114183D01*
X153252500Y-106200000D02*
X153005000Y-106447500D01*
X138400000Y-97114183D02*
X138400000Y-97100000D01*
X151600000Y-95785000D02*
X151755000Y-95940000D01*
X130137251Y-97846520D02*
X131868771Y-96115000D01*
X131868771Y-96115000D02*
X138415000Y-96115000D01*
X153800000Y-106200000D02*
X153252500Y-106200000D01*
X151637251Y-98351434D02*
X152303495Y-99017678D01*
%TO.N,/LIGHT_EN*%
X147212500Y-89750000D02*
X147550000Y-89750000D01*
X147550000Y-89750000D02*
X147600000Y-89700000D01*
X147262500Y-89700000D02*
X147212500Y-89750000D01*
%TO.N,Net-(X1-VBU)*%
X158716078Y-109000000D02*
X158191078Y-109000000D01*
X157650000Y-111950000D02*
X158966078Y-110633922D01*
X158966078Y-110633922D02*
X158966078Y-109250000D01*
X154441078Y-111950000D02*
X157650000Y-111950000D01*
X158966078Y-109250000D02*
X158716078Y-109000000D01*
%TO.N,Net-(X1-EVI)*%
X157601078Y-106360000D02*
X156440000Y-106360000D01*
X154441078Y-108358922D02*
X154441078Y-110100000D01*
X156440000Y-106360000D02*
X154441078Y-108358922D01*
X158191078Y-106950000D02*
X157601078Y-106360000D01*
X158191078Y-107200000D02*
X158191078Y-106950000D01*
%TO.N,/RTC_INT*%
X156841078Y-108000000D02*
X156741078Y-108100000D01*
X157276578Y-108000000D02*
X156841078Y-108000000D01*
%TO.N,/SDA*%
X156800000Y-109958922D02*
X156741078Y-109900000D01*
X137175000Y-95300000D02*
X145960000Y-95300000D01*
X156800000Y-110700000D02*
X156800000Y-109958922D01*
X145960000Y-95300000D02*
X146000000Y-95340000D01*
X136800000Y-95675000D02*
X137175000Y-95300000D01*
%TO.N,/SCL*%
X156216078Y-109000000D02*
X156741078Y-109000000D01*
X155700000Y-111200000D02*
X155700000Y-108900000D01*
X155700000Y-108900000D02*
X155800000Y-108800000D01*
X166000000Y-108600000D02*
X166000000Y-106775000D01*
X146400000Y-94900000D02*
X136775000Y-94900000D01*
X155800000Y-108800000D02*
X156000000Y-109000000D01*
X146800000Y-95300000D02*
X146400000Y-94900000D01*
X166000000Y-106775000D02*
X165700000Y-106475000D01*
X156000000Y-109000000D02*
X156741078Y-109000000D01*
X136775000Y-94900000D02*
X136000000Y-95675000D01*
%TO.N,/BU1*%
X168290000Y-107720122D02*
X162920122Y-113090000D01*
X132800000Y-113100000D02*
X129300000Y-109600000D01*
X162810000Y-113090000D02*
X162800000Y-113100000D01*
X168290000Y-107610000D02*
X168290000Y-107720122D01*
X129400000Y-96450000D02*
X129350000Y-96400000D01*
X162920122Y-113090000D02*
X162810000Y-113090000D01*
X162800000Y-113100000D02*
X132800000Y-113100000D01*
X168500000Y-107400000D02*
X168290000Y-107610000D01*
X129400000Y-97300000D02*
X129400000Y-96450000D01*
X168500000Y-101700000D02*
X168500000Y-107400000D01*
%TO.N,/BU2*%
X168000000Y-107600000D02*
X168000000Y-106300000D01*
X133300000Y-112800000D02*
X162800000Y-112800000D01*
X129350000Y-108850000D02*
X133300000Y-112800000D01*
X129350000Y-108400000D02*
X129350000Y-108850000D01*
X162800000Y-112800000D02*
X168000000Y-107600000D01*
%TO.N,/CS8*%
X149312500Y-101812500D02*
X149700000Y-102200000D01*
X148000000Y-101812500D02*
X149312500Y-101812500D01*
%TO.N,/LED_EN*%
X147800000Y-95300000D02*
X147110000Y-94610000D01*
X164100000Y-106700000D02*
X163500000Y-106700000D01*
X147110000Y-94610000D02*
X136465000Y-94610000D01*
X136465000Y-94610000D02*
X135840000Y-95235000D01*
X165800000Y-105000000D02*
X164100000Y-106700000D01*
X135817746Y-95235000D02*
X135560000Y-95492746D01*
X135560000Y-95492746D02*
X135560000Y-95515000D01*
X135840000Y-95235000D02*
X135817746Y-95235000D01*
X135560000Y-95515000D02*
X135400000Y-95675000D01*
%TO.N,/RTC_CLK*%
X158300000Y-100100000D02*
X158300000Y-103400000D01*
X159700000Y-98700000D02*
X158300000Y-100100000D01*
X157284576Y-106871471D02*
X157069607Y-106871471D01*
X157069607Y-106871471D02*
X156741078Y-107200000D01*
%TO.N,/LIGHT_IN*%
X145213862Y-89752454D02*
X145594954Y-89752454D01*
X149236678Y-88974500D02*
X145991816Y-88974500D01*
X147190000Y-91347500D02*
X148787500Y-89750000D01*
X145991816Y-88974500D02*
X145213862Y-89752454D01*
X149451015Y-89188837D02*
X149236678Y-88974500D01*
X145594954Y-89752454D02*
X147190000Y-91347500D01*
X147190000Y-93855000D02*
X147190000Y-91347500D01*
%TD*%
M02*
