%TF.GenerationSoftware,KiCad,Pcbnew,7.0.7*%
%TF.CreationDate,2024-03-10T18:15:54+01:00*%
%TF.ProjectId,Heptachron,48657074-6163-4687-926f-6e2e6b696361,rev?*%
%TF.SameCoordinates,Original*%
%TF.FileFunction,Paste,Top*%
%TF.FilePolarity,Positive*%
%FSLAX46Y46*%
G04 Gerber Fmt 4.6, Leading zero omitted, Abs format (unit mm)*
G04 Created by KiCad (PCBNEW 7.0.7) date 2024-03-10 18:15:54*
%MOMM*%
%LPD*%
G01*
G04 APERTURE LIST*
G04 Aperture macros list*
%AMRoundRect*
0 Rectangle with rounded corners*
0 $1 Rounding radius*
0 $2 $3 $4 $5 $6 $7 $8 $9 X,Y pos of 4 corners*
0 Add a 4 corners polygon primitive as box body*
4,1,4,$2,$3,$4,$5,$6,$7,$8,$9,$2,$3,0*
0 Add four circle primitives for the rounded corners*
1,1,$1+$1,$2,$3*
1,1,$1+$1,$4,$5*
1,1,$1+$1,$6,$7*
1,1,$1+$1,$8,$9*
0 Add four rect primitives between the rounded corners*
20,1,$1+$1,$2,$3,$4,$5,0*
20,1,$1+$1,$4,$5,$6,$7,0*
20,1,$1+$1,$6,$7,$8,$9,0*
20,1,$1+$1,$8,$9,$2,$3,0*%
G04 Aperture macros list end*
%ADD10RoundRect,0.275000X0.133151X-1.028541X0.411497X0.951995X-0.133151X1.028541X-0.411497X-0.951995X0*%
%ADD11RoundRect,0.275000X1.037062X-0.011290X-0.885461X0.539984X-1.037062X0.011290X0.885461X-0.539984X0*%
%ADD12RoundRect,0.275000X-1.037062X0.011290X0.885461X-0.539984X1.037062X-0.011290X-0.885461X0.539984X0*%
%ADD13RoundRect,0.218750X0.256250X-0.218750X0.256250X0.218750X-0.256250X0.218750X-0.256250X-0.218750X0*%
%ADD14RoundRect,0.218750X-0.256250X0.218750X-0.256250X-0.218750X0.256250X-0.218750X0.256250X0.218750X0*%
G04 APERTURE END LIST*
D10*
%TO.C,U1*%
X133480431Y-100435254D03*
D11*
X129539672Y-98188407D03*
X129073672Y-101506407D03*
D10*
X133014431Y-103752254D03*
D12*
X135321190Y-103732101D03*
X135787190Y-100414101D03*
D10*
X133946431Y-97118254D03*
X131480431Y-100435254D03*
D11*
X129261326Y-100168943D03*
X128795326Y-103486943D03*
D10*
X131014431Y-103752254D03*
D12*
X135599536Y-101751565D03*
X136065536Y-98433565D03*
D10*
X131946431Y-97118254D03*
%TD*%
%TO.C,U3*%
X154980431Y-100435254D03*
D11*
X151039672Y-98188407D03*
X150573672Y-101506407D03*
D10*
X154514431Y-103752254D03*
D12*
X156821190Y-103732101D03*
X157287190Y-100414101D03*
D10*
X155446431Y-97118254D03*
X152980431Y-100435254D03*
D11*
X150761326Y-100168943D03*
X150295326Y-103486943D03*
D10*
X152514431Y-103752254D03*
D12*
X157099536Y-101751565D03*
X157565536Y-98433565D03*
D10*
X153446431Y-97118254D03*
%TD*%
%TO.C,U2*%
X141446431Y-97118254D03*
D12*
X145565536Y-98433565D03*
X145099536Y-101751565D03*
D10*
X140514431Y-103752254D03*
D11*
X138295326Y-103486943D03*
X138761326Y-100168943D03*
D10*
X140980431Y-100435254D03*
X143446431Y-97118254D03*
D12*
X145287190Y-100414101D03*
X144821190Y-103732101D03*
D10*
X142514431Y-103752254D03*
D11*
X138573672Y-101506407D03*
X139039672Y-98188407D03*
D10*
X142980431Y-100435254D03*
%TD*%
%TO.C,U4*%
X164480431Y-100435254D03*
D11*
X160539672Y-98188407D03*
X160073672Y-101506407D03*
D10*
X164014431Y-103752254D03*
D12*
X166321190Y-103732101D03*
X166787190Y-100414101D03*
D10*
X164946431Y-97118254D03*
X162480431Y-100435254D03*
D11*
X160261326Y-100168943D03*
X159795326Y-103486943D03*
D10*
X162014431Y-103752254D03*
D12*
X166599536Y-101751565D03*
X167065536Y-98433565D03*
D10*
X162946431Y-97118254D03*
%TD*%
D13*
%TO.C,D40*%
X148000000Y-108787500D03*
X148000000Y-107212500D03*
%TD*%
D14*
%TO.C,D37*%
X148000000Y-101812500D03*
X148000000Y-103387500D03*
%TD*%
D13*
%TO.C,D39*%
X146000000Y-108787500D03*
X146000000Y-107212500D03*
%TD*%
%TO.C,D42*%
X152000000Y-108787500D03*
X152000000Y-107212500D03*
%TD*%
%TO.C,D41*%
X150000000Y-108787500D03*
X150000000Y-107212500D03*
%TD*%
%TO.C,D36*%
X148000000Y-100187500D03*
X148000000Y-98612500D03*
%TD*%
%TO.C,D38*%
X144000000Y-108787500D03*
X144000000Y-107212500D03*
%TD*%
M02*
