%TF.GenerationSoftware,KiCad,Pcbnew,7.0.7*%
%TF.CreationDate,2024-04-20T23:27:06+02:00*%
%TF.ProjectId,Heptachron,48657074-6163-4687-926f-6e2e6b696361,rev?*%
%TF.SameCoordinates,Original*%
%TF.FileFunction,Legend,Bot*%
%TF.FilePolarity,Positive*%
%FSLAX46Y46*%
G04 Gerber Fmt 4.6, Leading zero omitted, Abs format (unit mm)*
G04 Created by KiCad (PCBNEW 7.0.7) date 2024-04-20 23:27:06*
%MOMM*%
%LPD*%
G01*
G04 APERTURE LIST*
%ADD10C,0.150000*%
%ADD11C,0.125000*%
%ADD12C,0.120000*%
%ADD13C,0.254000*%
G04 APERTURE END LIST*
D10*
X152900000Y-96387500D02*
G75*
G03*
X152900000Y-96387500I-300000J0D01*
G01*
D11*
X148777202Y-89453810D02*
X148662916Y-89491905D01*
X148662916Y-89491905D02*
X148624821Y-89530001D01*
X148624821Y-89530001D02*
X148586725Y-89606191D01*
X148586725Y-89606191D02*
X148586725Y-89720477D01*
X148586725Y-89720477D02*
X148624821Y-89796667D01*
X148624821Y-89796667D02*
X148662916Y-89834763D01*
X148662916Y-89834763D02*
X148739106Y-89872858D01*
X148739106Y-89872858D02*
X149043868Y-89872858D01*
X149043868Y-89872858D02*
X149043868Y-89072858D01*
X149043868Y-89072858D02*
X148777202Y-89072858D01*
X148777202Y-89072858D02*
X148701011Y-89110953D01*
X148701011Y-89110953D02*
X148662916Y-89149048D01*
X148662916Y-89149048D02*
X148624821Y-89225239D01*
X148624821Y-89225239D02*
X148624821Y-89301429D01*
X148624821Y-89301429D02*
X148662916Y-89377620D01*
X148662916Y-89377620D02*
X148701011Y-89415715D01*
X148701011Y-89415715D02*
X148777202Y-89453810D01*
X148777202Y-89453810D02*
X149043868Y-89453810D01*
X148243868Y-89872858D02*
X148243868Y-89072858D01*
X148243868Y-89072858D02*
X147977202Y-89644286D01*
X147977202Y-89644286D02*
X147710535Y-89072858D01*
X147710535Y-89072858D02*
X147710535Y-89872858D01*
X147367678Y-89834763D02*
X147253392Y-89872858D01*
X147253392Y-89872858D02*
X147062916Y-89872858D01*
X147062916Y-89872858D02*
X146986725Y-89834763D01*
X146986725Y-89834763D02*
X146948630Y-89796667D01*
X146948630Y-89796667D02*
X146910535Y-89720477D01*
X146910535Y-89720477D02*
X146910535Y-89644286D01*
X146910535Y-89644286D02*
X146948630Y-89568096D01*
X146948630Y-89568096D02*
X146986725Y-89530001D01*
X146986725Y-89530001D02*
X147062916Y-89491905D01*
X147062916Y-89491905D02*
X147215297Y-89453810D01*
X147215297Y-89453810D02*
X147291487Y-89415715D01*
X147291487Y-89415715D02*
X147329582Y-89377620D01*
X147329582Y-89377620D02*
X147367678Y-89301429D01*
X147367678Y-89301429D02*
X147367678Y-89225239D01*
X147367678Y-89225239D02*
X147329582Y-89149048D01*
X147329582Y-89149048D02*
X147291487Y-89110953D01*
X147291487Y-89110953D02*
X147215297Y-89072858D01*
X147215297Y-89072858D02*
X147024820Y-89072858D01*
X147024820Y-89072858D02*
X146910535Y-89110953D01*
D10*
X152127506Y-111869819D02*
X152127506Y-112584104D01*
X152127506Y-112584104D02*
X152175125Y-112726961D01*
X152175125Y-112726961D02*
X152270363Y-112822200D01*
X152270363Y-112822200D02*
X152413220Y-112869819D01*
X152413220Y-112869819D02*
X152508458Y-112869819D01*
X151175125Y-112869819D02*
X151651315Y-112869819D01*
X151651315Y-112869819D02*
X151651315Y-111869819D01*
X150270363Y-112774580D02*
X150317982Y-112822200D01*
X150317982Y-112822200D02*
X150460839Y-112869819D01*
X150460839Y-112869819D02*
X150556077Y-112869819D01*
X150556077Y-112869819D02*
X150698934Y-112822200D01*
X150698934Y-112822200D02*
X150794172Y-112726961D01*
X150794172Y-112726961D02*
X150841791Y-112631723D01*
X150841791Y-112631723D02*
X150889410Y-112441247D01*
X150889410Y-112441247D02*
X150889410Y-112298390D01*
X150889410Y-112298390D02*
X150841791Y-112107914D01*
X150841791Y-112107914D02*
X150794172Y-112012676D01*
X150794172Y-112012676D02*
X150698934Y-111917438D01*
X150698934Y-111917438D02*
X150556077Y-111869819D01*
X150556077Y-111869819D02*
X150460839Y-111869819D01*
X150460839Y-111869819D02*
X150317982Y-111917438D01*
X150317982Y-111917438D02*
X150270363Y-111965057D01*
X149556077Y-111869819D02*
X149556077Y-112584104D01*
X149556077Y-112584104D02*
X149603696Y-112726961D01*
X149603696Y-112726961D02*
X149698934Y-112822200D01*
X149698934Y-112822200D02*
X149841791Y-112869819D01*
X149841791Y-112869819D02*
X149937029Y-112869819D01*
X148603696Y-112869819D02*
X149079886Y-112869819D01*
X149079886Y-112869819D02*
X149079886Y-111869819D01*
X147698934Y-112774580D02*
X147746553Y-112822200D01*
X147746553Y-112822200D02*
X147889410Y-112869819D01*
X147889410Y-112869819D02*
X147984648Y-112869819D01*
X147984648Y-112869819D02*
X148127505Y-112822200D01*
X148127505Y-112822200D02*
X148222743Y-112726961D01*
X148222743Y-112726961D02*
X148270362Y-112631723D01*
X148270362Y-112631723D02*
X148317981Y-112441247D01*
X148317981Y-112441247D02*
X148317981Y-112298390D01*
X148317981Y-112298390D02*
X148270362Y-112107914D01*
X148270362Y-112107914D02*
X148222743Y-112012676D01*
X148222743Y-112012676D02*
X148127505Y-111917438D01*
X148127505Y-111917438D02*
X147984648Y-111869819D01*
X147984648Y-111869819D02*
X147889410Y-111869819D01*
X147889410Y-111869819D02*
X147746553Y-111917438D01*
X147746553Y-111917438D02*
X147698934Y-111965057D01*
X146984648Y-111869819D02*
X146984648Y-112584104D01*
X146984648Y-112584104D02*
X147032267Y-112726961D01*
X147032267Y-112726961D02*
X147127505Y-112822200D01*
X147127505Y-112822200D02*
X147270362Y-112869819D01*
X147270362Y-112869819D02*
X147365600Y-112869819D01*
X146032267Y-112869819D02*
X146508457Y-112869819D01*
X146508457Y-112869819D02*
X146508457Y-111869819D01*
X145127505Y-112774580D02*
X145175124Y-112822200D01*
X145175124Y-112822200D02*
X145317981Y-112869819D01*
X145317981Y-112869819D02*
X145413219Y-112869819D01*
X145413219Y-112869819D02*
X145556076Y-112822200D01*
X145556076Y-112822200D02*
X145651314Y-112726961D01*
X145651314Y-112726961D02*
X145698933Y-112631723D01*
X145698933Y-112631723D02*
X145746552Y-112441247D01*
X145746552Y-112441247D02*
X145746552Y-112298390D01*
X145746552Y-112298390D02*
X145698933Y-112107914D01*
X145698933Y-112107914D02*
X145651314Y-112012676D01*
X145651314Y-112012676D02*
X145556076Y-111917438D01*
X145556076Y-111917438D02*
X145413219Y-111869819D01*
X145413219Y-111869819D02*
X145317981Y-111869819D01*
X145317981Y-111869819D02*
X145175124Y-111917438D01*
X145175124Y-111917438D02*
X145127505Y-111965057D01*
X144413219Y-111869819D02*
X144413219Y-112584104D01*
X144413219Y-112584104D02*
X144460838Y-112726961D01*
X144460838Y-112726961D02*
X144556076Y-112822200D01*
X144556076Y-112822200D02*
X144698933Y-112869819D01*
X144698933Y-112869819D02*
X144794171Y-112869819D01*
X143460838Y-112869819D02*
X143937028Y-112869819D01*
X143937028Y-112869819D02*
X143937028Y-111869819D01*
X142556076Y-112774580D02*
X142603695Y-112822200D01*
X142603695Y-112822200D02*
X142746552Y-112869819D01*
X142746552Y-112869819D02*
X142841790Y-112869819D01*
X142841790Y-112869819D02*
X142984647Y-112822200D01*
X142984647Y-112822200D02*
X143079885Y-112726961D01*
X143079885Y-112726961D02*
X143127504Y-112631723D01*
X143127504Y-112631723D02*
X143175123Y-112441247D01*
X143175123Y-112441247D02*
X143175123Y-112298390D01*
X143175123Y-112298390D02*
X143127504Y-112107914D01*
X143127504Y-112107914D02*
X143079885Y-112012676D01*
X143079885Y-112012676D02*
X142984647Y-111917438D01*
X142984647Y-111917438D02*
X142841790Y-111869819D01*
X142841790Y-111869819D02*
X142746552Y-111869819D01*
X142746552Y-111869819D02*
X142603695Y-111917438D01*
X142603695Y-111917438D02*
X142556076Y-111965057D01*
D11*
X155999286Y-90198595D02*
X156456429Y-90198595D01*
X156227857Y-90198595D02*
X156227857Y-89398595D01*
X156227857Y-89398595D02*
X156304048Y-89512880D01*
X156304048Y-89512880D02*
X156380238Y-89589071D01*
X156380238Y-89589071D02*
X156456429Y-89627166D01*
X155504047Y-89398595D02*
X155427857Y-89398595D01*
X155427857Y-89398595D02*
X155351666Y-89436690D01*
X155351666Y-89436690D02*
X155313571Y-89474785D01*
X155313571Y-89474785D02*
X155275476Y-89550976D01*
X155275476Y-89550976D02*
X155237381Y-89703357D01*
X155237381Y-89703357D02*
X155237381Y-89893833D01*
X155237381Y-89893833D02*
X155275476Y-90046214D01*
X155275476Y-90046214D02*
X155313571Y-90122404D01*
X155313571Y-90122404D02*
X155351666Y-90160500D01*
X155351666Y-90160500D02*
X155427857Y-90198595D01*
X155427857Y-90198595D02*
X155504047Y-90198595D01*
X155504047Y-90198595D02*
X155580238Y-90160500D01*
X155580238Y-90160500D02*
X155618333Y-90122404D01*
X155618333Y-90122404D02*
X155656428Y-90046214D01*
X155656428Y-90046214D02*
X155694524Y-89893833D01*
X155694524Y-89893833D02*
X155694524Y-89703357D01*
X155694524Y-89703357D02*
X155656428Y-89550976D01*
X155656428Y-89550976D02*
X155618333Y-89474785D01*
X155618333Y-89474785D02*
X155580238Y-89436690D01*
X155580238Y-89436690D02*
X155504047Y-89398595D01*
X154551666Y-89665261D02*
X154551666Y-90198595D01*
X154894523Y-89665261D02*
X154894523Y-90084309D01*
X154894523Y-90084309D02*
X154856428Y-90160500D01*
X154856428Y-90160500D02*
X154780238Y-90198595D01*
X154780238Y-90198595D02*
X154665952Y-90198595D01*
X154665952Y-90198595D02*
X154589761Y-90160500D01*
X154589761Y-90160500D02*
X154551666Y-90122404D01*
X134002381Y-104263595D02*
X134459524Y-104263595D01*
X134230952Y-104263595D02*
X134230952Y-103463595D01*
X134230952Y-103463595D02*
X134307143Y-103577880D01*
X134307143Y-103577880D02*
X134383333Y-103654071D01*
X134383333Y-103654071D02*
X134459524Y-103692166D01*
X133507142Y-103463595D02*
X133430952Y-103463595D01*
X133430952Y-103463595D02*
X133354761Y-103501690D01*
X133354761Y-103501690D02*
X133316666Y-103539785D01*
X133316666Y-103539785D02*
X133278571Y-103615976D01*
X133278571Y-103615976D02*
X133240476Y-103768357D01*
X133240476Y-103768357D02*
X133240476Y-103958833D01*
X133240476Y-103958833D02*
X133278571Y-104111214D01*
X133278571Y-104111214D02*
X133316666Y-104187404D01*
X133316666Y-104187404D02*
X133354761Y-104225500D01*
X133354761Y-104225500D02*
X133430952Y-104263595D01*
X133430952Y-104263595D02*
X133507142Y-104263595D01*
X133507142Y-104263595D02*
X133583333Y-104225500D01*
X133583333Y-104225500D02*
X133621428Y-104187404D01*
X133621428Y-104187404D02*
X133659523Y-104111214D01*
X133659523Y-104111214D02*
X133697619Y-103958833D01*
X133697619Y-103958833D02*
X133697619Y-103768357D01*
X133697619Y-103768357D02*
X133659523Y-103615976D01*
X133659523Y-103615976D02*
X133621428Y-103539785D01*
X133621428Y-103539785D02*
X133583333Y-103501690D01*
X133583333Y-103501690D02*
X133507142Y-103463595D01*
X132897618Y-104263595D02*
X132897618Y-103463595D01*
X132440475Y-104263595D02*
X132783333Y-103806452D01*
X132440475Y-103463595D02*
X132897618Y-103920738D01*
X155368333Y-92308595D02*
X155825476Y-92308595D01*
X155596904Y-92308595D02*
X155596904Y-91508595D01*
X155596904Y-91508595D02*
X155673095Y-91622880D01*
X155673095Y-91622880D02*
X155749285Y-91699071D01*
X155749285Y-91699071D02*
X155825476Y-91737166D01*
X154682618Y-91775261D02*
X154682618Y-92308595D01*
X155025475Y-91775261D02*
X155025475Y-92194309D01*
X155025475Y-92194309D02*
X154987380Y-92270500D01*
X154987380Y-92270500D02*
X154911190Y-92308595D01*
X154911190Y-92308595D02*
X154796904Y-92308595D01*
X154796904Y-92308595D02*
X154720713Y-92270500D01*
X154720713Y-92270500D02*
X154682618Y-92232404D01*
X157552448Y-106360623D02*
X157552448Y-107008242D01*
X157552448Y-107008242D02*
X157514353Y-107084432D01*
X157514353Y-107084432D02*
X157476258Y-107122528D01*
X157476258Y-107122528D02*
X157400067Y-107160623D01*
X157400067Y-107160623D02*
X157247686Y-107160623D01*
X157247686Y-107160623D02*
X157171496Y-107122528D01*
X157171496Y-107122528D02*
X157133401Y-107084432D01*
X157133401Y-107084432D02*
X157095305Y-107008242D01*
X157095305Y-107008242D02*
X157095305Y-106360623D01*
X156714353Y-107160623D02*
X156714353Y-106360623D01*
X156714353Y-106360623D02*
X156409591Y-106360623D01*
X156409591Y-106360623D02*
X156333401Y-106398718D01*
X156333401Y-106398718D02*
X156295306Y-106436813D01*
X156295306Y-106436813D02*
X156257210Y-106513004D01*
X156257210Y-106513004D02*
X156257210Y-106627289D01*
X156257210Y-106627289D02*
X156295306Y-106703480D01*
X156295306Y-106703480D02*
X156333401Y-106741575D01*
X156333401Y-106741575D02*
X156409591Y-106779670D01*
X156409591Y-106779670D02*
X156714353Y-106779670D01*
X155914353Y-107160623D02*
X155914353Y-106360623D01*
X155914353Y-106360623D02*
X155723877Y-106360623D01*
X155723877Y-106360623D02*
X155609591Y-106398718D01*
X155609591Y-106398718D02*
X155533401Y-106474908D01*
X155533401Y-106474908D02*
X155495306Y-106551099D01*
X155495306Y-106551099D02*
X155457210Y-106703480D01*
X155457210Y-106703480D02*
X155457210Y-106817766D01*
X155457210Y-106817766D02*
X155495306Y-106970147D01*
X155495306Y-106970147D02*
X155533401Y-107046337D01*
X155533401Y-107046337D02*
X155609591Y-107122528D01*
X155609591Y-107122528D02*
X155723877Y-107160623D01*
X155723877Y-107160623D02*
X155914353Y-107160623D01*
X155114353Y-107160623D02*
X155114353Y-106360623D01*
X160385023Y-97019046D02*
X160385023Y-97399999D01*
X160613595Y-96942856D02*
X159813595Y-97209523D01*
X159813595Y-97209523D02*
X160613595Y-97476189D01*
X159813595Y-97628570D02*
X159813595Y-98085713D01*
X160613595Y-97857141D02*
X159813595Y-97857141D01*
X160080261Y-98238094D02*
X160080261Y-98542856D01*
X159813595Y-98352380D02*
X160499309Y-98352380D01*
X160499309Y-98352380D02*
X160575500Y-98390475D01*
X160575500Y-98390475D02*
X160613595Y-98466665D01*
X160613595Y-98466665D02*
X160613595Y-98542856D01*
X160613595Y-98809523D02*
X160080261Y-98809523D01*
X159813595Y-98809523D02*
X159851690Y-98771427D01*
X159851690Y-98771427D02*
X159889785Y-98809523D01*
X159889785Y-98809523D02*
X159851690Y-98847618D01*
X159851690Y-98847618D02*
X159813595Y-98809523D01*
X159813595Y-98809523D02*
X159889785Y-98809523D01*
X160080261Y-99190475D02*
X160613595Y-99190475D01*
X160156452Y-99190475D02*
X160118357Y-99228570D01*
X160118357Y-99228570D02*
X160080261Y-99304760D01*
X160080261Y-99304760D02*
X160080261Y-99419046D01*
X160080261Y-99419046D02*
X160118357Y-99495237D01*
X160118357Y-99495237D02*
X160194547Y-99533332D01*
X160194547Y-99533332D02*
X160613595Y-99533332D01*
X160080261Y-99838094D02*
X160613595Y-100028570D01*
X160080261Y-100219047D02*
X160613595Y-100028570D01*
X160613595Y-100028570D02*
X160804071Y-99952380D01*
X160804071Y-99952380D02*
X160842166Y-99914285D01*
X160842166Y-99914285D02*
X160880261Y-99838094D01*
X160080261Y-100866666D02*
X160613595Y-100866666D01*
X159775500Y-100676190D02*
X160346928Y-100485713D01*
X160346928Y-100485713D02*
X160346928Y-100980952D01*
X159889785Y-101247618D02*
X159851690Y-101285714D01*
X159851690Y-101285714D02*
X159813595Y-101361904D01*
X159813595Y-101361904D02*
X159813595Y-101552380D01*
X159813595Y-101552380D02*
X159851690Y-101628571D01*
X159851690Y-101628571D02*
X159889785Y-101666666D01*
X159889785Y-101666666D02*
X159965976Y-101704761D01*
X159965976Y-101704761D02*
X160042166Y-101704761D01*
X160042166Y-101704761D02*
X160156452Y-101666666D01*
X160156452Y-101666666D02*
X160613595Y-101209523D01*
X160613595Y-101209523D02*
X160613595Y-101704761D01*
X160080261Y-102390476D02*
X160613595Y-102390476D01*
X159775500Y-102200000D02*
X160346928Y-102009523D01*
X160346928Y-102009523D02*
X160346928Y-102504762D01*
X160308833Y-102809524D02*
X160308833Y-103419048D01*
X160575500Y-103761904D02*
X160613595Y-103876190D01*
X160613595Y-103876190D02*
X160613595Y-104066666D01*
X160613595Y-104066666D02*
X160575500Y-104142857D01*
X160575500Y-104142857D02*
X160537404Y-104180952D01*
X160537404Y-104180952D02*
X160461214Y-104219047D01*
X160461214Y-104219047D02*
X160385023Y-104219047D01*
X160385023Y-104219047D02*
X160308833Y-104180952D01*
X160308833Y-104180952D02*
X160270738Y-104142857D01*
X160270738Y-104142857D02*
X160232642Y-104066666D01*
X160232642Y-104066666D02*
X160194547Y-103914285D01*
X160194547Y-103914285D02*
X160156452Y-103838095D01*
X160156452Y-103838095D02*
X160118357Y-103800000D01*
X160118357Y-103800000D02*
X160042166Y-103761904D01*
X160042166Y-103761904D02*
X159965976Y-103761904D01*
X159965976Y-103761904D02*
X159889785Y-103800000D01*
X159889785Y-103800000D02*
X159851690Y-103838095D01*
X159851690Y-103838095D02*
X159813595Y-103914285D01*
X159813595Y-103914285D02*
X159813595Y-104104762D01*
X159813595Y-104104762D02*
X159851690Y-104219047D01*
X160575500Y-104523809D02*
X160613595Y-104638095D01*
X160613595Y-104638095D02*
X160613595Y-104828571D01*
X160613595Y-104828571D02*
X160575500Y-104904762D01*
X160575500Y-104904762D02*
X160537404Y-104942857D01*
X160537404Y-104942857D02*
X160461214Y-104980952D01*
X160461214Y-104980952D02*
X160385023Y-104980952D01*
X160385023Y-104980952D02*
X160308833Y-104942857D01*
X160308833Y-104942857D02*
X160270738Y-104904762D01*
X160270738Y-104904762D02*
X160232642Y-104828571D01*
X160232642Y-104828571D02*
X160194547Y-104676190D01*
X160194547Y-104676190D02*
X160156452Y-104600000D01*
X160156452Y-104600000D02*
X160118357Y-104561905D01*
X160118357Y-104561905D02*
X160042166Y-104523809D01*
X160042166Y-104523809D02*
X159965976Y-104523809D01*
X159965976Y-104523809D02*
X159889785Y-104561905D01*
X159889785Y-104561905D02*
X159851690Y-104600000D01*
X159851690Y-104600000D02*
X159813595Y-104676190D01*
X159813595Y-104676190D02*
X159813595Y-104866667D01*
X159813595Y-104866667D02*
X159851690Y-104980952D01*
X136382074Y-92037672D02*
X136267788Y-92075767D01*
X136267788Y-92075767D02*
X136229693Y-92113863D01*
X136229693Y-92113863D02*
X136191597Y-92190053D01*
X136191597Y-92190053D02*
X136191597Y-92304339D01*
X136191597Y-92304339D02*
X136229693Y-92380529D01*
X136229693Y-92380529D02*
X136267788Y-92418625D01*
X136267788Y-92418625D02*
X136343978Y-92456720D01*
X136343978Y-92456720D02*
X136648740Y-92456720D01*
X136648740Y-92456720D02*
X136648740Y-91656720D01*
X136648740Y-91656720D02*
X136382074Y-91656720D01*
X136382074Y-91656720D02*
X136305883Y-91694815D01*
X136305883Y-91694815D02*
X136267788Y-91732910D01*
X136267788Y-91732910D02*
X136229693Y-91809101D01*
X136229693Y-91809101D02*
X136229693Y-91885291D01*
X136229693Y-91885291D02*
X136267788Y-91961482D01*
X136267788Y-91961482D02*
X136305883Y-91999577D01*
X136305883Y-91999577D02*
X136382074Y-92037672D01*
X136382074Y-92037672D02*
X136648740Y-92037672D01*
X135886836Y-92228148D02*
X135505883Y-92228148D01*
X135963026Y-92456720D02*
X135696359Y-91656720D01*
X135696359Y-91656720D02*
X135429693Y-92456720D01*
X135277312Y-91656720D02*
X134820169Y-91656720D01*
X135048741Y-92456720D02*
X135048741Y-91656720D01*
X134553502Y-92151958D02*
X133943979Y-92151958D01*
X157289523Y-111601690D02*
X157365713Y-111563595D01*
X157365713Y-111563595D02*
X157479999Y-111563595D01*
X157479999Y-111563595D02*
X157594285Y-111601690D01*
X157594285Y-111601690D02*
X157670475Y-111677880D01*
X157670475Y-111677880D02*
X157708570Y-111754071D01*
X157708570Y-111754071D02*
X157746666Y-111906452D01*
X157746666Y-111906452D02*
X157746666Y-112020738D01*
X157746666Y-112020738D02*
X157708570Y-112173119D01*
X157708570Y-112173119D02*
X157670475Y-112249309D01*
X157670475Y-112249309D02*
X157594285Y-112325500D01*
X157594285Y-112325500D02*
X157479999Y-112363595D01*
X157479999Y-112363595D02*
X157403808Y-112363595D01*
X157403808Y-112363595D02*
X157289523Y-112325500D01*
X157289523Y-112325500D02*
X157251427Y-112287404D01*
X157251427Y-112287404D02*
X157251427Y-112020738D01*
X157251427Y-112020738D02*
X157403808Y-112020738D01*
X156908570Y-112363595D02*
X156908570Y-111563595D01*
X156908570Y-111563595D02*
X156451427Y-112363595D01*
X156451427Y-112363595D02*
X156451427Y-111563595D01*
X156070475Y-112363595D02*
X156070475Y-111563595D01*
X156070475Y-111563595D02*
X155879999Y-111563595D01*
X155879999Y-111563595D02*
X155765713Y-111601690D01*
X155765713Y-111601690D02*
X155689523Y-111677880D01*
X155689523Y-111677880D02*
X155651428Y-111754071D01*
X155651428Y-111754071D02*
X155613332Y-111906452D01*
X155613332Y-111906452D02*
X155613332Y-112020738D01*
X155613332Y-112020738D02*
X155651428Y-112173119D01*
X155651428Y-112173119D02*
X155689523Y-112249309D01*
X155689523Y-112249309D02*
X155765713Y-112325500D01*
X155765713Y-112325500D02*
X155879999Y-112363595D01*
X155879999Y-112363595D02*
X156070475Y-112363595D01*
X142243571Y-99664785D02*
X142205475Y-99626690D01*
X142205475Y-99626690D02*
X142129285Y-99588595D01*
X142129285Y-99588595D02*
X141938809Y-99588595D01*
X141938809Y-99588595D02*
X141862618Y-99626690D01*
X141862618Y-99626690D02*
X141824523Y-99664785D01*
X141824523Y-99664785D02*
X141786428Y-99740976D01*
X141786428Y-99740976D02*
X141786428Y-99817166D01*
X141786428Y-99817166D02*
X141824523Y-99931452D01*
X141824523Y-99931452D02*
X142281666Y-100388595D01*
X142281666Y-100388595D02*
X141786428Y-100388595D01*
X141443570Y-100388595D02*
X141443570Y-99588595D01*
X140986427Y-100388595D02*
X141329285Y-99931452D01*
X140986427Y-99588595D02*
X141443570Y-100045738D01*
X134027381Y-98413595D02*
X134484524Y-98413595D01*
X134255952Y-98413595D02*
X134255952Y-97613595D01*
X134255952Y-97613595D02*
X134332143Y-97727880D01*
X134332143Y-97727880D02*
X134408333Y-97804071D01*
X134408333Y-97804071D02*
X134484524Y-97842166D01*
X133532142Y-97613595D02*
X133455952Y-97613595D01*
X133455952Y-97613595D02*
X133379761Y-97651690D01*
X133379761Y-97651690D02*
X133341666Y-97689785D01*
X133341666Y-97689785D02*
X133303571Y-97765976D01*
X133303571Y-97765976D02*
X133265476Y-97918357D01*
X133265476Y-97918357D02*
X133265476Y-98108833D01*
X133265476Y-98108833D02*
X133303571Y-98261214D01*
X133303571Y-98261214D02*
X133341666Y-98337404D01*
X133341666Y-98337404D02*
X133379761Y-98375500D01*
X133379761Y-98375500D02*
X133455952Y-98413595D01*
X133455952Y-98413595D02*
X133532142Y-98413595D01*
X133532142Y-98413595D02*
X133608333Y-98375500D01*
X133608333Y-98375500D02*
X133646428Y-98337404D01*
X133646428Y-98337404D02*
X133684523Y-98261214D01*
X133684523Y-98261214D02*
X133722619Y-98108833D01*
X133722619Y-98108833D02*
X133722619Y-97918357D01*
X133722619Y-97918357D02*
X133684523Y-97765976D01*
X133684523Y-97765976D02*
X133646428Y-97689785D01*
X133646428Y-97689785D02*
X133608333Y-97651690D01*
X133608333Y-97651690D02*
X133532142Y-97613595D01*
X132922618Y-98413595D02*
X132922618Y-97613595D01*
X132465475Y-98413595D02*
X132808333Y-97956452D01*
X132465475Y-97613595D02*
X132922618Y-98070738D01*
X132238595Y-101945238D02*
X132238595Y-102402381D01*
X132238595Y-102173809D02*
X131438595Y-102173809D01*
X131438595Y-102173809D02*
X131552880Y-102250000D01*
X131552880Y-102250000D02*
X131629071Y-102326190D01*
X131629071Y-102326190D02*
X131667166Y-102402381D01*
X131438595Y-101449999D02*
X131438595Y-101373809D01*
X131438595Y-101373809D02*
X131476690Y-101297618D01*
X131476690Y-101297618D02*
X131514785Y-101259523D01*
X131514785Y-101259523D02*
X131590976Y-101221428D01*
X131590976Y-101221428D02*
X131743357Y-101183333D01*
X131743357Y-101183333D02*
X131933833Y-101183333D01*
X131933833Y-101183333D02*
X132086214Y-101221428D01*
X132086214Y-101221428D02*
X132162404Y-101259523D01*
X132162404Y-101259523D02*
X132200500Y-101297618D01*
X132200500Y-101297618D02*
X132238595Y-101373809D01*
X132238595Y-101373809D02*
X132238595Y-101449999D01*
X132238595Y-101449999D02*
X132200500Y-101526190D01*
X132200500Y-101526190D02*
X132162404Y-101564285D01*
X132162404Y-101564285D02*
X132086214Y-101602380D01*
X132086214Y-101602380D02*
X131933833Y-101640476D01*
X131933833Y-101640476D02*
X131743357Y-101640476D01*
X131743357Y-101640476D02*
X131590976Y-101602380D01*
X131590976Y-101602380D02*
X131514785Y-101564285D01*
X131514785Y-101564285D02*
X131476690Y-101526190D01*
X131476690Y-101526190D02*
X131438595Y-101449999D01*
X131438595Y-100688094D02*
X131438595Y-100611904D01*
X131438595Y-100611904D02*
X131476690Y-100535713D01*
X131476690Y-100535713D02*
X131514785Y-100497618D01*
X131514785Y-100497618D02*
X131590976Y-100459523D01*
X131590976Y-100459523D02*
X131743357Y-100421428D01*
X131743357Y-100421428D02*
X131933833Y-100421428D01*
X131933833Y-100421428D02*
X132086214Y-100459523D01*
X132086214Y-100459523D02*
X132162404Y-100497618D01*
X132162404Y-100497618D02*
X132200500Y-100535713D01*
X132200500Y-100535713D02*
X132238595Y-100611904D01*
X132238595Y-100611904D02*
X132238595Y-100688094D01*
X132238595Y-100688094D02*
X132200500Y-100764285D01*
X132200500Y-100764285D02*
X132162404Y-100802380D01*
X132162404Y-100802380D02*
X132086214Y-100840475D01*
X132086214Y-100840475D02*
X131933833Y-100878571D01*
X131933833Y-100878571D02*
X131743357Y-100878571D01*
X131743357Y-100878571D02*
X131590976Y-100840475D01*
X131590976Y-100840475D02*
X131514785Y-100802380D01*
X131514785Y-100802380D02*
X131476690Y-100764285D01*
X131476690Y-100764285D02*
X131438595Y-100688094D01*
X131705261Y-100078570D02*
X132238595Y-100078570D01*
X131781452Y-100078570D02*
X131743357Y-100040475D01*
X131743357Y-100040475D02*
X131705261Y-99964285D01*
X131705261Y-99964285D02*
X131705261Y-99849999D01*
X131705261Y-99849999D02*
X131743357Y-99773808D01*
X131743357Y-99773808D02*
X131819547Y-99735713D01*
X131819547Y-99735713D02*
X132238595Y-99735713D01*
X151427778Y-107279931D02*
X151427778Y-106479931D01*
X151084922Y-107241836D02*
X150970636Y-107279931D01*
X150970636Y-107279931D02*
X150780160Y-107279931D01*
X150780160Y-107279931D02*
X150703969Y-107241836D01*
X150703969Y-107241836D02*
X150665874Y-107203740D01*
X150665874Y-107203740D02*
X150627779Y-107127550D01*
X150627779Y-107127550D02*
X150627779Y-107051359D01*
X150627779Y-107051359D02*
X150665874Y-106975169D01*
X150665874Y-106975169D02*
X150703969Y-106937074D01*
X150703969Y-106937074D02*
X150780160Y-106898978D01*
X150780160Y-106898978D02*
X150932541Y-106860883D01*
X150932541Y-106860883D02*
X151008731Y-106822788D01*
X151008731Y-106822788D02*
X151046826Y-106784693D01*
X151046826Y-106784693D02*
X151084922Y-106708502D01*
X151084922Y-106708502D02*
X151084922Y-106632312D01*
X151084922Y-106632312D02*
X151046826Y-106556121D01*
X151046826Y-106556121D02*
X151008731Y-106518026D01*
X151008731Y-106518026D02*
X150932541Y-106479931D01*
X150932541Y-106479931D02*
X150742064Y-106479931D01*
X150742064Y-106479931D02*
X150627779Y-106518026D01*
X150361112Y-106479931D02*
X149865874Y-106479931D01*
X149865874Y-106479931D02*
X150132540Y-106784693D01*
X150132540Y-106784693D02*
X150018255Y-106784693D01*
X150018255Y-106784693D02*
X149942064Y-106822788D01*
X149942064Y-106822788D02*
X149903969Y-106860883D01*
X149903969Y-106860883D02*
X149865874Y-106937074D01*
X149865874Y-106937074D02*
X149865874Y-107127550D01*
X149865874Y-107127550D02*
X149903969Y-107203740D01*
X149903969Y-107203740D02*
X149942064Y-107241836D01*
X149942064Y-107241836D02*
X150018255Y-107279931D01*
X150018255Y-107279931D02*
X150246826Y-107279931D01*
X150246826Y-107279931D02*
X150323017Y-107241836D01*
X150323017Y-107241836D02*
X150361112Y-107203740D01*
X149103969Y-107279931D02*
X149561112Y-107279931D01*
X149332540Y-107279931D02*
X149332540Y-106479931D01*
X149332540Y-106479931D02*
X149408731Y-106594216D01*
X149408731Y-106594216D02*
X149484921Y-106670407D01*
X149484921Y-106670407D02*
X149561112Y-106708502D01*
X148494445Y-106860883D02*
X148761111Y-106860883D01*
X148761111Y-107279931D02*
X148761111Y-106479931D01*
X148761111Y-106479931D02*
X148380159Y-106479931D01*
X147694445Y-107279931D02*
X148075397Y-107279931D01*
X148075397Y-107279931D02*
X148075397Y-106479931D01*
X147503969Y-106479931D02*
X147008731Y-106479931D01*
X147008731Y-106479931D02*
X147275397Y-106784693D01*
X147275397Y-106784693D02*
X147161112Y-106784693D01*
X147161112Y-106784693D02*
X147084921Y-106822788D01*
X147084921Y-106822788D02*
X147046826Y-106860883D01*
X147046826Y-106860883D02*
X147008731Y-106937074D01*
X147008731Y-106937074D02*
X147008731Y-107127550D01*
X147008731Y-107127550D02*
X147046826Y-107203740D01*
X147046826Y-107203740D02*
X147084921Y-107241836D01*
X147084921Y-107241836D02*
X147161112Y-107279931D01*
X147161112Y-107279931D02*
X147389683Y-107279931D01*
X147389683Y-107279931D02*
X147465874Y-107241836D01*
X147465874Y-107241836D02*
X147503969Y-107203740D01*
X146742064Y-106479931D02*
X146208730Y-106479931D01*
X146208730Y-106479931D02*
X146551588Y-107279931D01*
X145942064Y-106556121D02*
X145903968Y-106518026D01*
X145903968Y-106518026D02*
X145827778Y-106479931D01*
X145827778Y-106479931D02*
X145637302Y-106479931D01*
X145637302Y-106479931D02*
X145561111Y-106518026D01*
X145561111Y-106518026D02*
X145523016Y-106556121D01*
X145523016Y-106556121D02*
X145484921Y-106632312D01*
X145484921Y-106632312D02*
X145484921Y-106708502D01*
X145484921Y-106708502D02*
X145523016Y-106822788D01*
X145523016Y-106822788D02*
X145980159Y-107279931D01*
X145980159Y-107279931D02*
X145484921Y-107279931D01*
X145103968Y-107279931D02*
X144951587Y-107279931D01*
X144951587Y-107279931D02*
X144875397Y-107241836D01*
X144875397Y-107241836D02*
X144837301Y-107203740D01*
X144837301Y-107203740D02*
X144761111Y-107089455D01*
X144761111Y-107089455D02*
X144723016Y-106937074D01*
X144723016Y-106937074D02*
X144723016Y-106632312D01*
X144723016Y-106632312D02*
X144761111Y-106556121D01*
X144761111Y-106556121D02*
X144799206Y-106518026D01*
X144799206Y-106518026D02*
X144875397Y-106479931D01*
X144875397Y-106479931D02*
X145027778Y-106479931D01*
X145027778Y-106479931D02*
X145103968Y-106518026D01*
X145103968Y-106518026D02*
X145142063Y-106556121D01*
X145142063Y-106556121D02*
X145180159Y-106632312D01*
X145180159Y-106632312D02*
X145180159Y-106822788D01*
X145180159Y-106822788D02*
X145142063Y-106898978D01*
X145142063Y-106898978D02*
X145103968Y-106937074D01*
X145103968Y-106937074D02*
X145027778Y-106975169D01*
X145027778Y-106975169D02*
X144875397Y-106975169D01*
X144875397Y-106975169D02*
X144799206Y-106937074D01*
X144799206Y-106937074D02*
X144761111Y-106898978D01*
X144761111Y-106898978D02*
X144723016Y-106822788D01*
X136369260Y-89476870D02*
X136254974Y-89514965D01*
X136254974Y-89514965D02*
X136216879Y-89553061D01*
X136216879Y-89553061D02*
X136178783Y-89629251D01*
X136178783Y-89629251D02*
X136178783Y-89743537D01*
X136178783Y-89743537D02*
X136216879Y-89819727D01*
X136216879Y-89819727D02*
X136254974Y-89857823D01*
X136254974Y-89857823D02*
X136331164Y-89895918D01*
X136331164Y-89895918D02*
X136635926Y-89895918D01*
X136635926Y-89895918D02*
X136635926Y-89095918D01*
X136635926Y-89095918D02*
X136369260Y-89095918D01*
X136369260Y-89095918D02*
X136293069Y-89134013D01*
X136293069Y-89134013D02*
X136254974Y-89172108D01*
X136254974Y-89172108D02*
X136216879Y-89248299D01*
X136216879Y-89248299D02*
X136216879Y-89324489D01*
X136216879Y-89324489D02*
X136254974Y-89400680D01*
X136254974Y-89400680D02*
X136293069Y-89438775D01*
X136293069Y-89438775D02*
X136369260Y-89476870D01*
X136369260Y-89476870D02*
X136635926Y-89476870D01*
X135874022Y-89667346D02*
X135493069Y-89667346D01*
X135950212Y-89895918D02*
X135683545Y-89095918D01*
X135683545Y-89095918D02*
X135416879Y-89895918D01*
X135264498Y-89095918D02*
X134807355Y-89095918D01*
X135035927Y-89895918D02*
X135035927Y-89095918D01*
X134540688Y-89591156D02*
X133931165Y-89591156D01*
X134235926Y-89895918D02*
X134235926Y-89286394D01*
X141795238Y-97593595D02*
X142252381Y-97593595D01*
X142023809Y-97593595D02*
X142023809Y-96793595D01*
X142023809Y-96793595D02*
X142100000Y-96907880D01*
X142100000Y-96907880D02*
X142176190Y-96984071D01*
X142176190Y-96984071D02*
X142252381Y-97022166D01*
X141299999Y-96793595D02*
X141223809Y-96793595D01*
X141223809Y-96793595D02*
X141147618Y-96831690D01*
X141147618Y-96831690D02*
X141109523Y-96869785D01*
X141109523Y-96869785D02*
X141071428Y-96945976D01*
X141071428Y-96945976D02*
X141033333Y-97098357D01*
X141033333Y-97098357D02*
X141033333Y-97288833D01*
X141033333Y-97288833D02*
X141071428Y-97441214D01*
X141071428Y-97441214D02*
X141109523Y-97517404D01*
X141109523Y-97517404D02*
X141147618Y-97555500D01*
X141147618Y-97555500D02*
X141223809Y-97593595D01*
X141223809Y-97593595D02*
X141299999Y-97593595D01*
X141299999Y-97593595D02*
X141376190Y-97555500D01*
X141376190Y-97555500D02*
X141414285Y-97517404D01*
X141414285Y-97517404D02*
X141452380Y-97441214D01*
X141452380Y-97441214D02*
X141490476Y-97288833D01*
X141490476Y-97288833D02*
X141490476Y-97098357D01*
X141490476Y-97098357D02*
X141452380Y-96945976D01*
X141452380Y-96945976D02*
X141414285Y-96869785D01*
X141414285Y-96869785D02*
X141376190Y-96831690D01*
X141376190Y-96831690D02*
X141299999Y-96793595D01*
X140538094Y-96793595D02*
X140461904Y-96793595D01*
X140461904Y-96793595D02*
X140385713Y-96831690D01*
X140385713Y-96831690D02*
X140347618Y-96869785D01*
X140347618Y-96869785D02*
X140309523Y-96945976D01*
X140309523Y-96945976D02*
X140271428Y-97098357D01*
X140271428Y-97098357D02*
X140271428Y-97288833D01*
X140271428Y-97288833D02*
X140309523Y-97441214D01*
X140309523Y-97441214D02*
X140347618Y-97517404D01*
X140347618Y-97517404D02*
X140385713Y-97555500D01*
X140385713Y-97555500D02*
X140461904Y-97593595D01*
X140461904Y-97593595D02*
X140538094Y-97593595D01*
X140538094Y-97593595D02*
X140614285Y-97555500D01*
X140614285Y-97555500D02*
X140652380Y-97517404D01*
X140652380Y-97517404D02*
X140690475Y-97441214D01*
X140690475Y-97441214D02*
X140728571Y-97288833D01*
X140728571Y-97288833D02*
X140728571Y-97098357D01*
X140728571Y-97098357D02*
X140690475Y-96945976D01*
X140690475Y-96945976D02*
X140652380Y-96869785D01*
X140652380Y-96869785D02*
X140614285Y-96831690D01*
X140614285Y-96831690D02*
X140538094Y-96793595D01*
X139928570Y-97060261D02*
X139928570Y-97593595D01*
X139928570Y-97136452D02*
X139890475Y-97098357D01*
X139890475Y-97098357D02*
X139814285Y-97060261D01*
X139814285Y-97060261D02*
X139699999Y-97060261D01*
X139699999Y-97060261D02*
X139623808Y-97098357D01*
X139623808Y-97098357D02*
X139585713Y-97174547D01*
X139585713Y-97174547D02*
X139585713Y-97593595D01*
X140215475Y-105863595D02*
X140482142Y-105482642D01*
X140672618Y-105863595D02*
X140672618Y-105063595D01*
X140672618Y-105063595D02*
X140367856Y-105063595D01*
X140367856Y-105063595D02*
X140291666Y-105101690D01*
X140291666Y-105101690D02*
X140253571Y-105139785D01*
X140253571Y-105139785D02*
X140215475Y-105215976D01*
X140215475Y-105215976D02*
X140215475Y-105330261D01*
X140215475Y-105330261D02*
X140253571Y-105406452D01*
X140253571Y-105406452D02*
X140291666Y-105444547D01*
X140291666Y-105444547D02*
X140367856Y-105482642D01*
X140367856Y-105482642D02*
X140672618Y-105482642D01*
X139986904Y-105063595D02*
X139720237Y-105863595D01*
X139720237Y-105863595D02*
X139453571Y-105063595D01*
X139186904Y-105558833D02*
X138577381Y-105558833D01*
X138272619Y-105063595D02*
X137777381Y-105063595D01*
X137777381Y-105063595D02*
X138044047Y-105368357D01*
X138044047Y-105368357D02*
X137929762Y-105368357D01*
X137929762Y-105368357D02*
X137853571Y-105406452D01*
X137853571Y-105406452D02*
X137815476Y-105444547D01*
X137815476Y-105444547D02*
X137777381Y-105520738D01*
X137777381Y-105520738D02*
X137777381Y-105711214D01*
X137777381Y-105711214D02*
X137815476Y-105787404D01*
X137815476Y-105787404D02*
X137853571Y-105825500D01*
X137853571Y-105825500D02*
X137929762Y-105863595D01*
X137929762Y-105863595D02*
X138158333Y-105863595D01*
X138158333Y-105863595D02*
X138234524Y-105825500D01*
X138234524Y-105825500D02*
X138272619Y-105787404D01*
X137282142Y-105063595D02*
X137205952Y-105063595D01*
X137205952Y-105063595D02*
X137129761Y-105101690D01*
X137129761Y-105101690D02*
X137091666Y-105139785D01*
X137091666Y-105139785D02*
X137053571Y-105215976D01*
X137053571Y-105215976D02*
X137015476Y-105368357D01*
X137015476Y-105368357D02*
X137015476Y-105558833D01*
X137015476Y-105558833D02*
X137053571Y-105711214D01*
X137053571Y-105711214D02*
X137091666Y-105787404D01*
X137091666Y-105787404D02*
X137129761Y-105825500D01*
X137129761Y-105825500D02*
X137205952Y-105863595D01*
X137205952Y-105863595D02*
X137282142Y-105863595D01*
X137282142Y-105863595D02*
X137358333Y-105825500D01*
X137358333Y-105825500D02*
X137396428Y-105787404D01*
X137396428Y-105787404D02*
X137434523Y-105711214D01*
X137434523Y-105711214D02*
X137472619Y-105558833D01*
X137472619Y-105558833D02*
X137472619Y-105368357D01*
X137472619Y-105368357D02*
X137434523Y-105215976D01*
X137434523Y-105215976D02*
X137396428Y-105139785D01*
X137396428Y-105139785D02*
X137358333Y-105101690D01*
X137358333Y-105101690D02*
X137282142Y-105063595D01*
X136710714Y-105139785D02*
X136672618Y-105101690D01*
X136672618Y-105101690D02*
X136596428Y-105063595D01*
X136596428Y-105063595D02*
X136405952Y-105063595D01*
X136405952Y-105063595D02*
X136329761Y-105101690D01*
X136329761Y-105101690D02*
X136291666Y-105139785D01*
X136291666Y-105139785D02*
X136253571Y-105215976D01*
X136253571Y-105215976D02*
X136253571Y-105292166D01*
X136253571Y-105292166D02*
X136291666Y-105406452D01*
X136291666Y-105406452D02*
X136748809Y-105863595D01*
X136748809Y-105863595D02*
X136253571Y-105863595D01*
X135796428Y-105406452D02*
X135872618Y-105368357D01*
X135872618Y-105368357D02*
X135910713Y-105330261D01*
X135910713Y-105330261D02*
X135948809Y-105254071D01*
X135948809Y-105254071D02*
X135948809Y-105215976D01*
X135948809Y-105215976D02*
X135910713Y-105139785D01*
X135910713Y-105139785D02*
X135872618Y-105101690D01*
X135872618Y-105101690D02*
X135796428Y-105063595D01*
X135796428Y-105063595D02*
X135644047Y-105063595D01*
X135644047Y-105063595D02*
X135567856Y-105101690D01*
X135567856Y-105101690D02*
X135529761Y-105139785D01*
X135529761Y-105139785D02*
X135491666Y-105215976D01*
X135491666Y-105215976D02*
X135491666Y-105254071D01*
X135491666Y-105254071D02*
X135529761Y-105330261D01*
X135529761Y-105330261D02*
X135567856Y-105368357D01*
X135567856Y-105368357D02*
X135644047Y-105406452D01*
X135644047Y-105406452D02*
X135796428Y-105406452D01*
X135796428Y-105406452D02*
X135872618Y-105444547D01*
X135872618Y-105444547D02*
X135910713Y-105482642D01*
X135910713Y-105482642D02*
X135948809Y-105558833D01*
X135948809Y-105558833D02*
X135948809Y-105711214D01*
X135948809Y-105711214D02*
X135910713Y-105787404D01*
X135910713Y-105787404D02*
X135872618Y-105825500D01*
X135872618Y-105825500D02*
X135796428Y-105863595D01*
X135796428Y-105863595D02*
X135644047Y-105863595D01*
X135644047Y-105863595D02*
X135567856Y-105825500D01*
X135567856Y-105825500D02*
X135529761Y-105787404D01*
X135529761Y-105787404D02*
X135491666Y-105711214D01*
X135491666Y-105711214D02*
X135491666Y-105558833D01*
X135491666Y-105558833D02*
X135529761Y-105482642D01*
X135529761Y-105482642D02*
X135567856Y-105444547D01*
X135567856Y-105444547D02*
X135644047Y-105406452D01*
X135148808Y-105558833D02*
X134539285Y-105558833D01*
X133701189Y-105787404D02*
X133739285Y-105825500D01*
X133739285Y-105825500D02*
X133853570Y-105863595D01*
X133853570Y-105863595D02*
X133929761Y-105863595D01*
X133929761Y-105863595D02*
X134044047Y-105825500D01*
X134044047Y-105825500D02*
X134120237Y-105749309D01*
X134120237Y-105749309D02*
X134158332Y-105673119D01*
X134158332Y-105673119D02*
X134196428Y-105520738D01*
X134196428Y-105520738D02*
X134196428Y-105406452D01*
X134196428Y-105406452D02*
X134158332Y-105254071D01*
X134158332Y-105254071D02*
X134120237Y-105177880D01*
X134120237Y-105177880D02*
X134044047Y-105101690D01*
X134044047Y-105101690D02*
X133929761Y-105063595D01*
X133929761Y-105063595D02*
X133853570Y-105063595D01*
X133853570Y-105063595D02*
X133739285Y-105101690D01*
X133739285Y-105101690D02*
X133701189Y-105139785D01*
X133434523Y-105063595D02*
X132901189Y-105063595D01*
X132901189Y-105063595D02*
X133244047Y-105863595D01*
X141875730Y-91636051D02*
X141837634Y-91597956D01*
X141837634Y-91597956D02*
X141761444Y-91559861D01*
X141761444Y-91559861D02*
X141570968Y-91559861D01*
X141570968Y-91559861D02*
X141494777Y-91597956D01*
X141494777Y-91597956D02*
X141456682Y-91636051D01*
X141456682Y-91636051D02*
X141418587Y-91712242D01*
X141418587Y-91712242D02*
X141418587Y-91788432D01*
X141418587Y-91788432D02*
X141456682Y-91902718D01*
X141456682Y-91902718D02*
X141913825Y-92359861D01*
X141913825Y-92359861D02*
X141418587Y-92359861D01*
X141075729Y-92359861D02*
X141075729Y-91559861D01*
X140618586Y-92359861D02*
X140961444Y-91902718D01*
X140618586Y-91559861D02*
X141075729Y-92017004D01*
X138802381Y-96033595D02*
X139259524Y-96033595D01*
X139030952Y-96033595D02*
X139030952Y-95233595D01*
X139030952Y-95233595D02*
X139107143Y-95347880D01*
X139107143Y-95347880D02*
X139183333Y-95424071D01*
X139183333Y-95424071D02*
X139259524Y-95462166D01*
X138307142Y-95233595D02*
X138230952Y-95233595D01*
X138230952Y-95233595D02*
X138154761Y-95271690D01*
X138154761Y-95271690D02*
X138116666Y-95309785D01*
X138116666Y-95309785D02*
X138078571Y-95385976D01*
X138078571Y-95385976D02*
X138040476Y-95538357D01*
X138040476Y-95538357D02*
X138040476Y-95728833D01*
X138040476Y-95728833D02*
X138078571Y-95881214D01*
X138078571Y-95881214D02*
X138116666Y-95957404D01*
X138116666Y-95957404D02*
X138154761Y-95995500D01*
X138154761Y-95995500D02*
X138230952Y-96033595D01*
X138230952Y-96033595D02*
X138307142Y-96033595D01*
X138307142Y-96033595D02*
X138383333Y-95995500D01*
X138383333Y-95995500D02*
X138421428Y-95957404D01*
X138421428Y-95957404D02*
X138459523Y-95881214D01*
X138459523Y-95881214D02*
X138497619Y-95728833D01*
X138497619Y-95728833D02*
X138497619Y-95538357D01*
X138497619Y-95538357D02*
X138459523Y-95385976D01*
X138459523Y-95385976D02*
X138421428Y-95309785D01*
X138421428Y-95309785D02*
X138383333Y-95271690D01*
X138383333Y-95271690D02*
X138307142Y-95233595D01*
X137697618Y-96033595D02*
X137697618Y-95233595D01*
X137240475Y-96033595D02*
X137583333Y-95576452D01*
X137240475Y-95233595D02*
X137697618Y-95690738D01*
X142243571Y-101304785D02*
X142205475Y-101266690D01*
X142205475Y-101266690D02*
X142129285Y-101228595D01*
X142129285Y-101228595D02*
X141938809Y-101228595D01*
X141938809Y-101228595D02*
X141862618Y-101266690D01*
X141862618Y-101266690D02*
X141824523Y-101304785D01*
X141824523Y-101304785D02*
X141786428Y-101380976D01*
X141786428Y-101380976D02*
X141786428Y-101457166D01*
X141786428Y-101457166D02*
X141824523Y-101571452D01*
X141824523Y-101571452D02*
X142281666Y-102028595D01*
X142281666Y-102028595D02*
X141786428Y-102028595D01*
X141443570Y-102028595D02*
X141443570Y-101228595D01*
X140986427Y-102028595D02*
X141329285Y-101571452D01*
X140986427Y-101228595D02*
X141443570Y-101685738D01*
X160962816Y-94643710D02*
X161419959Y-94643710D01*
X161191387Y-94643710D02*
X161191387Y-93843710D01*
X161191387Y-93843710D02*
X161267578Y-93957995D01*
X161267578Y-93957995D02*
X161343768Y-94034186D01*
X161343768Y-94034186D02*
X161419959Y-94072281D01*
X160467577Y-93843710D02*
X160391387Y-93843710D01*
X160391387Y-93843710D02*
X160315196Y-93881805D01*
X160315196Y-93881805D02*
X160277101Y-93919900D01*
X160277101Y-93919900D02*
X160239006Y-93996091D01*
X160239006Y-93996091D02*
X160200911Y-94148472D01*
X160200911Y-94148472D02*
X160200911Y-94338948D01*
X160200911Y-94338948D02*
X160239006Y-94491329D01*
X160239006Y-94491329D02*
X160277101Y-94567519D01*
X160277101Y-94567519D02*
X160315196Y-94605615D01*
X160315196Y-94605615D02*
X160391387Y-94643710D01*
X160391387Y-94643710D02*
X160467577Y-94643710D01*
X160467577Y-94643710D02*
X160543768Y-94605615D01*
X160543768Y-94605615D02*
X160581863Y-94567519D01*
X160581863Y-94567519D02*
X160619958Y-94491329D01*
X160619958Y-94491329D02*
X160658054Y-94338948D01*
X160658054Y-94338948D02*
X160658054Y-94148472D01*
X160658054Y-94148472D02*
X160619958Y-93996091D01*
X160619958Y-93996091D02*
X160581863Y-93919900D01*
X160581863Y-93919900D02*
X160543768Y-93881805D01*
X160543768Y-93881805D02*
X160467577Y-93843710D01*
X159705672Y-93843710D02*
X159629482Y-93843710D01*
X159629482Y-93843710D02*
X159553291Y-93881805D01*
X159553291Y-93881805D02*
X159515196Y-93919900D01*
X159515196Y-93919900D02*
X159477101Y-93996091D01*
X159477101Y-93996091D02*
X159439006Y-94148472D01*
X159439006Y-94148472D02*
X159439006Y-94338948D01*
X159439006Y-94338948D02*
X159477101Y-94491329D01*
X159477101Y-94491329D02*
X159515196Y-94567519D01*
X159515196Y-94567519D02*
X159553291Y-94605615D01*
X159553291Y-94605615D02*
X159629482Y-94643710D01*
X159629482Y-94643710D02*
X159705672Y-94643710D01*
X159705672Y-94643710D02*
X159781863Y-94605615D01*
X159781863Y-94605615D02*
X159819958Y-94567519D01*
X159819958Y-94567519D02*
X159858053Y-94491329D01*
X159858053Y-94491329D02*
X159896149Y-94338948D01*
X159896149Y-94338948D02*
X159896149Y-94148472D01*
X159896149Y-94148472D02*
X159858053Y-93996091D01*
X159858053Y-93996091D02*
X159819958Y-93919900D01*
X159819958Y-93919900D02*
X159781863Y-93881805D01*
X159781863Y-93881805D02*
X159705672Y-93843710D01*
X159096148Y-94110376D02*
X159096148Y-94643710D01*
X159096148Y-94186567D02*
X159058053Y-94148472D01*
X159058053Y-94148472D02*
X158981863Y-94110376D01*
X158981863Y-94110376D02*
X158867577Y-94110376D01*
X158867577Y-94110376D02*
X158791386Y-94148472D01*
X158791386Y-94148472D02*
X158753291Y-94224662D01*
X158753291Y-94224662D02*
X158753291Y-94643710D01*
X141418868Y-90152485D02*
X141876011Y-90152485D01*
X141647439Y-90152485D02*
X141647439Y-89352485D01*
X141647439Y-89352485D02*
X141723630Y-89466770D01*
X141723630Y-89466770D02*
X141799820Y-89542961D01*
X141799820Y-89542961D02*
X141876011Y-89581056D01*
X140733153Y-89619151D02*
X140733153Y-90152485D01*
X141076010Y-89619151D02*
X141076010Y-90038199D01*
X141076010Y-90038199D02*
X141037915Y-90114390D01*
X141037915Y-90114390D02*
X140961725Y-90152485D01*
X140961725Y-90152485D02*
X140847439Y-90152485D01*
X140847439Y-90152485D02*
X140771248Y-90114390D01*
X140771248Y-90114390D02*
X140733153Y-90076294D01*
X157166285Y-109123249D02*
X157547237Y-109123249D01*
X157547237Y-109123249D02*
X157585333Y-109504201D01*
X157585333Y-109504201D02*
X157547237Y-109466106D01*
X157547237Y-109466106D02*
X157471047Y-109428011D01*
X157471047Y-109428011D02*
X157280571Y-109428011D01*
X157280571Y-109428011D02*
X157204380Y-109466106D01*
X157204380Y-109466106D02*
X157166285Y-109504201D01*
X157166285Y-109504201D02*
X157128190Y-109580392D01*
X157128190Y-109580392D02*
X157128190Y-109770868D01*
X157128190Y-109770868D02*
X157166285Y-109847058D01*
X157166285Y-109847058D02*
X157204380Y-109885154D01*
X157204380Y-109885154D02*
X157280571Y-109923249D01*
X157280571Y-109923249D02*
X157471047Y-109923249D01*
X157471047Y-109923249D02*
X157547237Y-109885154D01*
X157547237Y-109885154D02*
X157585333Y-109847058D01*
X156899618Y-109123249D02*
X156632951Y-109923249D01*
X156632951Y-109923249D02*
X156366285Y-109123249D01*
X151284147Y-94127268D02*
X151741290Y-94127268D01*
X151512718Y-94127268D02*
X151512718Y-93327268D01*
X151512718Y-93327268D02*
X151588909Y-93441553D01*
X151588909Y-93441553D02*
X151665099Y-93517744D01*
X151665099Y-93517744D02*
X151741290Y-93555839D01*
X150788908Y-93327268D02*
X150712718Y-93327268D01*
X150712718Y-93327268D02*
X150636527Y-93365363D01*
X150636527Y-93365363D02*
X150598432Y-93403458D01*
X150598432Y-93403458D02*
X150560337Y-93479649D01*
X150560337Y-93479649D02*
X150522242Y-93632030D01*
X150522242Y-93632030D02*
X150522242Y-93822506D01*
X150522242Y-93822506D02*
X150560337Y-93974887D01*
X150560337Y-93974887D02*
X150598432Y-94051077D01*
X150598432Y-94051077D02*
X150636527Y-94089173D01*
X150636527Y-94089173D02*
X150712718Y-94127268D01*
X150712718Y-94127268D02*
X150788908Y-94127268D01*
X150788908Y-94127268D02*
X150865099Y-94089173D01*
X150865099Y-94089173D02*
X150903194Y-94051077D01*
X150903194Y-94051077D02*
X150941289Y-93974887D01*
X150941289Y-93974887D02*
X150979385Y-93822506D01*
X150979385Y-93822506D02*
X150979385Y-93632030D01*
X150979385Y-93632030D02*
X150941289Y-93479649D01*
X150941289Y-93479649D02*
X150903194Y-93403458D01*
X150903194Y-93403458D02*
X150865099Y-93365363D01*
X150865099Y-93365363D02*
X150788908Y-93327268D01*
X150179384Y-94127268D02*
X150179384Y-93327268D01*
X149722241Y-94127268D02*
X150065099Y-93670125D01*
X149722241Y-93327268D02*
X150179384Y-93784411D01*
X141792316Y-94172658D02*
X142249459Y-94172658D01*
X142020887Y-94172658D02*
X142020887Y-93372658D01*
X142020887Y-93372658D02*
X142097078Y-93486943D01*
X142097078Y-93486943D02*
X142173268Y-93563134D01*
X142173268Y-93563134D02*
X142249459Y-93601229D01*
X141335173Y-93715515D02*
X141411363Y-93677420D01*
X141411363Y-93677420D02*
X141449458Y-93639324D01*
X141449458Y-93639324D02*
X141487554Y-93563134D01*
X141487554Y-93563134D02*
X141487554Y-93525039D01*
X141487554Y-93525039D02*
X141449458Y-93448848D01*
X141449458Y-93448848D02*
X141411363Y-93410753D01*
X141411363Y-93410753D02*
X141335173Y-93372658D01*
X141335173Y-93372658D02*
X141182792Y-93372658D01*
X141182792Y-93372658D02*
X141106601Y-93410753D01*
X141106601Y-93410753D02*
X141068506Y-93448848D01*
X141068506Y-93448848D02*
X141030411Y-93525039D01*
X141030411Y-93525039D02*
X141030411Y-93563134D01*
X141030411Y-93563134D02*
X141068506Y-93639324D01*
X141068506Y-93639324D02*
X141106601Y-93677420D01*
X141106601Y-93677420D02*
X141182792Y-93715515D01*
X141182792Y-93715515D02*
X141335173Y-93715515D01*
X141335173Y-93715515D02*
X141411363Y-93753610D01*
X141411363Y-93753610D02*
X141449458Y-93791705D01*
X141449458Y-93791705D02*
X141487554Y-93867896D01*
X141487554Y-93867896D02*
X141487554Y-94020277D01*
X141487554Y-94020277D02*
X141449458Y-94096467D01*
X141449458Y-94096467D02*
X141411363Y-94134563D01*
X141411363Y-94134563D02*
X141335173Y-94172658D01*
X141335173Y-94172658D02*
X141182792Y-94172658D01*
X141182792Y-94172658D02*
X141106601Y-94134563D01*
X141106601Y-94134563D02*
X141068506Y-94096467D01*
X141068506Y-94096467D02*
X141030411Y-94020277D01*
X141030411Y-94020277D02*
X141030411Y-93867896D01*
X141030411Y-93867896D02*
X141068506Y-93791705D01*
X141068506Y-93791705D02*
X141106601Y-93753610D01*
X141106601Y-93753610D02*
X141182792Y-93715515D01*
X140687553Y-94172658D02*
X140687553Y-93372658D01*
X140230410Y-94172658D02*
X140573268Y-93715515D01*
X140230410Y-93372658D02*
X140687553Y-93829801D01*
D12*
%TO.C,C9*%
X152746252Y-90640000D02*
X152223748Y-90640000D01*
X152746252Y-89170000D02*
X152223748Y-89170000D01*
%TO.C,R1*%
X136462258Y-104422500D02*
X135987742Y-104422500D01*
X136462258Y-103377500D02*
X135987742Y-103377500D01*
%TO.C,C10*%
X152746252Y-92750000D02*
X152223748Y-92750000D01*
X152746252Y-91280000D02*
X152223748Y-91280000D01*
%TO.C,U8*%
X164775000Y-105435000D02*
X166725000Y-105435000D01*
X164775000Y-105435000D02*
X162825000Y-105435000D01*
X164775000Y-96565000D02*
X168225000Y-96565000D01*
X164775000Y-96565000D02*
X162825000Y-96565000D01*
%TO.C,R14*%
X139602258Y-100567500D02*
X139127742Y-100567500D01*
X139602258Y-99522500D02*
X139127742Y-99522500D01*
%TO.C,R2*%
X136462258Y-98472500D02*
X135987742Y-98472500D01*
X136462258Y-97427500D02*
X135987742Y-97427500D01*
%TO.C,C1*%
X132890000Y-101190580D02*
X132890000Y-100909420D01*
X133910000Y-101190580D02*
X133910000Y-100909420D01*
D10*
%TO.C,U7*%
X151625000Y-104625000D02*
X151625000Y-104300000D01*
X151625000Y-104625000D02*
X151300000Y-104625000D01*
X151625000Y-97600000D02*
X153050000Y-97600000D01*
X151625000Y-97375000D02*
X151625000Y-97600000D01*
X151625000Y-97375000D02*
X151300000Y-97375000D01*
X144375000Y-104625000D02*
X144700000Y-104625000D01*
X144375000Y-104625000D02*
X144375000Y-104300000D01*
X144375000Y-97375000D02*
X144700000Y-97375000D01*
X144375000Y-97375000D02*
X144375000Y-97700000D01*
D12*
%TO.C,C7*%
X141140580Y-98960000D02*
X140859420Y-98960000D01*
X141140580Y-97940000D02*
X140859420Y-97940000D01*
%TO.C,X1*%
X135625000Y-99250000D02*
X137425000Y-99250000D01*
X135625000Y-102850000D02*
X136825000Y-102850000D01*
X138025000Y-98850000D02*
G75*
G03*
X138025000Y-98850000I-200000J0D01*
G01*
%TO.C,R18*%
X143759901Y-91403766D02*
X144234417Y-91403766D01*
X143759901Y-92448766D02*
X144234417Y-92448766D01*
%TO.C,R15*%
X140712742Y-95177500D02*
X141187258Y-95177500D01*
X140712742Y-96222500D02*
X141187258Y-96222500D01*
%TO.C,R13*%
X139602258Y-102207500D02*
X139127742Y-102207500D01*
X139602258Y-101162500D02*
X139127742Y-101162500D01*
%TO.C,C4*%
X160024420Y-95055000D02*
X160305580Y-95055000D01*
X160024420Y-96075000D02*
X160305580Y-96075000D01*
%TO.C,C8*%
X144046787Y-90593890D02*
X143524283Y-90593890D01*
X144046787Y-89123890D02*
X143524283Y-89123890D01*
D13*
%TO.C,IC1*%
X149625000Y-89500000D02*
G75*
G03*
X149625000Y-89500000I-125000J0D01*
G01*
D12*
%TO.C,R19*%
X148219024Y-94356173D02*
X147744508Y-94356173D01*
X148219024Y-93311173D02*
X147744508Y-93311173D01*
%TO.C,R17*%
X143752677Y-93216563D02*
X144227193Y-93216563D01*
X143752677Y-94261563D02*
X144227193Y-94261563D01*
%TD*%
M02*
