%TF.GenerationSoftware,KiCad,Pcbnew,7.0.7*%
%TF.CreationDate,2024-03-10T18:15:54+01:00*%
%TF.ProjectId,Heptachron,48657074-6163-4687-926f-6e2e6b696361,rev?*%
%TF.SameCoordinates,Original*%
%TF.FileFunction,Legend,Top*%
%TF.FilePolarity,Positive*%
%FSLAX46Y46*%
G04 Gerber Fmt 4.6, Leading zero omitted, Abs format (unit mm)*
G04 Created by KiCad (PCBNEW 7.0.7) date 2024-03-10 18:15:54*
%MOMM*%
%LPD*%
G01*
G04 APERTURE LIST*
%ADD10C,0.100000*%
%ADD11C,0.187500*%
%ADD12C,0.120000*%
G04 APERTURE END LIST*
D10*
X128893885Y-83635085D02*
X129503408Y-83635085D01*
X129503409Y-83635085D02*
X130112932Y-83635085D01*
X131331981Y-83635085D02*
X131941504Y-83635085D01*
X131941505Y-83635085D02*
X132551028Y-83635085D01*
X132551029Y-83635085D02*
X133160552Y-83635085D01*
X133160553Y-83635085D02*
X133770076Y-83635085D01*
X133770077Y-83635085D02*
X134379600Y-83635085D01*
X134379601Y-83635085D02*
X134989124Y-83635085D01*
X134989125Y-83635085D02*
X135598648Y-83635085D01*
X135598649Y-83635085D02*
X136208172Y-83635085D01*
X136208173Y-83635085D02*
X136817696Y-83635085D01*
X136817697Y-83635085D02*
X137427220Y-83635085D01*
X137427221Y-83635085D02*
X138036744Y-83635085D01*
X138036745Y-83635085D02*
X138646268Y-83635085D01*
X139865317Y-83635085D02*
X140474840Y-83635085D01*
X140474841Y-83635085D02*
X141084364Y-83635085D01*
X141084365Y-83635085D02*
X141693888Y-83635085D01*
X141693889Y-83635085D02*
X142303412Y-83635085D01*
X142303413Y-83635085D02*
X142912936Y-83635085D01*
X142912937Y-83635085D02*
X143522460Y-83635085D01*
X143522461Y-83635085D02*
X144131984Y-83635085D01*
X144131985Y-83635085D02*
X144741508Y-83635085D01*
X144741509Y-83635085D02*
X145351032Y-83635085D01*
X147179605Y-83635085D02*
X147789128Y-83635085D01*
X147789129Y-83635085D02*
X148398652Y-83635085D01*
X148398653Y-83635085D02*
X149008176Y-83635085D01*
X149008177Y-83635085D02*
X149617700Y-83635085D01*
X149617701Y-83635085D02*
X150227224Y-83635085D01*
X150227225Y-83635085D02*
X150836748Y-83635085D01*
X150836749Y-83635085D02*
X151446272Y-83635085D01*
X151446273Y-83635085D02*
X152055796Y-83635085D01*
X153274845Y-83635085D02*
X153884368Y-83635085D01*
X153884369Y-83635085D02*
X154493892Y-83635085D01*
X154493893Y-83635085D02*
X155103416Y-83635085D01*
X155103417Y-83635085D02*
X155712940Y-83635085D01*
X155712941Y-83635085D02*
X156322464Y-83635085D01*
X156322465Y-83635085D02*
X156931988Y-83635085D01*
X158151037Y-83635085D02*
X158760560Y-83635085D01*
X158760561Y-83635085D02*
X159370084Y-83635085D01*
X159370085Y-83635085D02*
X159979608Y-83635085D01*
X159979609Y-83635085D02*
X160589132Y-83635085D01*
X161808181Y-83635085D02*
X162417704Y-83635085D01*
X164246277Y-83635085D02*
X164855800Y-83635085D01*
X164855801Y-83635085D02*
X165465324Y-83635085D01*
X129046265Y-84008800D02*
X128360551Y-85037371D01*
X130493884Y-84008800D02*
X129808170Y-85037371D01*
X131941503Y-84008800D02*
X131255789Y-85037371D01*
X133389122Y-84008800D02*
X132703408Y-85037371D01*
X134074837Y-84923085D02*
X134684360Y-84923085D01*
X134684361Y-84923085D02*
X135293884Y-84923085D01*
X135293885Y-84923085D02*
X135903408Y-84923085D01*
X135903409Y-84923085D02*
X136512932Y-84923085D01*
X137274837Y-84008800D02*
X136589123Y-85037371D01*
X137960552Y-84923085D02*
X138570075Y-84923085D01*
X138570076Y-84923085D02*
X139179599Y-84923085D01*
X139712933Y-83970704D02*
X140398647Y-84999276D01*
X141084361Y-84008800D02*
X140398647Y-85037371D01*
X141160552Y-84923085D02*
X141770075Y-84923085D01*
X142989124Y-84923085D02*
X143598647Y-84923085D01*
X143598648Y-84923085D02*
X144208171Y-84923085D01*
X144970076Y-84008800D02*
X144284362Y-85037371D01*
X147255791Y-85113561D02*
X147255791Y-83970704D01*
X149008172Y-84008800D02*
X148322458Y-85037371D01*
X149693887Y-84923085D02*
X150303410Y-84923085D01*
X150303411Y-84923085D02*
X150912934Y-84923085D01*
X150912935Y-84923085D02*
X151522458Y-84923085D01*
X151522459Y-84923085D02*
X152131982Y-84923085D01*
X152893887Y-84008800D02*
X152208173Y-85037371D01*
X154341506Y-84008800D02*
X153655792Y-85037371D01*
X155789125Y-84008800D02*
X155103411Y-85037371D01*
X157236744Y-84008800D02*
X156551030Y-85037371D01*
X157922459Y-84923085D02*
X158531982Y-84923085D01*
X158531983Y-84923085D02*
X159141506Y-84923085D01*
X159674840Y-83970704D02*
X160360554Y-84999276D01*
X161046268Y-84008800D02*
X160360554Y-85037371D01*
X161731983Y-84923085D02*
X162341506Y-84923085D01*
X162341507Y-84923085D02*
X162951030Y-84923085D01*
X163484364Y-83970704D02*
X164170078Y-84999276D01*
X164855792Y-84008800D02*
X164170078Y-85037371D01*
X165922459Y-85113561D02*
X165922459Y-83970704D01*
X167674840Y-84008800D02*
X166989126Y-85037371D01*
X169122459Y-84008800D02*
X168436745Y-85037371D01*
X128436741Y-85296800D02*
X127751027Y-86325371D01*
X129884360Y-85296800D02*
X129198646Y-86325371D01*
X129960551Y-86211085D02*
X130570074Y-86211085D01*
X131331979Y-85296800D02*
X130646265Y-86325371D01*
X132779598Y-85296800D02*
X132093884Y-86325371D01*
X133465313Y-86211085D02*
X134074836Y-86211085D01*
X134074837Y-86211085D02*
X134684360Y-86211085D01*
X135446265Y-85296800D02*
X134760551Y-86325371D01*
X136893884Y-85296800D02*
X136208170Y-86325371D01*
X138341503Y-85296800D02*
X137655789Y-86325371D01*
X138417694Y-86211085D02*
X139027217Y-86211085D01*
X139789122Y-85296800D02*
X139103408Y-86325371D01*
X141236741Y-85296800D02*
X140551027Y-86325371D01*
X142684360Y-85296800D02*
X141998646Y-86325371D01*
X144131979Y-85296800D02*
X143446265Y-86325371D01*
X145579598Y-85296800D02*
X144893884Y-86325371D01*
X147027217Y-85296800D02*
X146341503Y-86325371D01*
X147484360Y-86401561D02*
X147484360Y-85258704D01*
X148855789Y-86401561D02*
X148855789Y-85258704D01*
X149998646Y-85296800D02*
X149312932Y-86325371D01*
X151446265Y-85296800D02*
X150760551Y-86325371D01*
X154112932Y-85296800D02*
X153427218Y-86325371D01*
X155560551Y-85296800D02*
X154874837Y-86325371D01*
X155636742Y-86211085D02*
X156246265Y-86211085D01*
X157008170Y-85296800D02*
X156322456Y-86325371D01*
X158455789Y-85296800D02*
X157770075Y-86325371D01*
X159903408Y-85296800D02*
X159217694Y-86325371D01*
X159979599Y-86211085D02*
X160589122Y-86211085D01*
X161351027Y-85296800D02*
X160665313Y-86325371D01*
X162798646Y-85296800D02*
X162112932Y-86325371D01*
X164246265Y-85296800D02*
X163560551Y-86325371D01*
X165693884Y-85296800D02*
X165008170Y-86325371D01*
X167141503Y-85296800D02*
X166455789Y-86325371D01*
X168817694Y-86401561D02*
X168817694Y-85258704D01*
X169960551Y-85296800D02*
X169274837Y-86325371D01*
X171408170Y-85296800D02*
X170722456Y-86325371D01*
X127827217Y-86584800D02*
X127141503Y-87613371D01*
X128512932Y-87499085D02*
X129122455Y-87499085D01*
X129122456Y-87499085D02*
X129731979Y-87499085D01*
X131712932Y-86584800D02*
X131027218Y-87613371D01*
X133160551Y-86584800D02*
X132474837Y-87613371D01*
X133236742Y-87499085D02*
X133846265Y-87499085D01*
X133846266Y-87499085D02*
X134455789Y-87499085D01*
X134455790Y-87499085D02*
X135065313Y-87499085D01*
X135827218Y-86584800D02*
X135141504Y-87613371D01*
X136512933Y-87499085D02*
X137122456Y-87499085D01*
X137122457Y-87499085D02*
X137731980Y-87499085D01*
X137731981Y-87499085D02*
X138341504Y-87499085D01*
X138341505Y-87499085D02*
X138951028Y-87499085D01*
X139712933Y-86584800D02*
X139027219Y-87613371D01*
X141160552Y-86584800D02*
X140474838Y-87613371D01*
X142608171Y-86584800D02*
X141922457Y-87613371D01*
X144055790Y-86584800D02*
X143370076Y-87613371D01*
X144741505Y-87499085D02*
X145351028Y-87499085D01*
X145351029Y-87499085D02*
X145960552Y-87499085D01*
X145960553Y-87499085D02*
X146570076Y-87499085D01*
X147941505Y-86584800D02*
X147255791Y-87613371D01*
X149389124Y-86584800D02*
X148703410Y-87613371D01*
X149465315Y-87499085D02*
X150074838Y-87499085D01*
X150074839Y-87499085D02*
X150684362Y-87499085D01*
X150684363Y-87499085D02*
X151293886Y-87499085D01*
X152055791Y-86584800D02*
X151370077Y-87613371D01*
X152741506Y-87499085D02*
X153351029Y-87499085D01*
X153351030Y-87499085D02*
X153960553Y-87499085D01*
X155941506Y-86584800D02*
X155255792Y-87613371D01*
X156627221Y-87499085D02*
X157236744Y-87499085D01*
X157465316Y-87384800D02*
X157465316Y-87422895D01*
X157465316Y-87422895D02*
X157427221Y-87499085D01*
X157427221Y-87499085D02*
X157389125Y-87537180D01*
X158227221Y-87499085D02*
X158836744Y-87499085D01*
X159598649Y-86584800D02*
X158912935Y-87613371D01*
X161046268Y-86584800D02*
X160360554Y-87613371D01*
X161122459Y-87499085D02*
X161731982Y-87499085D01*
X162493887Y-86584800D02*
X161808173Y-87613371D01*
X163941506Y-86584800D02*
X163255792Y-87613371D01*
X165389125Y-86584800D02*
X164703411Y-87613371D01*
X165846268Y-87689561D02*
X165846268Y-86546704D01*
X168208173Y-86584800D02*
X167522459Y-87613371D01*
X127217693Y-87872800D02*
X126531979Y-88901371D01*
X127293884Y-88787085D02*
X127903407Y-88787085D01*
X128665312Y-87872800D02*
X127979598Y-88901371D01*
X130112931Y-87872800D02*
X129427217Y-88901371D01*
X130189122Y-88787085D02*
X130798645Y-88787085D01*
X131560550Y-87872800D02*
X130874836Y-88901371D01*
X131636741Y-88787085D02*
X132246264Y-88787085D01*
X132246265Y-88787085D02*
X132855788Y-88787085D01*
X132855789Y-88787085D02*
X133465312Y-88787085D01*
X133465313Y-88787085D02*
X134074836Y-88787085D01*
X134074837Y-88787085D02*
X134684360Y-88787085D01*
X135446265Y-87872800D02*
X134760551Y-88901371D01*
X135522456Y-88787085D02*
X136131979Y-88787085D01*
X136893884Y-87872800D02*
X136208170Y-88901371D01*
X140779599Y-87872800D02*
X140093885Y-88901371D01*
X140855790Y-88787085D02*
X141465313Y-88787085D01*
X142227218Y-87872800D02*
X141541504Y-88901371D01*
X143674837Y-87872800D02*
X142989123Y-88901371D01*
X143751028Y-88787085D02*
X144360551Y-88787085D01*
X145122456Y-87872800D02*
X144436742Y-88901371D01*
X146798647Y-88977561D02*
X146798647Y-87834704D01*
X147179600Y-88787085D02*
X147789123Y-88787085D01*
X147712933Y-87834704D02*
X148398647Y-88863276D01*
X148322457Y-88787085D02*
X148931980Y-88787085D01*
X148931981Y-88787085D02*
X149541504Y-88787085D01*
X149541505Y-88787085D02*
X150151028Y-88787085D01*
X150151029Y-88787085D02*
X150760552Y-88787085D01*
X151522457Y-87872800D02*
X150836743Y-88901371D01*
X151598648Y-88787085D02*
X152208171Y-88787085D01*
X152970076Y-87872800D02*
X152284362Y-88901371D01*
X154417695Y-87872800D02*
X153731981Y-88901371D01*
X154493886Y-88787085D02*
X155103409Y-88787085D01*
X155865314Y-87872800D02*
X155179600Y-88901371D01*
X155941505Y-88787085D02*
X156551028Y-88787085D01*
X157312933Y-87872800D02*
X156627219Y-88901371D01*
X158379600Y-88977561D02*
X158379600Y-87834704D01*
X158760553Y-88787085D02*
X159370076Y-88787085D01*
X159751029Y-88977561D02*
X159751029Y-87834704D01*
X160055791Y-87834704D02*
X160741505Y-88863276D01*
X160665315Y-88787085D02*
X161274838Y-88787085D01*
X161274839Y-88787085D02*
X161884362Y-88787085D01*
X161884363Y-88787085D02*
X162493886Y-88787085D01*
X162493887Y-88787085D02*
X163103410Y-88787085D01*
X163865315Y-87872800D02*
X163179601Y-88901371D01*
X163941506Y-88787085D02*
X164551029Y-88787085D01*
X165312934Y-87872800D02*
X164627220Y-88901371D01*
X166379601Y-88977561D02*
X166379601Y-87834704D01*
X166760554Y-88787085D02*
X167370077Y-88787085D01*
X168131982Y-87872800D02*
X167446268Y-88901371D01*
D11*
G36*
X150264048Y-112890064D02*
G01*
X150280782Y-112889827D01*
X150296877Y-112889125D01*
X150312342Y-112887964D01*
X150327183Y-112886353D01*
X150341408Y-112884302D01*
X150355023Y-112881818D01*
X150368035Y-112878910D01*
X150380452Y-112875586D01*
X150392279Y-112871855D01*
X150403525Y-112867726D01*
X150414196Y-112863207D01*
X150424300Y-112858307D01*
X150433842Y-112853033D01*
X150442831Y-112847395D01*
X150451272Y-112841401D01*
X150459174Y-112835060D01*
X150466543Y-112828380D01*
X150473386Y-112821369D01*
X150479710Y-112814037D01*
X150485521Y-112806391D01*
X150490828Y-112798441D01*
X150495637Y-112790194D01*
X150499955Y-112781659D01*
X150503788Y-112772845D01*
X150507144Y-112763761D01*
X150510031Y-112754414D01*
X150512454Y-112744813D01*
X150514421Y-112734967D01*
X150515938Y-112724884D01*
X150517014Y-112714574D01*
X150517654Y-112704043D01*
X150517866Y-112693301D01*
X150517866Y-112595409D01*
X150517654Y-112584667D01*
X150517014Y-112574135D01*
X150515938Y-112563821D01*
X150514421Y-112553735D01*
X150512454Y-112543885D01*
X150510031Y-112534279D01*
X150507144Y-112524926D01*
X150503788Y-112515835D01*
X150499955Y-112507014D01*
X150495637Y-112498471D01*
X150490828Y-112490216D01*
X150485521Y-112482257D01*
X150479710Y-112474603D01*
X150473386Y-112467262D01*
X150466543Y-112460242D01*
X150459174Y-112453553D01*
X150451272Y-112447202D01*
X150442831Y-112441199D01*
X150433842Y-112435552D01*
X150424300Y-112430270D01*
X150414196Y-112425361D01*
X150403525Y-112420834D01*
X150392279Y-112416697D01*
X150380452Y-112412960D01*
X150368035Y-112409629D01*
X150355023Y-112406715D01*
X150341408Y-112404226D01*
X150327183Y-112402170D01*
X150312342Y-112400556D01*
X150296877Y-112399393D01*
X150280782Y-112398688D01*
X150264048Y-112398451D01*
X149800378Y-112398451D01*
X149788617Y-112398193D01*
X149777725Y-112397417D01*
X149767687Y-112396125D01*
X149758487Y-112394318D01*
X149750110Y-112391995D01*
X149742541Y-112389157D01*
X149732670Y-112383937D01*
X149724531Y-112377563D01*
X149718074Y-112370035D01*
X149713247Y-112361357D01*
X149709999Y-112351530D01*
X149708279Y-112340556D01*
X149707956Y-112332604D01*
X149707956Y-112284732D01*
X149708279Y-112276780D01*
X149709999Y-112265806D01*
X149713247Y-112255979D01*
X149718074Y-112247300D01*
X149724531Y-112239773D01*
X149732670Y-112233398D01*
X149742541Y-112228178D01*
X149750110Y-112225341D01*
X149758487Y-112223018D01*
X149767687Y-112221210D01*
X149777725Y-112219918D01*
X149788617Y-112219143D01*
X149800378Y-112218884D01*
X150474097Y-112218884D01*
X150474097Y-112089729D01*
X149800378Y-112089729D01*
X149783645Y-112089965D01*
X149767549Y-112090669D01*
X149752084Y-112091832D01*
X149737243Y-112093446D01*
X149723018Y-112095500D01*
X149709403Y-112097987D01*
X149696391Y-112100898D01*
X149683975Y-112104224D01*
X149672147Y-112107957D01*
X149660901Y-112112087D01*
X149650230Y-112116607D01*
X149640127Y-112121506D01*
X149630584Y-112126777D01*
X149621596Y-112132411D01*
X149613154Y-112138399D01*
X149605252Y-112144732D01*
X149597883Y-112151402D01*
X149591041Y-112158400D01*
X149584717Y-112165716D01*
X149578905Y-112173344D01*
X149573598Y-112181272D01*
X149568789Y-112189494D01*
X149564472Y-112198000D01*
X149560638Y-112206782D01*
X149557282Y-112215830D01*
X149554396Y-112225137D01*
X149551972Y-112234692D01*
X149550006Y-112244488D01*
X149548488Y-112254516D01*
X149547413Y-112264768D01*
X149546772Y-112275233D01*
X149546561Y-112285904D01*
X149546561Y-112331431D01*
X149546772Y-112342102D01*
X149547413Y-112352566D01*
X149548488Y-112362814D01*
X149550006Y-112372839D01*
X149551972Y-112382631D01*
X149554396Y-112392181D01*
X149557282Y-112401481D01*
X149560638Y-112410523D01*
X149564472Y-112419298D01*
X149568789Y-112427796D01*
X149573598Y-112436010D01*
X149578905Y-112443930D01*
X149584717Y-112451549D01*
X149591041Y-112458857D01*
X149597883Y-112465845D01*
X149605252Y-112472506D01*
X149613154Y-112478830D01*
X149621596Y-112484809D01*
X149630584Y-112490434D01*
X149640127Y-112495696D01*
X149650230Y-112500587D01*
X149660901Y-112505098D01*
X149672147Y-112509221D01*
X149683975Y-112512946D01*
X149696391Y-112516266D01*
X149709403Y-112519171D01*
X149723018Y-112521653D01*
X149737243Y-112523703D01*
X149752084Y-112525313D01*
X149767549Y-112526473D01*
X149783645Y-112527176D01*
X149800378Y-112527412D01*
X150264048Y-112527412D01*
X150275775Y-112527677D01*
X150286636Y-112528472D01*
X150296649Y-112529795D01*
X150305826Y-112531643D01*
X150314184Y-112534016D01*
X150321737Y-112536912D01*
X150331590Y-112542232D01*
X150339716Y-112548718D01*
X150346165Y-112556364D01*
X150350987Y-112565166D01*
X150354232Y-112575116D01*
X150355951Y-112586209D01*
X150356275Y-112594237D01*
X150356275Y-112694278D01*
X150355954Y-112702338D01*
X150354244Y-112713465D01*
X150351014Y-112723432D01*
X150346210Y-112732237D01*
X150339779Y-112739878D01*
X150331668Y-112746352D01*
X150321823Y-112751655D01*
X150314271Y-112754538D01*
X150305909Y-112756899D01*
X150296721Y-112758737D01*
X150286692Y-112760051D01*
X150275807Y-112760840D01*
X150264048Y-112761103D01*
X149572353Y-112761103D01*
X149572353Y-112890064D01*
X150264048Y-112890064D01*
G37*
G36*
X151674014Y-112890064D02*
G01*
X152043895Y-112089729D01*
X151885626Y-112089729D01*
X151613051Y-112685290D01*
X151343797Y-112089729D01*
X151224802Y-112089729D01*
X150952227Y-112685290D01*
X150681801Y-112089729D01*
X150524704Y-112089729D01*
X150893413Y-112890064D01*
X151009868Y-112890064D01*
X151284788Y-112294697D01*
X151554041Y-112890064D01*
X151674014Y-112890064D01*
G37*
G36*
X152430776Y-112890064D02*
G01*
X152959317Y-112192311D01*
X152959317Y-112089729D01*
X152064216Y-112089729D01*
X152064216Y-112218884D01*
X152772129Y-112218884D01*
X152245737Y-112890064D01*
X152430776Y-112890064D01*
G37*
G36*
X154489450Y-112890064D02*
G01*
X154489450Y-112761103D01*
X153847970Y-112761103D01*
X153836212Y-112760842D01*
X153825326Y-112760060D01*
X153815298Y-112758757D01*
X153806110Y-112756933D01*
X153797748Y-112754589D01*
X153790196Y-112751727D01*
X153780351Y-112746460D01*
X153772240Y-112740029D01*
X153765809Y-112732435D01*
X153761005Y-112723679D01*
X153757774Y-112713764D01*
X153756065Y-112702693D01*
X153755744Y-112694669D01*
X153755744Y-112285318D01*
X153756065Y-112277295D01*
X153757774Y-112266223D01*
X153761005Y-112256308D01*
X153765809Y-112247553D01*
X153772240Y-112239958D01*
X153780351Y-112233527D01*
X153790196Y-112228261D01*
X153797748Y-112225398D01*
X153806110Y-112223055D01*
X153815298Y-112221231D01*
X153825326Y-112219928D01*
X153836212Y-112219145D01*
X153847970Y-112218884D01*
X154489450Y-112218884D01*
X154489450Y-112089729D01*
X153847970Y-112089729D01*
X153831237Y-112089965D01*
X153815142Y-112090670D01*
X153799677Y-112091833D01*
X153784835Y-112093446D01*
X153770611Y-112095502D01*
X153756996Y-112097990D01*
X153743984Y-112100902D01*
X153731567Y-112104230D01*
X153719739Y-112107966D01*
X153708494Y-112112099D01*
X153697822Y-112116622D01*
X153687719Y-112121527D01*
X153678177Y-112126803D01*
X153669188Y-112132444D01*
X153660746Y-112138439D01*
X153652845Y-112144781D01*
X153645476Y-112151460D01*
X153638633Y-112158469D01*
X153632309Y-112165798D01*
X153626497Y-112173439D01*
X153621191Y-112181383D01*
X153616382Y-112189621D01*
X153612064Y-112198145D01*
X153608231Y-112206947D01*
X153604874Y-112216017D01*
X153601988Y-112225346D01*
X153599565Y-112234927D01*
X153597598Y-112244750D01*
X153596080Y-112254807D01*
X153595005Y-112265090D01*
X153594365Y-112275588D01*
X153594153Y-112286295D01*
X153594153Y-112693497D01*
X153594365Y-112704221D01*
X153595005Y-112714735D01*
X153596080Y-112725030D01*
X153597598Y-112735098D01*
X153599565Y-112744930D01*
X153601988Y-112754518D01*
X153604874Y-112763854D01*
X153608231Y-112772928D01*
X153612064Y-112781732D01*
X153616382Y-112790257D01*
X153621191Y-112798496D01*
X153626497Y-112806439D01*
X153632309Y-112814078D01*
X153638633Y-112821404D01*
X153645476Y-112828409D01*
X153652845Y-112835084D01*
X153660746Y-112841421D01*
X153669188Y-112847411D01*
X153678177Y-112853046D01*
X153687719Y-112858317D01*
X153697822Y-112863215D01*
X153708494Y-112867732D01*
X153719739Y-112871860D01*
X153731567Y-112875589D01*
X153743984Y-112878912D01*
X153756996Y-112881819D01*
X153770611Y-112884303D01*
X153784835Y-112886354D01*
X153799677Y-112887964D01*
X153815142Y-112889125D01*
X153831237Y-112889827D01*
X153847970Y-112890064D01*
X154489450Y-112890064D01*
G37*
G36*
X155303658Y-112890064D02*
G01*
X155320391Y-112889827D01*
X155336486Y-112889125D01*
X155351951Y-112887964D01*
X155366792Y-112886353D01*
X155381017Y-112884302D01*
X155394632Y-112881818D01*
X155407644Y-112878910D01*
X155420061Y-112875586D01*
X155431888Y-112871855D01*
X155443134Y-112867726D01*
X155453805Y-112863207D01*
X155463909Y-112858307D01*
X155473451Y-112853033D01*
X155482440Y-112847395D01*
X155490881Y-112841401D01*
X155498783Y-112835060D01*
X155506152Y-112828380D01*
X155512995Y-112821369D01*
X155519319Y-112814037D01*
X155525131Y-112806391D01*
X155530437Y-112798441D01*
X155535246Y-112790194D01*
X155539564Y-112781659D01*
X155543397Y-112772845D01*
X155546754Y-112763761D01*
X155549640Y-112754414D01*
X155552063Y-112744813D01*
X155554030Y-112734967D01*
X155555547Y-112724884D01*
X155556623Y-112714574D01*
X155557263Y-112704043D01*
X155557475Y-112693301D01*
X155557475Y-112595409D01*
X155557263Y-112584667D01*
X155556623Y-112574135D01*
X155555547Y-112563821D01*
X155554030Y-112553735D01*
X155552063Y-112543885D01*
X155549640Y-112534279D01*
X155546754Y-112524926D01*
X155543397Y-112515835D01*
X155539564Y-112507014D01*
X155535246Y-112498471D01*
X155530437Y-112490216D01*
X155525131Y-112482257D01*
X155519319Y-112474603D01*
X155512995Y-112467262D01*
X155506152Y-112460242D01*
X155498783Y-112453553D01*
X155490881Y-112447202D01*
X155482440Y-112441199D01*
X155473451Y-112435552D01*
X155463909Y-112430270D01*
X155453805Y-112425361D01*
X155443134Y-112420834D01*
X155431888Y-112416697D01*
X155420061Y-112412960D01*
X155407644Y-112409629D01*
X155394632Y-112406715D01*
X155381017Y-112404226D01*
X155366792Y-112402170D01*
X155351951Y-112400556D01*
X155336486Y-112399393D01*
X155320391Y-112398688D01*
X155303658Y-112398451D01*
X154839987Y-112398451D01*
X154828226Y-112398193D01*
X154817335Y-112397417D01*
X154807296Y-112396125D01*
X154798096Y-112394318D01*
X154789719Y-112391995D01*
X154782151Y-112389157D01*
X154772279Y-112383937D01*
X154764141Y-112377563D01*
X154757683Y-112370035D01*
X154752856Y-112361357D01*
X154749609Y-112351530D01*
X154747889Y-112340556D01*
X154747566Y-112332604D01*
X154747566Y-112284732D01*
X154747889Y-112276780D01*
X154749609Y-112265806D01*
X154752856Y-112255979D01*
X154757683Y-112247300D01*
X154764141Y-112239773D01*
X154772279Y-112233398D01*
X154782151Y-112228178D01*
X154789719Y-112225341D01*
X154798096Y-112223018D01*
X154807296Y-112221210D01*
X154817335Y-112219918D01*
X154828226Y-112219143D01*
X154839987Y-112218884D01*
X155513706Y-112218884D01*
X155513706Y-112089729D01*
X154839987Y-112089729D01*
X154823254Y-112089965D01*
X154807158Y-112090669D01*
X154791693Y-112091832D01*
X154776852Y-112093446D01*
X154762628Y-112095500D01*
X154749013Y-112097987D01*
X154736000Y-112100898D01*
X154723584Y-112104224D01*
X154711756Y-112107957D01*
X154700510Y-112112087D01*
X154689839Y-112116607D01*
X154679736Y-112121506D01*
X154670193Y-112126777D01*
X154661205Y-112132411D01*
X154652763Y-112138399D01*
X154644861Y-112144732D01*
X154637493Y-112151402D01*
X154630650Y-112158400D01*
X154624326Y-112165716D01*
X154618514Y-112173344D01*
X154613207Y-112181272D01*
X154608399Y-112189494D01*
X154604081Y-112198000D01*
X154600247Y-112206782D01*
X154596891Y-112215830D01*
X154594005Y-112225137D01*
X154591582Y-112234692D01*
X154589615Y-112244488D01*
X154588097Y-112254516D01*
X154587022Y-112264768D01*
X154586382Y-112275233D01*
X154586170Y-112285904D01*
X154586170Y-112331431D01*
X154586382Y-112342102D01*
X154587022Y-112352566D01*
X154588097Y-112362814D01*
X154589615Y-112372839D01*
X154591582Y-112382631D01*
X154594005Y-112392181D01*
X154596891Y-112401481D01*
X154600247Y-112410523D01*
X154604081Y-112419298D01*
X154608399Y-112427796D01*
X154613207Y-112436010D01*
X154618514Y-112443930D01*
X154624326Y-112451549D01*
X154630650Y-112458857D01*
X154637493Y-112465845D01*
X154644861Y-112472506D01*
X154652763Y-112478830D01*
X154661205Y-112484809D01*
X154670193Y-112490434D01*
X154679736Y-112495696D01*
X154689839Y-112500587D01*
X154700510Y-112505098D01*
X154711756Y-112509221D01*
X154723584Y-112512946D01*
X154736000Y-112516266D01*
X154749013Y-112519171D01*
X154762628Y-112521653D01*
X154776852Y-112523703D01*
X154791693Y-112525313D01*
X154807158Y-112526473D01*
X154823254Y-112527176D01*
X154839987Y-112527412D01*
X155303658Y-112527412D01*
X155315384Y-112527677D01*
X155326246Y-112528472D01*
X155336258Y-112529795D01*
X155345435Y-112531643D01*
X155353793Y-112534016D01*
X155361346Y-112536912D01*
X155371199Y-112542232D01*
X155379325Y-112548718D01*
X155385774Y-112556364D01*
X155390596Y-112565166D01*
X155393841Y-112575116D01*
X155395561Y-112586209D01*
X155395884Y-112594237D01*
X155395884Y-112694278D01*
X155395563Y-112702338D01*
X155393853Y-112713465D01*
X155390623Y-112723432D01*
X155385819Y-112732237D01*
X155379388Y-112739878D01*
X155371277Y-112746352D01*
X155361432Y-112751655D01*
X155353880Y-112754538D01*
X155345518Y-112756899D01*
X155336330Y-112758737D01*
X155326302Y-112760051D01*
X155315416Y-112760840D01*
X155303658Y-112761103D01*
X154611962Y-112761103D01*
X154611962Y-112890064D01*
X155303658Y-112890064D01*
G37*
G36*
X155972297Y-112890064D02*
G01*
X155972297Y-112089729D01*
X155756191Y-112089729D01*
X155591473Y-112275939D01*
X155765179Y-112275939D01*
X155810901Y-112223574D01*
X155810901Y-112890064D01*
X155972297Y-112890064D01*
G37*
G36*
X157555577Y-112890064D02*
G01*
X157555577Y-112761103D01*
X156914097Y-112761103D01*
X156902339Y-112760842D01*
X156891453Y-112760060D01*
X156881425Y-112758757D01*
X156872237Y-112756933D01*
X156863875Y-112754589D01*
X156856323Y-112751727D01*
X156846478Y-112746460D01*
X156838367Y-112740029D01*
X156831936Y-112732435D01*
X156827132Y-112723679D01*
X156823901Y-112713764D01*
X156822192Y-112702693D01*
X156821871Y-112694669D01*
X156821871Y-112285318D01*
X156822192Y-112277295D01*
X156823901Y-112266223D01*
X156827132Y-112256308D01*
X156831936Y-112247553D01*
X156838367Y-112239958D01*
X156846478Y-112233527D01*
X156856323Y-112228261D01*
X156863875Y-112225398D01*
X156872237Y-112223055D01*
X156881425Y-112221231D01*
X156891453Y-112219928D01*
X156902339Y-112219145D01*
X156914097Y-112218884D01*
X157555577Y-112218884D01*
X157555577Y-112089729D01*
X156914097Y-112089729D01*
X156897364Y-112089965D01*
X156881269Y-112090670D01*
X156865804Y-112091833D01*
X156850962Y-112093446D01*
X156836738Y-112095502D01*
X156823123Y-112097990D01*
X156810111Y-112100902D01*
X156797694Y-112104230D01*
X156785866Y-112107966D01*
X156774621Y-112112099D01*
X156763949Y-112116622D01*
X156753846Y-112121527D01*
X156744304Y-112126803D01*
X156735315Y-112132444D01*
X156726873Y-112138439D01*
X156718972Y-112144781D01*
X156711603Y-112151460D01*
X156704760Y-112158469D01*
X156698436Y-112165798D01*
X156692624Y-112173439D01*
X156687318Y-112181383D01*
X156682509Y-112189621D01*
X156678191Y-112198145D01*
X156674358Y-112206947D01*
X156671001Y-112216017D01*
X156668115Y-112225346D01*
X156665692Y-112234927D01*
X156663725Y-112244750D01*
X156662207Y-112254807D01*
X156661132Y-112265090D01*
X156660492Y-112275588D01*
X156660280Y-112286295D01*
X156660280Y-112693497D01*
X156660492Y-112704221D01*
X156661132Y-112714735D01*
X156662207Y-112725030D01*
X156663725Y-112735098D01*
X156665692Y-112744930D01*
X156668115Y-112754518D01*
X156671001Y-112763854D01*
X156674358Y-112772928D01*
X156678191Y-112781732D01*
X156682509Y-112790257D01*
X156687318Y-112798496D01*
X156692624Y-112806439D01*
X156698436Y-112814078D01*
X156704760Y-112821404D01*
X156711603Y-112828409D01*
X156718972Y-112835084D01*
X156726873Y-112841421D01*
X156735315Y-112847411D01*
X156744304Y-112853046D01*
X156753846Y-112858317D01*
X156763949Y-112863215D01*
X156774621Y-112867732D01*
X156785866Y-112871860D01*
X156797694Y-112875589D01*
X156810111Y-112878912D01*
X156823123Y-112881819D01*
X156836738Y-112884303D01*
X156850962Y-112886354D01*
X156865804Y-112887964D01*
X156881269Y-112889125D01*
X156897364Y-112889827D01*
X156914097Y-112890064D01*
X157555577Y-112890064D01*
G37*
G36*
X158369785Y-112890064D02*
G01*
X158386518Y-112889827D01*
X158402613Y-112889125D01*
X158418078Y-112887964D01*
X158432920Y-112886353D01*
X158447144Y-112884302D01*
X158460759Y-112881818D01*
X158473771Y-112878910D01*
X158486188Y-112875586D01*
X158498015Y-112871855D01*
X158509261Y-112867726D01*
X158519933Y-112863207D01*
X158530036Y-112858307D01*
X158539578Y-112853033D01*
X158548567Y-112847395D01*
X158557008Y-112841401D01*
X158564910Y-112835060D01*
X158572279Y-112828380D01*
X158579122Y-112821369D01*
X158585446Y-112814037D01*
X158591258Y-112806391D01*
X158596564Y-112798441D01*
X158601373Y-112790194D01*
X158605691Y-112781659D01*
X158609524Y-112772845D01*
X158612881Y-112763761D01*
X158615767Y-112754414D01*
X158618190Y-112744813D01*
X158620157Y-112734967D01*
X158621674Y-112724884D01*
X158622750Y-112714574D01*
X158623390Y-112704043D01*
X158623602Y-112693301D01*
X158623602Y-112595409D01*
X158623390Y-112584667D01*
X158622750Y-112574135D01*
X158621674Y-112563821D01*
X158620157Y-112553735D01*
X158618190Y-112543885D01*
X158615767Y-112534279D01*
X158612881Y-112524926D01*
X158609524Y-112515835D01*
X158605691Y-112507014D01*
X158601373Y-112498471D01*
X158596564Y-112490216D01*
X158591258Y-112482257D01*
X158585446Y-112474603D01*
X158579122Y-112467262D01*
X158572279Y-112460242D01*
X158564910Y-112453553D01*
X158557008Y-112447202D01*
X158548567Y-112441199D01*
X158539578Y-112435552D01*
X158530036Y-112430270D01*
X158519933Y-112425361D01*
X158509261Y-112420834D01*
X158498015Y-112416697D01*
X158486188Y-112412960D01*
X158473771Y-112409629D01*
X158460759Y-112406715D01*
X158447144Y-112404226D01*
X158432920Y-112402170D01*
X158418078Y-112400556D01*
X158402613Y-112399393D01*
X158386518Y-112398688D01*
X158369785Y-112398451D01*
X157906114Y-112398451D01*
X157894353Y-112398193D01*
X157883462Y-112397417D01*
X157873423Y-112396125D01*
X157864223Y-112394318D01*
X157855846Y-112391995D01*
X157848278Y-112389157D01*
X157838406Y-112383937D01*
X157830268Y-112377563D01*
X157823810Y-112370035D01*
X157818983Y-112361357D01*
X157815736Y-112351530D01*
X157814016Y-112340556D01*
X157813693Y-112332604D01*
X157813693Y-112284732D01*
X157814016Y-112276780D01*
X157815736Y-112265806D01*
X157818983Y-112255979D01*
X157823810Y-112247300D01*
X157830268Y-112239773D01*
X157838406Y-112233398D01*
X157848278Y-112228178D01*
X157855846Y-112225341D01*
X157864223Y-112223018D01*
X157873423Y-112221210D01*
X157883462Y-112219918D01*
X157894353Y-112219143D01*
X157906114Y-112218884D01*
X158579833Y-112218884D01*
X158579833Y-112089729D01*
X157906114Y-112089729D01*
X157889381Y-112089965D01*
X157873285Y-112090669D01*
X157857820Y-112091832D01*
X157842979Y-112093446D01*
X157828755Y-112095500D01*
X157815140Y-112097987D01*
X157802127Y-112100898D01*
X157789711Y-112104224D01*
X157777883Y-112107957D01*
X157766637Y-112112087D01*
X157755966Y-112116607D01*
X157745863Y-112121506D01*
X157736320Y-112126777D01*
X157727332Y-112132411D01*
X157718890Y-112138399D01*
X157710988Y-112144732D01*
X157703620Y-112151402D01*
X157696777Y-112158400D01*
X157690453Y-112165716D01*
X157684641Y-112173344D01*
X157679334Y-112181272D01*
X157674526Y-112189494D01*
X157670208Y-112198000D01*
X157666374Y-112206782D01*
X157663018Y-112215830D01*
X157660132Y-112225137D01*
X157657709Y-112234692D01*
X157655742Y-112244488D01*
X157654224Y-112254516D01*
X157653149Y-112264768D01*
X157652509Y-112275233D01*
X157652297Y-112285904D01*
X157652297Y-112331431D01*
X157652509Y-112342102D01*
X157653149Y-112352566D01*
X157654224Y-112362814D01*
X157655742Y-112372839D01*
X157657709Y-112382631D01*
X157660132Y-112392181D01*
X157663018Y-112401481D01*
X157666374Y-112410523D01*
X157670208Y-112419298D01*
X157674526Y-112427796D01*
X157679334Y-112436010D01*
X157684641Y-112443930D01*
X157690453Y-112451549D01*
X157696777Y-112458857D01*
X157703620Y-112465845D01*
X157710988Y-112472506D01*
X157718890Y-112478830D01*
X157727332Y-112484809D01*
X157736320Y-112490434D01*
X157745863Y-112495696D01*
X157755966Y-112500587D01*
X157766637Y-112505098D01*
X157777883Y-112509221D01*
X157789711Y-112512946D01*
X157802127Y-112516266D01*
X157815140Y-112519171D01*
X157828755Y-112521653D01*
X157842979Y-112523703D01*
X157857820Y-112525313D01*
X157873285Y-112526473D01*
X157889381Y-112527176D01*
X157906114Y-112527412D01*
X158369785Y-112527412D01*
X158381511Y-112527677D01*
X158392373Y-112528472D01*
X158402385Y-112529795D01*
X158411562Y-112531643D01*
X158419920Y-112534016D01*
X158427473Y-112536912D01*
X158437326Y-112542232D01*
X158445452Y-112548718D01*
X158451901Y-112556364D01*
X158456723Y-112565166D01*
X158459968Y-112575116D01*
X158461688Y-112586209D01*
X158462011Y-112594237D01*
X158462011Y-112694278D01*
X158461690Y-112702338D01*
X158459980Y-112713465D01*
X158456750Y-112723432D01*
X158451946Y-112732237D01*
X158445515Y-112739878D01*
X158437404Y-112746352D01*
X158427559Y-112751655D01*
X158420007Y-112754538D01*
X158411645Y-112756899D01*
X158402457Y-112758737D01*
X158392429Y-112760051D01*
X158381543Y-112760840D01*
X158369785Y-112761103D01*
X157678089Y-112761103D01*
X157678089Y-112890064D01*
X158369785Y-112890064D01*
G37*
G36*
X159547035Y-112890064D02*
G01*
X159547035Y-112761103D01*
X158880545Y-112761103D01*
X158880545Y-112594237D01*
X158880868Y-112586209D01*
X158882588Y-112575116D01*
X158885833Y-112565166D01*
X158890655Y-112556364D01*
X158897104Y-112548718D01*
X158905230Y-112542232D01*
X158915083Y-112536912D01*
X158922636Y-112534016D01*
X158930994Y-112531643D01*
X158940171Y-112529795D01*
X158950183Y-112528472D01*
X158961045Y-112527677D01*
X158972771Y-112527412D01*
X159293218Y-112527412D01*
X159309951Y-112527176D01*
X159326047Y-112526473D01*
X159341512Y-112525313D01*
X159356353Y-112523703D01*
X159370577Y-112521653D01*
X159384192Y-112519171D01*
X159397205Y-112516266D01*
X159409621Y-112512946D01*
X159421449Y-112509221D01*
X159432695Y-112505098D01*
X159443366Y-112500587D01*
X159453469Y-112495696D01*
X159463012Y-112490434D01*
X159472000Y-112484809D01*
X159480442Y-112478830D01*
X159488344Y-112472506D01*
X159495712Y-112465845D01*
X159502555Y-112458857D01*
X159508879Y-112451549D01*
X159514691Y-112443930D01*
X159519998Y-112436010D01*
X159524806Y-112427796D01*
X159529124Y-112419298D01*
X159532958Y-112410523D01*
X159536314Y-112401481D01*
X159539200Y-112392181D01*
X159541623Y-112382631D01*
X159543590Y-112372839D01*
X159545108Y-112362814D01*
X159546183Y-112352566D01*
X159546823Y-112342102D01*
X159547035Y-112331431D01*
X159547035Y-112285904D01*
X159546823Y-112275233D01*
X159546183Y-112264768D01*
X159545108Y-112254516D01*
X159543590Y-112244488D01*
X159541623Y-112234692D01*
X159539200Y-112225137D01*
X159536314Y-112215830D01*
X159532958Y-112206782D01*
X159529124Y-112198000D01*
X159524806Y-112189494D01*
X159519998Y-112181272D01*
X159514691Y-112173344D01*
X159508879Y-112165716D01*
X159502555Y-112158400D01*
X159495712Y-112151402D01*
X159488344Y-112144732D01*
X159480442Y-112138399D01*
X159472000Y-112132411D01*
X159463012Y-112126777D01*
X159453469Y-112121506D01*
X159443366Y-112116607D01*
X159432695Y-112112087D01*
X159421449Y-112107957D01*
X159409621Y-112104224D01*
X159397205Y-112100898D01*
X159384192Y-112097987D01*
X159370577Y-112095500D01*
X159356353Y-112093446D01*
X159341512Y-112091832D01*
X159326047Y-112090669D01*
X159309951Y-112089965D01*
X159293218Y-112089729D01*
X158761550Y-112089729D01*
X158761550Y-112218884D01*
X159293218Y-112218884D01*
X159304976Y-112219143D01*
X159315862Y-112219918D01*
X159325891Y-112221210D01*
X159335078Y-112223018D01*
X159343440Y-112225341D01*
X159350992Y-112228178D01*
X159360837Y-112233398D01*
X159368948Y-112239773D01*
X159375380Y-112247300D01*
X159380184Y-112255979D01*
X159383414Y-112265806D01*
X159385123Y-112276780D01*
X159385444Y-112284732D01*
X159385444Y-112332604D01*
X159385123Y-112340556D01*
X159383414Y-112351530D01*
X159380184Y-112361357D01*
X159375380Y-112370035D01*
X159368948Y-112377563D01*
X159360837Y-112383937D01*
X159350992Y-112389157D01*
X159343440Y-112391995D01*
X159335078Y-112394318D01*
X159325891Y-112396125D01*
X159315862Y-112397417D01*
X159304976Y-112398193D01*
X159293218Y-112398451D01*
X158972771Y-112398451D01*
X158956038Y-112398688D01*
X158939943Y-112399393D01*
X158924478Y-112400556D01*
X158909637Y-112402170D01*
X158895412Y-112404226D01*
X158881797Y-112406715D01*
X158868785Y-112409629D01*
X158856368Y-112412960D01*
X158844541Y-112416697D01*
X158833295Y-112420834D01*
X158822624Y-112425361D01*
X158812520Y-112430270D01*
X158802978Y-112435552D01*
X158793989Y-112441199D01*
X158785548Y-112447202D01*
X158777646Y-112453553D01*
X158770277Y-112460242D01*
X158763434Y-112467262D01*
X158757110Y-112474603D01*
X158751298Y-112482257D01*
X158745992Y-112490216D01*
X158741183Y-112498471D01*
X158736865Y-112507014D01*
X158733032Y-112515835D01*
X158729675Y-112524926D01*
X158726789Y-112534279D01*
X158724366Y-112543885D01*
X158722399Y-112553735D01*
X158720882Y-112563821D01*
X158719806Y-112574135D01*
X158719166Y-112584667D01*
X158718954Y-112595409D01*
X158718954Y-112890064D01*
X159547035Y-112890064D01*
G37*
G36*
X161119568Y-112890064D02*
G01*
X161119568Y-112761103D01*
X160478089Y-112761103D01*
X160466331Y-112760842D01*
X160455445Y-112760060D01*
X160445416Y-112758757D01*
X160436229Y-112756933D01*
X160427867Y-112754589D01*
X160420314Y-112751727D01*
X160410470Y-112746460D01*
X160402358Y-112740029D01*
X160395927Y-112732435D01*
X160391123Y-112723679D01*
X160387893Y-112713764D01*
X160386184Y-112702693D01*
X160385863Y-112694669D01*
X160385863Y-112285318D01*
X160386184Y-112277295D01*
X160387893Y-112266223D01*
X160391123Y-112256308D01*
X160395927Y-112247553D01*
X160402358Y-112239958D01*
X160410470Y-112233527D01*
X160420314Y-112228261D01*
X160427867Y-112225398D01*
X160436229Y-112223055D01*
X160445416Y-112221231D01*
X160455445Y-112219928D01*
X160466331Y-112219145D01*
X160478089Y-112218884D01*
X161119568Y-112218884D01*
X161119568Y-112089729D01*
X160478089Y-112089729D01*
X160461356Y-112089965D01*
X160445260Y-112090670D01*
X160429795Y-112091833D01*
X160414954Y-112093446D01*
X160400729Y-112095502D01*
X160387114Y-112097990D01*
X160374102Y-112100902D01*
X160361686Y-112104230D01*
X160349858Y-112107966D01*
X160338612Y-112112099D01*
X160327941Y-112116622D01*
X160317838Y-112121527D01*
X160308295Y-112126803D01*
X160299307Y-112132444D01*
X160290865Y-112138439D01*
X160282963Y-112144781D01*
X160275594Y-112151460D01*
X160268752Y-112158469D01*
X160262428Y-112165798D01*
X160256616Y-112173439D01*
X160251309Y-112181383D01*
X160246500Y-112189621D01*
X160242183Y-112198145D01*
X160238349Y-112206947D01*
X160234993Y-112216017D01*
X160232107Y-112225346D01*
X160229684Y-112234927D01*
X160227717Y-112244750D01*
X160226199Y-112254807D01*
X160225124Y-112265090D01*
X160224484Y-112275588D01*
X160224272Y-112286295D01*
X160224272Y-112693497D01*
X160224484Y-112704221D01*
X160225124Y-112714735D01*
X160226199Y-112725030D01*
X160227717Y-112735098D01*
X160229684Y-112744930D01*
X160232107Y-112754518D01*
X160234993Y-112763854D01*
X160238349Y-112772928D01*
X160242183Y-112781732D01*
X160246500Y-112790257D01*
X160251309Y-112798496D01*
X160256616Y-112806439D01*
X160262428Y-112814078D01*
X160268752Y-112821404D01*
X160275594Y-112828409D01*
X160282963Y-112835084D01*
X160290865Y-112841421D01*
X160299307Y-112847411D01*
X160308295Y-112853046D01*
X160317838Y-112858317D01*
X160327941Y-112863215D01*
X160338612Y-112867732D01*
X160349858Y-112871860D01*
X160361686Y-112875589D01*
X160374102Y-112878912D01*
X160387114Y-112881819D01*
X160400729Y-112884303D01*
X160414954Y-112886354D01*
X160429795Y-112887964D01*
X160445260Y-112889125D01*
X160461356Y-112889827D01*
X160478089Y-112890064D01*
X161119568Y-112890064D01*
G37*
G36*
X161933776Y-112890064D02*
G01*
X161950509Y-112889827D01*
X161966605Y-112889125D01*
X161982070Y-112887964D01*
X161996911Y-112886353D01*
X162011136Y-112884302D01*
X162024751Y-112881818D01*
X162037763Y-112878910D01*
X162050179Y-112875586D01*
X162062007Y-112871855D01*
X162073253Y-112867726D01*
X162083924Y-112863207D01*
X162094027Y-112858307D01*
X162103570Y-112853033D01*
X162112558Y-112847395D01*
X162121000Y-112841401D01*
X162128902Y-112835060D01*
X162136271Y-112828380D01*
X162143114Y-112821369D01*
X162149437Y-112814037D01*
X162155249Y-112806391D01*
X162160556Y-112798441D01*
X162165365Y-112790194D01*
X162169682Y-112781659D01*
X162173516Y-112772845D01*
X162176872Y-112763761D01*
X162179759Y-112754414D01*
X162182182Y-112744813D01*
X162184148Y-112734967D01*
X162185666Y-112724884D01*
X162186741Y-112714574D01*
X162187382Y-112704043D01*
X162187593Y-112693301D01*
X162187593Y-112595409D01*
X162187382Y-112584667D01*
X162186741Y-112574135D01*
X162185666Y-112563821D01*
X162184148Y-112553735D01*
X162182182Y-112543885D01*
X162179759Y-112534279D01*
X162176872Y-112524926D01*
X162173516Y-112515835D01*
X162169682Y-112507014D01*
X162165365Y-112498471D01*
X162160556Y-112490216D01*
X162155249Y-112482257D01*
X162149437Y-112474603D01*
X162143114Y-112467262D01*
X162136271Y-112460242D01*
X162128902Y-112453553D01*
X162121000Y-112447202D01*
X162112558Y-112441199D01*
X162103570Y-112435552D01*
X162094027Y-112430270D01*
X162083924Y-112425361D01*
X162073253Y-112420834D01*
X162062007Y-112416697D01*
X162050179Y-112412960D01*
X162037763Y-112409629D01*
X162024751Y-112406715D01*
X162011136Y-112404226D01*
X161996911Y-112402170D01*
X161982070Y-112400556D01*
X161966605Y-112399393D01*
X161950509Y-112398688D01*
X161933776Y-112398451D01*
X161470106Y-112398451D01*
X161458345Y-112398193D01*
X161447453Y-112397417D01*
X161437415Y-112396125D01*
X161428215Y-112394318D01*
X161419838Y-112391995D01*
X161412269Y-112389157D01*
X161402398Y-112383937D01*
X161394259Y-112377563D01*
X161387802Y-112370035D01*
X161382975Y-112361357D01*
X161379727Y-112351530D01*
X161378007Y-112340556D01*
X161377684Y-112332604D01*
X161377684Y-112284732D01*
X161378007Y-112276780D01*
X161379727Y-112265806D01*
X161382975Y-112255979D01*
X161387802Y-112247300D01*
X161394259Y-112239773D01*
X161402398Y-112233398D01*
X161412269Y-112228178D01*
X161419838Y-112225341D01*
X161428215Y-112223018D01*
X161437415Y-112221210D01*
X161447453Y-112219918D01*
X161458345Y-112219143D01*
X161470106Y-112218884D01*
X162143825Y-112218884D01*
X162143825Y-112089729D01*
X161470106Y-112089729D01*
X161453373Y-112089965D01*
X161437277Y-112090669D01*
X161421812Y-112091832D01*
X161406971Y-112093446D01*
X161392746Y-112095500D01*
X161379131Y-112097987D01*
X161366119Y-112100898D01*
X161353703Y-112104224D01*
X161341875Y-112107957D01*
X161330629Y-112112087D01*
X161319958Y-112116607D01*
X161309854Y-112121506D01*
X161300312Y-112126777D01*
X161291323Y-112132411D01*
X161282882Y-112138399D01*
X161274980Y-112144732D01*
X161267611Y-112151402D01*
X161260768Y-112158400D01*
X161254445Y-112165716D01*
X161248633Y-112173344D01*
X161243326Y-112181272D01*
X161238517Y-112189494D01*
X161234200Y-112198000D01*
X161230366Y-112206782D01*
X161227010Y-112215830D01*
X161224123Y-112225137D01*
X161221700Y-112234692D01*
X161219733Y-112244488D01*
X161218216Y-112254516D01*
X161217140Y-112264768D01*
X161216500Y-112275233D01*
X161216288Y-112285904D01*
X161216288Y-112331431D01*
X161216500Y-112342102D01*
X161217140Y-112352566D01*
X161218216Y-112362814D01*
X161219733Y-112372839D01*
X161221700Y-112382631D01*
X161224123Y-112392181D01*
X161227010Y-112401481D01*
X161230366Y-112410523D01*
X161234200Y-112419298D01*
X161238517Y-112427796D01*
X161243326Y-112436010D01*
X161248633Y-112443930D01*
X161254445Y-112451549D01*
X161260768Y-112458857D01*
X161267611Y-112465845D01*
X161274980Y-112472506D01*
X161282882Y-112478830D01*
X161291323Y-112484809D01*
X161300312Y-112490434D01*
X161309854Y-112495696D01*
X161319958Y-112500587D01*
X161330629Y-112505098D01*
X161341875Y-112509221D01*
X161353703Y-112512946D01*
X161366119Y-112516266D01*
X161379131Y-112519171D01*
X161392746Y-112521653D01*
X161406971Y-112523703D01*
X161421812Y-112525313D01*
X161437277Y-112526473D01*
X161453373Y-112527176D01*
X161470106Y-112527412D01*
X161933776Y-112527412D01*
X161945502Y-112527677D01*
X161956364Y-112528472D01*
X161966376Y-112529795D01*
X161975554Y-112531643D01*
X161983912Y-112534016D01*
X161991465Y-112536912D01*
X162001318Y-112542232D01*
X162009444Y-112548718D01*
X162015892Y-112556364D01*
X162020715Y-112565166D01*
X162023960Y-112575116D01*
X162025679Y-112586209D01*
X162026002Y-112594237D01*
X162026002Y-112694278D01*
X162025681Y-112702338D01*
X162023972Y-112713465D01*
X162020742Y-112723432D01*
X162015938Y-112732237D01*
X162009507Y-112739878D01*
X162001395Y-112746352D01*
X161991551Y-112751655D01*
X161983998Y-112754538D01*
X161975636Y-112756899D01*
X161966449Y-112758737D01*
X161956420Y-112760051D01*
X161945535Y-112760840D01*
X161933776Y-112761103D01*
X161242081Y-112761103D01*
X161242081Y-112890064D01*
X161933776Y-112890064D01*
G37*
G36*
X162819108Y-112890064D02*
G01*
X162837274Y-112889817D01*
X162854633Y-112889089D01*
X162871201Y-112887892D01*
X162886991Y-112886241D01*
X162902020Y-112884151D01*
X162916303Y-112881636D01*
X162929854Y-112878710D01*
X162942689Y-112875388D01*
X162954822Y-112871683D01*
X162966269Y-112867611D01*
X162977046Y-112863185D01*
X162987166Y-112858420D01*
X162996645Y-112853330D01*
X163005499Y-112847930D01*
X163013742Y-112842234D01*
X163021390Y-112836257D01*
X163028457Y-112830012D01*
X163034958Y-112823514D01*
X163040910Y-112816777D01*
X163046326Y-112809816D01*
X163051222Y-112802646D01*
X163055614Y-112795279D01*
X163059515Y-112787731D01*
X163062941Y-112780017D01*
X163065908Y-112772150D01*
X163068431Y-112764144D01*
X163070524Y-112756015D01*
X163072202Y-112747776D01*
X163073481Y-112739442D01*
X163074376Y-112731028D01*
X163074902Y-112722547D01*
X163075074Y-112714013D01*
X163075074Y-112585835D01*
X163074539Y-112571526D01*
X163072991Y-112558121D01*
X163070517Y-112545606D01*
X163067204Y-112533970D01*
X163063136Y-112523199D01*
X163058402Y-112513281D01*
X163053088Y-112504203D01*
X163047279Y-112495953D01*
X163041063Y-112488519D01*
X163034526Y-112481886D01*
X163027754Y-112476044D01*
X163020834Y-112470979D01*
X163013852Y-112466679D01*
X163003452Y-112461636D01*
X162993399Y-112458242D01*
X163002569Y-112455173D01*
X163011899Y-112449703D01*
X163018092Y-112444803D01*
X163024185Y-112438957D01*
X163030109Y-112432214D01*
X163035795Y-112424623D01*
X163041173Y-112416232D01*
X163046176Y-112407091D01*
X163050735Y-112397246D01*
X163054781Y-112386748D01*
X163058246Y-112375645D01*
X163061060Y-112363986D01*
X163063155Y-112351819D01*
X163064463Y-112339192D01*
X163064914Y-112326156D01*
X163064914Y-112266560D01*
X163064705Y-112256529D01*
X163064076Y-112246736D01*
X163063019Y-112237185D01*
X163061528Y-112227883D01*
X163059596Y-112218834D01*
X163057217Y-112210045D01*
X163054383Y-112201519D01*
X163051090Y-112193263D01*
X163047329Y-112185282D01*
X163043094Y-112177581D01*
X163038379Y-112170165D01*
X163033177Y-112163040D01*
X163027482Y-112156210D01*
X163021287Y-112149682D01*
X163014585Y-112143461D01*
X163007370Y-112137551D01*
X162999635Y-112131959D01*
X162991374Y-112126689D01*
X162982580Y-112121746D01*
X162973246Y-112117137D01*
X162963367Y-112112866D01*
X162952934Y-112108939D01*
X162941942Y-112105360D01*
X162930385Y-112102136D01*
X162918255Y-112099271D01*
X162905546Y-112096771D01*
X162892251Y-112094641D01*
X162878364Y-112092887D01*
X162863878Y-112091513D01*
X162848787Y-112090525D01*
X162833084Y-112089929D01*
X162816763Y-112089729D01*
X162284118Y-112089729D01*
X162284118Y-112218884D01*
X162816763Y-112218884D01*
X162828846Y-112219061D01*
X162839845Y-112219602D01*
X162849801Y-112220522D01*
X162858758Y-112221839D01*
X162866755Y-112223569D01*
X162877047Y-112226970D01*
X162885420Y-112231389D01*
X162892015Y-112236880D01*
X162896974Y-112243497D01*
X162900440Y-112251293D01*
X162902555Y-112260323D01*
X162903461Y-112270641D01*
X162903518Y-112274376D01*
X162903518Y-112342960D01*
X162902984Y-112353719D01*
X162901289Y-112363173D01*
X162898289Y-112371374D01*
X162893843Y-112378378D01*
X162887808Y-112384238D01*
X162880044Y-112389008D01*
X162870408Y-112392743D01*
X162858758Y-112395496D01*
X162849801Y-112396813D01*
X162839845Y-112397734D01*
X162828846Y-112398275D01*
X162816763Y-112398451D01*
X162317726Y-112398451D01*
X162317726Y-112527412D01*
X162819108Y-112527412D01*
X162829733Y-112527600D01*
X162839833Y-112528180D01*
X162849385Y-112529169D01*
X162858367Y-112530587D01*
X162866757Y-112532454D01*
X162874533Y-112534789D01*
X162884998Y-112539213D01*
X162893957Y-112544800D01*
X162901337Y-112551615D01*
X162907063Y-112559725D01*
X162911060Y-112569195D01*
X162913254Y-112580091D01*
X162913679Y-112588179D01*
X162913679Y-112686072D01*
X162913254Y-112696703D01*
X162911995Y-112706350D01*
X162909924Y-112715054D01*
X162907063Y-112722855D01*
X162903433Y-112729795D01*
X162896596Y-112738681D01*
X162888155Y-112745863D01*
X162878184Y-112751477D01*
X162870723Y-112754419D01*
X162862637Y-112756768D01*
X162853948Y-112758565D01*
X162844679Y-112759851D01*
X162834850Y-112760668D01*
X162824485Y-112761057D01*
X162819108Y-112761103D01*
X162284118Y-112761103D01*
X162284118Y-112890064D01*
X162819108Y-112890064D01*
G37*
G36*
X164651515Y-112890064D02*
G01*
X164651515Y-112761103D01*
X164010036Y-112761103D01*
X163998278Y-112760842D01*
X163987392Y-112760060D01*
X163977363Y-112758757D01*
X163968176Y-112756933D01*
X163959814Y-112754589D01*
X163952261Y-112751727D01*
X163942417Y-112746460D01*
X163934305Y-112740029D01*
X163927874Y-112732435D01*
X163923070Y-112723679D01*
X163919840Y-112713764D01*
X163918131Y-112702693D01*
X163917810Y-112694669D01*
X163917810Y-112285318D01*
X163918131Y-112277295D01*
X163919840Y-112266223D01*
X163923070Y-112256308D01*
X163927874Y-112247553D01*
X163934305Y-112239958D01*
X163942417Y-112233527D01*
X163952261Y-112228261D01*
X163959814Y-112225398D01*
X163968176Y-112223055D01*
X163977363Y-112221231D01*
X163987392Y-112219928D01*
X163998278Y-112219145D01*
X164010036Y-112218884D01*
X164651515Y-112218884D01*
X164651515Y-112089729D01*
X164010036Y-112089729D01*
X163993303Y-112089965D01*
X163977207Y-112090670D01*
X163961742Y-112091833D01*
X163946901Y-112093446D01*
X163932676Y-112095502D01*
X163919061Y-112097990D01*
X163906049Y-112100902D01*
X163893633Y-112104230D01*
X163881805Y-112107966D01*
X163870559Y-112112099D01*
X163859888Y-112116622D01*
X163849785Y-112121527D01*
X163840242Y-112126803D01*
X163831254Y-112132444D01*
X163822812Y-112138439D01*
X163814910Y-112144781D01*
X163807541Y-112151460D01*
X163800699Y-112158469D01*
X163794375Y-112165798D01*
X163788563Y-112173439D01*
X163783256Y-112181383D01*
X163778447Y-112189621D01*
X163774130Y-112198145D01*
X163770296Y-112206947D01*
X163766940Y-112216017D01*
X163764054Y-112225346D01*
X163761631Y-112234927D01*
X163759664Y-112244750D01*
X163758146Y-112254807D01*
X163757071Y-112265090D01*
X163756431Y-112275588D01*
X163756219Y-112286295D01*
X163756219Y-112693497D01*
X163756431Y-112704221D01*
X163757071Y-112714735D01*
X163758146Y-112725030D01*
X163759664Y-112735098D01*
X163761631Y-112744930D01*
X163764054Y-112754518D01*
X163766940Y-112763854D01*
X163770296Y-112772928D01*
X163774130Y-112781732D01*
X163778447Y-112790257D01*
X163783256Y-112798496D01*
X163788563Y-112806439D01*
X163794375Y-112814078D01*
X163800699Y-112821404D01*
X163807541Y-112828409D01*
X163814910Y-112835084D01*
X163822812Y-112841421D01*
X163831254Y-112847411D01*
X163840242Y-112853046D01*
X163849785Y-112858317D01*
X163859888Y-112863215D01*
X163870559Y-112867732D01*
X163881805Y-112871860D01*
X163893633Y-112875589D01*
X163906049Y-112878912D01*
X163919061Y-112881819D01*
X163932676Y-112884303D01*
X163946901Y-112886354D01*
X163961742Y-112887964D01*
X163977207Y-112889125D01*
X163993303Y-112889827D01*
X164010036Y-112890064D01*
X164651515Y-112890064D01*
G37*
G36*
X165465723Y-112890064D02*
G01*
X165482456Y-112889827D01*
X165498552Y-112889125D01*
X165514017Y-112887964D01*
X165528858Y-112886353D01*
X165543083Y-112884302D01*
X165556698Y-112881818D01*
X165569710Y-112878910D01*
X165582126Y-112875586D01*
X165593954Y-112871855D01*
X165605200Y-112867726D01*
X165615871Y-112863207D01*
X165625974Y-112858307D01*
X165635517Y-112853033D01*
X165644505Y-112847395D01*
X165652947Y-112841401D01*
X165660849Y-112835060D01*
X165668218Y-112828380D01*
X165675060Y-112821369D01*
X165681384Y-112814037D01*
X165687196Y-112806391D01*
X165692503Y-112798441D01*
X165697312Y-112790194D01*
X165701629Y-112781659D01*
X165705463Y-112772845D01*
X165708819Y-112763761D01*
X165711705Y-112754414D01*
X165714129Y-112744813D01*
X165716095Y-112734967D01*
X165717613Y-112724884D01*
X165718688Y-112714574D01*
X165719329Y-112704043D01*
X165719540Y-112693301D01*
X165719540Y-112595409D01*
X165719329Y-112584667D01*
X165718688Y-112574135D01*
X165717613Y-112563821D01*
X165716095Y-112553735D01*
X165714129Y-112543885D01*
X165711705Y-112534279D01*
X165708819Y-112524926D01*
X165705463Y-112515835D01*
X165701629Y-112507014D01*
X165697312Y-112498471D01*
X165692503Y-112490216D01*
X165687196Y-112482257D01*
X165681384Y-112474603D01*
X165675060Y-112467262D01*
X165668218Y-112460242D01*
X165660849Y-112453553D01*
X165652947Y-112447202D01*
X165644505Y-112441199D01*
X165635517Y-112435552D01*
X165625974Y-112430270D01*
X165615871Y-112425361D01*
X165605200Y-112420834D01*
X165593954Y-112416697D01*
X165582126Y-112412960D01*
X165569710Y-112409629D01*
X165556698Y-112406715D01*
X165543083Y-112404226D01*
X165528858Y-112402170D01*
X165514017Y-112400556D01*
X165498552Y-112399393D01*
X165482456Y-112398688D01*
X165465723Y-112398451D01*
X165002053Y-112398451D01*
X164990292Y-112398193D01*
X164979400Y-112397417D01*
X164969362Y-112396125D01*
X164960162Y-112394318D01*
X164951785Y-112391995D01*
X164944216Y-112389157D01*
X164934345Y-112383937D01*
X164926206Y-112377563D01*
X164919749Y-112370035D01*
X164914922Y-112361357D01*
X164911674Y-112351530D01*
X164909954Y-112340556D01*
X164909631Y-112332604D01*
X164909631Y-112284732D01*
X164909954Y-112276780D01*
X164911674Y-112265806D01*
X164914922Y-112255979D01*
X164919749Y-112247300D01*
X164926206Y-112239773D01*
X164934345Y-112233398D01*
X164944216Y-112228178D01*
X164951785Y-112225341D01*
X164960162Y-112223018D01*
X164969362Y-112221210D01*
X164979400Y-112219918D01*
X164990292Y-112219143D01*
X165002053Y-112218884D01*
X165675772Y-112218884D01*
X165675772Y-112089729D01*
X165002053Y-112089729D01*
X164985319Y-112089965D01*
X164969224Y-112090669D01*
X164953759Y-112091832D01*
X164938918Y-112093446D01*
X164924693Y-112095500D01*
X164911078Y-112097987D01*
X164898066Y-112100898D01*
X164885650Y-112104224D01*
X164873822Y-112107957D01*
X164862576Y-112112087D01*
X164851905Y-112116607D01*
X164841801Y-112121506D01*
X164832259Y-112126777D01*
X164823270Y-112132411D01*
X164814829Y-112138399D01*
X164806927Y-112144732D01*
X164799558Y-112151402D01*
X164792715Y-112158400D01*
X164786392Y-112165716D01*
X164780580Y-112173344D01*
X164775273Y-112181272D01*
X164770464Y-112189494D01*
X164766147Y-112198000D01*
X164762313Y-112206782D01*
X164758957Y-112215830D01*
X164756070Y-112225137D01*
X164753647Y-112234692D01*
X164751680Y-112244488D01*
X164750163Y-112254516D01*
X164749087Y-112264768D01*
X164748447Y-112275233D01*
X164748235Y-112285904D01*
X164748235Y-112331431D01*
X164748447Y-112342102D01*
X164749087Y-112352566D01*
X164750163Y-112362814D01*
X164751680Y-112372839D01*
X164753647Y-112382631D01*
X164756070Y-112392181D01*
X164758957Y-112401481D01*
X164762313Y-112410523D01*
X164766147Y-112419298D01*
X164770464Y-112427796D01*
X164775273Y-112436010D01*
X164780580Y-112443930D01*
X164786392Y-112451549D01*
X164792715Y-112458857D01*
X164799558Y-112465845D01*
X164806927Y-112472506D01*
X164814829Y-112478830D01*
X164823270Y-112484809D01*
X164832259Y-112490434D01*
X164841801Y-112495696D01*
X164851905Y-112500587D01*
X164862576Y-112505098D01*
X164873822Y-112509221D01*
X164885650Y-112512946D01*
X164898066Y-112516266D01*
X164911078Y-112519171D01*
X164924693Y-112521653D01*
X164938918Y-112523703D01*
X164953759Y-112525313D01*
X164969224Y-112526473D01*
X164985319Y-112527176D01*
X165002053Y-112527412D01*
X165465723Y-112527412D01*
X165477449Y-112527677D01*
X165488311Y-112528472D01*
X165498323Y-112529795D01*
X165507501Y-112531643D01*
X165515859Y-112534016D01*
X165523412Y-112536912D01*
X165533265Y-112542232D01*
X165541391Y-112548718D01*
X165547839Y-112556364D01*
X165552661Y-112565166D01*
X165555907Y-112575116D01*
X165557626Y-112586209D01*
X165557949Y-112594237D01*
X165557949Y-112694278D01*
X165557628Y-112702338D01*
X165555919Y-112713465D01*
X165552689Y-112723432D01*
X165547885Y-112732237D01*
X165541454Y-112739878D01*
X165533342Y-112746352D01*
X165523498Y-112751655D01*
X165515945Y-112754538D01*
X165507583Y-112756899D01*
X165498396Y-112758737D01*
X165488367Y-112760051D01*
X165477482Y-112760840D01*
X165465723Y-112761103D01*
X164774027Y-112761103D01*
X164774027Y-112890064D01*
X165465723Y-112890064D01*
G37*
G36*
X166646295Y-112890064D02*
G01*
X166646295Y-112756609D01*
X166729143Y-112756609D01*
X166729143Y-112627454D01*
X166646295Y-112627454D01*
X166646295Y-112089729D01*
X166484704Y-112089729D01*
X166484704Y-112627454D01*
X165969254Y-112627454D01*
X166370203Y-112089729D01*
X166193372Y-112089729D01*
X165773469Y-112654027D01*
X165773469Y-112756609D01*
X166484704Y-112756609D01*
X166484704Y-112890064D01*
X166646295Y-112890064D01*
G37*
G36*
X168263965Y-112890064D02*
G01*
X168263965Y-112761103D01*
X167622485Y-112761103D01*
X167610727Y-112760842D01*
X167599841Y-112760060D01*
X167589813Y-112758757D01*
X167580625Y-112756933D01*
X167572263Y-112754589D01*
X167564711Y-112751727D01*
X167554866Y-112746460D01*
X167546755Y-112740029D01*
X167540324Y-112732435D01*
X167535520Y-112723679D01*
X167532289Y-112713764D01*
X167530580Y-112702693D01*
X167530259Y-112694669D01*
X167530259Y-112285318D01*
X167530580Y-112277295D01*
X167532289Y-112266223D01*
X167535520Y-112256308D01*
X167540324Y-112247553D01*
X167546755Y-112239958D01*
X167554866Y-112233527D01*
X167564711Y-112228261D01*
X167572263Y-112225398D01*
X167580625Y-112223055D01*
X167589813Y-112221231D01*
X167599841Y-112219928D01*
X167610727Y-112219145D01*
X167622485Y-112218884D01*
X168263965Y-112218884D01*
X168263965Y-112089729D01*
X167622485Y-112089729D01*
X167605752Y-112089965D01*
X167589657Y-112090670D01*
X167574192Y-112091833D01*
X167559350Y-112093446D01*
X167545126Y-112095502D01*
X167531511Y-112097990D01*
X167518499Y-112100902D01*
X167506082Y-112104230D01*
X167494254Y-112107966D01*
X167483009Y-112112099D01*
X167472337Y-112116622D01*
X167462234Y-112121527D01*
X167452692Y-112126803D01*
X167443703Y-112132444D01*
X167435261Y-112138439D01*
X167427360Y-112144781D01*
X167419991Y-112151460D01*
X167413148Y-112158469D01*
X167406824Y-112165798D01*
X167401012Y-112173439D01*
X167395706Y-112181383D01*
X167390897Y-112189621D01*
X167386579Y-112198145D01*
X167382746Y-112206947D01*
X167379389Y-112216017D01*
X167376503Y-112225346D01*
X167374080Y-112234927D01*
X167372113Y-112244750D01*
X167370595Y-112254807D01*
X167369520Y-112265090D01*
X167368880Y-112275588D01*
X167368668Y-112286295D01*
X167368668Y-112693497D01*
X167368880Y-112704221D01*
X167369520Y-112714735D01*
X167370595Y-112725030D01*
X167372113Y-112735098D01*
X167374080Y-112744930D01*
X167376503Y-112754518D01*
X167379389Y-112763854D01*
X167382746Y-112772928D01*
X167386579Y-112781732D01*
X167390897Y-112790257D01*
X167395706Y-112798496D01*
X167401012Y-112806439D01*
X167406824Y-112814078D01*
X167413148Y-112821404D01*
X167419991Y-112828409D01*
X167427360Y-112835084D01*
X167435261Y-112841421D01*
X167443703Y-112847411D01*
X167452692Y-112853046D01*
X167462234Y-112858317D01*
X167472337Y-112863215D01*
X167483009Y-112867732D01*
X167494254Y-112871860D01*
X167506082Y-112875589D01*
X167518499Y-112878912D01*
X167531511Y-112881819D01*
X167545126Y-112884303D01*
X167559350Y-112886354D01*
X167574192Y-112887964D01*
X167589657Y-112889125D01*
X167605752Y-112889827D01*
X167622485Y-112890064D01*
X168263965Y-112890064D01*
G37*
G36*
X169078173Y-112890064D02*
G01*
X169094906Y-112889827D01*
X169111001Y-112889125D01*
X169126466Y-112887964D01*
X169141307Y-112886353D01*
X169155532Y-112884302D01*
X169169147Y-112881818D01*
X169182159Y-112878910D01*
X169194576Y-112875586D01*
X169206403Y-112871855D01*
X169217649Y-112867726D01*
X169228320Y-112863207D01*
X169238424Y-112858307D01*
X169247966Y-112853033D01*
X169256955Y-112847395D01*
X169265396Y-112841401D01*
X169273298Y-112835060D01*
X169280667Y-112828380D01*
X169287510Y-112821369D01*
X169293834Y-112814037D01*
X169299646Y-112806391D01*
X169304952Y-112798441D01*
X169309761Y-112790194D01*
X169314079Y-112781659D01*
X169317912Y-112772845D01*
X169321269Y-112763761D01*
X169324155Y-112754414D01*
X169326578Y-112744813D01*
X169328545Y-112734967D01*
X169330062Y-112724884D01*
X169331138Y-112714574D01*
X169331778Y-112704043D01*
X169331990Y-112693301D01*
X169331990Y-112595409D01*
X169331778Y-112584667D01*
X169331138Y-112574135D01*
X169330062Y-112563821D01*
X169328545Y-112553735D01*
X169326578Y-112543885D01*
X169324155Y-112534279D01*
X169321269Y-112524926D01*
X169317912Y-112515835D01*
X169314079Y-112507014D01*
X169309761Y-112498471D01*
X169304952Y-112490216D01*
X169299646Y-112482257D01*
X169293834Y-112474603D01*
X169287510Y-112467262D01*
X169280667Y-112460242D01*
X169273298Y-112453553D01*
X169265396Y-112447202D01*
X169256955Y-112441199D01*
X169247966Y-112435552D01*
X169238424Y-112430270D01*
X169228320Y-112425361D01*
X169217649Y-112420834D01*
X169206403Y-112416697D01*
X169194576Y-112412960D01*
X169182159Y-112409629D01*
X169169147Y-112406715D01*
X169155532Y-112404226D01*
X169141307Y-112402170D01*
X169126466Y-112400556D01*
X169111001Y-112399393D01*
X169094906Y-112398688D01*
X169078173Y-112398451D01*
X168614502Y-112398451D01*
X168602741Y-112398193D01*
X168591850Y-112397417D01*
X168581811Y-112396125D01*
X168572611Y-112394318D01*
X168564234Y-112391995D01*
X168556666Y-112389157D01*
X168546794Y-112383937D01*
X168538656Y-112377563D01*
X168532198Y-112370035D01*
X168527371Y-112361357D01*
X168524124Y-112351530D01*
X168522404Y-112340556D01*
X168522081Y-112332604D01*
X168522081Y-112284732D01*
X168522404Y-112276780D01*
X168524124Y-112265806D01*
X168527371Y-112255979D01*
X168532198Y-112247300D01*
X168538656Y-112239773D01*
X168546794Y-112233398D01*
X168556666Y-112228178D01*
X168564234Y-112225341D01*
X168572611Y-112223018D01*
X168581811Y-112221210D01*
X168591850Y-112219918D01*
X168602741Y-112219143D01*
X168614502Y-112218884D01*
X169288221Y-112218884D01*
X169288221Y-112089729D01*
X168614502Y-112089729D01*
X168597769Y-112089965D01*
X168581673Y-112090669D01*
X168566208Y-112091832D01*
X168551367Y-112093446D01*
X168537143Y-112095500D01*
X168523528Y-112097987D01*
X168510515Y-112100898D01*
X168498099Y-112104224D01*
X168486271Y-112107957D01*
X168475025Y-112112087D01*
X168464354Y-112116607D01*
X168454251Y-112121506D01*
X168444708Y-112126777D01*
X168435720Y-112132411D01*
X168427278Y-112138399D01*
X168419376Y-112144732D01*
X168412008Y-112151402D01*
X168405165Y-112158400D01*
X168398841Y-112165716D01*
X168393029Y-112173344D01*
X168387722Y-112181272D01*
X168382914Y-112189494D01*
X168378596Y-112198000D01*
X168374762Y-112206782D01*
X168371406Y-112215830D01*
X168368520Y-112225137D01*
X168366097Y-112234692D01*
X168364130Y-112244488D01*
X168362612Y-112254516D01*
X168361537Y-112264768D01*
X168360897Y-112275233D01*
X168360685Y-112285904D01*
X168360685Y-112331431D01*
X168360897Y-112342102D01*
X168361537Y-112352566D01*
X168362612Y-112362814D01*
X168364130Y-112372839D01*
X168366097Y-112382631D01*
X168368520Y-112392181D01*
X168371406Y-112401481D01*
X168374762Y-112410523D01*
X168378596Y-112419298D01*
X168382914Y-112427796D01*
X168387722Y-112436010D01*
X168393029Y-112443930D01*
X168398841Y-112451549D01*
X168405165Y-112458857D01*
X168412008Y-112465845D01*
X168419376Y-112472506D01*
X168427278Y-112478830D01*
X168435720Y-112484809D01*
X168444708Y-112490434D01*
X168454251Y-112495696D01*
X168464354Y-112500587D01*
X168475025Y-112505098D01*
X168486271Y-112509221D01*
X168498099Y-112512946D01*
X168510515Y-112516266D01*
X168523528Y-112519171D01*
X168537143Y-112521653D01*
X168551367Y-112523703D01*
X168566208Y-112525313D01*
X168581673Y-112526473D01*
X168597769Y-112527176D01*
X168614502Y-112527412D01*
X169078173Y-112527412D01*
X169089899Y-112527677D01*
X169100761Y-112528472D01*
X169110773Y-112529795D01*
X169119950Y-112531643D01*
X169128308Y-112534016D01*
X169135861Y-112536912D01*
X169145714Y-112542232D01*
X169153840Y-112548718D01*
X169160289Y-112556364D01*
X169165111Y-112565166D01*
X169168356Y-112575116D01*
X169170076Y-112586209D01*
X169170399Y-112594237D01*
X169170399Y-112694278D01*
X169170078Y-112702338D01*
X169168368Y-112713465D01*
X169165138Y-112723432D01*
X169160334Y-112732237D01*
X169153903Y-112739878D01*
X169145792Y-112746352D01*
X169135947Y-112751655D01*
X169128395Y-112754538D01*
X169120033Y-112756899D01*
X169110845Y-112758737D01*
X169100817Y-112760051D01*
X169089931Y-112760840D01*
X169078173Y-112761103D01*
X168386477Y-112761103D01*
X168386477Y-112890064D01*
X169078173Y-112890064D01*
G37*
G36*
X170006100Y-112890064D02*
G01*
X170022833Y-112889827D01*
X170038927Y-112889125D01*
X170054389Y-112887965D01*
X170069227Y-112886355D01*
X170083447Y-112884306D01*
X170097056Y-112881824D01*
X170110063Y-112878920D01*
X170122473Y-112875601D01*
X170134293Y-112871877D01*
X170145531Y-112867756D01*
X170156195Y-112863247D01*
X170166289Y-112858358D01*
X170175823Y-112853099D01*
X170184803Y-112847477D01*
X170193235Y-112841502D01*
X170201128Y-112835182D01*
X170208488Y-112828526D01*
X170215321Y-112821543D01*
X170221636Y-112814241D01*
X170227439Y-112806630D01*
X170232738Y-112798717D01*
X170237538Y-112790511D01*
X170241848Y-112782022D01*
X170245675Y-112773257D01*
X170249025Y-112764226D01*
X170251905Y-112754938D01*
X170254323Y-112745400D01*
X170256285Y-112735621D01*
X170257799Y-112725612D01*
X170258872Y-112715379D01*
X170259511Y-112704931D01*
X170259722Y-112694278D01*
X170259722Y-112556916D01*
X170259511Y-112546263D01*
X170258872Y-112535814D01*
X170257799Y-112525578D01*
X170256285Y-112515565D01*
X170254323Y-112505782D01*
X170251905Y-112496239D01*
X170249025Y-112486944D01*
X170245675Y-112477907D01*
X170241848Y-112469135D01*
X170237538Y-112460638D01*
X170232738Y-112452424D01*
X170227439Y-112444503D01*
X170221636Y-112436883D01*
X170215321Y-112429572D01*
X170208488Y-112422580D01*
X170201128Y-112415915D01*
X170193235Y-112409586D01*
X170184803Y-112403602D01*
X170175823Y-112397971D01*
X170166289Y-112392703D01*
X170156195Y-112387806D01*
X170145531Y-112383289D01*
X170134293Y-112379160D01*
X170122473Y-112375429D01*
X170110063Y-112372103D01*
X170097056Y-112369193D01*
X170083447Y-112366707D01*
X170069227Y-112364652D01*
X170054389Y-112363040D01*
X170038927Y-112361877D01*
X170022833Y-112361172D01*
X170006100Y-112360936D01*
X169597921Y-112360936D01*
X169597921Y-112218884D01*
X170234125Y-112218884D01*
X170234125Y-112089729D01*
X169436330Y-112089729D01*
X169436330Y-112489896D01*
X170006100Y-112489896D01*
X170017858Y-112490157D01*
X170028744Y-112490938D01*
X170038773Y-112492239D01*
X170047960Y-112494057D01*
X170056322Y-112496392D01*
X170063875Y-112499242D01*
X170073719Y-112504479D01*
X170081831Y-112510866D01*
X170088262Y-112518399D01*
X170093066Y-112527073D01*
X170096296Y-112536883D01*
X170098005Y-112547824D01*
X170098326Y-112555744D01*
X170098326Y-112695451D01*
X170098005Y-112703369D01*
X170096296Y-112714299D01*
X170093066Y-112724091D01*
X170088262Y-112732742D01*
X170081831Y-112740249D01*
X170073719Y-112746609D01*
X170063875Y-112751819D01*
X170056322Y-112754653D01*
X170047960Y-112756973D01*
X170038773Y-112758778D01*
X170028744Y-112760069D01*
X170017858Y-112760845D01*
X170006100Y-112761103D01*
X169436330Y-112761103D01*
X169436330Y-112890064D01*
X170006100Y-112890064D01*
G37*
G36*
X125481446Y-112872649D02*
G01*
X125497134Y-112872427D01*
X125512223Y-112871768D01*
X125526722Y-112870680D01*
X125540635Y-112869170D01*
X125553971Y-112867247D01*
X125566735Y-112864918D01*
X125578934Y-112862192D01*
X125590574Y-112859076D01*
X125601663Y-112855578D01*
X125612206Y-112851707D01*
X125622210Y-112847471D01*
X125631682Y-112842876D01*
X125640628Y-112837932D01*
X125649055Y-112832647D01*
X125656969Y-112827028D01*
X125664377Y-112821083D01*
X125671285Y-112814820D01*
X125677700Y-112808248D01*
X125683629Y-112801374D01*
X125689077Y-112794206D01*
X125694052Y-112786752D01*
X125698561Y-112779021D01*
X125702608Y-112771019D01*
X125706202Y-112762756D01*
X125709349Y-112754239D01*
X125712055Y-112745477D01*
X125714326Y-112736476D01*
X125716170Y-112727246D01*
X125717593Y-112717793D01*
X125718601Y-112708127D01*
X125719201Y-112698254D01*
X125719400Y-112688184D01*
X125719400Y-112596410D01*
X125719201Y-112586339D01*
X125718601Y-112576465D01*
X125717593Y-112566796D01*
X125716170Y-112557341D01*
X125714326Y-112548106D01*
X125712055Y-112539100D01*
X125709349Y-112530332D01*
X125706202Y-112521809D01*
X125702608Y-112513539D01*
X125698561Y-112505531D01*
X125694052Y-112497792D01*
X125689077Y-112490330D01*
X125683629Y-112483154D01*
X125677700Y-112476272D01*
X125671285Y-112469691D01*
X125664377Y-112463420D01*
X125656969Y-112457466D01*
X125649055Y-112451838D01*
X125640628Y-112446544D01*
X125631682Y-112441592D01*
X125622210Y-112436990D01*
X125612206Y-112432746D01*
X125601663Y-112428868D01*
X125590574Y-112425364D01*
X125578934Y-112422241D01*
X125566735Y-112419510D01*
X125553971Y-112417176D01*
X125540635Y-112415248D01*
X125526722Y-112413735D01*
X125512223Y-112412645D01*
X125497134Y-112411984D01*
X125481446Y-112411762D01*
X125046755Y-112411762D01*
X125035730Y-112411520D01*
X125025519Y-112410793D01*
X125016108Y-112409582D01*
X125007483Y-112407887D01*
X124999629Y-112405709D01*
X124992534Y-112403049D01*
X124983279Y-112398155D01*
X124975649Y-112392179D01*
X124969596Y-112385122D01*
X124965070Y-112376986D01*
X124962025Y-112367773D01*
X124960413Y-112357485D01*
X124960110Y-112350030D01*
X124960110Y-112305150D01*
X124960413Y-112297695D01*
X124962025Y-112287407D01*
X124965070Y-112278194D01*
X124969596Y-112270058D01*
X124975649Y-112263001D01*
X124983279Y-112257025D01*
X124992534Y-112252131D01*
X124999629Y-112249471D01*
X125007483Y-112247293D01*
X125016108Y-112245599D01*
X125025519Y-112244387D01*
X125035730Y-112243660D01*
X125046755Y-112243418D01*
X125678367Y-112243418D01*
X125678367Y-112122334D01*
X125046755Y-112122334D01*
X125031068Y-112122556D01*
X125015978Y-112123217D01*
X125001480Y-112124307D01*
X124987566Y-112125819D01*
X124974231Y-112127745D01*
X124961467Y-112130077D01*
X124949268Y-112132806D01*
X124937627Y-112135924D01*
X124926539Y-112139424D01*
X124915996Y-112143296D01*
X124905992Y-112147533D01*
X124896520Y-112152126D01*
X124887574Y-112157068D01*
X124879147Y-112162349D01*
X124871233Y-112167963D01*
X124863825Y-112173900D01*
X124856917Y-112180153D01*
X124850502Y-112186714D01*
X124844573Y-112193573D01*
X124839124Y-112200724D01*
X124834149Y-112208157D01*
X124829641Y-112215865D01*
X124825593Y-112223839D01*
X124821999Y-112232072D01*
X124818853Y-112240555D01*
X124816147Y-112249280D01*
X124813875Y-112258238D01*
X124812031Y-112267422D01*
X124810609Y-112276823D01*
X124809600Y-112286434D01*
X124809000Y-112296245D01*
X124808802Y-112306249D01*
X124808802Y-112348931D01*
X124809000Y-112358934D01*
X124809600Y-112368744D01*
X124810609Y-112378352D01*
X124812031Y-112387750D01*
X124813875Y-112396930D01*
X124816147Y-112405884D01*
X124818853Y-112414603D01*
X124821999Y-112423079D01*
X124825593Y-112431305D01*
X124829641Y-112439273D01*
X124834149Y-112446973D01*
X124839124Y-112454399D01*
X124844573Y-112461541D01*
X124850502Y-112468392D01*
X124856917Y-112474944D01*
X124863825Y-112481188D01*
X124871233Y-112487117D01*
X124879147Y-112492722D01*
X124887574Y-112497996D01*
X124896520Y-112502929D01*
X124905992Y-112507514D01*
X124915996Y-112511744D01*
X124926539Y-112515609D01*
X124937627Y-112519101D01*
X124949268Y-112522213D01*
X124961467Y-112524937D01*
X124974231Y-112527264D01*
X124987566Y-112529186D01*
X125001480Y-112530695D01*
X125015978Y-112531782D01*
X125031068Y-112532441D01*
X125046755Y-112532662D01*
X125481446Y-112532662D01*
X125492440Y-112532911D01*
X125502623Y-112533656D01*
X125512009Y-112534896D01*
X125520613Y-112536629D01*
X125528449Y-112538854D01*
X125535530Y-112541569D01*
X125544767Y-112546556D01*
X125552385Y-112552637D01*
X125558430Y-112559806D01*
X125562951Y-112568057D01*
X125565994Y-112577385D01*
X125567606Y-112587785D01*
X125567908Y-112595311D01*
X125567908Y-112689100D01*
X125567608Y-112696656D01*
X125566005Y-112707087D01*
X125562977Y-112716431D01*
X125558473Y-112724687D01*
X125552444Y-112731850D01*
X125544839Y-112737919D01*
X125535610Y-112742890D01*
X125528530Y-112745593D01*
X125520690Y-112747807D01*
X125512077Y-112749530D01*
X125502675Y-112750762D01*
X125492470Y-112751502D01*
X125481446Y-112751748D01*
X124832982Y-112751748D01*
X124832982Y-112872649D01*
X125481446Y-112872649D01*
G37*
G36*
X126803289Y-112872649D02*
G01*
X127150053Y-112122334D01*
X127001675Y-112122334D01*
X126746136Y-112680674D01*
X126493711Y-112122334D01*
X126382153Y-112122334D01*
X126126614Y-112680674D01*
X125873090Y-112122334D01*
X125725811Y-112122334D01*
X126071476Y-112872649D01*
X126180653Y-112872649D01*
X126438390Y-112314493D01*
X126690815Y-112872649D01*
X126803289Y-112872649D01*
G37*
G36*
X127489489Y-112872649D02*
G01*
X127489489Y-112122334D01*
X127286890Y-112122334D01*
X127132467Y-112296907D01*
X127295316Y-112296907D01*
X127338181Y-112247814D01*
X127338181Y-112872649D01*
X127489489Y-112872649D01*
G37*
G36*
X128797776Y-112872649D02*
G01*
X128813463Y-112872427D01*
X128828553Y-112871768D01*
X128843051Y-112870680D01*
X128856965Y-112869170D01*
X128870300Y-112867247D01*
X128883064Y-112864918D01*
X128895263Y-112862192D01*
X128906904Y-112859076D01*
X128917992Y-112855578D01*
X128928535Y-112851707D01*
X128938539Y-112847471D01*
X128948011Y-112842876D01*
X128956957Y-112837932D01*
X128965384Y-112832647D01*
X128973298Y-112827028D01*
X128980706Y-112821083D01*
X128987614Y-112814820D01*
X128994030Y-112808248D01*
X128999958Y-112801374D01*
X129005407Y-112794206D01*
X129010382Y-112786752D01*
X129014890Y-112779021D01*
X129018938Y-112771019D01*
X129022532Y-112762756D01*
X129025678Y-112754239D01*
X129028384Y-112745477D01*
X129030656Y-112736476D01*
X129032500Y-112727246D01*
X129033923Y-112717793D01*
X129034931Y-112708127D01*
X129035531Y-112698254D01*
X129035729Y-112688184D01*
X129035729Y-112596410D01*
X129035531Y-112586339D01*
X129034931Y-112576465D01*
X129033923Y-112566796D01*
X129032500Y-112557341D01*
X129030656Y-112548106D01*
X129028384Y-112539100D01*
X129025678Y-112530332D01*
X129022532Y-112521809D01*
X129018938Y-112513539D01*
X129014890Y-112505531D01*
X129010382Y-112497792D01*
X129005407Y-112490330D01*
X128999958Y-112483154D01*
X128994030Y-112476272D01*
X128987614Y-112469691D01*
X128980706Y-112463420D01*
X128973298Y-112457466D01*
X128965384Y-112451838D01*
X128956957Y-112446544D01*
X128948011Y-112441592D01*
X128938539Y-112436990D01*
X128928535Y-112432746D01*
X128917992Y-112428868D01*
X128906904Y-112425364D01*
X128895263Y-112422241D01*
X128883064Y-112419510D01*
X128870300Y-112417176D01*
X128856965Y-112415248D01*
X128843051Y-112413735D01*
X128828553Y-112412645D01*
X128813463Y-112411984D01*
X128797776Y-112411762D01*
X128363085Y-112411762D01*
X128352059Y-112411520D01*
X128341848Y-112410793D01*
X128332437Y-112409582D01*
X128323812Y-112407887D01*
X128315959Y-112405709D01*
X128308863Y-112403049D01*
X128299609Y-112398155D01*
X128291979Y-112392179D01*
X128285925Y-112385122D01*
X128281400Y-112376986D01*
X128278355Y-112367773D01*
X128276742Y-112357485D01*
X128276440Y-112350030D01*
X128276440Y-112305150D01*
X128276742Y-112297695D01*
X128278355Y-112287407D01*
X128281400Y-112278194D01*
X128285925Y-112270058D01*
X128291979Y-112263001D01*
X128299609Y-112257025D01*
X128308863Y-112252131D01*
X128315959Y-112249471D01*
X128323812Y-112247293D01*
X128332437Y-112245599D01*
X128341848Y-112244387D01*
X128352059Y-112243660D01*
X128363085Y-112243418D01*
X128994697Y-112243418D01*
X128994697Y-112122334D01*
X128363085Y-112122334D01*
X128347397Y-112122556D01*
X128332308Y-112123217D01*
X128317809Y-112124307D01*
X128303896Y-112125819D01*
X128290560Y-112127745D01*
X128277796Y-112130077D01*
X128265597Y-112132806D01*
X128253957Y-112135924D01*
X128242868Y-112139424D01*
X128232325Y-112143296D01*
X128222321Y-112147533D01*
X128212849Y-112152126D01*
X128203903Y-112157068D01*
X128195476Y-112162349D01*
X128187562Y-112167963D01*
X128180154Y-112173900D01*
X128173246Y-112180153D01*
X128166831Y-112186714D01*
X128160902Y-112193573D01*
X128155454Y-112200724D01*
X128150479Y-112208157D01*
X128145970Y-112215865D01*
X128141923Y-112223839D01*
X128138329Y-112232072D01*
X128135182Y-112240555D01*
X128132476Y-112249280D01*
X128130205Y-112258238D01*
X128128361Y-112267422D01*
X128126938Y-112276823D01*
X128125930Y-112286434D01*
X128125330Y-112296245D01*
X128125131Y-112306249D01*
X128125131Y-112348931D01*
X128125330Y-112358934D01*
X128125930Y-112368744D01*
X128126938Y-112378352D01*
X128128361Y-112387750D01*
X128130205Y-112396930D01*
X128132476Y-112405884D01*
X128135182Y-112414603D01*
X128138329Y-112423079D01*
X128141923Y-112431305D01*
X128145970Y-112439273D01*
X128150479Y-112446973D01*
X128155454Y-112454399D01*
X128160902Y-112461541D01*
X128166831Y-112468392D01*
X128173246Y-112474944D01*
X128180154Y-112481188D01*
X128187562Y-112487117D01*
X128195476Y-112492722D01*
X128203903Y-112497996D01*
X128212849Y-112502929D01*
X128222321Y-112507514D01*
X128232325Y-112511744D01*
X128242868Y-112515609D01*
X128253957Y-112519101D01*
X128265597Y-112522213D01*
X128277796Y-112524937D01*
X128290560Y-112527264D01*
X128303896Y-112529186D01*
X128317809Y-112530695D01*
X128332308Y-112531782D01*
X128347397Y-112532441D01*
X128363085Y-112532662D01*
X128797776Y-112532662D01*
X128808769Y-112532911D01*
X128818952Y-112533656D01*
X128828338Y-112534896D01*
X128836942Y-112536629D01*
X128844778Y-112538854D01*
X128851859Y-112541569D01*
X128861096Y-112546556D01*
X128868714Y-112552637D01*
X128874760Y-112559806D01*
X128879280Y-112568057D01*
X128882323Y-112577385D01*
X128883935Y-112587785D01*
X128884238Y-112595311D01*
X128884238Y-112689100D01*
X128883937Y-112696656D01*
X128882334Y-112707087D01*
X128879306Y-112716431D01*
X128874802Y-112724687D01*
X128868773Y-112731850D01*
X128861169Y-112737919D01*
X128851939Y-112742890D01*
X128844859Y-112745593D01*
X128837020Y-112747807D01*
X128828407Y-112749530D01*
X128819005Y-112750762D01*
X128808799Y-112751502D01*
X128797776Y-112751748D01*
X128149311Y-112751748D01*
X128149311Y-112872649D01*
X128797776Y-112872649D01*
G37*
G36*
X130119618Y-112872649D02*
G01*
X130466382Y-112122334D01*
X130318004Y-112122334D01*
X130062465Y-112680674D01*
X129810040Y-112122334D01*
X129698482Y-112122334D01*
X129442943Y-112680674D01*
X129189419Y-112122334D01*
X129042141Y-112122334D01*
X129387806Y-112872649D01*
X129496982Y-112872649D01*
X129754719Y-112314493D01*
X130007144Y-112872649D01*
X130119618Y-112872649D01*
G37*
G36*
X131282642Y-112872649D02*
G01*
X131282642Y-112751748D01*
X130657807Y-112751748D01*
X130657807Y-112595311D01*
X130658110Y-112587785D01*
X130659722Y-112577385D01*
X130662765Y-112568057D01*
X130667285Y-112559806D01*
X130673331Y-112552637D01*
X130680949Y-112546556D01*
X130690186Y-112541569D01*
X130697267Y-112538854D01*
X130705103Y-112536629D01*
X130713707Y-112534896D01*
X130723093Y-112533656D01*
X130733276Y-112532911D01*
X130744269Y-112532662D01*
X131044688Y-112532662D01*
X131060375Y-112532441D01*
X131075465Y-112531782D01*
X131089963Y-112530695D01*
X131103877Y-112529186D01*
X131117212Y-112527264D01*
X131129976Y-112524937D01*
X131142175Y-112522213D01*
X131153816Y-112519101D01*
X131164904Y-112515609D01*
X131175447Y-112511744D01*
X131185452Y-112507514D01*
X131194923Y-112502929D01*
X131203869Y-112497996D01*
X131212296Y-112492722D01*
X131220210Y-112487117D01*
X131227618Y-112481188D01*
X131234526Y-112474944D01*
X131240942Y-112468392D01*
X131246870Y-112461541D01*
X131252319Y-112454399D01*
X131257294Y-112446973D01*
X131261802Y-112439273D01*
X131265850Y-112431305D01*
X131269444Y-112423079D01*
X131272590Y-112414603D01*
X131275296Y-112405884D01*
X131277568Y-112396930D01*
X131279412Y-112387750D01*
X131280835Y-112378352D01*
X131281843Y-112368744D01*
X131282443Y-112358934D01*
X131282642Y-112348931D01*
X131282642Y-112306249D01*
X131282443Y-112296245D01*
X131281843Y-112286434D01*
X131280835Y-112276823D01*
X131279412Y-112267422D01*
X131277568Y-112258238D01*
X131275296Y-112249280D01*
X131272590Y-112240555D01*
X131269444Y-112232072D01*
X131265850Y-112223839D01*
X131261802Y-112215865D01*
X131257294Y-112208157D01*
X131252319Y-112200724D01*
X131246870Y-112193573D01*
X131240942Y-112186714D01*
X131234526Y-112180153D01*
X131227618Y-112173900D01*
X131220210Y-112167963D01*
X131212296Y-112162349D01*
X131203869Y-112157068D01*
X131194923Y-112152126D01*
X131185452Y-112147533D01*
X131175447Y-112143296D01*
X131164904Y-112139424D01*
X131153816Y-112135924D01*
X131142175Y-112132806D01*
X131129976Y-112130077D01*
X131117212Y-112127745D01*
X131103877Y-112125819D01*
X131089963Y-112124307D01*
X131075465Y-112123217D01*
X131060375Y-112122556D01*
X131044688Y-112122334D01*
X130546249Y-112122334D01*
X130546249Y-112243418D01*
X131044688Y-112243418D01*
X131055711Y-112243660D01*
X131065917Y-112244387D01*
X131075319Y-112245599D01*
X131083932Y-112247293D01*
X131091771Y-112249471D01*
X131098852Y-112252131D01*
X131108081Y-112257025D01*
X131115685Y-112263001D01*
X131121714Y-112270058D01*
X131126218Y-112278194D01*
X131129247Y-112287407D01*
X131130849Y-112297695D01*
X131131150Y-112305150D01*
X131131150Y-112350030D01*
X131130849Y-112357485D01*
X131129247Y-112367773D01*
X131126218Y-112376986D01*
X131121714Y-112385122D01*
X131115685Y-112392179D01*
X131108081Y-112398155D01*
X131098852Y-112403049D01*
X131091771Y-112405709D01*
X131083932Y-112407887D01*
X131075319Y-112409582D01*
X131065917Y-112410793D01*
X131055711Y-112411520D01*
X131044688Y-112411762D01*
X130744269Y-112411762D01*
X130728582Y-112411984D01*
X130713492Y-112412645D01*
X130698994Y-112413735D01*
X130685080Y-112415248D01*
X130671745Y-112417176D01*
X130658981Y-112419510D01*
X130646782Y-112422241D01*
X130635141Y-112425364D01*
X130624053Y-112428868D01*
X130613510Y-112432746D01*
X130603506Y-112436990D01*
X130594034Y-112441592D01*
X130585088Y-112446544D01*
X130576661Y-112451838D01*
X130568747Y-112457466D01*
X130561339Y-112463420D01*
X130554431Y-112469691D01*
X130548016Y-112476272D01*
X130542087Y-112483154D01*
X130536638Y-112490330D01*
X130531663Y-112497792D01*
X130527155Y-112505531D01*
X130523107Y-112513539D01*
X130519513Y-112521809D01*
X130516367Y-112530332D01*
X130513661Y-112539100D01*
X130511389Y-112548106D01*
X130509545Y-112557341D01*
X130508123Y-112566796D01*
X130507114Y-112576465D01*
X130506514Y-112586339D01*
X130506316Y-112596410D01*
X130506316Y-112872649D01*
X131282642Y-112872649D01*
G37*
G36*
X132580853Y-112872649D02*
G01*
X132596541Y-112872427D01*
X132611630Y-112871768D01*
X132626129Y-112870680D01*
X132640042Y-112869170D01*
X132653378Y-112867247D01*
X132666142Y-112864918D01*
X132678341Y-112862192D01*
X132689981Y-112859076D01*
X132701070Y-112855578D01*
X132711613Y-112851707D01*
X132721617Y-112847471D01*
X132731089Y-112842876D01*
X132740035Y-112837932D01*
X132748462Y-112832647D01*
X132756376Y-112827028D01*
X132763784Y-112821083D01*
X132770692Y-112814820D01*
X132777107Y-112808248D01*
X132783036Y-112801374D01*
X132788484Y-112794206D01*
X132793459Y-112786752D01*
X132797967Y-112779021D01*
X132802015Y-112771019D01*
X132805609Y-112762756D01*
X132808756Y-112754239D01*
X132811462Y-112745477D01*
X132813733Y-112736476D01*
X132815577Y-112727246D01*
X132817000Y-112717793D01*
X132818008Y-112708127D01*
X132818608Y-112698254D01*
X132818807Y-112688184D01*
X132818807Y-112596410D01*
X132818608Y-112586339D01*
X132818008Y-112576465D01*
X132817000Y-112566796D01*
X132815577Y-112557341D01*
X132813733Y-112548106D01*
X132811462Y-112539100D01*
X132808756Y-112530332D01*
X132805609Y-112521809D01*
X132802015Y-112513539D01*
X132797967Y-112505531D01*
X132793459Y-112497792D01*
X132788484Y-112490330D01*
X132783036Y-112483154D01*
X132777107Y-112476272D01*
X132770692Y-112469691D01*
X132763784Y-112463420D01*
X132756376Y-112457466D01*
X132748462Y-112451838D01*
X132740035Y-112446544D01*
X132731089Y-112441592D01*
X132721617Y-112436990D01*
X132711613Y-112432746D01*
X132701070Y-112428868D01*
X132689981Y-112425364D01*
X132678341Y-112422241D01*
X132666142Y-112419510D01*
X132653378Y-112417176D01*
X132640042Y-112415248D01*
X132626129Y-112413735D01*
X132611630Y-112412645D01*
X132596541Y-112411984D01*
X132580853Y-112411762D01*
X132146162Y-112411762D01*
X132135137Y-112411520D01*
X132124926Y-112410793D01*
X132115515Y-112409582D01*
X132106890Y-112407887D01*
X132099036Y-112405709D01*
X132091941Y-112403049D01*
X132082686Y-112398155D01*
X132075056Y-112392179D01*
X132069002Y-112385122D01*
X132064477Y-112376986D01*
X132061432Y-112367773D01*
X132059820Y-112357485D01*
X132059517Y-112350030D01*
X132059517Y-112305150D01*
X132059820Y-112297695D01*
X132061432Y-112287407D01*
X132064477Y-112278194D01*
X132069002Y-112270058D01*
X132075056Y-112263001D01*
X132082686Y-112257025D01*
X132091941Y-112252131D01*
X132099036Y-112249471D01*
X132106890Y-112247293D01*
X132115515Y-112245599D01*
X132124926Y-112244387D01*
X132135137Y-112243660D01*
X132146162Y-112243418D01*
X132777774Y-112243418D01*
X132777774Y-112122334D01*
X132146162Y-112122334D01*
X132130475Y-112122556D01*
X132115385Y-112123217D01*
X132100887Y-112124307D01*
X132086973Y-112125819D01*
X132073638Y-112127745D01*
X132060874Y-112130077D01*
X132048675Y-112132806D01*
X132037034Y-112135924D01*
X132025946Y-112139424D01*
X132015403Y-112143296D01*
X132005398Y-112147533D01*
X131995927Y-112152126D01*
X131986981Y-112157068D01*
X131978554Y-112162349D01*
X131970640Y-112167963D01*
X131963232Y-112173900D01*
X131956324Y-112180153D01*
X131949908Y-112186714D01*
X131943980Y-112193573D01*
X131938531Y-112200724D01*
X131933556Y-112208157D01*
X131929048Y-112215865D01*
X131925000Y-112223839D01*
X131921406Y-112232072D01*
X131918260Y-112240555D01*
X131915554Y-112249280D01*
X131913282Y-112258238D01*
X131911438Y-112267422D01*
X131910015Y-112276823D01*
X131909007Y-112286434D01*
X131908407Y-112296245D01*
X131908209Y-112306249D01*
X131908209Y-112348931D01*
X131908407Y-112358934D01*
X131909007Y-112368744D01*
X131910015Y-112378352D01*
X131911438Y-112387750D01*
X131913282Y-112396930D01*
X131915554Y-112405884D01*
X131918260Y-112414603D01*
X131921406Y-112423079D01*
X131925000Y-112431305D01*
X131929048Y-112439273D01*
X131933556Y-112446973D01*
X131938531Y-112454399D01*
X131943980Y-112461541D01*
X131949908Y-112468392D01*
X131956324Y-112474944D01*
X131963232Y-112481188D01*
X131970640Y-112487117D01*
X131978554Y-112492722D01*
X131986981Y-112497996D01*
X131995927Y-112502929D01*
X132005398Y-112507514D01*
X132015403Y-112511744D01*
X132025946Y-112515609D01*
X132037034Y-112519101D01*
X132048675Y-112522213D01*
X132060874Y-112524937D01*
X132073638Y-112527264D01*
X132086973Y-112529186D01*
X132100887Y-112530695D01*
X132115385Y-112531782D01*
X132130475Y-112532441D01*
X132146162Y-112532662D01*
X132580853Y-112532662D01*
X132591847Y-112532911D01*
X132602029Y-112533656D01*
X132611416Y-112534896D01*
X132620020Y-112536629D01*
X132627855Y-112538854D01*
X132634936Y-112541569D01*
X132644174Y-112546556D01*
X132651791Y-112552637D01*
X132657837Y-112559806D01*
X132662358Y-112568057D01*
X132665401Y-112577385D01*
X132667012Y-112587785D01*
X132667315Y-112595311D01*
X132667315Y-112689100D01*
X132667014Y-112696656D01*
X132665412Y-112707087D01*
X132662384Y-112716431D01*
X132657880Y-112724687D01*
X132651851Y-112731850D01*
X132644246Y-112737919D01*
X132635017Y-112742890D01*
X132627937Y-112745593D01*
X132620097Y-112747807D01*
X132611484Y-112749530D01*
X132602082Y-112750762D01*
X132591877Y-112751502D01*
X132580853Y-112751748D01*
X131932389Y-112751748D01*
X131932389Y-112872649D01*
X132580853Y-112872649D01*
G37*
G36*
X133902696Y-112872649D02*
G01*
X134249459Y-112122334D01*
X134101082Y-112122334D01*
X133845543Y-112680674D01*
X133593118Y-112122334D01*
X133481560Y-112122334D01*
X133226021Y-112680674D01*
X132972497Y-112122334D01*
X132825218Y-112122334D01*
X133170883Y-112872649D01*
X133280060Y-112872649D01*
X133537797Y-112314493D01*
X133790222Y-112872649D01*
X133902696Y-112872649D01*
G37*
G36*
X134792045Y-112872649D02*
G01*
X134809076Y-112872418D01*
X134825350Y-112871735D01*
X134840882Y-112870613D01*
X134855686Y-112869065D01*
X134869775Y-112867106D01*
X134883165Y-112864748D01*
X134895869Y-112862005D01*
X134907902Y-112858890D01*
X134919277Y-112855417D01*
X134930009Y-112851599D01*
X134940112Y-112847450D01*
X134949599Y-112842983D01*
X134958486Y-112838211D01*
X134966787Y-112833149D01*
X134974515Y-112827809D01*
X134981684Y-112822205D01*
X134988310Y-112816350D01*
X134994405Y-112810258D01*
X134999984Y-112803943D01*
X135005062Y-112797417D01*
X135009652Y-112790694D01*
X135013769Y-112783788D01*
X135017427Y-112776712D01*
X135020639Y-112769480D01*
X135023420Y-112762104D01*
X135025785Y-112754599D01*
X135027747Y-112746978D01*
X135029321Y-112739254D01*
X135030520Y-112731441D01*
X135031359Y-112723553D01*
X135031852Y-112715601D01*
X135032013Y-112707601D01*
X135032013Y-112587434D01*
X135031512Y-112574020D01*
X135030061Y-112561452D01*
X135027741Y-112549720D01*
X135024635Y-112538811D01*
X135020822Y-112528713D01*
X135016384Y-112519415D01*
X135011401Y-112510904D01*
X135005956Y-112503170D01*
X135000128Y-112496200D01*
X134994000Y-112489982D01*
X134987651Y-112484505D01*
X134981163Y-112479757D01*
X134974618Y-112475726D01*
X134964868Y-112470998D01*
X134955443Y-112467816D01*
X134964040Y-112464939D01*
X134972786Y-112459810D01*
X134978593Y-112455216D01*
X134984305Y-112449736D01*
X134989859Y-112443415D01*
X134995189Y-112436298D01*
X135000231Y-112428432D01*
X135004922Y-112419861D01*
X135009196Y-112410632D01*
X135012989Y-112400791D01*
X135016237Y-112390381D01*
X135018875Y-112379451D01*
X135020839Y-112368044D01*
X135022065Y-112356207D01*
X135022488Y-112343985D01*
X135022488Y-112288114D01*
X135022293Y-112278710D01*
X135021703Y-112269529D01*
X135020712Y-112260575D01*
X135019314Y-112251854D01*
X135017503Y-112243371D01*
X135015272Y-112235131D01*
X135012616Y-112227138D01*
X135009528Y-112219398D01*
X135006002Y-112211916D01*
X135002032Y-112204696D01*
X134997612Y-112197743D01*
X134992735Y-112191064D01*
X134987396Y-112184661D01*
X134981588Y-112178541D01*
X134975305Y-112172709D01*
X134968541Y-112167168D01*
X134961289Y-112161925D01*
X134953545Y-112156985D01*
X134945300Y-112152351D01*
X134936550Y-112148030D01*
X134927288Y-112144026D01*
X134917507Y-112140344D01*
X134907202Y-112136989D01*
X134896367Y-112133967D01*
X134884995Y-112131281D01*
X134873080Y-112128937D01*
X134860617Y-112126940D01*
X134847598Y-112125295D01*
X134834017Y-112124007D01*
X134819870Y-112123081D01*
X134805148Y-112122522D01*
X134789847Y-112122334D01*
X134290492Y-112122334D01*
X134290492Y-112243418D01*
X134789847Y-112243418D01*
X134801175Y-112243584D01*
X134811486Y-112244090D01*
X134820820Y-112244954D01*
X134829217Y-112246188D01*
X134836714Y-112247810D01*
X134846363Y-112250999D01*
X134854212Y-112255142D01*
X134860395Y-112260289D01*
X134865045Y-112266492D01*
X134868294Y-112273801D01*
X134870277Y-112282267D01*
X134871126Y-112291940D01*
X134871180Y-112295442D01*
X134871180Y-112359739D01*
X134870679Y-112369826D01*
X134869089Y-112378688D01*
X134866277Y-112386377D01*
X134862109Y-112392943D01*
X134856452Y-112398437D01*
X134849173Y-112402909D01*
X134840139Y-112406410D01*
X134829217Y-112408992D01*
X134820820Y-112410226D01*
X134811486Y-112411090D01*
X134801175Y-112411597D01*
X134789847Y-112411762D01*
X134322000Y-112411762D01*
X134322000Y-112532662D01*
X134792045Y-112532662D01*
X134802006Y-112532839D01*
X134811475Y-112533382D01*
X134820430Y-112534309D01*
X134828850Y-112535639D01*
X134836716Y-112537390D01*
X134844006Y-112539579D01*
X134853817Y-112543726D01*
X134862216Y-112548964D01*
X134869135Y-112555353D01*
X134874503Y-112562956D01*
X134878250Y-112571834D01*
X134880307Y-112582049D01*
X134880705Y-112589632D01*
X134880705Y-112681406D01*
X134880307Y-112691373D01*
X134879127Y-112700417D01*
X134877185Y-112708577D01*
X134874503Y-112715890D01*
X134871100Y-112722397D01*
X134864690Y-112730728D01*
X134856777Y-112737460D01*
X134847429Y-112742724D01*
X134840434Y-112745482D01*
X134832854Y-112747684D01*
X134824708Y-112749368D01*
X134816018Y-112750574D01*
X134806803Y-112751340D01*
X134797086Y-112751705D01*
X134792045Y-112751748D01*
X134290492Y-112751748D01*
X134290492Y-112872649D01*
X134792045Y-112872649D01*
G37*
G36*
X136333889Y-112872649D02*
G01*
X136349576Y-112872427D01*
X136364666Y-112871768D01*
X136379164Y-112870680D01*
X136393078Y-112869170D01*
X136406413Y-112867247D01*
X136419177Y-112864918D01*
X136431376Y-112862192D01*
X136443017Y-112859076D01*
X136454105Y-112855578D01*
X136464648Y-112851707D01*
X136474653Y-112847471D01*
X136484124Y-112842876D01*
X136493070Y-112837932D01*
X136501497Y-112832647D01*
X136509411Y-112827028D01*
X136516819Y-112821083D01*
X136523727Y-112814820D01*
X136530143Y-112808248D01*
X136536071Y-112801374D01*
X136541520Y-112794206D01*
X136546495Y-112786752D01*
X136551003Y-112779021D01*
X136555051Y-112771019D01*
X136558645Y-112762756D01*
X136561791Y-112754239D01*
X136564497Y-112745477D01*
X136566769Y-112736476D01*
X136568613Y-112727246D01*
X136570036Y-112717793D01*
X136571044Y-112708127D01*
X136571644Y-112698254D01*
X136571843Y-112688184D01*
X136571843Y-112596410D01*
X136571644Y-112586339D01*
X136571044Y-112576465D01*
X136570036Y-112566796D01*
X136568613Y-112557341D01*
X136566769Y-112548106D01*
X136564497Y-112539100D01*
X136561791Y-112530332D01*
X136558645Y-112521809D01*
X136555051Y-112513539D01*
X136551003Y-112505531D01*
X136546495Y-112497792D01*
X136541520Y-112490330D01*
X136536071Y-112483154D01*
X136530143Y-112476272D01*
X136523727Y-112469691D01*
X136516819Y-112463420D01*
X136509411Y-112457466D01*
X136501497Y-112451838D01*
X136493070Y-112446544D01*
X136484124Y-112441592D01*
X136474653Y-112436990D01*
X136464648Y-112432746D01*
X136454105Y-112428868D01*
X136443017Y-112425364D01*
X136431376Y-112422241D01*
X136419177Y-112419510D01*
X136406413Y-112417176D01*
X136393078Y-112415248D01*
X136379164Y-112413735D01*
X136364666Y-112412645D01*
X136349576Y-112411984D01*
X136333889Y-112411762D01*
X135899198Y-112411762D01*
X135888172Y-112411520D01*
X135877961Y-112410793D01*
X135868550Y-112409582D01*
X135859925Y-112407887D01*
X135852072Y-112405709D01*
X135844976Y-112403049D01*
X135835722Y-112398155D01*
X135828092Y-112392179D01*
X135822038Y-112385122D01*
X135817513Y-112376986D01*
X135814468Y-112367773D01*
X135812855Y-112357485D01*
X135812553Y-112350030D01*
X135812553Y-112305150D01*
X135812855Y-112297695D01*
X135814468Y-112287407D01*
X135817513Y-112278194D01*
X135822038Y-112270058D01*
X135828092Y-112263001D01*
X135835722Y-112257025D01*
X135844976Y-112252131D01*
X135852072Y-112249471D01*
X135859925Y-112247293D01*
X135868550Y-112245599D01*
X135877961Y-112244387D01*
X135888172Y-112243660D01*
X135899198Y-112243418D01*
X136530810Y-112243418D01*
X136530810Y-112122334D01*
X135899198Y-112122334D01*
X135883510Y-112122556D01*
X135868421Y-112123217D01*
X135853922Y-112124307D01*
X135840009Y-112125819D01*
X135826673Y-112127745D01*
X135813909Y-112130077D01*
X135801710Y-112132806D01*
X135790070Y-112135924D01*
X135778981Y-112139424D01*
X135768438Y-112143296D01*
X135758434Y-112147533D01*
X135748962Y-112152126D01*
X135740016Y-112157068D01*
X135731589Y-112162349D01*
X135723675Y-112167963D01*
X135716267Y-112173900D01*
X135709359Y-112180153D01*
X135702944Y-112186714D01*
X135697015Y-112193573D01*
X135691567Y-112200724D01*
X135686592Y-112208157D01*
X135682084Y-112215865D01*
X135678036Y-112223839D01*
X135674442Y-112232072D01*
X135671295Y-112240555D01*
X135668589Y-112249280D01*
X135666318Y-112258238D01*
X135664474Y-112267422D01*
X135663051Y-112276823D01*
X135662043Y-112286434D01*
X135661443Y-112296245D01*
X135661244Y-112306249D01*
X135661244Y-112348931D01*
X135661443Y-112358934D01*
X135662043Y-112368744D01*
X135663051Y-112378352D01*
X135664474Y-112387750D01*
X135666318Y-112396930D01*
X135668589Y-112405884D01*
X135671295Y-112414603D01*
X135674442Y-112423079D01*
X135678036Y-112431305D01*
X135682084Y-112439273D01*
X135686592Y-112446973D01*
X135691567Y-112454399D01*
X135697015Y-112461541D01*
X135702944Y-112468392D01*
X135709359Y-112474944D01*
X135716267Y-112481188D01*
X135723675Y-112487117D01*
X135731589Y-112492722D01*
X135740016Y-112497996D01*
X135748962Y-112502929D01*
X135758434Y-112507514D01*
X135768438Y-112511744D01*
X135778981Y-112515609D01*
X135790070Y-112519101D01*
X135801710Y-112522213D01*
X135813909Y-112524937D01*
X135826673Y-112527264D01*
X135840009Y-112529186D01*
X135853922Y-112530695D01*
X135868421Y-112531782D01*
X135883510Y-112532441D01*
X135899198Y-112532662D01*
X136333889Y-112532662D01*
X136344882Y-112532911D01*
X136355065Y-112533656D01*
X136364452Y-112534896D01*
X136373056Y-112536629D01*
X136380891Y-112538854D01*
X136387972Y-112541569D01*
X136397209Y-112546556D01*
X136404827Y-112552637D01*
X136410873Y-112559806D01*
X136415394Y-112568057D01*
X136418436Y-112577385D01*
X136420048Y-112587785D01*
X136420351Y-112595311D01*
X136420351Y-112689100D01*
X136420050Y-112696656D01*
X136418448Y-112707087D01*
X136415419Y-112716431D01*
X136410915Y-112724687D01*
X136404886Y-112731850D01*
X136397282Y-112737919D01*
X136388053Y-112742890D01*
X136380972Y-112745593D01*
X136373133Y-112747807D01*
X136364520Y-112749530D01*
X136355118Y-112750762D01*
X136344912Y-112751502D01*
X136333889Y-112751748D01*
X135685424Y-112751748D01*
X135685424Y-112872649D01*
X136333889Y-112872649D01*
G37*
G36*
X137655731Y-112872649D02*
G01*
X138002495Y-112122334D01*
X137854117Y-112122334D01*
X137598578Y-112680674D01*
X137346153Y-112122334D01*
X137234595Y-112122334D01*
X136979056Y-112680674D01*
X136725532Y-112122334D01*
X136578254Y-112122334D01*
X136923919Y-112872649D01*
X137033095Y-112872649D01*
X137290832Y-112314493D01*
X137543257Y-112872649D01*
X137655731Y-112872649D01*
G37*
G36*
X138821869Y-112872649D02*
G01*
X138821869Y-112747535D01*
X138899538Y-112747535D01*
X138899538Y-112626452D01*
X138821869Y-112626452D01*
X138821869Y-112122334D01*
X138670377Y-112122334D01*
X138670377Y-112626452D01*
X138187143Y-112626452D01*
X138563032Y-112122334D01*
X138397252Y-112122334D01*
X138003594Y-112651364D01*
X138003594Y-112747535D01*
X138670377Y-112747535D01*
X138670377Y-112872649D01*
X138821869Y-112872649D01*
G37*
G36*
X140162396Y-112872649D02*
G01*
X140178083Y-112872427D01*
X140193172Y-112871768D01*
X140207671Y-112870680D01*
X140221584Y-112869170D01*
X140234920Y-112867247D01*
X140247684Y-112864918D01*
X140259883Y-112862192D01*
X140271523Y-112859076D01*
X140282612Y-112855578D01*
X140293155Y-112851707D01*
X140303159Y-112847471D01*
X140312631Y-112842876D01*
X140321577Y-112837932D01*
X140330004Y-112832647D01*
X140337918Y-112827028D01*
X140345326Y-112821083D01*
X140352234Y-112814820D01*
X140358649Y-112808248D01*
X140364578Y-112801374D01*
X140370026Y-112794206D01*
X140375002Y-112786752D01*
X140379510Y-112779021D01*
X140383557Y-112771019D01*
X140387151Y-112762756D01*
X140390298Y-112754239D01*
X140393004Y-112745477D01*
X140395276Y-112736476D01*
X140397119Y-112727246D01*
X140398542Y-112717793D01*
X140399550Y-112708127D01*
X140400151Y-112698254D01*
X140400349Y-112688184D01*
X140400349Y-112596410D01*
X140400151Y-112586339D01*
X140399550Y-112576465D01*
X140398542Y-112566796D01*
X140397119Y-112557341D01*
X140395276Y-112548106D01*
X140393004Y-112539100D01*
X140390298Y-112530332D01*
X140387151Y-112521809D01*
X140383557Y-112513539D01*
X140379510Y-112505531D01*
X140375002Y-112497792D01*
X140370026Y-112490330D01*
X140364578Y-112483154D01*
X140358649Y-112476272D01*
X140352234Y-112469691D01*
X140345326Y-112463420D01*
X140337918Y-112457466D01*
X140330004Y-112451838D01*
X140321577Y-112446544D01*
X140312631Y-112441592D01*
X140303159Y-112436990D01*
X140293155Y-112432746D01*
X140282612Y-112428868D01*
X140271523Y-112425364D01*
X140259883Y-112422241D01*
X140247684Y-112419510D01*
X140234920Y-112417176D01*
X140221584Y-112415248D01*
X140207671Y-112413735D01*
X140193172Y-112412645D01*
X140178083Y-112411984D01*
X140162396Y-112411762D01*
X139727704Y-112411762D01*
X139716679Y-112411520D01*
X139706468Y-112410793D01*
X139697057Y-112409582D01*
X139688432Y-112407887D01*
X139680579Y-112405709D01*
X139673483Y-112403049D01*
X139664228Y-112398155D01*
X139656598Y-112392179D01*
X139650545Y-112385122D01*
X139646019Y-112376986D01*
X139642975Y-112367773D01*
X139641362Y-112357485D01*
X139641059Y-112350030D01*
X139641059Y-112305150D01*
X139641362Y-112297695D01*
X139642975Y-112287407D01*
X139646019Y-112278194D01*
X139650545Y-112270058D01*
X139656598Y-112263001D01*
X139664228Y-112257025D01*
X139673483Y-112252131D01*
X139680579Y-112249471D01*
X139688432Y-112247293D01*
X139697057Y-112245599D01*
X139706468Y-112244387D01*
X139716679Y-112243660D01*
X139727704Y-112243418D01*
X140359316Y-112243418D01*
X140359316Y-112122334D01*
X139727704Y-112122334D01*
X139712017Y-112122556D01*
X139696927Y-112123217D01*
X139682429Y-112124307D01*
X139668515Y-112125819D01*
X139655180Y-112127745D01*
X139642416Y-112130077D01*
X139630217Y-112132806D01*
X139618576Y-112135924D01*
X139607488Y-112139424D01*
X139596945Y-112143296D01*
X139586941Y-112147533D01*
X139577469Y-112152126D01*
X139568523Y-112157068D01*
X139560096Y-112162349D01*
X139552182Y-112167963D01*
X139544774Y-112173900D01*
X139537866Y-112180153D01*
X139531451Y-112186714D01*
X139525522Y-112193573D01*
X139520073Y-112200724D01*
X139515098Y-112208157D01*
X139510590Y-112215865D01*
X139506542Y-112223839D01*
X139502948Y-112232072D01*
X139499802Y-112240555D01*
X139497096Y-112249280D01*
X139494824Y-112258238D01*
X139492980Y-112267422D01*
X139491558Y-112276823D01*
X139490549Y-112286434D01*
X139489949Y-112296245D01*
X139489751Y-112306249D01*
X139489751Y-112348931D01*
X139489949Y-112358934D01*
X139490549Y-112368744D01*
X139491558Y-112378352D01*
X139492980Y-112387750D01*
X139494824Y-112396930D01*
X139497096Y-112405884D01*
X139499802Y-112414603D01*
X139502948Y-112423079D01*
X139506542Y-112431305D01*
X139510590Y-112439273D01*
X139515098Y-112446973D01*
X139520073Y-112454399D01*
X139525522Y-112461541D01*
X139531451Y-112468392D01*
X139537866Y-112474944D01*
X139544774Y-112481188D01*
X139552182Y-112487117D01*
X139560096Y-112492722D01*
X139568523Y-112497996D01*
X139577469Y-112502929D01*
X139586941Y-112507514D01*
X139596945Y-112511744D01*
X139607488Y-112515609D01*
X139618576Y-112519101D01*
X139630217Y-112522213D01*
X139642416Y-112524937D01*
X139655180Y-112527264D01*
X139668515Y-112529186D01*
X139682429Y-112530695D01*
X139696927Y-112531782D01*
X139712017Y-112532441D01*
X139727704Y-112532662D01*
X140162396Y-112532662D01*
X140173389Y-112532911D01*
X140183572Y-112533656D01*
X140192958Y-112534896D01*
X140201562Y-112536629D01*
X140209398Y-112538854D01*
X140216479Y-112541569D01*
X140225716Y-112546556D01*
X140233334Y-112552637D01*
X140239379Y-112559806D01*
X140243900Y-112568057D01*
X140246943Y-112577385D01*
X140248555Y-112587785D01*
X140248858Y-112595311D01*
X140248858Y-112689100D01*
X140248557Y-112696656D01*
X140246954Y-112707087D01*
X140243926Y-112716431D01*
X140239422Y-112724687D01*
X140233393Y-112731850D01*
X140225789Y-112737919D01*
X140216559Y-112742890D01*
X140209479Y-112745593D01*
X140201639Y-112747807D01*
X140193026Y-112749530D01*
X140183624Y-112750762D01*
X140173419Y-112751502D01*
X140162396Y-112751748D01*
X139513931Y-112751748D01*
X139513931Y-112872649D01*
X140162396Y-112872649D01*
G37*
G36*
X141484238Y-112872649D02*
G01*
X141831002Y-112122334D01*
X141682624Y-112122334D01*
X141427085Y-112680674D01*
X141174660Y-112122334D01*
X141063102Y-112122334D01*
X140807563Y-112680674D01*
X140554039Y-112122334D01*
X140406761Y-112122334D01*
X140752425Y-112872649D01*
X140861602Y-112872649D01*
X141119339Y-112314493D01*
X141371764Y-112872649D01*
X141484238Y-112872649D01*
G37*
G36*
X142413521Y-112872649D02*
G01*
X142429208Y-112872427D01*
X142444296Y-112871769D01*
X142458792Y-112870681D01*
X142472702Y-112869172D01*
X142486033Y-112867250D01*
X142498792Y-112864924D01*
X142510986Y-112862201D01*
X142522620Y-112859090D01*
X142533702Y-112855599D01*
X142544238Y-112851735D01*
X142554234Y-112847508D01*
X142563698Y-112842925D01*
X142572636Y-112837994D01*
X142581055Y-112832724D01*
X142588960Y-112827122D01*
X142596359Y-112821197D01*
X142603259Y-112814957D01*
X142609666Y-112808411D01*
X142615586Y-112801565D01*
X142621026Y-112794429D01*
X142625994Y-112787011D01*
X142630494Y-112779318D01*
X142634535Y-112771360D01*
X142638122Y-112763143D01*
X142641263Y-112754676D01*
X142643963Y-112745968D01*
X142646230Y-112737026D01*
X142648069Y-112727859D01*
X142649489Y-112718475D01*
X142650495Y-112708881D01*
X142651093Y-112699087D01*
X142651291Y-112689100D01*
X142651291Y-112560323D01*
X142651093Y-112550335D01*
X142650495Y-112540540D01*
X142649489Y-112530944D01*
X142648069Y-112521556D01*
X142646230Y-112512385D01*
X142643963Y-112503438D01*
X142641263Y-112494724D01*
X142638122Y-112486252D01*
X142634535Y-112478028D01*
X142630494Y-112470062D01*
X142625994Y-112462362D01*
X142621026Y-112454936D01*
X142615586Y-112447791D01*
X142609666Y-112440938D01*
X142603259Y-112434383D01*
X142596359Y-112428134D01*
X142588960Y-112422201D01*
X142581055Y-112416591D01*
X142572636Y-112411312D01*
X142563698Y-112406373D01*
X142554234Y-112401782D01*
X142544238Y-112397547D01*
X142533702Y-112393676D01*
X142522620Y-112390178D01*
X142510986Y-112387061D01*
X142498792Y-112384333D01*
X142486033Y-112382001D01*
X142472702Y-112380076D01*
X142458792Y-112378564D01*
X142444296Y-112377473D01*
X142429208Y-112376813D01*
X142413521Y-112376591D01*
X142030853Y-112376591D01*
X142030853Y-112243418D01*
X142627294Y-112243418D01*
X142627294Y-112122334D01*
X141879362Y-112122334D01*
X141879362Y-112497491D01*
X142413521Y-112497491D01*
X142424544Y-112497736D01*
X142434750Y-112498469D01*
X142444151Y-112499688D01*
X142452765Y-112501393D01*
X142460604Y-112503582D01*
X142467684Y-112506253D01*
X142476914Y-112511163D01*
X142484518Y-112517151D01*
X142490547Y-112524213D01*
X142495051Y-112532345D01*
X142498079Y-112541542D01*
X142499682Y-112551799D01*
X142499983Y-112559224D01*
X142499983Y-112690199D01*
X142499682Y-112697622D01*
X142498079Y-112707869D01*
X142495051Y-112717050D01*
X142490547Y-112725160D01*
X142484518Y-112732198D01*
X142476914Y-112738160D01*
X142467684Y-112743045D01*
X142460604Y-112745701D01*
X142452765Y-112747876D01*
X142444151Y-112749569D01*
X142434750Y-112750779D01*
X142424544Y-112751506D01*
X142413521Y-112751748D01*
X141879362Y-112751748D01*
X141879362Y-112872649D01*
X142413521Y-112872649D01*
G37*
G36*
X143942542Y-112872649D02*
G01*
X143958229Y-112872427D01*
X143973319Y-112871768D01*
X143987817Y-112870680D01*
X144001731Y-112869170D01*
X144015067Y-112867247D01*
X144027831Y-112864918D01*
X144040030Y-112862192D01*
X144051670Y-112859076D01*
X144062758Y-112855578D01*
X144073302Y-112851707D01*
X144083306Y-112847471D01*
X144092778Y-112842876D01*
X144101724Y-112837932D01*
X144110150Y-112832647D01*
X144118064Y-112827028D01*
X144125472Y-112821083D01*
X144132381Y-112814820D01*
X144138796Y-112808248D01*
X144144724Y-112801374D01*
X144150173Y-112794206D01*
X144155148Y-112786752D01*
X144159656Y-112779021D01*
X144163704Y-112771019D01*
X144167298Y-112762756D01*
X144170445Y-112754239D01*
X144173150Y-112745477D01*
X144175422Y-112736476D01*
X144177266Y-112727246D01*
X144178689Y-112717793D01*
X144179697Y-112708127D01*
X144180297Y-112698254D01*
X144180496Y-112688184D01*
X144180496Y-112596410D01*
X144180297Y-112586339D01*
X144179697Y-112576465D01*
X144178689Y-112566796D01*
X144177266Y-112557341D01*
X144175422Y-112548106D01*
X144173150Y-112539100D01*
X144170445Y-112530332D01*
X144167298Y-112521809D01*
X144163704Y-112513539D01*
X144159656Y-112505531D01*
X144155148Y-112497792D01*
X144150173Y-112490330D01*
X144144724Y-112483154D01*
X144138796Y-112476272D01*
X144132381Y-112469691D01*
X144125472Y-112463420D01*
X144118064Y-112457466D01*
X144110150Y-112451838D01*
X144101724Y-112446544D01*
X144092778Y-112441592D01*
X144083306Y-112436990D01*
X144073302Y-112432746D01*
X144062758Y-112428868D01*
X144051670Y-112425364D01*
X144040030Y-112422241D01*
X144027831Y-112419510D01*
X144015067Y-112417176D01*
X144001731Y-112415248D01*
X143987817Y-112413735D01*
X143973319Y-112412645D01*
X143958229Y-112411984D01*
X143942542Y-112411762D01*
X143507851Y-112411762D01*
X143496825Y-112411520D01*
X143486614Y-112410793D01*
X143477203Y-112409582D01*
X143468578Y-112407887D01*
X143460725Y-112405709D01*
X143453629Y-112403049D01*
X143444375Y-112398155D01*
X143436745Y-112392179D01*
X143430691Y-112385122D01*
X143426166Y-112376986D01*
X143423121Y-112367773D01*
X143421509Y-112357485D01*
X143421206Y-112350030D01*
X143421206Y-112305150D01*
X143421509Y-112297695D01*
X143423121Y-112287407D01*
X143426166Y-112278194D01*
X143430691Y-112270058D01*
X143436745Y-112263001D01*
X143444375Y-112257025D01*
X143453629Y-112252131D01*
X143460725Y-112249471D01*
X143468578Y-112247293D01*
X143477203Y-112245599D01*
X143486614Y-112244387D01*
X143496825Y-112243660D01*
X143507851Y-112243418D01*
X144139463Y-112243418D01*
X144139463Y-112122334D01*
X143507851Y-112122334D01*
X143492164Y-112122556D01*
X143477074Y-112123217D01*
X143462576Y-112124307D01*
X143448662Y-112125819D01*
X143435326Y-112127745D01*
X143422562Y-112130077D01*
X143410363Y-112132806D01*
X143398723Y-112135924D01*
X143387635Y-112139424D01*
X143377091Y-112143296D01*
X143367087Y-112147533D01*
X143357615Y-112152126D01*
X143348669Y-112157068D01*
X143340243Y-112162349D01*
X143332329Y-112167963D01*
X143324921Y-112173900D01*
X143318012Y-112180153D01*
X143311597Y-112186714D01*
X143305669Y-112193573D01*
X143300220Y-112200724D01*
X143295245Y-112208157D01*
X143290737Y-112215865D01*
X143286689Y-112223839D01*
X143283095Y-112232072D01*
X143279948Y-112240555D01*
X143277243Y-112249280D01*
X143274971Y-112258238D01*
X143273127Y-112267422D01*
X143271704Y-112276823D01*
X143270696Y-112286434D01*
X143270096Y-112296245D01*
X143269897Y-112306249D01*
X143269897Y-112348931D01*
X143270096Y-112358934D01*
X143270696Y-112368744D01*
X143271704Y-112378352D01*
X143273127Y-112387750D01*
X143274971Y-112396930D01*
X143277243Y-112405884D01*
X143279948Y-112414603D01*
X143283095Y-112423079D01*
X143286689Y-112431305D01*
X143290737Y-112439273D01*
X143295245Y-112446973D01*
X143300220Y-112454399D01*
X143305669Y-112461541D01*
X143311597Y-112468392D01*
X143318012Y-112474944D01*
X143324921Y-112481188D01*
X143332329Y-112487117D01*
X143340243Y-112492722D01*
X143348669Y-112497996D01*
X143357615Y-112502929D01*
X143367087Y-112507514D01*
X143377091Y-112511744D01*
X143387635Y-112515609D01*
X143398723Y-112519101D01*
X143410363Y-112522213D01*
X143422562Y-112524937D01*
X143435326Y-112527264D01*
X143448662Y-112529186D01*
X143462576Y-112530695D01*
X143477074Y-112531782D01*
X143492164Y-112532441D01*
X143507851Y-112532662D01*
X143942542Y-112532662D01*
X143953535Y-112532911D01*
X143963718Y-112533656D01*
X143973105Y-112534896D01*
X143981709Y-112536629D01*
X143989544Y-112538854D01*
X143996625Y-112541569D01*
X144005862Y-112546556D01*
X144013480Y-112552637D01*
X144019526Y-112559806D01*
X144024047Y-112568057D01*
X144027089Y-112577385D01*
X144028701Y-112587785D01*
X144029004Y-112595311D01*
X144029004Y-112689100D01*
X144028703Y-112696656D01*
X144027101Y-112707087D01*
X144024072Y-112716431D01*
X144019569Y-112724687D01*
X144013539Y-112731850D01*
X144005935Y-112737919D01*
X143996706Y-112742890D01*
X143989625Y-112745593D01*
X143981786Y-112747807D01*
X143973173Y-112749530D01*
X143963771Y-112750762D01*
X143953566Y-112751502D01*
X143942542Y-112751748D01*
X143294077Y-112751748D01*
X143294077Y-112872649D01*
X143942542Y-112872649D01*
G37*
G36*
X145264384Y-112872649D02*
G01*
X145611148Y-112122334D01*
X145462771Y-112122334D01*
X145207232Y-112680674D01*
X144954807Y-112122334D01*
X144843249Y-112122334D01*
X144587710Y-112680674D01*
X144334185Y-112122334D01*
X144186907Y-112122334D01*
X144532572Y-112872649D01*
X144641748Y-112872649D01*
X144899486Y-112314493D01*
X145151911Y-112872649D01*
X145264384Y-112872649D01*
G37*
G36*
X146440597Y-112243418D02*
G01*
X145863390Y-112243418D01*
X145852397Y-112243671D01*
X145842214Y-112244429D01*
X145832827Y-112245692D01*
X145824223Y-112247456D01*
X145816388Y-112249723D01*
X145809307Y-112252489D01*
X145800070Y-112257572D01*
X145792452Y-112263773D01*
X145786406Y-112271086D01*
X145781885Y-112279508D01*
X145778843Y-112289033D01*
X145777231Y-112299657D01*
X145776928Y-112307348D01*
X145776928Y-112388315D01*
X146237265Y-112388315D01*
X146252952Y-112388537D01*
X146268042Y-112389197D01*
X146282540Y-112390287D01*
X146296454Y-112391799D01*
X146309789Y-112393724D01*
X146322553Y-112396054D01*
X146334752Y-112398781D01*
X146346393Y-112401896D01*
X146357481Y-112405392D01*
X146368024Y-112409259D01*
X146378028Y-112413491D01*
X146387500Y-112418077D01*
X146396446Y-112423011D01*
X146404873Y-112428284D01*
X146412787Y-112433887D01*
X146420195Y-112439812D01*
X146427103Y-112446051D01*
X146433518Y-112452596D01*
X146439447Y-112459438D01*
X146444896Y-112466570D01*
X146449871Y-112473982D01*
X146454379Y-112481667D01*
X146458427Y-112489616D01*
X146462021Y-112497821D01*
X146465167Y-112506273D01*
X146467873Y-112514965D01*
X146470145Y-112523888D01*
X146471989Y-112533034D01*
X146473411Y-112542395D01*
X146474420Y-112551961D01*
X146475020Y-112561726D01*
X146475218Y-112571680D01*
X146475218Y-112689466D01*
X146475020Y-112699420D01*
X146474420Y-112709183D01*
X146473411Y-112718747D01*
X146471989Y-112728105D01*
X146470145Y-112737246D01*
X146467873Y-112746165D01*
X146465167Y-112754851D01*
X146462021Y-112763297D01*
X146458427Y-112771496D01*
X146454379Y-112779437D01*
X146449871Y-112787115D01*
X146444896Y-112794519D01*
X146439447Y-112801642D01*
X146433518Y-112808476D01*
X146427103Y-112815012D01*
X146420195Y-112821243D01*
X146412787Y-112827160D01*
X146404873Y-112832754D01*
X146396446Y-112838018D01*
X146387500Y-112842944D01*
X146378028Y-112847523D01*
X146368024Y-112851746D01*
X146357481Y-112855607D01*
X146346393Y-112859096D01*
X146334752Y-112862205D01*
X146322553Y-112864927D01*
X146309789Y-112867252D01*
X146296454Y-112869173D01*
X146282540Y-112870681D01*
X146268042Y-112871769D01*
X146252952Y-112872427D01*
X146237265Y-112872649D01*
X145863390Y-112872649D01*
X145847703Y-112872427D01*
X145832613Y-112871769D01*
X145818115Y-112870681D01*
X145804201Y-112869173D01*
X145790865Y-112867252D01*
X145778101Y-112864927D01*
X145765903Y-112862205D01*
X145754262Y-112859096D01*
X145743174Y-112855607D01*
X145732631Y-112851746D01*
X145722626Y-112847523D01*
X145713154Y-112842944D01*
X145704208Y-112838018D01*
X145695782Y-112832754D01*
X145687868Y-112827160D01*
X145680460Y-112821243D01*
X145673551Y-112815012D01*
X145667136Y-112808476D01*
X145661208Y-112801642D01*
X145655759Y-112794519D01*
X145650784Y-112787115D01*
X145646276Y-112779437D01*
X145642228Y-112771496D01*
X145638634Y-112763297D01*
X145635487Y-112754851D01*
X145632782Y-112746165D01*
X145630510Y-112737246D01*
X145628666Y-112728105D01*
X145627243Y-112718747D01*
X145626235Y-112709183D01*
X145625635Y-112699420D01*
X145625436Y-112689466D01*
X145625436Y-112509215D01*
X145776928Y-112509215D01*
X145776928Y-112690565D01*
X145777229Y-112697954D01*
X145778831Y-112708151D01*
X145781860Y-112717281D01*
X145786363Y-112725345D01*
X145792393Y-112732339D01*
X145799997Y-112738262D01*
X145809226Y-112743112D01*
X145816307Y-112745749D01*
X145824146Y-112747907D01*
X145832759Y-112749587D01*
X145842161Y-112750787D01*
X145852367Y-112751508D01*
X145863390Y-112751748D01*
X146237265Y-112751748D01*
X146248290Y-112751508D01*
X146258501Y-112750787D01*
X146267912Y-112749587D01*
X146276537Y-112747907D01*
X146284390Y-112745749D01*
X146291486Y-112743112D01*
X146300741Y-112738262D01*
X146308371Y-112732339D01*
X146314424Y-112725345D01*
X146318950Y-112717281D01*
X146321994Y-112708151D01*
X146323607Y-112697954D01*
X146323910Y-112690565D01*
X146323910Y-112570581D01*
X146323607Y-112563190D01*
X146321994Y-112552984D01*
X146318950Y-112543837D01*
X146314424Y-112535752D01*
X146308371Y-112528733D01*
X146300741Y-112522784D01*
X146291486Y-112517909D01*
X146284390Y-112515257D01*
X146276537Y-112513085D01*
X146267912Y-112511393D01*
X146258501Y-112510184D01*
X146248290Y-112509458D01*
X146237265Y-112509215D01*
X145776928Y-112509215D01*
X145625436Y-112509215D01*
X145625436Y-112308264D01*
X145625635Y-112298077D01*
X145626235Y-112288094D01*
X145627243Y-112278323D01*
X145628666Y-112268772D01*
X145630510Y-112259448D01*
X145632782Y-112250360D01*
X145635487Y-112241516D01*
X145638634Y-112232922D01*
X145642228Y-112224587D01*
X145646276Y-112216520D01*
X145650784Y-112208726D01*
X145655759Y-112201215D01*
X145661208Y-112193995D01*
X145667136Y-112187072D01*
X145673551Y-112180455D01*
X145680460Y-112174152D01*
X145687868Y-112168170D01*
X145695782Y-112162518D01*
X145704208Y-112157203D01*
X145713154Y-112152232D01*
X145722626Y-112147614D01*
X145732631Y-112143357D01*
X145743174Y-112139468D01*
X145754262Y-112135956D01*
X145765903Y-112132827D01*
X145778101Y-112130090D01*
X145790865Y-112127753D01*
X145804201Y-112125823D01*
X145818115Y-112124309D01*
X145832613Y-112123217D01*
X145847703Y-112122556D01*
X145863390Y-112122334D01*
X146440597Y-112122334D01*
X146440597Y-112243418D01*
G37*
D12*
%TO.C,U1*%
X136316299Y-99728452D02*
X136402896Y-99086875D01*
X136316299Y-99728452D02*
X134385276Y-99457065D01*
X135850299Y-103046452D02*
X135936896Y-102404875D01*
X135850299Y-103046452D02*
X133919276Y-102775065D01*
X135800653Y-99253761D02*
X135350788Y-99592759D01*
X135346794Y-99595768D02*
X135008439Y-99142422D01*
X135334653Y-102571761D02*
X134884788Y-102910759D01*
X135008439Y-99142422D02*
X135800653Y-99253761D01*
X134880794Y-102913768D02*
X134542439Y-102460422D01*
X134631923Y-97676679D02*
X134929003Y-97718431D01*
X134542439Y-102460422D02*
X135334653Y-102571761D01*
X134478832Y-98765974D02*
X134631923Y-97676679D01*
X134396431Y-98643254D02*
X134396431Y-98343254D01*
X134378446Y-99505665D02*
X134478832Y-98765974D01*
X134378446Y-99505665D02*
X134214403Y-100647483D01*
X134214403Y-100647483D02*
X134511484Y-100689235D01*
X134165923Y-100994679D02*
X134463003Y-101036431D01*
X134012832Y-102083974D02*
X134165923Y-100994679D01*
X133930431Y-101960254D02*
X133930431Y-101660254D01*
X133912446Y-102823665D02*
X134012832Y-102083974D01*
X133912446Y-102823665D02*
X133748403Y-103965483D01*
X133748403Y-103965483D02*
X134045484Y-104007235D01*
X133464431Y-105277254D02*
X133464431Y-104977254D01*
X133242895Y-98639718D02*
X134396431Y-98643254D01*
X133242895Y-98639718D02*
X132496431Y-98643254D01*
X133197353Y-97668254D02*
X132795509Y-98066410D01*
X133193817Y-96689718D02*
X133193817Y-98639718D01*
X133193817Y-96689718D02*
X132546431Y-96693254D01*
X132795509Y-98066410D02*
X132795509Y-97266410D01*
X132795509Y-97266410D02*
X133193817Y-97664718D01*
X132776895Y-101956718D02*
X133930431Y-101960254D01*
X132776895Y-101956718D02*
X132030431Y-101960254D01*
X132731353Y-100985254D02*
X132329509Y-101383410D01*
X132727817Y-100006718D02*
X132727817Y-101956718D01*
X132727817Y-100006718D02*
X132080431Y-100010254D01*
X132496431Y-98643254D02*
X131396431Y-98643254D01*
X132329509Y-101383410D02*
X132329509Y-100583410D01*
X132329509Y-100583410D02*
X132727817Y-100981718D01*
X132310895Y-105273718D02*
X133464431Y-105277254D01*
X132310895Y-105273718D02*
X131564431Y-105277254D01*
X132265353Y-104302254D02*
X131863509Y-104700410D01*
X132261817Y-103323718D02*
X132261817Y-105273718D01*
X132261817Y-103323718D02*
X131614431Y-103327254D01*
X132030431Y-101960254D02*
X130930431Y-101960254D01*
X131863509Y-104700410D02*
X131863509Y-103900410D01*
X131863509Y-103900410D02*
X132261817Y-104298718D01*
X131564431Y-105277254D02*
X130464431Y-105277254D01*
X131396431Y-98643254D02*
X131396431Y-98343254D01*
X131112459Y-97955025D02*
X130815378Y-97913273D01*
X130948416Y-99096843D02*
X131112459Y-97955025D01*
X130948416Y-99096843D02*
X130848030Y-99836534D01*
X130930431Y-101960254D02*
X130930431Y-101660254D01*
X130848030Y-99836534D02*
X130694939Y-100925829D01*
X130694939Y-100925829D02*
X130397859Y-100884077D01*
X130646459Y-101273025D02*
X130349378Y-101231273D01*
X130482416Y-102414843D02*
X130646459Y-101273025D01*
X130482416Y-102414843D02*
X130382030Y-103154534D01*
X130464431Y-105277254D02*
X130464431Y-104977254D01*
X130382030Y-103154534D02*
X130228939Y-104243829D01*
X130318423Y-99460086D02*
X129526209Y-99348747D01*
X130228939Y-104243829D02*
X129931859Y-104202077D01*
X129980068Y-99006740D02*
X130318423Y-99460086D01*
X129852423Y-102778086D02*
X129060209Y-102666747D01*
X129526209Y-99348747D02*
X129976074Y-99009749D01*
X129514068Y-102324740D02*
X129852423Y-102778086D01*
X129060209Y-102666747D02*
X129510074Y-102327749D01*
X129010563Y-98874056D02*
X130941586Y-99145443D01*
X129010563Y-98874056D02*
X128923966Y-99515633D01*
X128544563Y-102192056D02*
X130475586Y-102463443D01*
X128544563Y-102192056D02*
X128457966Y-102833633D01*
%TO.C,U3*%
X157816299Y-99728452D02*
X157902896Y-99086875D01*
X157816299Y-99728452D02*
X155885276Y-99457065D01*
X157350299Y-103046452D02*
X157436896Y-102404875D01*
X157350299Y-103046452D02*
X155419276Y-102775065D01*
X157300653Y-99253761D02*
X156850788Y-99592759D01*
X156846794Y-99595768D02*
X156508439Y-99142422D01*
X156834653Y-102571761D02*
X156384788Y-102910759D01*
X156508439Y-99142422D02*
X157300653Y-99253761D01*
X156380794Y-102913768D02*
X156042439Y-102460422D01*
X156131923Y-97676679D02*
X156429003Y-97718431D01*
X156042439Y-102460422D02*
X156834653Y-102571761D01*
X155978832Y-98765974D02*
X156131923Y-97676679D01*
X155896431Y-98643254D02*
X155896431Y-98343254D01*
X155878446Y-99505665D02*
X155978832Y-98765974D01*
X155878446Y-99505665D02*
X155714403Y-100647483D01*
X155714403Y-100647483D02*
X156011484Y-100689235D01*
X155665923Y-100994679D02*
X155963003Y-101036431D01*
X155512832Y-102083974D02*
X155665923Y-100994679D01*
X155430431Y-101960254D02*
X155430431Y-101660254D01*
X155412446Y-102823665D02*
X155512832Y-102083974D01*
X155412446Y-102823665D02*
X155248403Y-103965483D01*
X155248403Y-103965483D02*
X155545484Y-104007235D01*
X154964431Y-105277254D02*
X154964431Y-104977254D01*
X154742895Y-98639718D02*
X155896431Y-98643254D01*
X154742895Y-98639718D02*
X153996431Y-98643254D01*
X154697353Y-97668254D02*
X154295509Y-98066410D01*
X154693817Y-96689718D02*
X154693817Y-98639718D01*
X154693817Y-96689718D02*
X154046431Y-96693254D01*
X154295509Y-98066410D02*
X154295509Y-97266410D01*
X154295509Y-97266410D02*
X154693817Y-97664718D01*
X154276895Y-101956718D02*
X155430431Y-101960254D01*
X154276895Y-101956718D02*
X153530431Y-101960254D01*
X154231353Y-100985254D02*
X153829509Y-101383410D01*
X154227817Y-100006718D02*
X154227817Y-101956718D01*
X154227817Y-100006718D02*
X153580431Y-100010254D01*
X153996431Y-98643254D02*
X152896431Y-98643254D01*
X153829509Y-101383410D02*
X153829509Y-100583410D01*
X153829509Y-100583410D02*
X154227817Y-100981718D01*
X153810895Y-105273718D02*
X154964431Y-105277254D01*
X153810895Y-105273718D02*
X153064431Y-105277254D01*
X153765353Y-104302254D02*
X153363509Y-104700410D01*
X153761817Y-103323718D02*
X153761817Y-105273718D01*
X153761817Y-103323718D02*
X153114431Y-103327254D01*
X153530431Y-101960254D02*
X152430431Y-101960254D01*
X153363509Y-104700410D02*
X153363509Y-103900410D01*
X153363509Y-103900410D02*
X153761817Y-104298718D01*
X153064431Y-105277254D02*
X151964431Y-105277254D01*
X152896431Y-98643254D02*
X152896431Y-98343254D01*
X152612459Y-97955025D02*
X152315378Y-97913273D01*
X152448416Y-99096843D02*
X152612459Y-97955025D01*
X152448416Y-99096843D02*
X152348030Y-99836534D01*
X152430431Y-101960254D02*
X152430431Y-101660254D01*
X152348030Y-99836534D02*
X152194939Y-100925829D01*
X152194939Y-100925829D02*
X151897859Y-100884077D01*
X152146459Y-101273025D02*
X151849378Y-101231273D01*
X151982416Y-102414843D02*
X152146459Y-101273025D01*
X151982416Y-102414843D02*
X151882030Y-103154534D01*
X151964431Y-105277254D02*
X151964431Y-104977254D01*
X151882030Y-103154534D02*
X151728939Y-104243829D01*
X151818423Y-99460086D02*
X151026209Y-99348747D01*
X151728939Y-104243829D02*
X151431859Y-104202077D01*
X151480068Y-99006740D02*
X151818423Y-99460086D01*
X151352423Y-102778086D02*
X150560209Y-102666747D01*
X151026209Y-99348747D02*
X151476074Y-99009749D01*
X151014068Y-102324740D02*
X151352423Y-102778086D01*
X150560209Y-102666747D02*
X151010074Y-102327749D01*
X150510563Y-98874056D02*
X152441586Y-99145443D01*
X150510563Y-98874056D02*
X150423966Y-99515633D01*
X150044563Y-102192056D02*
X151975586Y-102463443D01*
X150044563Y-102192056D02*
X149957966Y-102833633D01*
%TO.C,U2*%
X138044563Y-102192056D02*
X137957966Y-102833633D01*
X138044563Y-102192056D02*
X139975586Y-102463443D01*
X138510563Y-98874056D02*
X138423966Y-99515633D01*
X138510563Y-98874056D02*
X140441586Y-99145443D01*
X138560209Y-102666747D02*
X139010074Y-102327749D01*
X139014068Y-102324740D02*
X139352423Y-102778086D01*
X139026209Y-99348747D02*
X139476074Y-99009749D01*
X139352423Y-102778086D02*
X138560209Y-102666747D01*
X139480068Y-99006740D02*
X139818423Y-99460086D01*
X139728939Y-104243829D02*
X139431859Y-104202077D01*
X139818423Y-99460086D02*
X139026209Y-99348747D01*
X139882030Y-103154534D02*
X139728939Y-104243829D01*
X139964431Y-105277254D02*
X139964431Y-104977254D01*
X139982416Y-102414843D02*
X139882030Y-103154534D01*
X139982416Y-102414843D02*
X140146459Y-101273025D01*
X140146459Y-101273025D02*
X139849378Y-101231273D01*
X140194939Y-100925829D02*
X139897859Y-100884077D01*
X140348030Y-99836534D02*
X140194939Y-100925829D01*
X140430431Y-101960254D02*
X140430431Y-101660254D01*
X140448416Y-99096843D02*
X140348030Y-99836534D01*
X140448416Y-99096843D02*
X140612459Y-97955025D01*
X140612459Y-97955025D02*
X140315378Y-97913273D01*
X140896431Y-98643254D02*
X140896431Y-98343254D01*
X141064431Y-105277254D02*
X139964431Y-105277254D01*
X141363509Y-103900410D02*
X141761817Y-104298718D01*
X141363509Y-104700410D02*
X141363509Y-103900410D01*
X141530431Y-101960254D02*
X140430431Y-101960254D01*
X141761817Y-103323718D02*
X141114431Y-103327254D01*
X141761817Y-103323718D02*
X141761817Y-105273718D01*
X141765353Y-104302254D02*
X141363509Y-104700410D01*
X141810895Y-105273718D02*
X141064431Y-105277254D01*
X141810895Y-105273718D02*
X142964431Y-105277254D01*
X141829509Y-100583410D02*
X142227817Y-100981718D01*
X141829509Y-101383410D02*
X141829509Y-100583410D01*
X141996431Y-98643254D02*
X140896431Y-98643254D01*
X142227817Y-100006718D02*
X141580431Y-100010254D01*
X142227817Y-100006718D02*
X142227817Y-101956718D01*
X142231353Y-100985254D02*
X141829509Y-101383410D01*
X142276895Y-101956718D02*
X141530431Y-101960254D01*
X142276895Y-101956718D02*
X143430431Y-101960254D01*
X142295509Y-97266410D02*
X142693817Y-97664718D01*
X142295509Y-98066410D02*
X142295509Y-97266410D01*
X142693817Y-96689718D02*
X142046431Y-96693254D01*
X142693817Y-96689718D02*
X142693817Y-98639718D01*
X142697353Y-97668254D02*
X142295509Y-98066410D01*
X142742895Y-98639718D02*
X141996431Y-98643254D01*
X142742895Y-98639718D02*
X143896431Y-98643254D01*
X142964431Y-105277254D02*
X142964431Y-104977254D01*
X143248403Y-103965483D02*
X143545484Y-104007235D01*
X143412446Y-102823665D02*
X143248403Y-103965483D01*
X143412446Y-102823665D02*
X143512832Y-102083974D01*
X143430431Y-101960254D02*
X143430431Y-101660254D01*
X143512832Y-102083974D02*
X143665923Y-100994679D01*
X143665923Y-100994679D02*
X143963003Y-101036431D01*
X143714403Y-100647483D02*
X144011484Y-100689235D01*
X143878446Y-99505665D02*
X143714403Y-100647483D01*
X143878446Y-99505665D02*
X143978832Y-98765974D01*
X143896431Y-98643254D02*
X143896431Y-98343254D01*
X143978832Y-98765974D02*
X144131923Y-97676679D01*
X144042439Y-102460422D02*
X144834653Y-102571761D01*
X144131923Y-97676679D02*
X144429003Y-97718431D01*
X144380794Y-102913768D02*
X144042439Y-102460422D01*
X144508439Y-99142422D02*
X145300653Y-99253761D01*
X144834653Y-102571761D02*
X144384788Y-102910759D01*
X144846794Y-99595768D02*
X144508439Y-99142422D01*
X145300653Y-99253761D02*
X144850788Y-99592759D01*
X145350299Y-103046452D02*
X143419276Y-102775065D01*
X145350299Y-103046452D02*
X145436896Y-102404875D01*
X145816299Y-99728452D02*
X143885276Y-99457065D01*
X145816299Y-99728452D02*
X145902896Y-99086875D01*
%TO.C,U4*%
X167316299Y-99728452D02*
X167402896Y-99086875D01*
X167316299Y-99728452D02*
X165385276Y-99457065D01*
X166850299Y-103046452D02*
X166936896Y-102404875D01*
X166850299Y-103046452D02*
X164919276Y-102775065D01*
X166800653Y-99253761D02*
X166350788Y-99592759D01*
X166346794Y-99595768D02*
X166008439Y-99142422D01*
X166334653Y-102571761D02*
X165884788Y-102910759D01*
X166008439Y-99142422D02*
X166800653Y-99253761D01*
X165880794Y-102913768D02*
X165542439Y-102460422D01*
X165631923Y-97676679D02*
X165929003Y-97718431D01*
X165542439Y-102460422D02*
X166334653Y-102571761D01*
X165478832Y-98765974D02*
X165631923Y-97676679D01*
X165396431Y-98643254D02*
X165396431Y-98343254D01*
X165378446Y-99505665D02*
X165478832Y-98765974D01*
X165378446Y-99505665D02*
X165214403Y-100647483D01*
X165214403Y-100647483D02*
X165511484Y-100689235D01*
X165165923Y-100994679D02*
X165463003Y-101036431D01*
X165012832Y-102083974D02*
X165165923Y-100994679D01*
X164930431Y-101960254D02*
X164930431Y-101660254D01*
X164912446Y-102823665D02*
X165012832Y-102083974D01*
X164912446Y-102823665D02*
X164748403Y-103965483D01*
X164748403Y-103965483D02*
X165045484Y-104007235D01*
X164464431Y-105277254D02*
X164464431Y-104977254D01*
X164242895Y-98639718D02*
X165396431Y-98643254D01*
X164242895Y-98639718D02*
X163496431Y-98643254D01*
X164197353Y-97668254D02*
X163795509Y-98066410D01*
X164193817Y-96689718D02*
X164193817Y-98639718D01*
X164193817Y-96689718D02*
X163546431Y-96693254D01*
X163795509Y-98066410D02*
X163795509Y-97266410D01*
X163795509Y-97266410D02*
X164193817Y-97664718D01*
X163776895Y-101956718D02*
X164930431Y-101960254D01*
X163776895Y-101956718D02*
X163030431Y-101960254D01*
X163731353Y-100985254D02*
X163329509Y-101383410D01*
X163727817Y-100006718D02*
X163727817Y-101956718D01*
X163727817Y-100006718D02*
X163080431Y-100010254D01*
X163496431Y-98643254D02*
X162396431Y-98643254D01*
X163329509Y-101383410D02*
X163329509Y-100583410D01*
X163329509Y-100583410D02*
X163727817Y-100981718D01*
X163310895Y-105273718D02*
X164464431Y-105277254D01*
X163310895Y-105273718D02*
X162564431Y-105277254D01*
X163265353Y-104302254D02*
X162863509Y-104700410D01*
X163261817Y-103323718D02*
X163261817Y-105273718D01*
X163261817Y-103323718D02*
X162614431Y-103327254D01*
X163030431Y-101960254D02*
X161930431Y-101960254D01*
X162863509Y-104700410D02*
X162863509Y-103900410D01*
X162863509Y-103900410D02*
X163261817Y-104298718D01*
X162564431Y-105277254D02*
X161464431Y-105277254D01*
X162396431Y-98643254D02*
X162396431Y-98343254D01*
X162112459Y-97955025D02*
X161815378Y-97913273D01*
X161948416Y-99096843D02*
X162112459Y-97955025D01*
X161948416Y-99096843D02*
X161848030Y-99836534D01*
X161930431Y-101960254D02*
X161930431Y-101660254D01*
X161848030Y-99836534D02*
X161694939Y-100925829D01*
X161694939Y-100925829D02*
X161397859Y-100884077D01*
X161646459Y-101273025D02*
X161349378Y-101231273D01*
X161482416Y-102414843D02*
X161646459Y-101273025D01*
X161482416Y-102414843D02*
X161382030Y-103154534D01*
X161464431Y-105277254D02*
X161464431Y-104977254D01*
X161382030Y-103154534D02*
X161228939Y-104243829D01*
X161318423Y-99460086D02*
X160526209Y-99348747D01*
X161228939Y-104243829D02*
X160931859Y-104202077D01*
X160980068Y-99006740D02*
X161318423Y-99460086D01*
X160852423Y-102778086D02*
X160060209Y-102666747D01*
X160526209Y-99348747D02*
X160976074Y-99009749D01*
X160514068Y-102324740D02*
X160852423Y-102778086D01*
X160060209Y-102666747D02*
X160510074Y-102327749D01*
X160010563Y-98874056D02*
X161941586Y-99145443D01*
X160010563Y-98874056D02*
X159923966Y-99515633D01*
X159544563Y-102192056D02*
X161475586Y-102463443D01*
X159544563Y-102192056D02*
X159457966Y-102833633D01*
%TO.C,J2*%
X162410000Y-116060000D02*
X162410000Y-120390000D01*
X153990000Y-116060000D02*
X153990000Y-120390000D01*
X161190000Y-116060000D02*
X161190000Y-120390000D01*
X151610000Y-116060000D02*
X151610000Y-120390000D01*
X169610000Y-116060000D02*
X169610000Y-120390000D01*
X158810000Y-116060000D02*
X158810000Y-120390000D01*
X155210000Y-116060000D02*
X155210000Y-120390000D01*
X168390000Y-116060000D02*
X168390000Y-120390000D01*
X150390000Y-116060000D02*
X150390000Y-120390000D01*
X166010000Y-116060000D02*
X166010000Y-120390000D01*
X157590000Y-116060000D02*
X157590000Y-120390000D01*
X164790000Y-116060000D02*
X164790000Y-120390000D01*
%TO.C,J1*%
X138010000Y-116035000D02*
X138010000Y-120365000D01*
X129590000Y-116035000D02*
X129590000Y-120365000D01*
X136790000Y-116035000D02*
X136790000Y-120365000D01*
X127210000Y-116035000D02*
X127210000Y-120365000D01*
X145210000Y-116035000D02*
X145210000Y-120365000D01*
X134410000Y-116035000D02*
X134410000Y-120365000D01*
X130810000Y-116035000D02*
X130810000Y-120365000D01*
X143990000Y-116035000D02*
X143990000Y-120365000D01*
X125990000Y-116035000D02*
X125990000Y-120365000D01*
X141610000Y-116035000D02*
X141610000Y-120365000D01*
X133190000Y-116035000D02*
X133190000Y-120365000D01*
X140390000Y-116035000D02*
X140390000Y-120365000D01*
%TO.C,D40*%
X147265000Y-109485000D02*
X148735000Y-109485000D01*
X148735000Y-109485000D02*
X148735000Y-107200000D01*
X147265000Y-107200000D02*
X147265000Y-109485000D01*
%TO.C,D37*%
X148735000Y-101115000D02*
X147265000Y-101115000D01*
X147265000Y-101115000D02*
X147265000Y-103400000D01*
X148735000Y-103400000D02*
X148735000Y-101115000D01*
%TO.C,D39*%
X145265000Y-109485000D02*
X146735000Y-109485000D01*
X146735000Y-109485000D02*
X146735000Y-107200000D01*
X145265000Y-107200000D02*
X145265000Y-109485000D01*
%TO.C,D42*%
X151265000Y-109485000D02*
X152735000Y-109485000D01*
X152735000Y-109485000D02*
X152735000Y-107200000D01*
X151265000Y-107200000D02*
X151265000Y-109485000D01*
%TO.C,D41*%
X149265000Y-109485000D02*
X150735000Y-109485000D01*
X150735000Y-109485000D02*
X150735000Y-107200000D01*
X149265000Y-107200000D02*
X149265000Y-109485000D01*
%TO.C,D36*%
X147265000Y-100885000D02*
X148735000Y-100885000D01*
X148735000Y-100885000D02*
X148735000Y-98600000D01*
X147265000Y-98600000D02*
X147265000Y-100885000D01*
%TO.C,D38*%
X143265000Y-109485000D02*
X144735000Y-109485000D01*
X144735000Y-109485000D02*
X144735000Y-107200000D01*
X143265000Y-107200000D02*
X143265000Y-109485000D01*
%TD*%
M02*
